%
M48
M72
T01C0.0130
T02C0.0787
%
T01
X7384Y7458
X8024Y6991
X8664Y6548
X10148Y8976
X9774Y9176
X9446Y9446
X9176Y9774
X8976Y10148
X8853Y10554
X8811Y10977
X8853Y11399
X8976Y11805
X9176Y12180
X9446Y12508
X9774Y12777
X10148Y12977
X10554Y13101
X10977Y13142
X11399Y13101
X11805Y12977
X12180Y12777
X12508Y12508
X12777Y12180
X12977Y11805
X13101Y11399
X13142Y10977
X13101Y10554
X12977Y10148
X12777Y9774
X12508Y9446
X12180Y9176
X11805Y8976
X11399Y8853
X10977Y8811
X10554Y8853
X10977Y10477
X10977Y10977
X10977Y11477
X11477Y10977
X10477Y10977
X6498Y13142
X6252Y12404
X6006Y11666
X10189Y15898
X10977Y15898
X11764Y15898
X15431Y13241
X15677Y12502
X15923Y11740
X17276Y10780
X14471Y7384
X13831Y6917
X13167Y6449
T02
X10977Y20475
M30
