G75*
%MOIN*%
%OFA0B0*%
%FSLAX24Y24*%
%IPPOS*%
%LPD*%
%AMOC8*
5,1,8,0,0,1.08239X$1,22.5*
%
%ADD10C,0.0000*%
%ADD11R,0.0059X0.0118*%
%ADD12R,0.0118X0.0118*%
%ADD13R,0.0118X0.0118*%
%ADD14C,0.0060*%
%ADD15C,0.0050*%
D10*
X003693Y003291D02*
X003390Y003649D01*
X003120Y004022D01*
X002887Y004409D01*
X002694Y004806D01*
X002545Y005211D01*
X002443Y005621D01*
X002392Y006035D01*
X002396Y006448D01*
X002458Y006859D01*
X002582Y007266D01*
X002770Y007665D01*
X003028Y008054D01*
X003358Y008430D01*
X002876Y008540D01*
X002444Y008703D01*
X002061Y008914D01*
X001725Y009170D01*
X001436Y009466D01*
X001193Y009799D01*
X000992Y010163D01*
X000834Y010555D01*
X000718Y010971D01*
X000640Y011406D01*
X000602Y011856D01*
X000600Y012317D01*
X000634Y012786D01*
X000702Y013256D01*
X000804Y013726D01*
X000937Y014189D01*
X001100Y014643D01*
X001293Y015082D01*
X001514Y015504D01*
X001760Y015902D01*
X002032Y016275D01*
X002328Y016616D01*
X002646Y016922D01*
X002985Y017189D01*
X003344Y017413D01*
X003721Y017589D01*
X004116Y017713D01*
X004526Y017781D01*
X004951Y017789D01*
X005388Y017733D01*
X005838Y017608D01*
X006298Y017411D01*
X006253Y017903D01*
X006275Y018365D01*
X006357Y018794D01*
X006497Y019192D01*
X006689Y019558D01*
X006930Y019893D01*
X007215Y020196D01*
X007539Y020467D01*
X007898Y020707D01*
X008288Y020915D01*
X008704Y021091D01*
X009143Y021235D01*
X009598Y021347D01*
X010067Y021428D01*
X010545Y021476D01*
X011027Y021493D01*
X011509Y021477D01*
X011986Y021430D01*
X012455Y021351D01*
X012911Y021239D01*
X013349Y021096D01*
X013765Y020920D01*
X014154Y020712D01*
X014513Y020472D01*
X014837Y020200D01*
X015121Y019895D01*
X015361Y019559D01*
X015552Y019190D01*
X015691Y018788D01*
X015773Y018354D01*
X015793Y017888D01*
X015748Y017390D01*
X016202Y017584D01*
X016647Y017707D01*
X017081Y017761D01*
X017503Y017751D01*
X017911Y017681D01*
X018304Y017556D01*
X018680Y017379D01*
X019038Y017154D01*
X019377Y016887D01*
X019695Y016580D01*
X019991Y016238D01*
X020264Y015866D01*
X020511Y015467D01*
X020733Y015046D01*
X020926Y014607D01*
X021091Y014154D01*
X021225Y013691D01*
X021328Y013222D01*
X021397Y012751D01*
X021432Y012284D01*
X021431Y011823D01*
X021392Y011373D01*
X021315Y010938D01*
X021198Y010523D01*
X021039Y010131D01*
X020837Y009767D01*
X020591Y009434D01*
X020299Y009138D01*
X019960Y008882D01*
X019573Y008670D01*
X019136Y008507D01*
X018647Y008396D01*
X018973Y008024D01*
X019227Y007638D01*
X019413Y007242D01*
X019534Y006838D01*
X019593Y006429D01*
X019595Y006017D01*
X019543Y005604D01*
X019440Y005194D01*
X019291Y004789D01*
X019097Y004392D01*
X018864Y004005D01*
X018594Y003631D01*
X018291Y003272D01*
X017959Y002931D01*
X017601Y002611D01*
X017221Y002314D01*
X016822Y002043D01*
X016408Y001801D01*
X015982Y001590D01*
X015548Y001412D01*
X015109Y001271D01*
X014670Y001169D01*
X014232Y001108D01*
X013801Y001091D01*
X013379Y001121D01*
X012970Y001200D01*
X012578Y001332D01*
X012206Y001518D01*
X011858Y001761D01*
X011537Y002064D01*
X011246Y002429D01*
X010990Y002859D01*
X010737Y002434D01*
X010449Y002074D01*
X010129Y001775D01*
X009782Y001535D01*
X009411Y001352D01*
X009020Y001222D01*
X008612Y001145D01*
X008190Y001116D01*
X007759Y001133D01*
X007321Y001194D01*
X006881Y001296D01*
X006441Y001437D01*
X006007Y001614D01*
X005580Y001825D01*
X005165Y002066D01*
X004765Y002336D01*
X004384Y002632D01*
X004026Y002951D01*
X003693Y003291D01*
X010583Y020475D02*
X010585Y020514D01*
X010591Y020553D01*
X010601Y020591D01*
X010614Y020628D01*
X010631Y020663D01*
X010651Y020697D01*
X010675Y020728D01*
X010702Y020757D01*
X010731Y020783D01*
X010763Y020806D01*
X010797Y020826D01*
X010833Y020842D01*
X010870Y020854D01*
X010909Y020863D01*
X010948Y020868D01*
X010987Y020869D01*
X011026Y020866D01*
X011065Y020859D01*
X011102Y020848D01*
X011139Y020834D01*
X011174Y020816D01*
X011207Y020795D01*
X011238Y020770D01*
X011266Y020743D01*
X011291Y020713D01*
X011313Y020680D01*
X011332Y020646D01*
X011347Y020610D01*
X011359Y020572D01*
X011367Y020534D01*
X011371Y020495D01*
X011371Y020455D01*
X011367Y020416D01*
X011359Y020378D01*
X011347Y020340D01*
X011332Y020304D01*
X011313Y020270D01*
X011291Y020237D01*
X011266Y020207D01*
X011238Y020180D01*
X011207Y020155D01*
X011174Y020134D01*
X011139Y020116D01*
X011102Y020102D01*
X011065Y020091D01*
X011026Y020084D01*
X010987Y020081D01*
X010948Y020082D01*
X010909Y020087D01*
X010870Y020096D01*
X010833Y020108D01*
X010797Y020124D01*
X010763Y020144D01*
X010731Y020167D01*
X010702Y020193D01*
X010675Y020222D01*
X010651Y020253D01*
X010631Y020287D01*
X010614Y020322D01*
X010601Y020359D01*
X010591Y020397D01*
X010585Y020436D01*
X010583Y020475D01*
D11*
X010741Y018989D03*
X011213Y018989D03*
G36*
X011995Y017900D02*
X011966Y017850D01*
X011865Y017908D01*
X011894Y017958D01*
X011995Y017900D01*
G37*
G36*
X011758Y017491D02*
X011729Y017441D01*
X011628Y017499D01*
X011657Y017549D01*
X011758Y017491D01*
G37*
G36*
X010224Y017441D02*
X010195Y017491D01*
X010296Y017549D01*
X010325Y017499D01*
X010224Y017441D01*
G37*
G36*
X009988Y017850D02*
X009959Y017900D01*
X010060Y017958D01*
X010089Y017908D01*
X009988Y017850D01*
G37*
G36*
X004987Y013640D02*
X005026Y013596D01*
X004939Y013518D01*
X004900Y013562D01*
X004987Y013640D01*
G37*
G36*
X004671Y013991D02*
X004710Y013947D01*
X004623Y013869D01*
X004584Y013913D01*
X004671Y013991D01*
G37*
G36*
X003329Y013575D02*
X003347Y013629D01*
X003459Y013593D01*
X003441Y013539D01*
X003329Y013575D01*
G37*
G36*
X003183Y013126D02*
X003201Y013180D01*
X003313Y013144D01*
X003295Y013090D01*
X003183Y013126D01*
G37*
G36*
X004098Y012067D02*
X004042Y012055D01*
X004018Y012169D01*
X004074Y012181D01*
X004098Y012067D01*
G37*
G36*
X004560Y012165D02*
X004504Y012153D01*
X004480Y012267D01*
X004536Y012279D01*
X004560Y012165D01*
G37*
G36*
X006458Y006181D02*
X006510Y006204D01*
X006558Y006097D01*
X006506Y006074D01*
X006458Y006181D01*
G37*
G36*
X006027Y005989D02*
X006079Y006012D01*
X006127Y005905D01*
X006075Y005882D01*
X006027Y005989D01*
G37*
G36*
X006008Y004584D02*
X005961Y004618D01*
X006030Y004712D01*
X006077Y004678D01*
X006008Y004584D01*
G37*
G36*
X006390Y004306D02*
X006343Y004340D01*
X006412Y004434D01*
X006459Y004400D01*
X006390Y004306D01*
G37*
G36*
X007679Y004849D02*
X007673Y004792D01*
X007557Y004805D01*
X007563Y004862D01*
X007679Y004849D01*
G37*
G36*
X007729Y005319D02*
X007723Y005262D01*
X007607Y005275D01*
X007613Y005332D01*
X007729Y005319D01*
G37*
G36*
X014121Y005184D02*
X014115Y005241D01*
X014231Y005254D01*
X014237Y005197D01*
X014121Y005184D01*
G37*
G36*
X014170Y004714D02*
X014164Y004771D01*
X014280Y004784D01*
X014286Y004727D01*
X014170Y004714D01*
G37*
G36*
X015500Y004263D02*
X015453Y004229D01*
X015384Y004323D01*
X015431Y004357D01*
X015500Y004263D01*
G37*
G36*
X015883Y004541D02*
X015836Y004507D01*
X015767Y004601D01*
X015814Y004635D01*
X015883Y004541D01*
G37*
G36*
X015765Y005934D02*
X015817Y005911D01*
X015769Y005804D01*
X015717Y005827D01*
X015765Y005934D01*
G37*
G36*
X015333Y006127D02*
X015385Y006104D01*
X015337Y005997D01*
X015285Y006020D01*
X015333Y006127D01*
G37*
G36*
X017882Y012148D02*
X017826Y012160D01*
X017850Y012274D01*
X017906Y012262D01*
X017882Y012148D01*
G37*
G36*
X017420Y012246D02*
X017364Y012258D01*
X017388Y012372D01*
X017444Y012360D01*
X017420Y012246D01*
G37*
G36*
X018723Y013272D02*
X018741Y013218D01*
X018629Y013182D01*
X018611Y013236D01*
X018723Y013272D01*
G37*
G36*
X018577Y013722D02*
X018595Y013668D01*
X018483Y013632D01*
X018465Y013686D01*
X018577Y013722D01*
G37*
G36*
X017214Y014040D02*
X017253Y014084D01*
X017340Y014006D01*
X017301Y013962D01*
X017214Y014040D01*
G37*
G36*
X016898Y013689D02*
X016937Y013733D01*
X017024Y013655D01*
X016985Y013611D01*
X016898Y013689D01*
G37*
D12*
X010977Y018989D03*
D13*
G36*
X011891Y017720D02*
X011832Y017619D01*
X011731Y017678D01*
X011790Y017779D01*
X011891Y017720D01*
G37*
G36*
X010121Y017619D02*
X010062Y017720D01*
X010163Y017779D01*
X010222Y017678D01*
X010121Y017619D01*
G37*
G36*
X004809Y013838D02*
X004888Y013751D01*
X004801Y013672D01*
X004722Y013759D01*
X004809Y013838D01*
G37*
G36*
X003247Y013322D02*
X003284Y013433D01*
X003395Y013396D01*
X003358Y013285D01*
X003247Y013322D01*
G37*
G36*
X004358Y012122D02*
X004244Y012098D01*
X004220Y012212D01*
X004334Y012236D01*
X004358Y012122D01*
G37*
G36*
X006215Y006072D02*
X006321Y006120D01*
X006369Y006014D01*
X006263Y005966D01*
X006215Y006072D01*
G37*
G36*
X007707Y005114D02*
X007695Y004998D01*
X007579Y005010D01*
X007591Y005126D01*
X007707Y005114D01*
G37*
G36*
X006223Y004427D02*
X006128Y004496D01*
X006197Y004591D01*
X006292Y004522D01*
X006223Y004427D01*
G37*
G36*
X014148Y004920D02*
X014136Y005036D01*
X014252Y005048D01*
X014264Y004932D01*
X014148Y004920D01*
G37*
G36*
X015522Y006043D02*
X015628Y005995D01*
X015580Y005889D01*
X015474Y005937D01*
X015522Y006043D01*
G37*
G36*
X015716Y004419D02*
X015621Y004350D01*
X015552Y004445D01*
X015647Y004514D01*
X015716Y004419D01*
G37*
G36*
X017680Y012191D02*
X017566Y012215D01*
X017590Y012329D01*
X017704Y012305D01*
X017680Y012191D01*
G37*
G36*
X018640Y013526D02*
X018677Y013415D01*
X018566Y013378D01*
X018529Y013489D01*
X018640Y013526D01*
G37*
G36*
X017036Y013844D02*
X017115Y013931D01*
X017202Y013852D01*
X017123Y013765D01*
X017036Y013844D01*
G37*
D14*
X012405Y010977D02*
X012313Y010885D01*
X012405Y010977D02*
X012313Y011069D01*
X011069Y012313D02*
X010977Y012405D01*
X010885Y012313D01*
X009640Y011069D02*
X009548Y010977D01*
X009640Y010885D01*
X010885Y009640D02*
X010977Y009548D01*
X011069Y009640D01*
D15*
X013196Y015283D02*
X013769Y015283D01*
X013769Y015381D01*
X013769Y015283D02*
X014358Y015283D01*
X014358Y016070D01*
X013769Y016070D01*
X013769Y015972D01*
X013769Y016070D02*
X013196Y016070D01*
X013196Y015283D01*
X013316Y016263D02*
X013391Y016263D01*
X013466Y016338D01*
X013466Y016713D01*
X013391Y016713D02*
X013541Y016713D01*
X013701Y016563D02*
X013851Y016713D01*
X013851Y016263D01*
X013701Y016263D02*
X014001Y016263D01*
X013316Y016263D02*
X013241Y016338D01*
M02*
