G75*
%MOIN*%
%OFA0B0*%
%FSLAX24Y24*%
%IPPOS*%
%LPD*%
%AMOC8*
5,1,8,0,0,1.08239X$1,22.5*
%
%ADD10C,0.0000*%
D10*
X003693Y003291D02*
X003390Y003649D01*
X003120Y004022D01*
X002887Y004409D01*
X002694Y004806D01*
X002545Y005211D01*
X002443Y005621D01*
X002392Y006035D01*
X002396Y006448D01*
X002458Y006859D01*
X002582Y007266D01*
X002770Y007665D01*
X003028Y008054D01*
X003358Y008430D01*
X002876Y008540D01*
X002444Y008703D01*
X002061Y008914D01*
X001725Y009170D01*
X001436Y009466D01*
X001193Y009799D01*
X000992Y010163D01*
X000834Y010555D01*
X000718Y010971D01*
X000640Y011406D01*
X000602Y011856D01*
X000600Y012317D01*
X000634Y012786D01*
X000702Y013256D01*
X000804Y013726D01*
X000937Y014189D01*
X001100Y014643D01*
X001293Y015082D01*
X001514Y015504D01*
X001760Y015902D01*
X002032Y016275D01*
X002328Y016616D01*
X002646Y016922D01*
X002985Y017189D01*
X003344Y017413D01*
X003721Y017589D01*
X004116Y017713D01*
X004526Y017781D01*
X004951Y017789D01*
X005388Y017733D01*
X005838Y017608D01*
X006298Y017411D01*
X006253Y017903D01*
X006275Y018365D01*
X006357Y018794D01*
X006497Y019192D01*
X006689Y019558D01*
X006930Y019893D01*
X007215Y020196D01*
X007539Y020467D01*
X007898Y020707D01*
X008288Y020915D01*
X008704Y021091D01*
X009143Y021235D01*
X009598Y021347D01*
X010067Y021428D01*
X010545Y021476D01*
X011027Y021493D01*
X011509Y021477D01*
X011986Y021430D01*
X012455Y021351D01*
X012911Y021239D01*
X013349Y021096D01*
X013765Y020920D01*
X014154Y020712D01*
X014513Y020472D01*
X014837Y020200D01*
X015121Y019895D01*
X015361Y019559D01*
X015552Y019190D01*
X015691Y018788D01*
X015773Y018354D01*
X015793Y017888D01*
X015748Y017390D01*
X016202Y017584D01*
X016647Y017707D01*
X017081Y017761D01*
X017503Y017751D01*
X017911Y017681D01*
X018304Y017556D01*
X018680Y017379D01*
X019038Y017154D01*
X019377Y016887D01*
X019695Y016580D01*
X019991Y016238D01*
X020264Y015866D01*
X020511Y015467D01*
X020733Y015046D01*
X020926Y014607D01*
X021091Y014154D01*
X021225Y013691D01*
X021328Y013222D01*
X021397Y012751D01*
X021432Y012284D01*
X021431Y011823D01*
X021392Y011373D01*
X021315Y010938D01*
X021198Y010523D01*
X021039Y010131D01*
X020837Y009767D01*
X020591Y009434D01*
X020299Y009138D01*
X019960Y008882D01*
X019573Y008670D01*
X019136Y008507D01*
X018647Y008396D01*
X018973Y008024D01*
X019227Y007638D01*
X019413Y007242D01*
X019534Y006838D01*
X019593Y006429D01*
X019595Y006017D01*
X019543Y005604D01*
X019440Y005194D01*
X019291Y004789D01*
X019097Y004392D01*
X018864Y004005D01*
X018594Y003631D01*
X018291Y003272D01*
X017959Y002931D01*
X017601Y002611D01*
X017221Y002314D01*
X016822Y002043D01*
X016408Y001801D01*
X015982Y001590D01*
X015548Y001412D01*
X015109Y001271D01*
X014670Y001169D01*
X014232Y001108D01*
X013801Y001091D01*
X013379Y001121D01*
X012970Y001200D01*
X012578Y001332D01*
X012206Y001518D01*
X011858Y001761D01*
X011537Y002064D01*
X011246Y002429D01*
X010990Y002859D01*
X010737Y002434D01*
X010449Y002074D01*
X010129Y001775D01*
X009782Y001535D01*
X009411Y001352D01*
X009020Y001222D01*
X008612Y001145D01*
X008190Y001116D01*
X007759Y001133D01*
X007321Y001194D01*
X006881Y001296D01*
X006441Y001437D01*
X006007Y001614D01*
X005580Y001825D01*
X005165Y002066D01*
X004765Y002336D01*
X004384Y002632D01*
X004026Y002951D01*
X003693Y003291D01*
X010583Y020475D02*
X010585Y020514D01*
X010591Y020553D01*
X010601Y020591D01*
X010614Y020628D01*
X010631Y020663D01*
X010651Y020697D01*
X010675Y020728D01*
X010702Y020757D01*
X010731Y020783D01*
X010763Y020806D01*
X010797Y020826D01*
X010833Y020842D01*
X010870Y020854D01*
X010909Y020863D01*
X010948Y020868D01*
X010987Y020869D01*
X011026Y020866D01*
X011065Y020859D01*
X011102Y020848D01*
X011139Y020834D01*
X011174Y020816D01*
X011207Y020795D01*
X011238Y020770D01*
X011266Y020743D01*
X011291Y020713D01*
X011313Y020680D01*
X011332Y020646D01*
X011347Y020610D01*
X011359Y020572D01*
X011367Y020534D01*
X011371Y020495D01*
X011371Y020455D01*
X011367Y020416D01*
X011359Y020378D01*
X011347Y020340D01*
X011332Y020304D01*
X011313Y020270D01*
X011291Y020237D01*
X011266Y020207D01*
X011238Y020180D01*
X011207Y020155D01*
X011174Y020134D01*
X011139Y020116D01*
X011102Y020102D01*
X011065Y020091D01*
X011026Y020084D01*
X010987Y020081D01*
X010948Y020082D01*
X010909Y020087D01*
X010870Y020096D01*
X010833Y020108D01*
X010797Y020124D01*
X010763Y020144D01*
X010731Y020167D01*
X010702Y020193D01*
X010675Y020222D01*
X010651Y020253D01*
X010631Y020287D01*
X010614Y020322D01*
X010601Y020359D01*
X010591Y020397D01*
X010585Y020436D01*
X010583Y020475D01*
M02*
