G75*
%MOIN*%
%OFA0B0*%
%FSLAX24Y24*%
%IPPOS*%
%LPD*%
%AMOC8*
5,1,8,0,0,1.08239X$1,22.5*
%
%ADD10C,0.0000*%
%ADD11C,0.0236*%
%ADD12C,0.0197*%
%ADD13R,0.0120X0.0320*%
%ADD14R,0.1360X0.1360*%
%ADD15R,0.0450X0.0560*%
%ADD16C,0.0270*%
%ADD17C,0.0100*%
D10*
X003693Y003291D02*
X003390Y003649D01*
X003120Y004022D01*
X002887Y004409D01*
X002694Y004806D01*
X002545Y005211D01*
X002443Y005621D01*
X002392Y006035D01*
X002396Y006448D01*
X002458Y006859D01*
X002582Y007266D01*
X002770Y007665D01*
X003028Y008054D01*
X003358Y008430D01*
X002876Y008540D01*
X002444Y008703D01*
X002061Y008914D01*
X001725Y009170D01*
X001436Y009466D01*
X001193Y009799D01*
X000992Y010163D01*
X000834Y010555D01*
X000718Y010971D01*
X000640Y011406D01*
X000602Y011856D01*
X000600Y012317D01*
X000634Y012786D01*
X000702Y013256D01*
X000804Y013726D01*
X000937Y014189D01*
X001100Y014643D01*
X001293Y015082D01*
X001514Y015504D01*
X001760Y015902D01*
X002032Y016275D01*
X002328Y016616D01*
X002646Y016922D01*
X002985Y017189D01*
X003344Y017413D01*
X003721Y017589D01*
X004116Y017713D01*
X004526Y017781D01*
X004951Y017789D01*
X005388Y017733D01*
X005838Y017608D01*
X006298Y017411D01*
X006253Y017903D01*
X006275Y018365D01*
X006357Y018794D01*
X006497Y019192D01*
X006689Y019558D01*
X006930Y019893D01*
X007215Y020196D01*
X007539Y020467D01*
X007898Y020707D01*
X008288Y020915D01*
X008704Y021091D01*
X009143Y021235D01*
X009598Y021347D01*
X010067Y021428D01*
X010545Y021476D01*
X011027Y021493D01*
X011509Y021477D01*
X011986Y021430D01*
X012455Y021351D01*
X012911Y021239D01*
X013349Y021096D01*
X013765Y020920D01*
X014154Y020712D01*
X014513Y020472D01*
X014837Y020200D01*
X015121Y019895D01*
X015361Y019559D01*
X015552Y019190D01*
X015691Y018788D01*
X015773Y018354D01*
X015793Y017888D01*
X015748Y017390D01*
X016202Y017584D01*
X016647Y017707D01*
X017081Y017761D01*
X017503Y017751D01*
X017911Y017681D01*
X018304Y017556D01*
X018680Y017379D01*
X019038Y017154D01*
X019377Y016887D01*
X019695Y016580D01*
X019991Y016238D01*
X020264Y015866D01*
X020511Y015467D01*
X020733Y015046D01*
X020926Y014607D01*
X021091Y014154D01*
X021225Y013691D01*
X021328Y013222D01*
X021397Y012751D01*
X021432Y012284D01*
X021431Y011823D01*
X021392Y011373D01*
X021315Y010938D01*
X021198Y010523D01*
X021039Y010131D01*
X020837Y009767D01*
X020591Y009434D01*
X020299Y009138D01*
X019960Y008882D01*
X019573Y008670D01*
X019136Y008507D01*
X018647Y008396D01*
X018973Y008024D01*
X019227Y007638D01*
X019413Y007242D01*
X019534Y006838D01*
X019593Y006429D01*
X019595Y006017D01*
X019543Y005604D01*
X019440Y005194D01*
X019291Y004789D01*
X019097Y004392D01*
X018864Y004005D01*
X018594Y003631D01*
X018291Y003272D01*
X017959Y002931D01*
X017601Y002611D01*
X017221Y002314D01*
X016822Y002043D01*
X016408Y001801D01*
X015982Y001590D01*
X015548Y001412D01*
X015109Y001271D01*
X014670Y001169D01*
X014232Y001108D01*
X013801Y001091D01*
X013379Y001121D01*
X012970Y001200D01*
X012578Y001332D01*
X012206Y001518D01*
X011858Y001761D01*
X011537Y002064D01*
X011246Y002429D01*
X010990Y002859D01*
X010737Y002434D01*
X010449Y002074D01*
X010129Y001775D01*
X009782Y001535D01*
X009411Y001352D01*
X009020Y001222D01*
X008612Y001145D01*
X008190Y001116D01*
X007759Y001133D01*
X007321Y001194D01*
X006881Y001296D01*
X006441Y001437D01*
X006007Y001614D01*
X005580Y001825D01*
X005165Y002066D01*
X004765Y002336D01*
X004384Y002632D01*
X004026Y002951D01*
X003693Y003291D01*
X010583Y020475D02*
X010585Y020514D01*
X010591Y020553D01*
X010601Y020591D01*
X010614Y020628D01*
X010631Y020663D01*
X010651Y020697D01*
X010675Y020728D01*
X010702Y020757D01*
X010731Y020783D01*
X010763Y020806D01*
X010797Y020826D01*
X010833Y020842D01*
X010870Y020854D01*
X010909Y020863D01*
X010948Y020868D01*
X010987Y020869D01*
X011026Y020866D01*
X011065Y020859D01*
X011102Y020848D01*
X011139Y020834D01*
X011174Y020816D01*
X011207Y020795D01*
X011238Y020770D01*
X011266Y020743D01*
X011291Y020713D01*
X011313Y020680D01*
X011332Y020646D01*
X011347Y020610D01*
X011359Y020572D01*
X011367Y020534D01*
X011371Y020495D01*
X011371Y020455D01*
X011367Y020416D01*
X011359Y020378D01*
X011347Y020340D01*
X011332Y020304D01*
X011313Y020270D01*
X011291Y020237D01*
X011266Y020207D01*
X011238Y020180D01*
X011207Y020155D01*
X011174Y020134D01*
X011139Y020116D01*
X011102Y020102D01*
X011065Y020091D01*
X011026Y020084D01*
X010987Y020081D01*
X010948Y020082D01*
X010909Y020087D01*
X010870Y020096D01*
X010833Y020108D01*
X010797Y020124D01*
X010763Y020144D01*
X010731Y020167D01*
X010702Y020193D01*
X010675Y020222D01*
X010651Y020253D01*
X010631Y020287D01*
X010614Y020322D01*
X010601Y020359D01*
X010591Y020397D01*
X010585Y020436D01*
X010583Y020475D01*
D11*
X010859Y019579D02*
X011095Y019579D01*
X011095Y019343D01*
X010859Y019343D01*
X010859Y019579D01*
X010859Y019578D02*
X011095Y019578D01*
X011095Y018752D02*
X010859Y018752D01*
X011095Y018752D02*
X011095Y018516D01*
X010859Y018516D01*
X010859Y018752D01*
X010859Y018751D02*
X011095Y018751D01*
X011666Y017919D02*
X011548Y017715D01*
X011344Y017833D01*
X011462Y018037D01*
X011666Y017919D01*
X011612Y017950D02*
X011412Y017950D01*
X012382Y017506D02*
X012264Y017302D01*
X012060Y017420D01*
X012178Y017624D01*
X012382Y017506D01*
X012328Y017537D02*
X012128Y017537D01*
X010406Y017715D02*
X010288Y017919D01*
X010492Y018037D01*
X010610Y017833D01*
X010406Y017715D01*
X010342Y017950D02*
X010542Y017950D01*
X009572Y017506D02*
X009690Y017302D01*
X009572Y017506D02*
X009776Y017624D01*
X009894Y017420D01*
X009690Y017302D01*
X009626Y017537D02*
X009826Y017537D01*
X005322Y014063D02*
X005164Y014237D01*
X005322Y014063D02*
X005148Y013905D01*
X004990Y014079D01*
X005164Y014237D01*
X005252Y014140D02*
X005057Y014140D01*
X004550Y013684D02*
X004708Y013510D01*
X004534Y013352D01*
X004376Y013526D01*
X004550Y013684D01*
X004638Y013587D02*
X004443Y013587D01*
X003583Y013398D02*
X003510Y013175D01*
X003583Y013398D02*
X003806Y013325D01*
X003733Y013102D01*
X003510Y013175D01*
X003563Y013337D02*
X003769Y013337D01*
X004126Y012375D02*
X004355Y012424D01*
X004126Y012375D02*
X004077Y012604D01*
X004306Y012653D01*
X004355Y012424D01*
X004315Y012610D02*
X004105Y012610D01*
X004297Y011566D02*
X004526Y011615D01*
X004297Y011566D02*
X004248Y011795D01*
X004477Y011844D01*
X004526Y011615D01*
X004486Y011801D02*
X004276Y011801D01*
X002724Y013430D02*
X002797Y013653D01*
X003020Y013580D01*
X002947Y013357D01*
X002724Y013430D01*
X002777Y013592D02*
X002983Y013592D01*
X006159Y006630D02*
X005945Y006534D01*
X006159Y006630D02*
X006255Y006416D01*
X006041Y006320D01*
X005945Y006534D01*
X005992Y006555D02*
X006193Y006555D01*
X006495Y005874D02*
X006281Y005778D01*
X006495Y005874D02*
X006591Y005660D01*
X006377Y005564D01*
X006281Y005778D01*
X006328Y005799D02*
X006529Y005799D01*
X007419Y005204D02*
X007395Y004970D01*
X007161Y004994D01*
X007185Y005228D01*
X007419Y005204D01*
X007409Y005205D02*
X007183Y005205D01*
X006444Y004632D02*
X006254Y004770D01*
X006392Y004960D01*
X006582Y004822D01*
X006444Y004632D01*
X006520Y004867D02*
X006324Y004867D01*
X005768Y004101D02*
X005958Y003963D01*
X005768Y004101D02*
X005906Y004291D01*
X006096Y004153D01*
X005958Y003963D01*
X006034Y004198D02*
X005838Y004198D01*
X008218Y004883D02*
X008242Y005117D01*
X008218Y004883D02*
X007984Y004907D01*
X008008Y005141D01*
X008242Y005117D01*
X008232Y005118D02*
X008006Y005118D01*
X013602Y005040D02*
X013626Y004806D01*
X013602Y005040D02*
X013836Y005064D01*
X013860Y004830D01*
X013626Y004806D01*
X013612Y005041D02*
X013838Y005041D01*
X014424Y005126D02*
X014448Y004892D01*
X014424Y005126D02*
X014658Y005150D01*
X014682Y004916D01*
X014448Y004892D01*
X014434Y005127D02*
X014660Y005127D01*
X015399Y004554D02*
X015589Y004692D01*
X015399Y004554D02*
X015261Y004744D01*
X015451Y004882D01*
X015589Y004692D01*
X015519Y004789D02*
X015323Y004789D01*
X015885Y003886D02*
X016075Y004024D01*
X015885Y003886D02*
X015747Y004076D01*
X015937Y004214D01*
X016075Y004024D01*
X016005Y004121D02*
X015809Y004121D01*
X015562Y005701D02*
X015348Y005797D01*
X015562Y005701D02*
X015466Y005487D01*
X015252Y005583D01*
X015348Y005797D01*
X015314Y005722D02*
X015515Y005722D01*
X015898Y006456D02*
X015684Y006552D01*
X015898Y006456D02*
X015802Y006242D01*
X015588Y006338D01*
X015684Y006552D01*
X015650Y006477D02*
X015851Y006477D01*
X017398Y011708D02*
X017627Y011659D01*
X017398Y011708D02*
X017447Y011937D01*
X017676Y011888D01*
X017627Y011659D01*
X017648Y011894D02*
X017438Y011894D01*
X017570Y012516D02*
X017799Y012467D01*
X017570Y012516D02*
X017619Y012745D01*
X017848Y012696D01*
X017799Y012467D01*
X017820Y012702D02*
X017610Y012702D01*
X018414Y013268D02*
X018341Y013491D01*
X018414Y013268D02*
X018191Y013195D01*
X018118Y013418D01*
X018341Y013491D01*
X018361Y013430D02*
X018155Y013430D01*
X017374Y013776D02*
X017216Y013602D01*
X017374Y013776D02*
X017548Y013618D01*
X017390Y013444D01*
X017216Y013602D01*
X017286Y013679D02*
X017481Y013679D01*
X016760Y014330D02*
X016602Y014156D01*
X016760Y014330D02*
X016934Y014172D01*
X016776Y013998D01*
X016602Y014156D01*
X016672Y014233D02*
X016867Y014233D01*
X019128Y013746D02*
X019201Y013523D01*
X018978Y013450D01*
X018905Y013673D01*
X019128Y013746D01*
X019148Y013685D02*
X018942Y013685D01*
D12*
X017011Y011984D02*
X016824Y011923D01*
X016751Y012146D01*
X016938Y012207D01*
X017011Y011984D01*
X016967Y012119D02*
X016760Y012119D01*
X016374Y011777D02*
X016187Y011716D01*
X016114Y011939D01*
X016301Y012000D01*
X016374Y011777D01*
X016330Y011912D02*
X016123Y011912D01*
X015944Y012465D02*
X016131Y012526D01*
X015944Y012465D02*
X015871Y012688D01*
X016058Y012749D01*
X016131Y012526D01*
X016087Y012661D02*
X015880Y012661D01*
X015701Y013213D02*
X015888Y013274D01*
X015701Y013213D02*
X015628Y013436D01*
X015815Y013497D01*
X015888Y013274D01*
X015844Y013409D02*
X015637Y013409D01*
X016337Y013420D02*
X016524Y013481D01*
X016337Y013420D02*
X016264Y013643D01*
X016451Y013704D01*
X016524Y013481D01*
X016480Y013616D02*
X016273Y013616D01*
X016580Y012671D02*
X016767Y012732D01*
X016580Y012671D02*
X016507Y012894D01*
X016694Y012955D01*
X016767Y012732D01*
X016723Y012867D02*
X016516Y012867D01*
X011882Y016153D02*
X011882Y016351D01*
X011882Y016153D02*
X011646Y016153D01*
X011646Y016351D01*
X011882Y016351D01*
X011882Y016349D02*
X011646Y016349D01*
X011882Y016823D02*
X011882Y017021D01*
X011882Y016823D02*
X011646Y016823D01*
X011646Y017021D01*
X011882Y017021D01*
X011882Y017019D02*
X011646Y017019D01*
X011095Y017021D02*
X011095Y016823D01*
X010859Y016823D01*
X010859Y017021D01*
X011095Y017021D01*
X011095Y017019D02*
X010859Y017019D01*
X010307Y017021D02*
X010307Y016823D01*
X010071Y016823D01*
X010071Y017021D01*
X010307Y017021D01*
X010307Y017019D02*
X010071Y017019D01*
X010307Y016351D02*
X010307Y016153D01*
X010071Y016153D01*
X010071Y016351D01*
X010307Y016351D01*
X010307Y016349D02*
X010071Y016349D01*
X011095Y016351D02*
X011095Y016153D01*
X010859Y016153D01*
X010859Y016351D01*
X011095Y016351D01*
X011095Y016349D02*
X010859Y016349D01*
X006297Y013344D02*
X006110Y013405D01*
X006297Y013344D02*
X006224Y013121D01*
X006037Y013182D01*
X006110Y013405D01*
X006081Y013317D02*
X006288Y013317D01*
X005660Y013550D02*
X005473Y013611D01*
X005660Y013550D02*
X005587Y013327D01*
X005400Y013388D01*
X005473Y013611D01*
X005444Y013523D02*
X005651Y013523D01*
X005417Y012802D02*
X005230Y012863D01*
X005417Y012802D02*
X005344Y012579D01*
X005157Y012640D01*
X005230Y012863D01*
X005201Y012775D02*
X005408Y012775D01*
X005866Y012656D02*
X006053Y012595D01*
X005980Y012372D01*
X005793Y012433D01*
X005866Y012656D01*
X005837Y012568D02*
X006044Y012568D01*
X005810Y011846D02*
X005623Y011907D01*
X005810Y011846D02*
X005737Y011623D01*
X005550Y011684D01*
X005623Y011907D01*
X005594Y011819D02*
X005801Y011819D01*
X005173Y012053D02*
X004986Y012114D01*
X005173Y012053D02*
X005100Y011830D01*
X004913Y011891D01*
X004986Y012114D01*
X004957Y012026D02*
X005164Y012026D01*
X007144Y007335D02*
X007028Y007176D01*
X007144Y007335D02*
X007334Y007196D01*
X007218Y007037D01*
X007028Y007176D01*
X007070Y007233D02*
X007283Y007233D01*
X007781Y006872D02*
X007665Y006713D01*
X007781Y006872D02*
X007971Y006733D01*
X007855Y006574D01*
X007665Y006713D01*
X007707Y006770D02*
X007920Y006770D01*
X008418Y006409D02*
X008302Y006250D01*
X008418Y006409D02*
X008608Y006270D01*
X008492Y006111D01*
X008302Y006250D01*
X008344Y006307D02*
X008557Y006307D01*
X008025Y005868D02*
X007909Y005709D01*
X008025Y005868D02*
X008215Y005729D01*
X008099Y005570D01*
X007909Y005709D01*
X007951Y005766D02*
X008164Y005766D01*
X007388Y006330D02*
X007272Y006171D01*
X007388Y006330D02*
X007578Y006191D01*
X007462Y006032D01*
X007272Y006171D01*
X007314Y006228D02*
X007527Y006228D01*
X006751Y006793D02*
X006635Y006634D01*
X006751Y006793D02*
X006941Y006654D01*
X006825Y006495D01*
X006635Y006634D01*
X006677Y006691D02*
X006890Y006691D01*
X013235Y006193D02*
X013351Y006034D01*
X013235Y006193D02*
X013425Y006332D01*
X013541Y006173D01*
X013351Y006034D01*
X013286Y006230D02*
X013499Y006230D01*
X013988Y006496D02*
X013872Y006655D01*
X014062Y006794D01*
X014178Y006635D01*
X013988Y006496D01*
X013923Y006692D02*
X014136Y006692D01*
X014625Y006959D02*
X014509Y007118D01*
X014699Y007257D01*
X014815Y007098D01*
X014625Y006959D01*
X014560Y007155D02*
X014773Y007155D01*
X014903Y006577D02*
X015019Y006418D01*
X014903Y006577D02*
X015093Y006716D01*
X015209Y006557D01*
X015019Y006418D01*
X014954Y006614D02*
X015167Y006614D01*
X014382Y005955D02*
X014266Y006114D01*
X014456Y006253D01*
X014572Y006094D01*
X014382Y005955D01*
X014317Y006151D02*
X014530Y006151D01*
X013745Y005492D02*
X013629Y005651D01*
X013819Y005790D01*
X013935Y005631D01*
X013745Y005492D01*
X013680Y005688D02*
X013893Y005688D01*
D13*
G36*
X011027Y009866D02*
X011112Y009951D01*
X011337Y009726D01*
X011252Y009641D01*
X011027Y009866D01*
G37*
G36*
X010842Y009951D02*
X010927Y009866D01*
X010702Y009641D01*
X010617Y009726D01*
X010842Y009951D01*
G37*
G36*
X010700Y010092D02*
X010785Y010007D01*
X010560Y009782D01*
X010475Y009867D01*
X010700Y010092D01*
G37*
G36*
X010566Y010227D02*
X010651Y010142D01*
X010426Y009917D01*
X010341Y010002D01*
X010566Y010227D01*
G37*
G36*
X010425Y010368D02*
X010510Y010283D01*
X010285Y010058D01*
X010200Y010143D01*
X010425Y010368D01*
G37*
G36*
X010283Y010510D02*
X010368Y010425D01*
X010143Y010200D01*
X010058Y010285D01*
X010283Y010510D01*
G37*
G36*
X010142Y010651D02*
X010227Y010566D01*
X010002Y010341D01*
X009917Y010426D01*
X010142Y010651D01*
G37*
G36*
X010007Y010785D02*
X010092Y010700D01*
X009867Y010475D01*
X009782Y010560D01*
X010007Y010785D01*
G37*
G36*
X009866Y010927D02*
X009951Y010842D01*
X009726Y010617D01*
X009641Y010702D01*
X009866Y010927D01*
G37*
G36*
X009641Y011252D02*
X009726Y011337D01*
X009951Y011112D01*
X009866Y011027D01*
X009641Y011252D01*
G37*
G36*
X009782Y011393D02*
X009867Y011478D01*
X010092Y011253D01*
X010007Y011168D01*
X009782Y011393D01*
G37*
G36*
X009917Y011528D02*
X010002Y011613D01*
X010227Y011388D01*
X010142Y011303D01*
X009917Y011528D01*
G37*
G36*
X010058Y011669D02*
X010143Y011754D01*
X010368Y011529D01*
X010283Y011444D01*
X010058Y011669D01*
G37*
G36*
X010200Y011810D02*
X010285Y011895D01*
X010510Y011670D01*
X010425Y011585D01*
X010200Y011810D01*
G37*
G36*
X010341Y011952D02*
X010426Y012037D01*
X010651Y011812D01*
X010566Y011727D01*
X010341Y011952D01*
G37*
G36*
X010475Y012086D02*
X010560Y012171D01*
X010785Y011946D01*
X010700Y011861D01*
X010475Y012086D01*
G37*
G36*
X010617Y012228D02*
X010702Y012313D01*
X010927Y012088D01*
X010842Y012003D01*
X010617Y012228D01*
G37*
G36*
X011252Y012313D02*
X011337Y012228D01*
X011112Y012003D01*
X011027Y012088D01*
X011252Y012313D01*
G37*
G36*
X011393Y012171D02*
X011478Y012086D01*
X011253Y011861D01*
X011168Y011946D01*
X011393Y012171D01*
G37*
G36*
X011528Y012037D02*
X011613Y011952D01*
X011388Y011727D01*
X011303Y011812D01*
X011528Y012037D01*
G37*
G36*
X011669Y011895D02*
X011754Y011810D01*
X011529Y011585D01*
X011444Y011670D01*
X011669Y011895D01*
G37*
G36*
X011810Y011754D02*
X011895Y011669D01*
X011670Y011444D01*
X011585Y011529D01*
X011810Y011754D01*
G37*
G36*
X011952Y011613D02*
X012037Y011528D01*
X011812Y011303D01*
X011727Y011388D01*
X011952Y011613D01*
G37*
G36*
X012086Y011478D02*
X012171Y011393D01*
X011946Y011168D01*
X011861Y011253D01*
X012086Y011478D01*
G37*
G36*
X012228Y011337D02*
X012313Y011252D01*
X012088Y011027D01*
X012003Y011112D01*
X012228Y011337D01*
G37*
G36*
X012003Y010842D02*
X012088Y010927D01*
X012313Y010702D01*
X012228Y010617D01*
X012003Y010842D01*
G37*
G36*
X011861Y010700D02*
X011946Y010785D01*
X012171Y010560D01*
X012086Y010475D01*
X011861Y010700D01*
G37*
G36*
X011727Y010566D02*
X011812Y010651D01*
X012037Y010426D01*
X011952Y010341D01*
X011727Y010566D01*
G37*
G36*
X011585Y010425D02*
X011670Y010510D01*
X011895Y010285D01*
X011810Y010200D01*
X011585Y010425D01*
G37*
G36*
X011444Y010283D02*
X011529Y010368D01*
X011754Y010143D01*
X011669Y010058D01*
X011444Y010283D01*
G37*
G36*
X011303Y010142D02*
X011388Y010227D01*
X011613Y010002D01*
X011528Y009917D01*
X011303Y010142D01*
G37*
G36*
X011168Y010007D02*
X011253Y010092D01*
X011478Y009867D01*
X011393Y009782D01*
X011168Y010007D01*
G37*
D14*
G36*
X010977Y010016D02*
X010016Y010977D01*
X010977Y011938D01*
X011938Y010977D01*
X010977Y010016D01*
G37*
D15*
X013517Y015677D03*
X014037Y015677D03*
D16*
X011764Y015898D03*
X010977Y015898D03*
X010189Y015898D03*
X010554Y013101D03*
X010148Y012977D03*
X009774Y012777D03*
X009446Y012508D03*
X009176Y012180D03*
X008976Y011805D03*
X008853Y011399D03*
X008811Y010977D03*
X008853Y010554D03*
X008976Y010148D03*
X009176Y009774D03*
X009446Y009446D03*
X009774Y009176D03*
X010148Y008976D03*
X010554Y008853D03*
X010977Y008811D03*
X011399Y008853D03*
X011805Y008976D03*
X012180Y009176D03*
X012508Y009446D03*
X012777Y009774D03*
X012977Y010148D03*
X013101Y010554D03*
X013142Y010977D03*
X013101Y011399D03*
X012977Y011805D03*
X012777Y012180D03*
X012508Y012508D03*
X012180Y012777D03*
X011805Y012977D03*
X011399Y013101D03*
X010977Y013142D03*
X010977Y011477D03*
X010977Y010977D03*
X011477Y010977D03*
X010977Y010477D03*
X010477Y010977D03*
X007384Y007458D03*
X008024Y006991D03*
X008664Y006548D03*
X013167Y006449D03*
X013831Y006917D03*
X014471Y007384D03*
X017276Y010780D03*
X015923Y011740D03*
X015677Y012502D03*
X015431Y013241D03*
X006498Y013142D03*
X006252Y012404D03*
X006006Y011666D03*
D17*
X005680Y011765D01*
X005389Y011863D02*
X005331Y011863D01*
X005357Y011765D02*
X005299Y011765D01*
X005272Y011682D02*
X005398Y012071D01*
X005320Y012225D01*
X005049Y012313D01*
X004991Y012427D01*
X004989Y012430D01*
X004863Y012471D01*
X004557Y012571D01*
X004510Y012794D01*
X004476Y012816D01*
X004945Y012663D01*
X004932Y012621D01*
X005010Y012467D01*
X005361Y012353D01*
X005515Y012431D01*
X005642Y012820D01*
X005563Y012974D01*
X005212Y013088D01*
X005058Y013010D01*
X005044Y012968D01*
X004575Y013120D01*
X004615Y013118D01*
X004785Y013270D01*
X005090Y013171D01*
X005216Y013130D01*
X005264Y013154D01*
X005334Y013190D01*
X005605Y013102D01*
X005759Y013180D01*
X005885Y013569D01*
X005807Y013723D01*
X005469Y013833D01*
X005522Y013880D01*
X005554Y013923D01*
X005576Y013970D01*
X005589Y014022D01*
X005592Y014074D01*
X005585Y014127D01*
X005567Y014176D01*
X005540Y014222D01*
X005477Y014292D01*
X005227Y014067D01*
X005160Y014141D01*
X005410Y014366D01*
X005347Y014437D01*
X005304Y014468D01*
X005257Y014491D01*
X005205Y014504D01*
X005153Y014507D01*
X005100Y014499D01*
X005051Y014481D01*
X005005Y014454D01*
X004935Y014391D01*
X005160Y014141D01*
X005086Y014074D01*
X005152Y014000D01*
X004903Y013775D01*
X004966Y013705D01*
X005008Y013673D01*
X005056Y013651D01*
X005107Y013638D01*
X005160Y013635D01*
X005212Y013642D01*
X005262Y013660D01*
X005271Y013666D01*
X005213Y013488D01*
X005189Y013475D01*
X004940Y013557D01*
X004941Y013591D01*
X004657Y013907D01*
X004468Y013917D01*
X004152Y013633D01*
X004142Y013444D01*
X004375Y013185D01*
X004037Y013295D01*
X004053Y013345D01*
X003967Y013513D01*
X003563Y013645D01*
X003394Y013559D01*
X003263Y013155D01*
X003349Y012986D01*
X003753Y012855D01*
X003921Y012941D01*
X003938Y012991D01*
X004277Y012881D01*
X003936Y012808D01*
X003833Y012650D01*
X003921Y012234D01*
X004080Y012131D01*
X004496Y012219D01*
X004514Y012248D01*
X004764Y012167D01*
X004776Y012143D01*
X004719Y011965D01*
X004714Y011975D01*
X004684Y012019D01*
X004647Y012055D01*
X004602Y012084D01*
X004553Y012104D01*
X004501Y012113D01*
X004449Y012113D01*
X004356Y012093D01*
X004426Y011764D01*
X004328Y011743D01*
X004349Y011646D01*
X004020Y011576D01*
X004040Y011483D01*
X004061Y011435D01*
X004090Y011391D01*
X004128Y011354D01*
X004173Y011326D01*
X004222Y011306D01*
X004274Y011296D01*
X004326Y011297D01*
X004419Y011317D01*
X004349Y011646D01*
X004447Y011666D01*
X004446Y011666D01*
X004447Y011666D02*
X004517Y011337D01*
X004609Y011357D01*
X004658Y011378D01*
X004701Y011408D01*
X004738Y011446D01*
X004767Y011490D01*
X004786Y011539D01*
X004796Y011591D01*
X004795Y011644D01*
X004780Y011714D01*
X005118Y011604D01*
X005272Y011682D01*
X005240Y011666D02*
X005325Y011666D01*
X005325Y011665D02*
X005403Y011511D01*
X005755Y011397D01*
X005871Y011457D01*
X005958Y011421D01*
X006055Y011421D01*
X006145Y011458D01*
X006214Y011527D01*
X006251Y011617D01*
X006251Y011714D01*
X006214Y011805D01*
X006145Y011873D01*
X006055Y011911D01*
X006011Y011911D01*
X005957Y012018D01*
X005605Y012133D01*
X005451Y012054D01*
X005325Y011665D01*
X005375Y011568D02*
X004792Y011568D01*
X004791Y011666D02*
X004927Y011666D01*
X004753Y011469D02*
X005533Y011469D01*
X005421Y011962D02*
X005363Y011962D01*
X005395Y012060D02*
X005463Y012060D01*
X005354Y012159D02*
X005959Y012159D01*
X005998Y012146D02*
X006108Y012202D01*
X006114Y012196D01*
X006204Y012159D01*
X006301Y012159D01*
X006391Y012196D01*
X006460Y012265D01*
X006497Y012355D01*
X006497Y012453D01*
X006460Y012543D01*
X006391Y012612D01*
X006301Y012649D01*
X006260Y012649D01*
X006200Y012767D01*
X005848Y012881D01*
X005695Y012803D01*
X005568Y012414D01*
X005647Y012260D01*
X005998Y012146D01*
X006023Y012159D02*
X008931Y012159D01*
X008931Y012131D02*
X008965Y012050D01*
X008928Y012050D01*
X008837Y012013D01*
X008769Y011944D01*
X008731Y011854D01*
X008731Y011757D01*
X008769Y011667D01*
X008795Y011640D01*
X008714Y011607D01*
X008645Y011538D01*
X008608Y011448D01*
X008608Y011350D01*
X008645Y011260D01*
X008707Y011199D01*
X008673Y011184D01*
X008604Y011116D01*
X008566Y011026D01*
X008566Y010928D01*
X008604Y010838D01*
X008673Y010769D01*
X008707Y010755D01*
X008645Y010693D01*
X008608Y010603D01*
X008608Y010506D01*
X008645Y010416D01*
X008714Y010347D01*
X008795Y010313D01*
X008769Y010287D01*
X001158Y010287D01*
X001173Y010249D02*
X001024Y010620D01*
X000913Y011015D01*
X000839Y011432D01*
X000802Y011865D01*
X000800Y012310D01*
X000833Y012764D01*
X000899Y013221D01*
X000998Y013677D01*
X001127Y014128D01*
X001286Y014569D01*
X001474Y014996D01*
X001687Y015405D01*
X001926Y015791D01*
X002189Y016150D01*
X002473Y016478D01*
X002777Y016771D01*
X003100Y017025D01*
X003439Y017237D01*
X003794Y017402D01*
X004162Y017518D01*
X004544Y017582D01*
X004940Y017589D01*
X005349Y017537D01*
X005772Y017419D01*
X006192Y017239D01*
X006234Y017204D01*
X006266Y017207D01*
X006295Y017194D01*
X006345Y017214D01*
X006399Y017219D01*
X006419Y017244D01*
X006449Y017256D01*
X006470Y017305D01*
X006505Y017346D01*
X006502Y017378D01*
X006515Y017408D01*
X006495Y017458D01*
X006454Y017908D01*
X006474Y018341D01*
X006551Y018742D01*
X006681Y019112D01*
X006860Y019453D01*
X007085Y019766D01*
X007352Y020050D01*
X007659Y020307D01*
X008001Y020535D01*
X008374Y020734D01*
X008775Y020903D01*
X009198Y021043D01*
X009639Y021151D01*
X010094Y021230D01*
X010558Y021277D01*
X011027Y021293D01*
X011496Y021278D01*
X011960Y021232D01*
X012415Y021155D01*
X012856Y021047D01*
X013279Y020908D01*
X013678Y020739D01*
X014051Y020540D01*
X014393Y020312D01*
X014699Y020055D01*
X014965Y019769D01*
X015190Y019454D01*
X015368Y019110D01*
X015497Y018737D01*
X015574Y018331D01*
X015593Y017893D01*
X015551Y017437D01*
X015531Y017387D01*
X015544Y017357D01*
X015541Y017325D01*
X015575Y017284D01*
X015596Y017235D01*
X015626Y017223D01*
X015647Y017198D01*
X015700Y017193D01*
X015750Y017173D01*
X015780Y017186D01*
X015812Y017183D01*
X015853Y017217D01*
X016268Y017395D01*
X016686Y017510D01*
X017091Y017561D01*
X017484Y017551D01*
X017863Y017486D01*
X018230Y017369D01*
X018584Y017203D01*
X018922Y016991D01*
X019245Y016736D01*
X019550Y016442D01*
X019834Y016114D01*
X020098Y015754D01*
X020337Y015368D01*
X020552Y014959D01*
X020741Y014532D01*
X020901Y014092D01*
X021031Y013641D01*
X021131Y013186D01*
X021198Y012729D01*
X021232Y012277D01*
X021231Y011832D01*
X021194Y011399D01*
X021120Y010983D01*
X021008Y010588D01*
X020858Y010217D01*
X020668Y009875D01*
X020438Y009565D01*
X020167Y009289D01*
X019851Y009050D01*
X019489Y008852D01*
X019078Y008699D01*
X018632Y008598D01*
X018578Y008601D01*
X018554Y008580D01*
X018522Y008573D01*
X018494Y008528D01*
X018453Y008492D01*
X018451Y008460D01*
X018434Y008433D01*
X018446Y008380D01*
X018442Y008327D01*
X018464Y008303D01*
X018471Y008271D01*
X018516Y008243D01*
X018814Y007902D01*
X019052Y007541D01*
X019225Y007171D01*
X019338Y006795D01*
X019393Y006414D01*
X019395Y006029D01*
X019346Y005641D01*
X019249Y005253D01*
X019106Y004868D01*
X018921Y004487D01*
X018697Y004115D01*
X018436Y003754D01*
X018143Y003406D01*
X017821Y003076D01*
X017473Y002765D01*
X017103Y002476D01*
X016715Y002213D01*
X016313Y001977D01*
X015900Y001772D01*
X015480Y001600D01*
X015056Y001464D01*
X014633Y001365D01*
X014215Y001307D01*
X013804Y001291D01*
X013405Y001320D01*
X013021Y001394D01*
X012655Y001517D01*
X012309Y001690D01*
X011984Y001916D01*
X011684Y002199D01*
X011411Y002543D01*
X011177Y002936D01*
X011164Y002988D01*
X011136Y003005D01*
X011120Y003033D01*
X011068Y003046D01*
X011022Y003073D01*
X010990Y003065D01*
X010959Y003073D01*
X010913Y003046D01*
X010861Y003033D01*
X010844Y003005D01*
X010817Y002989D01*
X010804Y002937D01*
X010572Y002548D01*
X010302Y002210D01*
X005315Y002210D01*
X005271Y002236D02*
X004883Y002498D01*
X004512Y002786D01*
X004164Y003096D01*
X003841Y003425D01*
X003548Y003772D01*
X003287Y004133D01*
X003063Y004504D01*
X002878Y004884D01*
X002736Y005270D01*
X002640Y005658D01*
X002593Y006046D01*
X002596Y006432D01*
X002654Y006815D01*
X002769Y007194D01*
X002945Y007566D01*
X003187Y007932D01*
X003489Y008277D01*
X003535Y008305D01*
X003542Y008337D01*
X003563Y008361D01*
X003559Y008415D01*
X003571Y008467D01*
X003554Y008494D01*
X003552Y008526D01*
X003512Y008562D01*
X003483Y008607D01*
X003452Y008614D01*
X003428Y008635D01*
X003374Y008632D01*
X002933Y008732D01*
X002528Y008885D01*
X002170Y009082D01*
X001858Y009320D01*
X001589Y009596D01*
X001362Y009906D01*
X001173Y010249D01*
X001206Y010189D02*
X008731Y010189D01*
X008731Y010197D02*
X008731Y010099D01*
X008769Y010009D01*
X008837Y009940D01*
X008928Y009903D01*
X008965Y009903D01*
X008931Y009822D01*
X008931Y009725D01*
X008969Y009635D01*
X009038Y009566D01*
X009128Y009529D01*
X009215Y009529D01*
X009201Y009494D01*
X009201Y009397D01*
X009238Y009307D01*
X009307Y009238D01*
X009397Y009201D01*
X009494Y009201D01*
X009529Y009215D01*
X009529Y009128D01*
X009566Y009038D01*
X009635Y008969D01*
X009725Y008931D01*
X009822Y008931D01*
X009903Y008965D01*
X009903Y008928D01*
X009940Y008837D01*
X010009Y008769D01*
X010099Y008731D01*
X010197Y008731D01*
X010287Y008769D01*
X010313Y008795D01*
X010347Y008714D01*
X010416Y008645D01*
X010506Y008608D01*
X010603Y008608D01*
X010693Y008645D01*
X010755Y008707D01*
X010769Y008673D01*
X010838Y008604D01*
X010928Y008566D01*
X011026Y008566D01*
X011116Y008604D01*
X011184Y008673D01*
X011199Y008707D01*
X011260Y008645D01*
X011350Y008608D01*
X011448Y008608D01*
X011538Y008645D01*
X011607Y008714D01*
X011640Y008795D01*
X011667Y008769D01*
X011757Y008731D01*
X011854Y008731D01*
X011944Y008769D01*
X012013Y008837D01*
X012050Y008928D01*
X012050Y008965D01*
X012131Y008931D01*
X012229Y008931D01*
X012319Y008969D01*
X012387Y009038D01*
X012425Y009128D01*
X012425Y009215D01*
X012459Y009201D01*
X012557Y009201D01*
X012647Y009238D01*
X012716Y009307D01*
X012753Y009397D01*
X012753Y009494D01*
X012739Y009529D01*
X012826Y009529D01*
X012916Y009566D01*
X012985Y009635D01*
X013022Y009725D01*
X013022Y009822D01*
X012989Y009903D01*
X013026Y009903D01*
X013116Y009940D01*
X013185Y010009D01*
X013222Y010099D01*
X013222Y010197D01*
X013185Y010287D01*
X013159Y010313D01*
X013239Y010347D01*
X013308Y010416D01*
X013346Y010506D01*
X013346Y010603D01*
X013308Y010693D01*
X013247Y010755D01*
X013281Y010769D01*
X013350Y010838D01*
X013387Y010928D01*
X013387Y011026D01*
X013350Y011116D01*
X013281Y011184D01*
X013247Y011199D01*
X013308Y011260D01*
X013346Y011350D01*
X013346Y011448D01*
X013308Y011538D01*
X013239Y011607D01*
X013159Y011640D01*
X013185Y011667D01*
X013222Y011757D01*
X013222Y011854D01*
X013185Y011944D01*
X013116Y012013D01*
X013026Y012050D01*
X012989Y012050D01*
X013022Y012131D01*
X013022Y012229D01*
X012985Y012319D01*
X012916Y012387D01*
X012826Y012425D01*
X012739Y012425D01*
X012753Y012459D01*
X012753Y012557D01*
X012716Y012647D01*
X012647Y012716D01*
X012557Y012753D01*
X012459Y012753D01*
X012425Y012739D01*
X012425Y012826D01*
X012387Y012916D01*
X012319Y012985D01*
X012229Y013022D01*
X012131Y013022D01*
X012050Y012989D01*
X012050Y013026D01*
X012013Y013116D01*
X011944Y013185D01*
X011854Y013222D01*
X011757Y013222D01*
X011667Y013185D01*
X011640Y013159D01*
X011607Y013239D01*
X011538Y013308D01*
X011448Y013346D01*
X011350Y013346D01*
X011260Y013308D01*
X011199Y013247D01*
X011184Y013281D01*
X011116Y013350D01*
X011026Y013387D01*
X010928Y013387D01*
X010838Y013350D01*
X010769Y013281D01*
X010755Y013247D01*
X010693Y013308D01*
X010603Y013346D01*
X010506Y013346D01*
X010416Y013308D01*
X010347Y013239D01*
X010313Y013159D01*
X010287Y013185D01*
X010197Y013222D01*
X010099Y013222D01*
X010009Y013185D01*
X009940Y013116D01*
X009903Y013026D01*
X009903Y012989D01*
X009822Y013022D01*
X009725Y013022D01*
X009635Y012985D01*
X009566Y012916D01*
X009529Y012826D01*
X009529Y012739D01*
X009494Y012753D01*
X009397Y012753D01*
X009307Y012716D01*
X009238Y012647D01*
X009201Y012557D01*
X009201Y012459D01*
X009215Y012425D01*
X009128Y012425D01*
X009038Y012387D01*
X008969Y012319D01*
X008931Y012229D01*
X008931Y012131D01*
X008961Y012060D02*
X005827Y012060D01*
X005985Y011962D02*
X008786Y011962D01*
X008735Y011863D02*
X006155Y011863D01*
X006230Y011765D02*
X008731Y011765D01*
X008769Y011666D02*
X006251Y011666D01*
X006231Y011568D02*
X008675Y011568D01*
X008617Y011469D02*
X006156Y011469D01*
X006452Y012257D02*
X008943Y012257D01*
X009006Y012356D02*
X006497Y012356D01*
X006497Y012454D02*
X009203Y012454D01*
X009201Y012553D02*
X006450Y012553D01*
X006259Y012651D02*
X009243Y012651D01*
X009389Y012750D02*
X006209Y012750D01*
X006241Y012895D02*
X006346Y012948D01*
X006360Y012934D01*
X006450Y012897D01*
X006547Y012897D01*
X006637Y012934D01*
X006706Y013003D01*
X006743Y013093D01*
X006743Y013191D01*
X006706Y013281D01*
X006637Y013350D01*
X006547Y013387D01*
X006509Y013387D01*
X006443Y013516D01*
X006092Y013630D01*
X005938Y013552D01*
X005812Y013163D01*
X005890Y013009D01*
X006241Y012895D01*
X006343Y012947D02*
X006347Y012947D01*
X006498Y013142D02*
X006167Y013263D01*
X006376Y013538D02*
X015445Y013538D01*
X015418Y013486D02*
X015382Y013486D01*
X015292Y013448D01*
X015223Y013379D01*
X015186Y013289D01*
X015186Y013192D01*
X015223Y013102D01*
X015292Y013033D01*
X015382Y012996D01*
X015479Y012996D01*
X015569Y013033D01*
X015578Y013041D01*
X015683Y012988D01*
X016034Y013102D01*
X016113Y013256D01*
X015986Y013645D01*
X015832Y013723D01*
X015481Y013609D01*
X015418Y013486D01*
X015283Y013439D02*
X006482Y013439D01*
X006646Y013341D02*
X010494Y013341D01*
X010615Y013341D02*
X010829Y013341D01*
X010977Y013142D02*
X010977Y012363D01*
X011182Y012158D01*
X011323Y012016D02*
X011477Y012170D01*
X011477Y013023D01*
X011399Y013101D01*
X011339Y013341D02*
X011125Y013341D01*
X011459Y013341D02*
X015207Y013341D01*
X015186Y013242D02*
X011604Y013242D01*
X011805Y012977D02*
X011805Y012230D01*
X011458Y011882D01*
X011599Y011740D01*
X011599Y011740D01*
X012180Y012321D01*
X012180Y012777D01*
X012357Y012947D02*
X015991Y012947D01*
X016076Y012974D02*
X015724Y012860D01*
X015667Y012747D01*
X015628Y012747D01*
X015538Y012710D01*
X015469Y012641D01*
X015432Y012551D01*
X015432Y012454D01*
X012751Y012454D01*
X012753Y012553D02*
X015432Y012553D01*
X015432Y012454D02*
X015469Y012364D01*
X015538Y012295D01*
X015628Y012257D01*
X015725Y012257D01*
X015815Y012295D01*
X015816Y012295D01*
X015926Y012239D01*
X016278Y012353D01*
X016356Y012507D01*
X016230Y012896D01*
X016076Y012974D01*
X016130Y012947D02*
X016300Y012947D01*
X016282Y012913D02*
X016409Y012524D01*
X016563Y012446D01*
X016914Y012560D01*
X016992Y012714D01*
X016979Y012756D01*
X017448Y012909D01*
X017414Y012886D01*
X017367Y012664D01*
X017061Y012564D01*
X016935Y012523D01*
X016875Y012406D01*
X016604Y012318D01*
X016526Y012164D01*
X016652Y011775D01*
X016806Y011697D01*
X017144Y011807D01*
X017129Y011737D01*
X017128Y011684D01*
X017138Y011632D01*
X017157Y011583D01*
X017186Y011539D01*
X017223Y011501D01*
X017267Y011471D01*
X017315Y011450D01*
X017407Y011430D01*
X017477Y011759D01*
X017575Y011738D01*
X017505Y011410D01*
X017598Y011390D01*
X017651Y011389D01*
X017702Y011399D01*
X017752Y011418D01*
X017796Y011447D01*
X017834Y011484D01*
X017864Y011528D01*
X017884Y011576D01*
X017904Y011669D01*
X017575Y011738D01*
X017596Y011836D01*
X017925Y011766D01*
X017945Y011859D01*
X017945Y011912D01*
X017936Y011964D01*
X017916Y012013D01*
X017887Y012057D01*
X017850Y012095D01*
X017807Y012125D01*
X017758Y012145D01*
X017666Y012165D01*
X017596Y011836D01*
X017498Y011857D01*
X017568Y012186D01*
X017476Y012206D01*
X017423Y012206D01*
X017371Y012197D01*
X017322Y012177D01*
X017278Y012148D01*
X017240Y012111D01*
X017210Y012068D01*
X017206Y012058D01*
X017148Y012236D01*
X017160Y012260D01*
X017410Y012341D01*
X017429Y012312D01*
X017845Y012224D01*
X018003Y012326D01*
X018091Y012742D01*
X017989Y012901D01*
X017648Y012973D01*
X017986Y013083D01*
X018003Y013033D01*
X018171Y012948D01*
X018575Y013079D01*
X018661Y013247D01*
X018530Y013652D01*
X018361Y013738D01*
X017957Y013606D01*
X017871Y013438D01*
X017888Y013388D01*
X017549Y013278D01*
X017782Y013537D01*
X017772Y013725D01*
X017456Y014010D01*
X017267Y014000D01*
X016983Y013684D01*
X016985Y013649D01*
X016735Y013568D01*
X016711Y013580D01*
X016653Y013758D01*
X016662Y013753D01*
X016712Y013735D01*
X016764Y013728D01*
X016817Y013730D01*
X016868Y013743D01*
X016916Y013766D01*
X016958Y013798D01*
X017022Y013868D01*
X016772Y014093D01*
X016839Y014167D01*
X017088Y013942D01*
X017152Y014013D01*
X017179Y014058D01*
X017196Y014108D01*
X017204Y014160D01*
X017201Y014213D01*
X017188Y014264D01*
X017165Y014312D01*
X017134Y014354D01*
X017064Y014417D01*
X016839Y014167D01*
X016764Y014234D01*
X016697Y014160D01*
X016447Y014385D01*
X016384Y014315D01*
X016357Y014269D01*
X016340Y014219D01*
X016332Y014167D01*
X016335Y014114D01*
X016348Y014063D01*
X016371Y014016D01*
X016402Y013973D01*
X016455Y013925D01*
X016118Y013816D01*
X016039Y013662D01*
X016166Y013273D01*
X016319Y013195D01*
X016590Y013283D01*
X016661Y013247D01*
X016708Y013223D01*
X016741Y013234D01*
X017139Y013363D01*
X017309Y013211D01*
X017350Y013213D01*
X016880Y013060D01*
X016866Y013103D01*
X016712Y013181D01*
X016361Y013067D01*
X016282Y012913D01*
X016304Y012848D02*
X016245Y012848D01*
X016277Y012750D02*
X016336Y012750D01*
X016309Y012651D02*
X016368Y012651D01*
X016341Y012553D02*
X016400Y012553D01*
X016329Y012454D02*
X016546Y012454D01*
X016589Y012454D02*
X016900Y012454D01*
X016892Y012553D02*
X017026Y012553D01*
X016961Y012651D02*
X017329Y012651D01*
X017385Y012750D02*
X016981Y012750D01*
X017263Y012848D02*
X017406Y012848D01*
X017773Y012947D02*
X021166Y012947D01*
X021152Y013045D02*
X018472Y013045D01*
X018608Y013144D02*
X021137Y013144D01*
X021119Y013242D02*
X019116Y013242D01*
X019124Y013215D02*
X019020Y013535D01*
X018701Y013431D01*
X018730Y013341D01*
X018631Y013341D01*
X018730Y013341D02*
X018756Y013295D01*
X018790Y013255D01*
X018831Y013222D01*
X018879Y013198D01*
X018929Y013184D01*
X018982Y013180D01*
X019034Y013186D01*
X019124Y013215D01*
X019219Y013246D02*
X019309Y013275D01*
X019355Y013301D01*
X019396Y013336D01*
X019428Y013377D01*
X019452Y013424D01*
X019467Y013475D01*
X019471Y013528D01*
X019465Y013580D01*
X019435Y013670D01*
X019116Y013566D01*
X019085Y013661D01*
X019404Y013765D01*
X019375Y013855D01*
X019349Y013901D01*
X019315Y013941D01*
X019274Y013974D01*
X019227Y013998D01*
X019176Y014012D01*
X019123Y014016D01*
X019071Y014010D01*
X018981Y013981D01*
X019085Y013661D01*
X018990Y013630D01*
X018886Y013950D01*
X018796Y013921D01*
X018750Y013895D01*
X018710Y013861D01*
X018677Y013819D01*
X018653Y013772D01*
X018639Y013721D01*
X018634Y013669D01*
X018641Y013616D01*
X018670Y013526D01*
X018990Y013630D01*
X019020Y013535D01*
X019116Y013566D01*
X019219Y013246D01*
X019189Y013341D02*
X019084Y013341D01*
X019052Y013439D02*
X019157Y013439D01*
X019125Y013538D02*
X019029Y013538D01*
X019020Y013538D02*
X018705Y013538D01*
X018666Y013538D02*
X018567Y013538D01*
X018535Y013636D02*
X018638Y013636D01*
X018642Y013735D02*
X018367Y013735D01*
X018353Y013735D02*
X017762Y013735D01*
X017777Y013636D02*
X018050Y013636D01*
X017922Y013538D02*
X017782Y013538D01*
X017694Y013439D02*
X017872Y013439D01*
X017743Y013341D02*
X017605Y013341D01*
X017382Y013610D02*
X016721Y013396D01*
X016394Y013562D01*
X016111Y013439D02*
X016053Y013439D01*
X016079Y013538D02*
X016021Y013538D01*
X016047Y013636D02*
X015989Y013636D01*
X016076Y013735D02*
X005770Y013735D01*
X005851Y013636D02*
X015565Y013636D01*
X015758Y013355D02*
X015431Y013241D01*
X015205Y013144D02*
X011985Y013144D01*
X012042Y013045D02*
X015279Y013045D01*
X015479Y012651D02*
X012711Y012651D01*
X012564Y012750D02*
X015668Y012750D01*
X015718Y012848D02*
X012416Y012848D01*
X012425Y012750D02*
X012452Y012750D01*
X012508Y012508D02*
X012508Y012366D01*
X011740Y011599D01*
X011882Y011458D02*
X012604Y012180D01*
X012777Y012180D01*
X012948Y012356D02*
X015477Y012356D01*
X015677Y012502D02*
X016001Y012607D01*
X015983Y012257D02*
X016573Y012257D01*
X016528Y012159D02*
X016450Y012159D01*
X016473Y012147D02*
X016319Y012225D01*
X015968Y012111D01*
X015903Y011985D01*
X015874Y011985D01*
X015784Y011947D01*
X015715Y011878D01*
X015678Y011788D01*
X015678Y011691D01*
X015715Y011601D01*
X015784Y011532D01*
X015874Y011495D01*
X015971Y011495D01*
X016061Y011532D01*
X016070Y011541D01*
X016169Y011490D01*
X016521Y011604D01*
X016599Y011758D01*
X016473Y012147D01*
X016501Y012060D02*
X016560Y012060D01*
X016533Y011962D02*
X016592Y011962D01*
X016565Y011863D02*
X016624Y011863D01*
X016597Y011765D02*
X016673Y011765D01*
X016552Y011666D02*
X017131Y011666D01*
X017135Y011765D02*
X017015Y011765D01*
X017167Y011568D02*
X016409Y011568D01*
X016244Y011858D02*
X015923Y011740D01*
X015819Y011962D02*
X013167Y011962D01*
X013219Y011863D02*
X015709Y011863D01*
X015678Y011765D02*
X013222Y011765D01*
X013185Y011666D02*
X015688Y011666D01*
X015748Y011568D02*
X013278Y011568D01*
X013337Y011469D02*
X017270Y011469D01*
X017416Y011469D02*
X017518Y011469D01*
X017539Y011568D02*
X017437Y011568D01*
X017458Y011666D02*
X017560Y011666D01*
X017581Y011765D02*
X021225Y011765D01*
X021231Y011863D02*
X017945Y011863D01*
X017936Y011962D02*
X021231Y011962D01*
X021231Y012060D02*
X017884Y012060D01*
X017896Y012257D02*
X021232Y012257D01*
X021232Y012159D02*
X017696Y012159D01*
X017665Y012159D02*
X017562Y012159D01*
X017541Y012060D02*
X017644Y012060D01*
X017623Y011962D02*
X017520Y011962D01*
X017500Y011863D02*
X017602Y011863D01*
X017904Y011666D02*
X021217Y011666D01*
X021208Y011568D02*
X017881Y011568D01*
X017819Y011469D02*
X021200Y011469D01*
X021189Y011371D02*
X013346Y011371D01*
X013313Y011272D02*
X021171Y011272D01*
X021154Y011174D02*
X013292Y011174D01*
X013367Y011075D02*
X021136Y011075D01*
X021118Y010977D02*
X013387Y010977D01*
X013367Y010878D02*
X021090Y010878D01*
X021062Y010780D02*
X013292Y010780D01*
X013313Y010681D02*
X021034Y010681D01*
X021006Y010583D02*
X013346Y010583D01*
X013337Y010484D02*
X020966Y010484D01*
X020926Y010386D02*
X013278Y010386D01*
X013185Y010287D02*
X020886Y010287D01*
X020842Y010189D02*
X013222Y010189D01*
X013219Y010090D02*
X020787Y010090D01*
X020733Y009992D02*
X013167Y009992D01*
X012993Y009893D02*
X020678Y009893D01*
X020609Y009795D02*
X013022Y009795D01*
X013010Y009696D02*
X020536Y009696D01*
X020463Y009598D02*
X012948Y009598D01*
X012751Y009499D02*
X020374Y009499D01*
X020277Y009401D02*
X012753Y009401D01*
X012711Y009302D02*
X020180Y009302D01*
X020054Y009204D02*
X012564Y009204D01*
X012452Y009204D02*
X012425Y009204D01*
X012416Y009105D02*
X019924Y009105D01*
X019772Y009007D02*
X012357Y009007D01*
X012180Y009176D02*
X012180Y009350D01*
X011458Y010072D01*
X011323Y009937D02*
X011805Y009455D01*
X011805Y008976D01*
X011985Y008810D02*
X019375Y008810D01*
X019591Y008908D02*
X012042Y008908D01*
X011604Y008711D02*
X019112Y008711D01*
X018698Y008613D02*
X011459Y008613D01*
X011339Y008613D02*
X011125Y008613D01*
X010977Y008811D02*
X010772Y009016D01*
X010772Y009796D01*
X010630Y009930D02*
X010630Y009937D01*
X010630Y009930D02*
X010477Y009777D01*
X010477Y008931D01*
X010554Y008853D01*
X010494Y008613D02*
X003458Y008613D01*
X003553Y008514D02*
X018479Y008514D01*
X018438Y008416D02*
X003560Y008416D01*
X003537Y008317D02*
X018451Y008317D01*
X018537Y008219D02*
X003438Y008219D01*
X003352Y008120D02*
X018623Y008120D01*
X018709Y008022D02*
X003266Y008022D01*
X003181Y007923D02*
X018795Y007923D01*
X018865Y007825D02*
X003116Y007825D01*
X003051Y007726D02*
X018930Y007726D01*
X018995Y007628D02*
X014523Y007628D01*
X014520Y007629D02*
X014422Y007629D01*
X014332Y007592D01*
X014263Y007523D01*
X014226Y007433D01*
X014226Y007336D01*
X014263Y007245D01*
X014311Y007198D01*
X014290Y007066D01*
X014507Y006767D01*
X014677Y006740D01*
X015008Y006980D01*
X015035Y007151D01*
X014818Y007450D01*
X014701Y007468D01*
X014679Y007523D01*
X014610Y007592D01*
X014520Y007629D01*
X014419Y007628D02*
X007561Y007628D01*
X007592Y007597D02*
X007523Y007666D01*
X007433Y007703D01*
X007336Y007703D01*
X007245Y007666D01*
X007177Y007597D01*
X007156Y007548D01*
X007025Y007527D01*
X006808Y007228D01*
X006835Y007058D01*
X007166Y006817D01*
X007337Y006844D01*
X007554Y007143D01*
X007535Y007262D01*
X007592Y007319D01*
X007629Y007409D01*
X007629Y007507D01*
X007592Y007597D01*
X007620Y007529D02*
X014269Y007529D01*
X014226Y007431D02*
X007629Y007431D01*
X007597Y007332D02*
X014227Y007332D01*
X014275Y007234D02*
X008077Y007234D01*
X008073Y007236D02*
X007975Y007236D01*
X007885Y007198D01*
X007816Y007129D01*
X007798Y007086D01*
X007662Y007064D01*
X007445Y006765D01*
X007472Y006595D01*
X007803Y006354D01*
X007974Y006381D01*
X008191Y006680D01*
X008173Y006793D01*
X008232Y006852D01*
X008269Y006942D01*
X008269Y007039D01*
X008232Y007129D01*
X008163Y007198D01*
X008073Y007236D01*
X007971Y007234D02*
X007539Y007234D01*
X007548Y007135D02*
X007822Y007135D01*
X007642Y007037D02*
X007476Y007037D01*
X007405Y006938D02*
X007571Y006938D01*
X007499Y006840D02*
X007308Y006840D01*
X007449Y006741D02*
X007138Y006741D01*
X007133Y006772D02*
X006803Y007013D01*
X006632Y006986D01*
X006423Y006698D01*
X006394Y006764D01*
X006364Y006807D01*
X006325Y006843D01*
X006281Y006871D01*
X006231Y006890D01*
X006179Y006899D01*
X006127Y006898D01*
X006075Y006886D01*
X005989Y006848D01*
X006125Y006541D01*
X006034Y006500D01*
X005897Y006807D01*
X005811Y006769D01*
X005768Y006738D01*
X005732Y006700D01*
X005703Y006655D01*
X005684Y006606D01*
X005676Y006554D01*
X005677Y006501D01*
X005689Y006449D01*
X005727Y006363D01*
X006034Y006500D01*
X006075Y006409D01*
X005768Y006272D01*
X005806Y006185D01*
X005837Y006142D01*
X005875Y006106D01*
X005920Y006078D01*
X005969Y006059D01*
X006021Y006050D01*
X006074Y006051D01*
X006125Y006063D01*
X006212Y006101D01*
X006075Y006409D01*
X006166Y006449D01*
X006303Y006142D01*
X006389Y006181D01*
X006432Y006211D01*
X006469Y006249D01*
X006497Y006294D01*
X006516Y006343D01*
X006525Y006395D01*
X006523Y006448D01*
X006521Y006459D01*
X006672Y006349D01*
X006677Y006322D01*
X006522Y006110D01*
X006490Y006122D01*
X006101Y005949D01*
X006034Y005773D01*
X006207Y005384D01*
X006383Y005316D01*
X006701Y005458D01*
X006492Y005170D01*
X006449Y005201D01*
X006263Y005171D01*
X006013Y004827D01*
X006042Y004641D01*
X006386Y004391D01*
X006573Y004420D01*
X006823Y004764D01*
X006793Y004951D01*
X006751Y004982D01*
X006960Y005270D01*
X006924Y004924D01*
X007043Y004777D01*
X007466Y004732D01*
X007613Y004851D01*
X007657Y005274D01*
X007635Y005301D01*
X007790Y005513D01*
X007816Y005518D01*
X007967Y005408D01*
X007957Y005407D01*
X007906Y005392D01*
X007859Y005367D01*
X007818Y005334D01*
X007785Y005293D01*
X007759Y005247D01*
X007744Y005196D01*
X007734Y005102D01*
X008068Y005067D01*
X007635Y005067D01*
X007646Y005165D02*
X007740Y005165D01*
X007769Y005264D02*
X007656Y005264D01*
X007680Y005362D02*
X007853Y005362D01*
X007894Y005461D02*
X007751Y005461D01*
X007699Y005661D02*
X008062Y005719D01*
X008261Y005953D02*
X008355Y005953D01*
X008440Y005892D02*
X008611Y005919D01*
X008828Y006218D01*
X008808Y006345D01*
X008871Y006409D01*
X008909Y006499D01*
X008909Y006596D01*
X008871Y006686D01*
X008803Y006755D01*
X008713Y006793D01*
X008615Y006793D01*
X008525Y006755D01*
X008456Y006686D01*
X008429Y006622D01*
X008299Y006601D01*
X008082Y006303D01*
X008109Y006132D01*
X008440Y005892D01*
X008407Y005847D02*
X008077Y006087D01*
X007906Y006060D01*
X007739Y005829D01*
X007612Y005809D01*
X007609Y005809D01*
X007531Y005702D01*
X007342Y005442D01*
X007115Y005465D01*
X007083Y005440D01*
X007374Y005839D01*
X007410Y005813D01*
X007580Y005840D01*
X007797Y006139D01*
X007770Y006309D01*
X007440Y006550D01*
X007269Y006523D01*
X007052Y006224D01*
X007079Y006053D01*
X007115Y006027D01*
X006825Y005628D01*
X006839Y005666D01*
X006747Y005874D01*
X006941Y006141D01*
X007013Y006241D01*
X007009Y006269D01*
X006993Y006371D01*
X007160Y006602D01*
X007133Y006772D01*
X007135Y006840D02*
X007041Y006840D01*
X007000Y006938D02*
X006905Y006938D01*
X006864Y007037D02*
X002721Y007037D01*
X002751Y007135D02*
X006823Y007135D01*
X006812Y007234D02*
X002788Y007234D01*
X002834Y007332D02*
X006884Y007332D01*
X006955Y007431D02*
X002881Y007431D01*
X002927Y007529D02*
X007039Y007529D01*
X007207Y007628D02*
X002986Y007628D01*
X002691Y006938D02*
X006598Y006938D01*
X006526Y006840D02*
X006329Y006840D01*
X006404Y006741D02*
X006454Y006741D01*
X006523Y006446D02*
X006539Y006446D01*
X006517Y006347D02*
X006673Y006347D01*
X006623Y006249D02*
X006468Y006249D01*
X006552Y006150D02*
X006321Y006150D01*
X006299Y006150D02*
X006190Y006150D01*
X006146Y006249D02*
X006255Y006249D01*
X006212Y006347D02*
X006102Y006347D01*
X006058Y006446D02*
X005913Y006446D01*
X005937Y006347D02*
X002595Y006347D01*
X002594Y006249D02*
X005778Y006249D01*
X005831Y006150D02*
X002593Y006150D01*
X002593Y006052D02*
X006010Y006052D01*
X006076Y006052D02*
X006332Y006052D01*
X006111Y005953D02*
X002604Y005953D01*
X002616Y005855D02*
X006065Y005855D01*
X006041Y005756D02*
X002628Y005756D01*
X002640Y005658D02*
X006085Y005658D01*
X006129Y005559D02*
X002665Y005559D01*
X002689Y005461D02*
X006173Y005461D01*
X006264Y005362D02*
X002714Y005362D01*
X002739Y005264D02*
X006560Y005264D01*
X006632Y005362D02*
X006486Y005362D01*
X006258Y005165D02*
X002775Y005165D01*
X002811Y005067D02*
X006187Y005067D01*
X006115Y004968D02*
X002847Y004968D01*
X002885Y004870D02*
X006044Y004870D01*
X006022Y004771D02*
X002933Y004771D01*
X002981Y004673D02*
X006037Y004673D01*
X005994Y004547D02*
X005943Y004559D01*
X005890Y004561D01*
X005838Y004553D01*
X005788Y004534D01*
X005743Y004507D01*
X005705Y004471D01*
X005649Y004394D01*
X005921Y004197D01*
X006119Y004469D01*
X006042Y004524D01*
X005994Y004547D01*
X006109Y004476D02*
X006270Y004476D01*
X006199Y004410D02*
X006276Y004355D01*
X006312Y004316D01*
X006339Y004271D01*
X006358Y004221D01*
X006366Y004169D01*
X006364Y004116D01*
X006352Y004065D01*
X006329Y004017D01*
X006274Y003940D01*
X006002Y004138D01*
X005943Y004057D01*
X005745Y003785D01*
X005822Y003730D01*
X005870Y003707D01*
X005921Y003695D01*
X005974Y003693D01*
X006026Y003701D01*
X006076Y003720D01*
X006121Y003747D01*
X006160Y003783D01*
X006215Y003860D01*
X005943Y004057D01*
X005862Y004116D01*
X005590Y004314D01*
X005535Y004237D01*
X005513Y004189D01*
X005500Y004138D01*
X005498Y004085D01*
X005506Y004033D01*
X005525Y003983D01*
X003395Y003983D01*
X003466Y003885D02*
X005608Y003885D01*
X005588Y003899D02*
X005665Y003844D01*
X005862Y004116D01*
X005921Y004197D01*
X006002Y004138D01*
X006199Y004410D01*
X006176Y004377D02*
X006052Y004377D01*
X006104Y004279D02*
X005980Y004279D01*
X005944Y004180D02*
X006033Y004180D01*
X006079Y004082D02*
X005961Y004082D01*
X005909Y004082D02*
X005837Y004082D01*
X005889Y003983D02*
X005766Y003983D01*
X005818Y003885D02*
X005694Y003885D01*
X005588Y003899D02*
X005552Y003938D01*
X005525Y003983D01*
X005499Y004082D02*
X003324Y004082D01*
X003259Y004180D02*
X005510Y004180D01*
X005565Y004279D02*
X003199Y004279D01*
X003140Y004377D02*
X005673Y004377D01*
X005638Y004279D02*
X005808Y004279D01*
X005774Y004180D02*
X005909Y004180D01*
X006045Y003983D02*
X006215Y003983D01*
X006305Y003983D02*
X015494Y003983D01*
X015492Y003987D02*
X015514Y003939D01*
X015569Y003863D01*
X015841Y004061D01*
X015644Y004333D01*
X015567Y004277D01*
X015532Y004238D01*
X015504Y004193D01*
X015486Y004144D01*
X015477Y004092D01*
X015479Y004039D01*
X015492Y003987D01*
X015478Y004082D02*
X006356Y004082D01*
X006364Y004180D02*
X015499Y004180D01*
X015570Y004279D02*
X006334Y004279D01*
X006245Y004377D02*
X015245Y004377D01*
X015270Y004343D02*
X015457Y004313D01*
X015801Y004563D01*
X015830Y004750D01*
X015580Y005094D01*
X015394Y005124D01*
X015351Y005093D01*
X015142Y005381D01*
X015460Y005239D01*
X015637Y005307D01*
X015810Y005695D01*
X015742Y005872D01*
X015353Y006045D01*
X015321Y006032D01*
X015167Y006245D01*
X015171Y006271D01*
X015322Y006381D01*
X015320Y006371D01*
X015319Y006318D01*
X015327Y006266D01*
X015346Y006217D01*
X015375Y006172D01*
X015411Y006134D01*
X015454Y006103D01*
X015540Y006065D01*
X015677Y006372D01*
X015769Y006331D01*
X015809Y006422D01*
X016116Y006286D01*
X016155Y006372D01*
X016166Y006424D01*
X016168Y006476D01*
X016159Y006528D01*
X016140Y006578D01*
X016112Y006622D01*
X016075Y006661D01*
X016032Y006691D01*
X015946Y006730D01*
X015809Y006422D01*
X015718Y006463D01*
X015855Y006770D01*
X015768Y006809D01*
X015717Y006820D01*
X015664Y006822D01*
X015612Y006813D01*
X015563Y006794D01*
X015518Y006766D01*
X015480Y006729D01*
X015449Y006686D01*
X015420Y006621D01*
X015211Y006908D01*
X015041Y006935D01*
X014710Y006695D01*
X014683Y006524D01*
X014850Y006294D01*
X014830Y006164D01*
X014833Y006160D01*
X015097Y005796D01*
X015004Y005588D01*
X015019Y005550D01*
X014728Y005950D01*
X014764Y005976D01*
X014791Y006146D01*
X014574Y006445D01*
X014404Y006472D01*
X014073Y006232D01*
X014046Y006062D01*
X014263Y005763D01*
X014434Y005736D01*
X014470Y005762D01*
X014760Y005362D01*
X014728Y005388D01*
X014502Y005364D01*
X014313Y005624D01*
X014313Y005624D01*
X014235Y005731D01*
X014231Y005732D01*
X014105Y005752D01*
X013937Y005983D01*
X013767Y006010D01*
X013436Y005769D01*
X013409Y005599D01*
X013618Y005311D01*
X013547Y005304D01*
X013496Y005288D01*
X013450Y005263D01*
X013409Y005229D01*
X013376Y005188D01*
X013351Y005142D01*
X013336Y005091D01*
X013331Y005038D01*
X013341Y004944D01*
X013676Y004979D01*
X013686Y004880D01*
X013352Y004845D01*
X013362Y004751D01*
X013377Y004700D01*
X013402Y004654D01*
X013436Y004613D01*
X013477Y004580D01*
X013524Y004556D01*
X013575Y004541D01*
X013627Y004536D01*
X013721Y004546D01*
X013686Y004880D01*
X013786Y004890D01*
X013821Y004556D01*
X013915Y004566D01*
X013965Y004582D01*
X014012Y004607D01*
X014052Y004641D01*
X014085Y004682D01*
X014110Y004728D01*
X014125Y004779D01*
X014130Y004832D01*
X014120Y004926D01*
X013786Y004890D01*
X013775Y004990D01*
X014109Y005025D01*
X014100Y005119D01*
X014084Y005169D01*
X014059Y005216D01*
X014025Y005256D01*
X013984Y005290D01*
X013937Y005314D01*
X013887Y005329D01*
X013876Y005330D01*
X014027Y005440D01*
X014054Y005436D01*
X014208Y005224D01*
X014186Y005197D01*
X014231Y004774D01*
X014378Y004655D01*
X014800Y004699D01*
X014919Y004846D01*
X014883Y005193D01*
X015092Y004905D01*
X015050Y004874D01*
X015020Y004687D01*
X015270Y004343D01*
X015174Y004476D02*
X006613Y004476D01*
X006685Y004574D02*
X013488Y004574D01*
X013392Y004673D02*
X008385Y004673D01*
X008366Y004658D02*
X008407Y004691D01*
X008441Y004731D01*
X008466Y004778D01*
X008482Y004828D01*
X008492Y004922D01*
X008157Y004957D01*
X008122Y004623D01*
X008216Y004613D01*
X008269Y004618D01*
X008319Y004633D01*
X008366Y004658D01*
X008462Y004771D02*
X013359Y004771D01*
X013339Y004968D02*
X008158Y004968D01*
X008157Y004957D02*
X008168Y005057D01*
X008502Y005022D01*
X008512Y005116D01*
X008507Y005168D01*
X008492Y005219D01*
X008468Y005266D01*
X008434Y005307D01*
X008394Y005340D01*
X008347Y005366D01*
X008297Y005381D01*
X008226Y005389D01*
X008434Y005676D01*
X008407Y005847D01*
X008396Y005855D02*
X013223Y005855D01*
X013233Y005841D02*
X013403Y005814D01*
X013734Y006055D01*
X013761Y006225D01*
X013544Y006524D01*
X013391Y006548D01*
X013374Y006588D01*
X013306Y006657D01*
X013215Y006694D01*
X013118Y006694D01*
X013028Y006657D01*
X012959Y006588D01*
X012922Y006498D01*
X012922Y006400D01*
X012959Y006310D01*
X013028Y006242D01*
X013031Y006240D01*
X013016Y006140D01*
X013233Y005841D01*
X013151Y005953D02*
X008636Y005953D01*
X008707Y006052D02*
X013080Y006052D01*
X013017Y006150D02*
X008779Y006150D01*
X008823Y006249D02*
X013021Y006249D01*
X012944Y006347D02*
X008810Y006347D01*
X008887Y006446D02*
X012922Y006446D01*
X012941Y006544D02*
X008909Y006544D01*
X008890Y006643D02*
X013014Y006643D01*
X013167Y006449D02*
X013388Y006183D01*
X013595Y005953D02*
X013689Y005953D01*
X013730Y006052D02*
X014053Y006052D01*
X014060Y006150D02*
X013749Y006150D01*
X013744Y006249D02*
X014096Y006249D01*
X014040Y006277D02*
X014371Y006517D01*
X014398Y006688D01*
X014181Y006987D01*
X014059Y007006D01*
X014039Y007056D01*
X013970Y007124D01*
X013880Y007162D01*
X013782Y007162D01*
X013692Y007124D01*
X013623Y007056D01*
X013586Y006965D01*
X013586Y006868D01*
X013623Y006778D01*
X013672Y006729D01*
X013653Y006603D01*
X013870Y006304D01*
X014040Y006277D01*
X014137Y006347D02*
X014231Y006347D01*
X014272Y006446D02*
X014367Y006446D01*
X014375Y006544D02*
X014686Y006544D01*
X014702Y006643D02*
X014391Y006643D01*
X014359Y006741D02*
X014668Y006741D01*
X014679Y006741D02*
X014774Y006741D01*
X014815Y006840D02*
X014909Y006840D01*
X014950Y006938D02*
X019295Y006938D01*
X019324Y006840D02*
X015261Y006840D01*
X015333Y006741D02*
X015492Y006741D01*
X015430Y006643D02*
X015404Y006643D01*
X015754Y006544D02*
X015863Y006544D01*
X015820Y006446D02*
X015757Y006446D01*
X015776Y006347D02*
X015978Y006347D01*
X015953Y006249D02*
X019394Y006249D01*
X019394Y006347D02*
X016144Y006347D01*
X016167Y006446D02*
X019389Y006446D01*
X019374Y006544D02*
X016153Y006544D01*
X016092Y006643D02*
X019360Y006643D01*
X019346Y006741D02*
X015842Y006741D01*
X015798Y006643D02*
X015907Y006643D01*
X015769Y006331D02*
X016076Y006194D01*
X016037Y006108D01*
X016007Y006065D01*
X015968Y006029D01*
X015924Y006000D01*
X015874Y005981D01*
X015822Y005972D01*
X015770Y005974D01*
X015718Y005986D01*
X015632Y006024D01*
X015769Y006331D01*
X015732Y006347D02*
X015666Y006347D01*
X015622Y006249D02*
X015732Y006249D01*
X015688Y006150D02*
X015579Y006150D01*
X015644Y006052D02*
X015307Y006052D01*
X015235Y006150D02*
X015395Y006150D01*
X015334Y006249D02*
X015167Y006249D01*
X015276Y006347D02*
X015319Y006347D01*
X015056Y006567D02*
X014998Y006204D01*
X015407Y005642D01*
X015705Y005461D02*
X019301Y005461D01*
X019326Y005559D02*
X015749Y005559D01*
X015793Y005658D02*
X019348Y005658D01*
X019361Y005756D02*
X015786Y005756D01*
X015748Y005855D02*
X019373Y005855D01*
X019386Y005953D02*
X015559Y005953D01*
X015993Y006052D02*
X019395Y006052D01*
X019395Y006150D02*
X016056Y006150D01*
X015661Y005362D02*
X019276Y005362D01*
X019252Y005264D02*
X015525Y005264D01*
X015405Y005264D02*
X015227Y005264D01*
X015184Y005362D02*
X015155Y005362D01*
X015015Y005559D02*
X015012Y005559D01*
X015035Y005658D02*
X014941Y005658D01*
X014869Y005756D02*
X015079Y005756D01*
X015054Y005855D02*
X014798Y005855D01*
X014733Y005953D02*
X014983Y005953D01*
X014911Y006052D02*
X014776Y006052D01*
X014789Y006150D02*
X014840Y006150D01*
X014843Y006249D02*
X014717Y006249D01*
X014646Y006347D02*
X014812Y006347D01*
X014740Y006446D02*
X014572Y006446D01*
X014419Y006104D02*
X015425Y004718D01*
X015672Y004968D02*
X019144Y004968D01*
X019107Y004870D02*
X015743Y004870D01*
X015815Y004771D02*
X019059Y004771D01*
X019011Y004673D02*
X015818Y004673D01*
X015803Y004574D02*
X018964Y004574D01*
X018914Y004476D02*
X016002Y004476D01*
X016005Y004475D02*
X015953Y004484D01*
X015901Y004481D01*
X015849Y004469D01*
X015801Y004447D01*
X015725Y004391D01*
X015922Y004119D01*
X015841Y004061D01*
X015900Y003980D01*
X015628Y003782D01*
X015684Y003706D01*
X015723Y003670D01*
X015768Y003642D01*
X015817Y003624D01*
X015869Y003616D01*
X015922Y003618D01*
X015973Y003630D01*
X016021Y003652D01*
X016098Y003708D01*
X015900Y003980D01*
X015981Y004039D01*
X015922Y004119D01*
X016194Y004317D01*
X016139Y004394D01*
X016100Y004429D01*
X016055Y004457D01*
X016005Y004475D01*
X015877Y004476D02*
X015680Y004476D01*
X015735Y004377D02*
X015545Y004377D01*
X015683Y004279D02*
X015807Y004279D01*
X015755Y004180D02*
X015878Y004180D01*
X015870Y004082D02*
X015826Y004082D01*
X015898Y003983D02*
X015735Y003983D01*
X015769Y003885D02*
X015599Y003885D01*
X015554Y003885D02*
X006180Y003885D01*
X006162Y003786D02*
X015634Y003786D01*
X015703Y003688D02*
X003619Y003688D01*
X003538Y003786D02*
X005746Y003786D01*
X005710Y004476D02*
X003080Y004476D01*
X003029Y004574D02*
X006134Y004574D01*
X006418Y004796D02*
X007425Y006181D01*
X007583Y006446D02*
X007677Y006446D01*
X007718Y006347D02*
X008115Y006347D01*
X008091Y006249D02*
X007780Y006249D01*
X007796Y006150D02*
X008106Y006150D01*
X008125Y006052D02*
X008220Y006052D01*
X008455Y006260D02*
X008664Y006548D01*
X008438Y006643D02*
X008163Y006643D01*
X008181Y006741D02*
X008511Y006741D01*
X008220Y006840D02*
X013598Y006840D01*
X013586Y006938D02*
X008268Y006938D01*
X008269Y007037D02*
X013616Y007037D01*
X013718Y007135D02*
X008226Y007135D01*
X008024Y006991D02*
X007818Y006723D01*
X008092Y006544D02*
X008258Y006544D01*
X008186Y006446D02*
X008020Y006446D01*
X007900Y006052D02*
X007734Y006052D01*
X007662Y005953D02*
X007829Y005953D01*
X007757Y005855D02*
X007591Y005855D01*
X007570Y005756D02*
X007314Y005756D01*
X007242Y005658D02*
X007499Y005658D01*
X007531Y005702D02*
X007531Y005702D01*
X007699Y005661D02*
X007290Y005099D01*
X007625Y004968D02*
X007720Y004968D01*
X007723Y005003D02*
X007714Y004909D01*
X007718Y004856D01*
X007733Y004806D01*
X007758Y004759D01*
X007791Y004718D01*
X007832Y004684D01*
X007878Y004659D01*
X007929Y004643D01*
X008023Y004633D01*
X008058Y004968D01*
X008157Y004957D01*
X008148Y004870D02*
X008047Y004870D01*
X008058Y004968D02*
X007723Y005003D01*
X007717Y004870D02*
X007615Y004870D01*
X007514Y004771D02*
X007751Y004771D01*
X007853Y004673D02*
X006756Y004673D01*
X006822Y004771D02*
X007094Y004771D01*
X006967Y004870D02*
X006806Y004870D01*
X006770Y004968D02*
X006929Y004968D01*
X006939Y005067D02*
X006813Y005067D01*
X006884Y005165D02*
X006949Y005165D01*
X006956Y005264D02*
X006960Y005264D01*
X007099Y005461D02*
X007110Y005461D01*
X007159Y005461D02*
X007356Y005461D01*
X007427Y005559D02*
X007170Y005559D01*
X006918Y005756D02*
X006799Y005756D01*
X006836Y005658D02*
X006846Y005658D01*
X006755Y005855D02*
X006990Y005855D01*
X007061Y005953D02*
X006804Y005953D01*
X006876Y006052D02*
X007081Y006052D01*
X007064Y006150D02*
X006947Y006150D01*
X007013Y006241D02*
X007013Y006241D01*
X007012Y006249D02*
X007070Y006249D01*
X007142Y006347D02*
X006997Y006347D01*
X007047Y006446D02*
X007213Y006446D01*
X007119Y006544D02*
X007405Y006544D01*
X007447Y006544D02*
X007542Y006544D01*
X007465Y006643D02*
X007154Y006643D01*
X006788Y006644D02*
X006845Y006282D01*
X006436Y005719D01*
X006168Y006446D02*
X006158Y006446D01*
X006124Y006544D02*
X006014Y006544D01*
X005971Y006643D02*
X006080Y006643D01*
X006036Y006741D02*
X005927Y006741D01*
X005992Y006840D02*
X002661Y006840D01*
X002642Y006741D02*
X005772Y006741D01*
X005699Y006643D02*
X002628Y006643D01*
X002613Y006544D02*
X005676Y006544D01*
X005690Y006446D02*
X002598Y006446D01*
X003025Y008711D02*
X010350Y008711D01*
X010615Y008613D02*
X010829Y008613D01*
X011399Y008853D02*
X011399Y009579D01*
X011182Y009796D01*
X011599Y010213D02*
X012366Y009446D01*
X012508Y009446D01*
X012321Y009774D02*
X012777Y009774D01*
X012977Y010148D02*
X012230Y010148D01*
X011882Y010496D01*
X012016Y010630D02*
X012170Y010477D01*
X013023Y010477D01*
X013101Y010554D01*
X012937Y010772D02*
X012158Y010772D01*
X012158Y011182D02*
X012375Y011399D01*
X013101Y011399D01*
X013142Y010977D02*
X012937Y010772D01*
X012977Y011805D02*
X012498Y011805D01*
X012016Y011323D01*
X011740Y010355D02*
X012321Y009774D01*
X010496Y010072D02*
X010148Y009724D01*
X010148Y008976D01*
X009968Y008810D02*
X002727Y008810D01*
X002485Y008908D02*
X009911Y008908D01*
X009774Y009176D02*
X009774Y009632D01*
X010355Y010213D01*
X010213Y010355D02*
X009446Y009587D01*
X009446Y009446D01*
X009243Y009302D02*
X001882Y009302D01*
X001780Y009401D02*
X009201Y009401D01*
X009203Y009499D02*
X001684Y009499D01*
X001588Y009598D02*
X009006Y009598D01*
X008943Y009696D02*
X001516Y009696D01*
X001443Y009795D02*
X008931Y009795D01*
X008961Y009893D02*
X001371Y009893D01*
X001315Y009992D02*
X008786Y009992D01*
X008735Y010090D02*
X001260Y010090D01*
X001118Y010386D02*
X008675Y010386D01*
X008617Y010484D02*
X001078Y010484D01*
X001039Y010583D02*
X008608Y010583D01*
X008640Y010681D02*
X001007Y010681D01*
X000979Y010780D02*
X008662Y010780D01*
X008587Y010878D02*
X000951Y010878D01*
X000924Y010977D02*
X008566Y010977D01*
X008587Y011075D02*
X000902Y011075D01*
X000885Y011174D02*
X008662Y011174D01*
X008640Y011272D02*
X000867Y011272D01*
X000850Y011371D02*
X004111Y011371D01*
X004046Y011469D02*
X000836Y011469D01*
X000827Y011568D02*
X004022Y011568D01*
X003999Y011673D02*
X004328Y011743D01*
X004258Y012072D01*
X004166Y012053D01*
X004117Y012032D01*
X004074Y012002D01*
X004037Y011964D01*
X004008Y011920D01*
X003989Y011871D01*
X003979Y011819D01*
X003980Y011766D01*
X003999Y011673D01*
X003980Y011765D02*
X000810Y011765D01*
X000802Y011863D02*
X003987Y011863D01*
X004035Y011962D02*
X000801Y011962D01*
X000801Y012060D02*
X004202Y012060D01*
X004261Y012060D02*
X004363Y012060D01*
X004384Y011962D02*
X004282Y011962D01*
X004303Y011863D02*
X004405Y011863D01*
X004426Y011765D02*
X004324Y011765D01*
X004345Y011666D02*
X000819Y011666D01*
X000801Y012159D02*
X004036Y012159D01*
X003916Y012257D02*
X000800Y012257D01*
X000803Y012356D02*
X003895Y012356D01*
X003874Y012454D02*
X000810Y012454D01*
X000818Y012553D02*
X003853Y012553D01*
X003834Y012651D02*
X000825Y012651D01*
X000832Y012750D02*
X003898Y012750D01*
X003923Y012947D02*
X004073Y012947D01*
X004125Y012848D02*
X000845Y012848D01*
X000859Y012947D02*
X003470Y012947D01*
X003319Y013045D02*
X000874Y013045D01*
X000888Y013144D02*
X002807Y013144D01*
X002800Y013122D02*
X002890Y013093D01*
X002942Y013087D01*
X002995Y013091D01*
X003046Y013106D01*
X003093Y013130D01*
X003134Y013162D01*
X003168Y013202D01*
X003194Y013248D01*
X003223Y013338D01*
X002904Y013442D01*
X002935Y013537D01*
X003254Y013433D01*
X003284Y013523D01*
X003290Y013576D01*
X003286Y013628D01*
X003271Y013679D01*
X003247Y013726D01*
X003215Y013768D01*
X003174Y013802D01*
X003128Y013828D01*
X003038Y013857D01*
X002935Y013537D01*
X002839Y013568D01*
X002809Y013473D01*
X002904Y013442D01*
X002800Y013122D01*
X002705Y013153D02*
X002809Y013473D01*
X002489Y013577D01*
X002460Y013487D01*
X002453Y013435D01*
X002458Y013382D01*
X002472Y013331D01*
X002496Y013284D01*
X002529Y013243D01*
X002569Y013208D01*
X002615Y013183D01*
X002705Y013153D01*
X002734Y013242D02*
X002839Y013242D01*
X002871Y013341D02*
X002766Y013341D01*
X002798Y013439D02*
X002903Y013439D01*
X002913Y013439D02*
X003236Y013439D01*
X003256Y013439D02*
X003355Y013439D01*
X003323Y013341D02*
X003216Y013341D01*
X003191Y013242D02*
X003291Y013242D01*
X003268Y013144D02*
X003111Y013144D01*
X003285Y013538D02*
X003387Y013538D01*
X003283Y013636D02*
X003546Y013636D01*
X003589Y013636D02*
X004156Y013636D01*
X004147Y013538D02*
X003892Y013538D01*
X004005Y013439D02*
X004146Y013439D01*
X004235Y013341D02*
X004052Y013341D01*
X004199Y013242D02*
X004324Y013242D01*
X004542Y013518D02*
X005203Y013303D01*
X005530Y013469D01*
X005811Y013341D02*
X005869Y013341D01*
X005843Y013439D02*
X005901Y013439D01*
X005875Y013538D02*
X005933Y013538D01*
X005837Y013242D02*
X005779Y013242D01*
X005821Y013144D02*
X005687Y013144D01*
X005871Y013045D02*
X005344Y013045D01*
X005243Y013144D02*
X005475Y013144D01*
X005577Y012947D02*
X006082Y012947D01*
X005950Y012848D02*
X009538Y012848D01*
X009529Y012750D02*
X009502Y012750D01*
X009597Y012947D02*
X006650Y012947D01*
X006723Y013045D02*
X009911Y013045D01*
X009968Y013144D02*
X006743Y013144D01*
X006722Y013242D02*
X010350Y013242D01*
X010554Y013101D02*
X010554Y012375D01*
X010772Y012158D01*
X010630Y012016D02*
X010148Y012498D01*
X010148Y012977D01*
X009774Y012777D02*
X009774Y012604D01*
X010496Y011882D01*
X010355Y011740D02*
X009587Y012508D01*
X009446Y012508D01*
X009632Y012180D02*
X009176Y012180D01*
X008976Y011805D02*
X009724Y011805D01*
X010072Y011458D01*
X009937Y011323D02*
X009930Y011323D01*
X009777Y011477D01*
X008931Y011477D01*
X008853Y011399D01*
X008608Y011371D02*
X004641Y011371D01*
X004510Y011371D02*
X004407Y011371D01*
X004386Y011469D02*
X004489Y011469D01*
X004468Y011568D02*
X004365Y011568D01*
X004639Y012060D02*
X004750Y012060D01*
X004768Y012159D02*
X004212Y012159D01*
X004216Y012514D02*
X004877Y012299D01*
X005043Y011972D01*
X005221Y012257D02*
X005656Y012257D01*
X005598Y012356D02*
X005367Y012356D01*
X005353Y012356D02*
X005027Y012356D01*
X005049Y012454D02*
X004916Y012454D01*
X004863Y012471D02*
X004863Y012471D01*
X004966Y012553D02*
X004613Y012553D01*
X004540Y012651D02*
X004942Y012651D01*
X004679Y012750D02*
X004519Y012750D01*
X004805Y013045D02*
X005128Y013045D01*
X005174Y013144D02*
X004644Y013144D01*
X004753Y013242D02*
X004871Y013242D01*
X005090Y013171D02*
X005090Y013171D01*
X004997Y013538D02*
X005230Y013538D01*
X005262Y013636D02*
X005170Y013636D01*
X005132Y013636D02*
X004901Y013636D01*
X004939Y013735D02*
X004812Y013735D01*
X004836Y013849D02*
X004772Y013920D01*
X004745Y013965D01*
X004728Y014015D01*
X004720Y014067D01*
X004723Y014120D01*
X004736Y014171D01*
X004759Y014219D01*
X004790Y014261D01*
X004861Y014324D01*
X005086Y014074D01*
X004836Y013849D01*
X004765Y013932D02*
X001071Y013932D01*
X001099Y014030D02*
X004726Y014030D01*
X004725Y014129D02*
X001128Y014129D01*
X001163Y014227D02*
X004765Y014227D01*
X004948Y014227D02*
X005083Y014227D01*
X005037Y014129D02*
X005146Y014129D01*
X005171Y014129D02*
X005295Y014129D01*
X005255Y014227D02*
X005405Y014227D01*
X005365Y014326D02*
X016394Y014326D01*
X016342Y014227D02*
X005535Y014227D01*
X005584Y014129D02*
X016334Y014129D01*
X016364Y014030D02*
X005590Y014030D01*
X005558Y013932D02*
X016448Y013932D01*
X016661Y013735D02*
X016716Y013735D01*
X016693Y013636D02*
X016944Y013636D01*
X017028Y013735D02*
X016834Y013735D01*
X016990Y013833D02*
X017117Y013833D01*
X017206Y013932D02*
X016951Y013932D01*
X016991Y014030D02*
X016841Y014030D01*
X016804Y014129D02*
X016881Y014129D01*
X016893Y014227D02*
X016772Y014227D01*
X016764Y014234D02*
X016989Y014484D01*
X016919Y014547D01*
X016874Y014574D01*
X016824Y014592D01*
X016772Y014600D01*
X016719Y014597D01*
X016668Y014584D01*
X016620Y014561D01*
X016578Y014529D01*
X016514Y014459D01*
X016764Y014234D01*
X016758Y014227D02*
X016623Y014227D01*
X016663Y014326D02*
X016513Y014326D01*
X016553Y014424D02*
X005358Y014424D01*
X004994Y014326D02*
X001199Y014326D01*
X001234Y014424D02*
X004972Y014424D01*
X005037Y014030D02*
X005125Y014030D01*
X005077Y013932D02*
X004927Y013932D01*
X004967Y013833D02*
X004723Y013833D01*
X004375Y013833D02*
X003112Y013833D01*
X003031Y013833D02*
X002926Y013833D01*
X002943Y013888D02*
X002854Y013917D01*
X002801Y013923D01*
X002748Y013919D01*
X002698Y013905D01*
X002651Y013881D01*
X002609Y013848D01*
X002575Y013808D01*
X002549Y013762D01*
X002520Y013672D01*
X002839Y013568D01*
X002943Y013888D01*
X002894Y013735D02*
X002999Y013735D01*
X002967Y013636D02*
X002862Y013636D01*
X002830Y013538D02*
X002610Y013538D01*
X002630Y013636D02*
X000989Y013636D01*
X000968Y013538D02*
X002476Y013538D01*
X002454Y013439D02*
X000946Y013439D01*
X000925Y013341D02*
X002469Y013341D01*
X002529Y013242D02*
X000904Y013242D01*
X001014Y013735D02*
X002540Y013735D01*
X002596Y013833D02*
X001043Y013833D01*
X001270Y014523D02*
X016572Y014523D01*
X016847Y014326D02*
X016981Y014326D01*
X016935Y014424D02*
X020780Y014424D01*
X020816Y014326D02*
X017155Y014326D01*
X017197Y014227D02*
X020852Y014227D01*
X020887Y014129D02*
X017199Y014129D01*
X017162Y014030D02*
X020919Y014030D01*
X020947Y013932D02*
X019323Y013932D01*
X019382Y013833D02*
X020976Y013833D01*
X021004Y013735D02*
X019311Y013735D01*
X019332Y013636D02*
X019093Y013636D01*
X019008Y013636D02*
X018988Y013636D01*
X018956Y013735D02*
X019061Y013735D01*
X019029Y013833D02*
X018924Y013833D01*
X018892Y013932D02*
X018997Y013932D01*
X018830Y013932D02*
X017543Y013932D01*
X017652Y013833D02*
X018688Y013833D01*
X018726Y013439D02*
X018599Y013439D01*
X018659Y013242D02*
X018806Y013242D01*
X018266Y013343D02*
X016637Y012813D01*
X016598Y013144D02*
X016056Y013144D01*
X016106Y013242D02*
X016226Y013242D01*
X016143Y013341D02*
X016085Y013341D01*
X015860Y013045D02*
X016350Y013045D01*
X016466Y013242D02*
X016670Y013242D01*
X016767Y013242D02*
X017274Y013242D01*
X017164Y013341D02*
X017070Y013341D01*
X017137Y013144D02*
X016785Y013144D01*
X016720Y012356D02*
X016279Y012356D01*
X016114Y012159D02*
X013022Y012159D01*
X013010Y012257D02*
X015890Y012257D01*
X015942Y012060D02*
X012993Y012060D01*
X010213Y011599D02*
X009632Y012180D01*
X009796Y011182D02*
X009016Y011182D01*
X008811Y010977D01*
X008853Y010554D02*
X009579Y010554D01*
X009796Y010772D01*
X009937Y010630D02*
X009455Y010148D01*
X008976Y010148D01*
X008769Y010287D02*
X008731Y010197D01*
X009176Y009774D02*
X009350Y009774D01*
X010072Y010496D01*
X009529Y009204D02*
X009502Y009204D01*
X009538Y009105D02*
X002140Y009105D01*
X002011Y009204D02*
X009389Y009204D01*
X009597Y009007D02*
X002307Y009007D01*
X005523Y012454D02*
X005581Y012454D01*
X005555Y012553D02*
X005613Y012553D01*
X005587Y012651D02*
X005645Y012651D01*
X005619Y012750D02*
X005677Y012750D01*
X005627Y012848D02*
X005783Y012848D01*
X005923Y012514D02*
X006252Y012404D01*
X005287Y012721D02*
X003658Y013250D01*
X003241Y013735D02*
X004266Y013735D01*
X005470Y013833D02*
X016172Y013833D01*
X016946Y014523D02*
X020744Y014523D01*
X020701Y014621D02*
X001309Y014621D01*
X001353Y014720D02*
X020658Y014720D01*
X020615Y014818D02*
X001396Y014818D01*
X001439Y014917D02*
X020571Y014917D01*
X020523Y015015D02*
X001484Y015015D01*
X001535Y015114D02*
X020471Y015114D01*
X020419Y015212D02*
X001587Y015212D01*
X001638Y015311D02*
X013222Y015311D01*
X013246Y015287D02*
X013710Y015287D01*
X013720Y015277D01*
X013754Y015257D01*
X013792Y015247D01*
X013987Y015247D01*
X013987Y015627D01*
X014087Y015627D01*
X014087Y015727D01*
X013987Y015727D01*
X013987Y016107D01*
X013792Y016107D01*
X013754Y016097D01*
X013720Y016077D01*
X013710Y016067D01*
X013246Y016067D01*
X013182Y016002D01*
X013182Y015351D01*
X013246Y015287D01*
X013182Y015409D02*
X001690Y015409D01*
X001751Y015508D02*
X013182Y015508D01*
X013182Y015606D02*
X001812Y015606D01*
X001873Y015705D02*
X010036Y015705D01*
X010051Y015690D02*
X010141Y015653D01*
X010238Y015653D01*
X010328Y015690D01*
X010397Y015759D01*
X010434Y015849D01*
X010434Y015947D01*
X010423Y015975D01*
X010516Y016068D01*
X010516Y016437D01*
X010394Y016559D01*
X009985Y016559D01*
X009863Y016437D01*
X009863Y016068D01*
X009956Y015975D01*
X009944Y015947D01*
X009944Y015849D01*
X009982Y015759D01*
X010051Y015690D01*
X009963Y015803D02*
X001935Y015803D01*
X002007Y015902D02*
X009944Y015902D01*
X009930Y016000D02*
X002079Y016000D01*
X002151Y016099D02*
X009863Y016099D01*
X009863Y016197D02*
X002230Y016197D01*
X002315Y016296D02*
X009863Y016296D01*
X009863Y016394D02*
X002400Y016394D01*
X002488Y016493D02*
X009919Y016493D01*
X009985Y016615D02*
X010394Y016615D01*
X010516Y016737D01*
X010516Y017022D01*
X010609Y017115D01*
X010609Y017569D01*
X010806Y017683D01*
X010817Y017722D01*
X010817Y017229D01*
X010772Y017229D01*
X010650Y017106D01*
X010650Y016737D01*
X010772Y016615D01*
X011181Y016615D01*
X011303Y016737D01*
X011303Y017106D01*
X011181Y017229D01*
X011137Y017229D01*
X011137Y017722D01*
X011147Y017683D01*
X011345Y017569D01*
X011345Y017115D01*
X011438Y017022D01*
X011438Y016737D01*
X011560Y016615D01*
X011969Y016615D01*
X012091Y016737D01*
X012091Y017092D01*
X012153Y017056D01*
X012203Y017039D01*
X012255Y017032D01*
X012308Y017036D01*
X012359Y017050D01*
X012406Y017073D01*
X012448Y017105D01*
X012483Y017145D01*
X012530Y017227D01*
X012239Y017395D01*
X012289Y017481D01*
X012580Y017313D01*
X012627Y017395D01*
X012644Y017445D01*
X012651Y017497D01*
X012648Y017550D01*
X012634Y017601D01*
X012611Y017648D01*
X012579Y017690D01*
X012539Y017725D01*
X012457Y017772D01*
X012289Y017481D01*
X012202Y017531D01*
X012152Y017445D01*
X011861Y017613D01*
X011814Y017531D01*
X011797Y017481D01*
X011790Y017429D01*
X011793Y017376D01*
X011807Y017325D01*
X011830Y017277D01*
X011863Y017236D01*
X011871Y017229D01*
X011684Y017229D01*
X011665Y017248D01*
X011665Y017510D01*
X011698Y017519D01*
X011911Y017887D01*
X011862Y018070D01*
X011494Y018283D01*
X011311Y018234D01*
X011137Y017932D01*
X011137Y018288D01*
X011189Y018288D01*
X011323Y018422D01*
X011323Y018847D01*
X011189Y018980D01*
X010764Y018980D01*
X010631Y018847D01*
X010631Y018422D01*
X010764Y018288D01*
X010817Y018288D01*
X010817Y017932D01*
X010642Y018234D01*
X010460Y018283D01*
X010092Y018070D01*
X010043Y017887D01*
X010255Y017519D01*
X010289Y017510D01*
X010289Y017248D01*
X010270Y017229D01*
X010083Y017229D01*
X010091Y017236D01*
X010123Y017277D01*
X010146Y017325D01*
X010160Y017376D01*
X010164Y017429D01*
X010157Y017481D01*
X010140Y017531D01*
X010092Y017613D01*
X009801Y017445D01*
X009751Y017531D01*
X009665Y017481D01*
X009715Y017395D01*
X009423Y017227D01*
X009471Y017145D01*
X009506Y017105D01*
X009547Y017073D01*
X009595Y017050D01*
X009646Y017036D01*
X009699Y017032D01*
X009751Y017039D01*
X009801Y017056D01*
X009863Y017092D01*
X009863Y016737D01*
X009985Y016615D01*
X009910Y016690D02*
X002693Y016690D01*
X002591Y016591D02*
X019395Y016591D01*
X019497Y016493D02*
X012035Y016493D01*
X012091Y016437D02*
X011969Y016559D01*
X011560Y016559D01*
X011438Y016437D01*
X011438Y016068D01*
X011531Y015975D01*
X011519Y015947D01*
X011519Y015849D01*
X011556Y015759D01*
X011625Y015690D01*
X011715Y015653D01*
X011813Y015653D01*
X011903Y015690D01*
X011972Y015759D01*
X012009Y015849D01*
X012009Y015947D01*
X011998Y015975D01*
X012091Y016068D01*
X012091Y016437D01*
X012091Y016394D02*
X019591Y016394D01*
X019677Y016296D02*
X012091Y016296D01*
X012091Y016197D02*
X019762Y016197D01*
X019845Y016099D02*
X014311Y016099D01*
X014320Y016097D02*
X014282Y016107D01*
X014087Y016107D01*
X014087Y015727D01*
X014412Y015727D01*
X014412Y015977D01*
X014402Y016015D01*
X014382Y016049D01*
X014354Y016077D01*
X014320Y016097D01*
X014405Y016000D02*
X019917Y016000D01*
X019990Y015902D02*
X014412Y015902D01*
X014412Y015803D02*
X020062Y015803D01*
X020128Y015705D02*
X014087Y015705D01*
X014087Y015627D02*
X014412Y015627D01*
X014412Y015377D01*
X014402Y015339D01*
X014382Y015305D01*
X014354Y015277D01*
X014320Y015257D01*
X014282Y015247D01*
X014087Y015247D01*
X014087Y015627D01*
X014087Y015606D02*
X013987Y015606D01*
X013987Y015508D02*
X014087Y015508D01*
X014087Y015409D02*
X013987Y015409D01*
X013987Y015311D02*
X014087Y015311D01*
X014385Y015311D02*
X020368Y015311D01*
X020312Y015409D02*
X014412Y015409D01*
X014412Y015508D02*
X020251Y015508D01*
X020189Y015606D02*
X014412Y015606D01*
X014087Y015803D02*
X013987Y015803D01*
X013987Y015902D02*
X014087Y015902D01*
X014087Y016000D02*
X013987Y016000D01*
X013987Y016099D02*
X014087Y016099D01*
X013762Y016099D02*
X012091Y016099D01*
X012023Y016000D02*
X013182Y016000D01*
X013182Y015902D02*
X012009Y015902D01*
X011990Y015803D02*
X013182Y015803D01*
X013182Y015705D02*
X011917Y015705D01*
X011764Y015898D02*
X011764Y016252D01*
X011438Y016296D02*
X011303Y016296D01*
X011303Y016394D02*
X011438Y016394D01*
X011493Y016493D02*
X011248Y016493D01*
X011303Y016437D02*
X011181Y016559D01*
X010772Y016559D01*
X010650Y016437D01*
X010650Y016068D01*
X010743Y015975D01*
X010732Y015947D01*
X010732Y015849D01*
X010769Y015759D01*
X010838Y015690D01*
X010928Y015653D01*
X011026Y015653D01*
X011116Y015690D01*
X011184Y015759D01*
X011222Y015849D01*
X011222Y015947D01*
X011210Y015975D01*
X011303Y016068D01*
X011303Y016437D01*
X011303Y016197D02*
X011438Y016197D01*
X011438Y016099D02*
X011303Y016099D01*
X011236Y016000D02*
X011505Y016000D01*
X011519Y015902D02*
X011222Y015902D01*
X011203Y015803D02*
X011538Y015803D01*
X011611Y015705D02*
X011130Y015705D01*
X010977Y015898D02*
X010977Y016252D01*
X010650Y016296D02*
X010516Y016296D01*
X010516Y016394D02*
X010650Y016394D01*
X010706Y016493D02*
X010460Y016493D01*
X010469Y016690D02*
X010697Y016690D01*
X010650Y016788D02*
X010516Y016788D01*
X010516Y016887D02*
X010650Y016887D01*
X010650Y016985D02*
X010516Y016985D01*
X010578Y017084D02*
X010650Y017084D01*
X010609Y017182D02*
X010726Y017182D01*
X010817Y017281D02*
X010609Y017281D01*
X010609Y017379D02*
X010817Y017379D01*
X010817Y017478D02*
X010609Y017478D01*
X010622Y017576D02*
X010817Y017576D01*
X010817Y017675D02*
X010792Y017675D01*
X010795Y017970D02*
X010817Y017970D01*
X010817Y018069D02*
X010738Y018069D01*
X010681Y018167D02*
X010817Y018167D01*
X010817Y018266D02*
X010522Y018266D01*
X010431Y018266D02*
X006470Y018266D01*
X006478Y018364D02*
X010688Y018364D01*
X010631Y018463D02*
X006497Y018463D01*
X006516Y018561D02*
X010631Y018561D01*
X010631Y018660D02*
X006535Y018660D01*
X006557Y018758D02*
X010631Y018758D01*
X010640Y018857D02*
X006591Y018857D01*
X006626Y018955D02*
X010739Y018955D01*
X010780Y019085D02*
X010732Y019105D01*
X010688Y019135D01*
X010650Y019172D01*
X010621Y019216D01*
X010601Y019265D01*
X010591Y019317D01*
X010591Y019411D01*
X010927Y019411D01*
X011027Y019411D01*
X011027Y019511D01*
X011363Y019511D01*
X011363Y019606D01*
X011353Y019657D01*
X011332Y019706D01*
X011303Y019750D01*
X011266Y019787D01*
X011222Y019817D01*
X011173Y019837D01*
X011121Y019847D01*
X011027Y019847D01*
X011027Y019511D01*
X010927Y019511D01*
X010927Y019847D01*
X010832Y019847D01*
X010780Y019837D01*
X010732Y019817D01*
X010688Y019787D01*
X010650Y019750D01*
X010621Y019706D01*
X010601Y019657D01*
X010591Y019606D01*
X010591Y019511D01*
X010927Y019511D01*
X010927Y019411D01*
X010927Y019075D01*
X010832Y019075D01*
X010780Y019085D01*
X010670Y019152D02*
X006702Y019152D01*
X006660Y019054D02*
X015388Y019054D01*
X015422Y018955D02*
X011215Y018955D01*
X011173Y019085D02*
X011222Y019105D01*
X011266Y019135D01*
X011303Y019172D01*
X011332Y019216D01*
X011353Y019265D01*
X011363Y019317D01*
X011363Y019411D01*
X011027Y019411D01*
X011027Y019075D01*
X011121Y019075D01*
X011173Y019085D01*
X011283Y019152D02*
X015346Y019152D01*
X015295Y019251D02*
X011347Y019251D01*
X011363Y019349D02*
X015244Y019349D01*
X015193Y019448D02*
X011027Y019448D01*
X011027Y019546D02*
X010927Y019546D01*
X010927Y019448D02*
X006857Y019448D01*
X006805Y019349D02*
X010591Y019349D01*
X010607Y019251D02*
X006754Y019251D01*
X006927Y019546D02*
X010591Y019546D01*
X010598Y019645D02*
X006998Y019645D01*
X007069Y019743D02*
X010646Y019743D01*
X010805Y019842D02*
X007156Y019842D01*
X007249Y019940D02*
X010716Y019940D01*
X010640Y019971D02*
X010859Y019881D01*
X011095Y019881D01*
X011313Y019971D01*
X011480Y020138D01*
X011570Y020357D01*
X011570Y020593D01*
X011480Y020811D01*
X011313Y020978D01*
X011095Y021069D01*
X010859Y021069D01*
X010640Y020978D01*
X010473Y020811D01*
X010383Y020593D01*
X010383Y020357D01*
X010473Y020138D01*
X010640Y019971D01*
X010573Y020039D02*
X007341Y020039D01*
X007456Y020137D02*
X010475Y020137D01*
X010433Y020236D02*
X007574Y020236D01*
X007700Y020334D02*
X010392Y020334D01*
X010383Y020433D02*
X007847Y020433D01*
X007995Y020531D02*
X010383Y020531D01*
X010398Y020630D02*
X008178Y020630D01*
X008363Y020728D02*
X010439Y020728D01*
X010489Y020827D02*
X008593Y020827D01*
X008841Y020925D02*
X010588Y020925D01*
X010751Y021024D02*
X009141Y021024D01*
X009521Y021122D02*
X012547Y021122D01*
X012926Y021024D02*
X011203Y021024D01*
X011366Y020925D02*
X013226Y020925D01*
X013471Y020827D02*
X011464Y020827D01*
X011514Y020728D02*
X013699Y020728D01*
X013884Y020630D02*
X011555Y020630D01*
X011570Y020531D02*
X014065Y020531D01*
X014212Y020433D02*
X011570Y020433D01*
X011561Y020334D02*
X014359Y020334D01*
X014483Y020236D02*
X011520Y020236D01*
X011479Y020137D02*
X014600Y020137D01*
X014713Y020039D02*
X011380Y020039D01*
X011238Y019940D02*
X014805Y019940D01*
X014897Y019842D02*
X011149Y019842D01*
X011027Y019842D02*
X010927Y019842D01*
X010927Y019743D02*
X011027Y019743D01*
X011027Y019645D02*
X010927Y019645D01*
X010927Y019349D02*
X011027Y019349D01*
X011027Y019251D02*
X010927Y019251D01*
X010927Y019152D02*
X011027Y019152D01*
X011313Y018857D02*
X015456Y018857D01*
X015490Y018758D02*
X011323Y018758D01*
X011323Y018660D02*
X015512Y018660D01*
X015530Y018561D02*
X011323Y018561D01*
X011323Y018463D02*
X015549Y018463D01*
X015568Y018364D02*
X011266Y018364D01*
X011137Y018266D02*
X011431Y018266D01*
X011523Y018266D02*
X015577Y018266D01*
X015581Y018167D02*
X011693Y018167D01*
X011862Y018069D02*
X015585Y018069D01*
X015589Y017970D02*
X011889Y017970D01*
X011902Y017872D02*
X012073Y017872D01*
X012082Y017876D02*
X012035Y017853D01*
X011993Y017821D01*
X011958Y017781D01*
X011911Y017699D01*
X012202Y017531D01*
X012370Y017822D01*
X012289Y017870D01*
X012239Y017887D01*
X012186Y017894D01*
X012133Y017890D01*
X012082Y017876D01*
X011954Y017773D02*
X011845Y017773D01*
X011788Y017675D02*
X011954Y017675D01*
X011924Y017576D02*
X012124Y017576D01*
X012095Y017478D02*
X012171Y017478D01*
X012228Y017576D02*
X012344Y017576D01*
X012295Y017478D02*
X012287Y017478D01*
X012266Y017379D02*
X012466Y017379D01*
X012436Y017281D02*
X015577Y017281D01*
X015534Y017379D02*
X012618Y017379D01*
X012649Y017478D02*
X015555Y017478D01*
X015564Y017576D02*
X012641Y017576D01*
X012591Y017675D02*
X015573Y017675D01*
X015582Y017773D02*
X012342Y017773D01*
X012285Y017675D02*
X012401Y017675D01*
X012282Y017872D02*
X015591Y017872D01*
X016231Y017379D02*
X018198Y017379D01*
X018418Y017281D02*
X016001Y017281D01*
X015771Y017182D02*
X018616Y017182D01*
X018774Y017084D02*
X012420Y017084D01*
X012505Y017182D02*
X015727Y017182D01*
X016569Y017478D02*
X017890Y017478D01*
X018929Y016985D02*
X012091Y016985D01*
X012091Y016887D02*
X019054Y016887D01*
X019179Y016788D02*
X012091Y016788D01*
X012044Y016690D02*
X019293Y016690D01*
X019446Y013636D02*
X021033Y013636D01*
X021054Y013538D02*
X019470Y013538D01*
X019457Y013439D02*
X021076Y013439D01*
X021097Y013341D02*
X019400Y013341D01*
X018087Y012750D02*
X021195Y012750D01*
X021204Y012651D02*
X018072Y012651D01*
X018051Y012553D02*
X021211Y012553D01*
X021219Y012454D02*
X018030Y012454D01*
X018009Y012356D02*
X021226Y012356D01*
X021181Y012848D02*
X018023Y012848D01*
X017999Y013045D02*
X017869Y013045D01*
X017709Y012606D02*
X017047Y012392D01*
X016881Y012065D01*
X017173Y012159D02*
X017294Y012159D01*
X017207Y012060D02*
X017205Y012060D01*
X017159Y012257D02*
X017686Y012257D01*
X019057Y007529D02*
X014672Y007529D01*
X014832Y007431D02*
X019104Y007431D01*
X019150Y007332D02*
X014903Y007332D01*
X014975Y007234D02*
X019196Y007234D01*
X019236Y007135D02*
X015033Y007135D01*
X015017Y007037D02*
X019265Y007037D01*
X019216Y005165D02*
X015298Y005165D01*
X015046Y004968D02*
X014907Y004968D01*
X014917Y004870D02*
X015049Y004870D01*
X015034Y004771D02*
X014859Y004771D01*
X015031Y004673D02*
X014548Y004673D01*
X014355Y004673D02*
X014078Y004673D01*
X014123Y004771D02*
X014234Y004771D01*
X014221Y004870D02*
X014126Y004870D01*
X014210Y004968D02*
X013777Y004968D01*
X013788Y004870D02*
X013687Y004870D01*
X013589Y004870D02*
X008486Y004870D01*
X008507Y005067D02*
X013334Y005067D01*
X013364Y005165D02*
X008507Y005165D01*
X008469Y005264D02*
X013451Y005264D01*
X013581Y005362D02*
X008354Y005362D01*
X008278Y005461D02*
X013509Y005461D01*
X013438Y005559D02*
X008350Y005559D01*
X008421Y005658D02*
X013418Y005658D01*
X013434Y005756D02*
X008422Y005756D01*
X008068Y005067D02*
X008058Y004968D01*
X008054Y004968D01*
X008037Y004771D02*
X008138Y004771D01*
X008127Y004673D02*
X008027Y004673D01*
X008817Y006741D02*
X013660Y006741D01*
X013659Y006643D02*
X013320Y006643D01*
X013416Y006544D02*
X013695Y006544D01*
X013767Y006446D02*
X013601Y006446D01*
X013672Y006347D02*
X013838Y006347D01*
X013959Y005953D02*
X014125Y005953D01*
X014196Y005855D02*
X014030Y005855D01*
X014102Y005756D02*
X014303Y005756D01*
X014288Y005658D02*
X014545Y005658D01*
X014474Y005756D02*
X014462Y005756D01*
X014360Y005559D02*
X014617Y005559D01*
X014688Y005461D02*
X014431Y005461D01*
X014144Y005584D02*
X013782Y005641D01*
X013920Y005362D02*
X014107Y005362D01*
X014179Y005264D02*
X014016Y005264D01*
X014085Y005165D02*
X014190Y005165D01*
X014200Y005067D02*
X014105Y005067D01*
X013798Y004771D02*
X013698Y004771D01*
X013708Y004673D02*
X013808Y004673D01*
X013819Y004574D02*
X013718Y004574D01*
X013942Y004574D02*
X015102Y004574D01*
X014553Y005021D02*
X014144Y005584D01*
X013554Y005855D02*
X013459Y005855D01*
X013569Y004968D02*
X013677Y004968D01*
X014760Y005362D02*
X014760Y005362D01*
X014886Y005165D02*
X014903Y005165D01*
X014896Y005067D02*
X014975Y005067D01*
X015600Y005067D02*
X019180Y005067D01*
X018855Y004377D02*
X016151Y004377D01*
X016142Y004279D02*
X018795Y004279D01*
X018736Y004180D02*
X016294Y004180D01*
X016309Y004160D02*
X016253Y004236D01*
X015981Y004039D01*
X016179Y003767D01*
X016255Y003822D01*
X016291Y003861D01*
X016319Y003906D01*
X016337Y003955D01*
X016345Y004008D01*
X016343Y004060D01*
X016331Y004112D01*
X016309Y004160D01*
X016338Y004082D02*
X018673Y004082D01*
X018602Y003983D02*
X016341Y003983D01*
X016306Y003885D02*
X018531Y003885D01*
X018460Y003786D02*
X016206Y003786D01*
X016164Y003786D02*
X016041Y003786D01*
X016070Y003688D02*
X018381Y003688D01*
X018298Y003589D02*
X003703Y003589D01*
X003786Y003491D02*
X018215Y003491D01*
X018130Y003392D02*
X003874Y003392D01*
X003970Y003294D02*
X018034Y003294D01*
X017938Y003195D02*
X004067Y003195D01*
X004163Y003097D02*
X017842Y003097D01*
X017734Y002998D02*
X011147Y002998D01*
X011199Y002900D02*
X017624Y002900D01*
X017514Y002801D02*
X011257Y002801D01*
X011316Y002703D02*
X017394Y002703D01*
X017268Y002604D02*
X011375Y002604D01*
X011441Y002506D02*
X017142Y002506D01*
X017002Y002407D02*
X011519Y002407D01*
X011597Y002309D02*
X016857Y002309D01*
X016711Y002210D02*
X011676Y002210D01*
X011777Y002112D02*
X016543Y002112D01*
X016375Y002013D02*
X011882Y002013D01*
X011987Y001915D02*
X016187Y001915D01*
X015989Y001816D02*
X012128Y001816D01*
X012269Y001718D02*
X015767Y001718D01*
X015526Y001619D02*
X012450Y001619D01*
X012648Y001521D02*
X015233Y001521D01*
X014878Y001422D02*
X012938Y001422D01*
X013384Y001324D02*
X014334Y001324D01*
X015969Y003885D02*
X016093Y003885D01*
X016021Y003983D02*
X015905Y003983D01*
X015950Y004082D02*
X016041Y004082D01*
X016006Y004180D02*
X016176Y004180D01*
X014025Y006645D02*
X013831Y006917D01*
X013944Y007135D02*
X014301Y007135D01*
X014311Y007037D02*
X014047Y007037D01*
X014216Y006938D02*
X014382Y006938D01*
X014454Y006840D02*
X014288Y006840D01*
X014662Y007108D02*
X014471Y007384D01*
X010833Y002998D02*
X004273Y002998D01*
X004384Y002900D02*
X010782Y002900D01*
X010723Y002801D02*
X004495Y002801D01*
X004619Y002703D02*
X010664Y002703D01*
X010605Y002604D02*
X004746Y002604D01*
X004873Y002506D02*
X010538Y002506D01*
X010459Y002407D02*
X005017Y002407D01*
X005163Y002309D02*
X010381Y002309D01*
X010302Y002210D02*
X010004Y001931D01*
X009681Y001708D01*
X009335Y001537D01*
X008970Y001416D01*
X008586Y001343D01*
X008187Y001316D01*
X007776Y001332D01*
X007357Y001391D01*
X006934Y001489D01*
X006510Y001625D01*
X006089Y001797D01*
X005675Y002001D01*
X005271Y002236D01*
X005484Y002112D02*
X010197Y002112D01*
X010092Y002013D02*
X005654Y002013D01*
X005850Y001915D02*
X009980Y001915D01*
X009838Y001816D02*
X006049Y001816D01*
X006283Y001718D02*
X009695Y001718D01*
X009502Y001619D02*
X006529Y001619D01*
X006836Y001521D02*
X009286Y001521D01*
X008987Y001422D02*
X007223Y001422D01*
X007991Y001324D02*
X008302Y001324D01*
X007181Y007186D02*
X007384Y007458D01*
X002935Y013538D02*
X002933Y013538D01*
X002799Y016788D02*
X009863Y016788D01*
X009863Y016887D02*
X002924Y016887D01*
X003049Y016985D02*
X009863Y016985D01*
X009849Y017084D02*
X009863Y017084D01*
X009533Y017084D02*
X003194Y017084D01*
X003352Y017182D02*
X009449Y017182D01*
X009517Y017281D02*
X006460Y017281D01*
X006502Y017379D02*
X009335Y017379D01*
X009326Y017395D02*
X009373Y017313D01*
X009665Y017481D01*
X009497Y017772D01*
X009415Y017725D01*
X009375Y017690D01*
X009343Y017648D01*
X009319Y017601D01*
X009306Y017550D01*
X009302Y017497D01*
X009309Y017445D01*
X009326Y017395D01*
X009305Y017478D02*
X006493Y017478D01*
X006484Y017576D02*
X009313Y017576D01*
X009363Y017675D02*
X006475Y017675D01*
X006466Y017773D02*
X009612Y017773D01*
X009583Y017822D02*
X009751Y017531D01*
X010042Y017699D01*
X009995Y017781D01*
X009960Y017821D01*
X009918Y017853D01*
X009871Y017876D01*
X009820Y017890D01*
X009767Y017894D01*
X009715Y017887D01*
X009665Y017870D01*
X009583Y017822D01*
X009671Y017872D02*
X006457Y017872D01*
X006457Y017970D02*
X010065Y017970D01*
X010052Y017872D02*
X009881Y017872D01*
X010000Y017773D02*
X010109Y017773D01*
X010166Y017675D02*
X010000Y017675D01*
X010029Y017576D02*
X009829Y017576D01*
X009859Y017478D02*
X009782Y017478D01*
X009725Y017576D02*
X009610Y017576D01*
X009659Y017478D02*
X009667Y017478D01*
X009688Y017379D02*
X009488Y017379D01*
X009553Y017675D02*
X009668Y017675D01*
X010113Y017576D02*
X010222Y017576D01*
X010157Y017478D02*
X010289Y017478D01*
X010289Y017379D02*
X010160Y017379D01*
X010125Y017281D02*
X010289Y017281D01*
X010449Y017181D02*
X010189Y016922D01*
X010449Y017181D02*
X010449Y017876D01*
X010260Y018167D02*
X006466Y018167D01*
X006461Y018069D02*
X010091Y018069D01*
X011137Y018069D02*
X011216Y018069D01*
X011273Y018167D02*
X011137Y018167D01*
X011137Y017970D02*
X011159Y017970D01*
X011137Y017675D02*
X011161Y017675D01*
X011137Y017576D02*
X011332Y017576D01*
X011345Y017478D02*
X011137Y017478D01*
X011137Y017379D02*
X011345Y017379D01*
X011345Y017281D02*
X011137Y017281D01*
X011227Y017182D02*
X011345Y017182D01*
X011376Y017084D02*
X011303Y017084D01*
X011303Y016985D02*
X011438Y016985D01*
X011438Y016887D02*
X011303Y016887D01*
X011303Y016788D02*
X011438Y016788D01*
X011485Y016690D02*
X011256Y016690D01*
X010977Y016922D02*
X010977Y018634D01*
X011505Y017876D02*
X011505Y017181D01*
X011764Y016922D01*
X011829Y017281D02*
X011665Y017281D01*
X011665Y017379D02*
X011793Y017379D01*
X011796Y017478D02*
X011665Y017478D01*
X011731Y017576D02*
X011840Y017576D01*
X012091Y017084D02*
X012105Y017084D01*
X010824Y015705D02*
X010343Y015705D01*
X010415Y015803D02*
X010751Y015803D01*
X010732Y015902D02*
X010434Y015902D01*
X010449Y016000D02*
X010718Y016000D01*
X010650Y016099D02*
X010516Y016099D01*
X010516Y016197D02*
X010650Y016197D01*
X010189Y016252D02*
X010189Y015898D01*
X011363Y019546D02*
X015124Y019546D01*
X015054Y019645D02*
X011355Y019645D01*
X011308Y019743D02*
X014983Y019743D01*
X012025Y021221D02*
X010043Y021221D01*
X006094Y017281D02*
X003534Y017281D01*
X003745Y017379D02*
X005865Y017379D01*
X005561Y017478D02*
X004034Y017478D01*
X004512Y017576D02*
X005040Y017576D01*
M02*
