  0
SECTION
  2
HEADER
  9
$ACADVER
  1
AC1002
  9
$INSBASE
 10
0.0
 20
0.0
  9
$EXTMIN
 10
-9.5349
 20
-3.449
  9
$EXTMAX
 10
9.5744
 20
3.4246
  9
$LIMMIN
 10
0.0
 20
0.0
  9
$LIMMAX
 10
12.0
 20
9.0
  9
$ORTHOMODE
 70
     0
  9
$REGENMODE
 70
     1
  9
$FILLMODE
 70
     1
  9
$QTEXTMODE
 70
     0
  9
$DRAGMODE
 70
     2
  9
$LTSCALE
 40
1.0
  9
$OSMODE
 70
    37
  9
$ATTMODE
 70
     1
  9
$TEXTSIZE
 40
0.2
  9
$TRACEWID
 40
0.05
  9
$TEXTSTYLE
  7
STANDARD
  9
$CLAYER
  8
0
  9
$CELTYPE
  6
BYLAYER
  9
$CECOLOR
 62
   256
  9
$DIMSCALE
 40
1.0
  9
$DIMASZ
 40
0.18
  9
$DIMEXO
 40
0.0625
  9
$DIMDLI
 40
0.38
  9
$DIMRND
 40
0.0
  9
$DIMDLE
 40
0.0
  9
$DIMEXE
 40
0.18
  9
$DIMTP
 40
0.0
  9
$DIMTM
 40
0.0
  9
$DIMTXT
 40
0.18
  9
$DIMCEN
 40
0.09
  9
$DIMTSZ
 40
0.0
  9
$DIMTOL
 70
     0
  9
$DIMLIM
 70
     0
  9
$DIMTIH
 70
     1
  9
$DIMTOH
 70
     1
  9
$DIMSE1
 70
     0
  9
$DIMSE2
 70
     0
  9
$DIMTAD
 70
     0
  9
$DIMZIN
 70
     0
  9
$DIMBLK
  1

  9
$LUNITS
 70
     2
  9
$LUPREC
 70
     4
  9
$SKETCHINC
 40
0.1
  9
$FILLETRAD
 40
0.5
  9
$AUNITS
 70
     0
  9
$AUPREC
 70
     0
  9
$MENU
  1
.
  9
$ELEVATION
 40
0.0
  9
$THICKNESS
 40
0.0
  9
$LIMCHECK
 70
     0
  9
$CHAMFERA
 40
0.0
  9
$CHAMFERB
 40
0.0
  9
$SKPOLY
 70
     0
  9
$TDCREATE
 40
2457135.75264331
  9
$TDUPDATE
 40
2457135.752643542
  9
$TDINDWG
 40
0.0000000116
  9
$TDUSRTIMER
 40
0.0000000116
  9
$USRTIMER
 70
     1
  9
$ANGBASE
 50
0.0
  9
$ANGDIR
 70
     0
  9
$PDMODE
 70
     0
  9
$PDSIZE
 40
0.0
  9
$PLINEWID
 40
0.0
  9
$COORDS
 70
     1
  9
$SURFTAB1
 70
     6
  9
$SURFTAB2
 70
     6
  9
$SURFTYPE
 70
     6
  9
$SURFU
 70
     6
  9
$SURFV
 70
     6
  9
$UCSNAME
  2

  9
$UCSORG
 10
0.0
 20
0.0
 30
0.0
  9
$UCSXDIR
 10
1.0
 20
0.0
 30
0.0
  9
$UCSYDIR
 10
0.0
 20
1.0
 30
0.0
  9
$USERI1
 70
     0
  9
$USERI2
 70
     0
  9
$USERI3
 70
     0
  9
$USERI4
 70
     0
  9
$USERI5
 70
     0
  9
$USERR1
 40
0.0
  9
$USERR2
 40
0.0
  9
$USERR3
 40
0.0
  9
$USERR4
 40
0.0
  9
$USERR5
 40
0.0
  0
ENDSEC
  0
SECTION
  2
TABLES
  0
TABLE
  2
LTYPE
 70
     1
  0
LTYPE
  2
CONTINUOUS
 70
     0
  3
Solid line
 72
    65
 73
     0
 40
0.0
  0
ENDTAB
  0
TABLE
  2
LAYER
 70
     2
  0
LAYER
  2
0
 70
     0
 62
     7
  6
CONTINUOUS
  0
LAYER
  2
LAYER_1
 70
     0
 62
     7
  6
CONTINUOUS
  0
ENDTAB
  0
TABLE
  2
STYLE
 70
     1
  0
STYLE
  2
STANDARD
 70
     0
 40
0.0
 41
1.0
 50
0.0
 71
     0
 42
0.2
  3
txt
  4

  0
ENDTAB
  0
TABLE
  2
VIEW
 70
     0
  0
ENDTAB
  0
ENDSEC
  0
SECTION
  2
BLOCKS
  0
ENDSEC
  0
SECTION
  2
ENTITIES
  0
POLYLINE
  8
LAYER_1
 62
   250
 66
     1
 70
     1
  0
VERTEX
  8
LAYER_1
 62
   250
 10
-4.5921
 20
2.789
  0
VERTEX
  8
LAYER_1
 62
   250
 10
-4.5929
 20
2.7536
  0
VERTEX
  8
LAYER_1
 62
   250
 10
-4.5953
 20
2.7215
  0
VERTEX
  8
LAYER_1
 62
   250
 10
-4.5993
 20
2.6928
  0
VERTEX
  8
LAYER_1
 62
   250
 10
-4.6049
 20
2.6673
  0
VERTEX
  8
LAYER_1
 62
   250
 10
-4.612
 20
2.6452
  0
VERTEX
  8
LAYER_1
 62
   250
 10
-4.6207
 20
2.6264
  0
VERTEX
  8
LAYER_1
 62
   250
 10
-4.6311
 20
2.611
  0
VERTEX
  8
LAYER_1
 62
   250
 10
-4.643
 20
2.5989
  0
VERTEX
  8
LAYER_1
 62
   250
 10
-4.656
 20
2.5893
  0
VERTEX
  8
LAYER_1
 62
   250
 10
-4.6694
 20
2.581
  0
VERTEX
  8
LAYER_1
 62
   250
 10
-4.6833
 20
2.5741
  0
VERTEX
  8
LAYER_1
 62
   250
 10
-4.6976
 20
2.5687
  0
VERTEX
  8
LAYER_1
 62
   250
 10
-4.7122
 20
2.5649
  0
VERTEX
  8
LAYER_1
 62
   250
 10
-4.7275
 20
2.5624
  0
VERTEX
  8
LAYER_1
 62
   250
 10
-4.743
 20
2.5615
  0
VERTEX
  8
LAYER_1
 62
   250
 10
-4.759
 20
2.5618
  0
VERTEX
  8
LAYER_1
 62
   250
 10
-4.7753
 20
2.5634
  0
VERTEX
  8
LAYER_1
 62
   250
 10
-4.7918
 20
2.5659
  0
VERTEX
  8
LAYER_1
 62
   250
 10
-4.8084
 20
2.5692
  0
VERTEX
  8
LAYER_1
 62
   250
 10
-4.8251
 20
2.5733
  0
VERTEX
  8
LAYER_1
 62
   250
 10
-4.8419
 20
2.5784
  0
VERTEX
  8
LAYER_1
 62
   250
 10
-4.859
 20
2.5844
  0
VERTEX
  8
LAYER_1
 62
   250
 10
-4.8762
 20
2.5912
  0
VERTEX
  8
LAYER_1
 62
   250
 10
-4.8935
 20
2.5989
  0
VERTEX
  8
LAYER_1
 62
   250
 10
-4.9102
 20
2.6065
  0
VERTEX
  8
LAYER_1
 62
   250
 10
-4.9256
 20
2.613
  0
VERTEX
  8
LAYER_1
 62
   250
 10
-4.9398
 20
2.6186
  0
VERTEX
  8
LAYER_1
 62
   250
 10
-4.9526
 20
2.6232
  0
VERTEX
  8
LAYER_1
 62
   250
 10
-4.9642
 20
2.6265
  0
VERTEX
  8
LAYER_1
 62
   250
 10
-4.9744
 20
2.6287
  0
VERTEX
  8
LAYER_1
 62
   250
 10
-4.9834
 20
2.6301
  0
VERTEX
  8
LAYER_1
 62
   250
 10
-4.9909
 20
2.6313
  0
VERTEX
  8
LAYER_1
 62
   250
 10
-5.0949
 20
2.6485
  0
VERTEX
  8
LAYER_1
 62
   250
 10
-5.2026
 20
2.6643
  0
VERTEX
  8
LAYER_1
 62
   250
 10
-5.314
 20
2.6785
  0
VERTEX
  8
LAYER_1
 62
   250
 10
-5.4292
 20
2.6911
  0
VERTEX
  8
LAYER_1
 62
   250
 10
-5.5482
 20
2.702
  0
VERTEX
  8
LAYER_1
 62
   250
 10
-5.6708
 20
2.7115
  0
VERTEX
  8
LAYER_1
 62
   250
 10
-5.7974
 20
2.7189
  0
VERTEX
  8
LAYER_1
 62
   250
 10
-5.9276
 20
2.7241
  0
VERTEX
  8
LAYER_1
 62
   250
 10
-6.0171
 20
2.7259
  0
VERTEX
  8
LAYER_1
 62
   250
 10
-6.109
 20
2.7264
  0
VERTEX
  8
LAYER_1
 62
   250
 10
-6.2036
 20
2.7255
  0
VERTEX
  8
LAYER_1
 62
   250
 10
-6.3009
 20
2.7233
  0
VERTEX
  8
LAYER_1
 62
   250
 10
-6.4007
 20
2.7197
  0
VERTEX
  8
LAYER_1
 62
   250
 10
-6.5032
 20
2.7146
  0
VERTEX
  8
LAYER_1
 62
   250
 10
-6.6083
 20
2.7084
  0
VERTEX
  8
LAYER_1
 62
   250
 10
-6.716
 20
2.7009
  0
VERTEX
  8
LAYER_1
 62
   250
 10
-6.8248
 20
2.6921
  0
VERTEX
  8
LAYER_1
 62
   250
 10
-6.9334
 20
2.6823
  0
VERTEX
  8
LAYER_1
 62
   250
 10
-7.0416
 20
2.6713
  0
VERTEX
  8
LAYER_1
 62
   250
 10
-7.1495
 20
2.6592
  0
VERTEX
  8
LAYER_1
 62
   250
 10
-7.2572
 20
2.6459
  0
VERTEX
  8
LAYER_1
 62
   250
 10
-7.3646
 20
2.6314
  0
VERTEX
  8
LAYER_1
 62
   250
 10
-7.4717
 20
2.6157
  0
VERTEX
  8
LAYER_1
 62
   250
 10
-7.5786
 20
2.5989
  0
VERTEX
  8
LAYER_1
 62
   250
 10
-7.6843
 20
2.581
  0
VERTEX
  8
LAYER_1
 62
   250
 10
-7.7884
 20
2.5618
  0
VERTEX
  8
LAYER_1
 62
   250
 10
-7.8907
 20
2.5415
  0
VERTEX
  8
LAYER_1
 62
   250
 10
-7.9912
 20
2.5201
  0
VERTEX
  8
LAYER_1
 62
   250
 10
-8.09
 20
2.4975
  0
VERTEX
  8
LAYER_1
 62
   250
 10
-8.1871
 20
2.4737
  0
VERTEX
  8
LAYER_1
 62
   250
 10
-8.2825
 20
2.4488
  0
VERTEX
  8
LAYER_1
 62
   250
 10
-8.3762
 20
2.4227
  0
VERTEX
  8
LAYER_1
 62
   250
 10
-8.4666
 20
2.3957
  0
VERTEX
  8
LAYER_1
 62
   250
 10
-8.5524
 20
2.368
  0
VERTEX
  8
LAYER_1
 62
   250
 10
-8.6336
 20
2.3394
  0
VERTEX
  8
LAYER_1
 62
   250
 10
-8.7101
 20
2.3103
  0
VERTEX
  8
LAYER_1
 62
   250
 10
-8.782
 20
2.2805
  0
VERTEX
  8
LAYER_1
 62
   250
 10
-8.8494
 20
2.25
  0
VERTEX
  8
LAYER_1
 62
   250
 10
-8.912
 20
2.2185
  0
VERTEX
  8
LAYER_1
 62
   250
 10
-8.9698
 20
2.1861
  0
VERTEX
  8
LAYER_1
 62
   250
 10
-8.9773
 20
2.1817
  0
VERTEX
  8
LAYER_1
 62
   250
 10
-8.9854
 20
2.1771
  0
VERTEX
  8
LAYER_1
 62
   250
 10
-8.9942
 20
2.172
  0
VERTEX
  8
LAYER_1
 62
   250
 10
-9.0036
 20
2.1668
  0
VERTEX
  8
LAYER_1
 62
   250
 10
-9.0137
 20
2.1614
  0
VERTEX
  8
LAYER_1
 62
   250
 10
-9.0247
 20
2.1558
  0
VERTEX
  8
LAYER_1
 62
   250
 10
-9.0362
 20
2.1501
  0
VERTEX
  8
LAYER_1
 62
   250
 10
-9.0486
 20
2.1444
  0
VERTEX
  8
LAYER_1
 62
   250
 10
-9.0614
 20
2.1385
  0
VERTEX
  8
LAYER_1
 62
   250
 10
-9.0745
 20
2.1325
  0
VERTEX
  8
LAYER_1
 62
   250
 10
-9.0875
 20
2.1263
  0
VERTEX
  8
LAYER_1
 62
   250
 10
-9.1007
 20
2.1201
  0
VERTEX
  8
LAYER_1
 62
   250
 10
-9.1142
 20
2.1137
  0
VERTEX
  8
LAYER_1
 62
   250
 10
-9.1277
 20
2.107
  0
VERTEX
  8
LAYER_1
 62
   250
 10
-9.1414
 20
2.1002
  0
VERTEX
  8
LAYER_1
 62
   250
 10
-9.1553
 20
2.0934
  0
VERTEX
  8
LAYER_1
 62
   250
 10
-9.169
 20
2.0862
  0
VERTEX
  8
LAYER_1
 62
   250
 10
-9.1822
 20
2.0786
  0
VERTEX
  8
LAYER_1
 62
   250
 10
-9.1951
 20
2.0705
  0
VERTEX
  8
LAYER_1
 62
   250
 10
-9.2075
 20
2.0621
  0
VERTEX
  8
LAYER_1
 62
   250
 10
-9.2194
 20
2.0533
  0
VERTEX
  8
LAYER_1
 62
   250
 10
-9.231
 20
2.0439
  0
VERTEX
  8
LAYER_1
 62
   250
 10
-9.242
 20
2.034
  0
VERTEX
  8
LAYER_1
 62
   250
 10
-9.2527
 20
2.0238
  0
VERTEX
  8
LAYER_1
 62
   250
 10
-9.2624
 20
2.0135
  0
VERTEX
  8
LAYER_1
 62
   250
 10
-9.2709
 20
2.0033
  0
VERTEX
  8
LAYER_1
 62
   250
 10
-9.2781
 20
1.9932
  0
VERTEX
  8
LAYER_1
 62
   250
 10
-9.284
 20
1.9832
  0
VERTEX
  8
LAYER_1
 62
   250
 10
-9.2937
 20
1.9545
  0
VERTEX
  8
LAYER_1
 62
   250
 10
-9.2302
 20
1.9193
  0
VERTEX
  8
LAYER_1
 62
   250
 10
-9.1623
 20
1.8978
  0
VERTEX
  8
LAYER_1
 62
   250
 10
-9.091
 20
1.8805
  0
VERTEX
  8
LAYER_1
 62
   250
 10
-9.0161
 20
1.8674
  0
VERTEX
  8
LAYER_1
 62
   250
 10
-8.9379
 20
1.8585
  0
VERTEX
  8
LAYER_1
 62
   250
 10
-8.8562
 20
1.8538
  0
VERTEX
  8
LAYER_1
 62
   250
 10
-8.771
 20
1.8533
  0
VERTEX
  8
LAYER_1
 62
   250
 10
-8.6822
 20
1.8569
  0
VERTEX
  8
LAYER_1
 62
   250
 10
-8.5913
 20
1.8637
  0
VERTEX
  8
LAYER_1
 62
   250
 10
-8.4994
 20
1.8726
  0
VERTEX
  8
LAYER_1
 62
   250
 10
-8.4065
 20
1.8834
  0
VERTEX
  8
LAYER_1
 62
   250
 10
-8.3124
 20
1.8963
  0
VERTEX
  8
LAYER_1
 62
   250
 10
-8.2174
 20
1.9112
  0
VERTEX
  8
LAYER_1
 62
   250
 10
-8.1214
 20
1.9281
  0
VERTEX
  8
LAYER_1
 62
   250
 10
-8.0243
 20
1.9471
  0
VERTEX
  8
LAYER_1
 62
   250
 10
-7.9263
 20
1.9682
  0
VERTEX
  8
LAYER_1
 62
   250
 10
-7.828
 20
1.9907
  0
VERTEX
  8
LAYER_1
 62
   250
 10
-7.7299
 20
2.0142
  0
VERTEX
  8
LAYER_1
 62
   250
 10
-7.632
 20
2.0388
  0
VERTEX
  8
LAYER_1
 62
   250
 10
-7.5345
 20
2.0644
  0
VERTEX
  8
LAYER_1
 62
   250
 10
-7.4373
 20
2.091
  0
VERTEX
  8
LAYER_1
 62
   250
 10
-7.3403
 20
2.1186
  0
VERTEX
  8
LAYER_1
 62
   250
 10
-7.2437
 20
2.1473
  0
VERTEX
  8
LAYER_1
 62
   250
 10
-7.1473
 20
2.1769
  0
VERTEX
  8
LAYER_1
 62
   250
 10
-7.0525
 20
2.2064
  0
VERTEX
  8
LAYER_1
 62
   250
 10
-6.9604
 20
2.2347
  0
VERTEX
  8
LAYER_1
 62
   250
 10
-6.871
 20
2.262
  0
VERTEX
  8
LAYER_1
 62
   250
 10
-6.7844
 20
2.2881
  0
VERTEX
  8
LAYER_1
 62
   250
 10
-6.7006
 20
2.3131
  0
VERTEX
  8
LAYER_1
 62
   250
 10
-6.6195
 20
2.3368
  0
VERTEX
  8
LAYER_1
 62
   250
 10
-6.5412
 20
2.3594
  0
VERTEX
  8
LAYER_1
 62
   250
 10
-6.4655
 20
2.3809
  0
VERTEX
  8
LAYER_1
 62
   250
 10
-6.4481
 20
2.3801
  0
VERTEX
  8
LAYER_1
 62
   250
 10
-6.4326
 20
2.3777
  0
VERTEX
  8
LAYER_1
 62
   250
 10
-6.4192
 20
2.3737
  0
VERTEX
  8
LAYER_1
 62
   250
 10
-6.4077
 20
2.3681
  0
VERTEX
  8
LAYER_1
 62
   250
 10
-6.3982
 20
2.3611
  0
VERTEX
  8
LAYER_1
 62
   250
 10
-6.3908
 20
2.3523
  0
VERTEX
  8
LAYER_1
 62
   250
 10
-6.3855
 20
2.3419
  0
VERTEX
  8
LAYER_1
 62
   250
 10
-6.3821
 20
2.3299
  0
VERTEX
  8
LAYER_1
 62
   250
 10
-6.3807
 20
2.3173
  0
VERTEX
  8
LAYER_1
 62
   250
 10
-6.3805
 20
2.3048
  0
VERTEX
  8
LAYER_1
 62
   250
 10
-6.3817
 20
2.2924
  0
VERTEX
  8
LAYER_1
 62
   250
 10
-6.3844
 20
2.2801
  0
VERTEX
  8
LAYER_1
 62
   250
 10
-6.3885
 20
2.268
  0
VERTEX
  8
LAYER_1
 62
   250
 10
-6.394
 20
2.2558
  0
VERTEX
  8
LAYER_1
 62
   250
 10
-6.401
 20
2.2439
  0
VERTEX
  8
LAYER_1
 62
   250
 10
-6.4099
 20
2.2325
  0
VERTEX
  8
LAYER_1
 62
   250
 10
-6.4145
 20
2.2275
  0
VERTEX
  8
LAYER_1
 62
   250
 10
-6.4197
 20
2.2224
  0
VERTEX
  8
LAYER_1
 62
   250
 10
-6.4254
 20
2.2171
  0
VERTEX
  8
LAYER_1
 62
   250
 10
-6.4316
 20
2.2114
  0
VERTEX
  8
LAYER_1
 62
   250
 10
-6.4383
 20
2.2056
  0
VERTEX
  8
LAYER_1
 62
   250
 10
-6.4455
 20
2.1994
  0
VERTEX
  8
LAYER_1
 62
   250
 10
-6.453
 20
2.1929
  0
VERTEX
  8
LAYER_1
 62
   250
 10
-6.4609
 20
2.1861
  0
VERTEX
  8
LAYER_1
 62
   250
 10
-6.4684
 20
2.179
  0
VERTEX
  8
LAYER_1
 62
   250
 10
-6.4745
 20
2.1717
  0
VERTEX
  8
LAYER_1
 62
   250
 10
-6.4793
 20
2.164
  0
VERTEX
  8
LAYER_1
 62
   250
 10
-6.4829
 20
2.156
  0
VERTEX
  8
LAYER_1
 62
   250
 10
-6.4849
 20
2.1478
  0
VERTEX
  8
LAYER_1
 62
   250
 10
-6.4855
 20
2.1393
  0
VERTEX
  8
LAYER_1
 62
   250
 10
-6.4851
 20
2.1304
  0
VERTEX
  8
LAYER_1
 62
   250
 10
-6.4841
 20
2.1213
  0
VERTEX
  8
LAYER_1
 62
   250
 10
-6.4687
 20
2.0158
  0
VERTEX
  8
LAYER_1
 62
   250
 10
-6.4513
 20
1.9124
  0
VERTEX
  8
LAYER_1
 62
   250
 10
-6.432
 20
1.8112
  0
VERTEX
  8
LAYER_1
 62
   250
 10
-6.4105
 20
1.7121
  0
VERTEX
  8
LAYER_1
 62
   250
 10
-6.3871
 20
1.6153
  0
VERTEX
  8
LAYER_1
 62
   250
 10
-6.3614
 20
1.5205
  0
VERTEX
  8
LAYER_1
 62
   250
 10
-6.3334
 20
1.4279
  0
VERTEX
  8
LAYER_1
 62
   250
 10
-6.3033
 20
1.3375
  0
VERTEX
  8
LAYER_1
 62
   250
 10
-6.272
 20
1.2489
  0
VERTEX
  8
LAYER_1
 62
   250
 10
-6.2407
 20
1.1613
  0
VERTEX
  8
LAYER_1
 62
   250
 10
-6.2094
 20
1.075
  0
VERTEX
  8
LAYER_1
 62
   250
 10
-6.1781
 20
0.9897
  0
VERTEX
  8
LAYER_1
 62
   250
 10
-6.1468
 20
0.9057
  0
VERTEX
  8
LAYER_1
 62
   250
 10
-6.1154
 20
0.8228
  0
VERTEX
  8
LAYER_1
 62
   250
 10
-6.0841
 20
0.7411
  0
VERTEX
  8
LAYER_1
 62
   250
 10
-6.0528
 20
0.6605
  0
VERTEX
  8
LAYER_1
 62
   250
 10
-6.0219
 20
0.5809
  0
VERTEX
  8
LAYER_1
 62
   250
 10
-5.9917
 20
0.5019
  0
VERTEX
  8
LAYER_1
 62
   250
 10
-5.9622
 20
0.4238
  0
VERTEX
  8
LAYER_1
 62
   250
 10
-5.9335
 20
0.3463
  0
VERTEX
  8
LAYER_1
 62
   250
 10
-5.9055
 20
0.2696
  0
VERTEX
  8
LAYER_1
 62
   250
 10
-5.8781
 20
0.1935
  0
VERTEX
  8
LAYER_1
 62
   250
 10
-5.8515
 20
0.1182
  0
VERTEX
  8
LAYER_1
 62
   250
 10
-5.8256
 20
0.0437
  0
VERTEX
  8
LAYER_1
 62
   250
 10
-5.8015
 20
-0.0305
  0
VERTEX
  8
LAYER_1
 62
   250
 10
-5.7801
 20
-0.1047
  0
VERTEX
  8
LAYER_1
 62
   250
 10
-5.7616
 20
-0.1789
  0
VERTEX
  8
LAYER_1
 62
   250
 10
-5.7456
 20
-0.2531
  0
VERTEX
  8
LAYER_1
 62
   250
 10
-5.7326
 20
-0.3273
  0
VERTEX
  8
LAYER_1
 62
   250
 10
-5.7222
 20
-0.4015
  0
VERTEX
  8
LAYER_1
 62
   250
 10
-5.7146
 20
-0.4758
  0
VERTEX
  8
LAYER_1
 62
   250
 10
-5.7097
 20
-0.55
  0
VERTEX
  8
LAYER_1
 62
   250
 10
-5.7083
 20
-0.6245
  0
VERTEX
  8
LAYER_1
 62
   250
 10
-5.7106
 20
-0.6998
  0
VERTEX
  8
LAYER_1
 62
   250
 10
-5.7169
 20
-0.7758
  0
VERTEX
  8
LAYER_1
 62
   250
 10
-5.7271
 20
-0.8525
  0
VERTEX
  8
LAYER_1
 62
   250
 10
-5.7411
 20
-0.93
  0
VERTEX
  8
LAYER_1
 62
   250
 10
-5.7592
 20
-1.0081
  0
VERTEX
  8
LAYER_1
 62
   250
 10
-5.7813
 20
-1.0871
  0
VERTEX
  8
LAYER_1
 62
   250
 10
-5.8071
 20
-1.1667
  0
VERTEX
  8
LAYER_1
 62
   250
 10
-5.8376
 20
-1.2474
  0
VERTEX
  8
LAYER_1
 62
   250
 10
-5.8738
 20
-1.3293
  0
VERTEX
  8
LAYER_1
 62
   250
 10
-5.9154
 20
-1.4125
  0
VERTEX
  8
LAYER_1
 62
   250
 10
-5.9624
 20
-1.4971
  0
VERTEX
  8
LAYER_1
 62
   250
 10
-6.0149
 20
-1.5831
  0
VERTEX
  8
LAYER_1
 62
   250
 10
-6.073
 20
-1.6704
  0
VERTEX
  8
LAYER_1
 62
   250
 10
-6.1366
 20
-1.7588
  0
VERTEX
  8
LAYER_1
 62
   250
 10
-6.2059
 20
-1.8484
  0
VERTEX
  8
LAYER_1
 62
   250
 10
-6.2753
 20
-1.9288
  0
VERTEX
  8
LAYER_1
 62
   250
 10
-6.3494
 20
-2.003
  0
VERTEX
  8
LAYER_1
 62
   250
 10
-6.4283
 20
-2.0709
  0
VERTEX
  8
LAYER_1
 62
   250
 10
-6.5117
 20
-2.1325
  0
VERTEX
  8
LAYER_1
 62
   250
 10
-6.5998
 20
-2.188
  0
VERTEX
  8
LAYER_1
 62
   250
 10
-6.6927
 20
-2.2371
  0
VERTEX
  8
LAYER_1
 62
   250
 10
-6.7902
 20
-2.28
  0
VERTEX
  8
LAYER_1
 62
   250
 10
-6.8922
 20
-2.3168
  0
VERTEX
  8
LAYER_1
 62
   250
 10
-6.9969
 20
-2.3479
  0
VERTEX
  8
LAYER_1
 62
   250
 10
-7.1024
 20
-2.3742
  0
VERTEX
  8
LAYER_1
 62
   250
 10
-7.2086
 20
-2.3954
  0
VERTEX
  8
LAYER_1
 62
   250
 10
-7.3154
 20
-2.4118
  0
VERTEX
  8
LAYER_1
 62
   250
 10
-7.423
 20
-2.4232
  0
VERTEX
  8
LAYER_1
 62
   250
 10
-7.5313
 20
-2.4298
  0
VERTEX
  8
LAYER_1
 62
   250
 10
-7.6403
 20
-2.4313
  0
VERTEX
  8
LAYER_1
 62
   250
 10
-7.7501
 20
-2.4281
  0
VERTEX
  8
LAYER_1
 62
   250
 10
-7.8596
 20
-2.4203
  0
VERTEX
  8
LAYER_1
 62
   250
 10
-7.9681
 20
-2.4086
  0
VERTEX
  8
LAYER_1
 62
   250
 10
-8.0753
 20
-2.3931
  0
VERTEX
  8
LAYER_1
 62
   250
 10
-8.1814
 20
-2.3736
  0
VERTEX
  8
LAYER_1
 62
   250
 10
-8.2863
 20
-2.3502
  0
VERTEX
  8
LAYER_1
 62
   250
 10
-8.3901
 20
-2.3229
  0
VERTEX
  8
LAYER_1
 62
   250
 10
-8.4927
 20
-2.2916
  0
VERTEX
  8
LAYER_1
 62
   250
 10
-8.5941
 20
-2.2564
  0
VERTEX
  8
LAYER_1
 62
   250
 10
-8.6926
 20
-2.2181
  0
VERTEX
  8
LAYER_1
 62
   250
 10
-8.7863
 20
-2.1773
  0
VERTEX
  8
LAYER_1
 62
   250
 10
-8.8752
 20
-2.1341
  0
VERTEX
  8
LAYER_1
 62
   250
 10
-8.9593
 20
-2.0884
  0
VERTEX
  8
LAYER_1
 62
   250
 10
-9.0386
 20
-2.0403
  0
VERTEX
  8
LAYER_1
 62
   250
 10
-9.1132
 20
-1.9896
  0
VERTEX
  8
LAYER_1
 62
   250
 10
-9.183
 20
-1.9365
  0
VERTEX
  8
LAYER_1
 62
   250
 10
-9.248
 20
-1.8809
  0
VERTEX
  8
LAYER_1
 62
   250
 10
-9.3071
 20
-1.8233
  0
VERTEX
  8
LAYER_1
 62
   250
 10
-9.3595
 20
-1.7641
  0
VERTEX
  8
LAYER_1
 62
   250
 10
-9.4051
 20
-1.7033
  0
VERTEX
  8
LAYER_1
 62
   250
 10
-9.4439
 20
-1.6408
  0
VERTEX
  8
LAYER_1
 62
   250
 10
-9.4759
 20
-1.5769
  0
VERTEX
  8
LAYER_1
 62
   250
 10
-9.501
 20
-1.5113
  0
VERTEX
  8
LAYER_1
 62
   250
 10
-9.5193
 20
-1.4441
  0
VERTEX
  8
LAYER_1
 62
   250
 10
-9.5309
 20
-1.3753
  0
VERTEX
  8
LAYER_1
 62
   250
 10
-9.5337
 20
-1.3059
  0
VERTEX
  8
LAYER_1
 62
   250
 10
-9.5264
 20
-1.2363
  0
VERTEX
  8
LAYER_1
 62
   250
 10
-9.5089
 20
-1.1667
  0
VERTEX
  8
LAYER_1
 62
   250
 10
-9.481
 20
-1.0972
  0
VERTEX
  8
LAYER_1
 62
   250
 10
-9.4428
 20
-1.0278
  0
VERTEX
  8
LAYER_1
 62
   250
 10
-9.3941
 20
-0.9583
  0
VERTEX
  8
LAYER_1
 62
   250
 10
-9.3354
 20
-0.8887
  0
VERTEX
  8
LAYER_1
 62
   250
 10
-9.2665
 20
-0.8189
  0
VERTEX
  8
LAYER_1
 62
   250
 10
-9.2122
 20
-0.7693
  0
VERTEX
  8
LAYER_1
 62
   250
 10
-9.1559
 20
-0.722
  0
VERTEX
  8
LAYER_1
 62
   250
 10
-9.0979
 20
-0.6772
  0
VERTEX
  8
LAYER_1
 62
   250
 10
-9.0379
 20
-0.6348
  0
VERTEX
  8
LAYER_1
 62
   250
 10
-8.9762
 20
-0.5949
  0
VERTEX
  8
LAYER_1
 62
   250
 10
-8.9126
 20
-0.5573
  0
VERTEX
  8
LAYER_1
 62
   250
 10
-8.8471
 20
-0.5222
  0
VERTEX
  8
LAYER_1
 62
   250
 10
-8.7796
 20
-0.4897
  0
VERTEX
  8
LAYER_1
 62
   250
 10
-8.7117
 20
-0.4581
  0
VERTEX
  8
LAYER_1
 62
   250
 10
-8.6443
 20
-0.4257
  0
VERTEX
  8
LAYER_1
 62
   250
 10
-8.5777
 20
-0.3925
  0
VERTEX
  8
LAYER_1
 62
   250
 10
-8.5119
 20
-0.3587
  0
VERTEX
  8
LAYER_1
 62
   250
 10
-8.4473
 20
-0.3232
  0
VERTEX
  8
LAYER_1
 62
   250
 10
-8.3837
 20
-0.2863
  0
VERTEX
  8
LAYER_1
 62
   250
 10
-8.3203
 20
-0.2499
  0
VERTEX
  8
LAYER_1
 62
   250
 10
-8.2556
 20
-0.2161
  0
VERTEX
  8
LAYER_1
 62
   250
 10
-8.2362
 20
-0.2079
  0
VERTEX
  8
LAYER_1
 62
   250
 10
-8.2175
 20
-0.2024
  0
VERTEX
  8
LAYER_1
 62
   250
 10
-8.1996
 20
-0.1993
  0
VERTEX
  8
LAYER_1
 62
   250
 10
-8.1825
 20
-0.1983
  0
VERTEX
  8
LAYER_1
 62
   250
 10
-8.1665
 20
-0.1993
  0
VERTEX
  8
LAYER_1
 62
   250
 10
-8.1517
 20
-0.202
  0
VERTEX
  8
LAYER_1
 62
   250
 10
-8.1381
 20
-0.2061
  0
VERTEX
  8
LAYER_1
 62
   250
 10
-8.1258
 20
-0.2114
  0
VERTEX
  8
LAYER_1
 62
   250
 10
-8.1147
 20
-0.2176
  0
VERTEX
  8
LAYER_1
 62
   250
 10
-8.1046
 20
-0.2247
  0
VERTEX
  8
LAYER_1
 62
   250
 10
-8.0955
 20
-0.2327
  0
VERTEX
  8
LAYER_1
 62
   250
 10
-8.0875
 20
-0.2415
  0
VERTEX
  8
LAYER_1
 62
   250
 10
-8.0805
 20
-0.2512
  0
VERTEX
  8
LAYER_1
 62
   250
 10
-8.0745
 20
-0.2619
  0
VERTEX
  8
LAYER_1
 62
   250
 10
-8.0694
 20
-0.2733
  0
VERTEX
  8
LAYER_1
 62
   250
 10
-8.0655
 20
-0.2856
  0
VERTEX
  8
LAYER_1
 62
   250
 10
-8.0625
 20
-0.2985
  0
VERTEX
  8
LAYER_1
 62
   250
 10
-8.0606
 20
-0.3116
  0
VERTEX
  8
LAYER_1
 62
   250
 10
-8.0597
 20
-0.3251
  0
VERTEX
  8
LAYER_1
 62
   250
 10
-8.0597
 20
-0.3389
  0
VERTEX
  8
LAYER_1
 62
   250
 10
-8.0608
 20
-0.3529
  0
VERTEX
  8
LAYER_1
 62
   250
 10
-8.0629
 20
-0.3673
  0
VERTEX
  8
LAYER_1
 62
   250
 10
-8.066
 20
-0.382
  0
VERTEX
  8
LAYER_1
 62
   250
 10
-8.0702
 20
-0.3969
  0
VERTEX
  8
LAYER_1
 62
   250
 10
-8.0754
 20
-0.4117
  0
VERTEX
  8
LAYER_1
 62
   250
 10
-8.0818
 20
-0.4261
  0
VERTEX
  8
LAYER_1
 62
   250
 10
-8.0893
 20
-0.4402
  0
VERTEX
  8
LAYER_1
 62
   250
 10
-8.098
 20
-0.4537
  0
VERTEX
  8
LAYER_1
 62
   250
 10
-8.1074
 20
-0.4672
  0
VERTEX
  8
LAYER_1
 62
   250
 10
-8.1179
 20
-0.4807
  0
VERTEX
  8
LAYER_1
 62
   250
 10
-8.1301
 20
-0.4931
  0
VERTEX
  8
LAYER_1
 62
   250
 10
-8.1443
 20
-0.5035
  0
VERTEX
  8
LAYER_1
 62
   250
 10
-8.2022
 20
-0.5365
  0
VERTEX
  8
LAYER_1
 62
   250
 10
-8.2611
 20
-0.5681
  0
VERTEX
  8
LAYER_1
 62
   250
 10
-8.3213
 20
-0.5985
  0
VERTEX
  8
LAYER_1
 62
   250
 10
-8.3824
 20
-0.6277
  0
VERTEX
  8
LAYER_1
 62
   250
 10
-8.4445
 20
-0.6559
  0
VERTEX
  8
LAYER_1
 62
   250
 10
-8.5076
 20
-0.6832
  0
VERTEX
  8
LAYER_1
 62
   250
 10
-8.5714
 20
-0.7096
  0
VERTEX
  8
LAYER_1
 62
   250
 10
-8.6359
 20
-0.7354
  0
VERTEX
  8
LAYER_1
 62
   250
 10
-8.6996
 20
-0.7625
  0
VERTEX
  8
LAYER_1
 62
   250
 10
-8.7611
 20
-0.7929
  0
VERTEX
  8
LAYER_1
 62
   250
 10
-8.8202
 20
-0.8263
  0
VERTEX
  8
LAYER_1
 62
   250
 10
-8.877
 20
-0.863
  0
VERTEX
  8
LAYER_1
 62
   250
 10
-8.9315
 20
-0.9028
  0
VERTEX
  8
LAYER_1
 62
   250
 10
-8.9837
 20
-0.9459
  0
VERTEX
  8
LAYER_1
 62
   250
 10
-9.0336
 20
-0.9921
  0
VERTEX
  8
LAYER_1
 62
   250
 10
-9.081
 20
-1.0415
  0
VERTEX
  8
LAYER_1
 62
   250
 10
-9.1236
 20
-1.0926
  0
VERTEX
  8
LAYER_1
 62
   250
 10
-9.1584
 20
-1.1436
  0
VERTEX
  8
LAYER_1
 62
   250
 10
-9.1855
 20
-1.1946
  0
VERTEX
  8
LAYER_1
 62
   250
 10
-9.2051
 20
-1.2456
  0
VERTEX
  8
LAYER_1
 62
   250
 10
-9.2168
 20
-1.2966
  0
VERTEX
  8
LAYER_1
 62
   250
 10
-9.221
 20
-1.3475
  0
VERTEX
  8
LAYER_1
 62
   250
 10
-9.2175
 20
-1.3986
  0
VERTEX
  8
LAYER_1
 62
   250
 10
-9.2063
 20
-1.4496
  0
VERTEX
  8
LAYER_1
 62
   250
 10
-9.1888
 20
-1.5
  0
VERTEX
  8
LAYER_1
 62
   250
 10
-9.1664
 20
-1.5493
  0
VERTEX
  8
LAYER_1
 62
   250
 10
-9.1389
 20
-1.5974
  0
VERTEX
  8
LAYER_1
 62
   250
 10
-9.1066
 20
-1.6444
  0
VERTEX
  8
LAYER_1
 62
   250
 10
-9.0693
 20
-1.6901
  0
VERTEX
  8
LAYER_1
 62
   250
 10
-9.0271
 20
-1.7347
  0
VERTEX
  8
LAYER_1
 62
   250
 10
-8.9801
 20
-1.7783
  0
VERTEX
  8
LAYER_1
 62
   250
 10
-8.928
 20
-1.8206
  0
VERTEX
  8
LAYER_1
 62
   250
 10
-8.8719
 20
-1.8613
  0
VERTEX
  8
LAYER_1
 62
   250
 10
-8.8121
 20
-1.9003
  0
VERTEX
  8
LAYER_1
 62
   250
 10
-8.7489
 20
-1.9373
  0
VERTEX
  8
LAYER_1
 62
   250
 10
-8.6822
 20
-1.9724
  0
VERTEX
  8
LAYER_1
 62
   250
 10
-8.6121
 20
-2.0056
  0
VERTEX
  8
LAYER_1
 62
   250
 10
-8.5385
 20
-2.037
  0
VERTEX
  8
LAYER_1
 62
   250
 10
-8.4614
 20
-2.0665
  0
VERTEX
  8
LAYER_1
 62
   250
 10
-8.3808
 20
-2.0942
  0
VERTEX
  8
LAYER_1
 62
   250
 10
-8.2979
 20
-2.1192
  0
VERTEX
  8
LAYER_1
 62
   250
 10
-8.2139
 20
-2.1411
  0
VERTEX
  8
LAYER_1
 62
   250
 10
-8.1287
 20
-2.1597
  0
VERTEX
  8
LAYER_1
 62
   250
 10
-8.0423
 20
-2.1753
  0
VERTEX
  8
LAYER_1
 62
   250
 10
-7.9548
 20
-2.1876
  0
VERTEX
  8
LAYER_1
 62
   250
 10
-7.8661
 20
-2.1968
  0
VERTEX
  8
LAYER_1
 62
   250
 10
-7.7762
 20
-2.2027
  0
VERTEX
  8
LAYER_1
 62
   250
 10
-7.6852
 20
-2.2055
  0
VERTEX
  8
LAYER_1
 62
   250
 10
-7.5938
 20
-2.2047
  0
VERTEX
  8
LAYER_1
 62
   250
 10
-7.5026
 20
-2.2002
  0
VERTEX
  8
LAYER_1
 62
   250
 10
-7.4118
 20
-2.192
  0
VERTEX
  8
LAYER_1
 62
   250
 10
-7.3212
 20
-2.1799
  0
VERTEX
  8
LAYER_1
 62
   250
 10
-7.231
 20
-2.1642
  0
VERTEX
  8
LAYER_1
 62
   250
 10
-7.141
 20
-2.1447
  0
VERTEX
  8
LAYER_1
 62
   250
 10
-7.0513
 20
-2.1213
  0
VERTEX
  8
LAYER_1
 62
   250
 10
-6.9618
 20
-2.0942
  0
VERTEX
  8
LAYER_1
 62
   250
 10
-6.8741
 20
-2.0627
  0
VERTEX
  8
LAYER_1
 62
   250
 10
-6.7894
 20
-2.026
  0
VERTEX
  8
LAYER_1
 62
   250
 10
-6.7077
 20
-1.9845
  0
VERTEX
  8
LAYER_1
 62
   250
 10
-6.6291
 20
-1.9377
  0
VERTEX
  8
LAYER_1
 62
   250
 10
-6.5536
 20
-1.8859
  0
VERTEX
  8
LAYER_1
 62
   250
 10
-6.4811
 20
-1.8289
  0
VERTEX
  8
LAYER_1
 62
   250
 10
-6.4115
 20
-1.7669
  0
VERTEX
  8
LAYER_1
 62
   250
 10
-6.345
 20
-1.7
  0
VERTEX
  8
LAYER_1
 62
   250
 10
-6.2764
 20
-1.6232
  0
VERTEX
  8
LAYER_1
 62
   250
 10
-6.2138
 20
-1.5457
  0
VERTEX
  8
LAYER_1
 62
   250
 10
-6.1576
 20
-1.4678
  0
VERTEX
  8
LAYER_1
 62
   250
 10
-6.1074
 20
-1.3892
  0
VERTEX
  8
LAYER_1
 62
   250
 10
-6.0636
 20
-1.3102
  0
VERTEX
  8
LAYER_1
 62
   250
 10
-6.026
 20
-1.2305
  0
VERTEX
  8
LAYER_1
 62
   250
 10
-5.9946
 20
-1.1503
  0
VERTEX
  8
LAYER_1
 62
   250
 10
-5.9694
 20
-1.0693
  0
VERTEX
  8
LAYER_1
 62
   250
 10
-5.9493
 20
-0.9883
  0
VERTEX
  8
LAYER_1
 62
   250
 10
-5.9332
 20
-0.9073
  0
VERTEX
  8
LAYER_1
 62
   250
 10
-5.9209
 20
-0.8265
  0
VERTEX
  8
LAYER_1
 62
   250
 10
-5.9126
 20
-0.7459
  0
VERTEX
  8
LAYER_1
 62
   250
 10
-5.9083
 20
-0.6655
  0
VERTEX
  8
LAYER_1
 62
   250
 10
-5.9077
 20
-0.5851
  0
VERTEX
  8
LAYER_1
 62
   250
 10
-5.911
 20
-0.5048
  0
VERTEX
  8
LAYER_1
 62
   250
 10
-5.9183
 20
-0.4248
  0
VERTEX
  8
LAYER_1
 62
   250
 10
-5.929
 20
-0.3448
  0
VERTEX
  8
LAYER_1
 62
   250
 10
-5.9424
 20
-0.2645
  0
VERTEX
  8
LAYER_1
 62
   250
 10
-5.9585
 20
-0.1841
  0
VERTEX
  8
LAYER_1
 62
   250
 10
-5.9775
 20
-0.1036
  0
VERTEX
  8
LAYER_1
 62
   250
 10
-5.9992
 20
-0.0229
  0
VERTEX
  8
LAYER_1
 62
   250
 10
-6.0235
 20
0.0579
  0
VERTEX
  8
LAYER_1
 62
   250
 10
-6.0507
 20
0.1389
  0
VERTEX
  8
LAYER_1
 62
   250
 10
-6.0807
 20
0.2199
  0
VERTEX
  8
LAYER_1
 62
   250
 10
-6.112
 20
0.301
  0
VERTEX
  8
LAYER_1
 62
   250
 10
-6.1436
 20
0.3819
  0
VERTEX
  8
LAYER_1
 62
   250
 10
-6.1753
 20
0.4627
  0
VERTEX
  8
LAYER_1
 62
   250
 10
-6.2071
 20
0.5433
  0
VERTEX
  8
LAYER_1
 62
   250
 10
-6.239
 20
0.6238
  0
VERTEX
  8
LAYER_1
 62
   250
 10
-6.2711
 20
0.7042
  0
VERTEX
  8
LAYER_1
 62
   250
 10
-6.3034
 20
0.7845
  0
VERTEX
  8
LAYER_1
 62
   250
 10
-6.3358
 20
0.8645
  0
VERTEX
  8
LAYER_1
 62
   250
 10
-6.3678
 20
0.9444
  0
VERTEX
  8
LAYER_1
 62
   250
 10
-6.3989
 20
1.0242
  0
VERTEX
  8
LAYER_1
 62
   250
 10
-6.4292
 20
1.1038
  0
VERTEX
  8
LAYER_1
 62
   250
 10
-6.4586
 20
1.1833
  0
VERTEX
  8
LAYER_1
 62
   250
 10
-6.487
 20
1.2627
  0
VERTEX
  8
LAYER_1
 62
   250
 10
-6.5148
 20
1.3419
  0
VERTEX
  8
LAYER_1
 62
   250
 10
-6.5416
 20
1.4209
  0
VERTEX
  8
LAYER_1
 62
   250
 10
-6.5676
 20
1.4998
  0
VERTEX
  8
LAYER_1
 62
   250
 10
-6.5914
 20
1.5784
  0
VERTEX
  8
LAYER_1
 62
   250
 10
-6.6117
 20
1.6564
  0
VERTEX
  8
LAYER_1
 62
   250
 10
-6.6284
 20
1.7337
  0
VERTEX
  8
LAYER_1
 62
   250
 10
-6.6418
 20
1.8105
  0
VERTEX
  8
LAYER_1
 62
   250
 10
-6.6515
 20
1.8868
  0
VERTEX
  8
LAYER_1
 62
   250
 10
-6.6578
 20
1.9624
  0
VERTEX
  8
LAYER_1
 62
   250
 10
-6.6607
 20
2.0375
  0
VERTEX
  8
LAYER_1
 62
   250
 10
-6.6603
 20
2.1119
  0
VERTEX
  8
LAYER_1
 62
   250
 10
-6.6602
 20
2.1164
  0
VERTEX
  8
LAYER_1
 62
   250
 10
-6.6599
 20
2.1206
  0
VERTEX
  8
LAYER_1
 62
   250
 10
-6.6595
 20
2.1246
  0
VERTEX
  8
LAYER_1
 62
   250
 10
-6.659
 20
2.1282
  0
VERTEX
  8
LAYER_1
 62
   250
 10
-6.6585
 20
2.1314
  0
VERTEX
  8
LAYER_1
 62
   250
 10
-6.6577
 20
2.1346
  0
VERTEX
  8
LAYER_1
 62
   250
 10
-6.6568
 20
2.1373
  0
VERTEX
  8
LAYER_1
 62
   250
 10
-6.6557
 20
2.1398
  0
VERTEX
  8
LAYER_1
 62
   250
 10
-6.6546
 20
2.1422
  0
VERTEX
  8
LAYER_1
 62
   250
 10
-6.6536
 20
2.1449
  0
VERTEX
  8
LAYER_1
 62
   250
 10
-6.6528
 20
2.148
  0
VERTEX
  8
LAYER_1
 62
   250
 10
-6.6522
 20
2.1513
  0
VERTEX
  8
LAYER_1
 62
   250
 10
-6.6517
 20
2.1549
  0
VERTEX
  8
LAYER_1
 62
   250
 10
-6.6514
 20
2.1588
  0
VERTEX
  8
LAYER_1
 62
   250
 10
-6.6511
 20
2.1631
  0
VERTEX
  8
LAYER_1
 62
   250
 10
-6.651
 20
2.1676
  0
VERTEX
  8
LAYER_1
 62
   250
 10
-6.7216
 20
2.1482
  0
VERTEX
  8
LAYER_1
 62
   250
 10
-6.7939
 20
2.1267
  0
VERTEX
  8
LAYER_1
 62
   250
 10
-6.8682
 20
2.1034
  0
VERTEX
  8
LAYER_1
 62
   250
 10
-6.9443
 20
2.0783
  0
VERTEX
  8
LAYER_1
 62
   250
 10
-7.0224
 20
2.0513
  0
VERTEX
  8
LAYER_1
 62
   250
 10
-7.1023
 20
2.0223
  0
VERTEX
  8
LAYER_1
 62
   250
 10
-7.1841
 20
1.9916
  0
VERTEX
  8
LAYER_1
 62
   250
 10
-7.2678
 20
1.9589
  0
VERTEX
  8
LAYER_1
 62
   250
 10
-7.3528
 20
1.9257
  0
VERTEX
  8
LAYER_1
 62
   250
 10
-7.4382
 20
1.8934
  0
VERTEX
  8
LAYER_1
 62
   250
 10
-7.5243
 20
1.862
  0
VERTEX
  8
LAYER_1
 62
   250
 10
-7.611
 20
1.8314
  0
VERTEX
  8
LAYER_1
 62
   250
 10
-7.6982
 20
1.8018
  0
VERTEX
  8
LAYER_1
 62
   250
 10
-7.786
 20
1.7729
  0
VERTEX
  8
LAYER_1
 62
   250
 10
-7.8745
 20
1.7449
  0
VERTEX
  8
LAYER_1
 62
   250
 10
-7.9634
 20
1.7178
  0
VERTEX
  8
LAYER_1
 62
   250
 10
-8.0526
 20
1.6924
  0
VERTEX
  8
LAYER_1
 62
   250
 10
-8.142
 20
1.6694
  0
VERTEX
  8
LAYER_1
 62
   250
 10
-8.2312
 20
1.6488
  0
VERTEX
  8
LAYER_1
 62
   250
 10
-8.3204
 20
1.6308
  0
VERTEX
  8
LAYER_1
 62
   250
 10
-8.4097
 20
1.6153
  0
VERTEX
  8
LAYER_1
 62
   250
 10
-8.499
 20
1.6021
  0
VERTEX
  8
LAYER_1
 62
   250
 10
-8.5883
 20
1.5914
  0
VERTEX
  8
LAYER_1
 62
   250
 10
-8.6776
 20
1.5832
  0
VERTEX
  8
LAYER_1
 62
   250
 10
-8.766
 20
1.579
  0
VERTEX
  8
LAYER_1
 62
   250
 10
-8.8529
 20
1.5798
  0
VERTEX
  8
LAYER_1
 62
   250
 10
-8.9382
 20
1.5859
  0
VERTEX
  8
LAYER_1
 62
   250
 10
-9.0219
 20
1.5972
  0
VERTEX
  8
LAYER_1
 62
   250
 10
-9.1041
 20
1.6137
  0
VERTEX
  8
LAYER_1
 62
   250
 10
-9.1846
 20
1.6353
  0
VERTEX
  8
LAYER_1
 62
   250
 10
-9.2636
 20
1.6623
  0
VERTEX
  8
LAYER_1
 62
   250
 10
-9.3408
 20
1.6946
  0
VERTEX
  8
LAYER_1
 62
   250
 10
-9.3924
 20
1.7204
  0
VERTEX
  8
LAYER_1
 62
   250
 10
-9.4362
 20
1.7472
  0
VERTEX
  8
LAYER_1
 62
   250
 10
-9.4718
 20
1.7749
  0
VERTEX
  8
LAYER_1
 62
   250
 10
-9.4996
 20
1.8035
  0
VERTEX
  8
LAYER_1
 62
   250
 10
-9.5194
 20
1.8329
  0
VERTEX
  8
LAYER_1
 62
   250
 10
-9.5312
 20
1.8632
  0
VERTEX
  8
LAYER_1
 62
   250
 10
-9.5349
 20
1.8944
  0
VERTEX
  8
LAYER_1
 62
   250
 10
-9.5309
 20
1.9264
  0
VERTEX
  8
LAYER_1
 62
   250
 10
-9.521
 20
1.9587
  0
VERTEX
  8
LAYER_1
 62
   250
 10
-9.5079
 20
1.9908
  0
VERTEX
  8
LAYER_1
 62
   250
 10
-9.4914
 20
2.0224
  0
VERTEX
  8
LAYER_1
 62
   250
 10
-9.4717
 20
2.0539
  0
VERTEX
  8
LAYER_1
 62
   250
 10
-9.4487
 20
2.0851
  0
VERTEX
  8
LAYER_1
 62
   250
 10
-9.4221
 20
2.1159
  0
VERTEX
  8
LAYER_1
 62
   250
 10
-9.3924
 20
2.1465
  0
VERTEX
  8
LAYER_1
 62
   250
 10
-9.3593
 20
2.1769
  0
VERTEX
  8
LAYER_1
 62
   250
 10
-9.3239
 20
2.2067
  0
VERTEX
  8
LAYER_1
 62
   250
 10
-9.2869
 20
2.2357
  0
VERTEX
  8
LAYER_1
 62
   250
 10
-9.2484
 20
2.264
  0
VERTEX
  8
LAYER_1
 62
   250
 10
-9.2086
 20
2.2916
  0
VERTEX
  8
LAYER_1
 62
   250
 10
-9.1673
 20
2.3185
  0
VERTEX
  8
LAYER_1
 62
   250
 10
-9.1245
 20
2.3446
  0
VERTEX
  8
LAYER_1
 62
   250
 10
-9.0803
 20
2.3701
  0
VERTEX
  8
LAYER_1
 62
   250
 10
-9.0347
 20
2.3949
  0
VERTEX
  8
LAYER_1
 62
   250
 10
-8.99
 20
2.4181
  0
VERTEX
  8
LAYER_1
 62
   250
 10
-8.9484
 20
2.4392
  0
VERTEX
  8
LAYER_1
 62
   250
 10
-8.9099
 20
2.4581
  0
VERTEX
  8
LAYER_1
 62
   250
 10
-8.8748
 20
2.4749
  0
VERTEX
  8
LAYER_1
 62
   250
 10
-8.8427
 20
2.4893
  0
VERTEX
  8
LAYER_1
 62
   250
 10
-8.8137
 20
2.5014
  0
VERTEX
  8
LAYER_1
 62
   250
 10
-8.788
 20
2.5116
  0
VERTEX
  8
LAYER_1
 62
   250
 10
-8.7657
 20
2.5201
  0
VERTEX
  8
LAYER_1
 62
   250
 10
-8.5872
 20
2.5846
  0
VERTEX
  8
LAYER_1
 62
   250
 10
-8.4093
 20
2.6448
  0
VERTEX
  8
LAYER_1
 62
   250
 10
-8.2318
 20
2.7004
  0
VERTEX
  8
LAYER_1
 62
   250
 10
-8.0549
 20
2.7515
  0
VERTEX
  8
LAYER_1
 62
   250
 10
-7.8784
 20
2.798
  0
VERTEX
  8
LAYER_1
 62
   250
 10
-7.7022
 20
2.8399
  0
VERTEX
  8
LAYER_1
 62
   250
 10
-7.5265
 20
2.8771
  0
VERTEX
  8
LAYER_1
 62
   250
 10
-7.3513
 20
2.9096
  0
VERTEX
  8
LAYER_1
 62
   250
 10
-7.1755
 20
2.9381
  0
VERTEX
  8
LAYER_1
 62
   250
 10
-6.9981
 20
2.9634
  0
VERTEX
  8
LAYER_1
 62
   250
 10
-6.8191
 20
2.9855
  0
VERTEX
  8
LAYER_1
 62
   250
 10
-6.6383
 20
3.0046
  0
VERTEX
  8
LAYER_1
 62
   250
 10
-6.4561
 20
3.0205
  0
VERTEX
  8
LAYER_1
 62
   250
 10
-6.2723
 20
3.0333
  0
VERTEX
  8
LAYER_1
 62
   250
 10
-6.0869
 20
3.0428
  0
VERTEX
  8
LAYER_1
 62
   250
 10
-5.8998
 20
3.0487
  0
VERTEX
  8
LAYER_1
 62
   250
 10
-5.8837
 20
3.0491
  0
VERTEX
  8
LAYER_1
 62
   250
 10
-5.8628
 20
3.0496
  0
VERTEX
  8
LAYER_1
 62
   250
 10
-5.8372
 20
3.0503
  0
VERTEX
  8
LAYER_1
 62
   250
 10
-5.8071
 20
3.0513
  0
VERTEX
  8
LAYER_1
 62
   250
 10
-5.7723
 20
3.0526
  0
VERTEX
  8
LAYER_1
 62
   250
 10
-5.7328
 20
3.054
  0
VERTEX
  8
LAYER_1
 62
   250
 10
-5.6888
 20
3.0558
  0
VERTEX
  8
LAYER_1
 62
   250
 10
-5.6401
 20
3.058
  0
VERTEX
  8
LAYER_1
 62
   250
 10
-5.5888
 20
3.0598
  0
VERTEX
  8
LAYER_1
 62
   250
 10
-5.5367
 20
3.0608
  0
VERTEX
  8
LAYER_1
 62
   250
 10
-5.4839
 20
3.061
  0
VERTEX
  8
LAYER_1
 62
   250
 10
-5.4303
 20
3.0602
  0
VERTEX
  8
LAYER_1
 62
   250
 10
-5.3761
 20
3.0587
  0
VERTEX
  8
LAYER_1
 62
   250
 10
-5.3211
 20
3.0563
  0
VERTEX
  8
LAYER_1
 62
   250
 10
-5.2654
 20
3.0529
  0
VERTEX
  8
LAYER_1
 62
   250
 10
-5.2089
 20
3.0487
  0
VERTEX
  8
LAYER_1
 62
   250
 10
-5.1527
 20
3.0435
  0
VERTEX
  8
LAYER_1
 62
   250
 10
-5.0978
 20
3.0371
  0
VERTEX
  8
LAYER_1
 62
   250
 10
-5.0443
 20
3.0295
  0
VERTEX
  8
LAYER_1
 62
   250
 10
-4.9921
 20
3.0209
  0
VERTEX
  8
LAYER_1
 62
   250
 10
-4.9412
 20
3.0111
  0
VERTEX
  8
LAYER_1
 62
   250
 10
-4.8915
 20
3.0
  0
VERTEX
  8
LAYER_1
 62
   250
 10
-4.8432
 20
2.9879
  0
VERTEX
  8
LAYER_1
 62
   250
 10
-4.7961
 20
2.9745
  0
VERTEX
  8
LAYER_1
 62
   250
 10
-4.7524
 20
2.9594
  0
VERTEX
  8
LAYER_1
 62
   250
 10
-4.7139
 20
2.9421
  0
VERTEX
  8
LAYER_1
 62
   250
 10
-4.6806
 20
2.9224
  0
VERTEX
  8
LAYER_1
 62
   250
 10
-4.6524
 20
2.9003
  0
VERTEX
  8
LAYER_1
 62
   250
 10
-4.6295
 20
2.876
  0
VERTEX
  8
LAYER_1
 62
   250
 10
-4.6119
 20
2.8493
  0
VERTEX
  8
LAYER_1
 62
   250
 10
-4.5995
 20
2.8204
  0
VERTEX
  8
LAYER_1
 62
   250
 10
-4.5921
 20
2.789
  0
SEQEND
  8
LAYER_1
 62
   250
  0
POLYLINE
  8
LAYER_1
 62
   250
 66
     1
 70
     1
  0
VERTEX
  8
LAYER_1
 62
   250
 10
-4.8679
 20
-0.1687
  0
VERTEX
  8
LAYER_1
 62
   250
 10
-4.8676
 20
-0.1884
  0
VERTEX
  8
LAYER_1
 62
   250
 10
-4.8654
 20
-0.2136
  0
VERTEX
  8
LAYER_1
 62
   250
 10
-4.8615
 20
-0.2448
  0
VERTEX
  8
LAYER_1
 62
   250
 10
-4.8557
 20
-0.282
  0
VERTEX
  8
LAYER_1
 62
   250
 10
-4.8484
 20
-0.3257
  0
VERTEX
  8
LAYER_1
 62
   250
 10
-4.8394
 20
-0.3761
  0
VERTEX
  8
LAYER_1
 62
   250
 10
-4.829
 20
-0.4335
  0
VERTEX
  8
LAYER_1
 62
   250
 10
-4.8172
 20
-0.4983
  0
VERTEX
  8
LAYER_1
 62
   250
 10
-4.7931
 20
-0.487
  0
VERTEX
  8
LAYER_1
 62
   250
 10
-4.7689
 20
-0.4757
  0
VERTEX
  8
LAYER_1
 62
   250
 10
-4.7448
 20
-0.4645
  0
VERTEX
  8
LAYER_1
 62
   250
 10
-4.7208
 20
-0.4532
  0
VERTEX
  8
LAYER_1
 62
   250
 10
-4.6967
 20
-0.4419
  0
VERTEX
  8
LAYER_1
 62
   250
 10
-4.6726
 20
-0.4306
  0
VERTEX
  8
LAYER_1
 62
   250
 10
-4.6484
 20
-0.4194
  0
VERTEX
  8
LAYER_1
 62
   250
 10
-4.6244
 20
-0.4081
  0
VERTEX
  8
LAYER_1
 62
   250
 10
-4.5288
 20
-0.3611
  0
VERTEX
  8
LAYER_1
 62
   250
 10
-4.4436
 20
-0.3151
  0
VERTEX
  8
LAYER_1
 62
   250
 10
-4.3664
 20
-0.2694
  0
VERTEX
  8
LAYER_1
 62
   250
 10
-4.2945
 20
-0.224
  0
VERTEX
  8
LAYER_1
 62
   250
 10
-4.2257
 20
-0.1783
  0
VERTEX
  8
LAYER_1
 62
   250
 10
-4.1573
 20
-0.1317
  0
VERTEX
  8
LAYER_1
 62
   250
 10
-4.0871
 20
-0.0842
  0
VERTEX
  8
LAYER_1
 62
   250
 10
-4.0124
 20
-0.0352
  0
VERTEX
  8
LAYER_1
 62
   250
 10
-3.9362
 20
0.0155
  0
VERTEX
  8
LAYER_1
 62
   250
 10
-3.8626
 20
0.0677
  0
VERTEX
  8
LAYER_1
 62
   250
 10
-3.7918
 20
0.1215
  0
VERTEX
  8
LAYER_1
 62
   250
 10
-3.7238
 20
0.177
  0
VERTEX
  8
LAYER_1
 62
   250
 10
-3.6585
 20
0.234
  0
VERTEX
  8
LAYER_1
 62
   250
 10
-3.596
 20
0.2926
  0
VERTEX
  8
LAYER_1
 62
   250
 10
-3.5362
 20
0.3528
  0
VERTEX
  8
LAYER_1
 62
   250
 10
-3.4791
 20
0.4147
  0
VERTEX
  8
LAYER_1
 62
   250
 10
-3.4251
 20
0.4786
  0
VERTEX
  8
LAYER_1
 62
   250
 10
-3.3739
 20
0.5451
  0
VERTEX
  8
LAYER_1
 62
   250
 10
-3.326
 20
0.6142
  0
VERTEX
  8
LAYER_1
 62
   250
 10
-3.2809
 20
0.6859
  0
VERTEX
  8
LAYER_1
 62
   250
 10
-3.2388
 20
0.7603
  0
VERTEX
  8
LAYER_1
 62
   250
 10
-3.2
 20
0.8372
  0
VERTEX
  8
LAYER_1
 62
   250
 10
-3.1641
 20
0.9168
  0
VERTEX
  8
LAYER_1
 62
   250
 10
-3.1313
 20
0.999
  0
VERTEX
  8
LAYER_1
 62
   250
 10
-3.1019
 20
1.0848
  0
VERTEX
  8
LAYER_1
 62
   250
 10
-3.0759
 20
1.1757
  0
VERTEX
  8
LAYER_1
 62
   250
 10
-3.0537
 20
1.2715
  0
VERTEX
  8
LAYER_1
 62
   250
 10
-3.0351
 20
1.3723
  0
VERTEX
  8
LAYER_1
 62
   250
 10
-3.0204
 20
1.4779
  0
VERTEX
  8
LAYER_1
 62
   250
 10
-3.0096
 20
1.5885
  0
VERTEX
  8
LAYER_1
 62
   250
 10
-3.002
 20
1.704
  0
VERTEX
  8
LAYER_1
 62
   250
 10
-2.9968
 20
1.8244
  0
VERTEX
  8
LAYER_1
 62
   250
 10
-2.9963
 20
1.8668
  0
VERTEX
  8
LAYER_1
 62
   250
 10
-2.9973
 20
1.9106
  0
VERTEX
  8
LAYER_1
 62
   250
 10
-3.0001
 20
1.9556
  0
VERTEX
  8
LAYER_1
 62
   250
 10
-3.0047
 20
2.0018
  0
VERTEX
  8
LAYER_1
 62
   250
 10
-3.0111
 20
2.0494
  0
VERTEX
  8
LAYER_1
 62
   250
 10
-3.0198
 20
2.0984
  0
VERTEX
  8
LAYER_1
 62
   250
 10
-3.0304
 20
2.1485
  0
VERTEX
  8
LAYER_1
 62
   250
 10
-3.0432
 20
2.2
  0
VERTEX
  8
LAYER_1
 62
   250
 10
-3.0578
 20
2.2513
  0
VERTEX
  8
LAYER_1
 62
   250
 10
-3.0739
 20
2.3006
  0
VERTEX
  8
LAYER_1
 62
   250
 10
-3.0914
 20
2.3482
  0
VERTEX
  8
LAYER_1
 62
   250
 10
-3.1104
 20
2.3937
  0
VERTEX
  8
LAYER_1
 62
   250
 10
-3.1309
 20
2.4373
  0
VERTEX
  8
LAYER_1
 62
   250
 10
-3.153
 20
2.4791
  0
VERTEX
  8
LAYER_1
 62
   250
 10
-3.1763
 20
2.519
  0
VERTEX
  8
LAYER_1
 62
   250
 10
-3.2009
 20
2.5571
  0
VERTEX
  8
LAYER_1
 62
   250
 10
-3.2339
 20
2.6042
  0
VERTEX
  8
LAYER_1
 62
   250
 10
-3.2677
 20
2.6483
  0
VERTEX
  8
LAYER_1
 62
   250
 10
-3.3024
 20
2.6894
  0
VERTEX
  8
LAYER_1
 62
   250
 10
-3.3378
 20
2.7274
  0
VERTEX
  8
LAYER_1
 62
   250
 10
-3.3742
 20
2.7624
  0
VERTEX
  8
LAYER_1
 62
   250
 10
-3.4114
 20
2.7945
  0
VERTEX
  8
LAYER_1
 62
   250
 10
-3.4494
 20
2.8234
  0
VERTEX
  8
LAYER_1
 62
   250
 10
-3.4884
 20
2.8493
  0
VERTEX
  8
LAYER_1
 62
   250
 10
-3.5282
 20
2.8725
  0
VERTEX
  8
LAYER_1
 62
   250
 10
-3.5687
 20
2.8934
  0
VERTEX
  8
LAYER_1
 62
   250
 10
-3.6099
 20
2.9119
  0
VERTEX
  8
LAYER_1
 62
   250
 10
-3.6519
 20
2.9281
  0
VERTEX
  8
LAYER_1
 62
   250
 10
-3.6945
 20
2.942
  0
VERTEX
  8
LAYER_1
 62
   250
 10
-3.7379
 20
2.9536
  0
VERTEX
  8
LAYER_1
 62
   250
 10
-3.7822
 20
2.9629
  0
VERTEX
  8
LAYER_1
 62
   250
 10
-3.8269
 20
2.9699
  0
VERTEX
  8
LAYER_1
 62
   250
 10
-3.8724
 20
2.9746
  0
VERTEX
  8
LAYER_1
 62
   250
 10
-3.9182
 20
2.9773
  0
VERTEX
  8
LAYER_1
 62
   250
 10
-3.9645
 20
2.9781
  0
VERTEX
  8
LAYER_1
 62
   250
 10
-4.0112
 20
2.9768
  0
VERTEX
  8
LAYER_1
 62
   250
 10
-4.0584
 20
2.9735
  0
VERTEX
  8
LAYER_1
 62
   250
 10
-4.106
 20
2.9682
  0
VERTEX
  8
LAYER_1
 62
   250
 10
-4.1541
 20
2.9608
  0
VERTEX
  8
LAYER_1
 62
   250
 10
-4.2026
 20
2.9513
  0
VERTEX
  8
LAYER_1
 62
   250
 10
-4.2511
 20
2.9403
  0
VERTEX
  8
LAYER_1
 62
   250
 10
-4.2993
 20
2.9278
  0
VERTEX
  8
LAYER_1
 62
   250
 10
-4.3473
 20
2.9142
  0
VERTEX
  8
LAYER_1
 62
   250
 10
-4.395
 20
2.8991
  0
VERTEX
  8
LAYER_1
 62
   250
 10
-4.4422
 20
2.8828
  0
VERTEX
  8
LAYER_1
 62
   250
 10
-4.4893
 20
2.8649
  0
VERTEX
  8
LAYER_1
 62
   250
 10
-4.5361
 20
2.8459
  0
VERTEX
  8
LAYER_1
 62
   250
 10
-4.5828
 20
2.8261
  0
VERTEX
  8
LAYER_1
 62
   250
 10
-4.6097
 20
2.8132
  0
VERTEX
  8
LAYER_1
 62
   250
 10
-4.6354
 20
2.7982
  0
VERTEX
  8
LAYER_1
 62
   250
 10
-4.6596
 20
2.7811
  0
VERTEX
  8
LAYER_1
 62
   250
 10
-4.6824
 20
2.762
  0
VERTEX
  8
LAYER_1
 62
   250
 10
-4.7037
 20
2.7407
  0
VERTEX
  8
LAYER_1
 62
   250
 10
-4.7236
 20
2.7172
  0
VERTEX
  8
LAYER_1
 62
   250
 10
-4.742
 20
2.6917
  0
VERTEX
  8
LAYER_1
 62
   250
 10
-4.759
 20
2.6638
  0
VERTEX
  8
LAYER_1
 62
   250
 10
-4.7754
 20
2.635
  0
VERTEX
  8
LAYER_1
 62
   250
 10
-4.792
 20
2.6066
  0
VERTEX
  8
LAYER_1
 62
   250
 10
-4.809
 20
2.5787
  0
VERTEX
  8
LAYER_1
 62
   250
 10
-4.8263
 20
2.5513
  0
VERTEX
  8
LAYER_1
 62
   250
 10
-4.8436
 20
2.5241
  0
VERTEX
  8
LAYER_1
 62
   250
 10
-4.8609
 20
2.4972
  0
VERTEX
  8
LAYER_1
 62
   250
 10
-4.8789
 20
2.4709
  0
VERTEX
  8
LAYER_1
 62
   250
 10
-4.8982
 20
2.4458
  0
VERTEX
  8
LAYER_1
 62
   250
 10
-4.9136
 20
2.4257
  0
VERTEX
  8
LAYER_1
 62
   250
 10
-4.9287
 20
2.4038
  0
VERTEX
  8
LAYER_1
 62
   250
 10
-4.9435
 20
2.3797
  0
VERTEX
  8
LAYER_1
 62
   250
 10
-4.9578
 20
2.3537
  0
VERTEX
  8
LAYER_1
 62
   250
 10
-4.9716
 20
2.3256
  0
VERTEX
  8
LAYER_1
 62
   250
 10
-4.9849
 20
2.2953
  0
VERTEX
  8
LAYER_1
 62
   250
 10
-4.9975
 20
2.2627
  0
VERTEX
  8
LAYER_1
 62
   250
 10
-5.0095
 20
2.2279
  0
VERTEX
  8
LAYER_1
 62
   250
 10
-5.0208
 20
2.1917
  0
VERTEX
  8
LAYER_1
 62
   250
 10
-5.0315
 20
2.1552
  0
VERTEX
  8
LAYER_1
 62
   250
 10
-5.0416
 20
2.1181
  0
VERTEX
  8
LAYER_1
 62
   250
 10
-5.0512
 20
2.0807
  0
VERTEX
  8
LAYER_1
 62
   250
 10
-5.0602
 20
2.0429
  0
VERTEX
  8
LAYER_1
 62
   250
 10
-5.0686
 20
2.0044
  0
VERTEX
  8
LAYER_1
 62
   250
 10
-5.0764
 20
1.9656
  0
VERTEX
  8
LAYER_1
 62
   250
 10
-5.0837
 20
1.9264
  0
VERTEX
  8
LAYER_1
 62
   250
 10
-5.0904
 20
1.8871
  0
VERTEX
  8
LAYER_1
 62
   250
 10
-5.097
 20
1.8481
  0
VERTEX
  8
LAYER_1
 62
   250
 10
-5.1032
 20
1.8094
  0
VERTEX
  8
LAYER_1
 62
   250
 10
-5.1091
 20
1.7711
  0
VERTEX
  8
LAYER_1
 62
   250
 10
-5.1147
 20
1.733
  0
VERTEX
  8
LAYER_1
 62
   250
 10
-5.1201
 20
1.6952
  0
VERTEX
  8
LAYER_1
 62
   250
 10
-5.1253
 20
1.6577
  0
VERTEX
  8
LAYER_1
 62
   250
 10
-5.13
 20
1.6204
  0
VERTEX
  8
LAYER_1
 62
   250
 10
-5.1345
 20
1.5841
  0
VERTEX
  8
LAYER_1
 62
   250
 10
-5.1387
 20
1.5497
  0
VERTEX
  8
LAYER_1
 62
   250
 10
-5.1426
 20
1.5168
  0
VERTEX
  8
LAYER_1
 62
   250
 10
-5.1462
 20
1.4859
  0
VERTEX
  8
LAYER_1
 62
   250
 10
-5.1495
 20
1.4566
  0
VERTEX
  8
LAYER_1
 62
   250
 10
-5.1526
 20
1.4291
  0
VERTEX
  8
LAYER_1
 62
   250
 10
-5.1554
 20
1.4033
  0
VERTEX
  8
LAYER_1
 62
   250
 10
-5.1578
 20
1.3792
  0
VERTEX
  8
LAYER_1
 62
   250
 10
-5.1662
 20
1.2796
  0
VERTEX
  8
LAYER_1
 62
   250
 10
-5.173
 20
1.1799
  0
VERTEX
  8
LAYER_1
 62
   250
 10
-5.1778
 20
1.0801
  0
VERTEX
  8
LAYER_1
 62
   250
 10
-5.1811
 20
0.9804
  0
VERTEX
  8
LAYER_1
 62
   250
 10
-5.1824
 20
0.8808
  0
VERTEX
  8
LAYER_1
 62
   250
 10
-5.1822
 20
0.7811
  0
VERTEX
  8
LAYER_1
 62
   250
 10
-5.1802
 20
0.6813
  0
VERTEX
  8
LAYER_1
 62
   250
 10
-5.1765
 20
0.5816
  0
VERTEX
  8
LAYER_1
 62
   250
 10
-5.1714
 20
0.482
  0
VERTEX
  8
LAYER_1
 62
   250
 10
-5.1654
 20
0.3823
  0
VERTEX
  8
LAYER_1
 62
   250
 10
-5.1586
 20
0.2826
  0
VERTEX
  8
LAYER_1
 62
   250
 10
-5.1509
 20
0.1828
  0
VERTEX
  8
LAYER_1
 62
   250
 10
-5.1421
 20
0.0832
  0
VERTEX
  8
LAYER_1
 62
   250
 10
-5.1321
 20
-0.0165
  0
VERTEX
  8
LAYER_1
 62
   250
 10
-5.1217
 20
-0.1162
  0
VERTEX
  8
LAYER_1
 62
   250
 10
-5.1115
 20
-0.2161
  0
VERTEX
  8
LAYER_1
 62
   250
 10
-5.1108
 20
-0.2251
  0
VERTEX
  8
LAYER_1
 62
   250
 10
-5.1102
 20
-0.234
  0
VERTEX
  8
LAYER_1
 62
   250
 10
-5.1099
 20
-0.2425
  0
VERTEX
  8
LAYER_1
 62
   250
 10
-5.1095
 20
-0.2508
  0
VERTEX
  8
LAYER_1
 62
   250
 10
-5.1091
 20
-0.2588
  0
VERTEX
  8
LAYER_1
 62
   250
 10
-5.1086
 20
-0.2665
  0
VERTEX
  8
LAYER_1
 62
   250
 10
-5.1079
 20
-0.2738
  0
VERTEX
  8
LAYER_1
 62
   250
 10
-5.1069
 20
-0.2809
  0
VERTEX
  8
LAYER_1
 62
   250
 10
-5.1057
 20
-0.288
  0
VERTEX
  8
LAYER_1
 62
   250
 10
-5.1043
 20
-0.2954
  0
VERTEX
  8
LAYER_1
 62
   250
 10
-5.1028
 20
-0.3031
  0
VERTEX
  8
LAYER_1
 62
   250
 10
-5.1011
 20
-0.3111
  0
VERTEX
  8
LAYER_1
 62
   250
 10
-5.0992
 20
-0.3194
  0
VERTEX
  8
LAYER_1
 62
   250
 10
-5.0974
 20
-0.3279
  0
VERTEX
  8
LAYER_1
 62
   250
 10
-5.0953
 20
-0.3368
  0
VERTEX
  8
LAYER_1
 62
   250
 10
-5.0929
 20
-0.3459
  0
VERTEX
  8
LAYER_1
 62
   250
 10
-5.1162
 20
-0.3574
  0
VERTEX
  8
LAYER_1
 62
   250
 10
-5.1394
 20
-0.3682
  0
VERTEX
  8
LAYER_1
 62
   250
 10
-5.1626
 20
-0.3787
  0
VERTEX
  8
LAYER_1
 62
   250
 10
-5.1857
 20
-0.3888
  0
VERTEX
  8
LAYER_1
 62
   250
 10
-5.2089
 20
-0.3984
  0
VERTEX
  8
LAYER_1
 62
   250
 10
-5.2321
 20
-0.4077
  0
VERTEX
  8
LAYER_1
 62
   250
 10
-5.2553
 20
-0.4165
  0
VERTEX
  8
LAYER_1
 62
   250
 10
-5.2784
 20
-0.4248
  0
VERTEX
  8
LAYER_1
 62
   250
 10
-5.3018
 20
-0.4325
  0
VERTEX
  8
LAYER_1
 62
   250
 10
-5.3254
 20
-0.4395
  0
VERTEX
  8
LAYER_1
 62
   250
 10
-5.3494
 20
-0.4458
  0
VERTEX
  8
LAYER_1
 62
   250
 10
-5.3735
 20
-0.4514
  0
VERTEX
  8
LAYER_1
 62
   250
 10
-5.398
 20
-0.4556
  0
VERTEX
  8
LAYER_1
 62
   250
 10
-5.4231
 20
-0.4588
  0
VERTEX
  8
LAYER_1
 62
   250
 10
-5.4482
 20
-0.4619
  0
VERTEX
  8
LAYER_1
 62
   250
 10
-5.4732
 20
-0.4664
  0
VERTEX
  8
LAYER_1
 62
   250
 10
-5.4871
 20
-0.4704
  0
VERTEX
  8
LAYER_1
 62
   250
 10
-5.5006
 20
-0.4761
  0
VERTEX
  8
LAYER_1
 62
   250
 10
-5.5134
 20
-0.4832
  0
VERTEX
  8
LAYER_1
 62
   250
 10
-5.5258
 20
-0.4915
  0
VERTEX
  8
LAYER_1
 62
   250
 10
-5.5375
 20
-0.5012
  0
VERTEX
  8
LAYER_1
 62
   250
 10
-5.549
 20
-0.512
  0
VERTEX
  8
LAYER_1
 62
   250
 10
-5.56
 20
-0.5236
  0
VERTEX
  8
LAYER_1
 62
   250
 10
-5.5706
 20
-0.536
  0
VERTEX
  8
LAYER_1
 62
   250
 10
-5.5806
 20
-0.5489
  0
VERTEX
  8
LAYER_1
 62
   250
 10
-5.5897
 20
-0.5618
  0
VERTEX
  8
LAYER_1
 62
   250
 10
-5.5979
 20
-0.575
  0
VERTEX
  8
LAYER_1
 62
   250
 10
-5.6053
 20
-0.5882
  0
VERTEX
  8
LAYER_1
 62
   250
 10
-5.6119
 20
-0.6016
  0
VERTEX
  8
LAYER_1
 62
   250
 10
-5.6176
 20
-0.6152
  0
VERTEX
  8
LAYER_1
 62
   250
 10
-5.6223
 20
-0.629
  0
VERTEX
  8
LAYER_1
 62
   250
 10
-5.6263
 20
-0.6427
  0
VERTEX
  8
LAYER_1
 62
   250
 10
-5.6291
 20
-0.6565
  0
VERTEX
  8
LAYER_1
 62
   250
 10
-5.6308
 20
-0.6702
  0
VERTEX
  8
LAYER_1
 62
   250
 10
-5.6314
 20
-0.6838
  0
VERTEX
  8
LAYER_1
 62
   250
 10
-5.6309
 20
-0.6971
  0
VERTEX
  8
LAYER_1
 62
   250
 10
-5.6292
 20
-0.7103
  0
VERTEX
  8
LAYER_1
 62
   250
 10
-5.6263
 20
-0.7235
  0
VERTEX
  8
LAYER_1
 62
   250
 10
-5.6222
 20
-0.7364
  0
VERTEX
  8
LAYER_1
 62
   250
 10
-5.617
 20
-0.7493
  0
VERTEX
  8
LAYER_1
 62
   250
 10
-5.6103
 20
-0.7614
  0
VERTEX
  8
LAYER_1
 62
   250
 10
-5.6016
 20
-0.7722
  0
VERTEX
  8
LAYER_1
 62
   250
 10
-5.5912
 20
-0.7817
  0
VERTEX
  8
LAYER_1
 62
   250
 10
-5.5788
 20
-0.7899
  0
VERTEX
  8
LAYER_1
 62
   250
 10
-5.5645
 20
-0.7973
  0
VERTEX
  8
LAYER_1
 62
   250
 10
-5.5483
 20
-0.8038
  0
VERTEX
  8
LAYER_1
 62
   250
 10
-5.5303
 20
-0.8082
  0
VERTEX
  8
LAYER_1
 62
   250
 10
-5.5103
 20
-0.8096
  0
VERTEX
  8
LAYER_1
 62
   250
 10
-5.4782
 20
-0.808
  0
VERTEX
  8
LAYER_1
 62
   250
 10
-5.4468
 20
-0.8049
  0
VERTEX
  8
LAYER_1
 62
   250
 10
-5.4162
 20
-0.8005
  0
VERTEX
  8
LAYER_1
 62
   250
 10
-5.3863
 20
-0.7948
  0
VERTEX
  8
LAYER_1
 62
   250
 10
-5.3572
 20
-0.7882
  0
VERTEX
  8
LAYER_1
 62
   250
 10
-5.3287
 20
-0.7806
  0
VERTEX
  8
LAYER_1
 62
   250
 10
-5.3009
 20
-0.7723
  0
VERTEX
  8
LAYER_1
 62
   250
 10
-5.2738
 20
-0.7633
  0
VERTEX
  8
LAYER_1
 62
   250
 10
-5.2473
 20
-0.7537
  0
VERTEX
  8
LAYER_1
 62
   250
 10
-5.2209
 20
-0.7435
  0
VERTEX
  8
LAYER_1
 62
   250
 10
-5.1946
 20
-0.7328
  0
VERTEX
  8
LAYER_1
 62
   250
 10
-5.1684
 20
-0.7215
  0
VERTEX
  8
LAYER_1
 62
   250
 10
-5.1424
 20
-0.7096
  0
VERTEX
  8
LAYER_1
 62
   250
 10
-5.1165
 20
-0.6972
  0
VERTEX
  8
LAYER_1
 62
   250
 10
-5.0908
 20
-0.6842
  0
VERTEX
  8
LAYER_1
 62
   250
 10
-5.0651
 20
-0.6705
  0
VERTEX
  8
LAYER_1
 62
   250
 10
-5.0529
 20
-0.7588
  0
VERTEX
  8
LAYER_1
 62
   250
 10
-5.0396
 20
-0.8473
  0
VERTEX
  8
LAYER_1
 62
   250
 10
-5.0251
 20
-0.9361
  0
VERTEX
  8
LAYER_1
 62
   250
 10
-5.0094
 20
-1.0252
  0
VERTEX
  8
LAYER_1
 62
   250
 10
-4.9926
 20
-1.1146
  0
VERTEX
  8
LAYER_1
 62
   250
 10
-4.9747
 20
-1.2043
  0
VERTEX
  8
LAYER_1
 62
   250
 10
-4.9555
 20
-1.2943
  0
VERTEX
  8
LAYER_1
 62
   250
 10
-4.9353
 20
-1.3846
  0
VERTEX
  8
LAYER_1
 62
   250
 10
-4.9141
 20
-1.4736
  0
VERTEX
  8
LAYER_1
 62
   250
 10
-4.8921
 20
-1.5599
  0
VERTEX
  8
LAYER_1
 62
   250
 10
-4.8685
 20
-1.6439
  0
VERTEX
  8
LAYER_1
 62
   250
 10
-4.8427
 20
-1.7259
  0
VERTEX
  8
LAYER_1
 62
   250
 10
-4.8145
 20
-1.8061
  0
VERTEX
  8
LAYER_1
 62
   250
 10
-4.783
 20
-1.8847
  0
VERTEX
  8
LAYER_1
 62
   250
 10
-4.7477
 20
-1.9623
  0
VERTEX
  8
LAYER_1
 62
   250
 10
-4.708
 20
-2.039
  0
VERTEX
  8
LAYER_1
 62
   250
 10
-4.6746
 20
-2.0927
  0
VERTEX
  8
LAYER_1
 62
   250
 10
-4.6363
 20
-2.1408
  0
VERTEX
  8
LAYER_1
 62
   250
 10
-4.5937
 20
-2.1807
  0
VERTEX
  8
LAYER_1
 62
   250
 10
-4.5476
 20
-2.2099
  0
VERTEX
  8
LAYER_1
 62
   250
 10
-4.4987
 20
-2.2261
  0
VERTEX
  8
LAYER_1
 62
   250
 10
-4.4476
 20
-2.2271
  0
VERTEX
  8
LAYER_1
 62
   250
 10
-4.3951
 20
-2.2103
  0
VERTEX
  8
LAYER_1
 62
   250
 10
-4.3417
 20
-2.173
  0
VERTEX
  8
LAYER_1
 62
   250
 10
-4.3276
 20
-2.1444
  0
VERTEX
  8
LAYER_1
 62
   250
 10
-4.313
 20
-2.1142
  0
VERTEX
  8
LAYER_1
 62
   250
 10
-4.2981
 20
-2.0825
  0
VERTEX
  8
LAYER_1
 62
   250
 10
-4.2826
 20
-2.049
  0
VERTEX
  8
LAYER_1
 62
   250
 10
-4.2667
 20
-2.014
  0
VERTEX
  8
LAYER_1
 62
   250
 10
-4.2505
 20
-1.9774
  0
VERTEX
  8
LAYER_1
 62
   250
 10
-4.2338
 20
-1.9392
  0
VERTEX
  8
LAYER_1
 62
   250
 10
-4.2165
 20
-1.8994
  0
VERTEX
  8
LAYER_1
 62
   250
 10
-4.1989
 20
-1.859
  0
VERTEX
  8
LAYER_1
 62
   250
 10
-4.1806
 20
-1.8189
  0
VERTEX
  8
LAYER_1
 62
   250
 10
-4.1617
 20
-1.7791
  0
VERTEX
  8
LAYER_1
 62
   250
 10
-4.1423
 20
-1.7395
  0
VERTEX
  8
LAYER_1
 62
   250
 10
-4.1223
 20
-1.7002
  0
VERTEX
  8
LAYER_1
 62
   250
 10
-4.1017
 20
-1.6612
  0
VERTEX
  8
LAYER_1
 62
   250
 10
-4.0806
 20
-1.6225
  0
VERTEX
  8
LAYER_1
 62
   250
 10
-4.0588
 20
-1.5841
  0
VERTEX
  8
LAYER_1
 62
   250
 10
-4.0364
 20
-1.5463
  0
VERTEX
  8
LAYER_1
 62
   250
 10
-4.0134
 20
-1.5096
  0
VERTEX
  8
LAYER_1
 62
   250
 10
-3.9895
 20
-1.4739
  0
VERTEX
  8
LAYER_1
 62
   250
 10
-3.965
 20
-1.4392
  0
VERTEX
  8
LAYER_1
 62
   250
 10
-3.9398
 20
-1.4055
  0
VERTEX
  8
LAYER_1
 62
   250
 10
-3.9137
 20
-1.3728
  0
VERTEX
  8
LAYER_1
 62
   250
 10
-3.8869
 20
-1.3411
  0
VERTEX
  8
LAYER_1
 62
   250
 10
-3.8594
 20
-1.3105
  0
VERTEX
  8
LAYER_1
 62
   250
 10
-3.8314
 20
-1.282
  0
VERTEX
  8
LAYER_1
 62
   250
 10
-3.8026
 20
-1.2566
  0
VERTEX
  8
LAYER_1
 62
   250
 10
-3.7734
 20
-1.2344
  0
VERTEX
  8
LAYER_1
 62
   250
 10
-3.7435
 20
-1.2154
  0
VERTEX
  8
LAYER_1
 62
   250
 10
-3.7131
 20
-1.1997
  0
VERTEX
  8
LAYER_1
 62
   250
 10
-3.6821
 20
-1.1871
  0
VERTEX
  8
LAYER_1
 62
   250
 10
-3.6505
 20
-1.1776
  0
VERTEX
  8
LAYER_1
 62
   250
 10
-3.6183
 20
-1.1713
  0
VERTEX
  8
LAYER_1
 62
   250
 10
-3.6146
 20
-1.2113
  0
VERTEX
  8
LAYER_1
 62
   250
 10
-3.6128
 20
-1.2566
  0
VERTEX
  8
LAYER_1
 62
   250
 10
-3.6129
 20
-1.3076
  0
VERTEX
  8
LAYER_1
 62
   250
 10
-3.6148
 20
-1.3638
  0
VERTEX
  8
LAYER_1
 62
   250
 10
-3.6186
 20
-1.4257
  0
VERTEX
  8
LAYER_1
 62
   250
 10
-3.6243
 20
-1.4931
  0
VERTEX
  8
LAYER_1
 62
   250
 10
-3.632
 20
-1.5661
  0
VERTEX
  8
LAYER_1
 62
   250
 10
-3.6414
 20
-1.6444
  0
VERTEX
  8
LAYER_1
 62
   250
 10
-3.6515
 20
-1.7259
  0
VERTEX
  8
LAYER_1
 62
   250
 10
-3.6609
 20
-1.8081
  0
VERTEX
  8
LAYER_1
 62
   250
 10
-3.6695
 20
-1.891
  0
VERTEX
  8
LAYER_1
 62
   250
 10
-3.6773
 20
-1.9747
  0
VERTEX
  8
LAYER_1
 62
   250
 10
-3.6845
 20
-2.0592
  0
VERTEX
  8
LAYER_1
 62
   250
 10
-3.691
 20
-2.1443
  0
VERTEX
  8
LAYER_1
 62
   250
 10
-3.6967
 20
-2.2303
  0
VERTEX
  8
LAYER_1
 62
   250
 10
-3.7017
 20
-2.3168
  0
VERTEX
  8
LAYER_1
 62
   250
 10
-3.7053
 20
-2.403
  0
VERTEX
  8
LAYER_1
 62
   250
 10
-3.7067
 20
-2.4878
  0
VERTEX
  8
LAYER_1
 62
   250
 10
-3.7059
 20
-2.5711
  0
VERTEX
  8
LAYER_1
 62
   250
 10
-3.7029
 20
-2.653
  0
VERTEX
  8
LAYER_1
 62
   250
 10
-3.6978
 20
-2.7334
  0
VERTEX
  8
LAYER_1
 62
   250
 10
-3.6904
 20
-2.8124
  0
VERTEX
  8
LAYER_1
 62
   250
 10
-3.6809
 20
-2.8899
  0
VERTEX
  8
LAYER_1
 62
   250
 10
-3.6692
 20
-2.966
  0
VERTEX
  8
LAYER_1
 62
   250
 10
-3.6541
 20
-3.0381
  0
VERTEX
  8
LAYER_1
 62
   250
 10
-3.6342
 20
-3.1037
  0
VERTEX
  8
LAYER_1
 62
   250
 10
-3.6096
 20
-3.1628
  0
VERTEX
  8
LAYER_1
 62
   250
 10
-3.58
 20
-3.2152
  0
VERTEX
  8
LAYER_1
 62
   250
 10
-3.5457
 20
-3.2613
  0
VERTEX
  8
LAYER_1
 62
   250
 10
-3.5067
 20
-3.3008
  0
VERTEX
  8
LAYER_1
 62
   250
 10
-3.4628
 20
-3.3338
  0
VERTEX
  8
LAYER_1
 62
   250
 10
-3.4142
 20
-3.3602
  0
VERTEX
  8
LAYER_1
 62
   250
 10
-3.3392
 20
-3.3915
  0
VERTEX
  8
LAYER_1
 62
   250
 10
-3.2673
 20
-3.4161
  0
VERTEX
  8
LAYER_1
 62
   250
 10
-3.1983
 20
-3.4338
  0
VERTEX
  8
LAYER_1
 62
   250
 10
-3.1325
 20
-3.4448
  0
VERTEX
  8
LAYER_1
 62
   250
 10
-3.0697
 20
-3.449
  0
VERTEX
  8
LAYER_1
 62
   250
 10
-3.0099
 20
-3.4463
  0
VERTEX
  8
LAYER_1
 62
   250
 10
-2.9532
 20
-3.4368
  0
VERTEX
  8
LAYER_1
 62
   250
 10
-2.8995
 20
-3.4205
  0
VERTEX
  8
LAYER_1
 62
   250
 10
-2.849
 20
-3.3995
  0
VERTEX
  8
LAYER_1
 62
   250
 10
-2.8015
 20
-3.3759
  0
VERTEX
  8
LAYER_1
 62
   250
 10
-2.7573
 20
-3.3497
  0
VERTEX
  8
LAYER_1
 62
   250
 10
-2.7163
 20
-3.3208
  0
VERTEX
  8
LAYER_1
 62
   250
 10
-2.6785
 20
-3.2895
  0
VERTEX
  8
LAYER_1
 62
   250
 10
-2.6439
 20
-3.2554
  0
VERTEX
  8
LAYER_1
 62
   250
 10
-2.6124
 20
-3.2186
  0
VERTEX
  8
LAYER_1
 62
   250
 10
-2.5841
 20
-3.1793
  0
VERTEX
  8
LAYER_1
 62
   250
 10
-2.5593
 20
-3.1385
  0
VERTEX
  8
LAYER_1
 62
   250
 10
-2.5378
 20
-3.0973
  0
VERTEX
  8
LAYER_1
 62
   250
 10
-2.5198
 20
-3.0557
  0
VERTEX
  8
LAYER_1
 62
   250
 10
-2.5053
 20
-3.0135
  0
VERTEX
  8
LAYER_1
 62
   250
 10
-2.4944
 20
-2.9711
  0
VERTEX
  8
LAYER_1
 62
   250
 10
-2.4868
 20
-2.9281
  0
VERTEX
  8
LAYER_1
 62
   250
 10
-2.4828
 20
-2.8847
  0
VERTEX
  8
LAYER_1
 62
   250
 10
-2.4821
 20
-2.8408
  0
VERTEX
  8
LAYER_1
 62
   250
 10
-2.4848
 20
-2.7986
  0
VERTEX
  8
LAYER_1
 62
   250
 10
-2.491
 20
-2.7602
  0
VERTEX
  8
LAYER_1
 62
   250
 10
-2.5006
 20
-2.7256
  0
VERTEX
  8
LAYER_1
 62
   250
 10
-2.5134
 20
-2.6948
  0
VERTEX
  8
LAYER_1
 62
   250
 10
-2.5295
 20
-2.6677
  0
VERTEX
  8
LAYER_1
 62
   250
 10
-2.549
 20
-2.6443
  0
VERTEX
  8
LAYER_1
 62
   250
 10
-2.5718
 20
-2.6247
  0
VERTEX
  8
LAYER_1
 62
   250
 10
-2.598
 20
-2.6089
  0
VERTEX
  8
LAYER_1
 62
   250
 10
-2.6162
 20
-2.6006
  0
VERTEX
  8
LAYER_1
 62
   250
 10
-2.634
 20
-2.5941
  0
VERTEX
  8
LAYER_1
 62
   250
 10
-2.6511
 20
-2.5896
  0
VERTEX
  8
LAYER_1
 62
   250
 10
-2.6675
 20
-2.5869
  0
VERTEX
  8
LAYER_1
 62
   250
 10
-2.6835
 20
-2.5861
  0
VERTEX
  8
LAYER_1
 62
   250
 10
-2.6988
 20
-2.5872
  0
VERTEX
  8
LAYER_1
 62
   250
 10
-2.7137
 20
-2.5902
  0
VERTEX
  8
LAYER_1
 62
   250
 10
-2.7279
 20
-2.595
  0
VERTEX
  8
LAYER_1
 62
   250
 10
-2.7415
 20
-2.6013
  0
VERTEX
  8
LAYER_1
 62
   250
 10
-2.7546
 20
-2.6087
  0
VERTEX
  8
LAYER_1
 62
   250
 10
-2.7671
 20
-2.617
  0
VERTEX
  8
LAYER_1
 62
   250
 10
-2.7789
 20
-2.6264
  0
VERTEX
  8
LAYER_1
 62
   250
 10
-2.7902
 20
-2.6367
  0
VERTEX
  8
LAYER_1
 62
   250
 10
-2.8009
 20
-2.6481
  0
VERTEX
  8
LAYER_1
 62
   250
 10
-2.8111
 20
-2.6605
  0
VERTEX
  8
LAYER_1
 62
   250
 10
-2.8206
 20
-2.6739
  0
VERTEX
  8
LAYER_1
 62
   250
 10
-2.8293
 20
-2.6879
  0
VERTEX
  8
LAYER_1
 62
   250
 10
-2.8368
 20
-2.7022
  0
VERTEX
  8
LAYER_1
 62
   250
 10
-2.8432
 20
-2.717
  0
VERTEX
  8
LAYER_1
 62
   250
 10
-2.8484
 20
-2.7318
  0
VERTEX
  8
LAYER_1
 62
   250
 10
-2.8525
 20
-2.747
  0
VERTEX
  8
LAYER_1
 62
   250
 10
-2.8554
 20
-2.7626
  0
VERTEX
  8
LAYER_1
 62
   250
 10
-2.8571
 20
-2.7785
  0
VERTEX
  8
LAYER_1
 62
   250
 10
-2.8577
 20
-2.7945
  0
VERTEX
  8
LAYER_1
 62
   250
 10
-2.8564
 20
-2.8177
  0
VERTEX
  8
LAYER_1
 62
   250
 10
-2.8532
 20
-2.8348
  0
VERTEX
  8
LAYER_1
 62
   250
 10
-2.8484
 20
-2.8474
  0
VERTEX
  8
LAYER_1
 62
   250
 10
-2.8426
 20
-2.857
  0
VERTEX
  8
LAYER_1
 62
   250
 10
-2.8364
 20
-2.865
  0
VERTEX
  8
LAYER_1
 62
   250
 10
-2.8303
 20
-2.873
  0
VERTEX
  8
LAYER_1
 62
   250
 10
-2.8249
 20
-2.8825
  0
VERTEX
  8
LAYER_1
 62
   250
 10
-2.8207
 20
-2.8949
  0
VERTEX
  8
LAYER_1
 62
   250
 10
-2.8192
 20
-2.9035
  0
VERTEX
  8
LAYER_1
 62
   250
 10
-2.8182
 20
-2.9137
  0
VERTEX
  8
LAYER_1
 62
   250
 10
-2.8178
 20
-2.9257
  0
VERTEX
  8
LAYER_1
 62
   250
 10
-2.8183
 20
-2.9397
  0
VERTEX
  8
LAYER_1
 62
   250
 10
-2.8196
 20
-2.9561
  0
VERTEX
  8
LAYER_1
 62
   250
 10
-2.822
 20
-2.9751
  0
VERTEX
  8
LAYER_1
 62
   250
 10
-2.8254
 20
-2.9969
  0
VERTEX
  8
LAYER_1
 62
   250
 10
-2.8299
 20
-3.0216
  0
VERTEX
  8
LAYER_1
 62
   250
 10
-2.8346
 20
-3.0405
  0
VERTEX
  8
LAYER_1
 62
   250
 10
-2.8415
 20
-3.0598
  0
VERTEX
  8
LAYER_1
 62
   250
 10
-2.8501
 20
-3.0787
  0
VERTEX
  8
LAYER_1
 62
   250
 10
-2.8602
 20
-3.0965
  0
VERTEX
  8
LAYER_1
 62
   250
 10
-2.8714
 20
-3.1128
  0
VERTEX
  8
LAYER_1
 62
   250
 10
-2.8833
 20
-3.1268
  0
VERTEX
  8
LAYER_1
 62
   250
 10
-2.8956
 20
-3.1378
  0
VERTEX
  8
LAYER_1
 62
   250
 10
-2.9078
 20
-3.1454
  0
VERTEX
  8
LAYER_1
 62
   250
 10
-2.9312
 20
-3.1553
  0
VERTEX
  8
LAYER_1
 62
   250
 10
-2.9544
 20
-3.1635
  0
VERTEX
  8
LAYER_1
 62
   250
 10
-2.9771
 20
-3.1699
  0
VERTEX
  8
LAYER_1
 62
   250
 10
-2.9999
 20
-3.1743
  0
VERTEX
  8
LAYER_1
 62
   250
 10
-3.0228
 20
-3.1764
  0
VERTEX
  8
LAYER_1
 62
   250
 10
-3.0462
 20
-3.1763
  0
VERTEX
  8
LAYER_1
 62
   250
 10
-3.0701
 20
-3.1737
  0
VERTEX
  8
LAYER_1
 62
   250
 10
-3.0947
 20
-3.1684
  0
VERTEX
  8
LAYER_1
 62
   250
 10
-3.1187
 20
-3.1619
  0
VERTEX
  8
LAYER_1
 62
   250
 10
-3.1426
 20
-3.1555
  0
VERTEX
  8
LAYER_1
 62
   250
 10
-3.1666
 20
-3.149
  0
VERTEX
  8
LAYER_1
 62
   250
 10
-3.1905
 20
-3.1425
  0
VERTEX
  8
LAYER_1
 62
   250
 10
-3.2145
 20
-3.136
  0
VERTEX
  8
LAYER_1
 62
   250
 10
-3.2385
 20
-3.1295
  0
VERTEX
  8
LAYER_1
 62
   250
 10
-3.2624
 20
-3.1231
  0
VERTEX
  8
LAYER_1
 62
   250
 10
-3.2864
 20
-3.1166
  0
VERTEX
  8
LAYER_1
 62
   250
 10
-3.3509
 20
-3.0866
  0
VERTEX
  8
LAYER_1
 62
   250
 10
-3.3989
 20
-3.0391
  0
VERTEX
  8
LAYER_1
 62
   250
 10
-3.4332
 20
-2.9782
  0
VERTEX
  8
LAYER_1
 62
   250
 10
-3.4566
 20
-2.9076
  0
VERTEX
  8
LAYER_1
 62
   250
 10
-3.4719
 20
-2.8315
  0
VERTEX
  8
LAYER_1
 62
   250
 10
-3.4819
 20
-2.7537
  0
VERTEX
  8
LAYER_1
 62
   250
 10
-3.4896
 20
-2.6782
  0
VERTEX
  8
LAYER_1
 62
   250
 10
-3.4977
 20
-2.6089
  0
VERTEX
  8
LAYER_1
 62
   250
 10
-3.506
 20
-2.544
  0
VERTEX
  8
LAYER_1
 62
   250
 10
-3.5124
 20
-2.4786
  0
VERTEX
  8
LAYER_1
 62
   250
 10
-3.5169
 20
-2.413
  0
VERTEX
  8
LAYER_1
 62
   250
 10
-3.5196
 20
-2.347
  0
VERTEX
  8
LAYER_1
 62
   250
 10
-3.5204
 20
-2.2807
  0
VERTEX
  8
LAYER_1
 62
   250
 10
-3.5194
 20
-2.2142
  0
VERTEX
  8
LAYER_1
 62
   250
 10
-3.5165
 20
-2.1474
  0
VERTEX
  8
LAYER_1
 62
   250
 10
-3.5116
 20
-2.0802
  0
VERTEX
  8
LAYER_1
 62
   250
 10
-3.5056
 20
-2.0129
  0
VERTEX
  8
LAYER_1
 62
   250
 10
-3.4989
 20
-1.9455
  0
VERTEX
  8
LAYER_1
 62
   250
 10
-3.4917
 20
-1.8779
  0
VERTEX
  8
LAYER_1
 62
   250
 10
-3.4838
 20
-1.8101
  0
VERTEX
  8
LAYER_1
 62
   250
 10
-3.4755
 20
-1.7424
  0
VERTEX
  8
LAYER_1
 62
   250
 10
-3.4665
 20
-1.6743
  0
VERTEX
  8
LAYER_1
 62
   250
 10
-3.4568
 20
-1.6061
  0
VERTEX
  8
LAYER_1
 62
   250
 10
-3.4467
 20
-1.5377
  0
VERTEX
  8
LAYER_1
 62
   250
 10
-3.4372
 20
-1.4694
  0
VERTEX
  8
LAYER_1
 62
   250
 10
-3.4296
 20
-1.4013
  0
VERTEX
  8
LAYER_1
 62
   250
 10
-3.4239
 20
-1.3332
  0
VERTEX
  8
LAYER_1
 62
   250
 10
-3.42
 20
-1.2653
  0
VERTEX
  8
LAYER_1
 62
   250
 10
-3.4172
 20
-1.1975
  0
VERTEX
  8
LAYER_1
 62
   250
 10
-3.4157
 20
-1.1296
  0
VERTEX
  8
LAYER_1
 62
   250
 10
-3.4173
 20
-1.0621
  0
VERTEX
  8
LAYER_1
 62
   250
 10
-3.4235
 20
-0.9951
  0
VERTEX
  8
LAYER_1
 62
   250
 10
-3.4274
 20
-0.9795
  0
VERTEX
  8
LAYER_1
 62
   250
 10
-3.4342
 20
-0.9662
  0
VERTEX
  8
LAYER_1
 62
   250
 10
-3.4439
 20
-0.955
  0
VERTEX
  8
LAYER_1
 62
   250
 10
-3.456
 20
-0.946
  0
VERTEX
  8
LAYER_1
 62
   250
 10
-3.4705
 20
-0.9386
  0
VERTEX
  8
LAYER_1
 62
   250
 10
-3.4871
 20
-0.9329
  0
VERTEX
  8
LAYER_1
 62
   250
 10
-3.5055
 20
-0.9298
  0
VERTEX
  8
LAYER_1
 62
   250
 10
-3.5255
 20
-0.9302
  0
VERTEX
  8
LAYER_1
 62
   250
 10
-3.6094
 20
-0.944
  0
VERTEX
  8
LAYER_1
 62
   250
 10
-3.6888
 20
-0.9647
  0
VERTEX
  8
LAYER_1
 62
   250
 10
-3.7642
 20
-0.9922
  0
VERTEX
  8
LAYER_1
 62
   250
 10
-3.8352
 20
-1.0263
  0
VERTEX
  8
LAYER_1
 62
   250
 10
-3.9021
 20
-1.067
  0
VERTEX
  8
LAYER_1
 62
   250
 10
-3.9647
 20
-1.1141
  0
VERTEX
  8
LAYER_1
 62
   250
 10
-4.0231
 20
-1.1675
  0
VERTEX
  8
LAYER_1
 62
   250
 10
-4.0774
 20
-1.227
  0
VERTEX
  8
LAYER_1
 62
   250
 10
-4.1288
 20
-1.2902
  0
VERTEX
  8
LAYER_1
 62
   250
 10
-4.1785
 20
-1.3546
  0
VERTEX
  8
LAYER_1
 62
   250
 10
-4.2268
 20
-1.4201
  0
VERTEX
  8
LAYER_1
 62
   250
 10
-4.2733
 20
-1.4867
  0
VERTEX
  8
LAYER_1
 62
   250
 10
-4.3182
 20
-1.5545
  0
VERTEX
  8
LAYER_1
 62
   250
 10
-4.3616
 20
-1.6235
  0
VERTEX
  8
LAYER_1
 62
   250
 10
-4.4035
 20
-1.6937
  0
VERTEX
  8
LAYER_1
 62
   250
 10
-4.4437
 20
-1.765
  0
VERTEX
  8
LAYER_1
 62
   250
 10
-4.4734
 20
-1.7056
  0
VERTEX
  8
LAYER_1
 62
   250
 10
-4.502
 20
-1.6432
  0
VERTEX
  8
LAYER_1
 62
   250
 10
-4.5296
 20
-1.5779
  0
VERTEX
  8
LAYER_1
 62
   250
 10
-4.5562
 20
-1.5098
  0
VERTEX
  8
LAYER_1
 62
   250
 10
-4.5817
 20
-1.4389
  0
VERTEX
  8
LAYER_1
 62
   250
 10
-4.6063
 20
-1.3649
  0
VERTEX
  8
LAYER_1
 62
   250
 10
-4.6298
 20
-1.2881
  0
VERTEX
  8
LAYER_1
 62
   250
 10
-4.6524
 20
-1.2084
  0
VERTEX
  8
LAYER_1
 62
   250
 10
-4.6744
 20
-1.1266
  0
VERTEX
  8
LAYER_1
 62
   250
 10
-4.6965
 20
-1.0434
  0
VERTEX
  8
LAYER_1
 62
   250
 10
-4.7182
 20
-0.9587
  0
VERTEX
  8
LAYER_1
 62
   250
 10
-4.7393
 20
-0.8727
  0
VERTEX
  8
LAYER_1
 62
   250
 10
-4.7598
 20
-0.7851
  0
VERTEX
  8
LAYER_1
 62
   250
 10
-4.7793
 20
-0.6959
  0
VERTEX
  8
LAYER_1
 62
   250
 10
-4.7977
 20
-0.6052
  0
VERTEX
  8
LAYER_1
 62
   250
 10
-4.8147
 20
-0.5129
  0
VERTEX
  8
LAYER_1
 62
   250
 10
-4.8344
 20
-0.3934
  0
VERTEX
  8
LAYER_1
 62
   250
 10
-4.8558
 20
-0.2524
  0
VERTEX
  8
LAYER_1
 62
   250
 10
-4.8778
 20
-0.0971
  0
VERTEX
  8
LAYER_1
 62
   250
 10
-4.8993
 20
0.0653
  0
VERTEX
  8
LAYER_1
 62
   250
 10
-4.9192
 20
0.2277
  0
VERTEX
  8
LAYER_1
 62
   250
 10
-4.9363
 20
0.3827
  0
VERTEX
  8
LAYER_1
 62
   250
 10
-4.9498
 20
0.5232
  0
VERTEX
  8
LAYER_1
 62
   250
 10
-4.9585
 20
0.6419
  0
VERTEX
  8
LAYER_1
 62
   250
 10
-4.9634
 20
0.7463
  0
VERTEX
  8
LAYER_1
 62
   250
 10
-4.9669
 20
0.8486
  0
VERTEX
  8
LAYER_1
 62
   250
 10
-4.9687
 20
0.9486
  0
VERTEX
  8
LAYER_1
 62
   250
 10
-4.9689
 20
1.0465
  0
VERTEX
  8
LAYER_1
 62
   250
 10
-4.9672
 20
1.1421
  0
VERTEX
  8
LAYER_1
 62
   250
 10
-4.9635
 20
1.2357
  0
VERTEX
  8
LAYER_1
 62
   250
 10
-4.9588
 20
1.3271
  0
VERTEX
  8
LAYER_1
 62
   250
 10
-4.9538
 20
1.4164
  0
VERTEX
  8
LAYER_1
 62
   250
 10
-4.9499
 20
1.4771
  0
VERTEX
  8
LAYER_1
 62
   250
 10
-4.9449
 20
1.5391
  0
VERTEX
  8
LAYER_1
 62
   250
 10
-4.9385
 20
1.6023
  0
VERTEX
  8
LAYER_1
 62
   250
 10
-4.9308
 20
1.6667
  0
VERTEX
  8
LAYER_1
 62
   250
 10
-4.9216
 20
1.7321
  0
VERTEX
  8
LAYER_1
 62
   250
 10
-4.9108
 20
1.7988
  0
VERTEX
  8
LAYER_1
 62
   250
 10
-4.8984
 20
1.8666
  0
VERTEX
  8
LAYER_1
 62
   250
 10
-4.8842
 20
1.9357
  0
VERTEX
  8
LAYER_1
 62
   250
 10
-4.8682
 20
2.0043
  0
VERTEX
  8
LAYER_1
 62
   250
 10
-4.85
 20
2.071
  0
VERTEX
  8
LAYER_1
 62
   250
 10
-4.8299
 20
2.1358
  0
VERTEX
  8
LAYER_1
 62
   250
 10
-4.8077
 20
2.1988
  0
VERTEX
  8
LAYER_1
 62
   250
 10
-4.7836
 20
2.2599
  0
VERTEX
  8
LAYER_1
 62
   250
 10
-4.7573
 20
2.3191
  0
VERTEX
  8
LAYER_1
 62
   250
 10
-4.7291
 20
2.3765
  0
VERTEX
  8
LAYER_1
 62
   250
 10
-4.6987
 20
2.4319
  0
VERTEX
  8
LAYER_1
 62
   250
 10
-4.6661
 20
2.4847
  0
VERTEX
  8
LAYER_1
 62
   250
 10
-4.6306
 20
2.5342
  0
VERTEX
  8
LAYER_1
 62
   250
 10
-4.5925
 20
2.5804
  0
VERTEX
  8
LAYER_1
 62
   250
 10
-4.5515
 20
2.6232
  0
VERTEX
  8
LAYER_1
 62
   250
 10
-4.5079
 20
2.6626
  0
VERTEX
  8
LAYER_1
 62
   250
 10
-4.4614
 20
2.6988
  0
VERTEX
  8
LAYER_1
 62
   250
 10
-4.4122
 20
2.7316
  0
VERTEX
  8
LAYER_1
 62
   250
 10
-4.3603
 20
2.7612
  0
VERTEX
  8
LAYER_1
 62
   250
 10
-4.3052
 20
2.7858
  0
VERTEX
  8
LAYER_1
 62
   250
 10
-4.2467
 20
2.8041
  0
VERTEX
  8
LAYER_1
 62
   250
 10
-4.1847
 20
2.816
  0
VERTEX
  8
LAYER_1
 62
   250
 10
-4.1191
 20
2.8215
  0
VERTEX
  8
LAYER_1
 62
   250
 10
-4.0502
 20
2.8205
  0
VERTEX
  8
LAYER_1
 62
   250
 10
-3.9777
 20
2.8133
  0
VERTEX
  8
LAYER_1
 62
   250
 10
-3.9018
 20
2.7997
  0
VERTEX
  8
LAYER_1
 62
   250
 10
-3.8223
 20
2.7797
  0
VERTEX
  8
LAYER_1
 62
   250
 10
-3.7593
 20
2.7594
  0
VERTEX
  8
LAYER_1
 62
   250
 10
-3.6998
 20
2.7354
  0
VERTEX
  8
LAYER_1
 62
   250
 10
-3.6439
 20
2.7079
  0
VERTEX
  8
LAYER_1
 62
   250
 10
-3.5916
 20
2.6766
  0
VERTEX
  8
LAYER_1
 62
   250
 10
-3.543
 20
2.6417
  0
VERTEX
  8
LAYER_1
 62
   250
 10
-3.498
 20
2.6033
  0
VERTEX
  8
LAYER_1
 62
   250
 10
-3.4566
 20
2.5612
  0
VERTEX
  8
LAYER_1
 62
   250
 10
-3.4188
 20
2.5154
  0
VERTEX
  8
LAYER_1
 62
   250
 10
-3.3844
 20
2.467
  0
VERTEX
  8
LAYER_1
 62
   250
 10
-3.3528
 20
2.4169
  0
VERTEX
  8
LAYER_1
 62
   250
 10
-3.3241
 20
2.3651
  0
VERTEX
  8
LAYER_1
 62
   250
 10
-3.2983
 20
2.3113
  0
VERTEX
  8
LAYER_1
 62
   250
 10
-3.2755
 20
2.256
  0
VERTEX
  8
LAYER_1
 62
   250
 10
-3.2554
 20
2.1989
  0
VERTEX
  8
LAYER_1
 62
   250
 10
-3.2383
 20
2.1401
  0
VERTEX
  8
LAYER_1
 62
   250
 10
-3.2241
 20
2.0795
  0
VERTEX
  8
LAYER_1
 62
   250
 10
-3.2127
 20
2.0178
  0
VERTEX
  8
LAYER_1
 62
   250
 10
-3.2036
 20
1.9555
  0
VERTEX
  8
LAYER_1
 62
   250
 10
-3.197
 20
1.8927
  0
VERTEX
  8
LAYER_1
 62
   250
 10
-3.1928
 20
1.8291
  0
VERTEX
  8
LAYER_1
 62
   250
 10
-3.1911
 20
1.7651
  0
VERTEX
  8
LAYER_1
 62
   250
 10
-3.192
 20
1.7004
  0
VERTEX
  8
LAYER_1
 62
   250
 10
-3.1952
 20
1.6352
  0
VERTEX
  8
LAYER_1
 62
   250
 10
-3.2009
 20
1.5694
  0
VERTEX
  8
LAYER_1
 62
   250
 10
-3.2083
 20
1.5043
  0
VERTEX
  8
LAYER_1
 62
   250
 10
-3.2171
 20
1.441
  0
VERTEX
  8
LAYER_1
 62
   250
 10
-3.227
 20
1.3797
  0
VERTEX
  8
LAYER_1
 62
   250
 10
-3.2379
 20
1.3202
  0
VERTEX
  8
LAYER_1
 62
   250
 10
-3.2501
 20
1.2626
  0
VERTEX
  8
LAYER_1
 62
   250
 10
-3.2634
 20
1.2069
  0
VERTEX
  8
LAYER_1
 62
   250
 10
-3.2779
 20
1.1529
  0
VERTEX
  8
LAYER_1
 62
   250
 10
-3.2937
 20
1.101
  0
VERTEX
  8
LAYER_1
 62
   250
 10
-3.3158
 20
1.0372
  0
VERTEX
  8
LAYER_1
 62
   250
 10
-3.3405
 20
0.9756
  0
VERTEX
  8
LAYER_1
 62
   250
 10
-3.3679
 20
0.9161
  0
VERTEX
  8
LAYER_1
 62
   250
 10
-3.398
 20
0.8587
  0
VERTEX
  8
LAYER_1
 62
   250
 10
-3.4305
 20
0.8036
  0
VERTEX
  8
LAYER_1
 62
   250
 10
-3.4657
 20
0.7506
  0
VERTEX
  8
LAYER_1
 62
   250
 10
-3.5036
 20
0.6998
  0
VERTEX
  8
LAYER_1
 62
   250
 10
-3.544
 20
0.6512
  0
VERTEX
  8
LAYER_1
 62
   250
 10
-3.5863
 20
0.6044
  0
VERTEX
  8
LAYER_1
 62
   250
 10
-3.6298
 20
0.559
  0
VERTEX
  8
LAYER_1
 62
   250
 10
-3.6744
 20
0.5151
  0
VERTEX
  8
LAYER_1
 62
   250
 10
-3.7203
 20
0.4726
  0
VERTEX
  8
LAYER_1
 62
   250
 10
-3.7671
 20
0.4317
  0
VERTEX
  8
LAYER_1
 62
   250
 10
-3.8153
 20
0.3921
  0
VERTEX
  8
LAYER_1
 62
   250
 10
-3.8646
 20
0.3539
  0
VERTEX
  8
LAYER_1
 62
   250
 10
-3.915
 20
0.3173
  0
VERTEX
  8
LAYER_1
 62
   250
 10
-3.9665
 20
0.2817
  0
VERTEX
  8
LAYER_1
 62
   250
 10
-4.0191
 20
0.2471
  0
VERTEX
  8
LAYER_1
 62
   250
 10
-4.0726
 20
0.2133
  0
VERTEX
  8
LAYER_1
 62
   250
 10
-4.1272
 20
0.1804
  0
VERTEX
  8
LAYER_1
 62
   250
 10
-4.1829
 20
0.1484
  0
VERTEX
  8
LAYER_1
 62
   250
 10
-4.2394
 20
0.1172
  0
VERTEX
  8
LAYER_1
 62
   250
 10
-4.297
 20
0.0869
  0
VERTEX
  8
LAYER_1
 62
   250
 10
-4.3556
 20
0.0576
  0
VERTEX
  8
LAYER_1
 62
   250
 10
-4.4204
 20
0.027
  0
VERTEX
  8
LAYER_1
 62
   250
 10
-4.4845
 20
-0.0016
  0
VERTEX
  8
LAYER_1
 62
   250
 10
-4.5485
 20
-0.0288
  0
VERTEX
  8
LAYER_1
 62
   250
 10
-4.6122
 20
-0.0552
  0
VERTEX
  8
LAYER_1
 62
   250
 10
-4.6757
 20
-0.0817
  0
VERTEX
  8
LAYER_1
 62
   250
 10
-4.7394
 20
-0.109
  0
VERTEX
  8
LAYER_1
 62
   250
 10
-4.8034
 20
-0.1378
  0
VERTEX
  8
LAYER_1
 62
   250
 10
-4.8679
 20
-0.1687
  0
SEQEND
  8
LAYER_1
 62
   250
  0
POLYLINE
  8
LAYER_1
 62
   250
 66
     1
 70
     1
  0
VERTEX
  8
LAYER_1
 62
   250
 10
-2.5231
 20
-1.1173
  0
VERTEX
  8
LAYER_1
 62
   250
 10
-2.5406
 20
-1.151
  0
VERTEX
  8
LAYER_1
 62
   250
 10
-2.5568
 20
-1.1849
  0
VERTEX
  8
LAYER_1
 62
   250
 10
-2.5717
 20
-1.2193
  0
VERTEX
  8
LAYER_1
 62
   250
 10
-2.5854
 20
-1.254
  0
VERTEX
  8
LAYER_1
 62
   250
 10
-2.5977
 20
-1.2892
  0
VERTEX
  8
LAYER_1
 62
   250
 10
-2.6088
 20
-1.3249
  0
VERTEX
  8
LAYER_1
 62
   250
 10
-2.6185
 20
-1.3611
  0
VERTEX
  8
LAYER_1
 62
   250
 10
-2.6268
 20
-1.3978
  0
VERTEX
  8
LAYER_1
 62
   250
 10
-2.5632
 20
-1.3851
  0
VERTEX
  8
LAYER_1
 62
   250
 10
-2.502
 20
-1.3702
  0
VERTEX
  8
LAYER_1
 62
   250
 10
-2.4428
 20
-1.3527
  0
VERTEX
  8
LAYER_1
 62
   250
 10
-2.3851
 20
-1.3321
  0
VERTEX
  8
LAYER_1
 62
   250
 10
-2.3287
 20
-1.3082
  0
VERTEX
  8
LAYER_1
 62
   250
 10
-2.273
 20
-1.2806
  0
VERTEX
  8
LAYER_1
 62
   250
 10
-2.2176
 20
-1.249
  0
VERTEX
  8
LAYER_1
 62
   250
 10
-2.1622
 20
-1.2131
  0
VERTEX
  8
LAYER_1
 62
   250
 10
-2.1322
 20
-1.1919
  0
VERTEX
  8
LAYER_1
 62
   250
 10
-2.1039
 20
-1.1704
  0
VERTEX
  8
LAYER_1
 62
   250
 10
-2.0771
 20
-1.1485
  0
VERTEX
  8
LAYER_1
 62
   250
 10
-2.0519
 20
-1.1261
  0
VERTEX
  8
LAYER_1
 62
   250
 10
-2.0284
 20
-1.1032
  0
VERTEX
  8
LAYER_1
 62
   250
 10
-2.0066
 20
-1.0795
  0
VERTEX
  8
LAYER_1
 62
   250
 10
-1.9863
 20
-1.055
  0
VERTEX
  8
LAYER_1
 62
   250
 10
-1.9678
 20
-1.0297
  0
VERTEX
  8
LAYER_1
 62
   250
 10
-1.9542
 20
-1.0085
  0
VERTEX
  8
LAYER_1
 62
   250
 10
-1.9416
 20
-0.9865
  0
VERTEX
  8
LAYER_1
 62
   250
 10
-1.9301
 20
-0.9637
  0
VERTEX
  8
LAYER_1
 62
   250
 10
-1.9197
 20
-0.9401
  0
VERTEX
  8
LAYER_1
 62
   250
 10
-1.9105
 20
-0.9155
  0
VERTEX
  8
LAYER_1
 62
   250
 10
-1.9023
 20
-0.8902
  0
VERTEX
  8
LAYER_1
 62
   250
 10
-1.8953
 20
-0.8637
  0
VERTEX
  8
LAYER_1
 62
   250
 10
-1.8895
 20
-0.8361
  0
VERTEX
  8
LAYER_1
 62
   250
 10
-1.8879
 20
-0.8087
  0
VERTEX
  8
LAYER_1
 62
   250
 10
-1.8924
 20
-0.7829
  0
VERTEX
  8
LAYER_1
 62
   250
 10
-1.9023
 20
-0.7588
  0
VERTEX
  8
LAYER_1
 62
   250
 10
-1.9167
 20
-0.7365
  0
VERTEX
  8
LAYER_1
 62
   250
 10
-1.9345
 20
-0.7165
  0
VERTEX
  8
LAYER_1
 62
   250
 10
-1.9549
 20
-0.6989
  0
VERTEX
  8
LAYER_1
 62
   250
 10
-1.977
 20
-0.684
  0
VERTEX
  8
LAYER_1
 62
   250
 10
-1.9995
 20
-0.6719
  0
VERTEX
  8
LAYER_1
 62
   250
 10
-2.0167
 20
-0.6644
  0
VERTEX
  8
LAYER_1
 62
   250
 10
-2.0341
 20
-0.6579
  0
VERTEX
  8
LAYER_1
 62
   250
 10
-2.0516
 20
-0.6522
  0
VERTEX
  8
LAYER_1
 62
   250
 10
-2.069
 20
-0.6476
  0
VERTEX
  8
LAYER_1
 62
   250
 10
-2.0865
 20
-0.6439
  0
VERTEX
  8
LAYER_1
 62
   250
 10
-2.104
 20
-0.6411
  0
VERTEX
  8
LAYER_1
 62
   250
 10
-2.1215
 20
-0.6391
  0
VERTEX
  8
LAYER_1
 62
   250
 10
-2.139
 20
-0.6381
  0
VERTEX
  8
LAYER_1
 62
   250
 10
-2.1701
 20
-0.6381
  0
VERTEX
  8
LAYER_1
 62
   250
 10
-2.2009
 20
-0.6399
  0
VERTEX
  8
LAYER_1
 62
   250
 10
-2.2315
 20
-0.6437
  0
VERTEX
  8
LAYER_1
 62
   250
 10
-2.2618
 20
-0.6497
  0
VERTEX
  8
LAYER_1
 62
   250
 10
-2.2919
 20
-0.6576
  0
VERTEX
  8
LAYER_1
 62
   250
 10
-2.3216
 20
-0.6676
  0
VERTEX
  8
LAYER_1
 62
   250
 10
-2.351
 20
-0.6796
  0
VERTEX
  8
LAYER_1
 62
   250
 10
-2.3801
 20
-0.6937
  0
VERTEX
  8
LAYER_1
 62
   250
 10
-2.4088
 20
-0.7095
  0
VERTEX
  8
LAYER_1
 62
   250
 10
-2.4369
 20
-0.727
  0
VERTEX
  8
LAYER_1
 62
   250
 10
-2.4645
 20
-0.7461
  0
VERTEX
  8
LAYER_1
 62
   250
 10
-2.4914
 20
-0.7667
  0
VERTEX
  8
LAYER_1
 62
   250
 10
-2.5178
 20
-0.7889
  0
VERTEX
  8
LAYER_1
 62
   250
 10
-2.5436
 20
-0.8128
  0
VERTEX
  8
LAYER_1
 62
   250
 10
-2.5688
 20
-0.8382
  0
VERTEX
  8
LAYER_1
 62
   250
 10
-2.5935
 20
-0.8653
  0
VERTEX
  8
LAYER_1
 62
   250
 10
-2.6173
 20
-0.8934
  0
VERTEX
  8
LAYER_1
 62
   250
 10
-2.6402
 20
-0.9221
  0
VERTEX
  8
LAYER_1
 62
   250
 10
-2.6619
 20
-0.9513
  0
VERTEX
  8
LAYER_1
 62
   250
 10
-2.6827
 20
-0.9811
  0
VERTEX
  8
LAYER_1
 62
   250
 10
-2.7025
 20
-1.0116
  0
VERTEX
  8
LAYER_1
 62
   250
 10
-2.7213
 20
-1.0426
  0
VERTEX
  8
LAYER_1
 62
   250
 10
-2.739
 20
-1.0743
  0
VERTEX
  8
LAYER_1
 62
   250
 10
-2.7557
 20
-1.1064
  0
VERTEX
  8
LAYER_1
 62
   250
 10
-2.796
 20
-1.1008
  0
VERTEX
  8
LAYER_1
 62
   250
 10
-2.8334
 20
-1.0939
  0
VERTEX
  8
LAYER_1
 62
   250
 10
-2.868
 20
-1.086
  0
VERTEX
  8
LAYER_1
 62
   250
 10
-2.9002
 20
-1.0778
  0
VERTEX
  8
LAYER_1
 62
   250
 10
-2.9299
 20
-1.0697
  0
VERTEX
  8
LAYER_1
 62
   250
 10
-2.9573
 20
-1.0621
  0
VERTEX
  8
LAYER_1
 62
   250
 10
-2.9827
 20
-1.0557
  0
VERTEX
  8
LAYER_1
 62
   250
 10
-3.0061
 20
-1.0508
  0
VERTEX
  8
LAYER_1
 62
   250
 10
-3.0372
 20
-1.0486
  0
VERTEX
  8
LAYER_1
 62
   250
 10
-3.0664
 20
-1.0522
  0
VERTEX
  8
LAYER_1
 62
   250
 10
-3.0939
 20
-1.0612
  0
VERTEX
  8
LAYER_1
 62
   250
 10
-3.1192
 20
-1.0754
  0
VERTEX
  8
LAYER_1
 62
   250
 10
-3.1427
 20
-1.0939
  0
VERTEX
  8
LAYER_1
 62
   250
 10
-3.1642
 20
-1.1165
  0
VERTEX
  8
LAYER_1
 62
   250
 10
-3.1837
 20
-1.1425
  0
VERTEX
  8
LAYER_1
 62
   250
 10
-3.201
 20
-1.1713
  0
VERTEX
  8
LAYER_1
 62
   250
 10
-3.2143
 20
-1.2009
  0
VERTEX
  8
LAYER_1
 62
   250
 10
-3.2217
 20
-1.2297
  0
VERTEX
  8
LAYER_1
 62
   250
 10
-3.2235
 20
-1.2577
  0
VERTEX
  8
LAYER_1
 62
   250
 10
-3.2194
 20
-1.2849
  0
VERTEX
  8
LAYER_1
 62
   250
 10
-3.21
 20
-1.3118
  0
VERTEX
  8
LAYER_1
 62
   250
 10
-3.1952
 20
-1.3384
  0
VERTEX
  8
LAYER_1
 62
   250
 10
-3.1739
 20
-1.3631
  0
VERTEX
  8
LAYER_1
 62
   250
 10
-3.1452
 20
-1.3846
  0
VERTEX
  8
LAYER_1
 62
   250
 10
-3.1297
 20
-1.3928
  0
VERTEX
  8
LAYER_1
 62
   250
 10
-3.1134
 20
-1.3996
  0
VERTEX
  8
LAYER_1
 62
   250
 10
-3.0965
 20
-1.4052
  0
VERTEX
  8
LAYER_1
 62
   250
 10
-3.0791
 20
-1.4098
  0
VERTEX
  8
LAYER_1
 62
   250
 10
-3.0612
 20
-1.4135
  0
VERTEX
  8
LAYER_1
 62
   250
 10
-3.043
 20
-1.4167
  0
VERTEX
  8
LAYER_1
 62
   250
 10
-3.0246
 20
-1.4194
  0
VERTEX
  8
LAYER_1
 62
   250
 10
-3.0061
 20
-1.4218
  0
VERTEX
  8
LAYER_1
 62
   250
 10
-2.9875
 20
-1.4239
  0
VERTEX
  8
LAYER_1
 62
   250
 10
-2.9685
 20
-1.4258
  0
VERTEX
  8
LAYER_1
 62
   250
 10
-2.9491
 20
-1.4275
  0
VERTEX
  8
LAYER_1
 62
   250
 10
-2.9296
 20
-1.4287
  0
VERTEX
  8
LAYER_1
 62
   250
 10
-2.9098
 20
-1.4297
  0
VERTEX
  8
LAYER_1
 62
   250
 10
-2.8897
 20
-1.4304
  0
VERTEX
  8
LAYER_1
 62
   250
 10
-2.8693
 20
-1.4309
  0
VERTEX
  8
LAYER_1
 62
   250
 10
-2.8485
 20
-1.4311
  0
VERTEX
  8
LAYER_1
 62
   250
 10
-2.8505
 20
-1.4521
  0
VERTEX
  8
LAYER_1
 62
   250
 10
-2.8519
 20
-1.4734
  0
VERTEX
  8
LAYER_1
 62
   250
 10
-2.8528
 20
-1.495
  0
VERTEX
  8
LAYER_1
 62
   250
 10
-2.8531
 20
-1.5168
  0
VERTEX
  8
LAYER_1
 62
   250
 10
-2.8528
 20
-1.5391
  0
VERTEX
  8
LAYER_1
 62
   250
 10
-2.8519
 20
-1.5616
  0
VERTEX
  8
LAYER_1
 62
   250
 10
-2.8505
 20
-1.5843
  0
VERTEX
  8
LAYER_1
 62
   250
 10
-2.8485
 20
-1.6073
  0
VERTEX
  8
LAYER_1
 62
   250
 10
-2.8459
 20
-1.6305
  0
VERTEX
  8
LAYER_1
 62
   250
 10
-2.8428
 20
-1.6537
  0
VERTEX
  8
LAYER_1
 62
   250
 10
-2.839
 20
-1.6769
  0
VERTEX
  8
LAYER_1
 62
   250
 10
-2.8346
 20
-1.7001
  0
VERTEX
  8
LAYER_1
 62
   250
 10
-2.8296
 20
-1.7232
  0
VERTEX
  8
LAYER_1
 62
   250
 10
-2.8241
 20
-1.7464
  0
VERTEX
  8
LAYER_1
 62
   250
 10
-2.818
 20
-1.7696
  0
VERTEX
  8
LAYER_1
 62
   250
 10
-2.8113
 20
-1.7928
  0
VERTEX
  8
LAYER_1
 62
   250
 10
-2.8041
 20
-1.8155
  0
VERTEX
  8
LAYER_1
 62
   250
 10
-2.796
 20
-1.8377
  0
VERTEX
  8
LAYER_1
 62
   250
 10
-2.7872
 20
-1.859
  0
VERTEX
  8
LAYER_1
 62
   250
 10
-2.7778
 20
-1.8797
  0
VERTEX
  8
LAYER_1
 62
   250
 10
-2.7676
 20
-1.8996
  0
VERTEX
  8
LAYER_1
 62
   250
 10
-2.7566
 20
-1.9188
  0
VERTEX
  8
LAYER_1
 62
   250
 10
-2.7448
 20
-1.9372
  0
VERTEX
  8
LAYER_1
 62
   250
 10
-2.7325
 20
-1.955
  0
VERTEX
  8
LAYER_1
 62
   250
 10
-2.7194
 20
-1.9719
  0
VERTEX
  8
LAYER_1
 62
   250
 10
-2.7055
 20
-1.9878
  0
VERTEX
  8
LAYER_1
 62
   250
 10
-2.6909
 20
-2.0026
  0
VERTEX
  8
LAYER_1
 62
   250
 10
-2.6757
 20
-2.0165
  0
VERTEX
  8
LAYER_1
 62
   250
 10
-2.6599
 20
-2.0296
  0
VERTEX
  8
LAYER_1
 62
   250
 10
-2.6433
 20
-2.0418
  0
VERTEX
  8
LAYER_1
 62
   250
 10
-2.6259
 20
-2.0527
  0
VERTEX
  8
LAYER_1
 62
   250
 10
-2.6073
 20
-2.0617
  0
VERTEX
  8
LAYER_1
 62
   250
 10
-2.5773
 20
-2.073
  0
VERTEX
  8
LAYER_1
 62
   250
 10
-2.5467
 20
-2.0825
  0
VERTEX
  8
LAYER_1
 62
   250
 10
-2.516
 20
-2.09
  0
VERTEX
  8
LAYER_1
 62
   250
 10
-2.4847
 20
-2.096
  0
VERTEX
  8
LAYER_1
 62
   250
 10
-2.4532
 20
-2.1002
  0
VERTEX
  8
LAYER_1
 62
   250
 10
-2.4214
 20
-2.1028
  0
VERTEX
  8
LAYER_1
 62
   250
 10
-2.3893
 20
-2.1038
  0
VERTEX
  8
LAYER_1
 62
   250
 10
-2.3569
 20
-2.1034
  0
VERTEX
  8
LAYER_1
 62
   250
 10
-2.3246
 20
-2.1019
  0
VERTEX
  8
LAYER_1
 62
   250
 10
-2.2927
 20
-2.0994
  0
VERTEX
  8
LAYER_1
 62
   250
 10
-2.2609
 20
-2.0961
  0
VERTEX
  8
LAYER_1
 62
   250
 10
-2.2294
 20
-2.0918
  0
VERTEX
  8
LAYER_1
 62
   250
 10
-2.1984
 20
-2.0868
  0
VERTEX
  8
LAYER_1
 62
   250
 10
-2.1674
 20
-2.0809
  0
VERTEX
  8
LAYER_1
 62
   250
 10
-2.1368
 20
-2.074
  0
VERTEX
  8
LAYER_1
 62
   250
 10
-2.1065
 20
-2.0664
  0
VERTEX
  8
LAYER_1
 62
   250
 10
-2.0764
 20
-2.0581
  0
VERTEX
  8
LAYER_1
 62
   250
 10
-2.0463
 20
-2.0493
  0
VERTEX
  8
LAYER_1
 62
   250
 10
-2.0161
 20
-2.0401
  0
VERTEX
  8
LAYER_1
 62
   250
 10
-1.986
 20
-2.0305
  0
VERTEX
  8
LAYER_1
 62
   250
 10
-1.9559
 20
-2.0204
  0
VERTEX
  8
LAYER_1
 62
   250
 10
-1.9257
 20
-2.0098
  0
VERTEX
  8
LAYER_1
 62
   250
 10
-1.8956
 20
-1.9989
  0
VERTEX
  8
LAYER_1
 62
   250
 10
-1.8654
 20
-1.9875
  0
VERTEX
  8
LAYER_1
 62
   250
 10
-1.8355
 20
-1.9761
  0
VERTEX
  8
LAYER_1
 62
   250
 10
-1.8057
 20
-1.9649
  0
VERTEX
  8
LAYER_1
 62
   250
 10
-1.7763
 20
-1.9541
  0
VERTEX
  8
LAYER_1
 62
   250
 10
-1.7471
 20
-1.9435
  0
VERTEX
  8
LAYER_1
 62
   250
 10
-1.7181
 20
-1.9338
  0
VERTEX
  8
LAYER_1
 62
   250
 10
-1.6891
 20
-1.9247
  0
VERTEX
  8
LAYER_1
 62
   250
 10
-1.6609
 20
-1.9152
  0
VERTEX
  8
LAYER_1
 62
   250
 10
-1.6335
 20
-1.904
  0
VERTEX
  8
LAYER_1
 62
   250
 10
-1.6173
 20
-1.8955
  0
VERTEX
  8
LAYER_1
 62
   250
 10
-1.6024
 20
-1.8854
  0
VERTEX
  8
LAYER_1
 62
   250
 10
-1.5886
 20
-1.874
  0
VERTEX
  8
LAYER_1
 62
   250
 10
-1.576
 20
-1.8614
  0
VERTEX
  8
LAYER_1
 62
   250
 10
-1.5646
 20
-1.8479
  0
VERTEX
  8
LAYER_1
 62
   250
 10
-1.5541
 20
-1.8334
  0
VERTEX
  8
LAYER_1
 62
   250
 10
-1.5448
 20
-1.8181
  0
VERTEX
  8
LAYER_1
 62
   250
 10
-1.5361
 20
-1.802
  0
VERTEX
  8
LAYER_1
 62
   250
 10
-1.5286
 20
-1.7859
  0
VERTEX
  8
LAYER_1
 62
   250
 10
-1.5222
 20
-1.7699
  0
VERTEX
  8
LAYER_1
 62
   250
 10
-1.517
 20
-1.754
  0
VERTEX
  8
LAYER_1
 62
   250
 10
-1.5129
 20
-1.7382
  0
VERTEX
  8
LAYER_1
 62
   250
 10
-1.51
 20
-1.7227
  0
VERTEX
  8
LAYER_1
 62
   250
 10
-1.5083
 20
-1.7073
  0
VERTEX
  8
LAYER_1
 62
   250
 10
-1.5078
 20
-1.692
  0
VERTEX
  8
LAYER_1
 62
   250
 10
-1.5082
 20
-1.6768
  0
VERTEX
  8
LAYER_1
 62
   250
 10
-1.51
 20
-1.6623
  0
VERTEX
  8
LAYER_1
 62
   250
 10
-1.5132
 20
-1.6484
  0
VERTEX
  8
LAYER_1
 62
   250
 10
-1.5176
 20
-1.6355
  0
VERTEX
  8
LAYER_1
 62
   250
 10
-1.5234
 20
-1.6235
  0
VERTEX
  8
LAYER_1
 62
   250
 10
-1.5304
 20
-1.6124
  0
VERTEX
  8
LAYER_1
 62
   250
 10
-1.5387
 20
-1.6021
  0
VERTEX
  8
LAYER_1
 62
   250
 10
-1.5483
 20
-1.5926
  0
VERTEX
  8
LAYER_1
 62
   250
 10
-1.5593
 20
-1.5841
  0
VERTEX
  8
LAYER_1
 62
   250
 10
-1.5715
 20
-1.577
  0
VERTEX
  8
LAYER_1
 62
   250
 10
-1.5853
 20
-1.5722
  0
VERTEX
  8
LAYER_1
 62
   250
 10
-1.6005
 20
-1.5696
  0
VERTEX
  8
LAYER_1
 62
   250
 10
-1.6172
 20
-1.569
  0
VERTEX
  8
LAYER_1
 62
   250
 10
-1.6354
 20
-1.5706
  0
VERTEX
  8
LAYER_1
 62
   250
 10
-1.655
 20
-1.5743
  0
VERTEX
  8
LAYER_1
 62
   250
 10
-1.6761
 20
-1.5804
  0
VERTEX
  8
LAYER_1
 62
   250
 10
-1.6984
 20
-1.5887
  0
VERTEX
  8
LAYER_1
 62
   250
 10
-1.7309
 20
-1.6025
  0
VERTEX
  8
LAYER_1
 62
   250
 10
-1.7632
 20
-1.6165
  0
VERTEX
  8
LAYER_1
 62
   250
 10
-1.7953
 20
-1.6308
  0
VERTEX
  8
LAYER_1
 62
   250
 10
-1.8272
 20
-1.6453
  0
VERTEX
  8
LAYER_1
 62
   250
 10
-1.859
 20
-1.6598
  0
VERTEX
  8
LAYER_1
 62
   250
 10
-1.8906
 20
-1.6747
  0
VERTEX
  8
LAYER_1
 62
   250
 10
-1.9221
 20
-1.6896
  0
VERTEX
  8
LAYER_1
 62
   250
 10
-1.9535
 20
-1.7047
  0
VERTEX
  8
LAYER_1
 62
   250
 10
-1.9851
 20
-1.7194
  0
VERTEX
  8
LAYER_1
 62
   250
 10
-2.017
 20
-1.7338
  0
VERTEX
  8
LAYER_1
 62
   250
 10
-2.0494
 20
-1.7478
  0
VERTEX
  8
LAYER_1
 62
   250
 10
-2.0822
 20
-1.7614
  0
VERTEX
  8
LAYER_1
 62
   250
 10
-2.1154
 20
-1.7747
  0
VERTEX
  8
LAYER_1
 62
   250
 10
-2.1489
 20
-1.7876
  0
VERTEX
  8
LAYER_1
 62
   250
 10
-2.1831
 20
-1.8001
  0
VERTEX
  8
LAYER_1
 62
   250
 10
-2.2178
 20
-1.8113
  0
VERTEX
  8
LAYER_1
 62
   250
 10
-2.2495
 20
-1.8199
  0
VERTEX
  8
LAYER_1
 62
   250
 10
-2.2797
 20
-1.8263
  0
VERTEX
  8
LAYER_1
 62
   250
 10
-2.3086
 20
-1.8306
  0
VERTEX
  8
LAYER_1
 62
   250
 10
-2.3359
 20
-1.8326
  0
VERTEX
  8
LAYER_1
 62
   250
 10
-2.3619
 20
-1.8325
  0
VERTEX
  8
LAYER_1
 62
   250
 10
-2.3865
 20
-1.8306
  0
VERTEX
  8
LAYER_1
 62
   250
 10
-2.4095
 20
-1.8266
  0
VERTEX
  8
LAYER_1
 62
   250
 10
-2.4311
 20
-1.8206
  0
VERTEX
  8
LAYER_1
 62
   250
 10
-2.4514
 20
-1.8131
  0
VERTEX
  8
LAYER_1
 62
   250
 10
-2.4708
 20
-1.8044
  0
VERTEX
  8
LAYER_1
 62
   250
 10
-2.4891
 20
-1.7945
  0
VERTEX
  8
LAYER_1
 62
   250
 10
-2.5064
 20
-1.7835
  0
VERTEX
  8
LAYER_1
 62
   250
 10
-2.5227
 20
-1.7713
  0
VERTEX
  8
LAYER_1
 62
   250
 10
-2.538
 20
-1.7579
  0
VERTEX
  8
LAYER_1
 62
   250
 10
-2.5522
 20
-1.7434
  0
VERTEX
  8
LAYER_1
 62
   250
 10
-2.5656
 20
-1.7278
  0
VERTEX
  8
LAYER_1
 62
   250
 10
-2.5778
 20
-1.7112
  0
VERTEX
  8
LAYER_1
 62
   250
 10
-2.589
 20
-1.6939
  0
VERTEX
  8
LAYER_1
 62
   250
 10
-2.5993
 20
-1.6759
  0
VERTEX
  8
LAYER_1
 62
   250
 10
-2.6085
 20
-1.6571
  0
VERTEX
  8
LAYER_1
 62
   250
 10
-2.6167
 20
-1.6377
  0
VERTEX
  8
LAYER_1
 62
   250
 10
-2.6239
 20
-1.6174
  0
VERTEX
  8
LAYER_1
 62
   250
 10
-2.63
 20
-1.5965
  0
VERTEX
  8
LAYER_1
 62
   250
 10
-2.6351
 20
-1.5748
  0
VERTEX
  8
LAYER_1
 62
   250
 10
-2.64
 20
-1.491
  0
VERTEX
  8
LAYER_1
 62
   250
 10
-2.6257
 20
-1.3931
  0
VERTEX
  8
LAYER_1
 62
   250
 10
-2.5954
 20
-1.2874
  0
VERTEX
  8
LAYER_1
 62
   250
 10
-2.553
 20
-1.18
  0
VERTEX
  8
LAYER_1
 62
   250
 10
-2.5017
 20
-1.077
  0
VERTEX
  8
LAYER_1
 62
   250
 10
-2.4449
 20
-0.9845
  0
VERTEX
  8
LAYER_1
 62
   250
 10
-2.3863
 20
-0.9089
  0
VERTEX
  8
LAYER_1
 62
   250
 10
-2.3291
 20
-0.856
  0
VERTEX
  8
LAYER_1
 62
   250
 10
-2.2954
 20
-0.8349
  0
VERTEX
  8
LAYER_1
 62
   250
 10
-2.2598
 20
-0.8183
  0
VERTEX
  8
LAYER_1
 62
   250
 10
-2.2242
 20
-0.8073
  0
VERTEX
  8
LAYER_1
 62
   250
 10
-2.1898
 20
-0.8026
  0
VERTEX
  8
LAYER_1
 62
   250
 10
-2.1585
 20
-0.8053
  0
VERTEX
  8
LAYER_1
 62
   250
 10
-2.1316
 20
-0.8159
  0
VERTEX
  8
LAYER_1
 62
   250
 10
-2.1106
 20
-0.8356
  0
VERTEX
  8
LAYER_1
 62
   250
 10
-2.0972
 20
-0.8653
  0
VERTEX
  8
LAYER_1
 62
   250
 10
-2.0954
 20
-0.8933
  0
VERTEX
  8
LAYER_1
 62
   250
 10
-2.1038
 20
-0.919
  0
VERTEX
  8
LAYER_1
 62
   250
 10
-2.1207
 20
-0.9425
  0
VERTEX
  8
LAYER_1
 62
   250
 10
-2.1442
 20
-0.964
  0
VERTEX
  8
LAYER_1
 62
   250
 10
-2.1725
 20
-0.9836
  0
VERTEX
  8
LAYER_1
 62
   250
 10
-2.2039
 20
-1.0014
  0
VERTEX
  8
LAYER_1
 62
   250
 10
-2.2367
 20
-1.0176
  0
VERTEX
  8
LAYER_1
 62
   250
 10
-2.2688
 20
-1.0322
  0
VERTEX
  8
LAYER_1
 62
   250
 10
-2.2994
 20
-1.0459
  0
VERTEX
  8
LAYER_1
 62
   250
 10
-2.3289
 20
-1.0594
  0
VERTEX
  8
LAYER_1
 62
   250
 10
-2.3582
 20
-1.0721
  0
VERTEX
  8
LAYER_1
 62
   250
 10
-2.3878
 20
-1.084
  0
VERTEX
  8
LAYER_1
 62
   250
 10
-2.4184
 20
-1.0947
  0
VERTEX
  8
LAYER_1
 62
   250
 10
-2.4507
 20
-1.104
  0
VERTEX
  8
LAYER_1
 62
   250
 10
-2.4854
 20
-1.1116
  0
VERTEX
  8
LAYER_1
 62
   250
 10
-2.5231
 20
-1.1173
  0
SEQEND
  8
LAYER_1
 62
   250
  0
POLYLINE
  8
LAYER_1
 62
   250
 66
     1
 70
     1
  0
VERTEX
  8
LAYER_1
 62
   250
 10
-1.3042
 20
-0.4061
  0
VERTEX
  8
LAYER_1
 62
   250
 10
-1.3003
 20
-0.3891
  0
VERTEX
  8
LAYER_1
 62
   250
 10
-1.2955
 20
-0.3728
  0
VERTEX
  8
LAYER_1
 62
   250
 10
-1.2898
 20
-0.3573
  0
VERTEX
  8
LAYER_1
 62
   250
 10
-1.2833
 20
-0.3424
  0
VERTEX
  8
LAYER_1
 62
   250
 10
-1.2759
 20
-0.3283
  0
VERTEX
  8
LAYER_1
 62
   250
 10
-1.2678
 20
-0.3149
  0
VERTEX
  8
LAYER_1
 62
   250
 10
-1.2587
 20
-0.3022
  0
VERTEX
  8
LAYER_1
 62
   250
 10
-1.2486
 20
-0.2902
  0
VERTEX
  8
LAYER_1
 62
   250
 10
-1.2334
 20
-0.2769
  0
VERTEX
  8
LAYER_1
 62
   250
 10
-1.2142
 20
-0.266
  0
VERTEX
  8
LAYER_1
 62
   250
 10
-1.1916
 20
-0.2575
  0
VERTEX
  8
LAYER_1
 62
   250
 10
-1.1661
 20
-0.251
  0
VERTEX
  8
LAYER_1
 62
   250
 10
-1.1382
 20
-0.2465
  0
VERTEX
  8
LAYER_1
 62
   250
 10
-1.1081
 20
-0.2435
  0
VERTEX
  8
LAYER_1
 62
   250
 10
-1.0764
 20
-0.2421
  0
VERTEX
  8
LAYER_1
 62
   250
 10
-1.0436
 20
-0.2418
  0
VERTEX
  8
LAYER_1
 62
   250
 10
-1.0006
 20
-0.243
  0
VERTEX
  8
LAYER_1
 62
   250
 10
-0.9575
 20
-0.2455
  0
VERTEX
  8
LAYER_1
 62
   250
 10
-0.9151
 20
-0.2488
  0
VERTEX
  8
LAYER_1
 62
   250
 10
-0.8745
 20
-0.2525
  0
VERTEX
  8
LAYER_1
 62
   250
 10
-0.8365
 20
-0.2562
  0
VERTEX
  8
LAYER_1
 62
   250
 10
-0.802
 20
-0.2593
  0
VERTEX
  8
LAYER_1
 62
   250
 10
-0.7722
 20
-0.2615
  0
VERTEX
  8
LAYER_1
 62
   250
 10
-0.7477
 20
-0.2624
  0
VERTEX
  8
LAYER_1
 62
   250
 10
-0.7119
 20
-0.2622
  0
VERTEX
  8
LAYER_1
 62
   250
 10
-0.6762
 20
-0.2618
  0
VERTEX
  8
LAYER_1
 62
   250
 10
-0.6405
 20
-0.2611
  0
VERTEX
  8
LAYER_1
 62
   250
 10
-0.6051
 20
-0.2601
  0
VERTEX
  8
LAYER_1
 62
   250
 10
-0.5699
 20
-0.2589
  0
VERTEX
  8
LAYER_1
 62
   250
 10
-0.5347
 20
-0.2575
  0
VERTEX
  8
LAYER_1
 62
   250
 10
-0.4997
 20
-0.2556
  0
VERTEX
  8
LAYER_1
 62
   250
 10
-0.4649
 20
-0.2531
  0
VERTEX
  8
LAYER_1
 62
   250
 10
-0.3819
 20
-0.246
  0
VERTEX
  8
LAYER_1
 62
   250
 10
-0.2997
 20
-0.2377
  0
VERTEX
  8
LAYER_1
 62
   250
 10
-0.2184
 20
-0.2287
  0
VERTEX
  8
LAYER_1
 62
   250
 10
-0.1379
 20
-0.2186
  0
VERTEX
  8
LAYER_1
 62
   250
 10
-0.0584
 20
-0.2076
  0
VERTEX
  8
LAYER_1
 62
   250
 10
0.0203
 20
-0.1957
  0
VERTEX
  8
LAYER_1
 62
   250
 10
0.0982
 20
-0.183
  0
VERTEX
  8
LAYER_1
 62
   250
 10
0.1751
 20
-0.1697
  0
VERTEX
  8
LAYER_1
 62
   250
 10
0.189
 20
-0.1674
  0
VERTEX
  8
LAYER_1
 62
   250
 10
0.2029
 20
-0.1652
  0
VERTEX
  8
LAYER_1
 62
   250
 10
0.2168
 20
-0.1632
  0
VERTEX
  8
LAYER_1
 62
   250
 10
0.2308
 20
-0.1614
  0
VERTEX
  8
LAYER_1
 62
   250
 10
0.2446
 20
-0.1598
  0
VERTEX
  8
LAYER_1
 62
   250
 10
0.2586
 20
-0.1583
  0
VERTEX
  8
LAYER_1
 62
   250
 10
0.2725
 20
-0.1569
  0
VERTEX
  8
LAYER_1
 62
   250
 10
0.2864
 20
-0.1558
  0
VERTEX
  8
LAYER_1
 62
   250
 10
0.3003
 20
-0.1544
  0
VERTEX
  8
LAYER_1
 62
   250
 10
0.3143
 20
-0.1526
  0
VERTEX
  8
LAYER_1
 62
   250
 10
0.3281
 20
-0.1504
  0
VERTEX
  8
LAYER_1
 62
   250
 10
0.3421
 20
-0.1477
  0
VERTEX
  8
LAYER_1
 62
   250
 10
0.3559
 20
-0.1446
  0
VERTEX
  8
LAYER_1
 62
   250
 10
0.3699
 20
-0.141
  0
VERTEX
  8
LAYER_1
 62
   250
 10
0.3838
 20
-0.137
  0
VERTEX
  8
LAYER_1
 62
   250
 10
0.3977
 20
-0.1325
  0
VERTEX
  8
LAYER_1
 62
   250
 10
0.3776
 20
-0.0011
  0
VERTEX
  8
LAYER_1
 62
   250
 10
0.3591
 20
0.1287
  0
VERTEX
  8
LAYER_1
 62
   250
 10
0.3422
 20
0.2567
  0
VERTEX
  8
LAYER_1
 62
   250
 10
0.327
 20
0.3834
  0
VERTEX
  8
LAYER_1
 62
   250
 10
0.3133
 20
0.5083
  0
VERTEX
  8
LAYER_1
 62
   250
 10
0.3011
 20
0.6318
  0
VERTEX
  8
LAYER_1
 62
   250
 10
0.2907
 20
0.7535
  0
VERTEX
  8
LAYER_1
 62
   250
 10
0.2818
 20
0.8738
  0
VERTEX
  8
LAYER_1
 62
   250
 10
0.2757
 20
0.9922
  0
VERTEX
  8
LAYER_1
 62
   250
 10
0.2735
 20
1.1088
  0
VERTEX
  8
LAYER_1
 62
   250
 10
0.2752
 20
1.2235
  0
VERTEX
  8
LAYER_1
 62
   250
 10
0.2807
 20
1.3363
  0
VERTEX
  8
LAYER_1
 62
   250
 10
0.2902
 20
1.4472
  0
VERTEX
  8
LAYER_1
 62
   250
 10
0.3036
 20
1.5563
  0
VERTEX
  8
LAYER_1
 62
   250
 10
0.3209
 20
1.6635
  0
VERTEX
  8
LAYER_1
 62
   250
 10
0.3421
 20
1.7688
  0
VERTEX
  8
LAYER_1
 62
   250
 10
0.3676
 20
1.8721
  0
VERTEX
  8
LAYER_1
 62
   250
 10
0.398
 20
1.9735
  0
VERTEX
  8
LAYER_1
 62
   250
 10
0.4332
 20
2.0727
  0
VERTEX
  8
LAYER_1
 62
   250
 10
0.473
 20
2.1699
  0
VERTEX
  8
LAYER_1
 62
   250
 10
0.5178
 20
2.2651
  0
VERTEX
  8
LAYER_1
 62
   250
 10
0.5673
 20
2.3583
  0
VERTEX
  8
LAYER_1
 62
   250
 10
0.6215
 20
2.4494
  0
VERTEX
  8
LAYER_1
 62
   250
 10
0.6806
 20
2.5386
  0
VERTEX
  8
LAYER_1
 62
   250
 10
0.7457
 20
2.6255
  0
VERTEX
  8
LAYER_1
 62
   250
 10
0.8183
 20
2.7101
  0
VERTEX
  8
LAYER_1
 62
   250
 10
0.8982
 20
2.7925
  0
VERTEX
  8
LAYER_1
 62
   250
 10
0.9855
 20
2.8725
  0
VERTEX
  8
LAYER_1
 62
   250
 10
1.0803
 20
2.95
  0
VERTEX
  8
LAYER_1
 62
   250
 10
1.1825
 20
3.0251
  0
VERTEX
  8
LAYER_1
 62
   250
 10
1.292
 20
3.0982
  0
VERTEX
  8
LAYER_1
 62
   250
 10
1.4087
 20
3.1693
  0
VERTEX
  8
LAYER_1
 62
   250
 10
1.4433
 20
3.1892
  0
VERTEX
  8
LAYER_1
 62
   250
 10
1.4773
 20
3.208
  0
VERTEX
  8
LAYER_1
 62
   250
 10
1.5106
 20
3.2256
  0
VERTEX
  8
LAYER_1
 62
   250
 10
1.5433
 20
3.2419
  0
VERTEX
  8
LAYER_1
 62
   250
 10
1.5754
 20
3.2571
  0
VERTEX
  8
LAYER_1
 62
   250
 10
1.607
 20
3.2708
  0
VERTEX
  8
LAYER_1
 62
   250
 10
1.638
 20
3.2833
  0
VERTEX
  8
LAYER_1
 62
   250
 10
1.6683
 20
3.2945
  0
VERTEX
  8
LAYER_1
 62
   250
 10
1.6984
 20
3.3047
  0
VERTEX
  8
LAYER_1
 62
   250
 10
1.7284
 20
3.3145
  0
VERTEX
  8
LAYER_1
 62
   250
 10
1.7581
 20
3.3238
  0
VERTEX
  8
LAYER_1
 62
   250
 10
1.7878
 20
3.3328
  0
VERTEX
  8
LAYER_1
 62
   250
 10
1.8172
 20
3.3412
  0
VERTEX
  8
LAYER_1
 62
   250
 10
1.8466
 20
3.3493
  0
VERTEX
  8
LAYER_1
 62
   250
 10
1.8759
 20
3.357
  0
VERTEX
  8
LAYER_1
 62
   250
 10
1.9048
 20
3.3641
  0
VERTEX
  8
LAYER_1
 62
   250
 10
1.934
 20
3.3707
  0
VERTEX
  8
LAYER_1
 62
   250
 10
1.9633
 20
3.377
  0
VERTEX
  8
LAYER_1
 62
   250
 10
1.9931
 20
3.3829
  0
VERTEX
  8
LAYER_1
 62
   250
 10
2.0231
 20
3.3884
  0
VERTEX
  8
LAYER_1
 62
   250
 10
2.0534
 20
3.3933
  0
VERTEX
  8
LAYER_1
 62
   250
 10
2.084
 20
3.3979
  0
VERTEX
  8
LAYER_1
 62
   250
 10
2.115
 20
3.4021
  0
VERTEX
  8
LAYER_1
 62
   250
 10
2.146
 20
3.4057
  0
VERTEX
  8
LAYER_1
 62
   250
 10
2.1721
 20
3.4085
  0
VERTEX
  8
LAYER_1
 62
   250
 10
2.1979
 20
3.4111
  0
VERTEX
  8
LAYER_1
 62
   250
 10
2.2235
 20
3.4136
  0
VERTEX
  8
LAYER_1
 62
   250
 10
2.249
 20
3.4156
  0
VERTEX
  8
LAYER_1
 62
   250
 10
2.2745
 20
3.4176
  0
VERTEX
  8
LAYER_1
 62
   250
 10
2.2997
 20
3.4193
  0
VERTEX
  8
LAYER_1
 62
   250
 10
2.3249
 20
3.4208
  0
VERTEX
  8
LAYER_1
 62
   250
 10
2.3497
 20
3.422
  0
VERTEX
  8
LAYER_1
 62
   250
 10
2.3937
 20
3.4237
  0
VERTEX
  8
LAYER_1
 62
   250
 10
2.4371
 20
3.4245
  0
VERTEX
  8
LAYER_1
 62
   250
 10
2.48
 20
3.4246
  0
VERTEX
  8
LAYER_1
 62
   250
 10
2.5224
 20
3.4239
  0
VERTEX
  8
LAYER_1
 62
   250
 10
2.5643
 20
3.4224
  0
VERTEX
  8
LAYER_1
 62
   250
 10
2.6056
 20
3.4201
  0
VERTEX
  8
LAYER_1
 62
   250
 10
2.6463
 20
3.4169
  0
VERTEX
  8
LAYER_1
 62
   250
 10
2.6864
 20
3.4128
  0
VERTEX
  8
LAYER_1
 62
   250
 10
2.7229
 20
3.4082
  0
VERTEX
  8
LAYER_1
 62
   250
 10
2.7589
 20
3.4028
  0
VERTEX
  8
LAYER_1
 62
   250
 10
2.7945
 20
3.3966
  0
VERTEX
  8
LAYER_1
 62
   250
 10
2.8294
 20
3.3895
  0
VERTEX
  8
LAYER_1
 62
   250
 10
2.8638
 20
3.3817
  0
VERTEX
  8
LAYER_1
 62
   250
 10
2.8975
 20
3.3729
  0
VERTEX
  8
LAYER_1
 62
   250
 10
2.9308
 20
3.3633
  0
VERTEX
  8
LAYER_1
 62
   250
 10
2.9632
 20
3.3527
  0
VERTEX
  8
LAYER_1
 62
   250
 10
3.0007
 20
3.3392
  0
VERTEX
  8
LAYER_1
 62
   250
 10
3.0373
 20
3.3245
  0
VERTEX
  8
LAYER_1
 62
   250
 10
3.073
 20
3.3084
  0
VERTEX
  8
LAYER_1
 62
   250
 10
3.1079
 20
3.2909
  0
VERTEX
  8
LAYER_1
 62
   250
 10
3.1417
 20
3.2721
  0
VERTEX
  8
LAYER_1
 62
   250
 10
3.1746
 20
3.2518
  0
VERTEX
  8
LAYER_1
 62
   250
 10
3.2063
 20
3.23
  0
VERTEX
  8
LAYER_1
 62
   250
 10
3.2371
 20
3.2067
  0
VERTEX
  8
LAYER_1
 62
   250
 10
3.2728
 20
3.1766
  0
VERTEX
  8
LAYER_1
 62
   250
 10
3.3071
 20
3.1444
  0
VERTEX
  8
LAYER_1
 62
   250
 10
3.3398
 20
3.1102
  0
VERTEX
  8
LAYER_1
 62
   250
 10
3.3709
 20
3.0737
  0
VERTEX
  8
LAYER_1
 62
   250
 10
3.4002
 20
3.0352
  0
VERTEX
  8
LAYER_1
 62
   250
 10
3.4279
 20
2.9944
  0
VERTEX
  8
LAYER_1
 62
   250
 10
3.4538
 20
2.9515
  0
VERTEX
  8
LAYER_1
 62
   250
 10
3.478
 20
2.9062
  0
VERTEX
  8
LAYER_1
 62
   250
 10
3.4972
 20
2.8659
  0
VERTEX
  8
LAYER_1
 62
   250
 10
3.5151
 20
2.8238
  0
VERTEX
  8
LAYER_1
 62
   250
 10
3.5316
 20
2.78
  0
VERTEX
  8
LAYER_1
 62
   250
 10
3.5467
 20
2.7344
  0
VERTEX
  8
LAYER_1
 62
   250
 10
3.5604
 20
2.6871
  0
VERTEX
  8
LAYER_1
 62
   250
 10
3.5726
 20
2.6379
  0
VERTEX
  8
LAYER_1
 62
   250
 10
3.5834
 20
2.5867
  0
VERTEX
  8
LAYER_1
 62
   250
 10
3.5929
 20
2.5339
  0
VERTEX
  8
LAYER_1
 62
   250
 10
3.6013
 20
2.4683
  0
VERTEX
  8
LAYER_1
 62
   250
 10
3.6057
 20
2.4033
  0
VERTEX
  8
LAYER_1
 62
   250
 10
3.6059
 20
2.3391
  0
VERTEX
  8
LAYER_1
 62
   250
 10
3.6022
 20
2.2755
  0
VERTEX
  8
LAYER_1
 62
   250
 10
3.5944
 20
2.2127
  0
VERTEX
  8
LAYER_1
 62
   250
 10
3.5825
 20
2.1505
  0
VERTEX
  8
LAYER_1
 62
   250
 10
3.5665
 20
2.0891
  0
VERTEX
  8
LAYER_1
 62
   250
 10
3.5465
 20
2.0285
  0
VERTEX
  8
LAYER_1
 62
   250
 10
3.5229
 20
1.9685
  0
VERTEX
  8
LAYER_1
 62
   250
 10
3.4956
 20
1.9094
  0
VERTEX
  8
LAYER_1
 62
   250
 10
3.4649
 20
1.8509
  0
VERTEX
  8
LAYER_1
 62
   250
 10
3.4306
 20
1.7931
  0
VERTEX
  8
LAYER_1
 62
   250
 10
3.3929
 20
1.7361
  0
VERTEX
  8
LAYER_1
 62
   250
 10
3.3517
 20
1.6798
  0
VERTEX
  8
LAYER_1
 62
   250
 10
3.3071
 20
1.6243
  0
VERTEX
  8
LAYER_1
 62
   250
 10
3.259
 20
1.5694
  0
VERTEX
  8
LAYER_1
 62
   250
 10
3.2081
 20
1.5153
  0
VERTEX
  8
LAYER_1
 62
   250
 10
3.1549
 20
1.4618
  0
VERTEX
  8
LAYER_1
 62
   250
 10
3.0997
 20
1.4092
  0
VERTEX
  8
LAYER_1
 62
   250
 10
3.0422
 20
1.3572
  0
VERTEX
  8
LAYER_1
 62
   250
 10
2.9827
 20
1.3059
  0
VERTEX
  8
LAYER_1
 62
   250
 10
2.921
 20
1.2552
  0
VERTEX
  8
LAYER_1
 62
   250
 10
2.8571
 20
1.2053
  0
VERTEX
  8
LAYER_1
 62
   250
 10
2.7906
 20
1.1566
  0
VERTEX
  8
LAYER_1
 62
   250
 10
2.7607
 20
1.1357
  0
VERTEX
  8
LAYER_1
 62
   250
 10
2.7303
 20
1.1151
  0
VERTEX
  8
LAYER_1
 62
   250
 10
2.6999
 20
1.0951
  0
VERTEX
  8
LAYER_1
 62
   250
 10
2.6691
 20
1.0752
  0
VERTEX
  8
LAYER_1
 62
   250
 10
2.6383
 20
1.0557
  0
VERTEX
  8
LAYER_1
 62
   250
 10
2.6073
 20
1.0366
  0
VERTEX
  8
LAYER_1
 62
   250
 10
2.5762
 20
1.0177
  0
VERTEX
  8
LAYER_1
 62
   250
 10
2.5448
 20
0.999
  0
VERTEX
  8
LAYER_1
 62
   250
 10
2.5137
 20
0.9813
  0
VERTEX
  8
LAYER_1
 62
   250
 10
2.4826
 20
0.9651
  0
VERTEX
  8
LAYER_1
 62
   250
 10
2.4516
 20
0.9505
  0
VERTEX
  8
LAYER_1
 62
   250
 10
2.4208
 20
0.9376
  0
VERTEX
  8
LAYER_1
 62
   250
 10
2.3902
 20
0.9262
  0
VERTEX
  8
LAYER_1
 62
   250
 10
2.3597
 20
0.9164
  0
VERTEX
  8
LAYER_1
 62
   250
 10
2.3293
 20
0.9082
  0
VERTEX
  8
LAYER_1
 62
   250
 10
2.299
 20
0.9016
  0
VERTEX
  8
LAYER_1
 62
   250
 10
2.2693
 20
0.8971
  0
VERTEX
  8
LAYER_1
 62
   250
 10
2.24
 20
0.895
  0
VERTEX
  8
LAYER_1
 62
   250
 10
2.2113
 20
0.8954
  0
VERTEX
  8
LAYER_1
 62
   250
 10
2.1831
 20
0.8982
  0
VERTEX
  8
LAYER_1
 62
   250
 10
2.1556
 20
0.9035
  0
VERTEX
  8
LAYER_1
 62
   250
 10
2.1287
 20
0.9112
  0
VERTEX
  8
LAYER_1
 62
   250
 10
2.1023
 20
0.9214
  0
VERTEX
  8
LAYER_1
 62
   250
 10
2.0765
 20
0.9341
  0
VERTEX
  8
LAYER_1
 62
   250
 10
2.0515
 20
0.9498
  0
VERTEX
  8
LAYER_1
 62
   250
 10
2.0278
 20
0.9694
  0
VERTEX
  8
LAYER_1
 62
   250
 10
2.0051
 20
0.9927
  0
VERTEX
  8
LAYER_1
 62
   250
 10
1.9837
 20
1.0198
  0
VERTEX
  8
LAYER_1
 62
   250
 10
1.9631
 20
1.0505
  0
VERTEX
  8
LAYER_1
 62
   250
 10
1.9433
 20
1.085
  0
VERTEX
  8
LAYER_1
 62
   250
 10
1.9252
 20
1.1233
  0
VERTEX
  8
LAYER_1
 62
   250
 10
1.9095
 20
1.1659
  0
VERTEX
  8
LAYER_1
 62
   250
 10
1.9048
 20
1.1841
  0
VERTEX
  8
LAYER_1
 62
   250
 10
1.9022
 20
1.2024
  0
VERTEX
  8
LAYER_1
 62
   250
 10
1.9015
 20
1.2205
  0
VERTEX
  8
LAYER_1
 62
   250
 10
1.9026
 20
1.2386
  0
VERTEX
  8
LAYER_1
 62
   250
 10
1.9054
 20
1.2566
  0
VERTEX
  8
LAYER_1
 62
   250
 10
1.9099
 20
1.2745
  0
VERTEX
  8
LAYER_1
 62
   250
 10
1.9159
 20
1.2923
  0
VERTEX
  8
LAYER_1
 62
   250
 10
1.9234
 20
1.3096
  0
VERTEX
  8
LAYER_1
 62
   250
 10
1.9318
 20
1.3265
  0
VERTEX
  8
LAYER_1
 62
   250
 10
1.941
 20
1.3421
  0
VERTEX
  8
LAYER_1
 62
   250
 10
1.9509
 20
1.3567
  0
VERTEX
  8
LAYER_1
 62
   250
 10
1.9616
 20
1.37
  0
VERTEX
  8
LAYER_1
 62
   250
 10
1.973
 20
1.3822
  0
VERTEX
  8
LAYER_1
 62
   250
 10
1.9851
 20
1.3932
  0
VERTEX
  8
LAYER_1
 62
   250
 10
1.998
 20
1.4031
  0
VERTEX
  8
LAYER_1
 62
   250
 10
2.0115
 20
1.4117
  0
VERTEX
  8
LAYER_1
 62
   250
 10
2.0255
 20
1.4191
  0
VERTEX
  8
LAYER_1
 62
   250
 10
2.0397
 20
1.4253
  0
VERTEX
  8
LAYER_1
 62
   250
 10
2.054
 20
1.4301
  0
VERTEX
  8
LAYER_1
 62
   250
 10
2.0683
 20
1.4337
  0
VERTEX
  8
LAYER_1
 62
   250
 10
2.0829
 20
1.4359
  0
VERTEX
  8
LAYER_1
 62
   250
 10
2.0976
 20
1.4369
  0
VERTEX
  8
LAYER_1
 62
   250
 10
2.1125
 20
1.4365
  0
VERTEX
  8
LAYER_1
 62
   250
 10
2.1275
 20
1.4349
  0
VERTEX
  8
LAYER_1
 62
   250
 10
2.1421
 20
1.4314
  0
VERTEX
  8
LAYER_1
 62
   250
 10
2.1556
 20
1.4251
  0
VERTEX
  8
LAYER_1
 62
   250
 10
2.1681
 20
1.4163
  0
VERTEX
  8
LAYER_1
 62
   250
 10
2.1796
 20
1.4048
  0
VERTEX
  8
LAYER_1
 62
   250
 10
2.1897
 20
1.3905
  0
VERTEX
  8
LAYER_1
 62
   250
 10
2.1987
 20
1.3737
  0
VERTEX
  8
LAYER_1
 62
   250
 10
2.2071
 20
1.3544
  0
VERTEX
  8
LAYER_1
 62
   250
 10
2.2156
 20
1.3329
  0
VERTEX
  8
LAYER_1
 62
   250
 10
2.2193
 20
1.3233
  0
VERTEX
  8
LAYER_1
 62
   250
 10
2.2227
 20
1.3139
  0
VERTEX
  8
LAYER_1
 62
   250
 10
2.2259
 20
1.3046
  0
VERTEX
  8
LAYER_1
 62
   250
 10
2.2287
 20
1.2954
  0
VERTEX
  8
LAYER_1
 62
   250
 10
2.2308
 20
1.2863
  0
VERTEX
  8
LAYER_1
 62
   250
 10
2.2326
 20
1.2771
  0
VERTEX
  8
LAYER_1
 62
   250
 10
2.2337
 20
1.268
  0
VERTEX
  8
LAYER_1
 62
   250
 10
2.2552
 20
1.2547
  0
VERTEX
  8
LAYER_1
 62
   250
 10
2.2765
 20
1.2523
  0
VERTEX
  8
LAYER_1
 62
   250
 10
2.2981
 20
1.2514
  0
VERTEX
  8
LAYER_1
 62
   250
 10
2.3199
 20
1.2518
  0
VERTEX
  8
LAYER_1
 62
   250
 10
2.3421
 20
1.2537
  0
VERTEX
  8
LAYER_1
 62
   250
 10
2.3646
 20
1.257
  0
VERTEX
  8
LAYER_1
 62
   250
 10
2.3873
 20
1.2618
  0
VERTEX
  8
LAYER_1
 62
   250
 10
2.4104
 20
1.268
  0
VERTEX
  8
LAYER_1
 62
   250
 10
2.4335
 20
1.2753
  0
VERTEX
  8
LAYER_1
 62
   250
 10
2.4565
 20
1.2836
  0
VERTEX
  8
LAYER_1
 62
   250
 10
2.4792
 20
1.2927
  0
VERTEX
  8
LAYER_1
 62
   250
 10
2.5019
 20
1.3027
  0
VERTEX
  8
LAYER_1
 62
   250
 10
2.5245
 20
1.3135
  0
VERTEX
  8
LAYER_1
 62
   250
 10
2.5468
 20
1.3253
  0
VERTEX
  8
LAYER_1
 62
   250
 10
2.5691
 20
1.338
  0
VERTEX
  8
LAYER_1
 62
   250
 10
2.5912
 20
1.3514
  0
VERTEX
  8
LAYER_1
 62
   250
 10
2.6131
 20
1.3654
  0
VERTEX
  8
LAYER_1
 62
   250
 10
2.6347
 20
1.38
  0
VERTEX
  8
LAYER_1
 62
   250
 10
2.656
 20
1.395
  0
VERTEX
  8
LAYER_1
 62
   250
 10
2.677
 20
1.4105
  0
VERTEX
  8
LAYER_1
 62
   250
 10
2.6977
 20
1.4264
  0
VERTEX
  8
LAYER_1
 62
   250
 10
2.7181
 20
1.4427
  0
VERTEX
  8
LAYER_1
 62
   250
 10
2.7383
 20
1.4594
  0
VERTEX
  8
LAYER_1
 62
   250
 10
2.7581
 20
1.4766
  0
VERTEX
  8
LAYER_1
 62
   250
 10
2.7775
 20
1.4936
  0
VERTEX
  8
LAYER_1
 62
   250
 10
2.7961
 20
1.5099
  0
VERTEX
  8
LAYER_1
 62
   250
 10
2.8141
 20
1.5255
  0
VERTEX
  8
LAYER_1
 62
   250
 10
2.8312
 20
1.5404
  0
VERTEX
  8
LAYER_1
 62
   250
 10
2.8477
 20
1.5545
  0
VERTEX
  8
LAYER_1
 62
   250
 10
2.8635
 20
1.5678
  0
VERTEX
  8
LAYER_1
 62
   250
 10
2.8786
 20
1.5804
  0
VERTEX
  8
LAYER_1
 62
   250
 10
2.8926
 20
1.5926
  0
VERTEX
  8
LAYER_1
 62
   250
 10
2.9577
 20
1.6533
  0
VERTEX
  8
LAYER_1
 62
   250
 10
3.0181
 20
1.7149
  0
VERTEX
  8
LAYER_1
 62
   250
 10
3.0737
 20
1.7777
  0
VERTEX
  8
LAYER_1
 62
   250
 10
3.1247
 20
1.8416
  0
VERTEX
  8
LAYER_1
 62
   250
 10
3.171
 20
1.9065
  0
VERTEX
  8
LAYER_1
 62
   250
 10
3.2126
 20
1.9725
  0
VERTEX
  8
LAYER_1
 62
   250
 10
3.2497
 20
2.0394
  0
VERTEX
  8
LAYER_1
 62
   250
 10
3.2822
 20
2.1073
  0
VERTEX
  8
LAYER_1
 62
   250
 10
3.3096
 20
2.1753
  0
VERTEX
  8
LAYER_1
 62
   250
 10
3.3314
 20
2.2421
  0
VERTEX
  8
LAYER_1
 62
   250
 10
3.3478
 20
2.308
  0
VERTEX
  8
LAYER_1
 62
   250
 10
3.3587
 20
2.3728
  0
VERTEX
  8
LAYER_1
 62
   250
 10
3.364
 20
2.4366
  0
VERTEX
  8
LAYER_1
 62
   250
 10
3.3638
 20
2.4994
  0
VERTEX
  8
LAYER_1
 62
   250
 10
3.3582
 20
2.5612
  0
VERTEX
  8
LAYER_1
 62
   250
 10
3.3471
 20
2.622
  0
VERTEX
  8
LAYER_1
 62
   250
 10
3.3305
 20
2.6811
  0
VERTEX
  8
LAYER_1
 62
   250
 10
3.3086
 20
2.7377
  0
VERTEX
  8
LAYER_1
 62
   250
 10
3.2812
 20
2.7919
  0
VERTEX
  8
LAYER_1
 62
   250
 10
3.2485
 20
2.8435
  0
VERTEX
  8
LAYER_1
 62
   250
 10
3.2106
 20
2.8927
  0
VERTEX
  8
LAYER_1
 62
   250
 10
3.1671
 20
2.9394
  0
VERTEX
  8
LAYER_1
 62
   250
 10
3.1183
 20
2.9836
  0
VERTEX
  8
LAYER_1
 62
   250
 10
3.0642
 20
3.0255
  0
VERTEX
  8
LAYER_1
 62
   250
 10
3.0043
 20
3.0637
  0
VERTEX
  8
LAYER_1
 62
   250
 10
2.9381
 20
3.0976
  0
VERTEX
  8
LAYER_1
 62
   250
 10
2.8658
 20
3.127
  0
VERTEX
  8
LAYER_1
 62
   250
 10
2.7871
 20
3.1519
  0
VERTEX
  8
LAYER_1
 62
   250
 10
2.7023
 20
3.1722
  0
VERTEX
  8
LAYER_1
 62
   250
 10
2.6113
 20
3.1881
  0
VERTEX
  8
LAYER_1
 62
   250
 10
2.5139
 20
3.1995
  0
VERTEX
  8
LAYER_1
 62
   250
 10
2.4104
 20
3.2064
  0
VERTEX
  8
LAYER_1
 62
   250
 10
2.3053
 20
3.2085
  0
VERTEX
  8
LAYER_1
 62
   250
 10
2.2035
 20
3.2055
  0
VERTEX
  8
LAYER_1
 62
   250
 10
2.1047
 20
3.1975
  0
VERTEX
  8
LAYER_1
 62
   250
 10
2.0092
 20
3.1843
  0
VERTEX
  8
LAYER_1
 62
   250
 10
1.917
 20
3.1662
  0
VERTEX
  8
LAYER_1
 62
   250
 10
1.8278
 20
3.1429
  0
VERTEX
  8
LAYER_1
 62
   250
 10
1.7419
 20
3.1147
  0
VERTEX
  8
LAYER_1
 62
   250
 10
1.6591
 20
3.0812
  0
VERTEX
  8
LAYER_1
 62
   250
 10
1.5793
 20
3.0436
  0
VERTEX
  8
LAYER_1
 62
   250
 10
1.5025
 20
3.0025
  0
VERTEX
  8
LAYER_1
 62
   250
 10
1.4287
 20
2.9578
  0
VERTEX
  8
LAYER_1
 62
   250
 10
1.3576
 20
2.9097
  0
VERTEX
  8
LAYER_1
 62
   250
 10
1.2896
 20
2.8581
  0
VERTEX
  8
LAYER_1
 62
   250
 10
1.2244
 20
2.803
  0
VERTEX
  8
LAYER_1
 62
   250
 10
1.162
 20
2.7444
  0
VERTEX
  8
LAYER_1
 62
   250
 10
1.1026
 20
2.6823
  0
VERTEX
  8
LAYER_1
 62
   250
 10
1.0462
 20
2.6172
  0
VERTEX
  8
LAYER_1
 62
   250
 10
0.9925
 20
2.549
  0
VERTEX
  8
LAYER_1
 62
   250
 10
0.9418
 20
2.4781
  0
VERTEX
  8
LAYER_1
 62
   250
 10
0.894
 20
2.4041
  0
VERTEX
  8
LAYER_1
 62
   250
 10
0.8491
 20
2.3274
  0
VERTEX
  8
LAYER_1
 62
   250
 10
0.807
 20
2.2476
  0
VERTEX
  8
LAYER_1
 62
   250
 10
0.7679
 20
2.1651
  0
VERTEX
  8
LAYER_1
 62
   250
 10
0.7316
 20
2.0795
  0
VERTEX
  8
LAYER_1
 62
   250
 10
0.6984
 20
1.9921
  0
VERTEX
  8
LAYER_1
 62
   250
 10
0.6684
 20
1.9035
  0
VERTEX
  8
LAYER_1
 62
   250
 10
0.6416
 20
1.8141
  0
VERTEX
  8
LAYER_1
 62
   250
 10
0.618
 20
1.7235
  0
VERTEX
  8
LAYER_1
 62
   250
 10
0.5979
 20
1.6321
  0
VERTEX
  8
LAYER_1
 62
   250
 10
0.5808
 20
1.5395
  0
VERTEX
  8
LAYER_1
 62
   250
 10
0.5667
 20
1.446
  0
VERTEX
  8
LAYER_1
 62
   250
 10
0.5554
 20
1.3514
  0
VERTEX
  8
LAYER_1
 62
   250
 10
0.5358
 20
1.1483
  0
VERTEX
  8
LAYER_1
 62
   250
 10
0.5225
 20
0.9655
  0
VERTEX
  8
LAYER_1
 62
   250
 10
0.5164
 20
0.7961
  0
VERTEX
  8
LAYER_1
 62
   250
 10
0.5178
 20
0.6331
  0
VERTEX
  8
LAYER_1
 62
   250
 10
0.5273
 20
0.4695
  0
VERTEX
  8
LAYER_1
 62
   250
 10
0.5457
 20
0.2982
  0
VERTEX
  8
LAYER_1
 62
   250
 10
0.5734
 20
0.1123
  0
VERTEX
  8
LAYER_1
 62
   250
 10
0.611
 20
-0.0955
  0
VERTEX
  8
LAYER_1
 62
   250
 10
0.7177
 20
-0.0743
  0
VERTEX
  8
LAYER_1
 62
   250
 10
0.8241
 20
-0.0523
  0
VERTEX
  8
LAYER_1
 62
   250
 10
0.9303
 20
-0.0297
  0
VERTEX
  8
LAYER_1
 62
   250
 10
1.0365
 20
-0.0063
  0
VERTEX
  8
LAYER_1
 62
   250
 10
1.1425
 20
0.0179
  0
VERTEX
  8
LAYER_1
 62
   250
 10
1.2484
 20
0.0427
  0
VERTEX
  8
LAYER_1
 62
   250
 10
1.3541
 20
0.0683
  0
VERTEX
  8
LAYER_1
 62
   250
 10
1.4597
 20
0.0946
  0
VERTEX
  8
LAYER_1
 62
   250
 10
1.5653
 20
0.1212
  0
VERTEX
  8
LAYER_1
 62
   250
 10
1.6708
 20
0.1476
  0
VERTEX
  8
LAYER_1
 62
   250
 10
1.7762
 20
0.1739
  0
VERTEX
  8
LAYER_1
 62
   250
 10
1.8817
 20
0.2001
  0
VERTEX
  8
LAYER_1
 62
   250
 10
1.9872
 20
0.2261
  0
VERTEX
  8
LAYER_1
 62
   250
 10
2.0928
 20
0.252
  0
VERTEX
  8
LAYER_1
 62
   250
 10
2.1982
 20
0.2778
  0
VERTEX
  8
LAYER_1
 62
   250
 10
2.3037
 20
0.3033
  0
VERTEX
  8
LAYER_1
 62
   250
 10
2.4092
 20
0.3285
  0
VERTEX
  8
LAYER_1
 62
   250
 10
2.5147
 20
0.3532
  0
VERTEX
  8
LAYER_1
 62
   250
 10
2.6202
 20
0.3772
  0
VERTEX
  8
LAYER_1
 62
   250
 10
2.7256
 20
0.4007
  0
VERTEX
  8
LAYER_1
 62
   250
 10
2.8312
 20
0.4237
  0
VERTEX
  8
LAYER_1
 62
   250
 10
2.9367
 20
0.446
  0
VERTEX
  8
LAYER_1
 62
   250
 10
3.0422
 20
0.4677
  0
VERTEX
  8
LAYER_1
 62
   250
 10
3.1477
 20
0.4888
  0
VERTEX
  8
LAYER_1
 62
   250
 10
3.2534
 20
0.5091
  0
VERTEX
  8
LAYER_1
 62
   250
 10
3.3596
 20
0.5283
  0
VERTEX
  8
LAYER_1
 62
   250
 10
3.4662
 20
0.5462
  0
VERTEX
  8
LAYER_1
 62
   250
 10
3.5732
 20
0.563
  0
VERTEX
  8
LAYER_1
 62
   250
 10
3.6805
 20
0.5793
  0
VERTEX
  8
LAYER_1
 62
   250
 10
3.7884
 20
0.5949
  0
VERTEX
  8
LAYER_1
 62
   250
 10
3.8967
 20
0.6084
  0
VERTEX
  8
LAYER_1
 62
   250
 10
4.0056
 20
0.6187
  0
VERTEX
  8
LAYER_1
 62
   250
 10
4.028
 20
0.6192
  0
VERTEX
  8
LAYER_1
 62
   250
 10
4.0485
 20
0.6177
  0
VERTEX
  8
LAYER_1
 62
   250
 10
4.0673
 20
0.6141
  0
VERTEX
  8
LAYER_1
 62
   250
 10
4.0844
 20
0.6088
  0
VERTEX
  8
LAYER_1
 62
   250
 10
4.0997
 20
0.6019
  0
VERTEX
  8
LAYER_1
 62
   250
 10
4.1134
 20
0.5933
  0
VERTEX
  8
LAYER_1
 62
   250
 10
4.1252
 20
0.5834
  0
VERTEX
  8
LAYER_1
 62
   250
 10
4.1354
 20
0.5724
  0
VERTEX
  8
LAYER_1
 62
   250
 10
4.1439
 20
0.5605
  0
VERTEX
  8
LAYER_1
 62
   250
 10
4.1507
 20
0.548
  0
VERTEX
  8
LAYER_1
 62
   250
 10
4.156
 20
0.5349
  0
VERTEX
  8
LAYER_1
 62
   250
 10
4.1597
 20
0.5213
  0
VERTEX
  8
LAYER_1
 62
   250
 10
4.1618
 20
0.5071
  0
VERTEX
  8
LAYER_1
 62
   250
 10
4.1623
 20
0.4923
  0
VERTEX
  8
LAYER_1
 62
   250
 10
4.1613
 20
0.477
  0
VERTEX
  8
LAYER_1
 62
   250
 10
4.1586
 20
0.461
  0
VERTEX
  8
LAYER_1
 62
   250
 10
4.1546
 20
0.4451
  0
VERTEX
  8
LAYER_1
 62
   250
 10
4.1494
 20
0.4293
  0
VERTEX
  8
LAYER_1
 62
   250
 10
4.1431
 20
0.4138
  0
VERTEX
  8
LAYER_1
 62
   250
 10
4.1355
 20
0.3985
  0
VERTEX
  8
LAYER_1
 62
   250
 10
4.1269
 20
0.3836
  0
VERTEX
  8
LAYER_1
 62
   250
 10
4.117
 20
0.3689
  0
VERTEX
  8
LAYER_1
 62
   250
 10
4.106
 20
0.3546
  0
VERTEX
  8
LAYER_1
 62
   250
 10
4.0937
 20
0.3404
  0
VERTEX
  8
LAYER_1
 62
   250
 10
4.0807
 20
0.3273
  0
VERTEX
  8
LAYER_1
 62
   250
 10
4.0668
 20
0.3156
  0
VERTEX
  8
LAYER_1
 62
   250
 10
4.0523
 20
0.3053
  0
VERTEX
  8
LAYER_1
 62
   250
 10
4.037
 20
0.2964
  0
VERTEX
  8
LAYER_1
 62
   250
 10
4.0209
 20
0.2887
  0
VERTEX
  8
LAYER_1
 62
   250
 10
4.0043
 20
0.2822
  0
VERTEX
  8
LAYER_1
 62
   250
 10
3.9869
 20
0.2776
  0
VERTEX
  8
LAYER_1
 62
   250
 10
3.9686
 20
0.2755
  0
VERTEX
  8
LAYER_1
 62
   250
 10
3.7517
 20
0.2678
  0
VERTEX
  8
LAYER_1
 62
   250
 10
3.5368
 20
0.2557
  0
VERTEX
  8
LAYER_1
 62
   250
 10
3.324
 20
0.2391
  0
VERTEX
  8
LAYER_1
 62
   250
 10
3.113
 20
0.2178
  0
VERTEX
  8
LAYER_1
 62
   250
 10
2.9042
 20
0.192
  0
VERTEX
  8
LAYER_1
 62
   250
 10
2.6974
 20
0.1612
  0
VERTEX
  8
LAYER_1
 62
   250
 10
2.4926
 20
0.1258
  0
VERTEX
  8
LAYER_1
 62
   250
 10
2.2898
 20
0.0854
  0
VERTEX
  8
LAYER_1
 62
   250
 10
2.0877
 20
0.0418
  0
VERTEX
  8
LAYER_1
 62
   250
 10
1.8847
 20
-0.003
  0
VERTEX
  8
LAYER_1
 62
   250
 10
1.6807
 20
-0.0492
  0
VERTEX
  8
LAYER_1
 62
   250
 10
1.476
 20
-0.0966
  0
VERTEX
  8
LAYER_1
 62
   250
 10
1.2703
 20
-0.1454
  0
VERTEX
  8
LAYER_1
 62
   250
 10
1.0639
 20
-0.1954
  0
VERTEX
  8
LAYER_1
 62
   250
 10
0.8564
 20
-0.2468
  0
VERTEX
  8
LAYER_1
 62
   250
 10
0.6482
 20
-0.2995
  0
VERTEX
  8
LAYER_1
 62
   250
 10
0.6695
 20
-0.4036
  0
VERTEX
  8
LAYER_1
 62
   250
 10
0.6916
 20
-0.507
  0
VERTEX
  8
LAYER_1
 62
   250
 10
0.7147
 20
-0.61
  0
VERTEX
  8
LAYER_1
 62
   250
 10
0.7386
 20
-0.7122
  0
VERTEX
  8
LAYER_1
 62
   250
 10
0.7635
 20
-0.8139
  0
VERTEX
  8
LAYER_1
 62
   250
 10
0.7891
 20
-0.9151
  0
VERTEX
  8
LAYER_1
 62
   250
 10
0.8156
 20
-1.0157
  0
VERTEX
  8
LAYER_1
 62
   250
 10
0.8429
 20
-1.1157
  0
VERTEX
  8
LAYER_1
 62
   250
 10
0.8489
 20
-1.1367
  0
VERTEX
  8
LAYER_1
 62
   250
 10
0.8556
 20
-1.1597
  0
VERTEX
  8
LAYER_1
 62
   250
 10
0.8632
 20
-1.1849
  0
VERTEX
  8
LAYER_1
 62
   250
 10
0.8715
 20
-1.2119
  0
VERTEX
  8
LAYER_1
 62
   250
 10
0.8805
 20
-1.2408
  0
VERTEX
  8
LAYER_1
 62
   250
 10
0.8902
 20
-1.2713
  0
VERTEX
  8
LAYER_1
 62
   250
 10
0.9006
 20
-1.3034
  0
VERTEX
  8
LAYER_1
 62
   250
 10
0.9116
 20
-1.3369
  0
VERTEX
  8
LAYER_1
 62
   250
 10
0.9292
 20
-1.3897
  0
VERTEX
  8
LAYER_1
 62
   250
 10
0.9481
 20
-1.445
  0
VERTEX
  8
LAYER_1
 62
   250
 10
0.9681
 20
-1.5022
  0
VERTEX
  8
LAYER_1
 62
   250
 10
0.9892
 20
-1.5611
  0
VERTEX
  8
LAYER_1
 62
   250
 10
1.0111
 20
-1.621
  0
VERTEX
  8
LAYER_1
 62
   250
 10
1.0337
 20
-1.6815
  0
VERTEX
  8
LAYER_1
 62
   250
 10
1.0571
 20
-1.7424
  0
VERTEX
  8
LAYER_1
 62
   250
 10
1.081
 20
-1.8028
  0
VERTEX
  8
LAYER_1
 62
   250
 10
1.0964
 20
-1.8409
  0
VERTEX
  8
LAYER_1
 62
   250
 10
1.1119
 20
-1.8787
  0
VERTEX
  8
LAYER_1
 62
   250
 10
1.1277
 20
-1.916
  0
VERTEX
  8
LAYER_1
 62
   250
 10
1.1434
 20
-1.9526
  0
VERTEX
  8
LAYER_1
 62
   250
 10
1.1592
 20
-1.9884
  0
VERTEX
  8
LAYER_1
 62
   250
 10
1.1751
 20
-2.0234
  0
VERTEX
  8
LAYER_1
 62
   250
 10
1.1911
 20
-2.0575
  0
VERTEX
  8
LAYER_1
 62
   250
 10
1.2068
 20
-2.0904
  0
VERTEX
  8
LAYER_1
 62
   250
 10
1.2272
 20
-2.1313
  0
VERTEX
  8
LAYER_1
 62
   250
 10
1.2475
 20
-2.17
  0
VERTEX
  8
LAYER_1
 62
   250
 10
1.2676
 20
-2.2061
  0
VERTEX
  8
LAYER_1
 62
   250
 10
1.2874
 20
-2.2395
  0
VERTEX
  8
LAYER_1
 62
   250
 10
1.3067
 20
-2.2699
  0
VERTEX
  8
LAYER_1
 62
   250
 10
1.3258
 20
-2.2969
  0
VERTEX
  8
LAYER_1
 62
   250
 10
1.3443
 20
-2.3204
  0
VERTEX
  8
LAYER_1
 62
   250
 10
1.3623
 20
-2.34
  0
VERTEX
  8
LAYER_1
 62
   250
 10
1.3767
 20
-2.357
  0
VERTEX
  8
LAYER_1
 62
   250
 10
1.3873
 20
-2.3754
  0
VERTEX
  8
LAYER_1
 62
   250
 10
1.394
 20
-2.3952
  0
VERTEX
  8
LAYER_1
 62
   250
 10
1.3971
 20
-2.4165
  0
VERTEX
  8
LAYER_1
 62
   250
 10
1.3963
 20
-2.4393
  0
VERTEX
  8
LAYER_1
 62
   250
 10
1.3918
 20
-2.4635
  0
VERTEX
  8
LAYER_1
 62
   250
 10
1.3837
 20
-2.4891
  0
VERTEX
  8
LAYER_1
 62
   250
 10
1.3716
 20
-2.5162
  0
VERTEX
  8
LAYER_1
 62
   250
 10
1.3568
 20
-2.5426
  0
VERTEX
  8
LAYER_1
 62
   250
 10
1.3403
 20
-2.5661
  0
VERTEX
  8
LAYER_1
 62
   250
 10
1.322
 20
-2.5866
  0
VERTEX
  8
LAYER_1
 62
   250
 10
1.302
 20
-2.6043
  0
VERTEX
  8
LAYER_1
 62
   250
 10
1.2803
 20
-2.6196
  0
VERTEX
  8
LAYER_1
 62
   250
 10
1.257
 20
-2.6325
  0
VERTEX
  8
LAYER_1
 62
   250
 10
1.2318
 20
-2.6417
  0
VERTEX
  8
LAYER_1
 62
   250
 10
1.2046
 20
-2.6461
  0
VERTEX
  8
LAYER_1
 62
   250
 10
1.1747
 20
-2.6435
  0
VERTEX
  8
LAYER_1
 62
   250
 10
1.1447
 20
-2.6327
  0
VERTEX
  8
LAYER_1
 62
   250
 10
1.115
 20
-2.614
  0
VERTEX
  8
LAYER_1
 62
   250
 10
1.0853
 20
-2.5874
  0
VERTEX
  8
LAYER_1
 62
   250
 10
1.0558
 20
-2.5531
  0
VERTEX
  8
LAYER_1
 62
   250
 10
1.0264
 20
-2.5111
  0
VERTEX
  8
LAYER_1
 62
   250
 10
0.9972
 20
-2.4617
  0
VERTEX
  8
LAYER_1
 62
   250
 10
0.9681
 20
-2.4049
  0
VERTEX
  8
LAYER_1
 62
   250
 10
0.9396
 20
-2.3436
  0
VERTEX
  8
LAYER_1
 62
   250
 10
0.9116
 20
-2.2798
  0
VERTEX
  8
LAYER_1
 62
   250
 10
0.8844
 20
-2.2136
  0
VERTEX
  8
LAYER_1
 62
   250
 10
0.858
 20
-2.1452
  0
VERTEX
  8
LAYER_1
 62
   250
 10
0.8323
 20
-2.0746
  0
VERTEX
  8
LAYER_1
 62
   250
 10
0.8073
 20
-2.0015
  0
VERTEX
  8
LAYER_1
 62
   250
 10
0.783
 20
-1.9261
  0
VERTEX
  8
LAYER_1
 62
   250
 10
0.7594
 20
-1.8484
  0
VERTEX
  8
LAYER_1
 62
   250
 10
0.7367
 20
-1.7701
  0
VERTEX
  8
LAYER_1
 62
   250
 10
0.7148
 20
-1.6925
  0
VERTEX
  8
LAYER_1
 62
   250
 10
0.6938
 20
-1.6159
  0
VERTEX
  8
LAYER_1
 62
   250
 10
0.6736
 20
-1.54
  0
VERTEX
  8
LAYER_1
 62
   250
 10
0.6544
 20
-1.4652
  0
VERTEX
  8
LAYER_1
 62
   250
 10
0.6359
 20
-1.3911
  0
VERTEX
  8
LAYER_1
 62
   250
 10
0.6184
 20
-1.3179
  0
VERTEX
  8
LAYER_1
 62
   250
 10
0.6017
 20
-1.2456
  0
VERTEX
  8
LAYER_1
 62
   250
 10
0.5863
 20
-1.1766
  0
VERTEX
  8
LAYER_1
 62
   250
 10
0.5722
 20
-1.1134
  0
VERTEX
  8
LAYER_1
 62
   250
 10
0.5596
 20
-1.056
  0
VERTEX
  8
LAYER_1
 62
   250
 10
0.5485
 20
-1.0045
  0
VERTEX
  8
LAYER_1
 62
   250
 10
0.5387
 20
-0.9587
  0
VERTEX
  8
LAYER_1
 62
   250
 10
0.5303
 20
-0.9187
  0
VERTEX
  8
LAYER_1
 62
   250
 10
0.5233
 20
-0.8845
  0
VERTEX
  8
LAYER_1
 62
   250
 10
0.5183
 20
-0.856
  0
VERTEX
  8
LAYER_1
 62
   250
 10
0.5134
 20
-0.8259
  0
VERTEX
  8
LAYER_1
 62
   250
 10
0.5081
 20
-0.7956
  0
VERTEX
  8
LAYER_1
 62
   250
 10
0.5028
 20
-0.7651
  0
VERTEX
  8
LAYER_1
 62
   250
 10
0.4972
 20
-0.7344
  0
VERTEX
  8
LAYER_1
 62
   250
 10
0.4914
 20
-0.7036
  0
VERTEX
  8
LAYER_1
 62
   250
 10
0.4853
 20
-0.6726
  0
VERTEX
  8
LAYER_1
 62
   250
 10
0.4788
 20
-0.6416
  0
VERTEX
  8
LAYER_1
 62
   250
 10
0.472
 20
-0.6103
  0
VERTEX
  8
LAYER_1
 62
   250
 10
0.4652
 20
-0.5789
  0
VERTEX
  8
LAYER_1
 62
   250
 10
0.4586
 20
-0.5473
  0
VERTEX
  8
LAYER_1
 62
   250
 10
0.4524
 20
-0.5157
  0
VERTEX
  8
LAYER_1
 62
   250
 10
0.4465
 20
-0.4838
  0
VERTEX
  8
LAYER_1
 62
   250
 10
0.4409
 20
-0.4519
  0
VERTEX
  8
LAYER_1
 62
   250
 10
0.4355
 20
-0.4198
  0
VERTEX
  8
LAYER_1
 62
   250
 10
0.4304
 20
-0.3877
  0
VERTEX
  8
LAYER_1
 62
   250
 10
0.4255
 20
-0.3552
  0
VERTEX
  8
LAYER_1
 62
   250
 10
0.3954
 20
-0.3622
  0
VERTEX
  8
LAYER_1
 62
   250
 10
0.3652
 20
-0.3691
  0
VERTEX
  8
LAYER_1
 62
   250
 10
0.3351
 20
-0.3761
  0
VERTEX
  8
LAYER_1
 62
   250
 10
0.3049
 20
-0.383
  0
VERTEX
  8
LAYER_1
 62
   250
 10
0.2748
 20
-0.39
  0
VERTEX
  8
LAYER_1
 62
   250
 10
0.2446
 20
-0.397
  0
VERTEX
  8
LAYER_1
 62
   250
 10
0.2145
 20
-0.4039
  0
VERTEX
  8
LAYER_1
 62
   250
 10
0.1844
 20
-0.4108
  0
VERTEX
  8
LAYER_1
 62
   250
 10
0.1426
 20
-0.4201
  0
VERTEX
  8
LAYER_1
 62
   250
 10
0.1009
 20
-0.4291
  0
VERTEX
  8
LAYER_1
 62
   250
 10
0.0591
 20
-0.438
  0
VERTEX
  8
LAYER_1
 62
   250
 10
0.0174
 20
-0.4467
  0
VERTEX
  8
LAYER_1
 62
   250
 10
-0.0243
 20
-0.4553
  0
VERTEX
  8
LAYER_1
 62
   250
 10
-0.066
 20
-0.4638
  0
VERTEX
  8
LAYER_1
 62
   250
 10
-0.1077
 20
-0.4722
  0
VERTEX
  8
LAYER_1
 62
   250
 10
-0.1495
 20
-0.4804
  0
VERTEX
  8
LAYER_1
 62
   250
 10
-0.1914
 20
-0.4884
  0
VERTEX
  8
LAYER_1
 62
   250
 10
-0.2336
 20
-0.4963
  0
VERTEX
  8
LAYER_1
 62
   250
 10
-0.276
 20
-0.5041
  0
VERTEX
  8
LAYER_1
 62
   250
 10
-0.3188
 20
-0.5117
  0
VERTEX
  8
LAYER_1
 62
   250
 10
-0.3618
 20
-0.5194
  0
VERTEX
  8
LAYER_1
 62
   250
 10
-0.4051
 20
-0.527
  0
VERTEX
  8
LAYER_1
 62
   250
 10
-0.4488
 20
-0.5342
  0
VERTEX
  8
LAYER_1
 62
   250
 10
-0.4927
 20
-0.5407
  0
VERTEX
  8
LAYER_1
 62
   250
 10
-0.5321
 20
-0.5456
  0
VERTEX
  8
LAYER_1
 62
   250
 10
-0.5717
 20
-0.5502
  0
VERTEX
  8
LAYER_1
 62
   250
 10
-0.6115
 20
-0.5545
  0
VERTEX
  8
LAYER_1
 62
   250
 10
-0.6514
 20
-0.5586
  0
VERTEX
  8
LAYER_1
 62
   250
 10
-0.6916
 20
-0.5624
  0
VERTEX
  8
LAYER_1
 62
   250
 10
-0.7318
 20
-0.5661
  0
VERTEX
  8
LAYER_1
 62
   250
 10
-0.7722
 20
-0.5696
  0
VERTEX
  8
LAYER_1
 62
   250
 10
-0.8126
 20
-0.5731
  0
VERTEX
  8
LAYER_1
 62
   250
 10
-0.8533
 20
-0.5767
  0
VERTEX
  8
LAYER_1
 62
   250
 10
-0.8942
 20
-0.5806
  0
VERTEX
  8
LAYER_1
 62
   250
 10
-0.9351
 20
-0.5848
  0
VERTEX
  8
LAYER_1
 62
   250
 10
-0.9761
 20
-0.589
  0
VERTEX
  8
LAYER_1
 62
   250
 10
-1.0174
 20
-0.5932
  0
VERTEX
  8
LAYER_1
 62
   250
 10
-1.0587
 20
-0.5976
  0
VERTEX
  8
LAYER_1
 62
   250
 10
-1.1003
 20
-0.6017
  0
VERTEX
  8
LAYER_1
 62
   250
 10
-1.1419
 20
-0.6056
  0
VERTEX
  8
LAYER_1
 62
   250
 10
-1.1527
 20
-0.6058
  0
VERTEX
  8
LAYER_1
 62
   250
 10
-1.1661
 20
-0.6047
  0
VERTEX
  8
LAYER_1
 62
   250
 10
-1.1816
 20
-0.6021
  0
VERTEX
  8
LAYER_1
 62
   250
 10
-1.1984
 20
-0.5978
  0
VERTEX
  8
LAYER_1
 62
   250
 10
-1.2157
 20
-0.5917
  0
VERTEX
  8
LAYER_1
 62
   250
 10
-1.233
 20
-0.5836
  0
VERTEX
  8
LAYER_1
 62
   250
 10
-1.2494
 20
-0.5734
  0
VERTEX
  8
LAYER_1
 62
   250
 10
-1.2643
 20
-0.5607
  0
VERTEX
  8
LAYER_1
 62
   250
 10
-1.2727
 20
-0.5524
  0
VERTEX
  8
LAYER_1
 62
   250
 10
-1.2803
 20
-0.5448
  0
VERTEX
  8
LAYER_1
 62
   250
 10
-1.2871
 20
-0.5376
  0
VERTEX
  8
LAYER_1
 62
   250
 10
-1.2932
 20
-0.5306
  0
VERTEX
  8
LAYER_1
 62
   250
 10
-1.2985
 20
-0.5237
  0
VERTEX
  8
LAYER_1
 62
   250
 10
-1.3029
 20
-0.5164
  0
VERTEX
  8
LAYER_1
 62
   250
 10
-1.3066
 20
-0.5086
  0
VERTEX
  8
LAYER_1
 62
   250
 10
-1.3094
 20
-0.5003
  0
VERTEX
  8
LAYER_1
 62
   250
 10
-1.311
 20
-0.4924
  0
VERTEX
  8
LAYER_1
 62
   250
 10
-1.3121
 20
-0.4837
  0
VERTEX
  8
LAYER_1
 62
   250
 10
-1.3125
 20
-0.474
  0
VERTEX
  8
LAYER_1
 62
   250
 10
-1.3123
 20
-0.4632
  0
VERTEX
  8
LAYER_1
 62
   250
 10
-1.3114
 20
-0.4511
  0
VERTEX
  8
LAYER_1
 62
   250
 10
-1.3097
 20
-0.4377
  0
VERTEX
  8
LAYER_1
 62
   250
 10
-1.3074
 20
-0.4228
  0
VERTEX
  8
LAYER_1
 62
   250
 10
-1.3042
 20
-0.4061
  0
SEQEND
  8
LAYER_1
 62
   250
  0
POLYLINE
  8
LAYER_1
 62
   250
 66
     1
 70
     1
  0
VERTEX
  8
LAYER_1
 62
   250
 10
1.4365
 20
1.3236
  0
VERTEX
  8
LAYER_1
 62
   250
 10
1.4363
 20
1.3287
  0
VERTEX
  8
LAYER_1
 62
   250
 10
1.4359
 20
1.3349
  0
VERTEX
  8
LAYER_1
 62
   250
 10
1.4351
 20
1.342
  0
VERTEX
  8
LAYER_1
 62
   250
 10
1.4341
 20
1.3502
  0
VERTEX
  8
LAYER_1
 62
   250
 10
1.4329
 20
1.3594
  0
VERTEX
  8
LAYER_1
 62
   250
 10
1.4313
 20
1.3697
  0
VERTEX
  8
LAYER_1
 62
   250
 10
1.4294
 20
1.3809
  0
VERTEX
  8
LAYER_1
 62
   250
 10
1.4272
 20
1.3932
  0
VERTEX
  8
LAYER_1
 62
   250
 10
1.4251
 20
1.4052
  0
VERTEX
  8
LAYER_1
 62
   250
 10
1.4232
 20
1.416
  0
VERTEX
  8
LAYER_1
 62
   250
 10
1.4215
 20
1.4255
  0
VERTEX
  8
LAYER_1
 62
   250
 10
1.4203
 20
1.4337
  0
VERTEX
  8
LAYER_1
 62
   250
 10
1.4193
 20
1.4407
  0
VERTEX
  8
LAYER_1
 62
   250
 10
1.4186
 20
1.4462
  0
VERTEX
  8
LAYER_1
 62
   250
 10
1.4181
 20
1.4505
  0
VERTEX
  8
LAYER_1
 62
   250
 10
1.4179
 20
1.4535
  0
VERTEX
  8
LAYER_1
 62
   250
 10
1.4142
 20
1.4698
  0
VERTEX
  8
LAYER_1
 62
   250
 10
1.4121
 20
1.4862
  0
VERTEX
  8
LAYER_1
 62
   250
 10
1.4119
 20
1.5028
  0
VERTEX
  8
LAYER_1
 62
   250
 10
1.4133
 20
1.5195
  0
VERTEX
  8
LAYER_1
 62
   250
 10
1.4164
 20
1.5364
  0
VERTEX
  8
LAYER_1
 62
   250
 10
1.4214
 20
1.5534
  0
VERTEX
  8
LAYER_1
 62
   250
 10
1.4281
 20
1.5706
  0
VERTEX
  8
LAYER_1
 62
   250
 10
1.4365
 20
1.5879
  0
VERTEX
  8
LAYER_1
 62
   250
 10
1.446
 20
1.6047
  0
VERTEX
  8
LAYER_1
 62
   250
 10
1.4562
 20
1.6204
  0
VERTEX
  8
LAYER_1
 62
   250
 10
1.4669
 20
1.635
  0
VERTEX
  8
LAYER_1
 62
   250
 10
1.4782
 20
1.6482
  0
VERTEX
  8
LAYER_1
 62
   250
 10
1.49
 20
1.6604
  0
VERTEX
  8
LAYER_1
 62
   250
 10
1.5025
 20
1.6714
  0
VERTEX
  8
LAYER_1
 62
   250
 10
1.5156
 20
1.6812
  0
VERTEX
  8
LAYER_1
 62
   250
 10
1.5292
 20
1.69
  0
VERTEX
  8
LAYER_1
 62
   250
 10
1.5432
 20
1.6973
  0
VERTEX
  8
LAYER_1
 62
   250
 10
1.5574
 20
1.7032
  0
VERTEX
  8
LAYER_1
 62
   250
 10
1.5716
 20
1.7077
  0
VERTEX
  8
LAYER_1
 62
   250
 10
1.586
 20
1.7108
  0
VERTEX
  8
LAYER_1
 62
   250
 10
1.6006
 20
1.7123
  0
VERTEX
  8
LAYER_1
 62
   250
 10
1.6152
 20
1.7125
  0
VERTEX
  8
LAYER_1
 62
   250
 10
1.6301
 20
1.7112
  0
VERTEX
  8
LAYER_1
 62
   250
 10
1.6451
 20
1.7085
  0
VERTEX
  8
LAYER_1
 62
   250
 10
1.6596
 20
1.704
  0
VERTEX
  8
LAYER_1
 62
   250
 10
1.6732
 20
1.6973
  0
VERTEX
  8
LAYER_1
 62
   250
 10
1.6858
 20
1.6884
  0
VERTEX
  8
LAYER_1
 62
   250
 10
1.6973
 20
1.6772
  0
VERTEX
  8
LAYER_1
 62
   250
 10
1.708
 20
1.6641
  0
VERTEX
  8
LAYER_1
 62
   250
 10
1.718
 20
1.6488
  0
VERTEX
  8
LAYER_1
 62
   250
 10
1.7266
 20
1.6311
  0
VERTEX
  8
LAYER_1
 62
   250
 10
1.7332
 20
1.6111
  0
VERTEX
  8
LAYER_1
 62
   250
 10
1.7424
 20
1.5713
  0
VERTEX
  8
LAYER_1
 62
   250
 10
1.75
 20
1.5299
  0
VERTEX
  8
LAYER_1
 62
   250
 10
1.7561
 20
1.4872
  0
VERTEX
  8
LAYER_1
 62
   250
 10
1.7607
 20
1.4432
  0
VERTEX
  8
LAYER_1
 62
   250
 10
1.7638
 20
1.3979
  0
VERTEX
  8
LAYER_1
 62
   250
 10
1.7656
 20
1.3512
  0
VERTEX
  8
LAYER_1
 62
   250
 10
1.7662
 20
1.3032
  0
VERTEX
  8
LAYER_1
 62
   250
 10
1.7657
 20
1.254
  0
VERTEX
  8
LAYER_1
 62
   250
 10
1.7644
 20
1.2042
  0
VERTEX
  8
LAYER_1
 62
   250
 10
1.7623
 20
1.154
  0
VERTEX
  8
LAYER_1
 62
   250
 10
1.7597
 20
1.1039
  0
VERTEX
  8
LAYER_1
 62
   250
 10
1.7565
 20
1.0535
  0
VERTEX
  8
LAYER_1
 62
   250
 10
1.7527
 20
1.003
  0
VERTEX
  8
LAYER_1
 62
   250
 10
1.7484
 20
0.9523
  0
VERTEX
  8
LAYER_1
 62
   250
 10
1.7435
 20
0.9016
  0
VERTEX
  8
LAYER_1
 62
   250
 10
1.7379
 20
0.8505
  0
VERTEX
  8
LAYER_1
 62
   250
 10
1.732
 20
0.8
  0
VERTEX
  8
LAYER_1
 62
   250
 10
1.7257
 20
0.75
  0
VERTEX
  8
LAYER_1
 62
   250
 10
1.7193
 20
0.7008
  0
VERTEX
  8
LAYER_1
 62
   250
 10
1.7124
 20
0.6524
  0
VERTEX
  8
LAYER_1
 62
   250
 10
1.7053
 20
0.6047
  0
VERTEX
  8
LAYER_1
 62
   250
 10
1.6979
 20
0.5576
  0
VERTEX
  8
LAYER_1
 62
   250
 10
1.6903
 20
0.5113
  0
VERTEX
  8
LAYER_1
 62
   250
 10
1.6823
 20
0.4657
  0
VERTEX
  8
LAYER_1
 62
   250
 10
1.6745
 20
0.4214
  0
VERTEX
  8
LAYER_1
 62
   250
 10
1.6675
 20
0.379
  0
VERTEX
  8
LAYER_1
 62
   250
 10
1.6612
 20
0.3385
  0
VERTEX
  8
LAYER_1
 62
   250
 10
1.6556
 20
0.2998
  0
VERTEX
  8
LAYER_1
 62
   250
 10
1.651
 20
0.2631
  0
VERTEX
  8
LAYER_1
 62
   250
 10
1.6471
 20
0.2283
  0
VERTEX
  8
LAYER_1
 62
   250
 10
1.6437
 20
0.1953
  0
VERTEX
  8
LAYER_1
 62
   250
 10
1.6405
 20
0.1642
  0
VERTEX
  8
LAYER_1
 62
   250
 10
1.62
 20
-0.0482
  0
VERTEX
  8
LAYER_1
 62
   250
 10
1.6039
 20
-0.2494
  0
VERTEX
  8
LAYER_1
 62
   250
 10
1.5923
 20
-0.4394
  0
VERTEX
  8
LAYER_1
 62
   250
 10
1.5853
 20
-0.6184
  0
VERTEX
  8
LAYER_1
 62
   250
 10
1.5829
 20
-0.786
  0
VERTEX
  8
LAYER_1
 62
   250
 10
1.5851
 20
-0.9426
  0
VERTEX
  8
LAYER_1
 62
   250
 10
1.592
 20
-1.0881
  0
VERTEX
  8
LAYER_1
 62
   250
 10
1.6034
 20
-1.2223
  0
VERTEX
  8
LAYER_1
 62
   250
 10
1.6208
 20
-1.3467
  0
VERTEX
  8
LAYER_1
 62
   250
 10
1.6452
 20
-1.4626
  0
VERTEX
  8
LAYER_1
 62
   250
 10
1.6765
 20
-1.5699
  0
VERTEX
  8
LAYER_1
 62
   250
 10
1.7148
 20
-1.6687
  0
VERTEX
  8
LAYER_1
 62
   250
 10
1.7599
 20
-1.7588
  0
VERTEX
  8
LAYER_1
 62
   250
 10
1.8121
 20
-1.8406
  0
VERTEX
  8
LAYER_1
 62
   250
 10
1.8713
 20
-1.9136
  0
VERTEX
  8
LAYER_1
 62
   250
 10
1.9373
 20
-1.9783
  0
VERTEX
  8
LAYER_1
 62
   250
 10
1.9385
 20
-1.9783
  0
VERTEX
  8
LAYER_1
 62
   250
 10
1.9397
 20
-1.9783
  0
VERTEX
  8
LAYER_1
 62
   250
 10
1.9408
 20
-1.9783
  0
VERTEX
  8
LAYER_1
 62
   250
 10
1.942
 20
-1.9783
  0
VERTEX
  8
LAYER_1
 62
   250
 10
1.9432
 20
-1.9783
  0
VERTEX
  8
LAYER_1
 62
   250
 10
1.9444
 20
-1.9783
  0
VERTEX
  8
LAYER_1
 62
   250
 10
1.9455
 20
-1.9783
  0
VERTEX
  8
LAYER_1
 62
   250
 10
1.9466
 20
-1.9783
  0
VERTEX
  8
LAYER_1
 62
   250
 10
1.9689
 20
-1.9789
  0
VERTEX
  8
LAYER_1
 62
   250
 10
1.9893
 20
-1.9809
  0
VERTEX
  8
LAYER_1
 62
   250
 10
2.0077
 20
-1.9841
  0
VERTEX
  8
LAYER_1
 62
   250
 10
2.0243
 20
-1.9887
  0
VERTEX
  8
LAYER_1
 62
   250
 10
2.0389
 20
-1.9945
  0
VERTEX
  8
LAYER_1
 62
   250
 10
2.0518
 20
-2.0017
  0
VERTEX
  8
LAYER_1
 62
   250
 10
2.0628
 20
-2.0102
  0
VERTEX
  8
LAYER_1
 62
   250
 10
2.0718
 20
-2.02
  0
VERTEX
  8
LAYER_1
 62
   250
 10
2.0793
 20
-2.0307
  0
VERTEX
  8
LAYER_1
 62
   250
 10
2.0857
 20
-2.0417
  0
VERTEX
  8
LAYER_1
 62
   250
 10
2.0909
 20
-2.0532
  0
VERTEX
  8
LAYER_1
 62
   250
 10
2.0949
 20
-2.0652
  0
VERTEX
  8
LAYER_1
 62
   250
 10
2.0977
 20
-2.0776
  0
VERTEX
  8
LAYER_1
 62
   250
 10
2.0995
 20
-2.0905
  0
VERTEX
  8
LAYER_1
 62
   250
 10
2.1001
 20
-2.1038
  0
VERTEX
  8
LAYER_1
 62
   250
 10
2.0996
 20
-2.1174
  0
VERTEX
  8
LAYER_1
 62
   250
 10
2.098
 20
-2.1313
  0
VERTEX
  8
LAYER_1
 62
   250
 10
2.0953
 20
-2.1452
  0
VERTEX
  8
LAYER_1
 62
   250
 10
2.0916
 20
-2.1591
  0
VERTEX
  8
LAYER_1
 62
   250
 10
2.0869
 20
-2.173
  0
VERTEX
  8
LAYER_1
 62
   250
 10
2.0812
 20
-2.1869
  0
VERTEX
  8
LAYER_1
 62
   250
 10
2.0744
 20
-2.2008
  0
VERTEX
  8
LAYER_1
 62
   250
 10
2.0666
 20
-2.2147
  0
VERTEX
  8
LAYER_1
 62
   250
 10
2.0578
 20
-2.2286
  0
VERTEX
  8
LAYER_1
 62
   250
 10
2.0483
 20
-2.2421
  0
VERTEX
  8
LAYER_1
 62
   250
 10
2.0381
 20
-2.2547
  0
VERTEX
  8
LAYER_1
 62
   250
 10
2.0274
 20
-2.2664
  0
VERTEX
  8
LAYER_1
 62
   250
 10
2.0161
 20
-2.2773
  0
VERTEX
  8
LAYER_1
 62
   250
 10
2.0044
 20
-2.2878
  0
VERTEX
  8
LAYER_1
 62
   250
 10
1.9922
 20
-2.2978
  0
VERTEX
  8
LAYER_1
 62
   250
 10
1.9793
 20
-2.3063
  0
VERTEX
  8
LAYER_1
 62
   250
 10
1.9651
 20
-2.3122
  0
VERTEX
  8
LAYER_1
 62
   250
 10
1.957
 20
-2.3145
  0
VERTEX
  8
LAYER_1
 62
   250
 10
1.9489
 20
-2.3168
  0
VERTEX
  8
LAYER_1
 62
   250
 10
1.9408
 20
-2.3192
  0
VERTEX
  8
LAYER_1
 62
   250
 10
1.9327
 20
-2.3214
  0
VERTEX
  8
LAYER_1
 62
   250
 10
1.9245
 20
-2.3238
  0
VERTEX
  8
LAYER_1
 62
   250
 10
1.9164
 20
-2.3261
  0
VERTEX
  8
LAYER_1
 62
   250
 10
1.9083
 20
-2.3285
  0
VERTEX
  8
LAYER_1
 62
   250
 10
1.9002
 20
-2.3307
  0
VERTEX
  8
LAYER_1
 62
   250
 10
1.8818
 20
-2.3325
  0
VERTEX
  8
LAYER_1
 62
   250
 10
1.8637
 20
-2.333
  0
VERTEX
  8
LAYER_1
 62
   250
 10
1.8459
 20
-2.3324
  0
VERTEX
  8
LAYER_1
 62
   250
 10
1.8283
 20
-2.3307
  0
VERTEX
  8
LAYER_1
 62
   250
 10
1.8112
 20
-2.3278
  0
VERTEX
  8
LAYER_1
 62
   250
 10
1.7942
 20
-2.3238
  0
VERTEX
  8
LAYER_1
 62
   250
 10
1.7776
 20
-2.3186
  0
VERTEX
  8
LAYER_1
 62
   250
 10
1.7611
 20
-2.3122
  0
VERTEX
  8
LAYER_1
 62
   250
 10
1.7208
 20
-2.2565
  0
VERTEX
  8
LAYER_1
 62
   250
 10
1.6832
 20
-2.2009
  0
VERTEX
  8
LAYER_1
 62
   250
 10
1.6483
 20
-2.1452
  0
VERTEX
  8
LAYER_1
 62
   250
 10
1.6162
 20
-2.0896
  0
VERTEX
  8
LAYER_1
 62
   250
 10
1.587
 20
-2.034
  0
VERTEX
  8
LAYER_1
 62
   250
 10
1.5603
 20
-1.9783
  0
VERTEX
  8
LAYER_1
 62
   250
 10
1.5365
 20
-1.9226
  0
VERTEX
  8
LAYER_1
 62
   250
 10
1.5153
 20
-1.8669
  0
VERTEX
  8
LAYER_1
 62
   250
 10
1.4964
 20
-1.8111
  0
VERTEX
  8
LAYER_1
 62
   250
 10
1.4789
 20
-1.7548
  0
VERTEX
  8
LAYER_1
 62
   250
 10
1.4628
 20
-1.698
  0
VERTEX
  8
LAYER_1
 62
   250
 10
1.4481
 20
-1.6408
  0
VERTEX
  8
LAYER_1
 62
   250
 10
1.435
 20
-1.5833
  0
VERTEX
  8
LAYER_1
 62
   250
 10
1.4232
 20
-1.5253
  0
VERTEX
  8
LAYER_1
 62
   250
 10
1.4129
 20
-1.4668
  0
VERTEX
  8
LAYER_1
 62
   250
 10
1.404
 20
-1.4078
  0
VERTEX
  8
LAYER_1
 62
   250
 10
1.3965
 20
-1.3484
  0
VERTEX
  8
LAYER_1
 62
   250
 10
1.3901
 20
-1.2881
  0
VERTEX
  8
LAYER_1
 62
   250
 10
1.3849
 20
-1.2272
  0
VERTEX
  8
LAYER_1
 62
   250
 10
1.3809
 20
-1.1656
  0
VERTEX
  8
LAYER_1
 62
   250
 10
1.378
 20
-1.1032
  0
VERTEX
  8
LAYER_1
 62
   250
 10
1.3763
 20
-1.0401
  0
VERTEX
  8
LAYER_1
 62
   250
 10
1.3757
 20
-0.9762
  0
VERTEX
  8
LAYER_1
 62
   250
 10
1.3762
 20
-0.9117
  0
VERTEX
  8
LAYER_1
 62
   250
 10
1.3775
 20
-0.8461
  0
VERTEX
  8
LAYER_1
 62
   250
 10
1.3793
 20
-0.7795
  0
VERTEX
  8
LAYER_1
 62
   250
 10
1.3816
 20
-0.7117
  0
VERTEX
  8
LAYER_1
 62
   250
 10
1.3843
 20
-0.6427
  0
VERTEX
  8
LAYER_1
 62
   250
 10
1.3875
 20
-0.5725
  0
VERTEX
  8
LAYER_1
 62
   250
 10
1.3913
 20
-0.5013
  0
VERTEX
  8
LAYER_1
 62
   250
 10
1.3954
 20
-0.4288
  0
VERTEX
  8
LAYER_1
 62
   250
 10
1.3994
 20
-0.3552
  0
VERTEX
  8
LAYER_1
 62
   250
 10
1.4021
 20
-0.3042
  0
VERTEX
  8
LAYER_1
 62
   250
 10
1.405
 20
-0.2529
  0
VERTEX
  8
LAYER_1
 62
   250
 10
1.408
 20
-0.2016
  0
VERTEX
  8
LAYER_1
 62
   250
 10
1.4113
 20
-0.15
  0
VERTEX
  8
LAYER_1
 62
   250
 10
1.4148
 20
-0.0983
  0
VERTEX
  8
LAYER_1
 62
   250
 10
1.4187
 20
-0.0465
  0
VERTEX
  8
LAYER_1
 62
   250
 10
1.4227
 20
0.0054
  0
VERTEX
  8
LAYER_1
 62
   250
 10
1.4272
 20
0.0576
  0
VERTEX
  8
LAYER_1
 62
   250
 10
1.4318
 20
0.1098
  0
VERTEX
  8
LAYER_1
 62
   250
 10
1.4362
 20
0.1622
  0
VERTEX
  8
LAYER_1
 62
   250
 10
1.4404
 20
0.2147
  0
VERTEX
  8
LAYER_1
 62
   250
 10
1.4446
 20
0.2673
  0
VERTEX
  8
LAYER_1
 62
   250
 10
1.4485
 20
0.3202
  0
VERTEX
  8
LAYER_1
 62
   250
 10
1.4524
 20
0.3732
  0
VERTEX
  8
LAYER_1
 62
   250
 10
1.4561
 20
0.4264
  0
VERTEX
  8
LAYER_1
 62
   250
 10
1.4596
 20
0.4796
  0
VERTEX
  8
LAYER_1
 62
   250
 10
1.4628
 20
0.5328
  0
VERTEX
  8
LAYER_1
 62
   250
 10
1.4656
 20
0.5859
  0
VERTEX
  8
LAYER_1
 62
   250
 10
1.4681
 20
0.639
  0
VERTEX
  8
LAYER_1
 62
   250
 10
1.4701
 20
0.6917
  0
VERTEX
  8
LAYER_1
 62
   250
 10
1.4716
 20
0.7443
  0
VERTEX
  8
LAYER_1
 62
   250
 10
1.4727
 20
0.7969
  0
VERTEX
  8
LAYER_1
 62
   250
 10
1.4733
 20
0.8493
  0
VERTEX
  8
LAYER_1
 62
   250
 10
1.4736
 20
0.9016
  0
VERTEX
  8
LAYER_1
 62
   250
 10
1.4729
 20
0.9539
  0
VERTEX
  8
LAYER_1
 62
   250
 10
1.4712
 20
1.0062
  0
VERTEX
  8
LAYER_1
 62
   250
 10
1.4683
 20
1.0587
  0
VERTEX
  8
LAYER_1
 62
   250
 10
1.4643
 20
1.1115
  0
VERTEX
  8
LAYER_1
 62
   250
 10
1.4592
 20
1.1642
  0
VERTEX
  8
LAYER_1
 62
   250
 10
1.4528
 20
1.2172
  0
VERTEX
  8
LAYER_1
 62
   250
 10
1.4452
 20
1.2703
  0
VERTEX
  8
LAYER_1
 62
   250
 10
1.4365
 20
1.3236
  0
SEQEND
  8
LAYER_1
 62
   250
  0
POLYLINE
  8
LAYER_1
 62
   250
 66
     1
 70
     1
  0
VERTEX
  8
LAYER_1
 62
   250
 10
2.4289
 20
-0.6984
  0
VERTEX
  8
LAYER_1
 62
   250
 10
2.445
 20
-0.6853
  0
VERTEX
  8
LAYER_1
 62
   250
 10
2.4608
 20
-0.674
  0
VERTEX
  8
LAYER_1
 62
   250
 10
2.4763
 20
-0.6644
  0
VERTEX
  8
LAYER_1
 62
   250
 10
2.4915
 20
-0.6566
  0
VERTEX
  8
LAYER_1
 62
   250
 10
2.5063
 20
-0.6505
  0
VERTEX
  8
LAYER_1
 62
   250
 10
2.521
 20
-0.6462
  0
VERTEX
  8
LAYER_1
 62
   250
 10
2.5353
 20
-0.6436
  0
VERTEX
  8
LAYER_1
 62
   250
 10
2.5494
 20
-0.6427
  0
VERTEX
  8
LAYER_1
 62
   250
 10
2.5629
 20
-0.6433
  0
VERTEX
  8
LAYER_1
 62
   250
 10
2.5755
 20
-0.645
  0
VERTEX
  8
LAYER_1
 62
   250
 10
2.5873
 20
-0.6479
  0
VERTEX
  8
LAYER_1
 62
   250
 10
2.5981
 20
-0.6519
  0
VERTEX
  8
LAYER_1
 62
   250
 10
2.6081
 20
-0.6571
  0
VERTEX
  8
LAYER_1
 62
   250
 10
2.6173
 20
-0.6635
  0
VERTEX
  8
LAYER_1
 62
   250
 10
2.6256
 20
-0.6711
  0
VERTEX
  8
LAYER_1
 62
   250
 10
2.6329
 20
-0.6797
  0
VERTEX
  8
LAYER_1
 62
   250
 10
2.6396
 20
-0.6895
  0
VERTEX
  8
LAYER_1
 62
   250
 10
2.6455
 20
-0.7
  0
VERTEX
  8
LAYER_1
 62
   250
 10
2.6506
 20
-0.7115
  0
VERTEX
  8
LAYER_1
 62
   250
 10
2.655
 20
-0.7237
  0
VERTEX
  8
LAYER_1
 62
   250
 10
2.6586
 20
-0.7371
  0
VERTEX
  8
LAYER_1
 62
   250
 10
2.6616
 20
-0.7511
  0
VERTEX
  8
LAYER_1
 62
   250
 10
2.6638
 20
-0.7661
  0
VERTEX
  8
LAYER_1
 62
   250
 10
2.6653
 20
-0.7818
  0
VERTEX
  8
LAYER_1
 62
   250
 10
2.6658
 20
-0.7981
  0
VERTEX
  8
LAYER_1
 62
   250
 10
2.6651
 20
-0.8143
  0
VERTEX
  8
LAYER_1
 62
   250
 10
2.663
 20
-0.8306
  0
VERTEX
  8
LAYER_1
 62
   250
 10
2.6596
 20
-0.8468
  0
VERTEX
  8
LAYER_1
 62
   250
 10
2.655
 20
-0.863
  0
VERTEX
  8
LAYER_1
 62
   250
 10
2.649
 20
-0.8792
  0
VERTEX
  8
LAYER_1
 62
   250
 10
2.6417
 20
-0.8955
  0
VERTEX
  8
LAYER_1
 62
   250
 10
2.6329
 20
-0.9117
  0
VERTEX
  8
LAYER_1
 62
   250
 10
2.6167
 20
-0.9267
  0
VERTEX
  8
LAYER_1
 62
   250
 10
2.6002
 20
-0.9442
  0
VERTEX
  8
LAYER_1
 62
   250
 10
2.5836
 20
-0.9639
  0
VERTEX
  8
LAYER_1
 62
   250
 10
2.5669
 20
-0.9858
  0
VERTEX
  8
LAYER_1
 62
   250
 10
2.5501
 20
-1.0101
  0
VERTEX
  8
LAYER_1
 62
   250
 10
2.533
 20
-1.0369
  0
VERTEX
  8
LAYER_1
 62
   250
 10
2.5157
 20
-1.0658
  0
VERTEX
  8
LAYER_1
 62
   250
 10
2.4984
 20
-1.0972
  0
VERTEX
  8
LAYER_1
 62
   250
 10
2.4817
 20
-1.1301
  0
VERTEX
  8
LAYER_1
 62
   250
 10
2.4659
 20
-1.1641
  0
VERTEX
  8
LAYER_1
 62
   250
 10
2.4514
 20
-1.1991
  0
VERTEX
  8
LAYER_1
 62
   250
 10
2.4381
 20
-1.2351
  0
VERTEX
  8
LAYER_1
 62
   250
 10
2.4259
 20
-1.2721
  0
VERTEX
  8
LAYER_1
 62
   250
 10
2.415
 20
-1.3102
  0
VERTEX
  8
LAYER_1
 62
   250
 10
2.4051
 20
-1.3492
  0
VERTEX
  8
LAYER_1
 62
   250
 10
2.3964
 20
-1.3893
  0
VERTEX
  8
LAYER_1
 62
   250
 10
2.3893
 20
-1.4299
  0
VERTEX
  8
LAYER_1
 62
   250
 10
2.3843
 20
-1.4704
  0
VERTEX
  8
LAYER_1
 62
   250
 10
2.3812
 20
-1.511
  0
VERTEX
  8
LAYER_1
 62
   250
 10
2.3802
 20
-1.5517
  0
VERTEX
  8
LAYER_1
 62
   250
 10
2.3812
 20
-1.5922
  0
VERTEX
  8
LAYER_1
 62
   250
 10
2.3843
 20
-1.6328
  0
VERTEX
  8
LAYER_1
 62
   250
 10
2.3893
 20
-1.6733
  0
VERTEX
  8
LAYER_1
 62
   250
 10
2.3964
 20
-1.7139
  0
VERTEX
  8
LAYER_1
 62
   250
 10
2.4063
 20
-1.7537
  0
VERTEX
  8
LAYER_1
 62
   250
 10
2.4199
 20
-1.7919
  0
VERTEX
  8
LAYER_1
 62
   250
 10
2.4371
 20
-1.8285
  0
VERTEX
  8
LAYER_1
 62
   250
 10
2.4578
 20
-1.8635
  0
VERTEX
  8
LAYER_1
 62
   250
 10
2.4821
 20
-1.8971
  0
VERTEX
  8
LAYER_1
 62
   250
 10
2.51
 20
-1.929
  0
VERTEX
  8
LAYER_1
 62
   250
 10
2.5417
 20
-1.9594
  0
VERTEX
  8
LAYER_1
 62
   250
 10
2.5772
 20
-1.9875
  0
VERTEX
  8
LAYER_1
 62
   250
 10
2.6006
 20
-2.0027
  0
VERTEX
  8
LAYER_1
 62
   250
 10
2.6251
 20
-2.0152
  0
VERTEX
  8
LAYER_1
 62
   250
 10
2.6505
 20
-2.0249
  0
VERTEX
  8
LAYER_1
 62
   250
 10
2.6767
 20
-2.0319
  0
VERTEX
  8
LAYER_1
 62
   250
 10
2.7039
 20
-2.0362
  0
VERTEX
  8
LAYER_1
 62
   250
 10
2.7319
 20
-2.038
  0
VERTEX
  8
LAYER_1
 62
   250
 10
2.7609
 20
-2.0372
  0
VERTEX
  8
LAYER_1
 62
   250
 10
2.7906
 20
-2.0339
  0
VERTEX
  8
LAYER_1
 62
   250
 10
2.8203
 20
-2.0284
  0
VERTEX
  8
LAYER_1
 62
   250
 10
2.8492
 20
-2.0212
  0
VERTEX
  8
LAYER_1
 62
   250
 10
2.8771
 20
-2.0122
  0
VERTEX
  8
LAYER_1
 62
   250
 10
2.9042
 20
-2.0015
  0
VERTEX
  8
LAYER_1
 62
   250
 10
2.9304
 20
-1.9891
  0
VERTEX
  8
LAYER_1
 62
   250
 10
2.9558
 20
-1.9748
  0
VERTEX
  8
LAYER_1
 62
   250
 10
2.9803
 20
-1.9588
  0
VERTEX
  8
LAYER_1
 62
   250
 10
3.0039
 20
-1.9412
  0
VERTEX
  8
LAYER_1
 62
   250
 10
3.0263
 20
-1.9222
  0
VERTEX
  8
LAYER_1
 62
   250
 10
3.0474
 20
-1.902
  0
VERTEX
  8
LAYER_1
 62
   250
 10
3.0669
 20
-1.8809
  0
VERTEX
  8
LAYER_1
 62
   250
 10
3.085
 20
-1.8588
  0
VERTEX
  8
LAYER_1
 62
   250
 10
3.1017
 20
-1.8358
  0
VERTEX
  8
LAYER_1
 62
   250
 10
3.1169
 20
-1.8116
  0
VERTEX
  8
LAYER_1
 62
   250
 10
3.1306
 20
-1.7865
  0
VERTEX
  8
LAYER_1
 62
   250
 10
3.1431
 20
-1.7603
  0
VERTEX
  8
LAYER_1
 62
   250
 10
3.1531
 20
-1.7335
  0
VERTEX
  8
LAYER_1
 62
   250
 10
3.1598
 20
-1.7067
  0
VERTEX
  8
LAYER_1
 62
   250
 10
3.1634
 20
-1.6796
  0
VERTEX
  8
LAYER_1
 62
   250
 10
3.1639
 20
-1.6525
  0
VERTEX
  8
LAYER_1
 62
   250
 10
3.1612
 20
-1.6253
  0
VERTEX
  8
LAYER_1
 62
   250
 10
3.1553
 20
-1.5977
  0
VERTEX
  8
LAYER_1
 62
   250
 10
3.1462
 20
-1.5701
  0
VERTEX
  8
LAYER_1
 62
   250
 10
3.1338
 20
-1.5423
  0
VERTEX
  8
LAYER_1
 62
   250
 10
3.1243
 20
-1.5241
  0
VERTEX
  8
LAYER_1
 62
   250
 10
3.1141
 20
-1.5064
  0
VERTEX
  8
LAYER_1
 62
   250
 10
3.1034
 20
-1.4894
  0
VERTEX
  8
LAYER_1
 62
   250
 10
3.092
 20
-1.4728
  0
VERTEX
  8
LAYER_1
 62
   250
 10
3.0802
 20
-1.4569
  0
VERTEX
  8
LAYER_1
 62
   250
 10
3.0676
 20
-1.4415
  0
VERTEX
  8
LAYER_1
 62
   250
 10
3.0546
 20
-1.4267
  0
VERTEX
  8
LAYER_1
 62
   250
 10
3.041
 20
-1.4125
  0
VERTEX
  8
LAYER_1
 62
   250
 10
3.0272
 20
-1.3985
  0
VERTEX
  8
LAYER_1
 62
   250
 10
3.0138
 20
-1.3841
  0
VERTEX
  8
LAYER_1
 62
   250
 10
3.0007
 20
-1.3695
  0
VERTEX
  8
LAYER_1
 62
   250
 10
2.9877
 20
-1.3546
  0
VERTEX
  8
LAYER_1
 62
   250
 10
2.9751
 20
-1.3393
  0
VERTEX
  8
LAYER_1
 62
   250
 10
2.9628
 20
-1.3239
  0
VERTEX
  8
LAYER_1
 62
   250
 10
2.9507
 20
-1.3081
  0
VERTEX
  8
LAYER_1
 62
   250
 10
2.9389
 20
-1.2919
  0
VERTEX
  8
LAYER_1
 62
   250
 10
2.935
 20
-1.2757
  0
VERTEX
  8
LAYER_1
 62
   250
 10
2.9324
 20
-1.2594
  0
VERTEX
  8
LAYER_1
 62
   250
 10
2.931
 20
-1.2432
  0
VERTEX
  8
LAYER_1
 62
   250
 10
2.9308
 20
-1.227
  0
VERTEX
  8
LAYER_1
 62
   250
 10
2.932
 20
-1.2108
  0
VERTEX
  8
LAYER_1
 62
   250
 10
2.9346
 20
-1.1945
  0
VERTEX
  8
LAYER_1
 62
   250
 10
2.9385
 20
-1.1783
  0
VERTEX
  8
LAYER_1
 62
   250
 10
2.9436
 20
-1.162
  0
VERTEX
  8
LAYER_1
 62
   250
 10
2.9497
 20
-1.1463
  0
VERTEX
  8
LAYER_1
 62
   250
 10
2.9563
 20
-1.1314
  0
VERTEX
  8
LAYER_1
 62
   250
 10
2.9635
 20
-1.1173
  0
VERTEX
  8
LAYER_1
 62
   250
 10
2.9714
 20
-1.1041
  0
VERTEX
  8
LAYER_1
 62
   250
 10
2.9798
 20
-1.0918
  0
VERTEX
  8
LAYER_1
 62
   250
 10
2.9888
 20
-1.0803
  0
VERTEX
  8
LAYER_1
 62
   250
 10
2.9984
 20
-1.0698
  0
VERTEX
  8
LAYER_1
 62
   250
 10
3.0085
 20
-1.0601
  0
VERTEX
  8
LAYER_1
 62
   250
 10
3.0192
 20
-1.0513
  0
VERTEX
  8
LAYER_1
 62
   250
 10
3.0306
 20
-1.0435
  0
VERTEX
  8
LAYER_1
 62
   250
 10
3.0424
 20
-1.0368
  0
VERTEX
  8
LAYER_1
 62
   250
 10
3.055
 20
-1.031
  0
VERTEX
  8
LAYER_1
 62
   250
 10
3.068
 20
-1.0263
  0
VERTEX
  8
LAYER_1
 62
   250
 10
3.0816
 20
-1.0226
  0
VERTEX
  8
LAYER_1
 62
   250
 10
3.0958
 20
-1.0199
  0
VERTEX
  8
LAYER_1
 62
   250
 10
3.1106
 20
-1.0183
  0
VERTEX
  8
LAYER_1
 62
   250
 10
3.1276
 20
-1.0176
  0
VERTEX
  8
LAYER_1
 62
   250
 10
3.1481
 20
-1.0176
  0
VERTEX
  8
LAYER_1
 62
   250
 10
3.1708
 20
-1.0188
  0
VERTEX
  8
LAYER_1
 62
   250
 10
3.1945
 20
-1.0214
  0
VERTEX
  8
LAYER_1
 62
   250
 10
3.2182
 20
-1.0257
  0
VERTEX
  8
LAYER_1
 62
   250
 10
3.2408
 20
-1.0323
  0
VERTEX
  8
LAYER_1
 62
   250
 10
3.2611
 20
-1.0413
  0
VERTEX
  8
LAYER_1
 62
   250
 10
3.2777
 20
-1.053
  0
VERTEX
  8
LAYER_1
 62
   250
 10
3.3047
 20
-1.0782
  0
VERTEX
  8
LAYER_1
 62
   250
 10
3.3284
 20
-1.1035
  0
VERTEX
  8
LAYER_1
 62
   250
 10
3.3488
 20
-1.132
  0
VERTEX
  8
LAYER_1
 62
   250
 10
3.3661
 20
-1.166
  0
VERTEX
  8
LAYER_1
 62
   250
 10
3.3801
 20
-1.2084
  0
VERTEX
  8
LAYER_1
 62
   250
 10
3.3909
 20
-1.2618
  0
VERTEX
  8
LAYER_1
 62
   250
 10
3.3985
 20
-1.329
  0
VERTEX
  8
LAYER_1
 62
   250
 10
3.4027
 20
-1.4125
  0
VERTEX
  8
LAYER_1
 62
   250
 10
3.4033
 20
-1.4653
  0
VERTEX
  8
LAYER_1
 62
   250
 10
3.4021
 20
-1.5166
  0
VERTEX
  8
LAYER_1
 62
   250
 10
3.3989
 20
-1.5666
  0
VERTEX
  8
LAYER_1
 62
   250
 10
3.3938
 20
-1.6154
  0
VERTEX
  8
LAYER_1
 62
   250
 10
3.3866
 20
-1.6628
  0
VERTEX
  8
LAYER_1
 62
   250
 10
3.3772
 20
-1.709
  0
VERTEX
  8
LAYER_1
 62
   250
 10
3.3656
 20
-1.7538
  0
VERTEX
  8
LAYER_1
 62
   250
 10
3.3517
 20
-1.7974
  0
VERTEX
  8
LAYER_1
 62
   250
 10
3.3358
 20
-1.8391
  0
VERTEX
  8
LAYER_1
 62
   250
 10
3.3178
 20
-1.8788
  0
VERTEX
  8
LAYER_1
 62
   250
 10
3.298
 20
-1.9162
  0
VERTEX
  8
LAYER_1
 62
   250
 10
3.2764
 20
-1.9515
  0
VERTEX
  8
LAYER_1
 62
   250
 10
3.2529
 20
-1.9846
  0
VERTEX
  8
LAYER_1
 62
   250
 10
3.2274
 20
-2.0156
  0
VERTEX
  8
LAYER_1
 62
   250
 10
3.2
 20
-2.0444
  0
VERTEX
  8
LAYER_1
 62
   250
 10
3.1709
 20
-2.071
  0
VERTEX
  8
LAYER_1
 62
   250
 10
3.1398
 20
-2.0953
  0
VERTEX
  8
LAYER_1
 62
   250
 10
3.1071
 20
-2.1173
  0
VERTEX
  8
LAYER_1
 62
   250
 10
3.0726
 20
-2.137
  0
VERTEX
  8
LAYER_1
 62
   250
 10
3.0364
 20
-2.1544
  0
VERTEX
  8
LAYER_1
 62
   250
 10
2.9984
 20
-2.1694
  0
VERTEX
  8
LAYER_1
 62
   250
 10
2.9587
 20
-2.1822
  0
VERTEX
  8
LAYER_1
 62
   250
 10
2.9173
 20
-2.1927
  0
VERTEX
  8
LAYER_1
 62
   250
 10
2.8741
 20
-2.2008
  0
VERTEX
  8
LAYER_1
 62
   250
 10
2.8292
 20
-2.2061
  0
VERTEX
  8
LAYER_1
 62
   250
 10
2.7831
 20
-2.2083
  0
VERTEX
  8
LAYER_1
 62
   250
 10
2.7354
 20
-2.2073
  0
VERTEX
  8
LAYER_1
 62
   250
 10
2.6863
 20
-2.2032
  0
VERTEX
  8
LAYER_1
 62
   250
 10
2.6357
 20
-2.196
  0
VERTEX
  8
LAYER_1
 62
   250
 10
2.5836
 20
-2.1854
  0
VERTEX
  8
LAYER_1
 62
   250
 10
2.5302
 20
-2.1717
  0
VERTEX
  8
LAYER_1
 62
   250
 10
2.4753
 20
-2.1545
  0
VERTEX
  8
LAYER_1
 62
   250
 10
2.4308
 20
-2.1366
  0
VERTEX
  8
LAYER_1
 62
   250
 10
2.39
 20
-2.1145
  0
VERTEX
  8
LAYER_1
 62
   250
 10
2.353
 20
-2.0885
  0
VERTEX
  8
LAYER_1
 62
   250
 10
2.3198
 20
-2.0585
  0
VERTEX
  8
LAYER_1
 62
   250
 10
2.2904
 20
-2.0247
  0
VERTEX
  8
LAYER_1
 62
   250
 10
2.2648
 20
-1.9868
  0
VERTEX
  8
LAYER_1
 62
   250
 10
2.2429
 20
-1.945
  0
VERTEX
  8
LAYER_1
 62
   250
 10
2.2248
 20
-1.8994
  0
VERTEX
  8
LAYER_1
 62
   250
 10
2.2099
 20
-1.8513
  0
VERTEX
  8
LAYER_1
 62
   250
 10
2.1973
 20
-1.8018
  0
VERTEX
  8
LAYER_1
 62
   250
 10
2.1873
 20
-1.751
  0
VERTEX
  8
LAYER_1
 62
   250
 10
2.1796
 20
-1.6989
  0
VERTEX
  8
LAYER_1
 62
   250
 10
2.1746
 20
-1.6455
  0
VERTEX
  8
LAYER_1
 62
   250
 10
2.1719
 20
-1.5908
  0
VERTEX
  8
LAYER_1
 62
   250
 10
2.1717
 20
-1.5347
  0
VERTEX
  8
LAYER_1
 62
   250
 10
2.1739
 20
-1.4774
  0
VERTEX
  8
LAYER_1
 62
   250
 10
2.1782
 20
-1.4196
  0
VERTEX
  8
LAYER_1
 62
   250
 10
2.1843
 20
-1.3623
  0
VERTEX
  8
LAYER_1
 62
   250
 10
2.192
 20
-1.3054
  0
VERTEX
  8
LAYER_1
 62
   250
 10
2.2017
 20
-1.249
  0
VERTEX
  8
LAYER_1
 62
   250
 10
2.2129
 20
-1.193
  0
VERTEX
  8
LAYER_1
 62
   250
 10
2.226
 20
-1.1374
  0
VERTEX
  8
LAYER_1
 62
   250
 10
2.2407
 20
-1.0822
  0
VERTEX
  8
LAYER_1
 62
   250
 10
2.2573
 20
-1.0276
  0
VERTEX
  8
LAYER_1
 62
   250
 10
2.2751
 20
-0.9748
  0
VERTEX
  8
LAYER_1
 62
   250
 10
2.294
 20
-0.9253
  0
VERTEX
  8
LAYER_1
 62
   250
 10
2.314
 20
-0.8791
  0
VERTEX
  8
LAYER_1
 62
   250
 10
2.335
 20
-0.8362
  0
VERTEX
  8
LAYER_1
 62
   250
 10
2.3569
 20
-0.7968
  0
VERTEX
  8
LAYER_1
 62
   250
 10
2.3799
 20
-0.7607
  0
VERTEX
  8
LAYER_1
 62
   250
 10
2.4039
 20
-0.7279
  0
VERTEX
  8
LAYER_1
 62
   250
 10
2.4289
 20
-0.6984
  0
SEQEND
  8
LAYER_1
 62
   250
  0
POLYLINE
  8
LAYER_1
 62
   250
 66
     1
 70
     1
  0
VERTEX
  8
LAYER_1
 62
   250
 10
4.7104
 20
-1.0601
  0
VERTEX
  8
LAYER_1
 62
   250
 10
4.7046
 20
-1.037
  0
VERTEX
  8
LAYER_1
 62
   250
 10
4.6963
 20
-1.0143
  0
VERTEX
  8
LAYER_1
 62
   250
 10
4.6855
 20
-0.9919
  0
VERTEX
  8
LAYER_1
 62
   250
 10
4.6722
 20
-0.9696
  0
VERTEX
  8
LAYER_1
 62
   250
 10
4.6565
 20
-0.9478
  0
VERTEX
  8
LAYER_1
 62
   250
 10
4.6382
 20
-0.9262
  0
VERTEX
  8
LAYER_1
 62
   250
 10
4.6176
 20
-0.9049
  0
VERTEX
  8
LAYER_1
 62
   250
 10
4.5945
 20
-0.8839
  0
VERTEX
  8
LAYER_1
 62
   250
 10
4.5707
 20
-0.8632
  0
VERTEX
  8
LAYER_1
 62
   250
 10
4.5473
 20
-0.8426
  0
VERTEX
  8
LAYER_1
 62
   250
 10
4.5248
 20
-0.8226
  0
VERTEX
  8
LAYER_1
 62
   250
 10
4.503
 20
-0.8027
  0
VERTEX
  8
LAYER_1
 62
   250
 10
4.4819
 20
-0.7831
  0
VERTEX
  8
LAYER_1
 62
   250
 10
4.4615
 20
-0.7639
  0
VERTEX
  8
LAYER_1
 62
   250
 10
4.4419
 20
-0.7449
  0
VERTEX
  8
LAYER_1
 62
   250
 10
4.423
 20
-0.7262
  0
VERTEX
  8
LAYER_1
 62
   250
 10
4.4057
 20
-0.7077
  0
VERTEX
  8
LAYER_1
 62
   250
 10
4.3908
 20
-0.6895
  0
VERTEX
  8
LAYER_1
 62
   250
 10
4.3785
 20
-0.6712
  0
VERTEX
  8
LAYER_1
 62
   250
 10
4.3685
 20
-0.6532
  0
VERTEX
  8
LAYER_1
 62
   250
 10
4.3611
 20
-0.6353
  0
VERTEX
  8
LAYER_1
 62
   250
 10
4.3561
 20
-0.6175
  0
VERTEX
  8
LAYER_1
 62
   250
 10
4.3536
 20
-0.5998
  0
VERTEX
  8
LAYER_1
 62
   250
 10
4.3534
 20
-0.5824
  0
VERTEX
  8
LAYER_1
 62
   250
 10
4.3574
 20
-0.5644
  0
VERTEX
  8
LAYER_1
 62
   250
 10
4.3669
 20
-0.5455
  0
VERTEX
  8
LAYER_1
 62
   250
 10
4.3824
 20
-0.5266
  0
VERTEX
  8
LAYER_1
 62
   250
 10
4.4039
 20
-0.5078
  0
VERTEX
  8
LAYER_1
 62
   250
 10
4.4314
 20
-0.49
  0
VERTEX
  8
LAYER_1
 62
   250
 10
4.4654
 20
-0.4737
  0
VERTEX
  8
LAYER_1
 62
   250
 10
4.5058
 20
-0.4595
  0
VERTEX
  8
LAYER_1
 62
   250
 10
4.5527
 20
-0.4479
  0
VERTEX
  8
LAYER_1
 62
   250
 10
4.5725
 20
-0.4456
  0
VERTEX
  8
LAYER_1
 62
   250
 10
4.591
 20
-0.4462
  0
VERTEX
  8
LAYER_1
 62
   250
 10
4.6078
 20
-0.4492
  0
VERTEX
  8
LAYER_1
 62
   250
 10
4.6232
 20
-0.4543
  0
VERTEX
  8
LAYER_1
 62
   250
 10
4.6371
 20
-0.4605
  0
VERTEX
  8
LAYER_1
 62
   250
 10
4.6492
 20
-0.4673
  0
VERTEX
  8
LAYER_1
 62
   250
 10
4.6598
 20
-0.4742
  0
VERTEX
  8
LAYER_1
 62
   250
 10
4.6687
 20
-0.4804
  0
VERTEX
  8
LAYER_1
 62
   250
 10
4.6765
 20
-0.4866
  0
VERTEX
  8
LAYER_1
 62
   250
 10
4.6841
 20
-0.4937
  0
VERTEX
  8
LAYER_1
 62
   250
 10
4.6911
 20
-0.5016
  0
VERTEX
  8
LAYER_1
 62
   250
 10
4.6976
 20
-0.5104
  0
VERTEX
  8
LAYER_1
 62
   250
 10
4.7038
 20
-0.5202
  0
VERTEX
  8
LAYER_1
 62
   250
 10
4.7095
 20
-0.5308
  0
VERTEX
  8
LAYER_1
 62
   250
 10
4.7148
 20
-0.5423
  0
VERTEX
  8
LAYER_1
 62
   250
 10
4.7197
 20
-0.5545
  0
VERTEX
  8
LAYER_1
 62
   250
 10
4.7245
 20
-0.5677
  0
VERTEX
  8
LAYER_1
 62
   250
 10
4.7296
 20
-0.5815
  0
VERTEX
  8
LAYER_1
 62
   250
 10
4.735
 20
-0.5961
  0
VERTEX
  8
LAYER_1
 62
   250
 10
4.7406
 20
-0.6113
  0
VERTEX
  8
LAYER_1
 62
   250
 10
4.7465
 20
-0.6274
  0
VERTEX
  8
LAYER_1
 62
   250
 10
4.7527
 20
-0.6441
  0
VERTEX
  8
LAYER_1
 62
   250
 10
4.7593
 20
-0.6616
  0
VERTEX
  8
LAYER_1
 62
   250
 10
4.766
 20
-0.6797
  0
VERTEX
  8
LAYER_1
 62
   250
 10
4.7737
 20
-0.6988
  0
VERTEX
  8
LAYER_1
 62
   250
 10
4.7829
 20
-0.7192
  0
VERTEX
  8
LAYER_1
 62
   250
 10
4.7935
 20
-0.7407
  0
VERTEX
  8
LAYER_1
 62
   250
 10
4.8055
 20
-0.7633
  0
VERTEX
  8
LAYER_1
 62
   250
 10
4.8189
 20
-0.787
  0
VERTEX
  8
LAYER_1
 62
   250
 10
4.8338
 20
-0.8119
  0
VERTEX
  8
LAYER_1
 62
   250
 10
4.8503
 20
-0.838
  0
VERTEX
  8
LAYER_1
 62
   250
 10
4.8681
 20
-0.8653
  0
VERTEX
  8
LAYER_1
 62
   250
 10
4.8777
 20
-0.8505
  0
VERTEX
  8
LAYER_1
 62
   250
 10
4.8878
 20
-0.8337
  0
VERTEX
  8
LAYER_1
 62
   250
 10
4.8985
 20
-0.8151
  0
VERTEX
  8
LAYER_1
 62
   250
 10
4.9099
 20
-0.7946
  0
VERTEX
  8
LAYER_1
 62
   250
 10
4.9217
 20
-0.7722
  0
VERTEX
  8
LAYER_1
 62
   250
 10
4.9343
 20
-0.7479
  0
VERTEX
  8
LAYER_1
 62
   250
 10
4.9472
 20
-0.7218
  0
VERTEX
  8
LAYER_1
 62
   250
 10
4.9609
 20
-0.6937
  0
VERTEX
  8
LAYER_1
 62
   250
 10
4.9755
 20
-0.6653
  0
VERTEX
  8
LAYER_1
 62
   250
 10
4.9916
 20
-0.6383
  0
VERTEX
  8
LAYER_1
 62
   250
 10
5.009
 20
-0.6126
  0
VERTEX
  8
LAYER_1
 62
   250
 10
5.0281
 20
-0.5882
  0
VERTEX
  8
LAYER_1
 62
   250
 10
5.0486
 20
-0.5651
  0
VERTEX
  8
LAYER_1
 62
   250
 10
5.0704
 20
-0.5433
  0
VERTEX
  8
LAYER_1
 62
   250
 10
5.0937
 20
-0.5228
  0
VERTEX
  8
LAYER_1
 62
   250
 10
5.1186
 20
-0.5035
  0
VERTEX
  8
LAYER_1
 62
   250
 10
5.1314
 20
-0.5103
  0
VERTEX
  8
LAYER_1
 62
   250
 10
5.1417
 20
-0.521
  0
VERTEX
  8
LAYER_1
 62
   250
 10
5.1498
 20
-0.5357
  0
VERTEX
  8
LAYER_1
 62
   250
 10
5.1557
 20
-0.5545
  0
VERTEX
  8
LAYER_1
 62
   250
 10
5.1591
 20
-0.5774
  0
VERTEX
  8
LAYER_1
 62
   250
 10
5.1602
 20
-0.6044
  0
VERTEX
  8
LAYER_1
 62
   250
 10
5.1591
 20
-0.6355
  0
VERTEX
  8
LAYER_1
 62
   250
 10
5.1557
 20
-0.6705
  0
VERTEX
  8
LAYER_1
 62
   250
 10
5.1485
 20
-0.7089
  0
VERTEX
  8
LAYER_1
 62
   250
 10
5.1366
 20
-0.7499
  0
VERTEX
  8
LAYER_1
 62
   250
 10
5.1196
 20
-0.7936
  0
VERTEX
  8
LAYER_1
 62
   250
 10
5.0977
 20
-0.8398
  0
VERTEX
  8
LAYER_1
 62
   250
 10
5.0709
 20
-0.8885
  0
VERTEX
  8
LAYER_1
 62
   250
 10
5.0392
 20
-0.94
  0
VERTEX
  8
LAYER_1
 62
   250
 10
5.0026
 20
-0.9941
  0
VERTEX
  8
LAYER_1
 62
   250
 10
4.9609
 20
-1.0508
  0
VERTEX
  8
LAYER_1
 62
   250
 10
4.9935
 20
-1.1115
  0
VERTEX
  8
LAYER_1
 62
   250
 10
5.0261
 20
-1.1726
  0
VERTEX
  8
LAYER_1
 62
   250
 10
5.0589
 20
-1.2343
  0
VERTEX
  8
LAYER_1
 62
   250
 10
5.0918
 20
-1.2966
  0
VERTEX
  8
LAYER_1
 62
   250
 10
5.125
 20
-1.3595
  0
VERTEX
  8
LAYER_1
 62
   250
 10
5.1583
 20
-1.423
  0
VERTEX
  8
LAYER_1
 62
   250
 10
5.1917
 20
-1.487
  0
VERTEX
  8
LAYER_1
 62
   250
 10
5.2252
 20
-1.5516
  0
VERTEX
  8
LAYER_1
 62
   250
 10
5.2583
 20
-1.6157
  0
VERTEX
  8
LAYER_1
 62
   250
 10
5.2898
 20
-1.6786
  0
VERTEX
  8
LAYER_1
 62
   250
 10
5.3202
 20
-1.7398
  0
VERTEX
  8
LAYER_1
 62
   250
 10
5.3492
 20
-1.7997
  0
VERTEX
  8
LAYER_1
 62
   250
 10
5.377
 20
-1.8581
  0
VERTEX
  8
LAYER_1
 62
   250
 10
5.4034
 20
-1.9151
  0
VERTEX
  8
LAYER_1
 62
   250
 10
5.4285
 20
-1.9705
  0
VERTEX
  8
LAYER_1
 62
   250
 10
5.4524
 20
-2.0246
  0
VERTEX
  8
LAYER_1
 62
   250
 10
5.4767
 20
-1.9579
  0
VERTEX
  8
LAYER_1
 62
   250
 10
5.5031
 20
-1.8922
  0
VERTEX
  8
LAYER_1
 62
   250
 10
5.5318
 20
-1.8275
  0
VERTEX
  8
LAYER_1
 62
   250
 10
5.5625
 20
-1.7638
  0
VERTEX
  8
LAYER_1
 62
   250
 10
5.5955
 20
-1.7011
  0
VERTEX
  8
LAYER_1
 62
   250
 10
5.6307
 20
-1.6395
  0
VERTEX
  8
LAYER_1
 62
   250
 10
5.6679
 20
-1.5788
  0
VERTEX
  8
LAYER_1
 62
   250
 10
5.7074
 20
-1.5192
  0
VERTEX
  8
LAYER_1
 62
   250
 10
5.7473
 20
-1.4597
  0
VERTEX
  8
LAYER_1
 62
   250
 10
5.7859
 20
-1.3995
  0
VERTEX
  8
LAYER_1
 62
   250
 10
5.8233
 20
-1.3384
  0
VERTEX
  8
LAYER_1
 62
   250
 10
5.8593
 20
-1.2769
  0
VERTEX
  8
LAYER_1
 62
   250
 10
5.8929
 20
-1.214
  0
VERTEX
  8
LAYER_1
 62
   250
 10
5.9247
 20
-1.15
  0
VERTEX
  8
LAYER_1
 62
   250
 10
5.9565
 20
-1.0859
  0
VERTEX
  8
LAYER_1
 62
   250
 10
5.9903
 20
-1.0229
  0
VERTEX
  8
LAYER_1
 62
   250
 10
6.0024
 20
-1.0041
  0
VERTEX
  8
LAYER_1
 62
   250
 10
6.0156
 20
-0.9878
  0
VERTEX
  8
LAYER_1
 62
   250
 10
6.0297
 20
-0.9739
  0
VERTEX
  8
LAYER_1
 62
   250
 10
6.0447
 20
-0.9622
  0
VERTEX
  8
LAYER_1
 62
   250
 10
6.06
 20
-0.9526
  0
VERTEX
  8
LAYER_1
 62
   250
 10
6.0755
 20
-0.9449
  0
VERTEX
  8
LAYER_1
 62
   250
 10
6.091
 20
-0.939
  0
VERTEX
  8
LAYER_1
 62
   250
 10
6.1063
 20
-0.9348
  0
VERTEX
  8
LAYER_1
 62
   250
 10
6.121
 20
-0.932
  0
VERTEX
  8
LAYER_1
 62
   250
 10
6.1352
 20
-0.9305
  0
VERTEX
  8
LAYER_1
 62
   250
 10
6.1489
 20
-0.9303
  0
VERTEX
  8
LAYER_1
 62
   250
 10
6.1619
 20
-0.9314
  0
VERTEX
  8
LAYER_1
 62
   250
 10
6.1744
 20
-0.9338
  0
VERTEX
  8
LAYER_1
 62
   250
 10
6.1862
 20
-0.9375
  0
VERTEX
  8
LAYER_1
 62
   250
 10
6.1976
 20
-0.9424
  0
VERTEX
  8
LAYER_1
 62
   250
 10
6.2083
 20
-0.9487
  0
VERTEX
  8
LAYER_1
 62
   250
 10
6.2182
 20
-0.9562
  0
VERTEX
  8
LAYER_1
 62
   250
 10
6.2271
 20
-0.965
  0
VERTEX
  8
LAYER_1
 62
   250
 10
6.235
 20
-0.9748
  0
VERTEX
  8
LAYER_1
 62
   250
 10
6.2419
 20
-0.9858
  0
VERTEX
  8
LAYER_1
 62
   250
 10
6.2478
 20
-0.998
  0
VERTEX
  8
LAYER_1
 62
   250
 10
6.2527
 20
-1.0114
  0
VERTEX
  8
LAYER_1
 62
   250
 10
6.2565
 20
-1.0259
  0
VERTEX
  8
LAYER_1
 62
   250
 10
6.2593
 20
-1.0415
  0
VERTEX
  8
LAYER_1
 62
   250
 10
6.2609
 20
-1.058
  0
VERTEX
  8
LAYER_1
 62
   250
 10
6.261
 20
-1.0751
  0
VERTEX
  8
LAYER_1
 62
   250
 10
6.2597
 20
-1.0927
  0
VERTEX
  8
LAYER_1
 62
   250
 10
6.257
 20
-1.111
  0
VERTEX
  8
LAYER_1
 62
   250
 10
6.2531
 20
-1.1299
  0
VERTEX
  8
LAYER_1
 62
   250
 10
6.2479
 20
-1.1496
  0
VERTEX
  8
LAYER_1
 62
   250
 10
6.241
 20
-1.1696
  0
VERTEX
  8
LAYER_1
 62
   250
 10
6.2315
 20
-1.1899
  0
VERTEX
  8
LAYER_1
 62
   250
 10
6.2087
 20
-1.2315
  0
VERTEX
  8
LAYER_1
 62
   250
 10
6.1851
 20
-1.2726
  0
VERTEX
  8
LAYER_1
 62
   250
 10
6.1609
 20
-1.3129
  0
VERTEX
  8
LAYER_1
 62
   250
 10
6.136
 20
-1.3526
  0
VERTEX
  8
LAYER_1
 62
   250
 10
6.1106
 20
-1.3915
  0
VERTEX
  8
LAYER_1
 62
   250
 10
6.0848
 20
-1.43
  0
VERTEX
  8
LAYER_1
 62
   250
 10
6.0586
 20
-1.4679
  0
VERTEX
  8
LAYER_1
 62
   250
 10
6.0321
 20
-1.5052
  0
VERTEX
  8
LAYER_1
 62
   250
 10
6.0057
 20
-1.5421
  0
VERTEX
  8
LAYER_1
 62
   250
 10
5.9797
 20
-1.5788
  0
VERTEX
  8
LAYER_1
 62
   250
 10
5.954
 20
-1.6152
  0
VERTEX
  8
LAYER_1
 62
   250
 10
5.9289
 20
-1.6513
  0
VERTEX
  8
LAYER_1
 62
   250
 10
5.9043
 20
-1.6871
  0
VERTEX
  8
LAYER_1
 62
   250
 10
5.88
 20
-1.7226
  0
VERTEX
  8
LAYER_1
 62
   250
 10
5.8561
 20
-1.7578
  0
VERTEX
  8
LAYER_1
 62
   250
 10
5.8327
 20
-1.7928
  0
VERTEX
  8
LAYER_1
 62
   250
 10
5.8099
 20
-1.8273
  0
VERTEX
  8
LAYER_1
 62
   250
 10
5.7878
 20
-1.8617
  0
VERTEX
  8
LAYER_1
 62
   250
 10
5.7664
 20
-1.8958
  0
VERTEX
  8
LAYER_1
 62
   250
 10
5.7458
 20
-1.9296
  0
VERTEX
  8
LAYER_1
 62
   250
 10
5.7259
 20
-1.963
  0
VERTEX
  8
LAYER_1
 62
   250
 10
5.7066
 20
-1.9962
  0
VERTEX
  8
LAYER_1
 62
   250
 10
5.6881
 20
-2.029
  0
VERTEX
  8
LAYER_1
 62
   250
 10
5.6704
 20
-2.0617
  0
VERTEX
  8
LAYER_1
 62
   250
 10
5.6538
 20
-2.0942
  0
VERTEX
  8
LAYER_1
 62
   250
 10
5.6388
 20
-2.1266
  0
VERTEX
  8
LAYER_1
 62
   250
 10
5.6254
 20
-2.1591
  0
VERTEX
  8
LAYER_1
 62
   250
 10
5.6136
 20
-2.1916
  0
VERTEX
  8
LAYER_1
 62
   250
 10
5.603
 20
-2.224
  0
VERTEX
  8
LAYER_1
 62
   250
 10
5.5935
 20
-2.2564
  0
VERTEX
  8
LAYER_1
 62
   250
 10
5.5863
 20
-2.2888
  0
VERTEX
  8
LAYER_1
 62
   250
 10
5.5823
 20
-2.3214
  0
VERTEX
  8
LAYER_1
 62
   250
 10
5.5804
 20
-2.3395
  0
VERTEX
  8
LAYER_1
 62
   250
 10
5.5771
 20
-2.357
  0
VERTEX
  8
LAYER_1
 62
   250
 10
5.5724
 20
-2.3737
  0
VERTEX
  8
LAYER_1
 62
   250
 10
5.566
 20
-2.3897
  0
VERTEX
  8
LAYER_1
 62
   250
 10
5.5579
 20
-2.405
  0
VERTEX
  8
LAYER_1
 62
   250
 10
5.5479
 20
-2.4196
  0
VERTEX
  8
LAYER_1
 62
   250
 10
5.536
 20
-2.4335
  0
VERTEX
  8
LAYER_1
 62
   250
 10
5.522
 20
-2.4466
  0
VERTEX
  8
LAYER_1
 62
   250
 10
5.5068
 20
-2.4572
  0
VERTEX
  8
LAYER_1
 62
   250
 10
5.4915
 20
-2.4637
  0
VERTEX
  8
LAYER_1
 62
   250
 10
5.4762
 20
-2.4659
  0
VERTEX
  8
LAYER_1
 62
   250
 10
5.4606
 20
-2.464
  0
VERTEX
  8
LAYER_1
 62
   250
 10
5.4448
 20
-2.4579
  0
VERTEX
  8
LAYER_1
 62
   250
 10
5.429
 20
-2.4475
  0
VERTEX
  8
LAYER_1
 62
   250
 10
5.413
 20
-2.4329
  0
VERTEX
  8
LAYER_1
 62
   250
 10
5.3968
 20
-2.4141
  0
VERTEX
  8
LAYER_1
 62
   250
 10
5.3686
 20
-2.3465
  0
VERTEX
  8
LAYER_1
 62
   250
 10
5.3396
 20
-2.278
  0
VERTEX
  8
LAYER_1
 62
   250
 10
5.31
 20
-2.2086
  0
VERTEX
  8
LAYER_1
 62
   250
 10
5.2797
 20
-2.1383
  0
VERTEX
  8
LAYER_1
 62
   250
 10
5.2486
 20
-2.0672
  0
VERTEX
  8
LAYER_1
 62
   250
 10
5.2169
 20
-1.9951
  0
VERTEX
  8
LAYER_1
 62
   250
 10
5.1843
 20
-1.9222
  0
VERTEX
  8
LAYER_1
 62
   250
 10
5.151
 20
-1.8484
  0
VERTEX
  8
LAYER_1
 62
   250
 10
5.1166
 20
-1.7745
  0
VERTEX
  8
LAYER_1
 62
   250
 10
5.0806
 20
-1.7011
  0
VERTEX
  8
LAYER_1
 62
   250
 10
5.0431
 20
-1.6284
  0
VERTEX
  8
LAYER_1
 62
   250
 10
5.0038
 20
-1.5562
  0
VERTEX
  8
LAYER_1
 62
   250
 10
4.9631
 20
-1.4847
  0
VERTEX
  8
LAYER_1
 62
   250
 10
4.9207
 20
-1.4137
  0
VERTEX
  8
LAYER_1
 62
   250
 10
4.8767
 20
-1.3433
  0
VERTEX
  8
LAYER_1
 62
   250
 10
4.831
 20
-1.2734
  0
VERTEX
  8
LAYER_1
 62
   250
 10
4.8125
 20
-1.2976
  0
VERTEX
  8
LAYER_1
 62
   250
 10
4.7939
 20
-1.3236
  0
VERTEX
  8
LAYER_1
 62
   250
 10
4.7754
 20
-1.3515
  0
VERTEX
  8
LAYER_1
 62
   250
 10
4.7569
 20
-1.3812
  0
VERTEX
  8
LAYER_1
 62
   250
 10
4.7384
 20
-1.4129
  0
VERTEX
  8
LAYER_1
 62
   250
 10
4.7198
 20
-1.4464
  0
VERTEX
  8
LAYER_1
 62
   250
 10
4.7012
 20
-1.4818
  0
VERTEX
  8
LAYER_1
 62
   250
 10
4.6826
 20
-1.5192
  0
VERTEX
  8
LAYER_1
 62
   250
 10
4.6639
 20
-1.5577
  0
VERTEX
  8
LAYER_1
 62
   250
 10
4.6446
 20
-1.5968
  0
VERTEX
  8
LAYER_1
 62
   250
 10
4.625
 20
-1.6366
  0
VERTEX
  8
LAYER_1
 62
   250
 10
4.6049
 20
-1.6768
  0
VERTEX
  8
LAYER_1
 62
   250
 10
4.5845
 20
-1.7177
  0
VERTEX
  8
LAYER_1
 62
   250
 10
4.5635
 20
-1.7592
  0
VERTEX
  8
LAYER_1
 62
   250
 10
4.5421
 20
-1.8012
  0
VERTEX
  8
LAYER_1
 62
   250
 10
4.5203
 20
-1.8438
  0
VERTEX
  8
LAYER_1
 62
   250
 10
4.4982
 20
-1.8868
  0
VERTEX
  8
LAYER_1
 62
   250
 10
4.476
 20
-1.9302
  0
VERTEX
  8
LAYER_1
 62
   250
 10
4.4536
 20
-1.9738
  0
VERTEX
  8
LAYER_1
 62
   250
 10
4.4311
 20
-2.0177
  0
VERTEX
  8
LAYER_1
 62
   250
 10
4.4084
 20
-2.0619
  0
VERTEX
  8
LAYER_1
 62
   250
 10
4.3855
 20
-2.1063
  0
VERTEX
  8
LAYER_1
 62
   250
 10
4.3626
 20
-2.1511
  0
VERTEX
  8
LAYER_1
 62
   250
 10
4.3394
 20
-2.1962
  0
VERTEX
  8
LAYER_1
 62
   250
 10
4.3163
 20
-2.2407
  0
VERTEX
  8
LAYER_1
 62
   250
 10
4.2931
 20
-2.284
  0
VERTEX
  8
LAYER_1
 62
   250
 10
4.2699
 20
-2.326
  0
VERTEX
  8
LAYER_1
 62
   250
 10
4.2467
 20
-2.3666
  0
VERTEX
  8
LAYER_1
 62
   250
 10
4.2237
 20
-2.4059
  0
VERTEX
  8
LAYER_1
 62
   250
 10
4.2007
 20
-2.4442
  0
VERTEX
  8
LAYER_1
 62
   250
 10
4.1775
 20
-2.481
  0
VERTEX
  8
LAYER_1
 62
   250
 10
4.154
 20
-2.5162
  0
VERTEX
  8
LAYER_1
 62
   250
 10
4.147
 20
-2.5251
  0
VERTEX
  8
LAYER_1
 62
   250
 10
4.1396
 20
-2.5329
  0
VERTEX
  8
LAYER_1
 62
   250
 10
4.1315
 20
-2.5397
  0
VERTEX
  8
LAYER_1
 62
   250
 10
4.123
 20
-2.5454
  0
VERTEX
  8
LAYER_1
 62
   250
 10
4.1139
 20
-2.5499
  0
VERTEX
  8
LAYER_1
 62
   250
 10
4.1045
 20
-2.5536
  0
VERTEX
  8
LAYER_1
 62
   250
 10
4.0946
 20
-2.5562
  0
VERTEX
  8
LAYER_1
 62
   250
 10
4.0844
 20
-2.558
  0
VERTEX
  8
LAYER_1
 62
   250
 10
4.0742
 20
-2.5582
  0
VERTEX
  8
LAYER_1
 62
   250
 10
4.0644
 20
-2.557
  0
VERTEX
  8
LAYER_1
 62
   250
 10
4.0551
 20
-2.5542
  0
VERTEX
  8
LAYER_1
 62
   250
 10
4.0461
 20
-2.5498
  0
VERTEX
  8
LAYER_1
 62
   250
 10
4.0373
 20
-2.544
  0
VERTEX
  8
LAYER_1
 62
   250
 10
4.0287
 20
-2.5366
  0
VERTEX
  8
LAYER_1
 62
   250
 10
4.0209
 20
-2.5275
  0
VERTEX
  8
LAYER_1
 62
   250
 10
4.0148
 20
-2.5162
  0
VERTEX
  8
LAYER_1
 62
   250
 10
4.0001
 20
-2.4775
  0
VERTEX
  8
LAYER_1
 62
   250
 10
3.9857
 20
-2.4347
  0
VERTEX
  8
LAYER_1
 62
   250
 10
3.9713
 20
-2.3878
  0
VERTEX
  8
LAYER_1
 62
   250
 10
3.9571
 20
-2.3369
  0
VERTEX
  8
LAYER_1
 62
   250
 10
3.943
 20
-2.2821
  0
VERTEX
  8
LAYER_1
 62
   250
 10
3.9285
 20
-2.2233
  0
VERTEX
  8
LAYER_1
 62
   250
 10
3.9138
 20
-2.1608
  0
VERTEX
  8
LAYER_1
 62
   250
 10
3.8989
 20
-2.0942
  0
VERTEX
  8
LAYER_1
 62
   250
 10
3.8833
 20
-2.0258
  0
VERTEX
  8
LAYER_1
 62
   250
 10
3.8668
 20
-1.9571
  0
VERTEX
  8
LAYER_1
 62
   250
 10
3.8491
 20
-1.8883
  0
VERTEX
  8
LAYER_1
 62
   250
 10
3.8305
 20
-1.8194
  0
VERTEX
  8
LAYER_1
 62
   250
 10
3.8109
 20
-1.7505
  0
VERTEX
  8
LAYER_1
 62
   250
 10
3.7903
 20
-1.6812
  0
VERTEX
  8
LAYER_1
 62
   250
 10
3.7687
 20
-1.6119
  0
VERTEX
  8
LAYER_1
 62
   250
 10
3.7459
 20
-1.5423
  0
VERTEX
  8
LAYER_1
 62
   250
 10
3.7221
 20
-1.4736
  0
VERTEX
  8
LAYER_1
 62
   250
 10
3.6972
 20
-1.4065
  0
VERTEX
  8
LAYER_1
 62
   250
 10
3.6711
 20
-1.3409
  0
VERTEX
  8
LAYER_1
 62
   250
 10
3.6438
 20
-1.2769
  0
VERTEX
  8
LAYER_1
 62
   250
 10
3.6155
 20
-1.2146
  0
VERTEX
  8
LAYER_1
 62
   250
 10
3.5859
 20
-1.1538
  0
VERTEX
  8
LAYER_1
 62
   250
 10
3.5551
 20
-1.0945
  0
VERTEX
  8
LAYER_1
 62
   250
 10
3.5232
 20
-1.0369
  0
VERTEX
  8
LAYER_1
 62
   250
 10
3.4898
 20
-0.9827
  0
VERTEX
  8
LAYER_1
 62
   250
 10
3.4543
 20
-0.9334
  0
VERTEX
  8
LAYER_1
 62
   250
 10
3.4168
 20
-0.8893
  0
VERTEX
  8
LAYER_1
 62
   250
 10
3.3772
 20
-0.8503
  0
VERTEX
  8
LAYER_1
 62
   250
 10
3.3357
 20
-0.8164
  0
VERTEX
  8
LAYER_1
 62
   250
 10
3.292
 20
-0.7874
  0
VERTEX
  8
LAYER_1
 62
   250
 10
3.2464
 20
-0.7636
  0
VERTEX
  8
LAYER_1
 62
   250
 10
3.1987
 20
-0.7447
  0
VERTEX
  8
LAYER_1
 62
   250
 10
3.1834
 20
-0.7327
  0
VERTEX
  8
LAYER_1
 62
   250
 10
3.17
 20
-0.7201
  0
VERTEX
  8
LAYER_1
 62
   250
 10
3.1585
 20
-0.7066
  0
VERTEX
  8
LAYER_1
 62
   250
 10
3.1488
 20
-0.6925
  0
VERTEX
  8
LAYER_1
 62
   250
 10
3.1411
 20
-0.6778
  0
VERTEX
  8
LAYER_1
 62
   250
 10
3.1352
 20
-0.6622
  0
VERTEX
  8
LAYER_1
 62
   250
 10
3.1313
 20
-0.6459
  0
VERTEX
  8
LAYER_1
 62
   250
 10
3.1291
 20
-0.6288
  0
VERTEX
  8
LAYER_1
 62
   250
 10
3.1286
 20
-0.6116
  0
VERTEX
  8
LAYER_1
 62
   250
 10
3.1291
 20
-0.5949
  0
VERTEX
  8
LAYER_1
 62
   250
 10
3.1308
 20
-0.5785
  0
VERTEX
  8
LAYER_1
 62
   250
 10
3.1337
 20
-0.5626
  0
VERTEX
  8
LAYER_1
 62
   250
 10
3.1377
 20
-0.5473
  0
VERTEX
  8
LAYER_1
 62
   250
 10
3.143
 20
-0.5322
  0
VERTEX
  8
LAYER_1
 62
   250
 10
3.1494
 20
-0.5176
  0
VERTEX
  8
LAYER_1
 62
   250
 10
3.1569
 20
-0.5035
  0
VERTEX
  8
LAYER_1
 62
   250
 10
3.1654
 20
-0.49
  0
VERTEX
  8
LAYER_1
 62
   250
 10
3.1748
 20
-0.4774
  0
VERTEX
  8
LAYER_1
 62
   250
 10
3.1851
 20
-0.4656
  0
VERTEX
  8
LAYER_1
 62
   250
 10
3.1963
 20
-0.4548
  0
VERTEX
  8
LAYER_1
 62
   250
 10
3.2083
 20
-0.4449
  0
VERTEX
  8
LAYER_1
 62
   250
 10
3.2212
 20
-0.4357
  0
VERTEX
  8
LAYER_1
 62
   250
 10
3.235
 20
-0.4275
  0
VERTEX
  8
LAYER_1
 62
   250
 10
3.2496
 20
-0.4201
  0
VERTEX
  8
LAYER_1
 62
   250
 10
3.2649
 20
-0.4142
  0
VERTEX
  8
LAYER_1
 62
   250
 10
3.2807
 20
-0.4103
  0
VERTEX
  8
LAYER_1
 62
   250
 10
3.2968
 20
-0.4084
  0
VERTEX
  8
LAYER_1
 62
   250
 10
3.3134
 20
-0.4085
  0
VERTEX
  8
LAYER_1
 62
   250
 10
3.3305
 20
-0.4105
  0
VERTEX
  8
LAYER_1
 62
   250
 10
3.348
 20
-0.4147
  0
VERTEX
  8
LAYER_1
 62
   250
 10
3.366
 20
-0.421
  0
VERTEX
  8
LAYER_1
 62
   250
 10
3.3842
 20
-0.4294
  0
VERTEX
  8
LAYER_1
 62
   250
 10
3.4362
 20
-0.4587
  0
VERTEX
  8
LAYER_1
 62
   250
 10
3.4854
 20
-0.4912
  0
VERTEX
  8
LAYER_1
 62
   250
 10
3.5319
 20
-0.527
  0
VERTEX
  8
LAYER_1
 62
   250
 10
3.5755
 20
-0.566
  0
VERTEX
  8
LAYER_1
 62
   250
 10
3.6165
 20
-0.6082
  0
VERTEX
  8
LAYER_1
 62
   250
 10
3.6546
 20
-0.6536
  0
VERTEX
  8
LAYER_1
 62
   250
 10
3.69
 20
-0.7022
  0
VERTEX
  8
LAYER_1
 62
   250
 10
3.7227
 20
-0.754
  0
VERTEX
  8
LAYER_1
 62
   250
 10
3.7532
 20
-0.8079
  0
VERTEX
  8
LAYER_1
 62
   250
 10
3.7821
 20
-0.863
  0
VERTEX
  8
LAYER_1
 62
   250
 10
3.8094
 20
-0.9192
  0
VERTEX
  8
LAYER_1
 62
   250
 10
3.8351
 20
-0.9766
  0
VERTEX
  8
LAYER_1
 62
   250
 10
3.8592
 20
-1.0351
  0
VERTEX
  8
LAYER_1
 62
   250
 10
3.8818
 20
-1.0948
  0
VERTEX
  8
LAYER_1
 62
   250
 10
3.9028
 20
-1.1557
  0
VERTEX
  8
LAYER_1
 62
   250
 10
3.9221
 20
-1.2178
  0
VERTEX
  8
LAYER_1
 62
   250
 10
3.94
 20
-1.2805
  0
VERTEX
  8
LAYER_1
 62
   250
 10
3.9569
 20
-1.3435
  0
VERTEX
  8
LAYER_1
 62
   250
 10
3.9725
 20
-1.4068
  0
VERTEX
  8
LAYER_1
 62
   250
 10
3.987
 20
-1.4704
  0
VERTEX
  8
LAYER_1
 62
   250
 10
4.0003
 20
-1.5343
  0
VERTEX
  8
LAYER_1
 62
   250
 10
4.0125
 20
-1.5985
  0
VERTEX
  8
LAYER_1
 62
   250
 10
4.0235
 20
-1.6631
  0
VERTEX
  8
LAYER_1
 62
   250
 10
4.0334
 20
-1.7278
  0
VERTEX
  8
LAYER_1
 62
   250
 10
4.0427
 20
-1.792
  0
VERTEX
  8
LAYER_1
 62
   250
 10
4.0524
 20
-1.8548
  0
VERTEX
  8
LAYER_1
 62
   250
 10
4.0624
 20
-1.9161
  0
VERTEX
  8
LAYER_1
 62
   250
 10
4.0728
 20
-1.9759
  0
VERTEX
  8
LAYER_1
 62
   250
 10
4.0833
 20
-2.0343
  0
VERTEX
  8
LAYER_1
 62
   250
 10
4.0942
 20
-2.0913
  0
VERTEX
  8
LAYER_1
 62
   250
 10
4.1054
 20
-2.1467
  0
VERTEX
  8
LAYER_1
 62
   250
 10
4.1169
 20
-2.2008
  0
VERTEX
  8
LAYER_1
 62
   250
 10
4.1477
 20
-2.1166
  0
VERTEX
  8
LAYER_1
 62
   250
 10
4.1795
 20
-2.0353
  0
VERTEX
  8
LAYER_1
 62
   250
 10
4.2125
 20
-1.9571
  0
VERTEX
  8
LAYER_1
 62
   250
 10
4.2467
 20
-1.882
  0
VERTEX
  8
LAYER_1
 62
   250
 10
4.2819
 20
-1.81
  0
VERTEX
  8
LAYER_1
 62
   250
 10
4.3185
 20
-1.7408
  0
VERTEX
  8
LAYER_1
 62
   250
 10
4.3562
 20
-1.6749
  0
VERTEX
  8
LAYER_1
 62
   250
 10
4.3951
 20
-1.6119
  0
VERTEX
  8
LAYER_1
 62
   250
 10
4.4345
 20
-1.5495
  0
VERTEX
  8
LAYER_1
 62
   250
 10
4.4739
 20
-1.4852
  0
VERTEX
  8
LAYER_1
 62
   250
 10
4.5133
 20
-1.4191
  0
VERTEX
  8
LAYER_1
 62
   250
 10
4.5527
 20
-1.351
  0
VERTEX
  8
LAYER_1
 62
   250
 10
4.5922
 20
-1.2812
  0
VERTEX
  8
LAYER_1
 62
   250
 10
4.6316
 20
-1.2094
  0
VERTEX
  8
LAYER_1
 62
   250
 10
4.671
 20
-1.1357
  0
VERTEX
  8
LAYER_1
 62
   250
 10
4.7104
 20
-1.0601
  0
SEQEND
  8
LAYER_1
 62
   250
  0
POLYLINE
  8
LAYER_1
 62
   250
 66
     1
 70
     1
  0
VERTEX
  8
LAYER_1
 62
   250
 10
6.6886
 20
-1.1281
  0
VERTEX
  8
LAYER_1
 62
   250
 10
6.6758
 20
-1.1586
  0
VERTEX
  8
LAYER_1
 62
   250
 10
6.6632
 20
-1.1894
  0
VERTEX
  8
LAYER_1
 62
   250
 10
6.6509
 20
-1.2204
  0
VERTEX
  8
LAYER_1
 62
   250
 10
6.6391
 20
-1.2517
  0
VERTEX
  8
LAYER_1
 62
   250
 10
6.6278
 20
-1.2833
  0
VERTEX
  8
LAYER_1
 62
   250
 10
6.617
 20
-1.3154
  0
VERTEX
  8
LAYER_1
 62
   250
 10
6.6069
 20
-1.3477
  0
VERTEX
  8
LAYER_1
 62
   250
 10
6.5976
 20
-1.3806
  0
VERTEX
  8
LAYER_1
 62
   250
 10
6.6614
 20
-1.3686
  0
VERTEX
  8
LAYER_1
 62
   250
 10
6.723
 20
-1.3556
  0
VERTEX
  8
LAYER_1
 62
   250
 10
6.7829
 20
-1.3408
  0
VERTEX
  8
LAYER_1
 62
   250
 10
6.8413
 20
-1.3234
  0
VERTEX
  8
LAYER_1
 62
   250
 10
6.8984
 20
-1.3028
  0
VERTEX
  8
LAYER_1
 62
   250
 10
6.9548
 20
-1.278
  0
VERTEX
  8
LAYER_1
 62
   250
 10
7.0106
 20
-1.2483
  0
VERTEX
  8
LAYER_1
 62
   250
 10
7.0662
 20
-1.2131
  0
VERTEX
  8
LAYER_1
 62
   250
 10
7.0974
 20
-1.1902
  0
VERTEX
  8
LAYER_1
 62
   250
 10
7.1285
 20
-1.1647
  0
VERTEX
  8
LAYER_1
 62
   250
 10
7.159
 20
-1.1368
  0
VERTEX
  8
LAYER_1
 62
   250
 10
7.1883
 20
-1.1071
  0
VERTEX
  8
LAYER_1
 62
   250
 10
7.2162
 20
-1.0758
  0
VERTEX
  8
LAYER_1
 62
   250
 10
7.2424
 20
-1.0433
  0
VERTEX
  8
LAYER_1
 62
   250
 10
7.2664
 20
-1.0099
  0
VERTEX
  8
LAYER_1
 62
   250
 10
7.2878
 20
-0.976
  0
VERTEX
  8
LAYER_1
 62
   250
 10
7.3013
 20
-0.9514
  0
VERTEX
  8
LAYER_1
 62
   250
 10
7.3132
 20
-0.9269
  0
VERTEX
  8
LAYER_1
 62
   250
 10
7.3233
 20
-0.9025
  0
VERTEX
  8
LAYER_1
 62
   250
 10
7.3314
 20
-0.8784
  0
VERTEX
  8
LAYER_1
 62
   250
 10
7.3373
 20
-0.8547
  0
VERTEX
  8
LAYER_1
 62
   250
 10
7.341
 20
-0.8316
  0
VERTEX
  8
LAYER_1
 62
   250
 10
7.3423
 20
-0.8092
  0
VERTEX
  8
LAYER_1
 62
   250
 10
7.3411
 20
-0.7875
  0
VERTEX
  8
LAYER_1
 62
   250
 10
7.3382
 20
-0.7709
  0
VERTEX
  8
LAYER_1
 62
   250
 10
7.3334
 20
-0.7549
  0
VERTEX
  8
LAYER_1
 62
   250
 10
7.3267
 20
-0.7396
  0
VERTEX
  8
LAYER_1
 62
   250
 10
7.318
 20
-0.7251
  0
VERTEX
  8
LAYER_1
 62
   250
 10
7.3073
 20
-0.7116
  0
VERTEX
  8
LAYER_1
 62
   250
 10
7.2944
 20
-0.6988
  0
VERTEX
  8
LAYER_1
 62
   250
 10
7.2794
 20
-0.6871
  0
VERTEX
  8
LAYER_1
 62
   250
 10
7.2621
 20
-0.6765
  0
VERTEX
  8
LAYER_1
 62
   250
 10
7.2464
 20
-0.6688
  0
VERTEX
  8
LAYER_1
 62
   250
 10
7.229
 20
-0.6618
  0
VERTEX
  8
LAYER_1
 62
   250
 10
7.2101
 20
-0.6556
  0
VERTEX
  8
LAYER_1
 62
   250
 10
7.1894
 20
-0.6502
  0
VERTEX
  8
LAYER_1
 62
   250
 10
7.1672
 20
-0.6458
  0
VERTEX
  8
LAYER_1
 62
   250
 10
7.143
 20
-0.6422
  0
VERTEX
  8
LAYER_1
 62
   250
 10
7.1172
 20
-0.6396
  0
VERTEX
  8
LAYER_1
 62
   250
 10
7.0894
 20
-0.6381
  0
VERTEX
  8
LAYER_1
 62
   250
 10
7.0583
 20
-0.638
  0
VERTEX
  8
LAYER_1
 62
   250
 10
7.0275
 20
-0.6399
  0
VERTEX
  8
LAYER_1
 62
   250
 10
6.9969
 20
-0.6437
  0
VERTEX
  8
LAYER_1
 62
   250
 10
6.9665
 20
-0.6497
  0
VERTEX
  8
LAYER_1
 62
   250
 10
6.9365
 20
-0.6576
  0
VERTEX
  8
LAYER_1
 62
   250
 10
6.9068
 20
-0.6676
  0
VERTEX
  8
LAYER_1
 62
   250
 10
6.8774
 20
-0.6796
  0
VERTEX
  8
LAYER_1
 62
   250
 10
6.8483
 20
-0.6937
  0
VERTEX
  8
LAYER_1
 62
   250
 10
6.8196
 20
-0.7095
  0
VERTEX
  8
LAYER_1
 62
   250
 10
6.7914
 20
-0.727
  0
VERTEX
  8
LAYER_1
 62
   250
 10
6.7639
 20
-0.7461
  0
VERTEX
  8
LAYER_1
 62
   250
 10
6.737
 20
-0.7667
  0
VERTEX
  8
LAYER_1
 62
   250
 10
6.7106
 20
-0.7889
  0
VERTEX
  8
LAYER_1
 62
   250
 10
6.6848
 20
-0.8128
  0
VERTEX
  8
LAYER_1
 62
   250
 10
6.6596
 20
-0.8382
  0
VERTEX
  8
LAYER_1
 62
   250
 10
6.6349
 20
-0.8653
  0
VERTEX
  8
LAYER_1
 62
   250
 10
6.611
 20
-0.8935
  0
VERTEX
  8
LAYER_1
 62
   250
 10
6.5883
 20
-0.9221
  0
VERTEX
  8
LAYER_1
 62
   250
 10
6.5665
 20
-0.9514
  0
VERTEX
  8
LAYER_1
 62
   250
 10
6.5457
 20
-0.9811
  0
VERTEX
  8
LAYER_1
 62
   250
 10
6.5259
 20
-1.0116
  0
VERTEX
  8
LAYER_1
 62
   250
 10
6.5072
 20
-1.0426
  0
VERTEX
  8
LAYER_1
 62
   250
 10
6.4895
 20
-1.0742
  0
VERTEX
  8
LAYER_1
 62
   250
 10
6.4726
 20
-1.1064
  0
VERTEX
  8
LAYER_1
 62
   250
 10
6.4324
 20
-1.1008
  0
VERTEX
  8
LAYER_1
 62
   250
 10
6.395
 20
-1.0939
  0
VERTEX
  8
LAYER_1
 62
   250
 10
6.3603
 20
-1.086
  0
VERTEX
  8
LAYER_1
 62
   250
 10
6.3282
 20
-1.0778
  0
VERTEX
  8
LAYER_1
 62
   250
 10
6.2986
 20
-1.0697
  0
VERTEX
  8
LAYER_1
 62
   250
 10
6.271
 20
-1.0621
  0
VERTEX
  8
LAYER_1
 62
   250
 10
6.2457
 20
-1.0557
  0
VERTEX
  8
LAYER_1
 62
   250
 10
6.2222
 20
-1.0508
  0
VERTEX
  8
LAYER_1
 62
   250
 10
6.1912
 20
-1.0486
  0
VERTEX
  8
LAYER_1
 62
   250
 10
6.1619
 20
-1.0522
  0
VERTEX
  8
LAYER_1
 62
   250
 10
6.1345
 20
-1.0612
  0
VERTEX
  8
LAYER_1
 62
   250
 10
6.1091
 20
-1.0754
  0
VERTEX
  8
LAYER_1
 62
   250
 10
6.0856
 20
-1.0939
  0
VERTEX
  8
LAYER_1
 62
   250
 10
6.0641
 20
-1.1165
  0
VERTEX
  8
LAYER_1
 62
   250
 10
6.0447
 20
-1.1425
  0
VERTEX
  8
LAYER_1
 62
   250
 10
6.0274
 20
-1.1713
  0
VERTEX
  8
LAYER_1
 62
   250
 10
6.0141
 20
-1.201
  0
VERTEX
  8
LAYER_1
 62
   250
 10
6.0066
 20
-1.2298
  0
VERTEX
  8
LAYER_1
 62
   250
 10
6.005
 20
-1.2578
  0
VERTEX
  8
LAYER_1
 62
   250
 10
6.0089
 20
-1.2849
  0
VERTEX
  8
LAYER_1
 62
   250
 10
6.0182
 20
-1.3118
  0
VERTEX
  8
LAYER_1
 62
   250
 10
6.0332
 20
-1.3384
  0
VERTEX
  8
LAYER_1
 62
   250
 10
6.0545
 20
-1.3631
  0
VERTEX
  8
LAYER_1
 62
   250
 10
6.0831
 20
-1.3846
  0
VERTEX
  8
LAYER_1
 62
   250
 10
6.0988
 20
-1.3929
  0
VERTEX
  8
LAYER_1
 62
   250
 10
6.1151
 20
-1.3997
  0
VERTEX
  8
LAYER_1
 62
   250
 10
6.132
 20
-1.4054
  0
VERTEX
  8
LAYER_1
 62
   250
 10
6.1493
 20
-1.4099
  0
VERTEX
  8
LAYER_1
 62
   250
 10
6.1672
 20
-1.4136
  0
VERTEX
  8
LAYER_1
 62
   250
 10
6.1853
 20
-1.4167
  0
VERTEX
  8
LAYER_1
 62
   250
 10
6.2038
 20
-1.4194
  0
VERTEX
  8
LAYER_1
 62
   250
 10
6.2222
 20
-1.4218
  0
VERTEX
  8
LAYER_1
 62
   250
 10
6.241
 20
-1.4239
  0
VERTEX
  8
LAYER_1
 62
   250
 10
6.2599
 20
-1.4258
  0
VERTEX
  8
LAYER_1
 62
   250
 10
6.2792
 20
-1.4275
  0
VERTEX
  8
LAYER_1
 62
   250
 10
6.2987
 20
-1.4287
  0
VERTEX
  8
LAYER_1
 62
   250
 10
6.3186
 20
-1.4297
  0
VERTEX
  8
LAYER_1
 62
   250
 10
6.3387
 20
-1.4304
  0
VERTEX
  8
LAYER_1
 62
   250
 10
6.3591
 20
-1.4309
  0
VERTEX
  8
LAYER_1
 62
   250
 10
6.3798
 20
-1.4311
  0
VERTEX
  8
LAYER_1
 62
   250
 10
6.3779
 20
-1.4521
  0
VERTEX
  8
LAYER_1
 62
   250
 10
6.3764
 20
-1.4734
  0
VERTEX
  8
LAYER_1
 62
   250
 10
6.3756
 20
-1.495
  0
VERTEX
  8
LAYER_1
 62
   250
 10
6.3752
 20
-1.5168
  0
VERTEX
  8
LAYER_1
 62
   250
 10
6.3756
 20
-1.5391
  0
VERTEX
  8
LAYER_1
 62
   250
 10
6.3764
 20
-1.5616
  0
VERTEX
  8
LAYER_1
 62
   250
 10
6.3779
 20
-1.5843
  0
VERTEX
  8
LAYER_1
 62
   250
 10
6.3798
 20
-1.6073
  0
VERTEX
  8
LAYER_1
 62
   250
 10
6.3824
 20
-1.6305
  0
VERTEX
  8
LAYER_1
 62
   250
 10
6.3856
 20
-1.6537
  0
VERTEX
  8
LAYER_1
 62
   250
 10
6.3894
 20
-1.6769
  0
VERTEX
  8
LAYER_1
 62
   250
 10
6.3938
 20
-1.7001
  0
VERTEX
  8
LAYER_1
 62
   250
 10
6.3986
 20
-1.7233
  0
VERTEX
  8
LAYER_1
 62
   250
 10
6.4042
 20
-1.7464
  0
VERTEX
  8
LAYER_1
 62
   250
 10
6.4103
 20
-1.7696
  0
VERTEX
  8
LAYER_1
 62
   250
 10
6.417
 20
-1.7928
  0
VERTEX
  8
LAYER_1
 62
   250
 10
6.4243
 20
-1.8156
  0
VERTEX
  8
LAYER_1
 62
   250
 10
6.4324
 20
-1.8377
  0
VERTEX
  8
LAYER_1
 62
   250
 10
6.4412
 20
-1.859
  0
VERTEX
  8
LAYER_1
 62
   250
 10
6.4507
 20
-1.8797
  0
VERTEX
  8
LAYER_1
 62
   250
 10
6.4608
 20
-1.8996
  0
VERTEX
  8
LAYER_1
 62
   250
 10
6.4718
 20
-1.9188
  0
VERTEX
  8
LAYER_1
 62
   250
 10
6.4835
 20
-1.9373
  0
VERTEX
  8
LAYER_1
 62
   250
 10
6.4958
 20
-1.955
  0
VERTEX
  8
LAYER_1
 62
   250
 10
6.509
 20
-1.972
  0
VERTEX
  8
LAYER_1
 62
   250
 10
6.5228
 20
-1.9878
  0
VERTEX
  8
LAYER_1
 62
   250
 10
6.5373
 20
-2.0027
  0
VERTEX
  8
LAYER_1
 62
   250
 10
6.5526
 20
-2.0165
  0
VERTEX
  8
LAYER_1
 62
   250
 10
6.5685
 20
-2.0296
  0
VERTEX
  8
LAYER_1
 62
   250
 10
6.585
 20
-2.0419
  0
VERTEX
  8
LAYER_1
 62
   250
 10
6.6025
 20
-2.0528
  0
VERTEX
  8
LAYER_1
 62
   250
 10
6.621
 20
-2.0617
  0
VERTEX
  8
LAYER_1
 62
   250
 10
6.6511
 20
-2.073
  0
VERTEX
  8
LAYER_1
 62
   250
 10
6.6816
 20
-2.0825
  0
VERTEX
  8
LAYER_1
 62
   250
 10
6.7124
 20
-2.0901
  0
VERTEX
  8
LAYER_1
 62
   250
 10
6.7436
 20
-2.096
  0
VERTEX
  8
LAYER_1
 62
   250
 10
6.7751
 20
-2.1002
  0
VERTEX
  8
LAYER_1
 62
   250
 10
6.807
 20
-2.1028
  0
VERTEX
  8
LAYER_1
 62
   250
 10
6.8391
 20
-2.1038
  0
VERTEX
  8
LAYER_1
 62
   250
 10
6.8714
 20
-2.1034
  0
VERTEX
  8
LAYER_1
 62
   250
 10
6.9037
 20
-2.1018
  0
VERTEX
  8
LAYER_1
 62
   250
 10
6.9358
 20
-2.0994
  0
VERTEX
  8
LAYER_1
 62
   250
 10
6.9675
 20
-2.0961
  0
VERTEX
  8
LAYER_1
 62
   250
 10
6.9989
 20
-2.0918
  0
VERTEX
  8
LAYER_1
 62
   250
 10
7.03
 20
-2.0868
  0
VERTEX
  8
LAYER_1
 62
   250
 10
7.061
 20
-2.0809
  0
VERTEX
  8
LAYER_1
 62
   250
 10
7.0916
 20
-2.074
  0
VERTEX
  8
LAYER_1
 62
   250
 10
7.1219
 20
-2.0664
  0
VERTEX
  8
LAYER_1
 62
   250
 10
7.152
 20
-2.058
  0
VERTEX
  8
LAYER_1
 62
   250
 10
7.1822
 20
-2.0493
  0
VERTEX
  8
LAYER_1
 62
   250
 10
7.2123
 20
-2.0401
  0
VERTEX
  8
LAYER_1
 62
   250
 10
7.2425
 20
-2.0305
  0
VERTEX
  8
LAYER_1
 62
   250
 10
7.2725
 20
-2.0204
  0
VERTEX
  8
LAYER_1
 62
   250
 10
7.3027
 20
-2.0098
  0
VERTEX
  8
LAYER_1
 62
   250
 10
7.3328
 20
-1.999
  0
VERTEX
  8
LAYER_1
 62
   250
 10
7.363
 20
-1.9875
  0
VERTEX
  8
LAYER_1
 62
   250
 10
7.393
 20
-1.976
  0
VERTEX
  8
LAYER_1
 62
   250
 10
7.4227
 20
-1.9648
  0
VERTEX
  8
LAYER_1
 62
   250
 10
7.4521
 20
-1.954
  0
VERTEX
  8
LAYER_1
 62
   250
 10
7.4813
 20
-1.9434
  0
VERTEX
  8
LAYER_1
 62
   250
 10
7.5102
 20
-1.9338
  0
VERTEX
  8
LAYER_1
 62
   250
 10
7.5392
 20
-1.9247
  0
VERTEX
  8
LAYER_1
 62
   250
 10
7.5676
 20
-1.9151
  0
VERTEX
  8
LAYER_1
 62
   250
 10
7.5948
 20
-1.904
  0
VERTEX
  8
LAYER_1
 62
   250
 10
7.611
 20
-1.8955
  0
VERTEX
  8
LAYER_1
 62
   250
 10
7.6261
 20
-1.8854
  0
VERTEX
  8
LAYER_1
 62
   250
 10
7.6397
 20
-1.8739
  0
VERTEX
  8
LAYER_1
 62
   250
 10
7.6524
 20
-1.8614
  0
VERTEX
  8
LAYER_1
 62
   250
 10
7.6638
 20
-1.8478
  0
VERTEX
  8
LAYER_1
 62
   250
 10
7.6742
 20
-1.8333
  0
VERTEX
  8
LAYER_1
 62
   250
 10
7.6837
 20
-1.8181
  0
VERTEX
  8
LAYER_1
 62
   250
 10
7.6922
 20
-1.802
  0
VERTEX
  8
LAYER_1
 62
   250
 10
7.6998
 20
-1.7858
  0
VERTEX
  8
LAYER_1
 62
   250
 10
7.7062
 20
-1.7698
  0
VERTEX
  8
LAYER_1
 62
   250
 10
7.7114
 20
-1.754
  0
VERTEX
  8
LAYER_1
 62
   250
 10
7.7154
 20
-1.7382
  0
VERTEX
  8
LAYER_1
 62
   250
 10
7.7183
 20
-1.7227
  0
VERTEX
  8
LAYER_1
 62
   250
 10
7.7201
 20
-1.7073
  0
VERTEX
  8
LAYER_1
 62
   250
 10
7.7207
 20
-1.692
  0
VERTEX
  8
LAYER_1
 62
   250
 10
7.7201
 20
-1.6768
  0
VERTEX
  8
LAYER_1
 62
   250
 10
7.7183
 20
-1.6623
  0
VERTEX
  8
LAYER_1
 62
   250
 10
7.7152
 20
-1.6485
  0
VERTEX
  8
LAYER_1
 62
   250
 10
7.7108
 20
-1.6355
  0
VERTEX
  8
LAYER_1
 62
   250
 10
7.705
 20
-1.6235
  0
VERTEX
  8
LAYER_1
 62
   250
 10
7.6981
 20
-1.6124
  0
VERTEX
  8
LAYER_1
 62
   250
 10
7.6897
 20
-1.6021
  0
VERTEX
  8
LAYER_1
 62
   250
 10
7.6801
 20
-1.5927
  0
VERTEX
  8
LAYER_1
 62
   250
 10
7.6691
 20
-1.5841
  0
VERTEX
  8
LAYER_1
 62
   250
 10
7.6569
 20
-1.5771
  0
VERTEX
  8
LAYER_1
 62
   250
 10
7.6431
 20
-1.5723
  0
VERTEX
  8
LAYER_1
 62
   250
 10
7.6278
 20
-1.5696
  0
VERTEX
  8
LAYER_1
 62
   250
 10
7.6111
 20
-1.569
  0
VERTEX
  8
LAYER_1
 62
   250
 10
7.5929
 20
-1.5706
  0
VERTEX
  8
LAYER_1
 62
   250
 10
7.5733
 20
-1.5743
  0
VERTEX
  8
LAYER_1
 62
   250
 10
7.5524
 20
-1.5804
  0
VERTEX
  8
LAYER_1
 62
   250
 10
7.5299
 20
-1.5887
  0
VERTEX
  8
LAYER_1
 62
   250
 10
7.4975
 20
-1.6025
  0
VERTEX
  8
LAYER_1
 62
   250
 10
7.4652
 20
-1.6165
  0
VERTEX
  8
LAYER_1
 62
   250
 10
7.4331
 20
-1.6308
  0
VERTEX
  8
LAYER_1
 62
   250
 10
7.4012
 20
-1.6453
  0
VERTEX
  8
LAYER_1
 62
   250
 10
7.3695
 20
-1.6598
  0
VERTEX
  8
LAYER_1
 62
   250
 10
7.3378
 20
-1.6747
  0
VERTEX
  8
LAYER_1
 62
   250
 10
7.3063
 20
-1.6896
  0
VERTEX
  8
LAYER_1
 62
   250
 10
7.2749
 20
-1.7047
  0
VERTEX
  8
LAYER_1
 62
   250
 10
7.2434
 20
-1.7194
  0
VERTEX
  8
LAYER_1
 62
   250
 10
7.2114
 20
-1.7338
  0
VERTEX
  8
LAYER_1
 62
   250
 10
7.179
 20
-1.7478
  0
VERTEX
  8
LAYER_1
 62
   250
 10
7.1463
 20
-1.7614
  0
VERTEX
  8
LAYER_1
 62
   250
 10
7.1131
 20
-1.7747
  0
VERTEX
  8
LAYER_1
 62
   250
 10
7.0794
 20
-1.7876
  0
VERTEX
  8
LAYER_1
 62
   250
 10
7.0453
 20
-1.8
  0
VERTEX
  8
LAYER_1
 62
   250
 10
7.0106
 20
-1.8113
  0
VERTEX
  8
LAYER_1
 62
   250
 10
6.979
 20
-1.8199
  0
VERTEX
  8
LAYER_1
 62
   250
 10
6.9487
 20
-1.8263
  0
VERTEX
  8
LAYER_1
 62
   250
 10
6.9198
 20
-1.8306
  0
VERTEX
  8
LAYER_1
 62
   250
 10
6.8925
 20
-1.8326
  0
VERTEX
  8
LAYER_1
 62
   250
 10
6.8665
 20
-1.8325
  0
VERTEX
  8
LAYER_1
 62
   250
 10
6.8419
 20
-1.8306
  0
VERTEX
  8
LAYER_1
 62
   250
 10
6.8189
 20
-1.8266
  0
VERTEX
  8
LAYER_1
 62
   250
 10
6.7973
 20
-1.8206
  0
VERTEX
  8
LAYER_1
 62
   250
 10
6.7771
 20
-1.813
  0
VERTEX
  8
LAYER_1
 62
   250
 10
6.7577
 20
-1.8043
  0
VERTEX
  8
LAYER_1
 62
   250
 10
6.7393
 20
-1.7945
  0
VERTEX
  8
LAYER_1
 62
   250
 10
6.7219
 20
-1.7834
  0
VERTEX
  8
LAYER_1
 62
   250
 10
6.7056
 20
-1.7713
  0
VERTEX
  8
LAYER_1
 62
   250
 10
6.6903
 20
-1.7579
  0
VERTEX
  8
LAYER_1
 62
   250
 10
6.676
 20
-1.7434
  0
VERTEX
  8
LAYER_1
 62
   250
 10
6.6628
 20
-1.7278
  0
VERTEX
  8
LAYER_1
 62
   250
 10
6.6245
 20
-1.6723
  0
VERTEX
  8
LAYER_1
 62
   250
 10
6.5982
 20
-1.6188
  0
VERTEX
  8
LAYER_1
 62
   250
 10
6.5831
 20
-1.5667
  0
VERTEX
  8
LAYER_1
 62
   250
 10
6.5776
 20
-1.5145
  0
VERTEX
  8
LAYER_1
 62
   250
 10
6.5806
 20
-1.4615
  0
VERTEX
  8
LAYER_1
 62
   250
 10
6.591
 20
-1.4064
  0
VERTEX
  8
LAYER_1
 62
   250
 10
6.6074
 20
-1.3483
  0
VERTEX
  8
LAYER_1
 62
   250
 10
6.6283
 20
-1.2861
  0
VERTEX
  8
LAYER_1
 62
   250
 10
6.638
 20
-1.2596
  0
VERTEX
  8
LAYER_1
 62
   250
 10
6.6485
 20
-1.2316
  0
VERTEX
  8
LAYER_1
 62
   250
 10
6.6596
 20
-1.2026
  0
VERTEX
  8
LAYER_1
 62
   250
 10
6.6709
 20
-1.1733
  0
VERTEX
  8
LAYER_1
 62
   250
 10
6.6823
 20
-1.144
  0
VERTEX
  8
LAYER_1
 62
   250
 10
6.6936
 20
-1.1154
  0
VERTEX
  8
LAYER_1
 62
   250
 10
6.7044
 20
-1.088
  0
VERTEX
  8
LAYER_1
 62
   250
 10
6.7145
 20
-1.0621
  0
VERTEX
  8
LAYER_1
 62
   250
 10
6.7339
 20
-1.0207
  0
VERTEX
  8
LAYER_1
 62
   250
 10
6.7577
 20
-0.984
  0
VERTEX
  8
LAYER_1
 62
   250
 10
6.7839
 20
-0.9518
  0
VERTEX
  8
LAYER_1
 62
   250
 10
6.8112
 20
-0.9242
  0
VERTEX
  8
LAYER_1
 62
   250
 10
6.8379
 20
-0.901
  0
VERTEX
  8
LAYER_1
 62
   250
 10
6.8626
 20
-0.8819
  0
VERTEX
  8
LAYER_1
 62
   250
 10
6.8836
 20
-0.8669
  0
VERTEX
  8
LAYER_1
 62
   250
 10
6.8992
 20
-0.856
  0
VERTEX
  8
LAYER_1
 62
   250
 10
6.933
 20
-0.8349
  0
VERTEX
  8
LAYER_1
 62
   250
 10
6.9684
 20
-0.8183
  0
VERTEX
  8
LAYER_1
 62
   250
 10
7.0042
 20
-0.8073
  0
VERTEX
  8
LAYER_1
 62
   250
 10
7.0385
 20
-0.8026
  0
VERTEX
  8
LAYER_1
 62
   250
 10
7.0698
 20
-0.8053
  0
VERTEX
  8
LAYER_1
 62
   250
 10
7.0968
 20
-0.816
  0
VERTEX
  8
LAYER_1
 62
   250
 10
7.1177
 20
-0.8357
  0
VERTEX
  8
LAYER_1
 62
   250
 10
7.1312
 20
-0.8653
  0
VERTEX
  8
LAYER_1
 62
   250
 10
7.133
 20
-0.8933
  0
VERTEX
  8
LAYER_1
 62
   250
 10
7.1246
 20
-0.919
  0
VERTEX
  8
LAYER_1
 62
   250
 10
7.1077
 20
-0.9425
  0
VERTEX
  8
LAYER_1
 62
   250
 10
7.0842
 20
-0.964
  0
VERTEX
  8
LAYER_1
 62
   250
 10
7.0557
 20
-0.9836
  0
VERTEX
  8
LAYER_1
 62
   250
 10
7.0243
 20
-1.0014
  0
VERTEX
  8
LAYER_1
 62
   250
 10
6.9917
 20
-1.0175
  0
VERTEX
  8
LAYER_1
 62
   250
 10
6.9595
 20
-1.0322
  0
VERTEX
  8
LAYER_1
 62
   250
 10
6.9283
 20
-1.0464
  0
VERTEX
  8
LAYER_1
 62
   250
 10
6.8968
 20
-1.0611
  0
VERTEX
  8
LAYER_1
 62
   250
 10
6.8648
 20
-1.0756
  0
VERTEX
  8
LAYER_1
 62
   250
 10
6.8322
 20
-1.0893
  0
VERTEX
  8
LAYER_1
 62
   250
 10
6.7985
 20
-1.102
  0
VERTEX
  8
LAYER_1
 62
   250
 10
6.7636
 20
-1.113
  0
VERTEX
  8
LAYER_1
 62
   250
 10
6.7271
 20
-1.1219
  0
VERTEX
  8
LAYER_1
 62
   250
 10
6.6886
 20
-1.1281
  0
SEQEND
  8
LAYER_1
 62
   250
  0
POLYLINE
  8
LAYER_1
 62
   250
 66
     1
 70
     1
  0
VERTEX
  8
LAYER_1
 62
   250
 10
7.6135
 20
-0.958
  0
VERTEX
  8
LAYER_1
 62
   250
 10
7.5982
 20
-0.9461
  0
VERTEX
  8
LAYER_1
 62
   250
 10
7.5848
 20
-0.9334
  0
VERTEX
  8
LAYER_1
 62
   250
 10
7.5732
 20
-0.92
  0
VERTEX
  8
LAYER_1
 62
   250
 10
7.5636
 20
-0.9059
  0
VERTEX
  8
LAYER_1
 62
   250
 10
7.5559
 20
-0.8911
  0
VERTEX
  8
LAYER_1
 62
   250
 10
7.55
 20
-0.8755
  0
VERTEX
  8
LAYER_1
 62
   250
 10
7.5461
 20
-0.8592
  0
VERTEX
  8
LAYER_1
 62
   250
 10
7.5439
 20
-0.8421
  0
VERTEX
  8
LAYER_1
 62
   250
 10
7.5434
 20
-0.8249
  0
VERTEX
  8
LAYER_1
 62
   250
 10
7.5439
 20
-0.8083
  0
VERTEX
  8
LAYER_1
 62
   250
 10
7.5456
 20
-0.7919
  0
VERTEX
  8
LAYER_1
 62
   250
 10
7.5485
 20
-0.776
  0
VERTEX
  8
LAYER_1
 62
   250
 10
7.5524
 20
-0.7606
  0
VERTEX
  8
LAYER_1
 62
   250
 10
7.5578
 20
-0.7456
  0
VERTEX
  8
LAYER_1
 62
   250
 10
7.5641
 20
-0.731
  0
VERTEX
  8
LAYER_1
 62
   250
 10
7.5717
 20
-0.7169
  0
VERTEX
  8
LAYER_1
 62
   250
 10
7.5802
 20
-0.7034
  0
VERTEX
  8
LAYER_1
 62
   250
 10
7.5896
 20
-0.6908
  0
VERTEX
  8
LAYER_1
 62
   250
 10
7.5999
 20
-0.6791
  0
VERTEX
  8
LAYER_1
 62
   250
 10
7.6111
 20
-0.6682
  0
VERTEX
  8
LAYER_1
 62
   250
 10
7.6232
 20
-0.6582
  0
VERTEX
  8
LAYER_1
 62
   250
 10
7.6361
 20
-0.649
  0
VERTEX
  8
LAYER_1
 62
   250
 10
7.6498
 20
-0.6408
  0
VERTEX
  8
LAYER_1
 62
   250
 10
7.6644
 20
-0.6334
  0
VERTEX
  8
LAYER_1
 62
   250
 10
7.6797
 20
-0.6275
  0
VERTEX
  8
LAYER_1
 62
   250
 10
7.6955
 20
-0.6236
  0
VERTEX
  8
LAYER_1
 62
   250
 10
7.7116
 20
-0.6217
  0
VERTEX
  8
LAYER_1
 62
   250
 10
7.7282
 20
-0.6218
  0
VERTEX
  8
LAYER_1
 62
   250
 10
7.7455
 20
-0.6236
  0
VERTEX
  8
LAYER_1
 62
   250
 10
7.7632
 20
-0.6272
  0
VERTEX
  8
LAYER_1
 62
   250
 10
7.7813
 20
-0.6333
  0
VERTEX
  8
LAYER_1
 62
   250
 10
7.799
 20
-0.6427
  0
VERTEX
  8
LAYER_1
 62
   250
 10
7.8467
 20
-0.6771
  0
VERTEX
  8
LAYER_1
 62
   250
 10
7.8912
 20
-0.7173
  0
VERTEX
  8
LAYER_1
 62
   250
 10
7.9327
 20
-0.7631
  0
VERTEX
  8
LAYER_1
 62
   250
 10
7.9711
 20
-0.8145
  0
VERTEX
  8
LAYER_1
 62
   250
 10
8.0065
 20
-0.8713
  0
VERTEX
  8
LAYER_1
 62
   250
 10
8.0391
 20
-0.9336
  0
VERTEX
  8
LAYER_1
 62
   250
 10
8.0688
 20
-1.0012
  0
VERTEX
  8
LAYER_1
 62
   250
 10
8.0957
 20
-1.0739
  0
VERTEX
  8
LAYER_1
 62
   250
 10
8.1204
 20
-1.1494
  0
VERTEX
  8
LAYER_1
 62
   250
 10
8.1438
 20
-1.225
  0
VERTEX
  8
LAYER_1
 62
   250
 10
8.1656
 20
-1.3006
  0
VERTEX
  8
LAYER_1
 62
   250
 10
8.1861
 20
-1.3765
  0
VERTEX
  8
LAYER_1
 62
   250
 10
8.2051
 20
-1.4525
  0
VERTEX
  8
LAYER_1
 62
   250
 10
8.2227
 20
-1.5287
  0
VERTEX
  8
LAYER_1
 62
   250
 10
8.2387
 20
-1.6049
  0
VERTEX
  8
LAYER_1
 62
   250
 10
8.2534
 20
-1.6814
  0
VERTEX
  8
LAYER_1
 62
   250
 10
8.2653
 20
-1.6052
  0
VERTEX
  8
LAYER_1
 62
   250
 10
8.278
 20
-1.5293
  0
VERTEX
  8
LAYER_1
 62
   250
 10
8.2914
 20
-1.4538
  0
VERTEX
  8
LAYER_1
 62
   250
 10
8.3056
 20
-1.3789
  0
VERTEX
  8
LAYER_1
 62
   250
 10
8.3204
 20
-1.3042
  0
VERTEX
  8
LAYER_1
 62
   250
 10
8.336
 20
-1.2301
  0
VERTEX
  8
LAYER_1
 62
   250
 10
8.3523
 20
-1.1565
  0
VERTEX
  8
LAYER_1
 62
   250
 10
8.3693
 20
-1.0832
  0
VERTEX
  8
LAYER_1
 62
   250
 10
8.3876
 20
-1.0109
  0
VERTEX
  8
LAYER_1
 62
   250
 10
8.4075
 20
-0.9403
  0
VERTEX
  8
LAYER_1
 62
   250
 10
8.4292
 20
-0.8713
  0
VERTEX
  8
LAYER_1
 62
   250
 10
8.4528
 20
-0.8038
  0
VERTEX
  8
LAYER_1
 62
   250
 10
8.4779
 20
-0.738
  0
VERTEX
  8
LAYER_1
 62
   250
 10
8.5049
 20
-0.6737
  0
VERTEX
  8
LAYER_1
 62
   250
 10
8.5336
 20
-0.6111
  0
VERTEX
  8
LAYER_1
 62
   250
 10
8.5641
 20
-0.55
  0
VERTEX
  8
LAYER_1
 62
   250
 10
8.5965
 20
-0.4907
  0
VERTEX
  8
LAYER_1
 62
   250
 10
8.6313
 20
-0.4334
  0
VERTEX
  8
LAYER_1
 62
   250
 10
8.6684
 20
-0.3781
  0
VERTEX
  8
LAYER_1
 62
   250
 10
8.7078
 20
-0.325
  0
VERTEX
  8
LAYER_1
 62
   250
 10
8.7495
 20
-0.2737
  0
VERTEX
  8
LAYER_1
 62
   250
 10
8.7936
 20
-0.2247
  0
VERTEX
  8
LAYER_1
 62
   250
 10
8.8399
 20
-0.1775
  0
VERTEX
  8
LAYER_1
 62
   250
 10
8.8887
 20
-0.1325
  0
VERTEX
  8
LAYER_1
 62
   250
 10
8.9399
 20
-0.0885
  0
VERTEX
  8
LAYER_1
 62
   250
 10
8.9943
 20
-0.0452
  0
VERTEX
  8
LAYER_1
 62
   250
 10
9.0518
 20
-0.0042
  0
VERTEX
  8
LAYER_1
 62
   250
 10
9.1126
 20
0.0332
  0
VERTEX
  8
LAYER_1
 62
   250
 10
9.1771
 20
0.0655
  0
VERTEX
  8
LAYER_1
 62
   250
 10
9.2454
 20
0.0913
  0
VERTEX
  8
LAYER_1
 62
   250
 10
9.3178
 20
0.1092
  0
VERTEX
  8
LAYER_1
 62
   250
 10
9.3942
 20
0.1179
  0
VERTEX
  8
LAYER_1
 62
   250
 10
9.4156
 20
0.118
  0
VERTEX
  8
LAYER_1
 62
   250
 10
9.4356
 20
0.117
  0
VERTEX
  8
LAYER_1
 62
   250
 10
9.4542
 20
0.1148
  0
VERTEX
  8
LAYER_1
 62
   250
 10
9.4713
 20
0.1113
  0
VERTEX
  8
LAYER_1
 62
   250
 10
9.4871
 20
0.1067
  0
VERTEX
  8
LAYER_1
 62
   250
 10
9.5015
 20
0.1009
  0
VERTEX
  8
LAYER_1
 62
   250
 10
9.5145
 20
0.0942
  0
VERTEX
  8
LAYER_1
 62
   250
 10
9.5263
 20
0.0865
  0
VERTEX
  8
LAYER_1
 62
   250
 10
9.5376
 20
0.0773
  0
VERTEX
  8
LAYER_1
 62
   250
 10
9.5474
 20
0.067
  0
VERTEX
  8
LAYER_1
 62
   250
 10
9.5557
 20
0.0559
  0
VERTEX
  8
LAYER_1
 62
   250
 10
9.5623
 20
0.0441
  0
VERTEX
  8
LAYER_1
 62
   250
 10
9.5676
 20
0.0316
  0
VERTEX
  8
LAYER_1
 62
   250
 10
9.5713
 20
0.0186
  0
VERTEX
  8
LAYER_1
 62
   250
 10
9.5736
 20
0.005
  0
VERTEX
  8
LAYER_1
 62
   250
 10
9.5744
 20
-0.009
  0
VERTEX
  8
LAYER_1
 62
   250
 10
9.5739
 20
-0.0206
  0
VERTEX
  8
LAYER_1
 62
   250
 10
9.5726
 20
-0.0323
  0
VERTEX
  8
LAYER_1
 62
   250
 10
9.5703
 20
-0.0441
  0
VERTEX
  8
LAYER_1
 62
   250
 10
9.5672
 20
-0.0559
  0
VERTEX
  8
LAYER_1
 62
   250
 10
9.5631
 20
-0.0678
  0
VERTEX
  8
LAYER_1
 62
   250
 10
9.5582
 20
-0.0798
  0
VERTEX
  8
LAYER_1
 62
   250
 10
9.5523
 20
-0.0917
  0
VERTEX
  8
LAYER_1
 62
   250
 10
9.5457
 20
-0.1034
  0
VERTEX
  8
LAYER_1
 62
   250
 10
9.5343
 20
-0.1202
  0
VERTEX
  8
LAYER_1
 62
   250
 10
9.5209
 20
-0.1366
  0
VERTEX
  8
LAYER_1
 62
   250
 10
9.5058
 20
-0.1523
  0
VERTEX
  8
LAYER_1
 62
   250
 10
9.4888
 20
-0.1673
  0
VERTEX
  8
LAYER_1
 62
   250
 10
9.47
 20
-0.1812
  0
VERTEX
  8
LAYER_1
 62
   250
 10
9.4496
 20
-0.1941
  0
VERTEX
  8
LAYER_1
 62
   250
 10
9.4273
 20
-0.2058
  0
VERTEX
  8
LAYER_1
 62
   250
 10
9.4035
 20
-0.2161
  0
VERTEX
  8
LAYER_1
 62
   250
 10
9.3678
 20
-0.2281
  0
VERTEX
  8
LAYER_1
 62
   250
 10
9.3298
 20
-0.2391
  0
VERTEX
  8
LAYER_1
 62
   250
 10
9.2899
 20
-0.2502
  0
VERTEX
  8
LAYER_1
 62
   250
 10
9.2483
 20
-0.2629
  0
VERTEX
  8
LAYER_1
 62
   250
 10
9.2053
 20
-0.2788
  0
VERTEX
  8
LAYER_1
 62
   250
 10
9.1609
 20
-0.2992
  0
VERTEX
  8
LAYER_1
 62
   250
 10
9.1156
 20
-0.3258
  0
VERTEX
  8
LAYER_1
 62
   250
 10
9.0696
 20
-0.3598
  0
VERTEX
  8
LAYER_1
 62
   250
 10
9.0235
 20
-0.3997
  0
VERTEX
  8
LAYER_1
 62
   250
 10
8.9782
 20
-0.4435
  0
VERTEX
  8
LAYER_1
 62
   250
 10
8.9337
 20
-0.4908
  0
VERTEX
  8
LAYER_1
 62
   250
 10
8.8899
 20
-0.5418
  0
VERTEX
  8
LAYER_1
 62
   250
 10
8.8467
 20
-0.5963
  0
VERTEX
  8
LAYER_1
 62
   250
 10
8.8044
 20
-0.6545
  0
VERTEX
  8
LAYER_1
 62
   250
 10
8.7627
 20
-0.7163
  0
VERTEX
  8
LAYER_1
 62
   250
 10
8.7217
 20
-0.7818
  0
VERTEX
  8
LAYER_1
 62
   250
 10
8.682
 20
-0.8503
  0
VERTEX
  8
LAYER_1
 62
   250
 10
8.6438
 20
-0.9215
  0
VERTEX
  8
LAYER_1
 62
   250
 10
8.6072
 20
-0.9952
  0
VERTEX
  8
LAYER_1
 62
   250
 10
8.5722
 20
-1.0716
  0
VERTEX
  8
LAYER_1
 62
   250
 10
8.5389
 20
-1.1505
  0
VERTEX
  8
LAYER_1
 62
   250
 10
8.507
 20
-1.2322
  0
VERTEX
  8
LAYER_1
 62
   250
 10
8.4768
 20
-1.3164
  0
VERTEX
  8
LAYER_1
 62
   250
 10
8.4481
 20
-1.4032
  0
VERTEX
  8
LAYER_1
 62
   250
 10
8.422
 20
-1.492
  0
VERTEX
  8
LAYER_1
 62
   250
 10
8.3994
 20
-1.5823
  0
VERTEX
  8
LAYER_1
 62
   250
 10
8.3804
 20
-1.6741
  0
VERTEX
  8
LAYER_1
 62
   250
 10
8.3647
 20
-1.7672
  0
VERTEX
  8
LAYER_1
 62
   250
 10
8.3526
 20
-1.8618
  0
VERTEX
  8
LAYER_1
 62
   250
 10
8.3438
 20
-1.9579
  0
VERTEX
  8
LAYER_1
 62
   250
 10
8.3386
 20
-2.0554
  0
VERTEX
  8
LAYER_1
 62
   250
 10
8.3369
 20
-2.1545
  0
VERTEX
  8
LAYER_1
 62
   250
 10
8.3356
 20
-2.1769
  0
VERTEX
  8
LAYER_1
 62
   250
 10
8.3319
 20
-2.1977
  0
VERTEX
  8
LAYER_1
 62
   250
 10
8.3258
 20
-2.2168
  0
VERTEX
  8
LAYER_1
 62
   250
 10
8.3172
 20
-2.2345
  0
VERTEX
  8
LAYER_1
 62
   250
 10
8.3061
 20
-2.2505
  0
VERTEX
  8
LAYER_1
 62
   250
 10
8.2925
 20
-2.2649
  0
VERTEX
  8
LAYER_1
 62
   250
 10
8.2765
 20
-2.2777
  0
VERTEX
  8
LAYER_1
 62
   250
 10
8.2581
 20
-2.2889
  0
VERTEX
  8
LAYER_1
 62
   250
 10
8.239
 20
-2.2969
  0
VERTEX
  8
LAYER_1
 62
   250
 10
8.2212
 20
-2.3002
  0
VERTEX
  8
LAYER_1
 62
   250
 10
8.2049
 20
-2.2986
  0
VERTEX
  8
LAYER_1
 62
   250
 10
8.1897
 20
-2.2924
  0
VERTEX
  8
LAYER_1
 62
   250
 10
8.1753
 20
-2.2815
  0
VERTEX
  8
LAYER_1
 62
   250
 10
8.1617
 20
-2.2659
  0
VERTEX
  8
LAYER_1
 62
   250
 10
8.1502
 20
-2.2454
  0
VERTEX
  8
LAYER_1
 62
   250
 10
8.1421
 20
-2.2194
  0
VERTEX
  8
LAYER_1
 62
   250
 10
8.1358
 20
-2.1884
  0
VERTEX
  8
LAYER_1
 62
   250
 10
8.1293
 20
-2.1551
  0
VERTEX
  8
LAYER_1
 62
   250
 10
8.1223
 20
-2.1196
  0
VERTEX
  8
LAYER_1
 62
   250
 10
8.115
 20
-2.0818
  0
VERTEX
  8
LAYER_1
 62
   250
 10
8.1069
 20
-2.0418
  0
VERTEX
  8
LAYER_1
 62
   250
 10
8.0979
 20
-1.9996
  0
VERTEX
  8
LAYER_1
 62
   250
 10
8.0881
 20
-1.9552
  0
VERTEX
  8
LAYER_1
 62
   250
 10
8.0772
 20
-1.9087
  0
VERTEX
  8
LAYER_1
 62
   250
 10
8.0653
 20
-1.8612
  0
VERTEX
  8
LAYER_1
 62
   250
 10
8.0526
 20
-1.8134
  0
VERTEX
  8
LAYER_1
 62
   250
 10
8.0392
 20
-1.7655
  0
VERTEX
  8
LAYER_1
 62
   250
 10
8.025
 20
-1.7174
  0
VERTEX
  8
LAYER_1
 62
   250
 10
8.0103
 20
-1.6693
  0
VERTEX
  8
LAYER_1
 62
   250
 10
7.9946
 20
-1.621
  0
VERTEX
  8
LAYER_1
 62
   250
 10
7.9782
 20
-1.5724
  0
VERTEX
  8
LAYER_1
 62
   250
 10
7.9612
 20
-1.5238
  0
VERTEX
  8
LAYER_1
 62
   250
 10
7.9436
 20
-1.4757
  0
VERTEX
  8
LAYER_1
 62
   250
 10
7.9253
 20
-1.4285
  0
VERTEX
  8
LAYER_1
 62
   250
 10
7.9065
 20
-1.3824
  0
VERTEX
  8
LAYER_1
 62
   250
 10
7.8871
 20
-1.3372
  0
VERTEX
  8
LAYER_1
 62
   250
 10
7.8671
 20
-1.2931
  0
VERTEX
  8
LAYER_1
 62
   250
 10
7.8465
 20
-1.25
  0
VERTEX
  8
LAYER_1
 62
   250
 10
7.8253
 20
-1.2079
  0
VERTEX
  8
LAYER_1
 62
   250
 10
7.8036
 20
-1.1667
  0
VERTEX
  8
LAYER_1
 62
   250
 10
7.7814
 20
-1.128
  0
VERTEX
  8
LAYER_1
 62
   250
 10
7.7586
 20
-1.0928
  0
VERTEX
  8
LAYER_1
 62
   250
 10
7.7355
 20
-1.0613
  0
VERTEX
  8
LAYER_1
 62
   250
 10
7.7119
 20
-1.0334
  0
VERTEX
  8
LAYER_1
 62
   250
 10
7.688
 20
-1.0092
  0
VERTEX
  8
LAYER_1
 62
   250
 10
7.6636
 20
-0.9885
  0
VERTEX
  8
LAYER_1
 62
   250
 10
7.6388
 20
-0.9715
  0
VERTEX
  8
LAYER_1
 62
   250
 10
7.6135
 20
-0.958
  0
SEQEND
  8
LAYER_1
 62
   250
  0
ENDSEC
  0
EOF
