  0
SECTION
  2
HEADER
  9
$ACADVER
  1
AC1002
  9
$INSBASE
 10
0.0
 20
0.0
  9
$EXTMIN
 10
-24.9665
 20
-24.3865
  9
$EXTMAX
 10
24.9666
 20
24.3866
  9
$LIMMIN
 10
0.0
 20
0.0
  9
$LIMMAX
 10
12.0
 20
9.0
  9
$ORTHOMODE
 70
     0
  9
$REGENMODE
 70
     1
  9
$FILLMODE
 70
     1
  9
$QTEXTMODE
 70
     0
  9
$DRAGMODE
 70
     2
  9
$LTSCALE
 40
1.0
  9
$OSMODE
 70
    37
  9
$ATTMODE
 70
     1
  9
$TEXTSIZE
 40
0.2
  9
$TRACEWID
 40
0.05
  9
$TEXTSTYLE
  7
STANDARD
  9
$CLAYER
  8
0
  9
$CELTYPE
  6
BYLAYER
  9
$CECOLOR
 62
   256
  9
$DIMSCALE
 40
1.0
  9
$DIMASZ
 40
0.18
  9
$DIMEXO
 40
0.0625
  9
$DIMDLI
 40
0.38
  9
$DIMRND
 40
0.0
  9
$DIMDLE
 40
0.0
  9
$DIMEXE
 40
0.18
  9
$DIMTP
 40
0.0
  9
$DIMTM
 40
0.0
  9
$DIMTXT
 40
0.18
  9
$DIMCEN
 40
0.09
  9
$DIMTSZ
 40
0.0
  9
$DIMTOL
 70
     0
  9
$DIMLIM
 70
     0
  9
$DIMTIH
 70
     1
  9
$DIMTOH
 70
     1
  9
$DIMSE1
 70
     0
  9
$DIMSE2
 70
     0
  9
$DIMTAD
 70
     0
  9
$DIMZIN
 70
     0
  9
$DIMBLK
  1

  9
$LUNITS
 70
     2
  9
$LUPREC
 70
     4
  9
$SKETCHINC
 40
0.1
  9
$FILLETRAD
 40
0.5
  9
$AUNITS
 70
     0
  9
$AUPREC
 70
     0
  9
$MENU
  1
.
  9
$ELEVATION
 40
0.0
  9
$THICKNESS
 40
0.0
  9
$LIMCHECK
 70
     0
  9
$CHAMFERA
 40
0.0
  9
$CHAMFERB
 40
0.0
  9
$SKPOLY
 70
     0
  9
$TDCREATE
 40
2457119.61799316
  9
$TDUPDATE
 40
2457119.617993183
  9
$TDINDWG
 40
0.0000000116
  9
$TDUSRTIMER
 40
0.0000000116
  9
$USRTIMER
 70
     1
  9
$ANGBASE
 50
0.0
  9
$ANGDIR
 70
     0
  9
$PDMODE
 70
     0
  9
$PDSIZE
 40
0.0
  9
$PLINEWID
 40
0.0
  9
$COORDS
 70
     1
  9
$SURFTAB1
 70
     6
  9
$SURFTAB2
 70
     6
  9
$SURFTYPE
 70
     6
  9
$SURFU
 70
     6
  9
$SURFV
 70
     6
  9
$UCSNAME
  2

  9
$UCSORG
 10
0.0
 20
0.0
 30
0.0
  9
$UCSXDIR
 10
1.0
 20
0.0
 30
0.0
  9
$UCSYDIR
 10
0.0
 20
1.0
 30
0.0
  9
$USERI1
 70
     0
  9
$USERI2
 70
     0
  9
$USERI3
 70
     0
  9
$USERI4
 70
     0
  9
$USERI5
 70
     0
  9
$USERR1
 40
0.0
  9
$USERR2
 40
0.0
  9
$USERR3
 40
0.0
  9
$USERR4
 40
0.0
  9
$USERR5
 40
0.0
  0
ENDSEC
  0
SECTION
  2
TABLES
  0
TABLE
  2
LTYPE
 70
     1
  0
LTYPE
  2
CONTINUOUS
 70
     0
  3
Solid line
 72
    65
 73
     0
 40
0.0
  0
ENDTAB
  0
TABLE
  2
LAYER
 70
     2
  0
LAYER
  2
0
 70
     0
 62
     7
  6
CONTINUOUS
  0
LAYER
  2
LAYER_1
 70
     0
 62
     7
  6
CONTINUOUS
  0
ENDTAB
  0
TABLE
  2
STYLE
 70
     1
  0
STYLE
  2
STANDARD
 70
     0
 40
0.0
 41
1.0
 50
0.0
 71
     0
 42
0.2
  3
txt
  4

  0
ENDTAB
  0
TABLE
  2
VIEW
 70
     0
  0
ENDTAB
  0
ENDSEC
  0
SECTION
  2
BLOCKS
  0
ENDSEC
  0
SECTION
  2
ENTITIES
  0
POLYLINE
  8
LAYER_1
 62
   250
 66
     1
 70
     1
  0
VERTEX
  8
LAYER_1
 62
   250
 10
-21.9485
 20
6.2362
  0
VERTEX
  8
LAYER_1
 62
   250
 10
-22.2356
 20
5.2817
  0
VERTEX
  8
LAYER_1
 62
   250
 10
-22.4607
 20
4.3812
  0
VERTEX
  8
LAYER_1
 62
   250
 10
-22.6257
 20
3.5334
  0
VERTEX
  8
LAYER_1
 62
   250
 10
-22.7331
 20
2.7372
  0
VERTEX
  8
LAYER_1
 62
   250
 10
-22.7848
 20
1.9913
  0
VERTEX
  8
LAYER_1
 62
   250
 10
-22.7831
 20
1.2943
  0
VERTEX
  8
LAYER_1
 62
   250
 10
-22.7303
 20
0.6453
  0
VERTEX
  8
LAYER_1
 62
   250
 10
-22.6284
 20
0.0428
  0
VERTEX
  8
LAYER_1
 62
   250
 10
-22.4797
 20
-0.5144
  0
VERTEX
  8
LAYER_1
 62
   250
 10
-22.2865
 20
-1.0275
  0
VERTEX
  8
LAYER_1
 62
   250
 10
-22.0509
 20
-1.4977
  0
VERTEX
  8
LAYER_1
 62
   250
 10
-21.7749
 20
-1.9263
  0
VERTEX
  8
LAYER_1
 62
   250
 10
-21.461
 20
-2.3145
  0
VERTEX
  8
LAYER_1
 62
   250
 10
-21.1113
 20
-2.6636
  0
VERTEX
  8
LAYER_1
 62
   250
 10
-20.7279
 20
-2.9747
  0
VERTEX
  8
LAYER_1
 62
   250
 10
-20.3133
 20
-3.249
  0
VERTEX
  8
LAYER_1
 62
   250
 10
-19.8693
 20
-3.4879
  0
VERTEX
  8
LAYER_1
 62
   250
 10
-19.3982
 20
-3.6926
  0
VERTEX
  8
LAYER_1
 62
   250
 10
-18.9024
 20
-3.8643
  0
VERTEX
  8
LAYER_1
 62
   250
 10
-18.3839
 20
-4.0043
  0
VERTEX
  8
LAYER_1
 62
   250
 10
-17.845
 20
-4.1138
  0
VERTEX
  8
LAYER_1
 62
   250
 10
-17.2878
 20
-4.194
  0
VERTEX
  8
LAYER_1
 62
   250
 10
-16.7144
 20
-4.2462
  0
VERTEX
  8
LAYER_1
 62
   250
 10
-16.1273
 20
-4.2714
  0
VERTEX
  8
LAYER_1
 62
   250
 10
-15.5286
 20
-4.2711
  0
VERTEX
  8
LAYER_1
 62
   250
 10
-14.9203
 20
-4.2465
  0
VERTEX
  8
LAYER_1
 62
   250
 10
-14.3047
 20
-4.1988
  0
VERTEX
  8
LAYER_1
 62
   250
 10
-13.6841
 20
-4.1291
  0
VERTEX
  8
LAYER_1
 62
   250
 10
-13.0606
 20
-4.0389
  0
VERTEX
  8
LAYER_1
 62
   250
 10
-12.4363
 20
-3.9293
  0
VERTEX
  8
LAYER_1
 62
   250
 10
-11.8136
 20
-3.8014
  0
VERTEX
  8
LAYER_1
 62
   250
 10
-11.1946
 20
-3.6565
  0
VERTEX
  8
LAYER_1
 62
   250
 10
-11.94
 20
-4.0916
  0
VERTEX
  8
LAYER_1
 62
   250
 10
-12.6878
 20
-4.4774
  0
VERTEX
  8
LAYER_1
 62
   250
 10
-13.4353
 20
-4.8142
  0
VERTEX
  8
LAYER_1
 62
   250
 10
-14.1803
 20
-5.1018
  0
VERTEX
  8
LAYER_1
 62
   250
 10
-14.9201
 20
-5.3403
  0
VERTEX
  8
LAYER_1
 62
   250
 10
-15.6524
 20
-5.5297
  0
VERTEX
  8
LAYER_1
 62
   250
 10
-16.3747
 20
-5.6699
  0
VERTEX
  8
LAYER_1
 62
   250
 10
-17.0844
 20
-5.761
  0
VERTEX
  8
LAYER_1
 62
   250
 10
-17.7792
 20
-5.8027
  0
VERTEX
  8
LAYER_1
 62
   250
 10
-18.4567
 20
-5.7952
  0
VERTEX
  8
LAYER_1
 62
   250
 10
-19.1142
 20
-5.7383
  0
VERTEX
  8
LAYER_1
 62
   250
 10
-19.7494
 20
-5.6322
  0
VERTEX
  8
LAYER_1
 62
   250
 10
-20.3596
 20
-5.4766
  0
VERTEX
  8
LAYER_1
 62
   250
 10
-20.9428
 20
-5.2716
  0
VERTEX
  8
LAYER_1
 62
   250
 10
-21.4962
 20
-5.0174
  0
VERTEX
  8
LAYER_1
 62
   250
 10
-22.0175
 20
-4.7136
  0
VERTEX
  8
LAYER_1
 62
   250
 10
-22.5039
 20
-4.3604
  0
VERTEX
  8
LAYER_1
 62
   250
 10
-22.9534
 20
-3.9577
  0
VERTEX
  8
LAYER_1
 62
   250
 10
-23.3634
 20
-3.5055
  0
VERTEX
  8
LAYER_1
 62
   250
 10
-23.7313
 20
-3.0036
  0
VERTEX
  8
LAYER_1
 62
   250
 10
-24.0547
 20
-2.4523
  0
VERTEX
  8
LAYER_1
 62
   250
 10
-24.3311
 20
-1.8513
  0
VERTEX
  8
LAYER_1
 62
   250
 10
-24.5582
 20
-1.2006
  0
VERTEX
  8
LAYER_1
 62
   250
 10
-24.7333
 20
-0.5002
  0
VERTEX
  8
LAYER_1
 62
   250
 10
-24.8541
 20
0.2497
  0
VERTEX
  8
LAYER_1
 62
   250
 10
-24.9182
 20
1.0493
  0
VERTEX
  8
LAYER_1
 62
   250
 10
-24.9231
 20
1.8988
  0
VERTEX
  8
LAYER_1
 62
   250
 10
-24.8661
 20
2.7982
  0
VERTEX
  8
LAYER_1
 62
   250
 10
-24.7449
 20
3.7471
  0
VERTEX
  8
LAYER_1
 62
   250
 10
-24.5571
 20
4.7461
  0
VERTEX
  8
LAYER_1
 62
   250
 10
-24.3002
 20
5.7948
  0
VERTEX
  8
LAYER_1
 62
   250
 10
-23.9717
 20
6.8936
  0
VERTEX
  8
LAYER_1
 62
   250
 10
-23.5916
 20
7.9755
  0
VERTEX
  8
LAYER_1
 62
   250
 10
-23.1831
 20
8.9749
  0
VERTEX
  8
LAYER_1
 62
   250
 10
-22.7478
 20
9.8935
  0
VERTEX
  8
LAYER_1
 62
   250
 10
-22.2881
 20
10.7325
  0
VERTEX
  8
LAYER_1
 62
   250
 10
-21.8056
 20
11.4934
  0
VERTEX
  8
LAYER_1
 62
   250
 10
-21.3023
 20
12.1779
  0
VERTEX
  8
LAYER_1
 62
   250
 10
-20.7805
 20
12.7873
  0
VERTEX
  8
LAYER_1
 62
   250
 10
-20.242
 20
13.323
  0
VERTEX
  8
LAYER_1
 62
   250
 10
-19.6887
 20
13.7866
  0
VERTEX
  8
LAYER_1
 62
   250
 10
-19.1225
 20
14.1796
  0
VERTEX
  8
LAYER_1
 62
   250
 10
-18.5456
 20
14.5033
  0
VERTEX
  8
LAYER_1
 62
   250
 10
-17.9599
 20
14.7593
  0
VERTEX
  8
LAYER_1
 62
   250
 10
-17.3672
 20
14.949
  0
VERTEX
  8
LAYER_1
 62
   250
 10
-16.7698
 20
15.0739
  0
VERTEX
  8
LAYER_1
 62
   250
 10
-16.1694
 20
15.1355
  0
VERTEX
  8
LAYER_1
 62
   250
 10
-15.5682
 20
15.1353
  0
VERTEX
  8
LAYER_1
 62
   250
 10
-14.968
 20
15.0747
  0
VERTEX
  8
LAYER_1
 62
   250
 10
-14.3708
 20
14.9551
  0
VERTEX
  8
LAYER_1
 62
   250
 10
-13.7786
 20
14.778
  0
VERTEX
  8
LAYER_1
 62
   250
 10
-13.1933
 20
14.5452
  0
VERTEX
  8
LAYER_1
 62
   250
 10
-12.6171
 20
14.2577
  0
VERTEX
  8
LAYER_1
 62
   250
 10
-12.0517
 20
13.9173
  0
VERTEX
  8
LAYER_1
 62
   250
 10
-11.4993
 20
13.5253
  0
VERTEX
  8
LAYER_1
 62
   250
 10
-10.9616
 20
13.0831
  0
VERTEX
  8
LAYER_1
 62
   250
 10
-10.441
 20
12.5924
  0
VERTEX
  8
LAYER_1
 62
   250
 10
-9.9391
 20
12.0543
  0
VERTEX
  8
LAYER_1
 62
   250
 10
-9.4579
 20
11.4707
  0
VERTEX
  8
LAYER_1
 62
   250
 10
-8.9996
 20
10.8428
  0
VERTEX
  8
LAYER_1
 62
   250
 10
-8.5661
 20
10.1722
  0
VERTEX
  8
LAYER_1
 62
   250
 10
-8.1592
 20
9.4604
  0
VERTEX
  8
LAYER_1
 62
   250
 10
-7.781
 20
8.7087
  0
VERTEX
  8
LAYER_1
 62
   250
 10
-7.4336
 20
7.9186
  0
VERTEX
  8
LAYER_1
 62
   250
 10
-7.8492
 20
8.3997
  0
VERTEX
  8
LAYER_1
 62
   250
 10
-8.2779
 20
8.8691
  0
VERTEX
  8
LAYER_1
 62
   250
 10
-8.7183
 20
9.3247
  0
VERTEX
  8
LAYER_1
 62
   250
 10
-9.1698
 20
9.7642
  0
VERTEX
  8
LAYER_1
 62
   250
 10
-9.6311
 20
10.1853
  0
VERTEX
  8
LAYER_1
 62
   250
 10
-10.101
 20
10.5858
  0
VERTEX
  8
LAYER_1
 62
   250
 10
-10.5785
 20
10.9632
  0
VERTEX
  8
LAYER_1
 62
   250
 10
-11.0628
 20
11.3154
  0
VERTEX
  8
LAYER_1
 62
   250
 10
-11.5526
 20
11.64
  0
VERTEX
  8
LAYER_1
 62
   250
 10
-12.0471
 20
11.9348
  0
VERTEX
  8
LAYER_1
 62
   250
 10
-12.5451
 20
12.1974
  0
VERTEX
  8
LAYER_1
 62
   250
 10
-13.0454
 20
12.4257
  0
VERTEX
  8
LAYER_1
 62
   250
 10
-13.5471
 20
12.6172
  0
VERTEX
  8
LAYER_1
 62
   250
 10
-14.0493
 20
12.7698
  0
VERTEX
  8
LAYER_1
 62
   250
 10
-14.5506
 20
12.881
  0
VERTEX
  8
LAYER_1
 62
   250
 10
-15.0503
 20
12.9488
  0
VERTEX
  8
LAYER_1
 62
   250
 10
-15.547
 20
12.9706
  0
VERTEX
  8
LAYER_1
 62
   250
 10
-16.04
 20
12.9442
  0
VERTEX
  8
LAYER_1
 62
   250
 10
-16.528
 20
12.8674
  0
VERTEX
  8
LAYER_1
 62
   250
 10
-17.0102
 20
12.7379
  0
VERTEX
  8
LAYER_1
 62
   250
 10
-17.4852
 20
12.5533
  0
VERTEX
  8
LAYER_1
 62
   250
 10
-17.9523
 20
12.3114
  0
VERTEX
  8
LAYER_1
 62
   250
 10
-18.4103
 20
12.0099
  0
VERTEX
  8
LAYER_1
 62
   250
 10
-18.8581
 20
11.6465
  0
VERTEX
  8
LAYER_1
 62
   250
 10
-19.2945
 20
11.2189
  0
VERTEX
  8
LAYER_1
 62
   250
 10
-19.7189
 20
10.7249
  0
VERTEX
  8
LAYER_1
 62
   250
 10
-20.1299
 20
10.1621
  0
VERTEX
  8
LAYER_1
 62
   250
 10
-20.5265
 20
9.5281
  0
VERTEX
  8
LAYER_1
 62
   250
 10
-20.9077
 20
8.821
  0
VERTEX
  8
LAYER_1
 62
   250
 10
-21.2725
 20
8.0381
  0
VERTEX
  8
LAYER_1
 62
   250
 10
-21.6198
 20
7.1773
  0
VERTEX
  8
LAYER_1
 62
   250
 10
-21.9485
 20
6.2362
  0
SEQEND
  8
LAYER_1
 62
   250
  0
POLYLINE
  8
LAYER_1
 62
   250
 66
     1
 70
     1
  0
VERTEX
  8
LAYER_1
 62
   250
 10
21.9486
 20
6.2361
  0
VERTEX
  8
LAYER_1
 62
   250
 10
21.6198
 20
7.177
  0
VERTEX
  8
LAYER_1
 62
   250
 10
21.2726
 20
8.0379
  0
VERTEX
  8
LAYER_1
 62
   250
 10
20.9078
 20
8.8208
  0
VERTEX
  8
LAYER_1
 62
   250
 10
20.5267
 20
9.528
  0
VERTEX
  8
LAYER_1
 62
   250
 10
20.1302
 20
10.1619
  0
VERTEX
  8
LAYER_1
 62
   250
 10
19.7191
 20
10.7247
  0
VERTEX
  8
LAYER_1
 62
   250
 10
19.2949
 20
11.2188
  0
VERTEX
  8
LAYER_1
 62
   250
 10
18.8583
 20
11.6463
  0
VERTEX
  8
LAYER_1
 62
   250
 10
18.4105
 20
12.0097
  0
VERTEX
  8
LAYER_1
 62
   250
 10
17.9526
 20
12.3112
  0
VERTEX
  8
LAYER_1
 62
   250
 10
17.4856
 20
12.5531
  0
VERTEX
  8
LAYER_1
 62
   250
 10
17.0104
 20
12.7377
  0
VERTEX
  8
LAYER_1
 62
   250
 10
16.5283
 20
12.8672
  0
VERTEX
  8
LAYER_1
 62
   250
 10
16.0401
 20
12.9441
  0
VERTEX
  8
LAYER_1
 62
   250
 10
15.5472
 20
12.9704
  0
VERTEX
  8
LAYER_1
 62
   250
 10
15.0505
 20
12.9487
  0
VERTEX
  8
LAYER_1
 62
   250
 10
14.5508
 20
12.881
  0
VERTEX
  8
LAYER_1
 62
   250
 10
14.0494
 20
12.7697
  0
VERTEX
  8
LAYER_1
 62
   250
 10
13.5474
 20
12.6171
  0
VERTEX
  8
LAYER_1
 62
   250
 10
13.0456
 20
12.4256
  0
VERTEX
  8
LAYER_1
 62
   250
 10
12.5452
 20
12.1974
  0
VERTEX
  8
LAYER_1
 62
   250
 10
12.0473
 20
11.9348
  0
VERTEX
  8
LAYER_1
 62
   250
 10
11.5528
 20
11.64
  0
VERTEX
  8
LAYER_1
 62
   250
 10
11.0629
 20
11.3153
  0
VERTEX
  8
LAYER_1
 62
   250
 10
10.5788
 20
10.9632
  0
VERTEX
  8
LAYER_1
 62
   250
 10
10.1011
 20
10.5857
  0
VERTEX
  8
LAYER_1
 62
   250
 10
9.6312
 20
10.1853
  0
VERTEX
  8
LAYER_1
 62
   250
 10
9.17
 20
9.7641
  0
VERTEX
  8
LAYER_1
 62
   250
 10
8.7187
 20
9.3247
  0
VERTEX
  8
LAYER_1
 62
   250
 10
8.278
 20
8.869
  0
VERTEX
  8
LAYER_1
 62
   250
 10
7.8494
 20
8.3996
  0
VERTEX
  8
LAYER_1
 62
   250
 10
7.4337
 20
7.9185
  0
VERTEX
  8
LAYER_1
 62
   250
 10
7.781
 20
8.7086
  0
VERTEX
  8
LAYER_1
 62
   250
 10
8.1593
 20
9.4602
  0
VERTEX
  8
LAYER_1
 62
   250
 10
8.5661
 20
10.1721
  0
VERTEX
  8
LAYER_1
 62
   250
 10
8.9997
 20
10.8427
  0
VERTEX
  8
LAYER_1
 62
   250
 10
9.458
 20
11.4705
  0
VERTEX
  8
LAYER_1
 62
   250
 10
9.9391
 20
12.0541
  0
VERTEX
  8
LAYER_1
 62
   250
 10
10.441
 20
12.5921
  0
VERTEX
  8
LAYER_1
 62
   250
 10
10.9618
 20
13.083
  0
VERTEX
  8
LAYER_1
 62
   250
 10
11.4993
 20
13.5251
  0
VERTEX
  8
LAYER_1
 62
   250
 10
12.0518
 20
13.9172
  0
VERTEX
  8
LAYER_1
 62
   250
 10
12.6172
 20
14.2577
  0
VERTEX
  8
LAYER_1
 62
   250
 10
13.1934
 20
14.5451
  0
VERTEX
  8
LAYER_1
 62
   250
 10
13.7786
 20
14.778
  0
VERTEX
  8
LAYER_1
 62
   250
 10
14.3708
 20
14.9549
  0
VERTEX
  8
LAYER_1
 62
   250
 10
14.968
 20
15.0745
  0
VERTEX
  8
LAYER_1
 62
   250
 10
15.5683
 20
15.1352
  0
VERTEX
  8
LAYER_1
 62
   250
 10
16.1694
 20
15.1354
  0
VERTEX
  8
LAYER_1
 62
   250
 10
16.7698
 20
15.0738
  0
VERTEX
  8
LAYER_1
 62
   250
 10
17.3673
 20
14.9489
  0
VERTEX
  8
LAYER_1
 62
   250
 10
17.9599
 20
14.7591
  0
VERTEX
  8
LAYER_1
 62
   250
 10
18.5457
 20
14.5032
  0
VERTEX
  8
LAYER_1
 62
   250
 10
19.1225
 20
14.1794
  0
VERTEX
  8
LAYER_1
 62
   250
 10
19.6887
 20
13.7866
  0
VERTEX
  8
LAYER_1
 62
   250
 10
20.242
 20
13.3229
  0
VERTEX
  8
LAYER_1
 62
   250
 10
20.7805
 20
12.7871
  0
VERTEX
  8
LAYER_1
 62
   250
 10
21.3024
 20
12.1779
  0
VERTEX
  8
LAYER_1
 62
   250
 10
21.8057
 20
11.4935
  0
VERTEX
  8
LAYER_1
 62
   250
 10
22.2882
 20
10.7324
  0
VERTEX
  8
LAYER_1
 62
   250
 10
22.7479
 20
9.8935
  0
VERTEX
  8
LAYER_1
 62
   250
 10
23.1832
 20
8.9749
  0
VERTEX
  8
LAYER_1
 62
   250
 10
23.5917
 20
7.9754
  0
VERTEX
  8
LAYER_1
 62
   250
 10
23.9719
 20
6.8935
  0
VERTEX
  8
LAYER_1
 62
   250
 10
24.3003
 20
5.7948
  0
VERTEX
  8
LAYER_1
 62
   250
 10
24.5572
 20
4.746
  0
VERTEX
  8
LAYER_1
 62
   250
 10
24.745
 20
3.7471
  0
VERTEX
  8
LAYER_1
 62
   250
 10
24.8662
 20
2.7981
  0
VERTEX
  8
LAYER_1
 62
   250
 10
24.9231
 20
1.8989
  0
VERTEX
  8
LAYER_1
 62
   250
 10
24.9183
 20
1.0493
  0
VERTEX
  8
LAYER_1
 62
   250
 10
24.8543
 20
0.2496
  0
VERTEX
  8
LAYER_1
 62
   250
 10
24.7336
 20
-0.5003
  0
VERTEX
  8
LAYER_1
 62
   250
 10
24.5584
 20
-1.2006
  0
VERTEX
  8
LAYER_1
 62
   250
 10
24.3314
 20
-1.8513
  0
VERTEX
  8
LAYER_1
 62
   250
 10
24.0549
 20
-2.4523
  0
VERTEX
  8
LAYER_1
 62
   250
 10
23.7315
 20
-3.0037
  0
VERTEX
  8
LAYER_1
 62
   250
 10
23.3636
 20
-3.5056
  0
VERTEX
  8
LAYER_1
 62
   250
 10
22.9537
 20
-3.9578
  0
VERTEX
  8
LAYER_1
 62
   250
 10
22.5041
 20
-4.3605
  0
VERTEX
  8
LAYER_1
 62
   250
 10
22.0176
 20
-4.7137
  0
VERTEX
  8
LAYER_1
 62
   250
 10
21.4964
 20
-5.0175
  0
VERTEX
  8
LAYER_1
 62
   250
 10
20.943
 20
-5.2717
  0
VERTEX
  8
LAYER_1
 62
   250
 10
20.3598
 20
-5.4765
  0
VERTEX
  8
LAYER_1
 62
   250
 10
19.7495
 20
-5.6322
  0
VERTEX
  8
LAYER_1
 62
   250
 10
19.1143
 20
-5.7384
  0
VERTEX
  8
LAYER_1
 62
   250
 10
18.4568
 20
-5.7952
  0
VERTEX
  8
LAYER_1
 62
   250
 10
17.7795
 20
-5.8028
  0
VERTEX
  8
LAYER_1
 62
   250
 10
17.0846
 20
-5.7611
  0
VERTEX
  8
LAYER_1
 62
   250
 10
16.3749
 20
-5.6701
  0
VERTEX
  8
LAYER_1
 62
   250
 10
15.6526
 20
-5.5299
  0
VERTEX
  8
LAYER_1
 62
   250
 10
14.9203
 20
-5.3405
  0
VERTEX
  8
LAYER_1
 62
   250
 10
14.1804
 20
-5.102
  0
VERTEX
  8
LAYER_1
 62
   250
 10
13.4356
 20
-4.8142
  0
VERTEX
  8
LAYER_1
 62
   250
 10
12.688
 20
-4.4775
  0
VERTEX
  8
LAYER_1
 62
   250
 10
11.9402
 20
-4.0917
  0
VERTEX
  8
LAYER_1
 62
   250
 10
11.1947
 20
-3.6567
  0
VERTEX
  8
LAYER_1
 62
   250
 10
11.8138
 20
-3.8015
  0
VERTEX
  8
LAYER_1
 62
   250
 10
12.4364
 20
-3.9294
  0
VERTEX
  8
LAYER_1
 62
   250
 10
13.0606
 20
-4.0391
  0
VERTEX
  8
LAYER_1
 62
   250
 10
13.6842
 20
-4.1293
  0
VERTEX
  8
LAYER_1
 62
   250
 10
14.3048
 20
-4.1988
  0
VERTEX
  8
LAYER_1
 62
   250
 10
14.9204
 20
-4.2466
  0
VERTEX
  8
LAYER_1
 62
   250
 10
15.5286
 20
-4.2713
  0
VERTEX
  8
LAYER_1
 62
   250
 10
16.1274
 20
-4.2716
  0
VERTEX
  8
LAYER_1
 62
   250
 10
16.7144
 20
-4.2462
  0
VERTEX
  8
LAYER_1
 62
   250
 10
17.2878
 20
-4.1941
  0
VERTEX
  8
LAYER_1
 62
   250
 10
17.8451
 20
-4.1139
  0
VERTEX
  8
LAYER_1
 62
   250
 10
18.384
 20
-4.0045
  0
VERTEX
  8
LAYER_1
 62
   250
 10
18.9025
 20
-3.8645
  0
VERTEX
  8
LAYER_1
 62
   250
 10
19.3984
 20
-3.6928
  0
VERTEX
  8
LAYER_1
 62
   250
 10
19.8694
 20
-3.4881
  0
VERTEX
  8
LAYER_1
 62
   250
 10
20.3135
 20
-3.2492
  0
VERTEX
  8
LAYER_1
 62
   250
 10
20.7281
 20
-2.9749
  0
VERTEX
  8
LAYER_1
 62
   250
 10
21.1114
 20
-2.6637
  0
VERTEX
  8
LAYER_1
 62
   250
 10
21.4611
 20
-2.3148
  0
VERTEX
  8
LAYER_1
 62
   250
 10
21.7751
 20
-1.9266
  0
VERTEX
  8
LAYER_1
 62
   250
 10
22.0509
 20
-1.4981
  0
VERTEX
  8
LAYER_1
 62
   250
 10
22.2866
 20
-1.0277
  0
VERTEX
  8
LAYER_1
 62
   250
 10
22.4799
 20
-0.5147
  0
VERTEX
  8
LAYER_1
 62
   250
 10
22.6286
 20
0.0426
  0
VERTEX
  8
LAYER_1
 62
   250
 10
22.7303
 20
0.645
  0
VERTEX
  8
LAYER_1
 62
   250
 10
22.7832
 20
1.2941
  0
VERTEX
  8
LAYER_1
 62
   250
 10
22.7849
 20
1.991
  0
VERTEX
  8
LAYER_1
 62
   250
 10
22.7331
 20
2.7371
  0
VERTEX
  8
LAYER_1
 62
   250
 10
22.6259
 20
3.5332
  0
VERTEX
  8
LAYER_1
 62
   250
 10
22.4608
 20
4.381
  0
VERTEX
  8
LAYER_1
 62
   250
 10
22.2358
 20
5.2815
  0
VERTEX
  8
LAYER_1
 62
   250
 10
21.9486
 20
6.2361
  0
SEQEND
  8
LAYER_1
 62
   250
  0
POLYLINE
  8
LAYER_1
 62
   250
 66
     1
 70
     1
  0
VERTEX
  8
LAYER_1
 62
   250
 10
-0.0498
 20
22.2211
  0
VERTEX
  8
LAYER_1
 62
   250
 10
-1.0463
 20
22.1992
  0
VERTEX
  8
LAYER_1
 62
   250
 10
-1.9723
 20
22.135
  0
VERTEX
  8
LAYER_1
 62
   250
 10
-2.8296
 20
22.03
  0
VERTEX
  8
LAYER_1
 62
   250
 10
-3.62
 20
21.8861
  0
VERTEX
  8
LAYER_1
 62
   250
 10
-4.3454
 20
21.7048
  0
VERTEX
  8
LAYER_1
 62
   250
 10
-5.0077
 20
21.4878
  0
VERTEX
  8
LAYER_1
 62
   250
 10
-5.6087
 20
21.237
  0
VERTEX
  8
LAYER_1
 62
   250
 10
-6.1502
 20
20.9539
  0
VERTEX
  8
LAYER_1
 62
   250
 10
-6.6342
 20
20.6403
  0
VERTEX
  8
LAYER_1
 62
   250
 10
-7.0624
 20
20.298
  0
VERTEX
  8
LAYER_1
 62
   250
 10
-7.4368
 20
19.9286
  0
VERTEX
  8
LAYER_1
 62
   250
 10
-7.7592
 20
19.5337
  0
VERTEX
  8
LAYER_1
 62
   250
 10
-8.0314
 20
19.1152
  0
VERTEX
  8
LAYER_1
 62
   250
 10
-8.2553
 20
18.6747
  0
VERTEX
  8
LAYER_1
 62
   250
 10
-8.4327
 20
18.214
  0
VERTEX
  8
LAYER_1
 62
   250
 10
-8.5655
 20
17.7349
  0
VERTEX
  8
LAYER_1
 62
   250
 10
-8.6555
 20
17.2388
  0
VERTEX
  8
LAYER_1
 62
   250
 10
-8.7046
 20
16.7275
  0
VERTEX
  8
LAYER_1
 62
   250
 10
-8.7146
 20
16.2029
  0
VERTEX
  8
LAYER_1
 62
   250
 10
-8.6876
 20
15.6665
  0
VERTEX
  8
LAYER_1
 62
   250
 10
-8.6252
 20
15.1201
  0
VERTEX
  8
LAYER_1
 62
   250
 10
-8.5293
 20
14.5654
  0
VERTEX
  8
LAYER_1
 62
   250
 10
-8.4017
 20
14.004
  0
VERTEX
  8
LAYER_1
 62
   250
 10
-8.2443
 20
13.4378
  0
VERTEX
  8
LAYER_1
 62
   250
 10
-8.059
 20
12.8685
  0
VERTEX
  8
LAYER_1
 62
   250
 10
-7.8476
 20
12.2976
  0
VERTEX
  8
LAYER_1
 62
   250
 10
-7.612
 20
11.7269
  0
VERTEX
  8
LAYER_1
 62
   250
 10
-7.354
 20
11.1582
  0
VERTEX
  8
LAYER_1
 62
   250
 10
-7.0755
 20
10.5931
  0
VERTEX
  8
LAYER_1
 62
   250
 10
-6.7783
 20
10.0332
  0
VERTEX
  8
LAYER_1
 62
   250
 10
-6.4643
 20
9.4805
  0
VERTEX
  8
LAYER_1
 62
   250
 10
-6.1352
 20
8.9365
  0
VERTEX
  8
LAYER_1
 62
   250
 10
-6.7793
 20
9.511
  0
VERTEX
  8
LAYER_1
 62
   250
 10
-7.3773
 20
10.103
  0
VERTEX
  8
LAYER_1
 62
   250
 10
-7.9286
 20
10.7099
  0
VERTEX
  8
LAYER_1
 62
   250
 10
-8.4324
 20
11.3295
  0
VERTEX
  8
LAYER_1
 62
   250
 10
-8.8878
 20
11.9594
  0
VERTEX
  8
LAYER_1
 62
   250
 10
-9.2942
 20
12.5973
  0
VERTEX
  8
LAYER_1
 62
   250
 10
-9.6508
 20
13.2409
  0
VERTEX
  8
LAYER_1
 62
   250
 10
-9.9567
 20
13.8878
  0
VERTEX
  8
LAYER_1
 62
   250
 10
-10.2111
 20
14.5357
  0
VERTEX
  8
LAYER_1
 62
   250
 10
-10.4133
 20
15.1823
  0
VERTEX
  8
LAYER_1
 62
   250
 10
-10.5624
 20
15.8252
  0
VERTEX
  8
LAYER_1
 62
   250
 10
-10.6577
 20
16.4621
  0
VERTEX
  8
LAYER_1
 62
   250
 10
-10.6983
 20
17.0906
  0
VERTEX
  8
LAYER_1
 62
   250
 10
-10.6836
 20
17.7085
  0
VERTEX
  8
LAYER_1
 62
   250
 10
-10.6128
 20
18.3134
  0
VERTEX
  8
LAYER_1
 62
   250
 10
-10.485
 20
18.9031
  0
VERTEX
  8
LAYER_1
 62
   250
 10
-10.2994
 20
19.4748
  0
VERTEX
  8
LAYER_1
 62
   250
 10
-10.0553
 20
20.0268
  0
VERTEX
  8
LAYER_1
 62
   250
 10
-9.7519
 20
20.5564
  0
VERTEX
  8
LAYER_1
 62
   250
 10
-9.3883
 20
21.0614
  0
VERTEX
  8
LAYER_1
 62
   250
 10
-8.9639
 20
21.5394
  0
VERTEX
  8
LAYER_1
 62
   250
 10
-8.4777
 20
21.988
  0
VERTEX
  8
LAYER_1
 62
   250
 10
-7.9291
 20
22.405
  0
VERTEX
  8
LAYER_1
 62
   250
 10
-7.3171
 20
22.788
  0
VERTEX
  8
LAYER_1
 62
   250
 10
-6.6412
 20
23.1346
  0
VERTEX
  8
LAYER_1
 62
   250
 10
-5.9005
 20
23.4427
  0
VERTEX
  8
LAYER_1
 62
   250
 10
-5.0941
 20
23.7098
  0
VERTEX
  8
LAYER_1
 62
   250
 10
-4.2211
 20
23.9335
  0
VERTEX
  8
LAYER_1
 62
   250
 10
-3.2812
 20
24.1115
  0
VERTEX
  8
LAYER_1
 62
   250
 10
-2.2731
 20
24.2416
  0
VERTEX
  8
LAYER_1
 62
   250
 10
-1.1963
 20
24.3213
  0
VERTEX
  8
LAYER_1
 62
   250
 10
-0.0498
 20
24.3485
  0
VERTEX
  8
LAYER_1
 62
   250
 10
1.0966
 20
24.3213
  0
VERTEX
  8
LAYER_1
 62
   250
 10
2.1734
 20
24.2416
  0
VERTEX
  8
LAYER_1
 62
   250
 10
3.1815
 20
24.1115
  0
VERTEX
  8
LAYER_1
 62
   250
 10
4.1215
 20
23.9335
  0
VERTEX
  8
LAYER_1
 62
   250
 10
4.9943
 20
23.7098
  0
VERTEX
  8
LAYER_1
 62
   250
 10
5.8008
 20
23.4427
  0
VERTEX
  8
LAYER_1
 62
   250
 10
6.5416
 20
23.1347
  0
VERTEX
  8
LAYER_1
 62
   250
 10
7.2175
 20
22.7881
  0
VERTEX
  8
LAYER_1
 62
   250
 10
7.8294
 20
22.4051
  0
VERTEX
  8
LAYER_1
 62
   250
 10
8.3781
 20
21.9881
  0
VERTEX
  8
LAYER_1
 62
   250
 10
8.8642
 20
21.5395
  0
VERTEX
  8
LAYER_1
 62
   250
 10
9.2887
 20
21.0615
  0
VERTEX
  8
LAYER_1
 62
   250
 10
9.6523
 20
20.5565
  0
VERTEX
  8
LAYER_1
 62
   250
 10
9.9557
 20
20.0269
  0
VERTEX
  8
LAYER_1
 62
   250
 10
10.1998
 20
19.4749
  0
VERTEX
  8
LAYER_1
 62
   250
 10
10.3854
 20
18.9031
  0
VERTEX
  8
LAYER_1
 62
   250
 10
10.5132
 20
18.3135
  0
VERTEX
  8
LAYER_1
 62
   250
 10
10.584
 20
17.7086
  0
VERTEX
  8
LAYER_1
 62
   250
 10
10.5986
 20
17.0907
  0
VERTEX
  8
LAYER_1
 62
   250
 10
10.558
 20
16.4621
  0
VERTEX
  8
LAYER_1
 62
   250
 10
10.4627
 20
15.8252
  0
VERTEX
  8
LAYER_1
 62
   250
 10
10.3136
 20
15.1823
  0
VERTEX
  8
LAYER_1
 62
   250
 10
10.1115
 20
14.5358
  0
VERTEX
  8
LAYER_1
 62
   250
 10
9.8571
 20
13.8878
  0
VERTEX
  8
LAYER_1
 62
   250
 10
9.5513
 20
13.241
  0
VERTEX
  8
LAYER_1
 62
   250
 10
9.1947
 20
12.5974
  0
VERTEX
  8
LAYER_1
 62
   250
 10
8.7883
 20
11.9594
  0
VERTEX
  8
LAYER_1
 62
   250
 10
8.3328
 20
11.3295
  0
VERTEX
  8
LAYER_1
 62
   250
 10
7.829
 20
10.71
  0
VERTEX
  8
LAYER_1
 62
   250
 10
7.2777
 20
10.1031
  0
VERTEX
  8
LAYER_1
 62
   250
 10
6.6797
 20
9.5111
  0
VERTEX
  8
LAYER_1
 62
   250
 10
6.0356
 20
8.9365
  0
VERTEX
  8
LAYER_1
 62
   250
 10
6.3647
 20
9.4805
  0
VERTEX
  8
LAYER_1
 62
   250
 10
6.6787
 20
10.0332
  0
VERTEX
  8
LAYER_1
 62
   250
 10
6.9759
 20
10.5929
  0
VERTEX
  8
LAYER_1
 62
   250
 10
7.2544
 20
11.1581
  0
VERTEX
  8
LAYER_1
 62
   250
 10
7.5123
 20
11.7269
  0
VERTEX
  8
LAYER_1
 62
   250
 10
7.748
 20
12.2976
  0
VERTEX
  8
LAYER_1
 62
   250
 10
7.9594
 20
12.8684
  0
VERTEX
  8
LAYER_1
 62
   250
 10
8.1447
 20
13.4378
  0
VERTEX
  8
LAYER_1
 62
   250
 10
8.302
 20
14.0039
  0
VERTEX
  8
LAYER_1
 62
   250
 10
8.4296
 20
14.5653
  0
VERTEX
  8
LAYER_1
 62
   250
 10
8.5255
 20
15.1201
  0
VERTEX
  8
LAYER_1
 62
   250
 10
8.588
 20
15.6665
  0
VERTEX
  8
LAYER_1
 62
   250
 10
8.6151
 20
16.2028
  0
VERTEX
  8
LAYER_1
 62
   250
 10
8.605
 20
16.7275
  0
VERTEX
  8
LAYER_1
 62
   250
 10
8.5559
 20
17.2387
  0
VERTEX
  8
LAYER_1
 62
   250
 10
8.4659
 20
17.7349
  0
VERTEX
  8
LAYER_1
 62
   250
 10
8.3332
 20
18.214
  0
VERTEX
  8
LAYER_1
 62
   250
 10
8.1557
 20
18.6747
  0
VERTEX
  8
LAYER_1
 62
   250
 10
7.9319
 20
19.1151
  0
VERTEX
  8
LAYER_1
 62
   250
 10
7.6597
 20
19.5337
  0
VERTEX
  8
LAYER_1
 62
   250
 10
7.3374
 20
19.9284
  0
VERTEX
  8
LAYER_1
 62
   250
 10
6.9629
 20
20.2979
  0
VERTEX
  8
LAYER_1
 62
   250
 10
6.5347
 20
20.6403
  0
VERTEX
  8
LAYER_1
 62
   250
 10
6.0507
 20
20.9539
  0
VERTEX
  8
LAYER_1
 62
   250
 10
5.5092
 20
21.2368
  0
VERTEX
  8
LAYER_1
 62
   250
 10
4.9082
 20
21.4877
  0
VERTEX
  8
LAYER_1
 62
   250
 10
4.2459
 20
21.7047
  0
VERTEX
  8
LAYER_1
 62
   250
 10
3.5204
 20
21.886
  0
VERTEX
  8
LAYER_1
 62
   250
 10
2.7301
 20
22.03
  0
VERTEX
  8
LAYER_1
 62
   250
 10
1.8728
 20
22.135
  0
VERTEX
  8
LAYER_1
 62
   250
 10
0.9468
 20
22.1993
  0
VERTEX
  8
LAYER_1
 62
   250
 10
-0.0498
 20
22.2211
  0
SEQEND
  8
LAYER_1
 62
   250
  0
POLYLINE
  8
LAYER_1
 62
   250
 66
     1
 70
     1
  0
VERTEX
  8
LAYER_1
 62
   250
 10
-13.6066
 20
-19.548
  0
VERTEX
  8
LAYER_1
 62
   250
 10
-12.7876
 20
-20.116
  0
VERTEX
  8
LAYER_1
 62
   250
 10
-12.0007
 20
-20.6083
  0
VERTEX
  8
LAYER_1
 62
   250
 10
-11.2454
 20
-21.0273
  0
VERTEX
  8
LAYER_1
 62
   250
 10
-10.5214
 20
-21.3755
  0
VERTEX
  8
LAYER_1
 62
   250
 10
-9.8279
 20
-21.6552
  0
VERTEX
  8
LAYER_1
 62
   250
 10
-9.1646
 20
-21.8689
  0
VERTEX
  8
LAYER_1
 62
   250
 10
-8.5309
 20
-22.0193
  0
VERTEX
  8
LAYER_1
 62
   250
 10
-7.9265
 20
-22.1085
  0
VERTEX
  8
LAYER_1
 62
   250
 10
-7.3506
 20
-22.1393
  0
VERTEX
  8
LAYER_1
 62
   250
 10
-6.8029
 20
-22.1141
  0
VERTEX
  8
LAYER_1
 62
   250
 10
-6.2829
 20
-22.0353
  0
VERTEX
  8
LAYER_1
 62
   250
 10
-5.79
 20
-21.9053
  0
VERTEX
  8
LAYER_1
 62
   250
 10
-5.3238
 20
-21.7267
  0
VERTEX
  8
LAYER_1
 62
   250
 10
-4.8837
 20
-21.502
  0
VERTEX
  8
LAYER_1
 62
   250
 10
-4.4694
 20
-21.2335
  0
VERTEX
  8
LAYER_1
 62
   250
 10
-4.0804
 20
-20.924
  0
VERTEX
  8
LAYER_1
 62
   250
 10
-3.7159
 20
-20.5755
  0
VERTEX
  8
LAYER_1
 62
   250
 10
-3.3757
 20
-20.1907
  0
VERTEX
  8
LAYER_1
 62
   250
 10
-3.0592
 20
-19.7722
  0
VERTEX
  8
LAYER_1
 62
   250
 10
-2.7658
 20
-19.3224
  0
VERTEX
  8
LAYER_1
 62
   250
 10
-2.4951
 20
-18.8436
  0
VERTEX
  8
LAYER_1
 62
   250
 10
-2.2467
 20
-18.3385
  0
VERTEX
  8
LAYER_1
 62
   250
 10
-2.0199
 20
-17.8093
  0
VERTEX
  8
LAYER_1
 62
   250
 10
-1.8144
 20
-17.2587
  0
VERTEX
  8
LAYER_1
 62
   250
 10
-1.6297
 20
-16.6893
  0
VERTEX
  8
LAYER_1
 62
   250
 10
-1.4652
 20
-16.1031
  0
VERTEX
  8
LAYER_1
 62
   250
 10
-1.3203
 20
-15.5029
  0
VERTEX
  8
LAYER_1
 62
   250
 10
-1.1948
 20
-14.8912
  0
VERTEX
  8
LAYER_1
 62
   250
 10
-1.0879
 20
-14.2703
  0
VERTEX
  8
LAYER_1
 62
   250
 10
-0.9993
 20
-13.6427
  0
VERTEX
  8
LAYER_1
 62
   250
 10
-0.9284
 20
-13.011
  0
VERTEX
  8
LAYER_1
 62
   250
 10
-0.8749
 20
-12.3774
  0
VERTEX
  8
LAYER_1
 62
   250
 10
-0.6915
 20
-13.2208
  0
VERTEX
  8
LAYER_1
 62
   250
 10
-0.5557
 20
-14.0512
  0
VERTEX
  8
LAYER_1
 62
   250
 10
-0.4664
 20
-14.8663
  0
VERTEX
  8
LAYER_1
 62
   250
 10
-0.423
 20
-15.6637
  0
VERTEX
  8
LAYER_1
 62
   250
 10
-0.4249
 20
-16.4409
  0
VERTEX
  8
LAYER_1
 62
   250
 10
-0.471
 20
-17.1959
  0
VERTEX
  8
LAYER_1
 62
   250
 10
-0.5608
 20
-17.9262
  0
VERTEX
  8
LAYER_1
 62
   250
 10
-0.6936
 20
-18.6293
  0
VERTEX
  8
LAYER_1
 62
   250
 10
-0.8686
 20
-19.303
  0
VERTEX
  8
LAYER_1
 62
   250
 10
-1.0851
 20
-19.945
  0
VERTEX
  8
LAYER_1
 62
   250
 10
-1.3423
 20
-20.5527
  0
VERTEX
  8
LAYER_1
 62
   250
 10
-1.6396
 20
-21.124
  0
VERTEX
  8
LAYER_1
 62
   250
 10
-1.9762
 20
-21.6564
  0
VERTEX
  8
LAYER_1
 62
   250
 10
-2.3513
 20
-22.1476
  0
VERTEX
  8
LAYER_1
 62
   250
 10
-2.7641
 20
-22.5954
  0
VERTEX
  8
LAYER_1
 62
   250
 10
-3.2141
 20
-22.9973
  0
VERTEX
  8
LAYER_1
 62
   250
 10
-3.7003
 20
-23.3507
  0
VERTEX
  8
LAYER_1
 62
   250
 10
-4.2222
 20
-23.6538
  0
VERTEX
  8
LAYER_1
 62
   250
 10
-4.779
 20
-23.904
  0
VERTEX
  8
LAYER_1
 62
   250
 10
-5.37
 20
-24.0988
  0
VERTEX
  8
LAYER_1
 62
   250
 10
-5.9943
 20
-24.2361
  0
VERTEX
  8
LAYER_1
 62
   250
 10
-6.6513
 20
-24.3132
  0
VERTEX
  8
LAYER_1
 62
   250
 10
-7.3402
 20
-24.3281
  0
VERTEX
  8
LAYER_1
 62
   250
 10
-8.0605
 20
-24.2782
  0
VERTEX
  8
LAYER_1
 62
   250
 10
-8.811
 20
-24.1613
  0
VERTEX
  8
LAYER_1
 62
   250
 10
-9.5913
 20
-23.9752
  0
VERTEX
  8
LAYER_1
 62
   250
 10
-10.4007
 20
-23.7173
  0
VERTEX
  8
LAYER_1
 62
   250
 10
-11.2385
 20
-23.3852
  0
VERTEX
  8
LAYER_1
 62
   250
 10
-12.1035
 20
-22.9767
  0
VERTEX
  8
LAYER_1
 62
   250
 10
-12.9956
 20
-22.4894
  0
VERTEX
  8
LAYER_1
 62
   250
 10
-13.9135
 20
-21.921
  0
VERTEX
  8
LAYER_1
 62
   250
 10
-14.8571
 20
-21.2691
  0
VERTEX
  8
LAYER_1
 62
   250
 10
-15.7685
 20
-20.5732
  0
VERTEX
  8
LAYER_1
 62
   250
 10
-16.5928
 20
-19.8758
  0
VERTEX
  8
LAYER_1
 62
   250
 10
-17.3319
 20
-19.178
  0
VERTEX
  8
LAYER_1
 62
   250
 10
-17.9878
 20
-18.4815
  0
VERTEX
  8
LAYER_1
 62
   250
 10
-18.5624
 20
-17.7875
  0
VERTEX
  8
LAYER_1
 62
   250
 10
-19.0579
 20
-17.0974
  0
VERTEX
  8
LAYER_1
 62
   250
 10
-19.4762
 20
-16.4128
  0
VERTEX
  8
LAYER_1
 62
   250
 10
-19.8193
 20
-15.7351
  0
VERTEX
  8
LAYER_1
 62
   250
 10
-20.0892
 20
-15.0656
  0
VERTEX
  8
LAYER_1
 62
   250
 10
-20.288
 20
-14.4057
  0
VERTEX
  8
LAYER_1
 62
   250
 10
-20.4176
 20
-13.757
  0
VERTEX
  8
LAYER_1
 62
   250
 10
-20.48
 20
-13.1208
  0
VERTEX
  8
LAYER_1
 62
   250
 10
-20.4774
 20
-12.4985
  0
VERTEX
  8
LAYER_1
 62
   250
 10
-20.4115
 20
-11.8918
  0
VERTEX
  8
LAYER_1
 62
   250
 10
-20.2845
 20
-11.3017
  0
VERTEX
  8
LAYER_1
 62
   250
 10
-20.0986
 20
-10.73
  0
VERTEX
  8
LAYER_1
 62
   250
 10
-19.8554
 20
-10.1779
  0
VERTEX
  8
LAYER_1
 62
   250
 10
-19.5572
 20
-9.6469
  0
VERTEX
  8
LAYER_1
 62
   250
 10
-19.2058
 20
-9.1384
  0
VERTEX
  8
LAYER_1
 62
   250
 10
-18.8035
 20
-8.6537
  0
VERTEX
  8
LAYER_1
 62
   250
 10
-18.352
 20
-8.1945
  0
VERTEX
  8
LAYER_1
 62
   250
 10
-17.8535
 20
-7.762
  0
VERTEX
  8
LAYER_1
 62
   250
 10
-17.31
 20
-7.3578
  0
VERTEX
  8
LAYER_1
 62
   250
 10
-16.7233
 20
-6.9831
  0
VERTEX
  8
LAYER_1
 62
   250
 10
-16.0957
 20
-6.6395
  0
VERTEX
  8
LAYER_1
 62
   250
 10
-15.4289
 20
-6.3285
  0
VERTEX
  8
LAYER_1
 62
   250
 10
-14.7251
 20
-6.0512
  0
VERTEX
  8
LAYER_1
 62
   250
 10
-13.9864
 20
-5.8093
  0
VERTEX
  8
LAYER_1
 62
   250
 10
-13.2146
 20
-5.6043
  0
VERTEX
  8
LAYER_1
 62
   250
 10
-12.4119
 20
-5.4373
  0
VERTEX
  8
LAYER_1
 62
   250
 10
-11.5801
 20
-5.3099
  0
VERTEX
  8
LAYER_1
 62
   250
 10
-10.7213
 20
-5.2236
  0
VERTEX
  8
LAYER_1
 62
   250
 10
-11.3073
 20
-5.4703
  0
VERTEX
  8
LAYER_1
 62
   250
 10
-11.8862
 20
-5.7329
  0
VERTEX
  8
LAYER_1
 62
   250
 10
-12.4556
 20
-6.011
  0
VERTEX
  8
LAYER_1
 62
   250
 10
-13.0132
 20
-6.3045
  0
VERTEX
  8
LAYER_1
 62
   250
 10
-13.5562
 20
-6.6131
  0
VERTEX
  8
LAYER_1
 62
   250
 10
-14.0823
 20
-6.9363
  0
VERTEX
  8
LAYER_1
 62
   250
 10
-14.5888
 20
-7.2738
  0
VERTEX
  8
LAYER_1
 62
   250
 10
-15.0734
 20
-7.6255
  0
VERTEX
  8
LAYER_1
 62
   250
 10
-15.5334
 20
-7.9911
  0
VERTEX
  8
LAYER_1
 62
   250
 10
-15.9666
 20
-8.3702
  0
VERTEX
  8
LAYER_1
 62
   250
 10
-16.3703
 20
-8.7627
  0
VERTEX
  8
LAYER_1
 62
   250
 10
-16.742
 20
-9.168
  0
VERTEX
  8
LAYER_1
 62
   250
 10
-17.0792
 20
-9.586
  0
VERTEX
  8
LAYER_1
 62
   250
 10
-17.3794
 20
-10.0164
  0
VERTEX
  8
LAYER_1
 62
   250
 10
-17.6402
 20
-10.4588
  0
VERTEX
  8
LAYER_1
 62
   250
 10
-17.859
 20
-10.9132
  0
VERTEX
  8
LAYER_1
 62
   250
 10
-18.0333
 20
-11.3788
  0
VERTEX
  8
LAYER_1
 62
   250
 10
-18.1605
 20
-11.8558
  0
VERTEX
  8
LAYER_1
 62
   250
 10
-18.2383
 20
-12.3436
  0
VERTEX
  8
LAYER_1
 62
   250
 10
-18.2641
 20
-12.8423
  0
VERTEX
  8
LAYER_1
 62
   250
 10
-18.2354
 20
-13.3511
  0
VERTEX
  8
LAYER_1
 62
   250
 10
-18.1496
 20
-13.8701
  0
VERTEX
  8
LAYER_1
 62
   250
 10
-18.0044
 20
-14.3988
  0
VERTEX
  8
LAYER_1
 62
   250
 10
-17.7972
 20
-14.937
  0
VERTEX
  8
LAYER_1
 62
   250
 10
-17.5254
 20
-15.4842
  0
VERTEX
  8
LAYER_1
 62
   250
 10
-17.1866
 20
-16.0404
  0
VERTEX
  8
LAYER_1
 62
   250
 10
-16.7784
 20
-16.6053
  0
VERTEX
  8
LAYER_1
 62
   250
 10
-16.298
 20
-17.1784
  0
VERTEX
  8
LAYER_1
 62
   250
 10
-15.7433
 20
-17.7594
  0
VERTEX
  8
LAYER_1
 62
   250
 10
-15.1114
 20
-18.3482
  0
VERTEX
  8
LAYER_1
 62
   250
 10
-14.4001
 20
-18.9446
  0
VERTEX
  8
LAYER_1
 62
   250
 10
-13.6066
 20
-19.548
  0
SEQEND
  8
LAYER_1
 62
   250
  0
POLYLINE
  8
LAYER_1
 62
   250
 66
     1
 70
     1
  0
VERTEX
  8
LAYER_1
 62
   250
 10
13.4783
 20
-19.566
  0
VERTEX
  8
LAYER_1
 62
   250
 10
14.2716
 20
-18.9625
  0
VERTEX
  8
LAYER_1
 62
   250
 10
14.983
 20
-18.3663
  0
VERTEX
  8
LAYER_1
 62
   250
 10
15.6149
 20
-17.7775
  0
VERTEX
  8
LAYER_1
 62
   250
 10
16.1698
 20
-17.1965
  0
VERTEX
  8
LAYER_1
 62
   250
 10
16.6501
 20
-16.6234
  0
VERTEX
  8
LAYER_1
 62
   250
 10
17.0583
 20
-16.0585
  0
VERTEX
  8
LAYER_1
 62
   250
 10
17.3971
 20
-15.5024
  0
VERTEX
  8
LAYER_1
 62
   250
 10
17.6688
 20
-14.9551
  0
VERTEX
  8
LAYER_1
 62
   250
 10
17.876
 20
-14.4169
  0
VERTEX
  8
LAYER_1
 62
   250
 10
18.0213
 20
-13.8883
  0
VERTEX
  8
LAYER_1
 62
   250
 10
18.107
 20
-13.3693
  0
VERTEX
  8
LAYER_1
 62
   250
 10
18.1357
 20
-12.8604
  0
VERTEX
  8
LAYER_1
 62
   250
 10
18.11
 20
-12.3618
  0
VERTEX
  8
LAYER_1
 62
   250
 10
18.0322
 20
-11.8738
  0
VERTEX
  8
LAYER_1
 62
   250
 10
17.9049
 20
-11.3968
  0
VERTEX
  8
LAYER_1
 62
   250
 10
17.7307
 20
-10.9312
  0
VERTEX
  8
LAYER_1
 62
   250
 10
17.512
 20
-10.4769
  0
VERTEX
  8
LAYER_1
 62
   250
 10
17.2511
 20
-10.0344
  0
VERTEX
  8
LAYER_1
 62
   250
 10
16.9509
 20
-9.6041
  0
VERTEX
  8
LAYER_1
 62
   250
 10
16.6137
 20
-9.186
  0
VERTEX
  8
LAYER_1
 62
   250
 10
16.2421
 20
-8.7807
  0
VERTEX
  8
LAYER_1
 62
   250
 10
15.8385
 20
-8.3883
  0
VERTEX
  8
LAYER_1
 62
   250
 10
15.4053
 20
-8.0091
  0
VERTEX
  8
LAYER_1
 62
   250
 10
14.9451
 20
-7.6435
  0
VERTEX
  8
LAYER_1
 62
   250
 10
14.4606
 20
-7.2919
  0
VERTEX
  8
LAYER_1
 62
   250
 10
13.954
 20
-6.9543
  0
VERTEX
  8
LAYER_1
 62
   250
 10
13.4279
 20
-6.631
  0
VERTEX
  8
LAYER_1
 62
   250
 10
12.8849
 20
-6.3226
  0
VERTEX
  8
LAYER_1
 62
   250
 10
12.3275
 20
-6.0291
  0
VERTEX
  8
LAYER_1
 62
   250
 10
11.7579
 20
-5.7509
  0
VERTEX
  8
LAYER_1
 62
   250
 10
11.179
 20
-5.4883
  0
VERTEX
  8
LAYER_1
 62
   250
 10
10.593
 20
-5.2416
  0
VERTEX
  8
LAYER_1
 62
   250
 10
11.4518
 20
-5.3278
  0
VERTEX
  8
LAYER_1
 62
   250
 10
12.2836
 20
-5.4552
  0
VERTEX
  8
LAYER_1
 62
   250
 10
13.0863
 20
-5.6222
  0
VERTEX
  8
LAYER_1
 62
   250
 10
13.8581
 20
-5.8273
  0
VERTEX
  8
LAYER_1
 62
   250
 10
14.5967
 20
-6.0692
  0
VERTEX
  8
LAYER_1
 62
   250
 10
15.3005
 20
-6.3464
  0
VERTEX
  8
LAYER_1
 62
   250
 10
15.9673
 20
-6.6575
  0
VERTEX
  8
LAYER_1
 62
   250
 10
16.595
 20
-7.0011
  0
VERTEX
  8
LAYER_1
 62
   250
 10
17.1816
 20
-7.3757
  0
VERTEX
  8
LAYER_1
 62
   250
 10
17.7253
 20
-7.78
  0
VERTEX
  8
LAYER_1
 62
   250
 10
18.2238
 20
-8.2124
  0
VERTEX
  8
LAYER_1
 62
   250
 10
18.6752
 20
-8.6717
  0
VERTEX
  8
LAYER_1
 62
   250
 10
19.0775
 20
-9.1563
  0
VERTEX
  8
LAYER_1
 62
   250
 10
19.4288
 20
-9.6648
  0
VERTEX
  8
LAYER_1
 62
   250
 10
19.7271
 20
-10.1958
  0
VERTEX
  8
LAYER_1
 62
   250
 10
19.9703
 20
-10.748
  0
VERTEX
  8
LAYER_1
 62
   250
 10
20.1562
 20
-11.3196
  0
VERTEX
  8
LAYER_1
 62
   250
 10
20.2832
 20
-11.9097
  0
VERTEX
  8
LAYER_1
 62
   250
 10
20.349
 20
-12.5165
  0
VERTEX
  8
LAYER_1
 62
   250
 10
20.3517
 20
-13.1387
  0
VERTEX
  8
LAYER_1
 62
   250
 10
20.2893
 20
-13.7749
  0
VERTEX
  8
LAYER_1
 62
   250
 10
20.1596
 20
-14.4236
  0
VERTEX
  8
LAYER_1
 62
   250
 10
19.9609
 20
-15.0834
  0
VERTEX
  8
LAYER_1
 62
   250
 10
19.6909
 20
-15.753
  0
VERTEX
  8
LAYER_1
 62
   250
 10
19.3478
 20
-16.4307
  0
VERTEX
  8
LAYER_1
 62
   250
 10
18.9297
 20
-17.1153
  0
VERTEX
  8
LAYER_1
 62
   250
 10
18.4343
 20
-17.8054
  0
VERTEX
  8
LAYER_1
 62
   250
 10
17.8595
 20
-18.4995
  0
VERTEX
  8
LAYER_1
 62
   250
 10
17.2037
 20
-19.196
  0
VERTEX
  8
LAYER_1
 62
   250
 10
16.4646
 20
-19.8938
  0
VERTEX
  8
LAYER_1
 62
   250
 10
15.6403
 20
-20.5912
  0
VERTEX
  8
LAYER_1
 62
   250
 10
14.7288
 20
-21.2871
  0
VERTEX
  8
LAYER_1
 62
   250
 10
13.7853
 20
-21.9389
  0
VERTEX
  8
LAYER_1
 62
   250
 10
12.8673
 20
-22.5074
  0
VERTEX
  8
LAYER_1
 62
   250
 10
11.9753
 20
-22.9947
  0
VERTEX
  8
LAYER_1
 62
   250
 10
11.1102
 20
-23.4032
  0
VERTEX
  8
LAYER_1
 62
   250
 10
10.2726
 20
-23.7352
  0
VERTEX
  8
LAYER_1
 62
   250
 10
9.4631
 20
-23.9932
  0
VERTEX
  8
LAYER_1
 62
   250
 10
8.6828
 20
-24.1794
  0
VERTEX
  8
LAYER_1
 62
   250
 10
7.9322
 20
-24.2963
  0
VERTEX
  8
LAYER_1
 62
   250
 10
7.2121
 20
-24.3461
  0
VERTEX
  8
LAYER_1
 62
   250
 10
6.5231
 20
-24.3313
  0
VERTEX
  8
LAYER_1
 62
   250
 10
5.8661
 20
-24.2541
  0
VERTEX
  8
LAYER_1
 62
   250
 10
5.2417
 20
-24.1169
  0
VERTEX
  8
LAYER_1
 62
   250
 10
4.6507
 20
-23.922
  0
VERTEX
  8
LAYER_1
 62
   250
 10
4.094
 20
-23.6719
  0
VERTEX
  8
LAYER_1
 62
   250
 10
3.572
 20
-23.3688
  0
VERTEX
  8
LAYER_1
 62
   250
 10
3.0858
 20
-23.0153
  0
VERTEX
  8
LAYER_1
 62
   250
 10
2.6358
 20
-22.6134
  0
VERTEX
  8
LAYER_1
 62
   250
 10
2.223
 20
-22.1657
  0
VERTEX
  8
LAYER_1
 62
   250
 10
1.848
 20
-21.6744
  0
VERTEX
  8
LAYER_1
 62
   250
 10
1.5114
 20
-21.142
  0
VERTEX
  8
LAYER_1
 62
   250
 10
1.2141
 20
-20.5707
  0
VERTEX
  8
LAYER_1
 62
   250
 10
0.9568
 20
-19.9629
  0
VERTEX
  8
LAYER_1
 62
   250
 10
0.7403
 20
-19.3211
  0
VERTEX
  8
LAYER_1
 62
   250
 10
0.5653
 20
-18.6473
  0
VERTEX
  8
LAYER_1
 62
   250
 10
0.4325
 20
-17.9443
  0
VERTEX
  8
LAYER_1
 62
   250
 10
0.3427
 20
-17.214
  0
VERTEX
  8
LAYER_1
 62
   250
 10
0.2965
 20
-16.459
  0
VERTEX
  8
LAYER_1
 62
   250
 10
0.2947
 20
-15.6817
  0
VERTEX
  8
LAYER_1
 62
   250
 10
0.3382
 20
-14.8843
  0
VERTEX
  8
LAYER_1
 62
   250
 10
0.4275
 20
-14.0693
  0
VERTEX
  8
LAYER_1
 62
   250
 10
0.5633
 20
-13.2389
  0
VERTEX
  8
LAYER_1
 62
   250
 10
0.7466
 20
-12.3954
  0
VERTEX
  8
LAYER_1
 62
   250
 10
0.8001
 20
-13.029
  0
VERTEX
  8
LAYER_1
 62
   250
 10
0.871
 20
-13.6607
  0
VERTEX
  8
LAYER_1
 62
   250
 10
0.9595
 20
-14.2882
  0
VERTEX
  8
LAYER_1
 62
   250
 10
1.0664
 20
-14.9091
  0
VERTEX
  8
LAYER_1
 62
   250
 10
1.1921
 20
-15.5209
  0
VERTEX
  8
LAYER_1
 62
   250
 10
1.3369
 20
-16.1211
  0
VERTEX
  8
LAYER_1
 62
   250
 10
1.5014
 20
-16.7072
  0
VERTEX
  8
LAYER_1
 62
   250
 10
1.6861
 20
-17.2767
  0
VERTEX
  8
LAYER_1
 62
   250
 10
1.8916
 20
-17.8272
  0
VERTEX
  8
LAYER_1
 62
   250
 10
2.1184
 20
-18.3564
  0
VERTEX
  8
LAYER_1
 62
   250
 10
2.3669
 20
-18.8616
  0
VERTEX
  8
LAYER_1
 62
   250
 10
2.6375
 20
-19.3404
  0
VERTEX
  8
LAYER_1
 62
   250
 10
2.9308
 20
-19.7902
  0
VERTEX
  8
LAYER_1
 62
   250
 10
3.2474
 20
-20.2087
  0
VERTEX
  8
LAYER_1
 62
   250
 10
3.5876
 20
-20.5934
  0
VERTEX
  8
LAYER_1
 62
   250
 10
3.9521
 20
-20.942
  0
VERTEX
  8
LAYER_1
 62
   250
 10
4.341
 20
-21.2516
  0
VERTEX
  8
LAYER_1
 62
   250
 10
4.7554
 20
-21.52
  0
VERTEX
  8
LAYER_1
 62
   250
 10
5.1953
 20
-21.7447
  0
VERTEX
  8
LAYER_1
 62
   250
 10
5.6616
 20
-21.9234
  0
VERTEX
  8
LAYER_1
 62
   250
 10
6.1543
 20
-22.0532
  0
VERTEX
  8
LAYER_1
 62
   250
 10
6.6745
 20
-22.132
  0
VERTEX
  8
LAYER_1
 62
   250
 10
7.2222
 20
-22.1574
  0
VERTEX
  8
LAYER_1
 62
   250
 10
7.7981
 20
-22.1266
  0
VERTEX
  8
LAYER_1
 62
   250
 10
8.4024
 20
-22.0372
  0
VERTEX
  8
LAYER_1
 62
   250
 10
9.0361
 20
-21.8869
  0
VERTEX
  8
LAYER_1
 62
   250
 10
9.6995
 20
-21.6732
  0
VERTEX
  8
LAYER_1
 62
   250
 10
10.393
 20
-21.3934
  0
VERTEX
  8
LAYER_1
 62
   250
 10
11.117
 20
-21.0454
  0
VERTEX
  8
LAYER_1
 62
   250
 10
11.8723
 20
-20.6264
  0
VERTEX
  8
LAYER_1
 62
   250
 10
12.6592
 20
-20.1341
  0
VERTEX
  8
LAYER_1
 62
   250
 10
13.4783
 20
-19.566
  0
SEQEND
  8
LAYER_1
 62
   250
  0
POLYLINE
  8
LAYER_1
 62
   250
 66
     1
 70
     1
  0
VERTEX
  8
LAYER_1
 62
   250
 10
0.0316
 20
11.1451
  0
VERTEX
  8
LAYER_1
 62
   250
 10
0.0315
 20
11.0826
  0
VERTEX
  8
LAYER_1
 62
   250
 10
0.0314
 20
11.0201
  0
VERTEX
  8
LAYER_1
 62
   250
 10
0.0313
 20
10.9576
  0
VERTEX
  8
LAYER_1
 62
   250
 10
0.0312
 20
10.8951
  0
VERTEX
  8
LAYER_1
 62
   250
 10
0.0311
 20
10.8326
  0
VERTEX
  8
LAYER_1
 62
   250
 10
0.031
 20
10.7701
  0
VERTEX
  8
LAYER_1
 62
   250
 10
0.0309
 20
10.7076
  0
VERTEX
  8
LAYER_1
 62
   250
 10
0.0308
 20
10.6451
  0
VERTEX
  8
LAYER_1
 62
   250
 10
0.0307
 20
10.5826
  0
VERTEX
  8
LAYER_1
 62
   250
 10
0.0306
 20
10.5201
  0
VERTEX
  8
LAYER_1
 62
   250
 10
0.0305
 20
10.4576
  0
VERTEX
  8
LAYER_1
 62
   250
 10
0.0304
 20
10.3951
  0
VERTEX
  8
LAYER_1
 62
   250
 10
0.0303
 20
10.3326
  0
VERTEX
  8
LAYER_1
 62
   250
 10
0.0302
 20
10.2701
  0
VERTEX
  8
LAYER_1
 62
   250
 10
0.0301
 20
10.2076
  0
VERTEX
  8
LAYER_1
 62
   250
 10
0.03
 20
10.1451
  0
VERTEX
  8
LAYER_1
 62
   250
 10
0.0299
 20
10.0826
  0
VERTEX
  8
LAYER_1
 62
   250
 10
0.0298
 20
10.0201
  0
VERTEX
  8
LAYER_1
 62
   250
 10
0.0297
 20
9.9576
  0
VERTEX
  8
LAYER_1
 62
   250
 10
0.0296
 20
9.8951
  0
VERTEX
  8
LAYER_1
 62
   250
 10
0.0295
 20
9.8326
  0
VERTEX
  8
LAYER_1
 62
   250
 10
0.0294
 20
9.7701
  0
VERTEX
  8
LAYER_1
 62
   250
 10
0.0293
 20
9.7076
  0
VERTEX
  8
LAYER_1
 62
   250
 10
0.0292
 20
9.6451
  0
VERTEX
  8
LAYER_1
 62
   250
 10
0.0291
 20
9.5826
  0
VERTEX
  8
LAYER_1
 62
   250
 10
0.029
 20
9.5201
  0
VERTEX
  8
LAYER_1
 62
   250
 10
0.0289
 20
9.4576
  0
VERTEX
  8
LAYER_1
 62
   250
 10
0.0288
 20
9.3951
  0
VERTEX
  8
LAYER_1
 62
   250
 10
0.0287
 20
9.3326
  0
VERTEX
  8
LAYER_1
 62
   250
 10
0.0286
 20
9.2701
  0
VERTEX
  8
LAYER_1
 62
   250
 10
0.0285
 20
9.2076
  0
VERTEX
  8
LAYER_1
 62
   250
 10
0.0284
 20
9.1451
  0
VERTEX
  8
LAYER_1
 62
   250
 10
0.5428
 20
9.1321
  0
VERTEX
  8
LAYER_1
 62
   250
 10
1.0501
 20
9.0935
  0
VERTEX
  8
LAYER_1
 62
   250
 10
1.5496
 20
9.0299
  0
VERTEX
  8
LAYER_1
 62
   250
 10
2.0408
 20
8.942
  0
VERTEX
  8
LAYER_1
 62
   250
 10
2.523
 20
8.8303
  0
VERTEX
  8
LAYER_1
 62
   250
 10
2.9957
 20
8.6955
  0
VERTEX
  8
LAYER_1
 62
   250
 10
3.4582
 20
8.5383
  0
VERTEX
  8
LAYER_1
 62
   250
 10
3.91
 20
8.3593
  0
VERTEX
  8
LAYER_1
 62
   250
 10
4.3504
 20
8.1591
  0
VERTEX
  8
LAYER_1
 62
   250
 10
4.7788
 20
7.9383
  0
VERTEX
  8
LAYER_1
 62
   250
 10
5.1948
 20
7.6975
  0
VERTEX
  8
LAYER_1
 62
   250
 10
5.5975
 20
7.4374
  0
VERTEX
  8
LAYER_1
 62
   250
 10
5.9864
 20
7.1586
  0
VERTEX
  8
LAYER_1
 62
   250
 10
6.361
 20
6.8617
  0
VERTEX
  8
LAYER_1
 62
   250
 10
6.7207
 20
6.5474
  0
VERTEX
  8
LAYER_1
 62
   250
 10
7.0647
 20
6.2163
  0
VERTEX
  8
LAYER_1
 62
   250
 10
7.3926
 20
5.869
  0
VERTEX
  8
LAYER_1
 62
   250
 10
7.7036
 20
5.5061
  0
VERTEX
  8
LAYER_1
 62
   250
 10
7.9972
 20
5.1284
  0
VERTEX
  8
LAYER_1
 62
   250
 10
8.273
 20
4.7363
  0
VERTEX
  8
LAYER_1
 62
   250
 10
8.5301
 20
4.3306
  0
VERTEX
  8
LAYER_1
 62
   250
 10
8.7681
 20
3.9118
  0
VERTEX
  8
LAYER_1
 62
   250
 10
8.9862
 20
3.4806
  0
VERTEX
  8
LAYER_1
 62
   250
 10
9.1839
 20
3.0377
  0
VERTEX
  8
LAYER_1
 62
   250
 10
9.3605
 20
2.5836
  0
VERTEX
  8
LAYER_1
 62
   250
 10
9.5156
 20
2.119
  0
VERTEX
  8
LAYER_1
 62
   250
 10
9.6485
 20
1.6444
  0
VERTEX
  8
LAYER_1
 62
   250
 10
9.7586
 20
1.1607
  0
VERTEX
  8
LAYER_1
 62
   250
 10
9.8453
 20
0.6683
  0
VERTEX
  8
LAYER_1
 62
   250
 10
9.908
 20
0.1677
  0
VERTEX
  8
LAYER_1
 62
   250
 10
9.946
 20
-0.3401
  0
VERTEX
  8
LAYER_1
 62
   250
 10
9.9589
 20
-0.8547
  0
VERTEX
  8
LAYER_1
 62
   250
 10
9.9459
 20
-1.3693
  0
VERTEX
  8
LAYER_1
 62
   250
 10
9.9073
 20
-1.8772
  0
VERTEX
  8
LAYER_1
 62
   250
 10
9.8438
 20
-2.3776
  0
VERTEX
  8
LAYER_1
 62
   250
 10
9.7558
 20
-2.8701
  0
VERTEX
  8
LAYER_1
 62
   250
 10
9.6441
 20
-3.3539
  0
VERTEX
  8
LAYER_1
 62
   250
 10
9.5093
 20
-3.8285
  0
VERTEX
  8
LAYER_1
 62
   250
 10
9.3521
 20
-4.2931
  0
VERTEX
  8
LAYER_1
 62
   250
 10
9.1731
 20
-4.7472
  0
VERTEX
  8
LAYER_1
 62
   250
 10
8.9729
 20
-5.1901
  0
VERTEX
  8
LAYER_1
 62
   250
 10
8.752
 20
-5.6213
  0
VERTEX
  8
LAYER_1
 62
   250
 10
8.5112
 20
-6.04
  0
VERTEX
  8
LAYER_1
 62
   250
 10
8.2511
 20
-6.4458
  0
VERTEX
  8
LAYER_1
 62
   250
 10
7.9723
 20
-6.8378
  0
VERTEX
  8
LAYER_1
 62
   250
 10
7.6754
 20
-7.2156
  0
VERTEX
  8
LAYER_1
 62
   250
 10
7.3611
 20
-7.5784
  0
VERTEX
  8
LAYER_1
 62
   250
 10
7.03
 20
-7.9258
  0
VERTEX
  8
LAYER_1
 62
   250
 10
6.6827
 20
-8.2569
  0
VERTEX
  8
LAYER_1
 62
   250
 10
6.3199
 20
-8.5712
  0
VERTEX
  8
LAYER_1
 62
   250
 10
5.9421
 20
-8.8681
  0
VERTEX
  8
LAYER_1
 62
   250
 10
5.5501
 20
-9.1469
  0
VERTEX
  8
LAYER_1
 62
   250
 10
5.1444
 20
-9.407
  0
VERTEX
  8
LAYER_1
 62
   250
 10
4.7256
 20
-9.6478
  0
VERTEX
  8
LAYER_1
 62
   250
 10
4.2944
 20
-9.8686
  0
VERTEX
  8
LAYER_1
 62
   250
 10
3.8514
 20
-10.0689
  0
VERTEX
  8
LAYER_1
 62
   250
 10
3.3973
 20
-10.2479
  0
VERTEX
  8
LAYER_1
 62
   250
 10
2.9327
 20
-10.4051
  0
VERTEX
  8
LAYER_1
 62
   250
 10
2.4582
 20
-10.5398
  0
VERTEX
  8
LAYER_1
 62
   250
 10
1.9743
 20
-10.6515
  0
VERTEX
  8
LAYER_1
 62
   250
 10
1.4819
 20
-10.7395
  0
VERTEX
  8
LAYER_1
 62
   250
 10
0.9814
 20
-10.8031
  0
VERTEX
  8
LAYER_1
 62
   250
 10
0.4736
 20
-10.8417
  0
VERTEX
  8
LAYER_1
 62
   250
 10
-0.0411
 20
-10.8547
  0
VERTEX
  8
LAYER_1
 62
   250
 10
-0.5557
 20
-10.8417
  0
VERTEX
  8
LAYER_1
 62
   250
 10
-1.0636
 20
-10.8031
  0
VERTEX
  8
LAYER_1
 62
   250
 10
-1.564
 20
-10.7396
  0
VERTEX
  8
LAYER_1
 62
   250
 10
-2.0565
 20
-10.6516
  0
VERTEX
  8
LAYER_1
 62
   250
 10
-2.5403
 20
-10.5399
  0
VERTEX
  8
LAYER_1
 62
   250
 10
-3.0149
 20
-10.4051
  0
VERTEX
  8
LAYER_1
 62
   250
 10
-3.4795
 20
-10.2479
  0
VERTEX
  8
LAYER_1
 62
   250
 10
-3.9336
 20
-10.0689
  0
VERTEX
  8
LAYER_1
 62
   250
 10
-4.3765
 20
-9.8687
  0
VERTEX
  8
LAYER_1
 62
   250
 10
-4.8077
 20
-9.6478
  0
VERTEX
  8
LAYER_1
 62
   250
 10
-5.2264
 20
-9.407
  0
VERTEX
  8
LAYER_1
 62
   250
 10
-5.6322
 20
-9.1469
  0
VERTEX
  8
LAYER_1
 62
   250
 10
-6.0242
 20
-8.8681
  0
VERTEX
  8
LAYER_1
 62
   250
 10
-6.402
 20
-8.5712
  0
VERTEX
  8
LAYER_1
 62
   250
 10
-6.7648
 20
-8.2569
  0
VERTEX
  8
LAYER_1
 62
   250
 10
-7.1122
 20
-7.9258
  0
VERTEX
  8
LAYER_1
 62
   250
 10
-7.4433
 20
-7.5785
  0
VERTEX
  8
LAYER_1
 62
   250
 10
-7.7576
 20
-7.2157
  0
VERTEX
  8
LAYER_1
 62
   250
 10
-8.0545
 20
-6.8379
  0
VERTEX
  8
LAYER_1
 62
   250
 10
-8.3333
 20
-6.4459
  0
VERTEX
  8
LAYER_1
 62
   250
 10
-8.5934
 20
-6.0402
  0
VERTEX
  8
LAYER_1
 62
   250
 10
-8.8342
 20
-5.6214
  0
VERTEX
  8
LAYER_1
 62
   250
 10
-9.055
 20
-5.1902
  0
VERTEX
  8
LAYER_1
 62
   250
 10
-9.2553
 20
-4.7472
  0
VERTEX
  8
LAYER_1
 62
   250
 10
-9.4343
 20
-4.2931
  0
VERTEX
  8
LAYER_1
 62
   250
 10
-9.5915
 20
-3.8285
  0
VERTEX
  8
LAYER_1
 62
   250
 10
-9.7262
 20
-3.354
  0
VERTEX
  8
LAYER_1
 62
   250
 10
-9.8379
 20
-2.8701
  0
VERTEX
  8
LAYER_1
 62
   250
 10
-9.9259
 20
-2.3777
  0
VERTEX
  8
LAYER_1
 62
   250
 10
-9.9895
 20
-1.8772
  0
VERTEX
  8
LAYER_1
 62
   250
 10
-10.0281
 20
-1.3694
  0
VERTEX
  8
LAYER_1
 62
   250
 10
-10.0411
 20
-0.8547
  0
VERTEX
  8
LAYER_1
 62
   250
 10
-10.0281
 20
-0.3402
  0
VERTEX
  8
LAYER_1
 62
   250
 10
-9.9895
 20
0.1677
  0
VERTEX
  8
LAYER_1
 62
   250
 10
-9.926
 20
0.6682
  0
VERTEX
  8
LAYER_1
 62
   250
 10
-9.838
 20
1.1607
  0
VERTEX
  8
LAYER_1
 62
   250
 10
-9.7263
 20
1.6445
  0
VERTEX
  8
LAYER_1
 62
   250
 10
-9.5915
 20
2.1191
  0
VERTEX
  8
LAYER_1
 62
   250
 10
-9.4343
 20
2.5837
  0
VERTEX
  8
LAYER_1
 62
   250
 10
-9.2553
 20
3.0378
  0
VERTEX
  8
LAYER_1
 62
   250
 10
-9.0551
 20
3.4807
  0
VERTEX
  8
LAYER_1
 62
   250
 10
-8.8342
 20
3.9119
  0
VERTEX
  8
LAYER_1
 62
   250
 10
-8.5934
 20
4.3306
  0
VERTEX
  8
LAYER_1
 62
   250
 10
-8.3333
 20
4.7364
  0
VERTEX
  8
LAYER_1
 62
   250
 10
-8.0545
 20
5.1284
  0
VERTEX
  8
LAYER_1
 62
   250
 10
-7.7576
 20
5.5062
  0
VERTEX
  8
LAYER_1
 62
   250
 10
-7.4433
 20
5.869
  0
VERTEX
  8
LAYER_1
 62
   250
 10
-7.1122
 20
6.2164
  0
VERTEX
  8
LAYER_1
 62
   250
 10
-6.7649
 20
6.5475
  0
VERTEX
  8
LAYER_1
 62
   250
 10
-6.4021
 20
6.8618
  0
VERTEX
  8
LAYER_1
 62
   250
 10
-6.0243
 20
7.1587
  0
VERTEX
  8
LAYER_1
 62
   250
 10
-5.6323
 20
7.4375
  0
VERTEX
  8
LAYER_1
 62
   250
 10
-5.2266
 20
7.6976
  0
VERTEX
  8
LAYER_1
 62
   250
 10
-4.8078
 20
7.9384
  0
VERTEX
  8
LAYER_1
 62
   250
 10
-4.3766
 20
8.1592
  0
VERTEX
  8
LAYER_1
 62
   250
 10
-3.9336
 20
8.3595
  0
VERTEX
  8
LAYER_1
 62
   250
 10
-3.4795
 20
8.5385
  0
VERTEX
  8
LAYER_1
 62
   250
 10
-3.0149
 20
8.6957
  0
VERTEX
  8
LAYER_1
 62
   250
 10
-2.5404
 20
8.8304
  0
VERTEX
  8
LAYER_1
 62
   250
 10
-2.0565
 20
8.9421
  0
VERTEX
  8
LAYER_1
 62
   250
 10
-1.5641
 20
9.0301
  0
VERTEX
  8
LAYER_1
 62
   250
 10
-1.0636
 20
9.0937
  0
VERTEX
  8
LAYER_1
 62
   250
 10
-0.5558
 20
9.1323
  0
VERTEX
  8
LAYER_1
 62
   250
 10
-0.0411
 20
9.1453
  0
VERTEX
  8
LAYER_1
 62
   250
 10
-0.0411
 20
9.2078
  0
VERTEX
  8
LAYER_1
 62
   250
 10
-0.0411
 20
9.2703
  0
VERTEX
  8
LAYER_1
 62
   250
 10
-0.0411
 20
9.3328
  0
VERTEX
  8
LAYER_1
 62
   250
 10
-0.0411
 20
9.3953
  0
VERTEX
  8
LAYER_1
 62
   250
 10
-0.0411
 20
9.4578
  0
VERTEX
  8
LAYER_1
 62
   250
 10
-0.0411
 20
9.5203
  0
VERTEX
  8
LAYER_1
 62
   250
 10
-0.0411
 20
9.5828
  0
VERTEX
  8
LAYER_1
 62
   250
 10
-0.0411
 20
9.6453
  0
VERTEX
  8
LAYER_1
 62
   250
 10
-0.0411
 20
9.7078
  0
VERTEX
  8
LAYER_1
 62
   250
 10
-0.0411
 20
9.7703
  0
VERTEX
  8
LAYER_1
 62
   250
 10
-0.0411
 20
9.8328
  0
VERTEX
  8
LAYER_1
 62
   250
 10
-0.0411
 20
9.8953
  0
VERTEX
  8
LAYER_1
 62
   250
 10
-0.0411
 20
9.9578
  0
VERTEX
  8
LAYER_1
 62
   250
 10
-0.0411
 20
10.0203
  0
VERTEX
  8
LAYER_1
 62
   250
 10
-0.0411
 20
10.0828
  0
VERTEX
  8
LAYER_1
 62
   250
 10
-0.0411
 20
10.1453
  0
VERTEX
  8
LAYER_1
 62
   250
 10
-0.0411
 20
10.2078
  0
VERTEX
  8
LAYER_1
 62
   250
 10
-0.0411
 20
10.2703
  0
VERTEX
  8
LAYER_1
 62
   250
 10
-0.0411
 20
10.3328
  0
VERTEX
  8
LAYER_1
 62
   250
 10
-0.0411
 20
10.3953
  0
VERTEX
  8
LAYER_1
 62
   250
 10
-0.0411
 20
10.4578
  0
VERTEX
  8
LAYER_1
 62
   250
 10
-0.0411
 20
10.5203
  0
VERTEX
  8
LAYER_1
 62
   250
 10
-0.0411
 20
10.5828
  0
VERTEX
  8
LAYER_1
 62
   250
 10
-0.0411
 20
10.6453
  0
VERTEX
  8
LAYER_1
 62
   250
 10
-0.0411
 20
10.7078
  0
VERTEX
  8
LAYER_1
 62
   250
 10
-0.0411
 20
10.7703
  0
VERTEX
  8
LAYER_1
 62
   250
 10
-0.0411
 20
10.8328
  0
VERTEX
  8
LAYER_1
 62
   250
 10
-0.0411
 20
10.8953
  0
VERTEX
  8
LAYER_1
 62
   250
 10
-0.0411
 20
10.9578
  0
VERTEX
  8
LAYER_1
 62
   250
 10
-0.0411
 20
11.0203
  0
VERTEX
  8
LAYER_1
 62
   250
 10
-0.0411
 20
11.0828
  0
VERTEX
  8
LAYER_1
 62
   250
 10
-0.0411
 20
11.1453
  0
VERTEX
  8
LAYER_1
 62
   250
 10
-0.6587
 20
11.1296
  0
VERTEX
  8
LAYER_1
 62
   250
 10
-1.2681
 20
11.0833
  0
VERTEX
  8
LAYER_1
 62
   250
 10
-1.8686
 20
11.007
  0
VERTEX
  8
LAYER_1
 62
   250
 10
-2.4596
 20
10.9015
  0
VERTEX
  8
LAYER_1
 62
   250
 10
-3.0402
 20
10.7675
  0
VERTEX
  8
LAYER_1
 62
   250
 10
-3.6096
 20
10.6058
  0
VERTEX
  8
LAYER_1
 62
   250
 10
-4.1672
 20
10.4171
  0
VERTEX
  8
LAYER_1
 62
   250
 10
-4.7121
 20
10.2023
  0
VERTEX
  8
LAYER_1
 62
   250
 10
-5.2436
 20
9.962
  0
VERTEX
  8
LAYER_1
 62
   250
 10
-5.761
 20
9.697
  0
VERTEX
  8
LAYER_1
 62
   250
 10
-6.2636
 20
9.4081
  0
VERTEX
  8
LAYER_1
 62
   250
 10
-6.7505
 20
9.0959
  0
VERTEX
  8
LAYER_1
 62
   250
 10
-7.221
 20
8.7613
  0
VERTEX
  8
LAYER_1
 62
   250
 10
-7.6743
 20
8.4051
  0
VERTEX
  8
LAYER_1
 62
   250
 10
-8.1097
 20
8.0279
  0
VERTEX
  8
LAYER_1
 62
   250
 10
-8.5264
 20
7.6306
  0
VERTEX
  8
LAYER_1
 62
   250
 10
-8.9237
 20
7.2139
  0
VERTEX
  8
LAYER_1
 62
   250
 10
-9.3008
 20
6.7785
  0
VERTEX
  8
LAYER_1
 62
   250
 10
-9.657
 20
6.3252
  0
VERTEX
  8
LAYER_1
 62
   250
 10
-9.9916
 20
5.8547
  0
VERTEX
  8
LAYER_1
 62
   250
 10
-10.3037
 20
5.3678
  0
VERTEX
  8
LAYER_1
 62
   250
 10
-10.5927
 20
4.8653
  0
VERTEX
  8
LAYER_1
 62
   250
 10
-10.8577
 20
4.3479
  0
VERTEX
  8
LAYER_1
 62
   250
 10
-11.098
 20
3.8163
  0
VERTEX
  8
LAYER_1
 62
   250
 10
-11.3129
 20
3.2714
  0
VERTEX
  8
LAYER_1
 62
   250
 10
-11.5016
 20
2.7138
  0
VERTEX
  8
LAYER_1
 62
   250
 10
-11.6633
 20
2.1444
  0
VERTEX
  8
LAYER_1
 62
   250
 10
-11.7973
 20
1.5638
  0
VERTEX
  8
LAYER_1
 62
   250
 10
-11.9028
 20
0.9729
  0
VERTEX
  8
LAYER_1
 62
   250
 10
-11.9791
 20
0.3723
  0
VERTEX
  8
LAYER_1
 62
   250
 10
-12.0254
 20
-0.2371
  0
VERTEX
  8
LAYER_1
 62
   250
 10
-12.0411
 20
-0.8547
  0
VERTEX
  8
LAYER_1
 62
   250
 10
-12.0254
 20
-1.4723
  0
VERTEX
  8
LAYER_1
 62
   250
 10
-11.9791
 20
-2.0817
  0
VERTEX
  8
LAYER_1
 62
   250
 10
-11.9028
 20
-2.6822
  0
VERTEX
  8
LAYER_1
 62
   250
 10
-11.7973
 20
-3.2732
  0
VERTEX
  8
LAYER_1
 62
   250
 10
-11.6633
 20
-3.8538
  0
VERTEX
  8
LAYER_1
 62
   250
 10
-11.5016
 20
-4.4232
  0
VERTEX
  8
LAYER_1
 62
   250
 10
-11.3129
 20
-4.9808
  0
VERTEX
  8
LAYER_1
 62
   250
 10
-11.0981
 20
-5.5257
  0
VERTEX
  8
LAYER_1
 62
   250
 10
-10.8578
 20
-6.0572
  0
VERTEX
  8
LAYER_1
 62
   250
 10
-10.5928
 20
-6.5746
  0
VERTEX
  8
LAYER_1
 62
   250
 10
-10.3039
 20
-7.0772
  0
VERTEX
  8
LAYER_1
 62
   250
 10
-9.9917
 20
-7.5641
  0
VERTEX
  8
LAYER_1
 62
   250
 10
-9.6571
 20
-8.0346
  0
VERTEX
  8
LAYER_1
 62
   250
 10
-9.3009
 20
-8.4879
  0
VERTEX
  8
LAYER_1
 62
   250
 10
-8.9237
 20
-8.9233
  0
VERTEX
  8
LAYER_1
 62
   250
 10
-8.5264
 20
-9.34
  0
VERTEX
  8
LAYER_1
 62
   250
 10
-8.1097
 20
-9.7373
  0
VERTEX
  8
LAYER_1
 62
   250
 10
-7.6743
 20
-10.1144
  0
VERTEX
  8
LAYER_1
 62
   250
 10
-7.221
 20
-10.4706
  0
VERTEX
  8
LAYER_1
 62
   250
 10
-6.7505
 20
-10.8052
  0
VERTEX
  8
LAYER_1
 62
   250
 10
-6.2636
 20
-11.1173
  0
VERTEX
  8
LAYER_1
 62
   250
 10
-5.7611
 20
-11.4063
  0
VERTEX
  8
LAYER_1
 62
   250
 10
-5.2437
 20
-11.6713
  0
VERTEX
  8
LAYER_1
 62
   250
 10
-4.7121
 20
-11.9116
  0
VERTEX
  8
LAYER_1
 62
   250
 10
-4.1672
 20
-12.1265
  0
VERTEX
  8
LAYER_1
 62
   250
 10
-3.6096
 20
-12.3152
  0
VERTEX
  8
LAYER_1
 62
   250
 10
-3.0402
 20
-12.4769
  0
VERTEX
  8
LAYER_1
 62
   250
 10
-2.4596
 20
-12.6109
  0
VERTEX
  8
LAYER_1
 62
   250
 10
-1.8687
 20
-12.7164
  0
VERTEX
  8
LAYER_1
 62
   250
 10
-1.2681
 20
-12.7927
  0
VERTEX
  8
LAYER_1
 62
   250
 10
-0.6587
 20
-12.839
  0
VERTEX
  8
LAYER_1
 62
   250
 10
-0.0411
 20
-12.8547
  0
VERTEX
  8
LAYER_1
 62
   250
 10
0.5765
 20
-12.839
  0
VERTEX
  8
LAYER_1
 62
   250
 10
1.1859
 20
-12.7927
  0
VERTEX
  8
LAYER_1
 62
   250
 10
1.7864
 20
-12.7164
  0
VERTEX
  8
LAYER_1
 62
   250
 10
2.3774
 20
-12.6109
  0
VERTEX
  8
LAYER_1
 62
   250
 10
2.958
 20
-12.4769
  0
VERTEX
  8
LAYER_1
 62
   250
 10
3.5274
 20
-12.3152
  0
VERTEX
  8
LAYER_1
 62
   250
 10
4.085
 20
-12.1265
  0
VERTEX
  8
LAYER_1
 62
   250
 10
4.6299
 20
-11.9117
  0
VERTEX
  8
LAYER_1
 62
   250
 10
5.1614
 20
-11.6714
  0
VERTEX
  8
LAYER_1
 62
   250
 10
5.6788
 20
-11.4064
  0
VERTEX
  8
LAYER_1
 62
   250
 10
6.1814
 20
-11.1175
  0
VERTEX
  8
LAYER_1
 62
   250
 10
6.6683
 20
-10.8053
  0
VERTEX
  8
LAYER_1
 62
   250
 10
7.1388
 20
-10.4707
  0
VERTEX
  8
LAYER_1
 62
   250
 10
7.5921
 20
-10.1145
  0
VERTEX
  8
LAYER_1
 62
   250
 10
8.0275
 20
-9.7373
  0
VERTEX
  8
LAYER_1
 62
   250
 10
8.4442
 20
-9.34
  0
VERTEX
  8
LAYER_1
 62
   250
 10
8.8415
 20
-8.9233
  0
VERTEX
  8
LAYER_1
 62
   250
 10
9.2186
 20
-8.4879
  0
VERTEX
  8
LAYER_1
 62
   250
 10
9.5748
 20
-8.0346
  0
VERTEX
  8
LAYER_1
 62
   250
 10
9.9094
 20
-7.5641
  0
VERTEX
  8
LAYER_1
 62
   250
 10
10.2215
 20
-7.0772
  0
VERTEX
  8
LAYER_1
 62
   250
 10
10.5105
 20
-6.5747
  0
VERTEX
  8
LAYER_1
 62
   250
 10
10.7755
 20
-6.0573
  0
VERTEX
  8
LAYER_1
 62
   250
 10
11.0158
 20
-5.5257
  0
VERTEX
  8
LAYER_1
 62
   250
 10
11.2307
 20
-4.9808
  0
VERTEX
  8
LAYER_1
 62
   250
 10
11.4194
 20
-4.4232
  0
VERTEX
  8
LAYER_1
 62
   250
 10
11.5811
 20
-3.8538
  0
VERTEX
  8
LAYER_1
 62
   250
 10
11.7151
 20
-3.2732
  0
VERTEX
  8
LAYER_1
 62
   250
 10
11.8206
 20
-2.6823
  0
VERTEX
  8
LAYER_1
 62
   250
 10
11.8969
 20
-2.0817
  0
VERTEX
  8
LAYER_1
 62
   250
 10
11.9432
 20
-1.4723
  0
VERTEX
  8
LAYER_1
 62
   250
 10
11.9589
 20
-0.8547
  0
VERTEX
  8
LAYER_1
 62
   250
 10
11.9435
 20
-0.2372
  0
VERTEX
  8
LAYER_1
 62
   250
 10
11.8978
 20
0.3723
  0
VERTEX
  8
LAYER_1
 62
   250
 10
11.8225
 20
0.9729
  0
VERTEX
  8
LAYER_1
 62
   250
 10
11.7183
 20
1.5638
  0
VERTEX
  8
LAYER_1
 62
   250
 10
11.586
 20
2.1444
  0
VERTEX
  8
LAYER_1
 62
   250
 10
11.4262
 20
2.7138
  0
VERTEX
  8
LAYER_1
 62
   250
 10
11.2397
 20
3.2714
  0
VERTEX
  8
LAYER_1
 62
   250
 10
11.0273
 20
3.8163
  0
VERTEX
  8
LAYER_1
 62
   250
 10
10.7897
 20
4.3478
  0
VERTEX
  8
LAYER_1
 62
   250
 10
10.5275
 20
4.8652
  0
VERTEX
  8
LAYER_1
 62
   250
 10
10.2416
 20
5.3677
  0
VERTEX
  8
LAYER_1
 62
   250
 10
9.9326
 20
5.8546
  0
VERTEX
  8
LAYER_1
 62
   250
 10
9.6013
 20
6.3251
  0
VERTEX
  8
LAYER_1
 62
   250
 10
9.2483
 20
6.7784
  0
VERTEX
  8
LAYER_1
 62
   250
 10
8.8745
 20
7.2138
  0
VERTEX
  8
LAYER_1
 62
   250
 10
8.4806
 20
7.6305
  0
VERTEX
  8
LAYER_1
 62
   250
 10
8.0673
 20
8.0278
  0
VERTEX
  8
LAYER_1
 62
   250
 10
7.6352
 20
8.405
  0
VERTEX
  8
LAYER_1
 62
   250
 10
7.1852
 20
8.7612
  0
VERTEX
  8
LAYER_1
 62
   250
 10
6.718
 20
9.0958
  0
VERTEX
  8
LAYER_1
 62
   250
 10
6.2343
 20
9.4079
  0
VERTEX
  8
LAYER_1
 62
   250
 10
5.7347
 20
9.6968
  0
VERTEX
  8
LAYER_1
 62
   250
 10
5.2201
 20
9.9618
  0
VERTEX
  8
LAYER_1
 62
   250
 10
4.6913
 20
10.2021
  0
VERTEX
  8
LAYER_1
 62
   250
 10
4.1488
 20
10.4169
  0
VERTEX
  8
LAYER_1
 62
   250
 10
3.5935
 20
10.6056
  0
VERTEX
  8
LAYER_1
 62
   250
 10
3.026
 20
10.7673
  0
VERTEX
  8
LAYER_1
 62
   250
 10
2.447
 20
10.9013
  0
VERTEX
  8
LAYER_1
 62
   250
 10
1.8574
 20
11.0068
  0
VERTEX
  8
LAYER_1
 62
   250
 10
1.2578
 20
11.0831
  0
VERTEX
  8
LAYER_1
 62
   250
 10
0.649
 20
11.1294
  0
VERTEX
  8
LAYER_1
 62
   250
 10
0.0316
 20
11.1451
  0
SEQEND
  8
LAYER_1
 62
   250
  0
ENDSEC
  0
EOF
