  0
SECTION
  2
HEADER
  9
$ACADVER
  1
AC1002
  9
$INSBASE
 10
0.0
 20
0.0
  9
$EXTMIN
 10
-26.5046
 20
-25.949
  9
$EXTMAX
 10
26.5044
 20
25.9491
  9
$LIMMIN
 10
0.0
 20
0.0
  9
$LIMMAX
 10
12.0
 20
9.0
  9
$ORTHOMODE
 70
     0
  9
$REGENMODE
 70
     1
  9
$FILLMODE
 70
     1
  9
$QTEXTMODE
 70
     0
  9
$DRAGMODE
 70
     2
  9
$LTSCALE
 40
1.0
  9
$OSMODE
 70
    37
  9
$ATTMODE
 70
     1
  9
$TEXTSIZE
 40
0.2
  9
$TRACEWID
 40
0.05
  9
$TEXTSTYLE
  7
STANDARD
  9
$CLAYER
  8
0
  9
$CELTYPE
  6
BYLAYER
  9
$CECOLOR
 62
   256
  9
$DIMSCALE
 40
1.0
  9
$DIMASZ
 40
0.18
  9
$DIMEXO
 40
0.0625
  9
$DIMDLI
 40
0.38
  9
$DIMRND
 40
0.0
  9
$DIMDLE
 40
0.0
  9
$DIMEXE
 40
0.18
  9
$DIMTP
 40
0.0
  9
$DIMTM
 40
0.0
  9
$DIMTXT
 40
0.18
  9
$DIMCEN
 40
0.09
  9
$DIMTSZ
 40
0.0
  9
$DIMTOL
 70
     0
  9
$DIMLIM
 70
     0
  9
$DIMTIH
 70
     1
  9
$DIMTOH
 70
     1
  9
$DIMSE1
 70
     0
  9
$DIMSE2
 70
     0
  9
$DIMTAD
 70
     0
  9
$DIMZIN
 70
     0
  9
$DIMBLK
  1

  9
$LUNITS
 70
     2
  9
$LUPREC
 70
     4
  9
$SKETCHINC
 40
0.1
  9
$FILLETRAD
 40
0.5
  9
$AUNITS
 70
     0
  9
$AUPREC
 70
     0
  9
$MENU
  1
.
  9
$ELEVATION
 40
0.0
  9
$THICKNESS
 40
0.0
  9
$LIMCHECK
 70
     0
  9
$CHAMFERA
 40
0.0
  9
$CHAMFERB
 40
0.0
  9
$SKPOLY
 70
     0
  9
$TDCREATE
 40
2457119.607753738
  9
$TDUPDATE
 40
2457119.60775375
  9
$TDINDWG
 40
0.0000000116
  9
$TDUSRTIMER
 40
0.0000000116
  9
$USRTIMER
 70
     1
  9
$ANGBASE
 50
0.0
  9
$ANGDIR
 70
     0
  9
$PDMODE
 70
     0
  9
$PDSIZE
 40
0.0
  9
$PLINEWID
 40
0.0
  9
$COORDS
 70
     1
  9
$SURFTAB1
 70
     6
  9
$SURFTAB2
 70
     6
  9
$SURFTYPE
 70
     6
  9
$SURFU
 70
     6
  9
$SURFV
 70
     6
  9
$UCSNAME
  2

  9
$UCSORG
 10
0.0
 20
0.0
 30
0.0
  9
$UCSXDIR
 10
1.0
 20
0.0
 30
0.0
  9
$UCSYDIR
 10
0.0
 20
1.0
 30
0.0
  9
$USERI1
 70
     0
  9
$USERI2
 70
     0
  9
$USERI3
 70
     0
  9
$USERI4
 70
     0
  9
$USERI5
 70
     0
  9
$USERR1
 40
0.0
  9
$USERR2
 40
0.0
  9
$USERR3
 40
0.0
  9
$USERR4
 40
0.0
  9
$USERR5
 40
0.0
  0
ENDSEC
  0
SECTION
  2
TABLES
  0
TABLE
  2
LTYPE
 70
     1
  0
LTYPE
  2
CONTINUOUS
 70
     0
  3
Solid line
 72
    65
 73
     0
 40
0.0
  0
ENDTAB
  0
TABLE
  2
LAYER
 70
     2
  0
LAYER
  2
0
 70
     0
 62
     7
  6
CONTINUOUS
  0
LAYER
  2
LAYER_1
 70
     0
 62
     7
  6
CONTINUOUS
  0
ENDTAB
  0
TABLE
  2
STYLE
 70
     1
  0
STYLE
  2
STANDARD
 70
     0
 40
0.0
 41
1.0
 50
0.0
 71
     0
 42
0.2
  3
txt
  4

  0
ENDTAB
  0
TABLE
  2
VIEW
 70
     0
  0
ENDTAB
  0
ENDSEC
  0
SECTION
  2
BLOCKS
  0
ENDSEC
  0
SECTION
  2
ENTITIES
  0
POLYLINE
  8
LAYER_1
 62
   250
 66
     1
 70
     1
  0
VERTEX
  8
LAYER_1
 62
   250
 10
-0.0657
 20
-21.4189
  0
VERTEX
  8
LAYER_1
 62
   250
 10
0.5849
 20
-22.5117
  0
VERTEX
  8
LAYER_1
 62
   250
 10
1.3225
 20
-23.4394
  0
VERTEX
  8
LAYER_1
 62
   250
 10
2.1382
 20
-24.2086
  0
VERTEX
  8
LAYER_1
 62
   250
 10
3.0229
 20
-24.826
  0
VERTEX
  8
LAYER_1
 62
   250
 10
3.9678
 20
-25.2982
  0
VERTEX
  8
LAYER_1
 62
   250
 10
4.9639
 20
-25.6319
  0
VERTEX
  8
LAYER_1
 62
   250
 10
6.0022
 20
-25.8336
  0
VERTEX
  8
LAYER_1
 62
   250
 10
7.0735
 20
-25.9099
  0
VERTEX
  8
LAYER_1
 62
   250
 10
8.1692
 20
-25.8674
  0
VERTEX
  8
LAYER_1
 62
   250
 10
9.2799
 20
-25.713
  0
VERTEX
  8
LAYER_1
 62
   250
 10
10.3969
 20
-25.453
  0
VERTEX
  8
LAYER_1
 62
   250
 10
11.5112
 20
-25.0942
  0
VERTEX
  8
LAYER_1
 62
   250
 10
12.6137
 20
-24.6432
  0
VERTEX
  8
LAYER_1
 62
   250
 10
13.6955
 20
-24.1065
  0
VERTEX
  8
LAYER_1
 62
   250
 10
14.7476
 20
-23.4908
  0
VERTEX
  8
LAYER_1
 62
   250
 10
15.761
 20
-22.8028
  0
VERTEX
  8
LAYER_1
 62
   250
 10
16.7267
 20
-22.049
  0
VERTEX
  8
LAYER_1
 62
   250
 10
17.6358
 20
-21.2361
  0
VERTEX
  8
LAYER_1
 62
   250
 10
18.4793
 20
-20.3707
  0
VERTEX
  8
LAYER_1
 62
   250
 10
19.248
 20
-19.4594
  0
VERTEX
  8
LAYER_1
 62
   250
 10
19.9332
 20
-18.5089
  0
VERTEX
  8
LAYER_1
 62
   250
 10
20.5258
 20
-17.5257
  0
VERTEX
  8
LAYER_1
 62
   250
 10
21.0169
 20
-16.5165
  0
VERTEX
  8
LAYER_1
 62
   250
 10
21.3974
 20
-15.4878
  0
VERTEX
  8
LAYER_1
 62
   250
 10
21.6583
 20
-14.4464
  0
VERTEX
  8
LAYER_1
 62
   250
 10
21.7908
 20
-13.3988
  0
VERTEX
  8
LAYER_1
 62
   250
 10
21.7857
 20
-12.3517
  0
VERTEX
  8
LAYER_1
 62
   250
 10
21.6342
 20
-11.3116
  0
VERTEX
  8
LAYER_1
 62
   250
 10
21.3273
 20
-10.2853
  0
VERTEX
  8
LAYER_1
 62
   250
 10
20.8558
 20
-9.2793
  0
VERTEX
  8
LAYER_1
 62
   250
 10
20.2109
 20
-8.3003
  0
VERTEX
  8
LAYER_1
 62
   250
 10
19.3835
 20
-7.3547
  0
VERTEX
  8
LAYER_1
 62
   250
 10
20.6239
 20
-7.0737
  0
VERTEX
  8
LAYER_1
 62
   250
 10
21.7341
 20
-6.6589
  0
VERTEX
  8
LAYER_1
 62
   250
 10
22.7177
 20
-6.1209
  0
VERTEX
  8
LAYER_1
 62
   250
 10
23.5783
 20
-5.4702
  0
VERTEX
  8
LAYER_1
 62
   250
 10
24.3194
 20
-4.7174
  0
VERTEX
  8
LAYER_1
 62
   250
 10
24.9445
 20
-3.8732
  0
VERTEX
  8
LAYER_1
 62
   250
 10
25.4571
 20
-2.9481
  0
VERTEX
  8
LAYER_1
 62
   250
 10
25.8608
 20
-1.9528
  0
VERTEX
  8
LAYER_1
 62
   250
 10
26.1589
 20
-0.8977
  0
VERTEX
  8
LAYER_1
 62
   250
 10
26.3552
 20
0.2064
  0
VERTEX
  8
LAYER_1
 62
   250
 10
26.4531
 20
1.349
  0
VERTEX
  8
LAYER_1
 62
   250
 10
26.4563
 20
2.5197
  0
VERTEX
  8
LAYER_1
 62
   250
 10
26.3681
 20
3.7075
  0
VERTEX
  8
LAYER_1
 62
   250
 10
26.192
 20
4.9023
  0
VERTEX
  8
LAYER_1
 62
   250
 10
25.9316
 20
6.0931
  0
VERTEX
  8
LAYER_1
 62
   250
 10
25.5904
 20
7.2696
  0
VERTEX
  8
LAYER_1
 62
   250
 10
25.172
 20
8.4208
  0
VERTEX
  8
LAYER_1
 62
   250
 10
24.6798
 20
9.5367
  0
VERTEX
  8
LAYER_1
 62
   250
 10
24.1174
 20
10.6062
  0
VERTEX
  8
LAYER_1
 62
   250
 10
23.4883
 20
11.6191
  0
VERTEX
  8
LAYER_1
 62
   250
 10
22.7961
 20
12.5645
  0
VERTEX
  8
LAYER_1
 62
   250
 10
22.0441
 20
13.432
  0
VERTEX
  8
LAYER_1
 62
   250
 10
21.236
 20
14.2109
  0
VERTEX
  8
LAYER_1
 62
   250
 10
20.3752
 20
14.8907
  0
VERTEX
  8
LAYER_1
 62
   250
 10
19.4654
 20
15.4607
  0
VERTEX
  8
LAYER_1
 62
   250
 10
18.51
 20
15.9104
  0
VERTEX
  8
LAYER_1
 62
   250
 10
17.5125
 20
16.2292
  0
VERTEX
  8
LAYER_1
 62
   250
 10
16.4766
 20
16.4065
  0
VERTEX
  8
LAYER_1
 62
   250
 10
15.4057
 20
16.4316
  0
VERTEX
  8
LAYER_1
 62
   250
 10
14.3032
 20
16.2941
  0
VERTEX
  8
LAYER_1
 62
   250
 10
13.1728
 20
15.9834
  0
VERTEX
  8
LAYER_1
 62
   250
 10
12.0178
 20
15.4887
  0
VERTEX
  8
LAYER_1
 62
   250
 10
12.1338
 20
16.7552
  0
VERTEX
  8
LAYER_1
 62
   250
 10
12.0824
 20
17.9392
  0
VERTEX
  8
LAYER_1
 62
   250
 10
11.8747
 20
19.041
  0
VERTEX
  8
LAYER_1
 62
   250
 10
11.5218
 20
20.0605
  0
VERTEX
  8
LAYER_1
 62
   250
 10
11.0349
 20
20.9979
  0
VERTEX
  8
LAYER_1
 62
   250
 10
10.4252
 20
21.8533
  0
VERTEX
  8
LAYER_1
 62
   250
 10
9.7038
 20
22.6266
  0
VERTEX
  8
LAYER_1
 62
   250
 10
8.8819
 20
23.3182
  0
VERTEX
  8
LAYER_1
 62
   250
 10
7.9706
 20
23.9278
  0
VERTEX
  8
LAYER_1
 62
   250
 10
6.9812
 20
24.4557
  0
VERTEX
  8
LAYER_1
 62
   250
 10
5.9247
 20
24.902
  0
VERTEX
  8
LAYER_1
 62
   250
 10
4.8123
 20
25.2667
  0
VERTEX
  8
LAYER_1
 62
   250
 10
3.6552
 20
25.5498
  0
VERTEX
  8
LAYER_1
 62
   250
 10
2.4646
 20
25.7515
  0
VERTEX
  8
LAYER_1
 62
   250
 10
1.2516
 20
25.8718
  0
VERTEX
  8
LAYER_1
 62
   250
 10
0.0273
 20
25.911
  0
VERTEX
  8
LAYER_1
 62
   250
 10
-1.197
 20
25.8689
  0
VERTEX
  8
LAYER_1
 62
   250
 10
-2.4102
 20
25.7456
  0
VERTEX
  8
LAYER_1
 62
   250
 10
-3.6012
 20
25.5413
  0
VERTEX
  8
LAYER_1
 62
   250
 10
-4.7589
 20
25.2559
  0
VERTEX
  8
LAYER_1
 62
   250
 10
-5.872
 20
24.8897
  0
VERTEX
  8
LAYER_1
 62
   250
 10
-6.9294
 20
24.4426
  0
VERTEX
  8
LAYER_1
 62
   250
 10
-7.9199
 20
23.9147
  0
VERTEX
  8
LAYER_1
 62
   250
 10
-8.8324
 20
23.3061
  0
VERTEX
  8
LAYER_1
 62
   250
 10
-9.6557
 20
22.617
  0
VERTEX
  8
LAYER_1
 62
   250
 10
-10.3786
 20
21.8474
  0
VERTEX
  8
LAYER_1
 62
   250
 10
-10.99
 20
20.9973
  0
VERTEX
  8
LAYER_1
 62
   250
 10
-11.4787
 20
20.0667
  0
VERTEX
  8
LAYER_1
 62
   250
 10
-11.8335
 20
19.0559
  0
VERTEX
  8
LAYER_1
 62
   250
 10
-12.0435
 20
17.9649
  0
VERTEX
  8
LAYER_1
 62
   250
 10
-12.0973
 20
16.7938
  0
VERTEX
  8
LAYER_1
 62
   250
 10
-11.9837
 20
15.5425
  0
VERTEX
  8
LAYER_1
 62
   250
 10
-13.1524
 20
16.0443
  0
VERTEX
  8
LAYER_1
 62
   250
 10
-14.2944
 20
16.3612
  0
VERTEX
  8
LAYER_1
 62
   250
 10
-15.4064
 20
16.504
  0
VERTEX
  8
LAYER_1
 62
   250
 10
-16.4851
 20
16.4836
  0
VERTEX
  8
LAYER_1
 62
   250
 10
-17.5271
 20
16.3103
  0
VERTEX
  8
LAYER_1
 62
   250
 10
-18.529
 20
15.9947
  0
VERTEX
  8
LAYER_1
 62
   250
 10
-19.4874
 20
15.5476
  0
VERTEX
  8
LAYER_1
 62
   250
 10
-20.3991
 20
14.9796
  0
VERTEX
  8
LAYER_1
 62
   250
 10
-21.2606
 20
14.3013
  0
VERTEX
  8
LAYER_1
 62
   250
 10
-22.0684
 20
13.5234
  0
VERTEX
  8
LAYER_1
 62
   250
 10
-22.8193
 20
12.6565
  0
VERTEX
  8
LAYER_1
 62
   250
 10
-23.5099
 20
11.7113
  0
VERTEX
  8
LAYER_1
 62
   250
 10
-24.1367
 20
10.6983
  0
VERTEX
  8
LAYER_1
 62
   250
 10
-24.6965
 20
9.6283
  0
VERTEX
  8
LAYER_1
 62
   250
 10
-25.1858
 20
8.5118
  0
VERTEX
  8
LAYER_1
 62
   250
 10
-25.6012
 20
7.3595
  0
VERTEX
  8
LAYER_1
 62
   250
 10
-25.9394
 20
6.1821
  0
VERTEX
  8
LAYER_1
 62
   250
 10
-26.1971
 20
4.9901
  0
VERTEX
  8
LAYER_1
 62
   250
 10
-26.3708
 20
3.7942
  0
VERTEX
  8
LAYER_1
 62
   250
 10
-26.4571
 20
2.605
  0
VERTEX
  8
LAYER_1
 62
   250
 10
-26.4526
 20
1.4333
  0
VERTEX
  8
LAYER_1
 62
   250
 10
-26.3542
 20
0.2895
  0
VERTEX
  8
LAYER_1
 62
   250
 10
-26.1583
 20
-0.8156
  0
VERTEX
  8
LAYER_1
 62
   250
 10
-25.8615
 20
-1.8715
  0
VERTEX
  8
LAYER_1
 62
   250
 10
-25.4605
 20
-2.8674
  0
VERTEX
  8
LAYER_1
 62
   250
 10
-24.9519
 20
-3.7928
  0
VERTEX
  8
LAYER_1
 62
   250
 10
-24.3323
 20
-4.6369
  0
VERTEX
  8
LAYER_1
 62
   250
 10
-23.5984
 20
-5.3893
  0
VERTEX
  8
LAYER_1
 62
   250
 10
-22.7468
 20
-6.0391
  0
VERTEX
  8
LAYER_1
 62
   250
 10
-21.774
 20
-6.5759
  0
VERTEX
  8
LAYER_1
 62
   250
 10
-20.6768
 20
-6.989
  0
VERTEX
  8
LAYER_1
 62
   250
 10
-19.4517
 20
-7.2676
  0
VERTEX
  8
LAYER_1
 62
   250
 10
-20.29
 20
-8.224
  0
VERTEX
  8
LAYER_1
 62
   250
 10
-20.9444
 20
-9.2122
  0
VERTEX
  8
LAYER_1
 62
   250
 10
-21.4239
 20
-10.2256
  0
VERTEX
  8
LAYER_1
 62
   250
 10
-21.7377
 20
-11.2579
  0
VERTEX
  8
LAYER_1
 62
   250
 10
-21.8947
 20
-12.3025
  0
VERTEX
  8
LAYER_1
 62
   250
 10
-21.9042
 20
-13.3529
  0
VERTEX
  8
LAYER_1
 62
   250
 10
-21.7753
 20
-14.4026
  0
VERTEX
  8
LAYER_1
 62
   250
 10
-21.5168
 20
-15.4451
  0
VERTEX
  8
LAYER_1
 62
   250
 10
-21.138
 20
-16.4739
  0
VERTEX
  8
LAYER_1
 62
   250
 10
-20.6478
 20
-17.4826
  0
VERTEX
  8
LAYER_1
 62
   250
 10
-20.0553
 20
-18.4646
  0
VERTEX
  8
LAYER_1
 62
   250
 10
-19.3697
 20
-19.4135
  0
VERTEX
  8
LAYER_1
 62
   250
 10
-18.6
 20
-20.3227
  0
VERTEX
  8
LAYER_1
 62
   250
 10
-17.7553
 20
-21.1858
  0
VERTEX
  8
LAYER_1
 62
   250
 10
-16.8447
 20
-21.9961
  0
VERTEX
  8
LAYER_1
 62
   250
 10
-15.8772
 20
-22.7473
  0
VERTEX
  8
LAYER_1
 62
   250
 10
-14.8619
 20
-23.4328
  0
VERTEX
  8
LAYER_1
 62
   250
 10
-13.8078
 20
-24.0462
  0
VERTEX
  8
LAYER_1
 62
   250
 10
-12.7241
 20
-24.5809
  0
VERTEX
  8
LAYER_1
 62
   250
 10
-11.6199
 20
-25.0304
  0
VERTEX
  8
LAYER_1
 62
   250
 10
-10.504
 20
-25.3883
  0
VERTEX
  8
LAYER_1
 62
   250
 10
-9.3858
 20
-25.6481
  0
VERTEX
  8
LAYER_1
 62
   250
 10
-8.2743
 20
-25.8033
  0
VERTEX
  8
LAYER_1
 62
   250
 10
-7.1784
 20
-25.8474
  0
VERTEX
  8
LAYER_1
 62
   250
 10
-6.1073
 20
-25.7738
  0
VERTEX
  8
LAYER_1
 62
   250
 10
-5.0701
 20
-25.5761
  0
VERTEX
  8
LAYER_1
 62
   250
 10
-4.0758
 20
-25.2477
  0
VERTEX
  8
LAYER_1
 62
   250
 10
-3.1335
 20
-24.7822
  0
VERTEX
  8
LAYER_1
 62
   250
 10
-2.2523
 20
-24.1731
  0
VERTEX
  8
LAYER_1
 62
   250
 10
-1.4412
 20
-23.4138
  0
VERTEX
  8
LAYER_1
 62
   250
 10
-0.7093
 20
-22.4979
  0
VERTEX
  8
LAYER_1
 62
   250
 10
-0.0657
 20
-21.4189
  0
SEQEND
  8
LAYER_1
 62
   250
  0
ENDSEC
  0
EOF
