  0
SECTION
  2
HEADER
  9
$ACADVER
  1
AC1002
  9
$INSBASE
 10
0.0
 20
0.0
  9
$EXTMIN
 10
-16.2368
 20
-16.9734
  9
$EXTMAX
 10
16.4621
 20
16.1509
  9
$LIMMIN
 10
0.0
 20
0.0
  9
$LIMMAX
 10
12.0
 20
9.0
  9
$ORTHOMODE
 70
     0
  9
$REGENMODE
 70
     1
  9
$FILLMODE
 70
     1
  9
$QTEXTMODE
 70
     0
  9
$DRAGMODE
 70
     2
  9
$LTSCALE
 40
1.0
  9
$OSMODE
 70
    37
  9
$ATTMODE
 70
     1
  9
$TEXTSIZE
 40
0.2
  9
$TRACEWID
 40
0.05
  9
$TEXTSTYLE
  7
STANDARD
  9
$CLAYER
  8
0
  9
$CELTYPE
  6
BYLAYER
  9
$CECOLOR
 62
   256
  9
$DIMSCALE
 40
1.0
  9
$DIMASZ
 40
0.18
  9
$DIMEXO
 40
0.0625
  9
$DIMDLI
 40
0.38
  9
$DIMRND
 40
0.0
  9
$DIMDLE
 40
0.0
  9
$DIMEXE
 40
0.18
  9
$DIMTP
 40
0.0
  9
$DIMTM
 40
0.0
  9
$DIMTXT
 40
0.18
  9
$DIMCEN
 40
0.09
  9
$DIMTSZ
 40
0.0
  9
$DIMTOL
 70
     0
  9
$DIMLIM
 70
     0
  9
$DIMTIH
 70
     1
  9
$DIMTOH
 70
     1
  9
$DIMSE1
 70
     0
  9
$DIMSE2
 70
     0
  9
$DIMTAD
 70
     0
  9
$DIMZIN
 70
     0
  9
$DIMBLK
  1

  9
$LUNITS
 70
     2
  9
$LUPREC
 70
     4
  9
$SKETCHINC
 40
0.1
  9
$FILLETRAD
 40
0.5
  9
$AUNITS
 70
     0
  9
$AUPREC
 70
     0
  9
$MENU
  1
.
  9
$ELEVATION
 40
0.0
  9
$THICKNESS
 40
0.0
  9
$LIMCHECK
 70
     0
  9
$CHAMFERA
 40
0.0
  9
$CHAMFERB
 40
0.0
  9
$SKPOLY
 70
     0
  9
$TDCREATE
 40
2457112.805500324
  9
$TDUPDATE
 40
2457112.805500347
  9
$TDINDWG
 40
0.0000000116
  9
$TDUSRTIMER
 40
0.0000000116
  9
$USRTIMER
 70
     1
  9
$ANGBASE
 50
0.0
  9
$ANGDIR
 70
     0
  9
$PDMODE
 70
     0
  9
$PDSIZE
 40
0.0
  9
$PLINEWID
 40
0.0
  9
$COORDS
 70
     1
  9
$SURFTAB1
 70
     6
  9
$SURFTAB2
 70
     6
  9
$SURFTYPE
 70
     6
  9
$SURFU
 70
     6
  9
$SURFV
 70
     6
  9
$UCSNAME
  2

  9
$UCSORG
 10
0.0
 20
0.0
 30
0.0
  9
$UCSXDIR
 10
1.0
 20
0.0
 30
0.0
  9
$UCSYDIR
 10
0.0
 20
1.0
 30
0.0
  9
$USERI1
 70
     0
  9
$USERI2
 70
     0
  9
$USERI3
 70
     0
  9
$USERI4
 70
     0
  9
$USERI5
 70
     0
  9
$USERR1
 40
0.0
  9
$USERR2
 40
0.0
  9
$USERR3
 40
0.0
  9
$USERR4
 40
0.0
  9
$USERR5
 40
0.0
  0
ENDSEC
  0
SECTION
  2
TABLES
  0
TABLE
  2
LTYPE
 70
     1
  0
LTYPE
  2
CONTINUOUS
 70
     0
  3
Solid line
 72
    65
 73
     0
 40
0.0
  0
ENDTAB
  0
TABLE
  2
LAYER
 70
     2
  0
LAYER
  2
0
 70
     0
 62
     7
  6
CONTINUOUS
  0
LAYER
  2
LAYER_1
 70
     0
 62
     7
  6
CONTINUOUS
  0
ENDTAB
  0
TABLE
  2
STYLE
 70
     1
  0
STYLE
  2
STANDARD
 70
     0
 40
0.0
 41
1.0
 50
0.0
 71
     0
 42
0.2
  3
txt
  4

  0
ENDTAB
  0
TABLE
  2
VIEW
 70
     0
  0
ENDTAB
  0
ENDSEC
  0
SECTION
  2
BLOCKS
  0
ENDSEC
  0
SECTION
  2
ENTITIES
  0
POLYLINE
  8
LAYER_1
 66
     1
 70
     1
  0
VERTEX
  8
LAYER_1
 10
-5.2094
 20
1.672
  0
VERTEX
  8
LAYER_1
 10
-5.1982
 20
1.6608
  0
VERTEX
  8
LAYER_1
 10
-5.2094
 20
1.672
  0
SEQEND
  8
LAYER_1
  0
POLYLINE
  8
LAYER_1
 66
     1
 70
     1
  0
VERTEX
  8
LAYER_1
 10
0.8775
 20
-5.4294
  0
VERTEX
  8
LAYER_1
 10
0.8887
 20
-5.4182
  0
VERTEX
  8
LAYER_1
 10
0.8888
 20
-5.4182
  0
VERTEX
  8
LAYER_1
 10
0.8775
 20
-5.4294
  0
SEQEND
  8
LAYER_1
  0
POLYLINE
  8
LAYER_1
 66
     1
 70
     1
  0
VERTEX
  8
LAYER_1
 10
11.344
 20
-13.3364
  0
VERTEX
  8
LAYER_1
 10
11.3537
 20
-13.3208
  0
VERTEX
  8
LAYER_1
 10
11.3559
 20
-13.244
  0
VERTEX
  8
LAYER_1
 10
11.3133
 20
-13.0842
  0
VERTEX
  8
LAYER_1
 10
11.2386
 20
-12.868
  0
VERTEX
  8
LAYER_1
 10
11.1444
 20
-12.6217
  0
VERTEX
  8
LAYER_1
 10
10.9473
 20
-12.1451
  0
VERTEX
  8
LAYER_1
 10
10.8226
 20
-11.8664
  0
VERTEX
  8
LAYER_1
 10
10.6324
 20
-11.5326
  0
VERTEX
  8
LAYER_1
 10
10.4354
 20
-11.2552
  0
VERTEX
  8
LAYER_1
 10
10.2243
 20
-10.9932
  0
VERTEX
  8
LAYER_1
 10
9.9916
 20
-10.706
  0
VERTEX
  8
LAYER_1
 10
9.7922
 20
-10.4893
  0
VERTEX
  8
LAYER_1
 10
9.5376
 20
-10.2662
  0
VERTEX
  8
LAYER_1
 10
9.2437
 20
-10.04
  0
VERTEX
  8
LAYER_1
 10
8.9263
 20
-9.814
  0
VERTEX
  8
LAYER_1
 10
8.2839
 20
-9.3757
  0
VERTEX
  8
LAYER_1
 10
7.7369
 20
-8.978
  0
VERTEX
  8
LAYER_1
 10
6.9935
 20
-8.2413
  0
VERTEX
  8
LAYER_1
 10
6.4304
 20
-7.4241
  0
VERTEX
  8
LAYER_1
 10
6.0177
 20
-6.575
  0
VERTEX
  8
LAYER_1
 10
5.7254
 20
-5.7425
  0
VERTEX
  8
LAYER_1
 10
5.5235
 20
-4.9752
  0
VERTEX
  8
LAYER_1
 10
5.3821
 20
-4.3217
  0
VERTEX
  8
LAYER_1
 10
5.2712
 20
-3.8307
  0
VERTEX
  8
LAYER_1
 10
5.1609
 20
-3.5507
  0
VERTEX
  8
LAYER_1
 10
4.9716
 20
-4.461
  0
VERTEX
  8
LAYER_1
 10
4.8563
 20
-5.3166
  0
VERTEX
  8
LAYER_1
 10
4.8329
 20
-6.123
  0
VERTEX
  8
LAYER_1
 10
4.9194
 20
-6.886
  0
VERTEX
  8
LAYER_1
 10
5.1336
 20
-7.6112
  0
VERTEX
  8
LAYER_1
 10
5.4935
 20
-8.3044
  0
VERTEX
  8
LAYER_1
 10
6.0169
 20
-8.9711
  0
VERTEX
  8
LAYER_1
 10
6.7218
 20
-9.6172
  0
VERTEX
  8
LAYER_1
 10
7.0365
 20
-9.8486
  0
VERTEX
  8
LAYER_1
 10
7.3596
 20
-10.0547
  0
VERTEX
  8
LAYER_1
 10
7.689
 20
-10.2426
  0
VERTEX
  8
LAYER_1
 10
8.0223
 20
-10.4195
  0
VERTEX
  8
LAYER_1
 10
8.3575
 20
-10.5924
  0
VERTEX
  8
LAYER_1
 10
8.6923
 20
-10.7683
  0
VERTEX
  8
LAYER_1
 10
9.0244
 20
-10.9545
  0
VERTEX
  8
LAYER_1
 10
9.3518
 20
-11.1579
  0
VERTEX
  8
LAYER_1
 10
9.6482
 20
-11.374
  0
VERTEX
  8
LAYER_1
 10
9.9268
 20
-11.6119
  0
VERTEX
  8
LAYER_1
 10
10.1925
 20
-11.8648
  0
VERTEX
  8
LAYER_1
 10
10.4503
 20
-12.126
  0
VERTEX
  8
LAYER_1
 10
10.6985
 20
-12.4195
  0
VERTEX
  8
LAYER_1
 10
10.9172
 20
-12.7319
  0
VERTEX
  8
LAYER_1
 10
11.1258
 20
-13.044
  0
VERTEX
  8
LAYER_1
 10
11.344
 20
-13.3364
  0
SEQEND
  8
LAYER_1
  0
POLYLINE
  8
LAYER_1
 66
     1
 70
     1
  0
VERTEX
  8
LAYER_1
 10
11.3606
 20
-13.395
  0
VERTEX
  8
LAYER_1
 10
11.3718
 20
-13.3838
  0
VERTEX
  8
LAYER_1
 10
11.3606
 20
-13.395
  0
SEQEND
  8
LAYER_1
  0
POLYLINE
  8
LAYER_1
 66
     1
 70
     1
  0
VERTEX
  8
LAYER_1
 10
-5.0591
 20
-16.9269
  0
VERTEX
  8
LAYER_1
 10
-4.8302
 20
-16.7291
  0
VERTEX
  8
LAYER_1
 10
-4.5959
 20
-16.4736
  0
VERTEX
  8
LAYER_1
 10
-4.3638
 20
-16.1756
  0
VERTEX
  8
LAYER_1
 10
-4.1416
 20
-15.85
  0
VERTEX
  8
LAYER_1
 10
-3.937
 20
-15.5119
  0
VERTEX
  8
LAYER_1
 10
-3.7576
 20
-15.1764
  0
VERTEX
  8
LAYER_1
 10
-3.6112
 20
-14.8583
  0
VERTEX
  8
LAYER_1
 10
-3.5054
 20
-14.5729
  0
VERTEX
  8
LAYER_1
 10
-3.3901
 20
-14.1405
  0
VERTEX
  8
LAYER_1
 10
-3.3102
 20
-13.712
  0
VERTEX
  8
LAYER_1
 10
-3.2557
 20
-13.2862
  0
VERTEX
  8
LAYER_1
 10
-3.2165
 20
-12.8622
  0
VERTEX
  8
LAYER_1
 10
-3.1823
 20
-12.4388
  0
VERTEX
  8
LAYER_1
 10
-3.1432
 20
-12.0148
  0
VERTEX
  8
LAYER_1
 10
-3.0891
 20
-11.5892
  0
VERTEX
  8
LAYER_1
 10
-3.0098
 20
-11.1609
  0
VERTEX
  8
LAYER_1
 10
-2.924
 20
-10.8536
  0
VERTEX
  8
LAYER_1
 10
-2.7997
 20
-10.5195
  0
VERTEX
  8
LAYER_1
 10
-2.6438
 20
-10.1707
  0
VERTEX
  8
LAYER_1
 10
-2.4631
 20
-9.8194
  0
VERTEX
  8
LAYER_1
 10
-2.2645
 20
-9.4778
  0
VERTEX
  8
LAYER_1
 10
-2.055
 20
-9.158
  0
VERTEX
  8
LAYER_1
 10
-1.8413
 20
-8.8722
  0
VERTEX
  8
LAYER_1
 10
-1.6305
 20
-8.6325
  0
VERTEX
  8
LAYER_1
 10
-1.4005
 20
-8.3798
  0
VERTEX
  8
LAYER_1
 10
-1.1761
 20
-8.118
  0
VERTEX
  8
LAYER_1
 10
-0.9435
 20
-7.8605
  0
VERTEX
  8
LAYER_1
 10
-0.6887
 20
-7.6206
  0
VERTEX
  8
LAYER_1
 10
-0.4463
 20
-7.4174
  0
VERTEX
  8
LAYER_1
 10
-0.1389
 20
-7.1528
  0
VERTEX
  8
LAYER_1
 10
0.1537
 20
-6.8843
  0
VERTEX
  8
LAYER_1
 10
0.3515
 20
-6.6693
  0
VERTEX
  8
LAYER_1
 10
0.0597
 20
-6.7387
  0
VERTEX
  8
LAYER_1
 10
-0.2889
 20
-6.8484
  0
VERTEX
  8
LAYER_1
 10
-0.6734
 20
-6.9896
  0
VERTEX
  8
LAYER_1
 10
-1.073
 20
-7.1535
  0
VERTEX
  8
LAYER_1
 10
-1.4666
 20
-7.3313
  0
VERTEX
  8
LAYER_1
 10
-1.8334
 20
-7.5142
  0
VERTEX
  8
LAYER_1
 10
-2.1525
 20
-7.6934
  0
VERTEX
  8
LAYER_1
 10
-2.403
 20
-7.8601
  0
VERTEX
  8
LAYER_1
 10
-2.7057
 20
-8.108
  0
VERTEX
  8
LAYER_1
 10
-2.9672
 20
-8.3643
  0
VERTEX
  8
LAYER_1
 10
-3.1929
 20
-8.632
  0
VERTEX
  8
LAYER_1
 10
-3.3878
 20
-8.9139
  0
VERTEX
  8
LAYER_1
 10
-3.5573
 20
-9.213
  0
VERTEX
  8
LAYER_1
 10
-3.7065
 20
-9.5323
  0
VERTEX
  8
LAYER_1
 10
-3.8407
 20
-9.8746
  0
VERTEX
  8
LAYER_1
 10
-3.9651
 20
-10.2431
  0
VERTEX
  8
LAYER_1
 10
-4.1403
 20
-10.9627
  0
VERTEX
  8
LAYER_1
 10
-4.2112
 20
-11.6246
  0
VERTEX
  8
LAYER_1
 10
-4.2139
 20
-12.2494
  0
VERTEX
  8
LAYER_1
 10
-4.1842
 20
-12.8575
  0
VERTEX
  8
LAYER_1
 10
-4.1582
 20
-13.4694
  0
VERTEX
  8
LAYER_1
 10
-4.1718
 20
-14.1056
  0
VERTEX
  8
LAYER_1
 10
-4.261
 20
-14.7866
  0
VERTEX
  8
LAYER_1
 10
-4.4618
 20
-15.5328
  0
VERTEX
  8
LAYER_1
 10
-4.605
 20
-15.8894
  0
VERTEX
  8
LAYER_1
 10
-4.7761
 20
-16.2563
  0
VERTEX
  8
LAYER_1
 10
-4.9393
 20
-16.61
  0
VERTEX
  8
LAYER_1
 10
-5.0591
 20
-16.9269
  0
SEQEND
  8
LAYER_1
  0
POLYLINE
  8
LAYER_1
 66
     1
 70
     1
  0
VERTEX
  8
LAYER_1
 10
-5.0967
 20
-16.9269
  0
VERTEX
  8
LAYER_1
 10
-5.0855
 20
-16.9381
  0
VERTEX
  8
LAYER_1
 10
-5.0967
 20
-16.9269
  0
SEQEND
  8
LAYER_1
  0
POLYLINE
  8
LAYER_1
 66
     1
 70
     1
  0
VERTEX
  8
LAYER_1
 10
-16.1932
 20
-4.2899
  0
VERTEX
  8
LAYER_1
 10
-16.1877
 20
-4.3004
  0
VERTEX
  8
LAYER_1
 10
-16.122
 20
-4.332
  0
VERTEX
  8
LAYER_1
 10
-15.9598
 20
-4.3685
  0
VERTEX
  8
LAYER_1
 10
-15.7314
 20
-4.4074
  0
VERTEX
  8
LAYER_1
 10
-15.4674
 20
-4.4462
  0
VERTEX
  8
LAYER_1
 10
-14.9536
 20
-4.5131
  0
VERTEX
  8
LAYER_1
 10
-14.6618
 20
-4.5489
  0
VERTEX
  8
LAYER_1
 10
-14.4904
 20
-4.5622
  0
VERTEX
  8
LAYER_1
 10
-14.2946
 20
-4.5615
  0
VERTEX
  8
LAYER_1
 10
-14.0824
 20
-4.5487
  0
VERTEX
  8
LAYER_1
 10
-13.862
 20
-4.5261
  0
VERTEX
  8
LAYER_1
 10
-13.4293
 20
-4.4594
  0
VERTEX
  8
LAYER_1
 10
-13.0618
 20
-4.3778
  0
VERTEX
  8
LAYER_1
 10
-12.2253
 20
-4.0873
  0
VERTEX
  8
LAYER_1
 10
-11.4876
 20
-3.7427
  0
VERTEX
  8
LAYER_1
 10
-10.7679
 20
-3.4032
  0
VERTEX
  8
LAYER_1
 10
-9.9852
 20
-3.128
  0
VERTEX
  8
LAYER_1
 10
-9.0587
 20
-2.976
  0
VERTEX
  8
LAYER_1
 10
-7.9077
 20
-3.0065
  0
VERTEX
  8
LAYER_1
 10
-6.4511
 20
-3.2786
  0
VERTEX
  8
LAYER_1
 10
-4.6082
 20
-3.8513
  0
VERTEX
  8
LAYER_1
 10
-4.7249
 20
-3.6853
  0
VERTEX
  8
LAYER_1
 10
-4.9605
 20
-3.46
  0
VERTEX
  8
LAYER_1
 10
-5.28
 20
-3.1973
  0
VERTEX
  8
LAYER_1
 10
-5.6482
 20
-2.9192
  0
VERTEX
  8
LAYER_1
 10
-6.0301
 20
-2.6478
  0
VERTEX
  8
LAYER_1
 10
-6.3907
 20
-2.4049
  0
VERTEX
  8
LAYER_1
 10
-6.6949
 20
-2.2126
  0
VERTEX
  8
LAYER_1
 10
-6.9077
 20
-2.0928
  0
VERTEX
  8
LAYER_1
 10
-7.313
 20
-1.9253
  0
VERTEX
  8
LAYER_1
 10
-7.7325
 20
-1.8097
  0
VERTEX
  8
LAYER_1
 10
-8.162
 20
-1.7427
  0
VERTEX
  8
LAYER_1
 10
-8.5973
 20
-1.7206
  0
VERTEX
  8
LAYER_1
 10
-9.0344
 20
-1.7402
  0
VERTEX
  8
LAYER_1
 10
-9.4692
 20
-1.7981
  0
VERTEX
  8
LAYER_1
 10
-9.8974
 20
-1.8906
  0
VERTEX
  8
LAYER_1
 10
-10.315
 20
-2.0146
  0
VERTEX
  8
LAYER_1
 10
-10.7082
 20
-2.162
  0
VERTEX
  8
LAYER_1
 10
-11.0588
 20
-2.3213
  0
VERTEX
  8
LAYER_1
 10
-11.379
 20
-2.4912
  0
VERTEX
  8
LAYER_1
 10
-11.6805
 20
-2.6702
  0
VERTEX
  8
LAYER_1
 10
-12.2751
 20
-3.05
  0
VERTEX
  8
LAYER_1
 10
-12.938
 20
-3.4495
  0
VERTEX
  8
LAYER_1
 10
-13.511
 20
-3.7351
  0
VERTEX
  8
LAYER_1
 10
-14.0192
 20
-3.9285
  0
VERTEX
  8
LAYER_1
 10
-14.4714
 20
-4.05
  0
VERTEX
  8
LAYER_1
 10
-14.8761
 20
-4.1199
  0
VERTEX
  8
LAYER_1
 10
-15.2419
 20
-4.1585
  0
VERTEX
  8
LAYER_1
 10
-15.5777
 20
-4.1862
  0
VERTEX
  8
LAYER_1
 10
-15.8919
 20
-4.2232
  0
VERTEX
  8
LAYER_1
 10
-16.1932
 20
-4.2899
  0
SEQEND
  8
LAYER_1
  0
POLYLINE
  8
LAYER_1
 66
     1
 70
     1
  0
VERTEX
  8
LAYER_1
 10
-5.8683
 20
2.8194
  0
VERTEX
  8
LAYER_1
 10
-5.8142
 20
2.9309
  0
VERTEX
  8
LAYER_1
 10
-5.7607
 20
3.1202
  0
VERTEX
  8
LAYER_1
 10
-5.7092
 20
3.3633
  0
VERTEX
  8
LAYER_1
 10
-5.661
 20
3.6363
  0
VERTEX
  8
LAYER_1
 10
-5.5803
 20
4.176
  0
VERTEX
  8
LAYER_1
 10
-5.5296
 20
4.5472
  0
VERTEX
  8
LAYER_1
 10
-5.4796
 20
5.2046
  0
VERTEX
  8
LAYER_1
 10
-5.521
 20
5.8234
  0
VERTEX
  8
LAYER_1
 10
-5.6487
 20
6.4062
  0
VERTEX
  8
LAYER_1
 10
-5.8575
 20
6.9556
  0
VERTEX
  8
LAYER_1
 10
-6.1423
 20
7.4744
  0
VERTEX
  8
LAYER_1
 10
-6.4979
 20
7.9653
  0
VERTEX
  8
LAYER_1
 10
-6.9193
 20
8.4308
  0
VERTEX
  8
LAYER_1
 10
-7.4012
 20
8.8737
  0
VERTEX
  8
LAYER_1
 10
-7.7029
 20
9.1043
  0
VERTEX
  8
LAYER_1
 10
-8.024
 20
9.3092
  0
VERTEX
  8
LAYER_1
 10
-8.3587
 20
9.4959
  0
VERTEX
  8
LAYER_1
 10
-8.7012
 20
9.6717
  0
VERTEX
  8
LAYER_1
 10
-9.0457
 20
9.8438
  0
VERTEX
  8
LAYER_1
 10
-9.3865
 20
10.0196
  0
VERTEX
  8
LAYER_1
 10
-9.7179
 20
10.2064
  0
VERTEX
  8
LAYER_1
 10
-10.034
 20
10.4115
  0
VERTEX
  8
LAYER_1
 10
-10.5173
 20
10.7819
  0
VERTEX
  8
LAYER_1
 10
-10.8923
 20
11.1236
  0
VERTEX
  8
LAYER_1
 10
-11.18
 20
11.4374
  0
VERTEX
  8
LAYER_1
 10
-11.4015
 20
11.7237
  0
VERTEX
  8
LAYER_1
 10
-11.578
 20
11.9831
  0
VERTEX
  8
LAYER_1
 10
-11.7304
 20
12.2162
  0
VERTEX
  8
LAYER_1
 10
-11.88
 20
12.4236
  0
VERTEX
  8
LAYER_1
 10
-12.0478
 20
12.6059
  0
VERTEX
  8
LAYER_1
 10
-11.9823
 20
12.289
  0
VERTEX
  8
LAYER_1
 10
-11.8706
 20
11.9417
  0
VERTEX
  8
LAYER_1
 10
-11.7208
 20
11.5777
  0
VERTEX
  8
LAYER_1
 10
-11.5411
 20
11.2107
  0
VERTEX
  8
LAYER_1
 10
-11.3396
 20
10.8543
  0
VERTEX
  8
LAYER_1
 10
-11.1244
 20
10.5221
  0
VERTEX
  8
LAYER_1
 10
-10.9038
 20
10.2279
  0
VERTEX
  8
LAYER_1
 10
-10.6858
 20
9.9852
  0
VERTEX
  8
LAYER_1
 10
-10.1377
 20
9.495
  0
VERTEX
  8
LAYER_1
 10
-9.5925
 20
9.0832
  0
VERTEX
  8
LAYER_1
 10
-9.0567
 20
8.708
  0
VERTEX
  8
LAYER_1
 10
-8.5367
 20
8.3279
  0
VERTEX
  8
LAYER_1
 10
-8.039
 20
7.9011
  0
VERTEX
  8
LAYER_1
 10
-7.57
 20
7.3859
  0
VERTEX
  8
LAYER_1
 10
-7.1361
 20
6.7407
  0
VERTEX
  8
LAYER_1
 10
-6.7439
 20
5.9238
  0
VERTEX
  8
LAYER_1
 10
-6.2453
 20
4.4311
  0
VERTEX
  8
LAYER_1
 10
-5.8683
 20
2.8194
  0
SEQEND
  8
LAYER_1
  0
POLYLINE
  8
LAYER_1
 66
     1
 70
     1
  0
VERTEX
  8
LAYER_1
 10
4.7852
 20
16.1003
  0
VERTEX
  8
LAYER_1
 10
4.7964
 20
16.1115
  0
VERTEX
  8
LAYER_1
 10
4.7852
 20
16.1003
  0
SEQEND
  8
LAYER_1
  0
POLYLINE
  8
LAYER_1
 66
     1
 70
     1
  0
VERTEX
  8
LAYER_1
 10
-0.6254
 20
5.8427
  0
VERTEX
  8
LAYER_1
 10
0.1485
 20
6.0689
  0
VERTEX
  8
LAYER_1
 10
0.8575
 20
6.3305
  0
VERTEX
  8
LAYER_1
 10
1.5006
 20
6.6414
  0
VERTEX
  8
LAYER_1
 10
2.0767
 20
7.0153
  0
VERTEX
  8
LAYER_1
 10
2.5849
 20
7.466
  0
VERTEX
  8
LAYER_1
 10
3.0241
 20
8.0072
  0
VERTEX
  8
LAYER_1
 10
3.3932
 20
8.6528
  0
VERTEX
  8
LAYER_1
 10
3.6912
 20
9.4165
  0
VERTEX
  8
LAYER_1
 10
3.8671
 20
10.1364
  0
VERTEX
  8
LAYER_1
 10
3.9379
 20
10.7926
  0
VERTEX
  8
LAYER_1
 10
3.9399
 20
11.4085
  0
VERTEX
  8
LAYER_1
 10
3.9093
 20
12.0076
  0
VERTEX
  8
LAYER_1
 10
3.8825
 20
12.6134
  0
VERTEX
  8
LAYER_1
 10
3.8959
 20
13.2494
  0
VERTEX
  8
LAYER_1
 10
3.9857
 20
13.939
  0
VERTEX
  8
LAYER_1
 10
4.1883
 20
14.7058
  0
VERTEX
  8
LAYER_1
 10
4.3312
 20
15.0665
  0
VERTEX
  8
LAYER_1
 10
4.5014
 20
15.4307
  0
VERTEX
  8
LAYER_1
 10
4.6643
 20
15.781
  0
VERTEX
  8
LAYER_1
 10
4.7852
 20
16.1003
  0
VERTEX
  8
LAYER_1
 10
4.5651
 20
15.9199
  0
VERTEX
  8
LAYER_1
 10
4.3324
 20
15.6682
  0
VERTEX
  8
LAYER_1
 10
4.0971
 20
15.3646
  0
VERTEX
  8
LAYER_1
 10
3.8693
 20
15.0284
  0
VERTEX
  8
LAYER_1
 10
3.6588
 20
14.6792
  0
VERTEX
  8
LAYER_1
 10
3.4756
 20
14.3361
  0
VERTEX
  8
LAYER_1
 10
3.3299
 20
14.0188
  0
VERTEX
  8
LAYER_1
 10
3.2314
 20
13.7465
  0
VERTEX
  8
LAYER_1
 10
3.1202
 20
13.3056
  0
VERTEX
  8
LAYER_1
 10
3.0424
 20
12.874
  0
VERTEX
  8
LAYER_1
 10
2.9885
 20
12.4492
  0
VERTEX
  8
LAYER_1
 10
2.9487
 20
12.0284
  0
VERTEX
  8
LAYER_1
 10
2.9132
 20
11.6091
  0
VERTEX
  8
LAYER_1
 10
2.8724
 20
11.1888
  0
VERTEX
  8
LAYER_1
 10
2.8165
 20
10.7647
  0
VERTEX
  8
LAYER_1
 10
2.7359
 20
10.3343
  0
VERTEX
  8
LAYER_1
 10
2.5974
 20
9.8739
  0
VERTEX
  8
LAYER_1
 10
2.3877
 20
9.3896
  0
VERTEX
  8
LAYER_1
 10
2.1205
 20
8.8961
  0
VERTEX
  8
LAYER_1
 10
1.8095
 20
8.4082
  0
VERTEX
  8
LAYER_1
 10
1.4684
 20
7.9406
  0
VERTEX
  8
LAYER_1
 10
1.1109
 20
7.508
  0
VERTEX
  8
LAYER_1
 10
0.7508
 20
7.1252
  0
VERTEX
  8
LAYER_1
 10
0.4017
 20
6.807
  0
VERTEX
  8
LAYER_1
 10
0.1696
 20
6.6081
  0
VERTEX
  8
LAYER_1
 10
-0.1386
 20
6.3322
  0
VERTEX
  8
LAYER_1
 10
-0.4334
 20
6.0527
  0
VERTEX
  8
LAYER_1
 10
-0.6254
 20
5.8427
  0
SEQEND
  8
LAYER_1
  0
POLYLINE
  8
LAYER_1
 66
     1
 70
     1
  0
VERTEX
  8
LAYER_1
 10
4.8228
 20
3.0247
  0
VERTEX
  8
LAYER_1
 10
4.9506
 20
2.8515
  0
VERTEX
  8
LAYER_1
 10
5.1899
 20
2.6243
  0
VERTEX
  8
LAYER_1
 10
5.5078
 20
2.3637
  0
VERTEX
  8
LAYER_1
 10
5.8715
 20
2.0898
  0
VERTEX
  8
LAYER_1
 10
6.2481
 20
1.8232
  0
VERTEX
  8
LAYER_1
 10
6.6047
 20
1.5843
  0
VERTEX
  8
LAYER_1
 10
6.9085
 20
1.3933
  0
VERTEX
  8
LAYER_1
 10
7.1267
 20
1.2707
  0
VERTEX
  8
LAYER_1
 10
7.529
 20
1.1045
  0
VERTEX
  8
LAYER_1
 10
7.9495
 20
0.9919
  0
VERTEX
  8
LAYER_1
 10
8.3827
 20
0.9287
  0
VERTEX
  8
LAYER_1
 10
8.8232
 20
0.9106
  0
VERTEX
  8
LAYER_1
 10
9.2655
 20
0.9335
  0
VERTEX
  8
LAYER_1
 10
9.7041
 20
0.9933
  0
VERTEX
  8
LAYER_1
 10
10.1336
 20
1.0857
  0
VERTEX
  8
LAYER_1
 10
10.5485
 20
1.2066
  0
VERTEX
  8
LAYER_1
 10
11.2443
 20
1.4917
  0
VERTEX
  8
LAYER_1
 10
11.8616
 20
1.8332
  0
VERTEX
  8
LAYER_1
 10
12.4455
 20
2.2021
  0
VERTEX
  8
LAYER_1
 10
13.0408
 20
2.5693
  0
VERTEX
  8
LAYER_1
 10
13.6922
 20
2.9056
  0
VERTEX
  8
LAYER_1
 10
14.4449
 20
3.1818
  0
VERTEX
  8
LAYER_1
 10
15.3435
 20
3.369
  0
VERTEX
  8
LAYER_1
 10
16.433
 20
3.438
  0
VERTEX
  8
LAYER_1
 10
16.3315
 20
3.4915
  0
VERTEX
  8
LAYER_1
 10
16.1684
 20
3.5426
  0
VERTEX
  8
LAYER_1
 10
15.9626
 20
3.5901
  0
VERTEX
  8
LAYER_1
 10
15.7334
 20
3.6329
  0
VERTEX
  8
LAYER_1
 10
15.281
 20
3.7
  0
VERTEX
  8
LAYER_1
 10
14.9643
 20
3.7352
  0
VERTEX
  8
LAYER_1
 10
14.5546
 20
3.7471
  0
VERTEX
  8
LAYER_1
 10
14.1406
 20
3.7202
  0
VERTEX
  8
LAYER_1
 10
13.7296
 20
3.6604
  0
VERTEX
  8
LAYER_1
 10
13.329
 20
3.5736
  0
VERTEX
  8
LAYER_1
 10
12.6698
 20
3.362
  0
VERTEX
  8
LAYER_1
 10
12.069
 20
3.0995
  0
VERTEX
  8
LAYER_1
 10
11.4904
 20
2.8182
  0
VERTEX
  8
LAYER_1
 10
10.8977
 20
2.5503
  0
VERTEX
  8
LAYER_1
 10
10.2548
 20
2.328
  0
VERTEX
  8
LAYER_1
 10
9.5254
 20
2.1836
  0
VERTEX
  8
LAYER_1
 10
8.6733
 20
2.1492
  0
VERTEX
  8
LAYER_1
 10
7.6623
 20
2.2571
  0
VERTEX
  8
LAYER_1
 10
6.1911
 20
2.5895
  0
VERTEX
  8
LAYER_1
 10
5.8616
 20
2.6972
  0
VERTEX
  8
LAYER_1
 10
5.4949
 20
2.8292
  0
VERTEX
  8
LAYER_1
 10
5.1342
 20
2.9502
  0
VERTEX
  8
LAYER_1
 10
4.8228
 20
3.0247
  0
SEQEND
  8
LAYER_1
  0
ENDSEC
  0
EOF
