  0
SECTION
  2
HEADER
  9
$ACADVER
  1
AC1002
  9
$INSBASE
 10
0.0
 20
0.0
  9
$EXTMIN
 10
-16.2301
 20
-16.9889
  9
$EXTMAX
 10
16.4415
 20
16.1286
  9
$LIMMIN
 10
0.0
 20
0.0
  9
$LIMMAX
 10
12.0
 20
9.0
  9
$ORTHOMODE
 70
     0
  9
$REGENMODE
 70
     1
  9
$FILLMODE
 70
     1
  9
$QTEXTMODE
 70
     0
  9
$DRAGMODE
 70
     2
  9
$LTSCALE
 40
1.0
  9
$OSMODE
 70
    37
  9
$ATTMODE
 70
     1
  9
$TEXTSIZE
 40
0.2
  9
$TRACEWID
 40
0.05
  9
$TEXTSTYLE
  7
STANDARD
  9
$CLAYER
  8
0
  9
$CELTYPE
  6
BYLAYER
  9
$CECOLOR
 62
   256
  9
$DIMSCALE
 40
1.0
  9
$DIMASZ
 40
0.18
  9
$DIMEXO
 40
0.0625
  9
$DIMDLI
 40
0.38
  9
$DIMRND
 40
0.0
  9
$DIMDLE
 40
0.0
  9
$DIMEXE
 40
0.18
  9
$DIMTP
 40
0.0
  9
$DIMTM
 40
0.0
  9
$DIMTXT
 40
0.18
  9
$DIMCEN
 40
0.09
  9
$DIMTSZ
 40
0.0
  9
$DIMTOL
 70
     0
  9
$DIMLIM
 70
     0
  9
$DIMTIH
 70
     1
  9
$DIMTOH
 70
     1
  9
$DIMSE1
 70
     0
  9
$DIMSE2
 70
     0
  9
$DIMTAD
 70
     0
  9
$DIMZIN
 70
     0
  9
$DIMBLK
  1

  9
$LUNITS
 70
     2
  9
$LUPREC
 70
     4
  9
$SKETCHINC
 40
0.1
  9
$FILLETRAD
 40
0.5
  9
$AUNITS
 70
     0
  9
$AUPREC
 70
     0
  9
$MENU
  1
.
  9
$ELEVATION
 40
0.0
  9
$THICKNESS
 40
0.0
  9
$LIMCHECK
 70
     0
  9
$CHAMFERA
 40
0.0
  9
$CHAMFERB
 40
0.0
  9
$SKPOLY
 70
     0
  9
$TDCREATE
 40
2457114.437391863
  9
$TDUPDATE
 40
2457114.437391898
  9
$TDINDWG
 40
0.0000000116
  9
$TDUSRTIMER
 40
0.0000000116
  9
$USRTIMER
 70
     1
  9
$ANGBASE
 50
0.0
  9
$ANGDIR
 70
     0
  9
$PDMODE
 70
     0
  9
$PDSIZE
 40
0.0
  9
$PLINEWID
 40
0.0
  9
$COORDS
 70
     1
  9
$SURFTAB1
 70
     6
  9
$SURFTAB2
 70
     6
  9
$SURFTYPE
 70
     6
  9
$SURFU
 70
     6
  9
$SURFV
 70
     6
  9
$UCSNAME
  2

  9
$UCSORG
 10
0.0
 20
0.0
 30
0.0
  9
$UCSXDIR
 10
1.0
 20
0.0
 30
0.0
  9
$UCSYDIR
 10
0.0
 20
1.0
 30
0.0
  9
$USERI1
 70
     0
  9
$USERI2
 70
     0
  9
$USERI3
 70
     0
  9
$USERI4
 70
     0
  9
$USERI5
 70
     0
  9
$USERR1
 40
0.0
  9
$USERR2
 40
0.0
  9
$USERR3
 40
0.0
  9
$USERR4
 40
0.0
  9
$USERR5
 40
0.0
  0
ENDSEC
  0
SECTION
  2
TABLES
  0
TABLE
  2
LTYPE
 70
     1
  0
LTYPE
  2
CONTINUOUS
 70
     0
  3
Solid line
 72
    65
 73
     0
 40
0.0
  0
ENDTAB
  0
TABLE
  2
LAYER
 70
     2
  0
LAYER
  2
0
 70
     0
 62
     7
  6
CONTINUOUS
  0
LAYER
  2
LAYER_1
 70
     0
 62
     7
  6
CONTINUOUS
  0
ENDTAB
  0
TABLE
  2
STYLE
 70
     1
  0
STYLE
  2
STANDARD
 70
     0
 40
0.0
 41
1.0
 50
0.0
 71
     0
 42
0.2
  3
txt
  4

  0
ENDTAB
  0
TABLE
  2
VIEW
 70
     0
  0
ENDTAB
  0
ENDSEC
  0
SECTION
  2
BLOCKS
  0
ENDSEC
  0
SECTION
  2
ENTITIES
  0
POLYLINE
  8
LAYER_1
 62
   242
 66
     1
 70
     1
  0
VERTEX
  8
LAYER_1
 62
   242
 10
-16.2096
 20
-4.3013
  0
VERTEX
  8
LAYER_1
 62
   242
 10
-14.4117
 20
-4.5984
  0
VERTEX
  8
LAYER_1
 62
   242
 10
-13.7844
 20
-4.5914
  0
VERTEX
  8
LAYER_1
 62
   242
 10
-13.1385
 20
-4.438
  0
VERTEX
  8
LAYER_1
 62
   242
 10
-12.4761
 20
-4.1836
  0
VERTEX
  8
LAYER_1
 62
   242
 10
-11.7997
 20
-3.8737
  0
VERTEX
  8
LAYER_1
 62
   242
 10
-11.1113
 20
-3.5537
  0
VERTEX
  8
LAYER_1
 62
   242
 10
-10.4132
 20
-3.2688
  0
VERTEX
  8
LAYER_1
 62
   242
 10
-9.7077
 20
-3.0646
  0
VERTEX
  8
LAYER_1
 62
   242
 10
-8.997
 20
-2.9865
  0
VERTEX
  8
LAYER_1
 62
   242
 10
-8.4711
 20
-2.9865
  0
VERTEX
  8
LAYER_1
 62
   242
 10
-8.0277
 20
-3.0096
  0
VERTEX
  8
LAYER_1
 62
   242
 10
-7.5166
 20
-3.0734
  0
VERTEX
  8
LAYER_1
 62
   242
 10
-6.9658
 20
-3.1697
  0
VERTEX
  8
LAYER_1
 62
   242
 10
-6.4036
 20
-3.2903
  0
VERTEX
  8
LAYER_1
 62
   242
 10
-5.8579
 20
-3.4268
  0
VERTEX
  8
LAYER_1
 62
   242
 10
-5.357
 20
-3.5712
  0
VERTEX
  8
LAYER_1
 62
   242
 10
-4.9289
 20
-3.7152
  0
VERTEX
  8
LAYER_1
 62
   242
 10
-4.6018
 20
-3.8505
  0
VERTEX
  8
LAYER_1
 62
   242
 10
-4.6766
 20
-3.7405
  0
VERTEX
  8
LAYER_1
 62
   242
 10
-4.8427
 20
-3.5744
  0
VERTEX
  8
LAYER_1
 62
   242
 10
-5.0727
 20
-3.3714
  0
VERTEX
  8
LAYER_1
 62
   242
 10
-5.3396
 20
-3.1507
  0
VERTEX
  8
LAYER_1
 62
   242
 10
-5.875
 20
-2.733
  0
VERTEX
  8
LAYER_1
 62
   242
 10
-6.2316
 20
-2.475
  0
VERTEX
  8
LAYER_1
 62
   242
 10
-7.0491
 20
-2.0361
  0
VERTEX
  8
LAYER_1
 62
   242
 10
-7.8453
 20
-1.7853
  0
VERTEX
  8
LAYER_1
 62
   242
 10
-8.6224
 20
-1.7017
  0
VERTEX
  8
LAYER_1
 62
   242
 10
-9.3827
 20
-1.7644
  0
VERTEX
  8
LAYER_1
 62
   242
 10
-10.1286
 20
-1.9527
  0
VERTEX
  8
LAYER_1
 62
   242
 10
-10.8624
 20
-2.2455
  0
VERTEX
  8
LAYER_1
 62
   242
 10
-11.5863
 20
-2.6221
  0
VERTEX
  8
LAYER_1
 62
   242
 10
-12.3028
 20
-3.0616
  0
VERTEX
  8
LAYER_1
 62
   242
 10
-12.6917
 20
-3.3063
  0
VERTEX
  8
LAYER_1
 62
   242
 10
-13.1049
 20
-3.541
  0
VERTEX
  8
LAYER_1
 62
   242
 10
-13.3202
 20
-3.65
  0
VERTEX
  8
LAYER_1
 62
   242
 10
-13.5409
 20
-3.7509
  0
VERTEX
  8
LAYER_1
 62
   242
 10
-13.7669
 20
-3.8418
  0
VERTEX
  8
LAYER_1
 62
   242
 10
-13.998
 20
-3.9209
  0
VERTEX
  8
LAYER_1
 62
   242
 10
-14.4502
 20
-4.0126
  0
VERTEX
  8
LAYER_1
 62
   242
 10
-15.1939
 20
-4.1368
  0
VERTEX
  8
LAYER_1
 62
   242
 10
-15.8925
 20
-4.2481
  0
VERTEX
  8
LAYER_1
 62
   242
 10
-16.2096
 20
-4.3013
  0
SEQEND
  8
LAYER_1
 62
   242
  0
POLYLINE
  8
LAYER_1
 62
   242
 66
     1
 70
     1
  0
VERTEX
  8
LAYER_1
 62
   242
 10
-4.151
 20
-13.8431
  0
VERTEX
  8
LAYER_1
 62
   242
 10
-4.1846
 20
-14.3988
  0
VERTEX
  8
LAYER_1
 62
   242
 10
-4.2744
 20
-14.9036
  0
VERTEX
  8
LAYER_1
 62
   242
 10
-4.4035
 20
-15.3585
  0
VERTEX
  8
LAYER_1
 62
   242
 10
-4.5552
 20
-15.7647
  0
VERTEX
  8
LAYER_1
 62
   242
 10
-4.7127
 20
-16.1232
  0
VERTEX
  8
LAYER_1
 62
   242
 10
-4.8593
 20
-16.4351
  0
VERTEX
  8
LAYER_1
 62
   242
 10
-4.9782
 20
-16.7015
  0
VERTEX
  8
LAYER_1
 62
   242
 10
-5.0526
 20
-16.9235
  0
VERTEX
  8
LAYER_1
 62
   242
 10
-4.8404
 20
-16.7484
  0
VERTEX
  8
LAYER_1
 62
   242
 10
-4.6153
 20
-16.5059
  0
VERTEX
  8
LAYER_1
 62
   242
 10
-4.3863
 20
-16.2127
  0
VERTEX
  8
LAYER_1
 62
   242
 10
-4.1625
 20
-15.8854
  0
VERTEX
  8
LAYER_1
 62
   242
 10
-3.9529
 20
-15.5407
  0
VERTEX
  8
LAYER_1
 62
   242
 10
-3.7666
 20
-15.1953
  0
VERTEX
  8
LAYER_1
 62
   242
 10
-3.6127
 20
-14.8659
  0
VERTEX
  8
LAYER_1
 62
   242
 10
-3.5001
 20
-14.5691
  0
VERTEX
  8
LAYER_1
 62
   242
 10
-3.3903
 20
-14.1626
  0
VERTEX
  8
LAYER_1
 62
   242
 10
-3.313
 20
-13.7444
  0
VERTEX
  8
LAYER_1
 62
   242
 10
-3.2586
 20
-13.3174
  0
VERTEX
  8
LAYER_1
 62
   242
 10
-3.218
 20
-12.8848
  0
VERTEX
  8
LAYER_1
 62
   242
 10
-3.1817
 20
-12.4494
  0
VERTEX
  8
LAYER_1
 62
   242
 10
-3.1403
 20
-12.0144
  0
VERTEX
  8
LAYER_1
 62
   242
 10
-3.0844
 20
-11.5828
  0
VERTEX
  8
LAYER_1
 62
   242
 10
-3.0048
 20
-11.1575
  0
VERTEX
  8
LAYER_1
 62
   242
 10
-2.7296
 20
-10.3231
  0
VERTEX
  8
LAYER_1
 62
   242
 10
-2.3276
 20
-9.5735
  0
VERTEX
  8
LAYER_1
 62
   242
 10
-1.8416
 20
-8.9052
  0
VERTEX
  8
LAYER_1
 62
   242
 10
-1.3141
 20
-8.3151
  0
VERTEX
  8
LAYER_1
 62
   242
 10
-0.7878
 20
-7.7996
  0
VERTEX
  8
LAYER_1
 62
   242
 10
-0.3055
 20
-7.3555
  0
VERTEX
  8
LAYER_1
 62
   242
 10
0.0903
 20
-6.9794
  0
VERTEX
  8
LAYER_1
 62
   242
 10
0.3568
 20
-6.6679
  0
VERTEX
  8
LAYER_1
 62
   242
 10
0.1829
 20
-6.7038
  0
VERTEX
  8
LAYER_1
 62
   242
 10
-0.074
 20
-6.7827
  0
VERTEX
  8
LAYER_1
 62
   242
 10
-0.3854
 20
-6.8924
  0
VERTEX
  8
LAYER_1
 62
   242
 10
-0.7231
 20
-7.0206
  0
VERTEX
  8
LAYER_1
 62
   242
 10
-1.3636
 20
-7.2835
  0
VERTEX
  8
LAYER_1
 62
   242
 10
-1.7684
 20
-7.4729
  0
VERTEX
  8
LAYER_1
 62
   242
 10
-2.0231
 20
-7.6212
  0
VERTEX
  8
LAYER_1
 62
   242
 10
-2.254
 20
-7.7653
  0
VERTEX
  8
LAYER_1
 62
   242
 10
-2.4647
 20
-7.9109
  0
VERTEX
  8
LAYER_1
 62
   242
 10
-2.659
 20
-8.0637
  0
VERTEX
  8
LAYER_1
 62
   242
 10
-2.8407
 20
-8.2294
  0
VERTEX
  8
LAYER_1
 62
   242
 10
-3.0137
 20
-8.4137
  0
VERTEX
  8
LAYER_1
 62
   242
 10
-3.1816
 20
-8.6223
  0
VERTEX
  8
LAYER_1
 62
   242
 10
-3.3482
 20
-8.8608
  0
VERTEX
  8
LAYER_1
 62
   242
 10
-3.6809
 20
-9.4366
  0
VERTEX
  8
LAYER_1
 62
   242
 10
-3.9118
 20
-9.9867
  0
VERTEX
  8
LAYER_1
 62
   242
 10
-4.0587
 20
-10.5306
  0
VERTEX
  8
LAYER_1
 62
   242
 10
-4.1391
 20
-11.088
  0
VERTEX
  8
LAYER_1
 62
   242
 10
-4.1709
 20
-11.6783
  0
VERTEX
  8
LAYER_1
 62
   242
 10
-4.1716
 20
-12.3212
  0
VERTEX
  8
LAYER_1
 62
   242
 10
-4.1591
 20
-13.0363
  0
VERTEX
  8
LAYER_1
 62
   242
 10
-4.151
 20
-13.8431
  0
SEQEND
  8
LAYER_1
 62
   242
  0
POLYLINE
  8
LAYER_1
 62
   242
 66
     1
 70
     1
  0
VERTEX
  8
LAYER_1
 62
   242
 10
-5.0964
 20
-16.9548
  0
VERTEX
  8
LAYER_1
 62
   242
 10
-5.0463
 20
-16.9297
  0
VERTEX
  8
LAYER_1
 62
   242
 10
-5.0964
 20
-16.9548
  0
SEQEND
  8
LAYER_1
 62
   242
  0
POLYLINE
  8
LAYER_1
 62
   242
 66
     1
 70
     1
  0
VERTEX
  8
LAYER_1
 62
   242
 10
-0.6198
 20
5.8414
  0
VERTEX
  8
LAYER_1
 62
   242
 10
-0.0865
 20
5.9856
  0
VERTEX
  8
LAYER_1
 62
   242
 10
0.4543
 20
6.1717
  0
VERTEX
  8
LAYER_1
 62
   242
 10
0.9889
 20
6.3974
  0
VERTEX
  8
LAYER_1
 62
   242
 10
1.5033
 20
6.6604
  0
VERTEX
  8
LAYER_1
 62
   242
 10
1.9838
 20
6.9581
  0
VERTEX
  8
LAYER_1
 62
   242
 10
2.4165
 20
7.2883
  0
VERTEX
  8
LAYER_1
 62
   242
 10
2.7875
 20
7.6485
  0
VERTEX
  8
LAYER_1
 62
   242
 10
3.0831
 20
8.0363
  0
VERTEX
  8
LAYER_1
 62
   242
 10
3.5502
 20
8.9356
  0
VERTEX
  8
LAYER_1
 62
   242
 10
3.8052
 20
9.7715
  0
VERTEX
  8
LAYER_1
 62
   242
 10
3.907
 20
10.5658
  0
VERTEX
  8
LAYER_1
 62
   242
 10
3.9146
 20
11.3403
  0
VERTEX
  8
LAYER_1
 62
   242
 10
3.887
 20
12.1166
  0
VERTEX
  8
LAYER_1
 62
   242
 10
3.8833
 20
12.9167
  0
VERTEX
  8
LAYER_1
 62
   242
 10
3.9624
 20
13.7622
  0
VERTEX
  8
LAYER_1
 62
   242
 10
4.1832
 20
14.6749
  0
VERTEX
  8
LAYER_1
 62
   242
 10
4.3293
 20
15.0426
  0
VERTEX
  8
LAYER_1
 62
   242
 10
4.5146
 20
15.44
  0
VERTEX
  8
LAYER_1
 62
   242
 10
4.6857
 20
15.8103
  0
VERTEX
  8
LAYER_1
 62
   242
 10
4.7896
 20
16.0969
  0
VERTEX
  8
LAYER_1
 62
   242
 10
4.5783
 20
15.9228
  0
VERTEX
  8
LAYER_1
 62
   242
 10
4.3524
 20
15.6808
  0
VERTEX
  8
LAYER_1
 62
   242
 10
4.1216
 20
15.3875
  0
VERTEX
  8
LAYER_1
 62
   242
 10
3.8957
 20
15.0599
  0
VERTEX
  8
LAYER_1
 62
   242
 10
3.6844
 20
14.7149
  0
VERTEX
  8
LAYER_1
 62
   242
 10
3.4976
 20
14.3692
  0
VERTEX
  8
LAYER_1
 62
   242
 10
3.345
 20
14.0397
  0
VERTEX
  8
LAYER_1
 62
   242
 10
3.2364
 20
13.7432
  0
VERTEX
  8
LAYER_1
 62
   242
 10
3.1307
 20
13.3306
  0
VERTEX
  8
LAYER_1
 62
   242
 10
3.0553
 20
12.9097
  0
VERTEX
  8
LAYER_1
 62
   242
 10
3.0014
 20
12.4828
  0
VERTEX
  8
LAYER_1
 62
   242
 10
2.9601
 20
12.0519
  0
VERTEX
  8
LAYER_1
 62
   242
 10
2.9223
 20
11.6191
  0
VERTEX
  8
LAYER_1
 62
   242
 10
2.8793
 20
11.1867
  0
VERTEX
  8
LAYER_1
 62
   242
 10
2.822
 20
10.7567
  0
VERTEX
  8
LAYER_1
 62
   242
 10
2.7416
 20
10.3312
  0
VERTEX
  8
LAYER_1
 62
   242
 10
2.4682
 20
9.5043
  0
VERTEX
  8
LAYER_1
 62
   242
 10
2.0668
 20
8.7576
  0
VERTEX
  8
LAYER_1
 62
   242
 10
1.5803
 20
8.089
  0
VERTEX
  8
LAYER_1
 62
   242
 10
1.0519
 20
7.4963
  0
VERTEX
  8
LAYER_1
 62
   242
 10
0.5247
 20
6.9774
  0
VERTEX
  8
LAYER_1
 62
   242
 10
0.0416
 20
6.53
  0
VERTEX
  8
LAYER_1
 62
   242
 10
-0.3543
 20
6.1521
  0
VERTEX
  8
LAYER_1
 62
   242
 10
-0.6198
 20
5.8414
  0
SEQEND
  8
LAYER_1
 62
   242
  0
POLYLINE
  8
LAYER_1
 62
   242
 66
     1
 70
     1
  0
VERTEX
  8
LAYER_1
 62
   242
 10
9.0721
 20
2.16
  0
VERTEX
  8
LAYER_1
 62
   242
 10
8.2193
 20
2.1947
  0
VERTEX
  8
LAYER_1
 62
   242
 10
7.481
 20
2.2867
  0
VERTEX
  8
LAYER_1
 62
   242
 10
6.8459
 20
2.4178
  0
VERTEX
  8
LAYER_1
 62
   242
 10
6.3029
 20
2.5698
  0
VERTEX
  8
LAYER_1
 62
   242
 10
5.8408
 20
2.7247
  0
VERTEX
  8
LAYER_1
 62
   242
 10
5.4483
 20
2.8641
  0
VERTEX
  8
LAYER_1
 62
   242
 10
5.1141
 20
2.97
  0
VERTEX
  8
LAYER_1
 62
   242
 10
4.8272
 20
3.0242
  0
VERTEX
  8
LAYER_1
 62
   242
 10
4.8986
 20
2.9217
  0
VERTEX
  8
LAYER_1
 62
   242
 10
5.0585
 20
2.7635
  0
VERTEX
  8
LAYER_1
 62
   242
 10
5.2805
 20
2.5686
  0
VERTEX
  8
LAYER_1
 62
   242
 10
5.5381
 20
2.3556
  0
VERTEX
  8
LAYER_1
 62
   242
 10
6.0539
 20
1.9504
  0
VERTEX
  8
LAYER_1
 62
   242
 10
6.394
 20
1.6982
  0
VERTEX
  8
LAYER_1
 62
   242
 10
6.718
 20
1.4852
  0
VERTEX
  8
LAYER_1
 62
   242
 10
7.0202
 20
1.3128
  0
VERTEX
  8
LAYER_1
 62
   242
 10
7.3116
 20
1.1772
  0
VERTEX
  8
LAYER_1
 62
   242
 10
7.6033
 20
1.0747
  0
VERTEX
  8
LAYER_1
 62
   242
 10
7.9066
 20
1.0016
  0
VERTEX
  8
LAYER_1
 62
   242
 10
8.2326
 20
0.954
  0
VERTEX
  8
LAYER_1
 62
   242
 10
8.5923
 20
0.9282
  0
VERTEX
  8
LAYER_1
 62
   242
 10
8.997
 20
0.9204
  0
VERTEX
  8
LAYER_1
 62
   242
 10
10.0225
 20
1.0285
  0
VERTEX
  8
LAYER_1
 62
   242
 10
10.8938
 20
1.3137
  0
VERTEX
  8
LAYER_1
 62
   242
 10
11.6743
 20
1.7167
  0
VERTEX
  8
LAYER_1
 62
   242
 10
12.4275
 20
2.1788
  0
VERTEX
  8
LAYER_1
 62
   242
 10
13.2167
 20
2.6409
  0
VERTEX
  8
LAYER_1
 62
   242
 10
14.1054
 20
3.044
  0
VERTEX
  8
LAYER_1
 62
   242
 10
15.157
 20
3.3291
  0
VERTEX
  8
LAYER_1
 62
   242
 10
16.435
 20
3.4372
  0
VERTEX
  8
LAYER_1
 62
   242
 10
14.707
 20
3.7378
  0
VERTEX
  8
LAYER_1
 62
   242
 10
13.8036
 20
3.67
  0
VERTEX
  8
LAYER_1
 62
   242
 10
13.0403
 20
3.4913
  0
VERTEX
  8
LAYER_1
 62
   242
 10
12.3755
 20
3.2386
  0
VERTEX
  8
LAYER_1
 62
   242
 10
11.7675
 20
2.9489
  0
VERTEX
  8
LAYER_1
 62
   242
 10
11.1748
 20
2.6592
  0
VERTEX
  8
LAYER_1
 62
   242
 10
10.5557
 20
2.4065
  0
VERTEX
  8
LAYER_1
 62
   242
 10
9.8687
 20
2.2278
  0
VERTEX
  8
LAYER_1
 62
   242
 10
9.0721
 20
2.16
  0
SEQEND
  8
LAYER_1
 62
   242
  0
POLYLINE
  8
LAYER_1
 62
   242
 66
     1
 70
     1
  0
VERTEX
  8
LAYER_1
 62
   242
 10
-5.879
 20
2.7987
  0
VERTEX
  8
LAYER_1
 62
   242
 10
-5.7592
 20
3.0013
  0
VERTEX
  8
LAYER_1
 62
   242
 10
-5.6654
 20
3.3794
  0
VERTEX
  8
LAYER_1
 62
   242
 10
-5.5971
 20
3.8806
  0
VERTEX
  8
LAYER_1
 62
   242
 10
-5.554
 20
4.4523
  0
VERTEX
  8
LAYER_1
 62
   242
 10
-5.5358
 20
5.042
  0
VERTEX
  8
LAYER_1
 62
   242
 10
-5.5421
 20
5.5972
  0
VERTEX
  8
LAYER_1
 62
   242
 10
-5.5726
 20
6.0654
  0
VERTEX
  8
LAYER_1
 62
   242
 10
-5.627
 20
6.394
  0
VERTEX
  8
LAYER_1
 62
   242
 10
-5.7511
 20
6.7572
  0
VERTEX
  8
LAYER_1
 62
   242
 10
-5.9171
 20
7.1109
  0
VERTEX
  8
LAYER_1
 62
   242
 10
-6.1175
 20
7.4521
  0
VERTEX
  8
LAYER_1
 62
   242
 10
-6.3449
 20
7.7774
  0
VERTEX
  8
LAYER_1
 62
   242
 10
-6.5918
 20
8.0835
  0
VERTEX
  8
LAYER_1
 62
   242
 10
-6.8506
 20
8.3672
  0
VERTEX
  8
LAYER_1
 62
   242
 10
-7.1138
 20
8.6253
  0
VERTEX
  8
LAYER_1
 62
   242
 10
-7.3741
 20
8.8544
  0
VERTEX
  8
LAYER_1
 62
   242
 10
-7.6819
 20
9.0874
  0
VERTEX
  8
LAYER_1
 62
   242
 10
-8.0056
 20
9.294
  0
VERTEX
  8
LAYER_1
 62
   242
 10
-8.3406
 20
9.4821
  0
VERTEX
  8
LAYER_1
 62
   242
 10
-8.6823
 20
9.6591
  0
VERTEX
  8
LAYER_1
 62
   242
 10
-9.0263
 20
9.8327
  0
VERTEX
  8
LAYER_1
 62
   242
 10
-9.3679
 20
10.0106
  0
VERTEX
  8
LAYER_1
 62
   242
 10
-9.7027
 20
10.2004
  0
VERTEX
  8
LAYER_1
 62
   242
 10
-10.0261
 20
10.4097
  0
VERTEX
  8
LAYER_1
 62
   242
 10
-10.3336
 20
10.6353
  0
VERTEX
  8
LAYER_1
 62
   242
 10
-10.6211
 20
10.8708
  0
VERTEX
  8
LAYER_1
 62
   242
 10
-10.8901
 20
11.1225
  0
VERTEX
  8
LAYER_1
 62
   242
 10
-11.1423
 20
11.397
  0
VERTEX
  8
LAYER_1
 62
   242
 10
-12.0398
 20
12.6034
  0
VERTEX
  8
LAYER_1
 62
   242
 10
-11.9812
 20
12.2811
  0
VERTEX
  8
LAYER_1
 62
   242
 10
-11.864
 20
11.9224
  0
VERTEX
  8
LAYER_1
 62
   242
 10
-11.7016
 20
11.5448
  0
VERTEX
  8
LAYER_1
 62
   242
 10
-11.5073
 20
11.1656
  0
VERTEX
  8
LAYER_1
 62
   242
 10
-11.2944
 20
10.8023
  0
VERTEX
  8
LAYER_1
 62
   242
 10
-11.0765
 20
10.4725
  0
VERTEX
  8
LAYER_1
 62
   242
 10
-10.8667
 20
10.1934
  0
VERTEX
  8
LAYER_1
 62
   242
 10
-10.6785
 20
9.9826
  0
VERTEX
  8
LAYER_1
 62
   242
 10
-10.3963
 20
9.7181
  0
VERTEX
  8
LAYER_1
 62
   242
 10
-10.1198
 20
9.4841
  0
VERTEX
  8
LAYER_1
 62
   242
 10
-9.8463
 20
9.2722
  0
VERTEX
  8
LAYER_1
 62
   242
 10
-9.5731
 20
9.0739
  0
VERTEX
  8
LAYER_1
 62
   242
 10
-9.0168
 20
8.685
  0
VERTEX
  8
LAYER_1
 62
   242
 10
-8.429
 20
8.2503
  0
VERTEX
  8
LAYER_1
 62
   242
 10
-7.8639
 20
7.7374
  0
VERTEX
  8
LAYER_1
 62
   242
 10
-7.4056
 20
7.1793
  0
VERTEX
  8
LAYER_1
 62
   242
 10
-7.0357
 20
6.5743
  0
VERTEX
  8
LAYER_1
 62
   242
 10
-6.7363
 20
5.9212
  0
VERTEX
  8
LAYER_1
 62
   242
 10
-6.489
 20
5.2185
  0
VERTEX
  8
LAYER_1
 62
   242
 10
-6.2758
 20
4.4648
  0
VERTEX
  8
LAYER_1
 62
   242
 10
-6.0786
 20
3.6586
  0
VERTEX
  8
LAYER_1
 62
   242
 10
-5.879
 20
2.7987
  0
SEQEND
  8
LAYER_1
 62
   242
  0
POLYLINE
  8
LAYER_1
 62
   242
 66
     1
 70
     1
  0
VERTEX
  8
LAYER_1
 62
   242
 10
9.0713
 20
-11.049
  0
VERTEX
  8
LAYER_1
 62
   242
 10
9.5142
 20
-11.3862
  0
VERTEX
  8
LAYER_1
 62
   242
 10
9.8837
 20
-11.7417
  0
VERTEX
  8
LAYER_1
 62
   242
 10
10.1898
 20
-12.1022
  0
VERTEX
  8
LAYER_1
 62
   242
 10
10.4428
 20
-12.4543
  0
VERTEX
  8
LAYER_1
 62
   242
 10
10.8306
 20
-13.0801
  0
VERTEX
  8
LAYER_1
 62
   242
 10
11.1287
 20
-13.5125
  0
VERTEX
  8
LAYER_1
 62
   242
 10
11.1014
 20
-13.2388
  0
VERTEX
  8
LAYER_1
 62
   242
 10
11.0253
 20
-12.9169
  0
VERTEX
  8
LAYER_1
 62
   242
 10
10.9091
 20
-12.5634
  0
VERTEX
  8
LAYER_1
 62
   242
 10
10.7617
 20
-12.1953
  0
VERTEX
  8
LAYER_1
 62
   242
 10
10.592
 20
-11.8294
  0
VERTEX
  8
LAYER_1
 62
   242
 10
10.4087
 20
-11.4823
  0
VERTEX
  8
LAYER_1
 62
   242
 10
10.2206
 20
-11.171
  0
VERTEX
  8
LAYER_1
 62
   242
 10
10.0367
 20
-10.9123
  0
VERTEX
  8
LAYER_1
 62
   242
 10
9.7601
 20
-10.5949
  0
VERTEX
  8
LAYER_1
 62
   242
 10
9.4557
 20
-10.2979
  0
VERTEX
  8
LAYER_1
 62
   242
 10
9.1312
 20
-10.0151
  0
VERTEX
  8
LAYER_1
 62
   242
 10
8.7944
 20
-9.7406
  0
VERTEX
  8
LAYER_1
 62
   242
 10
8.453
 20
-9.4681
  0
VERTEX
  8
LAYER_1
 62
   242
 10
8.1146
 20
-9.1917
  0
VERTEX
  8
LAYER_1
 62
   242
 10
7.7871
 20
-8.9051
  0
VERTEX
  8
LAYER_1
 62
   242
 10
7.4781
 20
-8.6022
  0
VERTEX
  8
LAYER_1
 62
   242
 10
6.938
 20
-7.9091
  0
VERTEX
  8
LAYER_1
 62
   242
 10
6.5389
 20
-7.1579
  0
VERTEX
  8
LAYER_1
 62
   242
 10
6.2542
 20
-6.3822
  0
VERTEX
  8
LAYER_1
 62
   242
 10
6.0574
 20
-5.6155
  0
VERTEX
  8
LAYER_1
 62
   242
 10
5.9221
 20
-4.8914
  0
VERTEX
  8
LAYER_1
 62
   242
 10
5.8216
 20
-4.2435
  0
VERTEX
  8
LAYER_1
 62
   242
 10
5.7293
 20
-3.7054
  0
VERTEX
  8
LAYER_1
 62
   242
 10
5.6189
 20
-3.3106
  0
VERTEX
  8
LAYER_1
 62
   242
 10
5.5519
 20
-3.475
  0
VERTEX
  8
LAYER_1
 62
   242
 10
5.4745
 20
-3.7324
  0
VERTEX
  8
LAYER_1
 62
   242
 10
5.3923
 20
-4.0522
  0
VERTEX
  8
LAYER_1
 62
   242
 10
5.3109
 20
-4.4041
  0
VERTEX
  8
LAYER_1
 62
   242
 10
5.1728
 20
-5.0825
  0
VERTEX
  8
LAYER_1
 62
   242
 10
5.1049
 20
-5.5243
  0
VERTEX
  8
LAYER_1
 62
   242
 10
5.0863
 20
-5.8184
  0
VERTEX
  8
LAYER_1
 62
   242
 10
5.0775
 20
-6.0904
  0
VERTEX
  8
LAYER_1
 62
   242
 10
5.0813
 20
-6.3465
  0
VERTEX
  8
LAYER_1
 62
   242
 10
5.1001
 20
-6.593
  0
VERTEX
  8
LAYER_1
 62
   242
 10
5.1366
 20
-6.8363
  0
VERTEX
  8
LAYER_1
 62
   242
 10
5.1935
 20
-7.0825
  0
VERTEX
  8
LAYER_1
 62
   242
 10
5.2733
 20
-7.3381
  0
VERTEX
  8
LAYER_1
 62
   242
 10
5.3788
 20
-7.6092
  0
VERTEX
  8
LAYER_1
 62
   242
 10
5.672
 20
-8.2062
  0
VERTEX
  8
LAYER_1
 62
   242
 10
6.0005
 20
-8.7042
  0
VERTEX
  8
LAYER_1
 62
   242
 10
6.3706
 20
-9.1289
  0
VERTEX
  8
LAYER_1
 62
   242
 10
6.7889
 20
-9.5059
  0
VERTEX
  8
LAYER_1
 62
   242
 10
7.2617
 20
-9.8608
  0
VERTEX
  8
LAYER_1
 62
   242
 10
7.7954
 20
-10.2192
  0
VERTEX
  8
LAYER_1
 62
   242
 10
8.3965
 20
-10.6067
  0
VERTEX
  8
LAYER_1
 62
   242
 10
9.0713
 20
-11.049
  0
SEQEND
  8
LAYER_1
 62
   242
  0
POLYLINE
  8
LAYER_1
 62
   242
 66
     1
 70
     1
  0
VERTEX
  8
LAYER_1
 62
   242
 10
11.1304
 20
-13.5663
  0
VERTEX
  8
LAYER_1
 62
   242
 10
11.1375
 20
-13.5107
  0
VERTEX
  8
LAYER_1
 62
   242
 10
11.1304
 20
-13.5663
  0
SEQEND
  8
LAYER_1
 62
   242
  0
ENDSEC
  0
EOF
