  0
SECTION
  2
HEADER
  9
$ACADVER
  1
AC1002
  9
$INSBASE
 10
0.0
 20
0.0
  9
$EXTMIN
 10
-25.0449
 20
-22.3825
  9
$EXTMAX
 10
25.0447
 20
22.3825
  9
$LIMMIN
 10
0.0
 20
0.0
  9
$LIMMAX
 10
12.0
 20
9.0
  9
$ORTHOMODE
 70
     0
  9
$REGENMODE
 70
     1
  9
$FILLMODE
 70
     1
  9
$QTEXTMODE
 70
     0
  9
$DRAGMODE
 70
     2
  9
$LTSCALE
 40
1.0
  9
$OSMODE
 70
    37
  9
$ATTMODE
 70
     1
  9
$TEXTSIZE
 40
0.2
  9
$TRACEWID
 40
0.05
  9
$TEXTSTYLE
  7
STANDARD
  9
$CLAYER
  8
0
  9
$CELTYPE
  6
BYLAYER
  9
$CECOLOR
 62
   256
  9
$DIMSCALE
 40
1.0
  9
$DIMASZ
 40
0.18
  9
$DIMEXO
 40
0.0625
  9
$DIMDLI
 40
0.38
  9
$DIMRND
 40
0.0
  9
$DIMDLE
 40
0.0
  9
$DIMEXE
 40
0.18
  9
$DIMTP
 40
0.0
  9
$DIMTM
 40
0.0
  9
$DIMTXT
 40
0.18
  9
$DIMCEN
 40
0.09
  9
$DIMTSZ
 40
0.0
  9
$DIMTOL
 70
     0
  9
$DIMLIM
 70
     0
  9
$DIMTIH
 70
     1
  9
$DIMTOH
 70
     1
  9
$DIMSE1
 70
     0
  9
$DIMSE2
 70
     0
  9
$DIMTAD
 70
     0
  9
$DIMZIN
 70
     0
  9
$DIMBLK
  1

  9
$LUNITS
 70
     2
  9
$LUPREC
 70
     4
  9
$SKETCHINC
 40
0.1
  9
$FILLETRAD
 40
0.5
  9
$AUNITS
 70
     0
  9
$AUPREC
 70
     0
  9
$MENU
  1
.
  9
$ELEVATION
 40
0.0
  9
$THICKNESS
 40
0.0
  9
$LIMCHECK
 70
     0
  9
$CHAMFERA
 40
0.0
  9
$CHAMFERB
 40
0.0
  9
$SKPOLY
 70
     0
  9
$TDCREATE
 40
2457112.789832002
  9
$TDUPDATE
 40
2457112.789832025
  9
$TDINDWG
 40
0.0000000116
  9
$TDUSRTIMER
 40
0.0000000116
  9
$USRTIMER
 70
     1
  9
$ANGBASE
 50
0.0
  9
$ANGDIR
 70
     0
  9
$PDMODE
 70
     0
  9
$PDSIZE
 40
0.0
  9
$PLINEWID
 40
0.0
  9
$COORDS
 70
     1
  9
$SURFTAB1
 70
     6
  9
$SURFTAB2
 70
     6
  9
$SURFTYPE
 70
     6
  9
$SURFU
 70
     6
  9
$SURFV
 70
     6
  9
$UCSNAME
  2

  9
$UCSORG
 10
0.0
 20
0.0
 30
0.0
  9
$UCSXDIR
 10
1.0
 20
0.0
 30
0.0
  9
$UCSYDIR
 10
0.0
 20
1.0
 30
0.0
  9
$USERI1
 70
     0
  9
$USERI2
 70
     0
  9
$USERI3
 70
     0
  9
$USERI4
 70
     0
  9
$USERI5
 70
     0
  9
$USERR1
 40
0.0
  9
$USERR2
 40
0.0
  9
$USERR3
 40
0.0
  9
$USERR4
 40
0.0
  9
$USERR5
 40
0.0
  0
ENDSEC
  0
SECTION
  2
TABLES
  0
TABLE
  2
LTYPE
 70
     1
  0
LTYPE
  2
CONTINUOUS
 70
     0
  3
Solid line
 72
    65
 73
     0
 40
0.0
  0
ENDTAB
  0
TABLE
  2
LAYER
 70
     2
  0
LAYER
  2
0
 70
     0
 62
     7
  6
CONTINUOUS
  0
LAYER
  2
LAYER_1
 70
     0
 62
     7
  6
CONTINUOUS
  0
ENDTAB
  0
TABLE
  2
STYLE
 70
     1
  0
STYLE
  2
STANDARD
 70
     0
 40
0.0
 41
1.0
 50
0.0
 71
     0
 42
0.2
  3
txt
  4

  0
ENDTAB
  0
TABLE
  2
VIEW
 70
     0
  0
ENDTAB
  0
ENDSEC
  0
SECTION
  2
BLOCKS
  0
ENDSEC
  0
SECTION
  2
ENTITIES
  0
POLYLINE
  8
LAYER_1
 66
     1
 70
     1
  0
VERTEX
  8
LAYER_1
 10
0.8475
 20
-5.3843
  0
VERTEX
  8
LAYER_1
 10
0.8549
 20
-5.3808
  0
VERTEX
  8
LAYER_1
 10
0.7809
 20
-5.3011
  0
VERTEX
  8
LAYER_1
 10
0.544
 20
-5.1179
  0
VERTEX
  8
LAYER_1
 10
0.1682
 20
-4.8661
  0
VERTEX
  8
LAYER_1
 10
-0.3224
 20
-4.5811
  0
VERTEX
  8
LAYER_1
 10
-0.904
 20
-4.2978
  0
VERTEX
  8
LAYER_1
 10
-1.5525
 20
-4.0515
  0
VERTEX
  8
LAYER_1
 10
-2.2439
 20
-3.8773
  0
VERTEX
  8
LAYER_1
 10
-2.9543
 20
-3.8104
  0
VERTEX
  8
LAYER_1
 10
-4.0297
 20
-3.9944
  0
VERTEX
  8
LAYER_1
 10
-5.1585
 20
-4.4782
  0
VERTEX
  8
LAYER_1
 10
-6.3494
 20
-5.1525
  0
VERTEX
  8
LAYER_1
 10
-7.611
 20
-5.9082
  0
VERTEX
  8
LAYER_1
 10
-8.9521
 20
-6.6359
  0
VERTEX
  8
LAYER_1
 10
-10.3814
 20
-7.2266
  0
VERTEX
  8
LAYER_1
 10
-11.9075
 20
-7.5709
  0
VERTEX
  8
LAYER_1
 10
-13.5393
 20
-7.5597
  0
VERTEX
  8
LAYER_1
 10
-14.7769
 20
-7.3351
  0
VERTEX
  8
LAYER_1
 10
-16.0924
 20
-6.9843
  0
VERTEX
  8
LAYER_1
 10
-17.4434
 20
-6.5176
  0
VERTEX
  8
LAYER_1
 10
-18.7875
 20
-5.9451
  0
VERTEX
  8
LAYER_1
 10
-20.0821
 20
-5.2769
  0
VERTEX
  8
LAYER_1
 10
-21.2848
 20
-4.5231
  0
VERTEX
  8
LAYER_1
 10
-22.3531
 20
-3.6938
  0
VERTEX
  8
LAYER_1
 10
-23.2447
 20
-2.7993
  0
VERTEX
  8
LAYER_1
 10
-22.3785
 20
-2.8252
  0
VERTEX
  8
LAYER_1
 10
-21.5918
 20
-2.6927
  0
VERTEX
  8
LAYER_1
 10
-20.8656
 20
-2.4335
  0
VERTEX
  8
LAYER_1
 10
-20.1806
 20
-2.0792
  0
VERTEX
  8
LAYER_1
 10
-19.5178
 20
-1.6615
  0
VERTEX
  8
LAYER_1
 10
-18.8581
 20
-1.212
  0
VERTEX
  8
LAYER_1
 10
-18.1823
 20
-0.7623
  0
VERTEX
  8
LAYER_1
 10
-17.4712
 20
-0.3441
  0
VERTEX
  8
LAYER_1
 10
-16.6829
 20
0.0548
  0
VERTEX
  8
LAYER_1
 10
-15.8929
 20
0.4088
  0
VERTEX
  8
LAYER_1
 10
-15.0972
 20
0.7152
  0
VERTEX
  8
LAYER_1
 10
-14.2915
 20
0.9716
  0
VERTEX
  8
LAYER_1
 10
-13.4715
 20
1.1753
  0
VERTEX
  8
LAYER_1
 10
-12.633
 20
1.324
  0
VERTEX
  8
LAYER_1
 10
-11.7719
 20
1.4151
  0
VERTEX
  8
LAYER_1
 10
-10.8838
 20
1.446
  0
VERTEX
  8
LAYER_1
 10
-9.6042
 20
1.3808
  0
VERTEX
  8
LAYER_1
 10
-8.4127
 20
1.1762
  0
VERTEX
  8
LAYER_1
 10
-7.3305
 20
0.8185
  0
VERTEX
  8
LAYER_1
 10
-6.3791
 20
0.2944
  0
VERTEX
  8
LAYER_1
 10
-5.5798
 20
-0.4099
  0
VERTEX
  8
LAYER_1
 10
-4.9539
 20
-1.3077
  0
VERTEX
  8
LAYER_1
 10
-4.5227
 20
-2.4128
  0
VERTEX
  8
LAYER_1
 10
-4.3076
 20
-3.7386
  0
VERTEX
  8
LAYER_1
 10
-4.2183
 20
-3.508
  0
VERTEX
  8
LAYER_1
 10
-4.1755
 20
-3.1408
  0
VERTEX
  8
LAYER_1
 10
-4.1713
 20
-2.6796
  0
VERTEX
  8
LAYER_1
 10
-4.1976
 20
-2.167
  0
VERTEX
  8
LAYER_1
 10
-4.2462
 20
-1.6458
  0
VERTEX
  8
LAYER_1
 10
-4.3091
 20
-1.1586
  0
VERTEX
  8
LAYER_1
 10
-4.3782
 20
-0.7482
  0
VERTEX
  8
LAYER_1
 10
-4.4454
 20
-0.4571
  0
VERTEX
  8
LAYER_1
 10
-4.558
 20
-0.12
  0
VERTEX
  8
LAYER_1
 10
-4.6903
 20
0.1894
  0
VERTEX
  8
LAYER_1
 10
-4.8441
 20
0.4744
  0
VERTEX
  8
LAYER_1
 10
-5.0206
 20
0.7384
  0
VERTEX
  8
LAYER_1
 10
-5.2213
 20
0.9845
  0
VERTEX
  8
LAYER_1
 10
-5.4478
 20
1.2161
  0
VERTEX
  8
LAYER_1
 10
-5.7015
 20
1.4365
  0
VERTEX
  8
LAYER_1
 10
-5.9839
 20
1.649
  0
VERTEX
  8
LAYER_1
 10
-7.1481
 20
2.4002
  0
VERTEX
  8
LAYER_1
 10
-8.2967
 20
3.0537
  0
VERTEX
  8
LAYER_1
 10
-9.4087
 20
3.6744
  0
VERTEX
  8
LAYER_1
 10
-10.4636
 20
4.3271
  0
VERTEX
  8
LAYER_1
 10
-11.4406
 20
5.0765
  0
VERTEX
  8
LAYER_1
 10
-12.3189
 20
5.9873
  0
VERTEX
  8
LAYER_1
 10
-13.0778
 20
7.1244
  0
VERTEX
  8
LAYER_1
 10
-13.6966
 20
8.5525
  0
VERTEX
  8
LAYER_1
 10
-13.9446
 20
9.349
  0
VERTEX
  8
LAYER_1
 10
-14.1489
 20
10.1445
  0
VERTEX
  8
LAYER_1
 10
-14.3127
 20
10.941
  0
VERTEX
  8
LAYER_1
 10
-14.4394
 20
11.7406
  0
VERTEX
  8
LAYER_1
 10
-14.5323
 20
12.5453
  0
VERTEX
  8
LAYER_1
 10
-14.5945
 20
13.3572
  0
VERTEX
  8
LAYER_1
 10
-14.6295
 20
14.1783
  0
VERTEX
  8
LAYER_1
 10
-14.6404
 20
15.0107
  0
VERTEX
  8
LAYER_1
 10
-14.6334
 20
15.4959
  0
VERTEX
  8
LAYER_1
 10
-14.6119
 20
15.9422
  0
VERTEX
  8
LAYER_1
 10
-14.5748
 20
16.3617
  0
VERTEX
  8
LAYER_1
 10
-14.5213
 20
16.7664
  0
VERTEX
  8
LAYER_1
 10
-14.4503
 20
17.1681
  0
VERTEX
  8
LAYER_1
 10
-14.3609
 20
17.579
  0
VERTEX
  8
LAYER_1
 10
-14.2522
 20
18.011
  0
VERTEX
  8
LAYER_1
 10
-14.1231
 20
18.4761
  0
VERTEX
  8
LAYER_1
 10
-14.0206
 20
18.3125
  0
VERTEX
  8
LAYER_1
 10
-13.7428
 20
17.8144
  0
VERTEX
  8
LAYER_1
 10
-13.5146
 20
17.4878
  0
VERTEX
  8
LAYER_1
 10
-13.2143
 20
17.1349
  0
VERTEX
  8
LAYER_1
 10
-12.8326
 20
16.7749
  0
VERTEX
  8
LAYER_1
 10
-12.36
 20
16.4268
  0
VERTEX
  8
LAYER_1
 10
-12.0723
 20
16.2542
  0
VERTEX
  8
LAYER_1
 10
-11.7645
 20
16.0901
  0
VERTEX
  8
LAYER_1
 10
-11.4423
 20
15.9319
  0
VERTEX
  8
LAYER_1
 10
-11.1111
 20
15.7773
  0
VERTEX
  8
LAYER_1
 10
-10.4442
 20
15.4691
  0
VERTEX
  8
LAYER_1
 10
-9.8087
 20
15.1457
  0
VERTEX
  8
LAYER_1
 10
-9.187
 20
14.7862
  0
VERTEX
  8
LAYER_1
 10
-8.6042
 20
14.4211
  0
VERTEX
  8
LAYER_1
 10
-8.0537
 20
14.0444
  0
VERTEX
  8
LAYER_1
 10
-7.5288
 20
13.6499
  0
VERTEX
  8
LAYER_1
 10
-7.0231
 20
13.2316
  0
VERTEX
  8
LAYER_1
 10
-6.5299
 20
12.7832
  0
VERTEX
  8
LAYER_1
 10
-6.0427
 20
12.2988
  0
VERTEX
  8
LAYER_1
 10
-5.5548
 20
11.7721
  0
VERTEX
  8
LAYER_1
 10
-5.1049
 20
11.2305
  0
VERTEX
  8
LAYER_1
 10
-4.6872
 20
10.6527
  0
VERTEX
  8
LAYER_1
 10
-4.3036
 20
10.0443
  0
VERTEX
  8
LAYER_1
 10
-3.956
 20
9.4107
  0
VERTEX
  8
LAYER_1
 10
-3.6464
 20
8.7575
  0
VERTEX
  8
LAYER_1
 10
-3.3766
 20
8.0902
  0
VERTEX
  8
LAYER_1
 10
-3.1487
 20
7.4142
  0
VERTEX
  8
LAYER_1
 10
-2.9645
 20
6.735
  0
VERTEX
  8
LAYER_1
 10
-2.8705
 20
6.3024
  0
VERTEX
  8
LAYER_1
 10
-2.807
 20
5.904
  0
VERTEX
  8
LAYER_1
 10
-2.7784
 20
5.53
  0
VERTEX
  8
LAYER_1
 10
-2.7893
 20
5.1707
  0
VERTEX
  8
LAYER_1
 10
-2.844
 20
4.8164
  0
VERTEX
  8
LAYER_1
 10
-2.947
 20
4.4573
  0
VERTEX
  8
LAYER_1
 10
-3.1027
 20
4.0836
  0
VERTEX
  8
LAYER_1
 10
-3.3154
 20
3.6857
  0
VERTEX
  8
LAYER_1
 10
-3.5346
 20
3.3367
  0
VERTEX
  8
LAYER_1
 10
-3.7447
 20
3.0478
  0
VERTEX
  8
LAYER_1
 10
-3.9518
 20
2.8032
  0
VERTEX
  8
LAYER_1
 10
-4.1618
 20
2.587
  0
VERTEX
  8
LAYER_1
 10
-4.615
 20
2.1768
  0
VERTEX
  8
LAYER_1
 10
-5.1527
 20
1.6905
  0
VERTEX
  8
LAYER_1
 10
-5.0663
 20
1.6962
  0
VERTEX
  8
LAYER_1
 10
-4.9076
 20
1.7553
  0
VERTEX
  8
LAYER_1
 10
-4.6998
 20
1.8527
  0
VERTEX
  8
LAYER_1
 10
-4.4662
 20
1.9732
  0
VERTEX
  8
LAYER_1
 10
-4.0152
 20
2.2228
  0
VERTEX
  8
LAYER_1
 10
-3.7409
 20
2.3828
  0
VERTEX
  8
LAYER_1
 10
-3.2012
 20
2.7434
  0
VERTEX
  8
LAYER_1
 10
-2.7275
 20
3.1362
  0
VERTEX
  8
LAYER_1
 10
-2.3218
 20
3.5648
  0
VERTEX
  8
LAYER_1
 10
-1.9858
 20
4.0327
  0
VERTEX
  8
LAYER_1
 10
-1.7213
 20
4.5433
  0
VERTEX
  8
LAYER_1
 10
-1.5301
 20
5.1002
  0
VERTEX
  8
LAYER_1
 10
-1.4139
 20
5.7067
  0
VERTEX
  8
LAYER_1
 10
-1.3746
 20
6.3664
  0
VERTEX
  8
LAYER_1
 10
-1.3825
 20
7.3068
  0
VERTEX
  8
LAYER_1
 10
-1.3952
 20
8.2827
  0
VERTEX
  8
LAYER_1
 10
-1.3949
 20
9.2793
  0
VERTEX
  8
LAYER_1
 10
-1.3637
 20
10.2819
  0
VERTEX
  8
LAYER_1
 10
-1.2838
 20
11.2758
  0
VERTEX
  8
LAYER_1
 10
-1.1374
 20
12.2461
  0
VERTEX
  8
LAYER_1
 10
-0.9067
 20
13.1782
  0
VERTEX
  8
LAYER_1
 10
-0.5739
 20
14.0573
  0
VERTEX
  8
LAYER_1
 10
-0.0577
 20
14.9734
  0
VERTEX
  8
LAYER_1
 10
0.6141
 20
15.8584
  0
VERTEX
  8
LAYER_1
 10
1.4086
 20
16.7051
  0
VERTEX
  8
LAYER_1
 10
2.2927
 20
17.5065
  0
VERTEX
  8
LAYER_1
 10
3.2335
 20
18.2555
  0
VERTEX
  8
LAYER_1
 10
4.198
 20
18.945
  0
VERTEX
  8
LAYER_1
 10
5.1532
 20
19.5679
  0
VERTEX
  8
LAYER_1
 10
6.0661
 20
20.1172
  0
VERTEX
  8
LAYER_1
 10
6.4651
 20
20.3359
  0
VERTEX
  8
LAYER_1
 10
6.8431
 20
20.5193
  0
VERTEX
  8
LAYER_1
 10
7.2086
 20
20.6746
  0
VERTEX
  8
LAYER_1
 10
7.57
 20
20.8091
  0
VERTEX
  8
LAYER_1
 10
7.9357
 20
20.9302
  0
VERTEX
  8
LAYER_1
 10
8.3143
 20
21.0451
  0
VERTEX
  8
LAYER_1
 10
8.7141
 20
21.1611
  0
VERTEX
  8
LAYER_1
 10
9.1437
 20
21.2855
  0
VERTEX
  8
LAYER_1
 10
8.7741
 20
20.6526
  0
VERTEX
  8
LAYER_1
 10
8.4955
 20
20.1164
  0
VERTEX
  8
LAYER_1
 10
8.3901
 20
19.8402
  0
VERTEX
  8
LAYER_1
 10
8.3072
 20
19.5348
  0
VERTEX
  8
LAYER_1
 10
8.2467
 20
19.1825
  0
VERTEX
  8
LAYER_1
 10
8.2084
 20
18.7655
  0
VERTEX
  8
LAYER_1
 10
8.1996
 20
18.3865
  0
VERTEX
  8
LAYER_1
 10
8.2127
 20
17.9886
  0
VERTEX
  8
LAYER_1
 10
8.2415
 20
17.5772
  0
VERTEX
  8
LAYER_1
 10
8.2793
 20
17.1575
  0
VERTEX
  8
LAYER_1
 10
8.3198
 20
16.7346
  0
VERTEX
  8
LAYER_1
 10
8.3565
 20
16.3139
  0
VERTEX
  8
LAYER_1
 10
8.3828
 20
15.9005
  0
VERTEX
  8
LAYER_1
 10
8.3925
 20
15.4996
  0
VERTEX
  8
LAYER_1
 10
8.3751
 20
14.7795
  0
VERTEX
  8
LAYER_1
 10
8.3253
 20
14.0411
  0
VERTEX
  8
LAYER_1
 10
8.2417
 20
13.2927
  0
VERTEX
  8
LAYER_1
 10
8.1233
 20
12.5429
  0
VERTEX
  8
LAYER_1
 10
7.9689
 20
11.8003
  0
VERTEX
  8
LAYER_1
 10
7.7771
 20
11.0734
  0
VERTEX
  8
LAYER_1
 10
7.5468
 20
10.3708
  0
VERTEX
  8
LAYER_1
 10
7.2769
 20
9.7009
  0
VERTEX
  8
LAYER_1
 10
7.0146
 20
9.1461
  0
VERTEX
  8
LAYER_1
 10
6.7234
 20
8.595
  0
VERTEX
  8
LAYER_1
 10
6.404
 20
8.0527
  0
VERTEX
  8
LAYER_1
 10
6.0575
 20
7.524
  0
VERTEX
  8
LAYER_1
 10
5.6846
 20
7.0141
  0
VERTEX
  8
LAYER_1
 10
5.2863
 20
6.5279
  0
VERTEX
  8
LAYER_1
 10
4.8636
 20
6.0705
  0
VERTEX
  8
LAYER_1
 10
4.4172
 20
5.647
  0
VERTEX
  8
LAYER_1
 10
3.8057
 20
5.2048
  0
VERTEX
  8
LAYER_1
 10
3.163
 20
4.9154
  0
VERTEX
  8
LAYER_1
 10
2.4966
 20
4.7604
  0
VERTEX
  8
LAYER_1
 10
1.8142
 20
4.7213
  0
VERTEX
  8
LAYER_1
 10
1.1231
 20
4.7796
  0
VERTEX
  8
LAYER_1
 10
0.4311
 20
4.9168
  0
VERTEX
  8
LAYER_1
 10
-0.2545
 20
5.1145
  0
VERTEX
  8
LAYER_1
 10
-0.926
 20
5.3542
  0
VERTEX
  8
LAYER_1
 10
-0.6621
 20
5.1252
  0
VERTEX
  8
LAYER_1
 10
-0.3447
 20
4.8967
  0
VERTEX
  8
LAYER_1
 10
0.0116
 20
4.6747
  0
VERTEX
  8
LAYER_1
 10
0.3926
 20
4.4653
  0
VERTEX
  8
LAYER_1
 10
0.7839
 20
4.2744
  0
VERTEX
  8
LAYER_1
 10
1.1711
 20
4.108
  0
VERTEX
  8
LAYER_1
 10
1.5399
 20
3.9721
  0
VERTEX
  8
LAYER_1
 10
1.8758
 20
3.8727
  0
VERTEX
  8
LAYER_1
 10
2.3651
 20
3.7735
  0
VERTEX
  8
LAYER_1
 10
2.8173
 20
3.731
  0
VERTEX
  8
LAYER_1
 10
3.2418
 20
3.7418
  0
VERTEX
  8
LAYER_1
 10
3.6482
 20
3.8027
  0
VERTEX
  8
LAYER_1
 10
4.0458
 20
3.9105
  0
VERTEX
  8
LAYER_1
 10
4.4442
 20
4.0619
  0
VERTEX
  8
LAYER_1
 10
4.8529
 20
4.2536
  0
VERTEX
  8
LAYER_1
 10
5.2813
 20
4.4824
  0
VERTEX
  8
LAYER_1
 10
5.9736
 20
4.8806
  0
VERTEX
  8
LAYER_1
 10
6.6661
 20
5.2929
  0
VERTEX
  8
LAYER_1
 10
7.3623
 20
5.7065
  0
VERTEX
  8
LAYER_1
 10
8.0661
 20
6.1083
  0
VERTEX
  8
LAYER_1
 10
8.7811
 20
6.4854
  0
VERTEX
  8
LAYER_1
 10
9.5109
 20
6.8247
  0
VERTEX
  8
LAYER_1
 10
10.2592
 20
7.1134
  0
VERTEX
  8
LAYER_1
 10
11.0297
 20
7.3383
  0
VERTEX
  8
LAYER_1
 10
11.9108
 20
7.4881
  0
VERTEX
  8
LAYER_1
 10
12.8103
 20
7.5273
  0
VERTEX
  8
LAYER_1
 10
13.719
 20
7.4691
  0
VERTEX
  8
LAYER_1
 10
14.6278
 20
7.3265
  0
VERTEX
  8
LAYER_1
 10
15.5276
 20
7.1128
  0
VERTEX
  8
LAYER_1
 10
16.4093
 20
6.8411
  0
VERTEX
  8
LAYER_1
 10
17.2637
 20
6.5245
  0
VERTEX
  8
LAYER_1
 10
18.0816
 20
6.1762
  0
VERTEX
  8
LAYER_1
 10
18.7918
 20
5.8477
  0
VERTEX
  8
LAYER_1
 10
19.4946
 20
5.5012
  0
VERTEX
  8
LAYER_1
 10
20.1843
 20
5.131
  0
VERTEX
  8
LAYER_1
 10
20.855
 20
4.7313
  0
VERTEX
  8
LAYER_1
 10
21.5011
 20
4.2965
  0
VERTEX
  8
LAYER_1
 10
22.1168
 20
3.8209
  0
VERTEX
  8
LAYER_1
 10
22.6963
 20
3.2986
  0
VERTEX
  8
LAYER_1
 10
23.2338
 20
2.7241
  0
VERTEX
  8
LAYER_1
 10
22.0552
 20
2.726
  0
VERTEX
  8
LAYER_1
 10
21.0405
 20
2.4486
  0
VERTEX
  8
LAYER_1
 10
20.0942
 20
1.9589
  0
VERTEX
  8
LAYER_1
 10
19.121
 20
1.3238
  0
VERTEX
  8
LAYER_1
 10
18.0253
 20
0.6103
  0
VERTEX
  8
LAYER_1
 10
16.7116
 20
-0.1146
  0
VERTEX
  8
LAYER_1
 10
15.0846
 20
-0.7841
  0
VERTEX
  8
LAYER_1
 10
13.0486
 20
-1.331
  0
VERTEX
  8
LAYER_1
 10
12.3341
 20
-1.4442
  0
VERTEX
  8
LAYER_1
 10
11.553
 20
-1.508
  0
VERTEX
  8
LAYER_1
 10
10.7294
 20
-1.521
  0
VERTEX
  8
LAYER_1
 10
9.8872
 20
-1.4816
  0
VERTEX
  8
LAYER_1
 10
9.0507
 20
-1.3883
  0
VERTEX
  8
LAYER_1
 10
8.2437
 20
-1.2396
  0
VERTEX
  8
LAYER_1
 10
7.4903
 20
-1.0339
  0
VERTEX
  8
LAYER_1
 10
6.8146
 20
-0.7698
  0
VERTEX
  8
LAYER_1
 10
6.1332
 20
-0.3931
  0
VERTEX
  8
LAYER_1
 10
5.5858
 20
0.0319
  0
VERTEX
  8
LAYER_1
 10
5.1533
 20
0.5059
  0
VERTEX
  8
LAYER_1
 10
4.8164
 20
1.0295
  0
VERTEX
  8
LAYER_1
 10
4.5558
 20
1.6033
  0
VERTEX
  8
LAYER_1
 10
4.3525
 20
2.2279
  0
VERTEX
  8
LAYER_1
 10
4.187
 20
2.9041
  0
VERTEX
  8
LAYER_1
 10
4.0402
 20
3.6323
  0
VERTEX
  8
LAYER_1
 10
3.9994
 20
3.5563
  0
VERTEX
  8
LAYER_1
 10
3.9709
 20
3.3553
  0
VERTEX
  8
LAYER_1
 10
3.953
 20
3.0683
  0
VERTEX
  8
LAYER_1
 10
3.9436
 20
2.7342
  0
VERTEX
  8
LAYER_1
 10
3.943
 20
2.0804
  0
VERTEX
  8
LAYER_1
 10
3.954
 20
1.7055
  0
VERTEX
  8
LAYER_1
 10
4.0047
 20
1.2566
  0
VERTEX
  8
LAYER_1
 10
4.0794
 20
0.8294
  0
VERTEX
  8
LAYER_1
 10
4.1869
 20
0.4096
  0
VERTEX
  8
LAYER_1
 10
4.3358
 20
-0.0173
  0
VERTEX
  8
LAYER_1
 10
4.5081
 20
-0.3974
  0
VERTEX
  8
LAYER_1
 10
4.7019
 20
-0.7265
  0
VERTEX
  8
LAYER_1
 10
4.9184
 20
-1.0138
  0
VERTEX
  8
LAYER_1
 10
5.1586
 20
-1.2686
  0
VERTEX
  8
LAYER_1
 10
5.4235
 20
-1.5001
  0
VERTEX
  8
LAYER_1
 10
5.7142
 20
-1.7174
  0
VERTEX
  8
LAYER_1
 10
6.0317
 20
-1.9298
  0
VERTEX
  8
LAYER_1
 10
6.3772
 20
-2.1465
  0
VERTEX
  8
LAYER_1
 10
7.0115
 20
-2.5223
  0
VERTEX
  8
LAYER_1
 10
7.6707
 20
-2.8928
  0
VERTEX
  8
LAYER_1
 10
8.3422
 20
-3.2653
  0
VERTEX
  8
LAYER_1
 10
9.0135
 20
-3.6474
  0
VERTEX
  8
LAYER_1
 10
9.6719
 20
-4.0465
  0
VERTEX
  8
LAYER_1
 10
10.3051
 20
-4.47
  0
VERTEX
  8
LAYER_1
 10
10.9003
 20
-4.9254
  0
VERTEX
  8
LAYER_1
 10
11.445
 20
-5.4201
  0
VERTEX
  8
LAYER_1
 10
12.0257
 20
-6.0559
  0
VERTEX
  8
LAYER_1
 10
12.5103
 20
-6.6992
  0
VERTEX
  8
LAYER_1
 10
12.911
 20
-7.3572
  0
VERTEX
  8
LAYER_1
 10
13.24
 20
-8.0374
  0
VERTEX
  8
LAYER_1
 10
13.5093
 20
-8.747
  0
VERTEX
  8
LAYER_1
 10
13.7311
 20
-9.4934
  0
VERTEX
  8
LAYER_1
 10
13.9175
 20
-10.2838
  0
VERTEX
  8
LAYER_1
 10
14.0807
 20
-11.1257
  0
VERTEX
  8
LAYER_1
 10
14.2167
 20
-11.9943
  0
VERTEX
  8
LAYER_1
 10
14.3225
 20
-12.9261
  0
VERTEX
  8
LAYER_1
 10
14.3896
 20
-13.8988
  0
VERTEX
  8
LAYER_1
 10
14.4097
 20
-14.89
  0
VERTEX
  8
LAYER_1
 10
14.3744
 20
-15.8773
  0
VERTEX
  8
LAYER_1
 10
14.2752
 20
-16.8382
  0
VERTEX
  8
LAYER_1
 10
14.1037
 20
-17.7504
  0
VERTEX
  8
LAYER_1
 10
13.8517
 20
-18.5914
  0
VERTEX
  8
LAYER_1
 10
13.7859
 20
-18.4973
  0
VERTEX
  8
LAYER_1
 10
13.6923
 20
-18.2997
  0
VERTEX
  8
LAYER_1
 10
13.5985
 20
-18.0874
  0
VERTEX
  8
LAYER_1
 10
13.5323
 20
-17.949
  0
VERTEX
  8
LAYER_1
 10
12.923
 20
-17.1541
  0
VERTEX
  8
LAYER_1
 10
12.2246
 20
-16.5861
  0
VERTEX
  8
LAYER_1
 10
11.4221
 20
-16.1367
  0
VERTEX
  8
LAYER_1
 10
10.5004
 20
-15.6978
  0
VERTEX
  8
LAYER_1
 10
9.4445
 20
-15.1611
  0
VERTEX
  8
LAYER_1
 10
8.2395
 20
-14.4183
  0
VERTEX
  8
LAYER_1
 10
6.8702
 20
-13.3612
  0
VERTEX
  8
LAYER_1
 10
5.3218
 20
-11.8815
  0
VERTEX
  8
LAYER_1
 10
4.926
 20
-11.4174
  0
VERTEX
  8
LAYER_1
 10
4.5157
 20
-10.8487
  0
VERTEX
  8
LAYER_1
 10
4.1089
 20
-10.2042
  0
VERTEX
  8
LAYER_1
 10
3.7237
 20
-9.5128
  0
VERTEX
  8
LAYER_1
 10
3.3781
 20
-8.8032
  0
VERTEX
  8
LAYER_1
 10
3.0901
 20
-8.1043
  0
VERTEX
  8
LAYER_1
 10
2.8779
 20
-7.4449
  0
VERTEX
  8
LAYER_1
 10
2.7593
 20
-6.854
  0
VERTEX
  8
LAYER_1
 10
2.7101
 20
-6.4
  0
VERTEX
  8
LAYER_1
 10
2.6806
 20
-5.984
  0
VERTEX
  8
LAYER_1
 10
2.6763
 20
-5.5952
  0
VERTEX
  8
LAYER_1
 10
2.703
 20
-5.2231
  0
VERTEX
  8
LAYER_1
 10
2.7662
 20
-4.8569
  0
VERTEX
  8
LAYER_1
 10
2.8715
 20
-4.486
  0
VERTEX
  8
LAYER_1
 10
3.0245
 20
-4.0997
  0
VERTEX
  8
LAYER_1
 10
3.2309
 20
-3.6873
  0
VERTEX
  8
LAYER_1
 10
3.4325
 20
-3.3506
  0
VERTEX
  8
LAYER_1
 10
3.6382
 20
-3.0636
  0
VERTEX
  8
LAYER_1
 10
3.8498
 20
-2.8139
  0
VERTEX
  8
LAYER_1
 10
4.0693
 20
-2.589
  0
VERTEX
  8
LAYER_1
 10
4.5402
 20
-2.1644
  0
VERTEX
  8
LAYER_1
 10
5.0667
 20
-1.6905
  0
VERTEX
  8
LAYER_1
 10
4.9813
 20
-1.6968
  0
VERTEX
  8
LAYER_1
 10
4.8227
 20
-1.7566
  0
VERTEX
  8
LAYER_1
 10
4.6145
 20
-1.8545
  0
VERTEX
  8
LAYER_1
 10
4.3804
 20
-1.9755
  0
VERTEX
  8
LAYER_1
 10
3.929
 20
-2.2257
  0
VERTEX
  8
LAYER_1
 10
3.6578
 20
-2.3857
  0
VERTEX
  8
LAYER_1
 10
3.3415
 20
-2.5961
  0
VERTEX
  8
LAYER_1
 10
3.044
 20
-2.8176
  0
VERTEX
  8
LAYER_1
 10
2.7599
 20
-3.0557
  0
VERTEX
  8
LAYER_1
 10
2.4836
 20
-3.3157
  0
VERTEX
  8
LAYER_1
 10
2.1787
 20
-3.6485
  0
VERTEX
  8
LAYER_1
 10
1.9248
 20
-3.9892
  0
VERTEX
  8
LAYER_1
 10
1.7186
 20
-4.3408
  0
VERTEX
  8
LAYER_1
 10
1.557
 20
-4.7062
  0
VERTEX
  8
LAYER_1
 10
1.4364
 20
-5.0884
  0
VERTEX
  8
LAYER_1
 10
1.3537
 20
-5.4906
  0
VERTEX
  8
LAYER_1
 10
1.3055
 20
-5.9156
  0
VERTEX
  8
LAYER_1
 10
1.2886
 20
-6.3665
  0
VERTEX
  8
LAYER_1
 10
1.2936
 20
-7.2944
  0
VERTEX
  8
LAYER_1
 10
1.3058
 20
-8.2698
  0
VERTEX
  8
LAYER_1
 10
1.3065
 20
-9.2738
  0
VERTEX
  8
LAYER_1
 10
1.2772
 20
-10.2874
  0
VERTEX
  8
LAYER_1
 10
1.1994
 20
-11.2916
  0
VERTEX
  8
LAYER_1
 10
1.0546
 20
-12.2677
  0
VERTEX
  8
LAYER_1
 10
0.8242
 20
-13.1965
  0
VERTEX
  8
LAYER_1
 10
0.4897
 20
-14.0592
  0
VERTEX
  8
LAYER_1
 10
-0.207
 20
-15.2083
  0
VERTEX
  8
LAYER_1
 10
-1.1786
 20
-16.3717
  0
VERTEX
  8
LAYER_1
 10
-2.3618
 20
-17.5071
  0
VERTEX
  8
LAYER_1
 10
-3.6931
 20
-18.5722
  0
VERTEX
  8
LAYER_1
 10
-5.1089
 20
-19.5249
  0
VERTEX
  8
LAYER_1
 10
-6.546
 20
-20.3229
  0
VERTEX
  8
LAYER_1
 10
-7.9408
 20
-20.9238
  0
VERTEX
  8
LAYER_1
 10
-9.2298
 20
-21.2855
  0
VERTEX
  8
LAYER_1
 10
-9.1151
 20
-21.0673
  0
VERTEX
  8
LAYER_1
 10
-8.9488
 20
-20.8061
  0
VERTEX
  8
LAYER_1
 10
-8.7697
 20
-20.5152
  0
VERTEX
  8
LAYER_1
 10
-8.6168
 20
-20.2076
  0
VERTEX
  8
LAYER_1
 10
-8.4919
 20
-19.8626
  0
VERTEX
  8
LAYER_1
 10
-8.3985
 20
-19.5175
  0
VERTEX
  8
LAYER_1
 10
-8.3343
 20
-19.1655
  0
VERTEX
  8
LAYER_1
 10
-8.2971
 20
-18.7999
  0
VERTEX
  8
LAYER_1
 10
-8.2862
 20
-18.4256
  0
VERTEX
  8
LAYER_1
 10
-8.2967
 20
-18.0282
  0
VERTEX
  8
LAYER_1
 10
-8.3226
 20
-17.6145
  0
VERTEX
  8
LAYER_1
 10
-8.3583
 20
-17.1913
  0
VERTEX
  8
LAYER_1
 10
-8.3979
 20
-16.7653
  0
VERTEX
  8
LAYER_1
 10
-8.4356
 20
-16.3433
  0
VERTEX
  8
LAYER_1
 10
-8.4656
 20
-15.932
  0
VERTEX
  8
LAYER_1
 10
-8.4821
 20
-15.5383
  0
VERTEX
  8
LAYER_1
 10
-8.4752
 20
-14.8346
  0
VERTEX
  8
LAYER_1
 10
-8.4278
 20
-14.1013
  0
VERTEX
  8
LAYER_1
 10
-8.3413
 20
-13.3505
  0
VERTEX
  8
LAYER_1
 10
-8.2176
 20
-12.5943
  0
VERTEX
  8
LAYER_1
 10
-8.0582
 20
-11.8447
  0
VERTEX
  8
LAYER_1
 10
-7.8649
 20
-11.1137
  0
VERTEX
  8
LAYER_1
 10
-7.6393
 20
-10.4134
  0
VERTEX
  8
LAYER_1
 10
-7.3831
 20
-9.7559
  0
VERTEX
  8
LAYER_1
 10
-6.985
 20
-8.9042
  0
VERTEX
  8
LAYER_1
 10
-6.512
 20
-8.0554
  0
VERTEX
  8
LAYER_1
 10
-5.9625
 20
-7.2411
  0
VERTEX
  8
LAYER_1
 10
-5.3349
 20
-6.4929
  0
VERTEX
  8
LAYER_1
 10
-4.6277
 20
-5.8426
  0
VERTEX
  8
LAYER_1
 10
-3.8392
 20
-5.3218
  0
VERTEX
  8
LAYER_1
 10
-2.968
 20
-4.9621
  0
VERTEX
  8
LAYER_1
 10
-2.0124
 20
-4.7952
  0
VERTEX
  8
LAYER_1
 10
-1.5857
 20
-4.7869
  0
VERTEX
  8
LAYER_1
 10
-1.2048
 20
-4.8129
  0
VERTEX
  8
LAYER_1
 10
-0.8566
 20
-4.8677
  0
VERTEX
  8
LAYER_1
 10
-0.5282
 20
-4.946
  0
VERTEX
  8
LAYER_1
 10
0.1212
 20
-5.1509
  0
VERTEX
  8
LAYER_1
 10
0.8475
 20
-5.3843
  0
SEQEND
  8
LAYER_1
  0
POLYLINE
  8
LAYER_1
 66
     1
 70
     1
  0
VERTEX
  8
LAYER_1
 10
9.8281
 20
22.3375
  0
VERTEX
  8
LAYER_1
 10
10.4965
 20
22.3375
  0
VERTEX
  8
LAYER_1
 10
10.6612
 20
22.317
  0
VERTEX
  8
LAYER_1
 10
10.8116
 20
22.2858
  0
VERTEX
  8
LAYER_1
 10
10.9454
 20
22.2428
  0
VERTEX
  8
LAYER_1
 10
11.06
 20
22.1872
  0
VERTEX
  8
LAYER_1
 10
10.9341
 20
22.0036
  0
VERTEX
  8
LAYER_1
 10
10.7287
 20
21.8084
  0
VERTEX
  8
LAYER_1
 10
10.4706
 20
21.5859
  0
VERTEX
  8
LAYER_1
 10
10.1869
 20
21.3206
  0
VERTEX
  8
LAYER_1
 10
9.9043
 20
20.9968
  0
VERTEX
  8
LAYER_1
 10
9.6499
 20
20.5988
  0
VERTEX
  8
LAYER_1
 10
9.4505
 20
20.1111
  0
VERTEX
  8
LAYER_1
 10
9.3331
 20
19.518
  0
VERTEX
  8
LAYER_1
 10
9.2962
 20
19.0129
  0
VERTEX
  8
LAYER_1
 10
9.2847
 20
18.4916
  0
VERTEX
  8
LAYER_1
 10
9.2931
 20
17.9594
  0
VERTEX
  8
LAYER_1
 10
9.3161
 20
17.4212
  0
VERTEX
  8
LAYER_1
 10
9.3481
 20
16.8822
  0
VERTEX
  8
LAYER_1
 10
9.3839
 20
16.3476
  0
VERTEX
  8
LAYER_1
 10
9.4179
 20
15.8224
  0
VERTEX
  8
LAYER_1
 10
9.4449
 20
15.3118
  0
VERTEX
  8
LAYER_1
 10
9.4614
 20
14.8002
  0
VERTEX
  8
LAYER_1
 10
9.4669
 20
14.2785
  0
VERTEX
  8
LAYER_1
 10
9.4603
 20
13.7504
  0
VERTEX
  8
LAYER_1
 10
9.4408
 20
13.2197
  0
VERTEX
  8
LAYER_1
 10
9.4073
 20
12.6901
  0
VERTEX
  8
LAYER_1
 10
9.3591
 20
12.1653
  0
VERTEX
  8
LAYER_1
 10
9.295
 20
11.6491
  0
VERTEX
  8
LAYER_1
 10
9.2142
 20
11.1452
  0
VERTEX
  8
LAYER_1
 10
9.114
 20
10.6642
  0
VERTEX
  8
LAYER_1
 10
8.9984
 20
10.2453
  0
VERTEX
  8
LAYER_1
 10
8.8655
 20
9.8717
  0
VERTEX
  8
LAYER_1
 10
8.7131
 20
9.5267
  0
VERTEX
  8
LAYER_1
 10
8.5391
 20
9.1935
  0
VERTEX
  8
LAYER_1
 10
8.3413
 20
8.8553
  0
VERTEX
  8
LAYER_1
 10
8.1177
 20
8.4954
  0
VERTEX
  8
LAYER_1
 10
7.8662
 20
8.0971
  0
VERTEX
  8
LAYER_1
 10
8.4862
 20
8.332
  0
VERTEX
  8
LAYER_1
 10
9.0299
 20
8.5504
  0
VERTEX
  8
LAYER_1
 10
9.3042
 20
8.6511
  0
VERTEX
  8
LAYER_1
 10
9.5967
 20
8.745
  0
VERTEX
  8
LAYER_1
 10
9.9199
 20
8.8311
  0
VERTEX
  8
LAYER_1
 10
10.2861
 20
8.9086
  0
VERTEX
  8
LAYER_1
 10
11.2591
 20
9.022
  0
VERTEX
  8
LAYER_1
 10
12.2622
 20
9.0184
  0
VERTEX
  8
LAYER_1
 10
13.2814
 20
8.9136
  0
VERTEX
  8
LAYER_1
 10
14.3026
 20
8.7235
  0
VERTEX
  8
LAYER_1
 10
15.312
 20
8.4639
  0
VERTEX
  8
LAYER_1
 10
16.2955
 20
8.1505
  0
VERTEX
  8
LAYER_1
 10
17.2392
 20
7.7993
  0
VERTEX
  8
LAYER_1
 10
18.1291
 20
7.4261
  0
VERTEX
  8
LAYER_1
 10
18.6312
 20
7.1958
  0
VERTEX
  8
LAYER_1
 10
19.1525
 20
6.9396
  0
VERTEX
  8
LAYER_1
 10
19.6836
 20
6.6612
  0
VERTEX
  8
LAYER_1
 10
20.2151
 20
6.3643
  0
VERTEX
  8
LAYER_1
 10
20.7376
 20
6.0528
  0
VERTEX
  8
LAYER_1
 10
21.2418
 20
5.7302
  0
VERTEX
  8
LAYER_1
 10
21.7182
 20
5.4003
  0
VERTEX
  8
LAYER_1
 10
22.1575
 20
5.067
  0
VERTEX
  8
LAYER_1
 10
22.5306
 20
4.7606
  0
VERTEX
  8
LAYER_1
 10
22.9658
 20
4.3815
  0
VERTEX
  8
LAYER_1
 10
23.4296
 20
3.9466
  0
VERTEX
  8
LAYER_1
 10
23.8883
 20
3.4726
  0
VERTEX
  8
LAYER_1
 10
24.3082
 20
2.9762
  0
VERTEX
  8
LAYER_1
 10
24.6559
 20
2.4745
  0
VERTEX
  8
LAYER_1
 10
24.8976
 20
1.984
  0
VERTEX
  8
LAYER_1
 10
24.9998
 20
1.5217
  0
VERTEX
  8
LAYER_1
 10
24.7252
 20
1.5584
  0
VERTEX
  8
LAYER_1
 10
24.4096
 20
1.6589
  0
VERTEX
  8
LAYER_1
 10
24.0452
 20
1.7837
  0
VERTEX
  8
LAYER_1
 10
23.6246
 20
1.8932
  0
VERTEX
  8
LAYER_1
 10
23.1399
 20
1.948
  0
VERTEX
  8
LAYER_1
 10
22.5836
 20
1.9085
  0
VERTEX
  8
LAYER_1
 10
21.948
 20
1.7352
  0
VERTEX
  8
LAYER_1
 10
21.2255
 20
1.3884
  0
VERTEX
  8
LAYER_1
 10
20.4773
 20
0.9351
  0
VERTEX
  8
LAYER_1
 10
19.7442
 20
0.466
  0
VERTEX
  8
LAYER_1
 10
19.0145
 20
-0.0071
  0
VERTEX
  8
LAYER_1
 10
18.2766
 20
-0.4721
  0
VERTEX
  8
LAYER_1
 10
17.8855
 20
-0.7108
  0
VERTEX
  8
LAYER_1
 10
17.5035
 20
-0.9404
  0
VERTEX
  8
LAYER_1
 10
17.1261
 20
-1.1614
  0
VERTEX
  8
LAYER_1
 10
16.7488
 20
-1.3743
  0
VERTEX
  8
LAYER_1
 10
16.3671
 20
-1.5797
  0
VERTEX
  8
LAYER_1
 10
15.9765
 20
-1.778
  0
VERTEX
  8
LAYER_1
 10
15.5724
 20
-1.9697
  0
VERTEX
  8
LAYER_1
 10
15.1504
 20
-2.1554
  0
VERTEX
  8
LAYER_1
 10
14.6994
 20
-2.3312
  0
VERTEX
  8
LAYER_1
 10
14.242
 20
-2.4815
  0
VERTEX
  8
LAYER_1
 10
13.7778
 20
-2.6088
  0
VERTEX
  8
LAYER_1
 10
13.3061
 20
-2.7157
  0
VERTEX
  8
LAYER_1
 10
12.9316
 20
-2.7666
  0
VERTEX
  8
LAYER_1
 10
12.4606
 20
-2.7973
  0
VERTEX
  8
LAYER_1
 10
11.9827
 20
-2.8078
  0
VERTEX
  8
LAYER_1
 10
11.5877
 20
-2.7976
  0
VERTEX
  8
LAYER_1
 10
11.042
 20
-2.742
  0
VERTEX
  8
LAYER_1
 10
11.2499
 20
-2.9145
  0
VERTEX
  8
LAYER_1
 10
11.4693
 20
-3.0774
  0
VERTEX
  8
LAYER_1
 10
11.6885
 20
-3.2443
  0
VERTEX
  8
LAYER_1
 10
11.8957
 20
-3.4289
  0
VERTEX
  8
LAYER_1
 10
12.2274
 20
-3.7612
  0
VERTEX
  8
LAYER_1
 10
12.511
 20
-4.0497
  0
VERTEX
  8
LAYER_1
 10
12.7579
 20
-4.315
  0
VERTEX
  8
LAYER_1
 10
12.98
 20
-4.5779
  0
VERTEX
  8
LAYER_1
 10
13.1889
 20
-4.8589
  0
VERTEX
  8
LAYER_1
 10
13.3962
 20
-5.1789
  0
VERTEX
  8
LAYER_1
 10
13.6136
 20
-5.5585
  0
VERTEX
  8
LAYER_1
 10
13.8527
 20
-6.0183
  0
VERTEX
  8
LAYER_1
 10
14.3537
 20
-7.1726
  0
VERTEX
  8
LAYER_1
 10
14.7572
 20
-8.4177
  0
VERTEX
  8
LAYER_1
 10
15.0673
 20
-9.7278
  0
VERTEX
  8
LAYER_1
 10
15.288
 20
-11.0767
  0
VERTEX
  8
LAYER_1
 10
15.4233
 20
-12.4384
  0
VERTEX
  8
LAYER_1
 10
15.4773
 20
-13.7868
  0
VERTEX
  8
LAYER_1
 10
15.4539
 20
-15.0958
  0
VERTEX
  8
LAYER_1
 10
15.3572
 20
-16.3395
  0
VERTEX
  8
LAYER_1
 10
15.2956
 20
-16.7613
  0
VERTEX
  8
LAYER_1
 10
15.1831
 20
-17.3472
  0
VERTEX
  8
LAYER_1
 10
15.0237
 20
-18.0325
  0
VERTEX
  8
LAYER_1
 10
14.8209
 20
-18.7524
  0
VERTEX
  8
LAYER_1
 10
14.5787
 20
-19.4422
  0
VERTEX
  8
LAYER_1
 10
14.3007
 20
-20.0372
  0
VERTEX
  8
LAYER_1
 10
13.9907
 20
-20.4728
  0
VERTEX
  8
LAYER_1
 10
13.6526
 20
-20.6843
  0
VERTEX
  8
LAYER_1
 10
13.5272
 20
-20.2972
  0
VERTEX
  8
LAYER_1
 10
13.4433
 20
-19.9139
  0
VERTEX
  8
LAYER_1
 10
13.3636
 20
-19.5314
  0
VERTEX
  8
LAYER_1
 10
13.251
 20
-19.1471
  0
VERTEX
  8
LAYER_1
 10
13.0684
 20
-18.7581
  0
VERTEX
  8
LAYER_1
 10
12.7787
 20
-18.3616
  0
VERTEX
  8
LAYER_1
 10
12.3447
 20
-17.9549
  0
VERTEX
  8
LAYER_1
 10
11.7293
 20
-17.5351
  0
VERTEX
  8
LAYER_1
 10
10.757
 20
-16.9902
  0
VERTEX
  8
LAYER_1
 10
9.7439
 20
-16.4649
  0
VERTEX
  8
LAYER_1
 10
8.7121
 20
-15.9384
  0
VERTEX
  8
LAYER_1
 10
7.6838
 20
-15.3897
  0
VERTEX
  8
LAYER_1
 10
6.6809
 20
-14.7979
  0
VERTEX
  8
LAYER_1
 10
5.7257
 20
-14.1423
  0
VERTEX
  8
LAYER_1
 10
4.8401
 20
-13.4019
  0
VERTEX
  8
LAYER_1
 10
4.0463
 20
-12.5558
  0
VERTEX
  8
LAYER_1
 10
3.5327
 20
-11.7918
  0
VERTEX
  8
LAYER_1
 10
3.4508
 20
-11.6291
  0
VERTEX
  8
LAYER_1
 10
3.3056
 20
-11.3447
  0
VERTEX
  8
LAYER_1
 10
3.1634
 20
-11.0825
  0
VERTEX
  8
LAYER_1
 10
3.0906
 20
-10.9865
  0
VERTEX
  8
LAYER_1
 10
2.9654
 20
-11.6643
  0
VERTEX
  8
LAYER_1
 10
2.833
 20
-12.287
  0
VERTEX
  8
LAYER_1
 10
2.6815
 20
-12.8676
  0
VERTEX
  8
LAYER_1
 10
2.4993
 20
-13.4188
  0
VERTEX
  8
LAYER_1
 10
2.2746
 20
-13.9534
  0
VERTEX
  8
LAYER_1
 10
1.9957
 20
-14.4845
  0
VERTEX
  8
LAYER_1
 10
1.6509
 20
-15.0247
  0
VERTEX
  8
LAYER_1
 10
1.2284
 20
-15.587
  0
VERTEX
  8
LAYER_1
 10
0.5079
 20
-16.4244
  0
VERTEX
  8
LAYER_1
 10
-0.2924
 20
-17.2491
  0
VERTEX
  8
LAYER_1
 10
-1.1591
 20
-18.0482
  0
VERTEX
  8
LAYER_1
 10
-2.0791
 20
-18.8093
  0
VERTEX
  8
LAYER_1
 10
-3.039
 20
-19.5196
  0
VERTEX
  8
LAYER_1
 10
-4.0258
 20
-20.1665
  0
VERTEX
  8
LAYER_1
 10
-5.0261
 20
-20.7374
  0
VERTEX
  8
LAYER_1
 10
-6.0267
 20
-21.2196
  0
VERTEX
  8
LAYER_1
 10
-6.6073
 20
-21.4687
  0
VERTEX
  8
LAYER_1
 10
-7.1885
 20
-21.7027
  0
VERTEX
  8
LAYER_1
 10
-7.7787
 20
-21.9129
  0
VERTEX
  8
LAYER_1
 10
-8.3868
 20
-22.0908
  0
VERTEX
  8
LAYER_1
 10
-8.6486
 20
-22.1491
  0
VERTEX
  8
LAYER_1
 10
-9.0363
 20
-22.2203
  0
VERTEX
  8
LAYER_1
 10
-9.4986
 20
-22.2883
  0
VERTEX
  8
LAYER_1
 10
-9.984
 20
-22.3375
  0
VERTEX
  8
LAYER_1
 10
-10.6791
 20
-22.3375
  0
VERTEX
  8
LAYER_1
 10
-10.8337
 20
-22.3127
  0
VERTEX
  8
LAYER_1
 10
-10.9614
 20
-22.2742
  0
VERTEX
  8
LAYER_1
 10
-11.0574
 20
-22.2206
  0
VERTEX
  8
LAYER_1
 10
-11.117
 20
-22.1505
  0
VERTEX
  8
LAYER_1
 10
-11.0231
 20
-21.9945
  0
VERTEX
  8
LAYER_1
 10
-10.8385
 20
-21.8198
  0
VERTEX
  8
LAYER_1
 10
-10.5918
 20
-21.6114
  0
VERTEX
  8
LAYER_1
 10
-10.3113
 20
-21.3549
  0
VERTEX
  8
LAYER_1
 10
-10.0256
 20
-21.0355
  0
VERTEX
  8
LAYER_1
 10
-9.7631
 20
-20.6386
  0
VERTEX
  8
LAYER_1
 10
-9.5522
 20
-20.1494
  0
VERTEX
  8
LAYER_1
 10
-9.4214
 20
-19.5533
  0
VERTEX
  8
LAYER_1
 10
-9.3994
 20
-19.2218
  0
VERTEX
  8
LAYER_1
 10
-9.3908
 20
-18.7328
  0
VERTEX
  8
LAYER_1
 10
-9.3936
 20
-18.1384
  0
VERTEX
  8
LAYER_1
 10
-9.406
 20
-17.4907
  0
VERTEX
  8
LAYER_1
 10
-9.4261
 20
-16.8417
  0
VERTEX
  8
LAYER_1
 10
-9.452
 20
-16.2435
  0
VERTEX
  8
LAYER_1
 10
-9.482
 20
-15.7481
  0
VERTEX
  8
LAYER_1
 10
-9.5141
 20
-15.4076
  0
VERTEX
  8
LAYER_1
 10
-9.5614
 20
-14.8337
  0
VERTEX
  8
LAYER_1
 10
-9.5715
 20
-14.1345
  0
VERTEX
  8
LAYER_1
 10
-9.5442
 20
-13.3512
  0
VERTEX
  8
LAYER_1
 10
-9.4794
 20
-12.5249
  0
VERTEX
  8
LAYER_1
 10
-9.3768
 20
-11.6968
  0
VERTEX
  8
LAYER_1
 10
-9.2364
 20
-10.908
  0
VERTEX
  8
LAYER_1
 10
-9.0579
 20
-10.1996
  0
VERTEX
  8
LAYER_1
 10
-8.8413
 20
-9.6128
  0
VERTEX
  8
LAYER_1
 10
-8.6484
 20
-9.2404
  0
VERTEX
  8
LAYER_1
 10
-8.4418
 20
-8.8964
  0
VERTEX
  8
LAYER_1
 10
-8.2409
 20
-8.5693
  0
VERTEX
  8
LAYER_1
 10
-8.065
 20
-8.2474
  0
VERTEX
  8
LAYER_1
 10
-8.2633
 20
-8.3614
  0
VERTEX
  8
LAYER_1
 10
-8.5402
 20
-8.4802
  0
VERTEX
  8
LAYER_1
 10
-8.8713
 20
-8.5989
  0
VERTEX
  8
LAYER_1
 10
-9.2323
 20
-8.7124
  0
VERTEX
  8
LAYER_1
 10
-9.9475
 20
-8.9038
  0
VERTEX
  8
LAYER_1
 10
-10.4917
 20
-9.0144
  0
VERTEX
  8
LAYER_1
 10
-11.4629
 20
-9.0963
  0
VERTEX
  8
LAYER_1
 10
-12.4553
 20
-9.0741
  0
VERTEX
  8
LAYER_1
 10
-13.4578
 20
-8.9604
  0
VERTEX
  8
LAYER_1
 10
-14.4598
 20
-8.7675
  0
VERTEX
  8
LAYER_1
 10
-15.4503
 20
-8.5082
  0
VERTEX
  8
LAYER_1
 10
-16.4186
 20
-8.1948
  0
VERTEX
  8
LAYER_1
 10
-17.3537
 20
-7.8398
  0
VERTEX
  8
LAYER_1
 10
-18.2449
 20
-7.4559
  0
VERTEX
  8
LAYER_1
 10
-18.7636
 20
-7.2116
  0
VERTEX
  8
LAYER_1
 10
-19.2813
 20
-6.9513
  0
VERTEX
  8
LAYER_1
 10
-19.7956
 20
-6.6756
  0
VERTEX
  8
LAYER_1
 10
-20.3041
 20
-6.3853
  0
VERTEX
  8
LAYER_1
 10
-20.8042
 20
-6.081
  0
VERTEX
  8
LAYER_1
 10
-21.2935
 20
-5.7633
  0
VERTEX
  8
LAYER_1
 10
-21.7695
 20
-5.433
  0
VERTEX
  8
LAYER_1
 10
-22.2297
 20
-5.0907
  0
VERTEX
  8
LAYER_1
 10
-22.6818
 20
-4.7216
  0
VERTEX
  8
LAYER_1
 10
-23.0823
 20
-4.3584
  0
VERTEX
  8
LAYER_1
 10
-23.4677
 20
-3.9834
  0
VERTEX
  8
LAYER_1
 10
-23.8745
 20
-3.5792
  0
VERTEX
  8
LAYER_1
 10
-24.0182
 20
-3.421
  0
VERTEX
  8
LAYER_1
 10
-24.2008
 20
-3.193
  0
VERTEX
  8
LAYER_1
 10
-24.4023
 20
-2.9174
  0
VERTEX
  8
LAYER_1
 10
-24.6023
 20
-2.6159
  0
VERTEX
  8
LAYER_1
 10
-24.7807
 20
-2.3106
  0
VERTEX
  8
LAYER_1
 10
-24.9174
 20
-2.0234
  0
VERTEX
  8
LAYER_1
 10
-24.9921
 20
-1.7762
  0
VERTEX
  8
LAYER_1
 10
-24.9847
 20
-1.5909
  0
VERTEX
  8
LAYER_1
 10
-24.8543
 20
-1.6007
  0
VERTEX
  8
LAYER_1
 10
-24.6704
 20
-1.6447
  0
VERTEX
  8
LAYER_1
 10
-24.4446
 20
-1.7119
  0
VERTEX
  8
LAYER_1
 10
-24.1886
 20
-1.7912
  0
VERTEX
  8
LAYER_1
 10
-23.9139
 20
-1.8718
  0
VERTEX
  8
LAYER_1
 10
-23.6324
 20
-1.9425
  0
VERTEX
  8
LAYER_1
 10
-23.3556
 20
-1.9924
  0
VERTEX
  8
LAYER_1
 10
-23.0951
 20
-2.0104
  0
VERTEX
  8
LAYER_1
 10
-22.817
 20
-2.0013
  0
VERTEX
  8
LAYER_1
 10
-22.5704
 20
-1.9773
  0
VERTEX
  8
LAYER_1
 10
-22.3467
 20
-1.9375
  0
VERTEX
  8
LAYER_1
 10
-22.137
 20
-1.8812
  0
VERTEX
  8
LAYER_1
 10
-21.9327
 20
-1.8074
  0
VERTEX
  8
LAYER_1
 10
-21.7249
 20
-1.7154
  0
VERTEX
  8
LAYER_1
 10
-21.505
 20
-1.6043
  0
VERTEX
  8
LAYER_1
 10
-21.2642
 20
-1.4733
  0
VERTEX
  8
LAYER_1
 10
-20.2645
 20
-0.8796
  0
VERTEX
  8
LAYER_1
 10
-19.2347
 20
-0.2207
  0
VERTEX
  8
LAYER_1
 10
-18.1751
 20
0.4611
  0
VERTEX
  8
LAYER_1
 10
-17.0858
 20
1.1236
  0
VERTEX
  8
LAYER_1
 10
-15.9671
 20
1.7244
  0
VERTEX
  8
LAYER_1
 10
-14.8193
 20
2.2214
  0
VERTEX
  8
LAYER_1
 10
-13.6425
 20
2.5722
  0
VERTEX
  8
LAYER_1
 10
-12.437
 20
2.7346
  0
VERTEX
  8
LAYER_1
 10
-11.3544
 20
2.7036
  0
VERTEX
  8
LAYER_1
 10
-11.8338
 20
3.1251
  0
VERTEX
  8
LAYER_1
 10
-12.2432
 20
3.4833
  0
VERTEX
  8
LAYER_1
 10
-12.5986
 20
3.808
  0
VERTEX
  8
LAYER_1
 10
-12.9161
 20
4.1293
  0
VERTEX
  8
LAYER_1
 10
-13.2117
 20
4.4771
  0
VERTEX
  8
LAYER_1
 10
-13.5014
 20
4.8816
  0
VERTEX
  8
LAYER_1
 10
-13.8013
 20
5.3726
  0
VERTEX
  8
LAYER_1
 10
-14.1273
 20
5.9801
  0
VERTEX
  8
LAYER_1
 10
-14.3669
 20
6.4927
  0
VERTEX
  8
LAYER_1
 10
-14.5899
 20
7.0512
  0
VERTEX
  8
LAYER_1
 10
-14.7945
 20
7.6427
  0
VERTEX
  8
LAYER_1
 10
-14.9792
 20
8.2539
  0
VERTEX
  8
LAYER_1
 10
-15.1421
 20
8.8719
  0
VERTEX
  8
LAYER_1
 10
-15.2816
 20
9.4836
  0
VERTEX
  8
LAYER_1
 10
-15.396
 20
10.0758
  0
VERTEX
  8
LAYER_1
 10
-15.4835
 20
10.6356
  0
VERTEX
  8
LAYER_1
 10
-15.6124
 20
11.6991
  0
VERTEX
  8
LAYER_1
 10
-15.7003
 20
12.7304
  0
VERTEX
  8
LAYER_1
 10
-15.7418
 20
13.7385
  0
VERTEX
  8
LAYER_1
 10
-15.7315
 20
14.7323
  0
VERTEX
  8
LAYER_1
 10
-15.6642
 20
15.7207
  0
VERTEX
  8
LAYER_1
 10
-15.5345
 20
16.7128
  0
VERTEX
  8
LAYER_1
 10
-15.337
 20
17.7173
  0
VERTEX
  8
LAYER_1
 10
-15.0666
 20
18.7433
  0
VERTEX
  8
LAYER_1
 10
-14.9982
 20
18.9441
  0
VERTEX
  8
LAYER_1
 10
-14.8953
 20
19.2014
  0
VERTEX
  8
LAYER_1
 10
-14.7646
 20
19.4916
  0
VERTEX
  8
LAYER_1
 10
-14.6127
 20
19.7911
  0
VERTEX
  8
LAYER_1
 10
-14.4463
 20
20.0762
  0
VERTEX
  8
LAYER_1
 10
-14.272
 20
20.3233
  0
VERTEX
  8
LAYER_1
 10
-14.0965
 20
20.5088
  0
VERTEX
  8
LAYER_1
 10
-13.9265
 20
20.6091
  0
VERTEX
  8
LAYER_1
 10
-13.861
 20
20.4747
  0
VERTEX
  8
LAYER_1
 10
-13.8027
 20
20.2785
  0
VERTEX
  8
LAYER_1
 10
-13.7459
 20
20.035
  0
VERTEX
  8
LAYER_1
 10
-13.6846
 20
19.7591
  0
VERTEX
  8
LAYER_1
 10
-13.6133
 20
19.4653
  0
VERTEX
  8
LAYER_1
 10
-13.5261
 20
19.1685
  0
VERTEX
  8
LAYER_1
 10
-13.4173
 20
18.8834
  0
VERTEX
  8
LAYER_1
 10
-13.281
 20
18.6245
  0
VERTEX
  8
LAYER_1
 10
-13.1415
 20
18.4216
  0
VERTEX
  8
LAYER_1
 10
-12.9937
 20
18.2405
  0
VERTEX
  8
LAYER_1
 10
-12.837
 20
18.0775
  0
VERTEX
  8
LAYER_1
 10
-12.6711
 20
17.929
  0
VERTEX
  8
LAYER_1
 10
-12.3094
 20
17.6612
  0
VERTEX
  8
LAYER_1
 10
-11.9045
 20
17.4084
  0
VERTEX
  8
LAYER_1
 10
-11.4987
 20
17.1734
  0
VERTEX
  8
LAYER_1
 10
-11.0805
 20
16.943
  0
VERTEX
  8
LAYER_1
 10
-10.6535
 20
16.7166
  0
VERTEX
  8
LAYER_1
 10
-10.2209
 20
16.4937
  0
VERTEX
  8
LAYER_1
 10
-9.7862
 20
16.2736
  0
VERTEX
  8
LAYER_1
 10
-9.3527
 20
16.0559
  0
VERTEX
  8
LAYER_1
 10
-8.9237
 20
15.8399
  0
VERTEX
  8
LAYER_1
 10
-8.5027
 20
15.625
  0
VERTEX
  8
LAYER_1
 10
-8.0909
 20
15.406
  0
VERTEX
  8
LAYER_1
 10
-7.6805
 20
15.1741
  0
VERTEX
  8
LAYER_1
 10
-7.2734
 20
14.9299
  0
VERTEX
  8
LAYER_1
 10
-6.8715
 20
14.6742
  0
VERTEX
  8
LAYER_1
 10
-6.4768
 20
14.4077
  0
VERTEX
  8
LAYER_1
 10
-6.0912
 20
14.1309
  0
VERTEX
  8
LAYER_1
 10
-5.7167
 20
13.8447
  0
VERTEX
  8
LAYER_1
 10
-5.3552
 20
13.5497
  0
VERTEX
  8
LAYER_1
 10
-4.7841
 20
13.0129
  0
VERTEX
  8
LAYER_1
 10
-4.3169
 20
12.4754
  0
VERTEX
  8
LAYER_1
 10
-3.9445
 20
11.96
  0
VERTEX
  8
LAYER_1
 10
-3.6579
 20
11.4901
  0
VERTEX
  8
LAYER_1
 10
-3.4478
 20
11.0887
  0
VERTEX
  8
LAYER_1
 10
-3.3052
 20
10.7789
  0
VERTEX
  8
LAYER_1
 10
-3.221
 20
10.5838
  0
VERTEX
  8
LAYER_1
 10
-3.186
 20
10.5265
  0
VERTEX
  8
LAYER_1
 10
-3.1478
 20
10.7738
  0
VERTEX
  8
LAYER_1
 10
-3.1322
 20
11.2707
  0
VERTEX
  8
LAYER_1
 10
-3.0443
 20
12.0023
  0
VERTEX
  8
LAYER_1
 10
-2.7888
 20
12.9539
  0
VERTEX
  8
LAYER_1
 10
-2.2709
 20
14.1106
  0
VERTEX
  8
LAYER_1
 10
-1.3953
 20
15.4576
  0
VERTEX
  8
LAYER_1
 10
-0.0671
 20
16.9802
  0
VERTEX
  8
LAYER_1
 10
1.8088
 20
18.6634
  0
VERTEX
  8
LAYER_1
 10
2.4939
 20
19.1878
  0
VERTEX
  8
LAYER_1
 10
3.2378
 20
19.7038
  0
VERTEX
  8
LAYER_1
 10
4.0275
 20
20.2016
  0
VERTEX
  8
LAYER_1
 10
4.8502
 20
20.671
  0
VERTEX
  8
LAYER_1
 10
5.693
 20
21.1022
  0
VERTEX
  8
LAYER_1
 10
6.5429
 20
21.4852
  0
VERTEX
  8
LAYER_1
 10
7.3871
 20
21.8099
  0
VERTEX
  8
LAYER_1
 10
8.2126
 20
22.0663
  0
VERTEX
  8
LAYER_1
 10
8.5327
 20
22.1441
  0
VERTEX
  8
LAYER_1
 10
8.9289
 20
22.2231
  0
VERTEX
  8
LAYER_1
 10
9.3709
 20
22.2914
  0
VERTEX
  8
LAYER_1
 10
9.8281
 20
22.3375
  0
SEQEND
  8
LAYER_1
  0
POLYLINE
  8
LAYER_1
 66
     1
 70
     1
  0
VERTEX
  8
LAYER_1
 10
5.1233
 20
-1.672
  0
VERTEX
  8
LAYER_1
 10
5.1614
 20
-1.6652
  0
VERTEX
  8
LAYER_1
 10
5.1581
 20
-1.6519
  0
VERTEX
  8
LAYER_1
 10
5.1373
 20
-1.6431
  0
VERTEX
  8
LAYER_1
 10
5.1233
 20
-1.6498
  0
VERTEX
  8
LAYER_1
 10
5.1233
 20
-1.672
  0
SEQEND
  8
LAYER_1
  0
POLYLINE
  8
LAYER_1
 66
     1
 70
     1
  0
VERTEX
  8
LAYER_1
 10
-5.2094
 20
1.672
  0
VERTEX
  8
LAYER_1
 10
-5.1982
 20
1.6608
  0
VERTEX
  8
LAYER_1
 10
-5.2094
 20
1.672
  0
SEQEND
  8
LAYER_1
  0
POLYLINE
  8
LAYER_1
 66
     1
 70
     1
  0
VERTEX
  8
LAYER_1
 10
0.8775
 20
-5.4294
  0
VERTEX
  8
LAYER_1
 10
0.8887
 20
-5.4182
  0
VERTEX
  8
LAYER_1
 10
0.8888
 20
-5.4182
  0
VERTEX
  8
LAYER_1
 10
0.8775
 20
-5.4294
  0
SEQEND
  8
LAYER_1
  0
POLYLINE
  8
LAYER_1
 66
     1
 70
     1
  0
VERTEX
  8
LAYER_1
 10
11.344
 20
-13.3364
  0
VERTEX
  8
LAYER_1
 10
11.3537
 20
-13.3208
  0
VERTEX
  8
LAYER_1
 10
11.3559
 20
-13.244
  0
VERTEX
  8
LAYER_1
 10
11.3133
 20
-13.0842
  0
VERTEX
  8
LAYER_1
 10
11.2386
 20
-12.868
  0
VERTEX
  8
LAYER_1
 10
11.1444
 20
-12.6217
  0
VERTEX
  8
LAYER_1
 10
10.9473
 20
-12.1451
  0
VERTEX
  8
LAYER_1
 10
10.8226
 20
-11.8664
  0
VERTEX
  8
LAYER_1
 10
10.6324
 20
-11.5326
  0
VERTEX
  8
LAYER_1
 10
10.4354
 20
-11.2552
  0
VERTEX
  8
LAYER_1
 10
10.2243
 20
-10.9932
  0
VERTEX
  8
LAYER_1
 10
9.9916
 20
-10.706
  0
VERTEX
  8
LAYER_1
 10
9.7922
 20
-10.4893
  0
VERTEX
  8
LAYER_1
 10
9.5376
 20
-10.2662
  0
VERTEX
  8
LAYER_1
 10
9.2437
 20
-10.04
  0
VERTEX
  8
LAYER_1
 10
8.9263
 20
-9.814
  0
VERTEX
  8
LAYER_1
 10
8.2839
 20
-9.3757
  0
VERTEX
  8
LAYER_1
 10
7.7369
 20
-8.978
  0
VERTEX
  8
LAYER_1
 10
6.9935
 20
-8.2413
  0
VERTEX
  8
LAYER_1
 10
6.4304
 20
-7.4241
  0
VERTEX
  8
LAYER_1
 10
6.0177
 20
-6.575
  0
VERTEX
  8
LAYER_1
 10
5.7254
 20
-5.7425
  0
VERTEX
  8
LAYER_1
 10
5.5235
 20
-4.9752
  0
VERTEX
  8
LAYER_1
 10
5.3821
 20
-4.3217
  0
VERTEX
  8
LAYER_1
 10
5.2712
 20
-3.8307
  0
VERTEX
  8
LAYER_1
 10
5.1609
 20
-3.5507
  0
VERTEX
  8
LAYER_1
 10
4.9716
 20
-4.461
  0
VERTEX
  8
LAYER_1
 10
4.8563
 20
-5.3166
  0
VERTEX
  8
LAYER_1
 10
4.8329
 20
-6.123
  0
VERTEX
  8
LAYER_1
 10
4.9194
 20
-6.886
  0
VERTEX
  8
LAYER_1
 10
5.1336
 20
-7.6112
  0
VERTEX
  8
LAYER_1
 10
5.4935
 20
-8.3044
  0
VERTEX
  8
LAYER_1
 10
6.0169
 20
-8.9711
  0
VERTEX
  8
LAYER_1
 10
6.7218
 20
-9.6172
  0
VERTEX
  8
LAYER_1
 10
7.0365
 20
-9.8486
  0
VERTEX
  8
LAYER_1
 10
7.3596
 20
-10.0547
  0
VERTEX
  8
LAYER_1
 10
7.689
 20
-10.2426
  0
VERTEX
  8
LAYER_1
 10
8.0223
 20
-10.4195
  0
VERTEX
  8
LAYER_1
 10
8.3575
 20
-10.5924
  0
VERTEX
  8
LAYER_1
 10
8.6923
 20
-10.7683
  0
VERTEX
  8
LAYER_1
 10
9.0244
 20
-10.9545
  0
VERTEX
  8
LAYER_1
 10
9.3518
 20
-11.1579
  0
VERTEX
  8
LAYER_1
 10
9.6482
 20
-11.374
  0
VERTEX
  8
LAYER_1
 10
9.9268
 20
-11.6119
  0
VERTEX
  8
LAYER_1
 10
10.1925
 20
-11.8648
  0
VERTEX
  8
LAYER_1
 10
10.4503
 20
-12.126
  0
VERTEX
  8
LAYER_1
 10
10.6985
 20
-12.4195
  0
VERTEX
  8
LAYER_1
 10
10.9172
 20
-12.7319
  0
VERTEX
  8
LAYER_1
 10
11.1258
 20
-13.044
  0
VERTEX
  8
LAYER_1
 10
11.344
 20
-13.3364
  0
SEQEND
  8
LAYER_1
  0
POLYLINE
  8
LAYER_1
 66
     1
 70
     1
  0
VERTEX
  8
LAYER_1
 10
11.3606
 20
-13.395
  0
VERTEX
  8
LAYER_1
 10
11.3718
 20
-13.3838
  0
VERTEX
  8
LAYER_1
 10
11.3606
 20
-13.395
  0
SEQEND
  8
LAYER_1
  0
POLYLINE
  8
LAYER_1
 66
     1
 70
     1
  0
VERTEX
  8
LAYER_1
 10
-5.0591
 20
-16.9269
  0
VERTEX
  8
LAYER_1
 10
-4.8302
 20
-16.7291
  0
VERTEX
  8
LAYER_1
 10
-4.5959
 20
-16.4736
  0
VERTEX
  8
LAYER_1
 10
-4.3638
 20
-16.1756
  0
VERTEX
  8
LAYER_1
 10
-4.1416
 20
-15.85
  0
VERTEX
  8
LAYER_1
 10
-3.937
 20
-15.5119
  0
VERTEX
  8
LAYER_1
 10
-3.7576
 20
-15.1764
  0
VERTEX
  8
LAYER_1
 10
-3.6112
 20
-14.8583
  0
VERTEX
  8
LAYER_1
 10
-3.5054
 20
-14.5729
  0
VERTEX
  8
LAYER_1
 10
-3.3901
 20
-14.1405
  0
VERTEX
  8
LAYER_1
 10
-3.3102
 20
-13.712
  0
VERTEX
  8
LAYER_1
 10
-3.2557
 20
-13.2862
  0
VERTEX
  8
LAYER_1
 10
-3.2165
 20
-12.8622
  0
VERTEX
  8
LAYER_1
 10
-3.1823
 20
-12.4388
  0
VERTEX
  8
LAYER_1
 10
-3.1432
 20
-12.0148
  0
VERTEX
  8
LAYER_1
 10
-3.0891
 20
-11.5892
  0
VERTEX
  8
LAYER_1
 10
-3.0098
 20
-11.1609
  0
VERTEX
  8
LAYER_1
 10
-2.924
 20
-10.8536
  0
VERTEX
  8
LAYER_1
 10
-2.7997
 20
-10.5195
  0
VERTEX
  8
LAYER_1
 10
-2.6438
 20
-10.1707
  0
VERTEX
  8
LAYER_1
 10
-2.4631
 20
-9.8194
  0
VERTEX
  8
LAYER_1
 10
-2.2645
 20
-9.4778
  0
VERTEX
  8
LAYER_1
 10
-2.055
 20
-9.158
  0
VERTEX
  8
LAYER_1
 10
-1.8413
 20
-8.8722
  0
VERTEX
  8
LAYER_1
 10
-1.6305
 20
-8.6325
  0
VERTEX
  8
LAYER_1
 10
-1.4005
 20
-8.3798
  0
VERTEX
  8
LAYER_1
 10
-1.1761
 20
-8.118
  0
VERTEX
  8
LAYER_1
 10
-0.9435
 20
-7.8605
  0
VERTEX
  8
LAYER_1
 10
-0.6887
 20
-7.6206
  0
VERTEX
  8
LAYER_1
 10
-0.4463
 20
-7.4174
  0
VERTEX
  8
LAYER_1
 10
-0.1389
 20
-7.1528
  0
VERTEX
  8
LAYER_1
 10
0.1537
 20
-6.8843
  0
VERTEX
  8
LAYER_1
 10
0.3515
 20
-6.6693
  0
VERTEX
  8
LAYER_1
 10
0.0597
 20
-6.7387
  0
VERTEX
  8
LAYER_1
 10
-0.2889
 20
-6.8484
  0
VERTEX
  8
LAYER_1
 10
-0.6734
 20
-6.9896
  0
VERTEX
  8
LAYER_1
 10
-1.073
 20
-7.1535
  0
VERTEX
  8
LAYER_1
 10
-1.4666
 20
-7.3313
  0
VERTEX
  8
LAYER_1
 10
-1.8334
 20
-7.5142
  0
VERTEX
  8
LAYER_1
 10
-2.1525
 20
-7.6934
  0
VERTEX
  8
LAYER_1
 10
-2.403
 20
-7.8601
  0
VERTEX
  8
LAYER_1
 10
-2.7057
 20
-8.108
  0
VERTEX
  8
LAYER_1
 10
-2.9672
 20
-8.3643
  0
VERTEX
  8
LAYER_1
 10
-3.1929
 20
-8.632
  0
VERTEX
  8
LAYER_1
 10
-3.3878
 20
-8.9139
  0
VERTEX
  8
LAYER_1
 10
-3.5573
 20
-9.213
  0
VERTEX
  8
LAYER_1
 10
-3.7065
 20
-9.5323
  0
VERTEX
  8
LAYER_1
 10
-3.8407
 20
-9.8746
  0
VERTEX
  8
LAYER_1
 10
-3.9651
 20
-10.2431
  0
VERTEX
  8
LAYER_1
 10
-4.1403
 20
-10.9627
  0
VERTEX
  8
LAYER_1
 10
-4.2112
 20
-11.6246
  0
VERTEX
  8
LAYER_1
 10
-4.2139
 20
-12.2494
  0
VERTEX
  8
LAYER_1
 10
-4.1842
 20
-12.8575
  0
VERTEX
  8
LAYER_1
 10
-4.1582
 20
-13.4694
  0
VERTEX
  8
LAYER_1
 10
-4.1718
 20
-14.1056
  0
VERTEX
  8
LAYER_1
 10
-4.261
 20
-14.7866
  0
VERTEX
  8
LAYER_1
 10
-4.4618
 20
-15.5328
  0
VERTEX
  8
LAYER_1
 10
-4.605
 20
-15.8894
  0
VERTEX
  8
LAYER_1
 10
-4.7761
 20
-16.2563
  0
VERTEX
  8
LAYER_1
 10
-4.9393
 20
-16.61
  0
VERTEX
  8
LAYER_1
 10
-5.0591
 20
-16.9269
  0
SEQEND
  8
LAYER_1
  0
POLYLINE
  8
LAYER_1
 66
     1
 70
     1
  0
VERTEX
  8
LAYER_1
 10
-5.0967
 20
-16.9269
  0
VERTEX
  8
LAYER_1
 10
-5.0855
 20
-16.9381
  0
VERTEX
  8
LAYER_1
 10
-5.0967
 20
-16.9269
  0
SEQEND
  8
LAYER_1
  0
POLYLINE
  8
LAYER_1
 66
     1
 70
     1
  0
VERTEX
  8
LAYER_1
 10
-16.1932
 20
-4.2899
  0
VERTEX
  8
LAYER_1
 10
-16.1877
 20
-4.3004
  0
VERTEX
  8
LAYER_1
 10
-16.122
 20
-4.332
  0
VERTEX
  8
LAYER_1
 10
-15.9598
 20
-4.3685
  0
VERTEX
  8
LAYER_1
 10
-15.7314
 20
-4.4074
  0
VERTEX
  8
LAYER_1
 10
-15.4674
 20
-4.4462
  0
VERTEX
  8
LAYER_1
 10
-14.9536
 20
-4.5131
  0
VERTEX
  8
LAYER_1
 10
-14.6618
 20
-4.5489
  0
VERTEX
  8
LAYER_1
 10
-14.4904
 20
-4.5622
  0
VERTEX
  8
LAYER_1
 10
-14.2946
 20
-4.5615
  0
VERTEX
  8
LAYER_1
 10
-14.0824
 20
-4.5487
  0
VERTEX
  8
LAYER_1
 10
-13.862
 20
-4.5261
  0
VERTEX
  8
LAYER_1
 10
-13.4293
 20
-4.4594
  0
VERTEX
  8
LAYER_1
 10
-13.0618
 20
-4.3778
  0
VERTEX
  8
LAYER_1
 10
-12.2253
 20
-4.0873
  0
VERTEX
  8
LAYER_1
 10
-11.4876
 20
-3.7427
  0
VERTEX
  8
LAYER_1
 10
-10.7679
 20
-3.4032
  0
VERTEX
  8
LAYER_1
 10
-9.9852
 20
-3.128
  0
VERTEX
  8
LAYER_1
 10
-9.0587
 20
-2.976
  0
VERTEX
  8
LAYER_1
 10
-7.9077
 20
-3.0065
  0
VERTEX
  8
LAYER_1
 10
-6.4511
 20
-3.2786
  0
VERTEX
  8
LAYER_1
 10
-4.6082
 20
-3.8513
  0
VERTEX
  8
LAYER_1
 10
-4.7249
 20
-3.6853
  0
VERTEX
  8
LAYER_1
 10
-4.9605
 20
-3.46
  0
VERTEX
  8
LAYER_1
 10
-5.28
 20
-3.1973
  0
VERTEX
  8
LAYER_1
 10
-5.6482
 20
-2.9192
  0
VERTEX
  8
LAYER_1
 10
-6.0301
 20
-2.6478
  0
VERTEX
  8
LAYER_1
 10
-6.3907
 20
-2.4049
  0
VERTEX
  8
LAYER_1
 10
-6.6949
 20
-2.2126
  0
VERTEX
  8
LAYER_1
 10
-6.9077
 20
-2.0928
  0
VERTEX
  8
LAYER_1
 10
-7.313
 20
-1.9253
  0
VERTEX
  8
LAYER_1
 10
-7.7325
 20
-1.8097
  0
VERTEX
  8
LAYER_1
 10
-8.162
 20
-1.7427
  0
VERTEX
  8
LAYER_1
 10
-8.5973
 20
-1.7206
  0
VERTEX
  8
LAYER_1
 10
-9.0344
 20
-1.7402
  0
VERTEX
  8
LAYER_1
 10
-9.4692
 20
-1.7981
  0
VERTEX
  8
LAYER_1
 10
-9.8974
 20
-1.8906
  0
VERTEX
  8
LAYER_1
 10
-10.315
 20
-2.0146
  0
VERTEX
  8
LAYER_1
 10
-10.7082
 20
-2.162
  0
VERTEX
  8
LAYER_1
 10
-11.0588
 20
-2.3213
  0
VERTEX
  8
LAYER_1
 10
-11.379
 20
-2.4912
  0
VERTEX
  8
LAYER_1
 10
-11.6805
 20
-2.6702
  0
VERTEX
  8
LAYER_1
 10
-12.2751
 20
-3.05
  0
VERTEX
  8
LAYER_1
 10
-12.938
 20
-3.4495
  0
VERTEX
  8
LAYER_1
 10
-13.511
 20
-3.7351
  0
VERTEX
  8
LAYER_1
 10
-14.0192
 20
-3.9285
  0
VERTEX
  8
LAYER_1
 10
-14.4714
 20
-4.05
  0
VERTEX
  8
LAYER_1
 10
-14.8761
 20
-4.1199
  0
VERTEX
  8
LAYER_1
 10
-15.2419
 20
-4.1585
  0
VERTEX
  8
LAYER_1
 10
-15.5777
 20
-4.1862
  0
VERTEX
  8
LAYER_1
 10
-15.8919
 20
-4.2232
  0
VERTEX
  8
LAYER_1
 10
-16.1932
 20
-4.2899
  0
SEQEND
  8
LAYER_1
  0
POLYLINE
  8
LAYER_1
 66
     1
 70
     1
  0
VERTEX
  8
LAYER_1
 10
-5.8683
 20
2.8194
  0
VERTEX
  8
LAYER_1
 10
-5.8142
 20
2.9309
  0
VERTEX
  8
LAYER_1
 10
-5.7607
 20
3.1202
  0
VERTEX
  8
LAYER_1
 10
-5.7092
 20
3.3633
  0
VERTEX
  8
LAYER_1
 10
-5.661
 20
3.6363
  0
VERTEX
  8
LAYER_1
 10
-5.5803
 20
4.176
  0
VERTEX
  8
LAYER_1
 10
-5.5296
 20
4.5472
  0
VERTEX
  8
LAYER_1
 10
-5.4796
 20
5.2046
  0
VERTEX
  8
LAYER_1
 10
-5.521
 20
5.8234
  0
VERTEX
  8
LAYER_1
 10
-5.6487
 20
6.4062
  0
VERTEX
  8
LAYER_1
 10
-5.8575
 20
6.9556
  0
VERTEX
  8
LAYER_1
 10
-6.1423
 20
7.4744
  0
VERTEX
  8
LAYER_1
 10
-6.4979
 20
7.9653
  0
VERTEX
  8
LAYER_1
 10
-6.9193
 20
8.4308
  0
VERTEX
  8
LAYER_1
 10
-7.4012
 20
8.8737
  0
VERTEX
  8
LAYER_1
 10
-7.7029
 20
9.1043
  0
VERTEX
  8
LAYER_1
 10
-8.024
 20
9.3092
  0
VERTEX
  8
LAYER_1
 10
-8.3587
 20
9.4959
  0
VERTEX
  8
LAYER_1
 10
-8.7012
 20
9.6717
  0
VERTEX
  8
LAYER_1
 10
-9.0457
 20
9.8438
  0
VERTEX
  8
LAYER_1
 10
-9.3865
 20
10.0196
  0
VERTEX
  8
LAYER_1
 10
-9.7179
 20
10.2064
  0
VERTEX
  8
LAYER_1
 10
-10.034
 20
10.4115
  0
VERTEX
  8
LAYER_1
 10
-10.5173
 20
10.7819
  0
VERTEX
  8
LAYER_1
 10
-10.8923
 20
11.1236
  0
VERTEX
  8
LAYER_1
 10
-11.18
 20
11.4374
  0
VERTEX
  8
LAYER_1
 10
-11.4015
 20
11.7237
  0
VERTEX
  8
LAYER_1
 10
-11.578
 20
11.9831
  0
VERTEX
  8
LAYER_1
 10
-11.7304
 20
12.2162
  0
VERTEX
  8
LAYER_1
 10
-11.88
 20
12.4236
  0
VERTEX
  8
LAYER_1
 10
-12.0478
 20
12.6059
  0
VERTEX
  8
LAYER_1
 10
-11.9823
 20
12.289
  0
VERTEX
  8
LAYER_1
 10
-11.8706
 20
11.9417
  0
VERTEX
  8
LAYER_1
 10
-11.7208
 20
11.5777
  0
VERTEX
  8
LAYER_1
 10
-11.5411
 20
11.2107
  0
VERTEX
  8
LAYER_1
 10
-11.3396
 20
10.8543
  0
VERTEX
  8
LAYER_1
 10
-11.1244
 20
10.5221
  0
VERTEX
  8
LAYER_1
 10
-10.9038
 20
10.2279
  0
VERTEX
  8
LAYER_1
 10
-10.6858
 20
9.9852
  0
VERTEX
  8
LAYER_1
 10
-10.1377
 20
9.495
  0
VERTEX
  8
LAYER_1
 10
-9.5925
 20
9.0832
  0
VERTEX
  8
LAYER_1
 10
-9.0567
 20
8.708
  0
VERTEX
  8
LAYER_1
 10
-8.5367
 20
8.3279
  0
VERTEX
  8
LAYER_1
 10
-8.039
 20
7.9011
  0
VERTEX
  8
LAYER_1
 10
-7.57
 20
7.3859
  0
VERTEX
  8
LAYER_1
 10
-7.1361
 20
6.7407
  0
VERTEX
  8
LAYER_1
 10
-6.7439
 20
5.9238
  0
VERTEX
  8
LAYER_1
 10
-6.2453
 20
4.4311
  0
VERTEX
  8
LAYER_1
 10
-5.8683
 20
2.8194
  0
SEQEND
  8
LAYER_1
  0
POLYLINE
  8
LAYER_1
 66
     1
 70
     1
  0
VERTEX
  8
LAYER_1
 10
4.7852
 20
16.1003
  0
VERTEX
  8
LAYER_1
 10
4.7964
 20
16.1115
  0
VERTEX
  8
LAYER_1
 10
4.7852
 20
16.1003
  0
SEQEND
  8
LAYER_1
  0
POLYLINE
  8
LAYER_1
 66
     1
 70
     1
  0
VERTEX
  8
LAYER_1
 10
-0.6254
 20
5.8427
  0
VERTEX
  8
LAYER_1
 10
0.1485
 20
6.0689
  0
VERTEX
  8
LAYER_1
 10
0.8575
 20
6.3305
  0
VERTEX
  8
LAYER_1
 10
1.5006
 20
6.6414
  0
VERTEX
  8
LAYER_1
 10
2.0767
 20
7.0153
  0
VERTEX
  8
LAYER_1
 10
2.5849
 20
7.466
  0
VERTEX
  8
LAYER_1
 10
3.0241
 20
8.0072
  0
VERTEX
  8
LAYER_1
 10
3.3932
 20
8.6528
  0
VERTEX
  8
LAYER_1
 10
3.6912
 20
9.4165
  0
VERTEX
  8
LAYER_1
 10
3.8671
 20
10.1364
  0
VERTEX
  8
LAYER_1
 10
3.9379
 20
10.7926
  0
VERTEX
  8
LAYER_1
 10
3.9399
 20
11.4085
  0
VERTEX
  8
LAYER_1
 10
3.9093
 20
12.0076
  0
VERTEX
  8
LAYER_1
 10
3.8825
 20
12.6134
  0
VERTEX
  8
LAYER_1
 10
3.8959
 20
13.2494
  0
VERTEX
  8
LAYER_1
 10
3.9857
 20
13.939
  0
VERTEX
  8
LAYER_1
 10
4.1883
 20
14.7058
  0
VERTEX
  8
LAYER_1
 10
4.3312
 20
15.0665
  0
VERTEX
  8
LAYER_1
 10
4.5014
 20
15.4307
  0
VERTEX
  8
LAYER_1
 10
4.6643
 20
15.781
  0
VERTEX
  8
LAYER_1
 10
4.7852
 20
16.1003
  0
VERTEX
  8
LAYER_1
 10
4.5651
 20
15.9199
  0
VERTEX
  8
LAYER_1
 10
4.3324
 20
15.6682
  0
VERTEX
  8
LAYER_1
 10
4.0971
 20
15.3646
  0
VERTEX
  8
LAYER_1
 10
3.8693
 20
15.0284
  0
VERTEX
  8
LAYER_1
 10
3.6588
 20
14.6792
  0
VERTEX
  8
LAYER_1
 10
3.4756
 20
14.3361
  0
VERTEX
  8
LAYER_1
 10
3.3299
 20
14.0188
  0
VERTEX
  8
LAYER_1
 10
3.2314
 20
13.7465
  0
VERTEX
  8
LAYER_1
 10
3.1202
 20
13.3056
  0
VERTEX
  8
LAYER_1
 10
3.0424
 20
12.874
  0
VERTEX
  8
LAYER_1
 10
2.9885
 20
12.4492
  0
VERTEX
  8
LAYER_1
 10
2.9487
 20
12.0284
  0
VERTEX
  8
LAYER_1
 10
2.9132
 20
11.6091
  0
VERTEX
  8
LAYER_1
 10
2.8724
 20
11.1888
  0
VERTEX
  8
LAYER_1
 10
2.8165
 20
10.7647
  0
VERTEX
  8
LAYER_1
 10
2.7359
 20
10.3343
  0
VERTEX
  8
LAYER_1
 10
2.5974
 20
9.8739
  0
VERTEX
  8
LAYER_1
 10
2.3877
 20
9.3896
  0
VERTEX
  8
LAYER_1
 10
2.1205
 20
8.8961
  0
VERTEX
  8
LAYER_1
 10
1.8095
 20
8.4082
  0
VERTEX
  8
LAYER_1
 10
1.4684
 20
7.9406
  0
VERTEX
  8
LAYER_1
 10
1.1109
 20
7.508
  0
VERTEX
  8
LAYER_1
 10
0.7508
 20
7.1252
  0
VERTEX
  8
LAYER_1
 10
0.4017
 20
6.807
  0
VERTEX
  8
LAYER_1
 10
0.1696
 20
6.6081
  0
VERTEX
  8
LAYER_1
 10
-0.1386
 20
6.3322
  0
VERTEX
  8
LAYER_1
 10
-0.4334
 20
6.0527
  0
VERTEX
  8
LAYER_1
 10
-0.6254
 20
5.8427
  0
SEQEND
  8
LAYER_1
  0
POLYLINE
  8
LAYER_1
 66
     1
 70
     1
  0
VERTEX
  8
LAYER_1
 10
4.8228
 20
3.0247
  0
VERTEX
  8
LAYER_1
 10
4.9506
 20
2.8515
  0
VERTEX
  8
LAYER_1
 10
5.1899
 20
2.6243
  0
VERTEX
  8
LAYER_1
 10
5.5078
 20
2.3637
  0
VERTEX
  8
LAYER_1
 10
5.8715
 20
2.0898
  0
VERTEX
  8
LAYER_1
 10
6.2481
 20
1.8232
  0
VERTEX
  8
LAYER_1
 10
6.6047
 20
1.5843
  0
VERTEX
  8
LAYER_1
 10
6.9085
 20
1.3933
  0
VERTEX
  8
LAYER_1
 10
7.1267
 20
1.2707
  0
VERTEX
  8
LAYER_1
 10
7.529
 20
1.1045
  0
VERTEX
  8
LAYER_1
 10
7.9495
 20
0.9919
  0
VERTEX
  8
LAYER_1
 10
8.3827
 20
0.9287
  0
VERTEX
  8
LAYER_1
 10
8.8232
 20
0.9106
  0
VERTEX
  8
LAYER_1
 10
9.2655
 20
0.9335
  0
VERTEX
  8
LAYER_1
 10
9.7041
 20
0.9933
  0
VERTEX
  8
LAYER_1
 10
10.1336
 20
1.0857
  0
VERTEX
  8
LAYER_1
 10
10.5485
 20
1.2066
  0
VERTEX
  8
LAYER_1
 10
11.2443
 20
1.4917
  0
VERTEX
  8
LAYER_1
 10
11.8616
 20
1.8332
  0
VERTEX
  8
LAYER_1
 10
12.4455
 20
2.2021
  0
VERTEX
  8
LAYER_1
 10
13.0408
 20
2.5693
  0
VERTEX
  8
LAYER_1
 10
13.6922
 20
2.9056
  0
VERTEX
  8
LAYER_1
 10
14.4449
 20
3.1818
  0
VERTEX
  8
LAYER_1
 10
15.3435
 20
3.369
  0
VERTEX
  8
LAYER_1
 10
16.433
 20
3.438
  0
VERTEX
  8
LAYER_1
 10
16.3315
 20
3.4915
  0
VERTEX
  8
LAYER_1
 10
16.1684
 20
3.5426
  0
VERTEX
  8
LAYER_1
 10
15.9626
 20
3.5901
  0
VERTEX
  8
LAYER_1
 10
15.7334
 20
3.6329
  0
VERTEX
  8
LAYER_1
 10
15.281
 20
3.7
  0
VERTEX
  8
LAYER_1
 10
14.9643
 20
3.7352
  0
VERTEX
  8
LAYER_1
 10
14.5546
 20
3.7471
  0
VERTEX
  8
LAYER_1
 10
14.1406
 20
3.7202
  0
VERTEX
  8
LAYER_1
 10
13.7296
 20
3.6604
  0
VERTEX
  8
LAYER_1
 10
13.329
 20
3.5736
  0
VERTEX
  8
LAYER_1
 10
12.6698
 20
3.362
  0
VERTEX
  8
LAYER_1
 10
12.069
 20
3.0995
  0
VERTEX
  8
LAYER_1
 10
11.4904
 20
2.8182
  0
VERTEX
  8
LAYER_1
 10
10.8977
 20
2.5503
  0
VERTEX
  8
LAYER_1
 10
10.2548
 20
2.328
  0
VERTEX
  8
LAYER_1
 10
9.5254
 20
2.1836
  0
VERTEX
  8
LAYER_1
 10
8.6733
 20
2.1492
  0
VERTEX
  8
LAYER_1
 10
7.6623
 20
2.2571
  0
VERTEX
  8
LAYER_1
 10
6.1911
 20
2.5895
  0
VERTEX
  8
LAYER_1
 10
5.8616
 20
2.6972
  0
VERTEX
  8
LAYER_1
 10
5.4949
 20
2.8292
  0
VERTEX
  8
LAYER_1
 10
5.1342
 20
2.9502
  0
VERTEX
  8
LAYER_1
 10
4.8228
 20
3.0247
  0
SEQEND
  8
LAYER_1
  0
ENDSEC
  0
EOF
