  0
SECTION
  2
HEADER
  9
$ACADVER
  1
AC1002
  9
$INSBASE
 10
0.0
 20
0.0
  9
$EXTMIN
 10
-25.0381
 20
-21.8709
  9
$EXTMAX
 10
25.0381
 20
22.871
  9
$LIMMIN
 10
0.0
 20
0.0
  9
$LIMMAX
 10
12.0
 20
9.0
  9
$ORTHOMODE
 70
     0
  9
$REGENMODE
 70
     1
  9
$FILLMODE
 70
     1
  9
$QTEXTMODE
 70
     0
  9
$DRAGMODE
 70
     2
  9
$LTSCALE
 40
1.0
  9
$OSMODE
 70
    37
  9
$ATTMODE
 70
     1
  9
$TEXTSIZE
 40
0.2
  9
$TRACEWID
 40
0.05
  9
$TEXTSTYLE
  7
STANDARD
  9
$CLAYER
  8
0
  9
$CELTYPE
  6
BYLAYER
  9
$CECOLOR
 62
   256
  9
$DIMSCALE
 40
1.0
  9
$DIMASZ
 40
0.18
  9
$DIMEXO
 40
0.0625
  9
$DIMDLI
 40
0.38
  9
$DIMRND
 40
0.0
  9
$DIMDLE
 40
0.0
  9
$DIMEXE
 40
0.18
  9
$DIMTP
 40
0.0
  9
$DIMTM
 40
0.0
  9
$DIMTXT
 40
0.18
  9
$DIMCEN
 40
0.09
  9
$DIMTSZ
 40
0.0
  9
$DIMTOL
 70
     0
  9
$DIMLIM
 70
     0
  9
$DIMTIH
 70
     1
  9
$DIMTOH
 70
     1
  9
$DIMSE1
 70
     0
  9
$DIMSE2
 70
     0
  9
$DIMTAD
 70
     0
  9
$DIMZIN
 70
     0
  9
$DIMBLK
  1

  9
$LUNITS
 70
     2
  9
$LUPREC
 70
     4
  9
$SKETCHINC
 40
0.1
  9
$FILLETRAD
 40
0.5
  9
$AUNITS
 70
     0
  9
$AUPREC
 70
     0
  9
$MENU
  1
.
  9
$ELEVATION
 40
0.0
  9
$THICKNESS
 40
0.0
  9
$LIMCHECK
 70
     0
  9
$CHAMFERA
 40
0.0
  9
$CHAMFERB
 40
0.0
  9
$SKPOLY
 70
     0
  9
$TDCREATE
 40
2457113.611842766
  9
$TDUPDATE
 40
2457113.611842778
  9
$TDINDWG
 40
0.0000000116
  9
$TDUSRTIMER
 40
0.0000000116
  9
$USRTIMER
 70
     1
  9
$ANGBASE
 50
0.0
  9
$ANGDIR
 70
     0
  9
$PDMODE
 70
     0
  9
$PDSIZE
 40
0.0
  9
$PLINEWID
 40
0.0
  9
$COORDS
 70
     1
  9
$SURFTAB1
 70
     6
  9
$SURFTAB2
 70
     6
  9
$SURFTYPE
 70
     6
  9
$SURFU
 70
     6
  9
$SURFV
 70
     6
  9
$UCSNAME
  2

  9
$UCSORG
 10
0.0
 20
0.0
 30
0.0
  9
$UCSXDIR
 10
1.0
 20
0.0
 30
0.0
  9
$UCSYDIR
 10
0.0
 20
1.0
 30
0.0
  9
$USERI1
 70
     0
  9
$USERI2
 70
     0
  9
$USERI3
 70
     0
  9
$USERI4
 70
     0
  9
$USERI5
 70
     0
  9
$USERR1
 40
0.0
  9
$USERR2
 40
0.0
  9
$USERR3
 40
0.0
  9
$USERR4
 40
0.0
  9
$USERR5
 40
0.0
  0
ENDSEC
  0
SECTION
  2
TABLES
  0
TABLE
  2
LTYPE
 70
     1
  0
LTYPE
  2
CONTINUOUS
 70
     0
  3
Solid line
 72
    65
 73
     0
 40
0.0
  0
ENDTAB
  0
TABLE
  2
LAYER
 70
     2
  0
LAYER
  2
0
 70
     0
 62
     7
  6
CONTINUOUS
  0
LAYER
  2
LAYER_1
 70
     0
 62
     7
  6
CONTINUOUS
  0
ENDTAB
  0
TABLE
  2
STYLE
 70
     1
  0
STYLE
  2
STANDARD
 70
     0
 40
0.0
 41
1.0
 50
0.0
 71
     0
 42
0.2
  3
txt
  4

  0
ENDTAB
  0
TABLE
  2
VIEW
 70
     0
  0
ENDTAB
  0
ENDSEC
  0
SECTION
  2
BLOCKS
  0
ENDSEC
  0
SECTION
  2
ENTITIES
  0
POLYLINE
  8
LAYER_1
 62
   242
 66
     1
 70
     1
  0
VERTEX
  8
LAYER_1
 62
   242
 10
-11.4012
 20
3.2235
  0
VERTEX
  8
LAYER_1
 62
   242
 10
-11.3204
 20
3.2029
  0
VERTEX
  8
LAYER_1
 62
   242
 10
-11.4012
 20
3.2235
  0
SEQEND
  8
LAYER_1
 62
   242
  0
POLYLINE
  8
LAYER_1
 62
   242
 66
     1
 70
     1
  0
VERTEX
  8
LAYER_1
 62
   242
 10
-8.0954
 20
-7.7832
  0
VERTEX
  8
LAYER_1
 62
   242
 10
-8.0954
 20
-7.7832
  0
SEQEND
  8
LAYER_1
 62
   242
  0
POLYLINE
  8
LAYER_1
 62
   242
 66
     1
 70
     1
  0
VERTEX
  8
LAYER_1
 62
   242
 10
9.6965
 20
22.8329
  0
VERTEX
  8
LAYER_1
 62
   242
 10
10.3985
 20
22.8329
  0
VERTEX
  8
LAYER_1
 62
   242
 10
10.7909
 20
22.786
  0
VERTEX
  8
LAYER_1
 62
   242
 10
11.0631
 20
22.6826
  0
VERTEX
  8
LAYER_1
 62
   242
 10
10.993
 20
22.5665
  0
VERTEX
  8
LAYER_1
 62
   242
 10
10.8497
 20
22.4195
  0
VERTEX
  8
LAYER_1
 62
   242
 10
10.6528
 20
22.2416
  0
VERTEX
  8
LAYER_1
 62
   242
 10
10.4221
 20
22.0328
  0
VERTEX
  8
LAYER_1
 62
   242
 10
10.1772
 20
21.7928
  0
VERTEX
  8
LAYER_1
 62
   242
 10
9.9379
 20
21.5216
  0
VERTEX
  8
LAYER_1
 62
   242
 10
9.7238
 20
21.2192
  0
VERTEX
  8
LAYER_1
 62
   242
 10
9.5546
 20
20.8853
  0
VERTEX
  8
LAYER_1
 62
   242
 10
9.4792
 20
20.6866
  0
VERTEX
  8
LAYER_1
 62
   242
 10
9.4161
 20
20.484
  0
VERTEX
  8
LAYER_1
 62
   242
 10
9.3676
 20
20.2644
  0
VERTEX
  8
LAYER_1
 62
   242
 10
9.336
 20
20.0145
  0
VERTEX
  8
LAYER_1
 62
   242
 10
9.3058
 20
19.3588
  0
VERTEX
  8
LAYER_1
 62
   242
 10
9.3112
 20
18.6787
  0
VERTEX
  8
LAYER_1
 62
   242
 10
9.3382
 20
18.0
  0
VERTEX
  8
LAYER_1
 62
   242
 10
9.3728
 20
17.3484
  0
VERTEX
  8
LAYER_1
 62
   242
 10
9.3829
 20
16.8326
  0
VERTEX
  8
LAYER_1
 62
   242
 10
9.449
 20
15.8093
  0
VERTEX
  8
LAYER_1
 62
   242
 10
9.4601
 20
15.4045
  0
VERTEX
  8
LAYER_1
 62
   242
 10
9.4681
 20
15.0017
  0
VERTEX
  8
LAYER_1
 62
   242
 10
9.4714
 20
14.6003
  0
VERTEX
  8
LAYER_1
 62
   242
 10
9.4684
 20
14.1994
  0
VERTEX
  8
LAYER_1
 62
   242
 10
9.4575
 20
13.7985
  0
VERTEX
  8
LAYER_1
 62
   242
 10
9.4372
 20
13.3968
  0
VERTEX
  8
LAYER_1
 62
   242
 10
9.4058
 20
12.9936
  0
VERTEX
  8
LAYER_1
 62
   242
 10
9.3617
 20
12.5883
  0
VERTEX
  8
LAYER_1
 62
   242
 10
9.2179
 20
11.6427
  0
VERTEX
  8
LAYER_1
 62
   242
 10
8.9926
 20
10.741
  0
VERTEX
  8
LAYER_1
 62
   242
 10
8.8831
 20
10.4243
  0
VERTEX
  8
LAYER_1
 62
   242
 10
8.767
 20
10.1353
  0
VERTEX
  8
LAYER_1
 62
   242
 10
8.6432
 20
9.8672
  0
VERTEX
  8
LAYER_1
 62
   242
 10
8.5107
 20
9.6129
  0
VERTEX
  8
LAYER_1
 62
   242
 10
8.2146
 20
9.1182
  0
VERTEX
  8
LAYER_1
 62
   242
 10
7.87
 20
8.5954
  0
VERTEX
  8
LAYER_1
 62
   242
 10
8.1473
 20
8.7076
  0
VERTEX
  8
LAYER_1
 62
   242
 10
8.4442
 20
8.8477
  0
VERTEX
  8
LAYER_1
 62
   242
 10
9.0111
 20
9.0697
  0
VERTEX
  8
LAYER_1
 62
   242
 10
9.8765
 20
9.3083
  0
VERTEX
  8
LAYER_1
 62
   242
 10
10.7345
 20
9.4549
  0
VERTEX
  8
LAYER_1
 62
   242
 10
11.5868
 20
9.5168
  0
VERTEX
  8
LAYER_1
 62
   242
 10
12.4353
 20
9.5016
  0
VERTEX
  8
LAYER_1
 62
   242
 10
13.282
 20
9.4166
  0
VERTEX
  8
LAYER_1
 62
   242
 10
14.1287
 20
9.2691
  0
VERTEX
  8
LAYER_1
 62
   242
 10
14.9772
 20
9.0666
  0
VERTEX
  8
LAYER_1
 62
   242
 10
15.8295
 20
8.8164
  0
VERTEX
  8
LAYER_1
 62
   242
 10
17.02
 20
8.3915
  0
VERTEX
  8
LAYER_1
 62
   242
 10
17.5835
 20
8.1661
  0
VERTEX
  8
LAYER_1
 62
   242
 10
18.0666
 20
7.9652
  0
VERTEX
  8
LAYER_1
 62
   242
 10
18.5413
 20
7.7514
  0
VERTEX
  8
LAYER_1
 62
   242
 10
19.008
 20
7.5251
  0
VERTEX
  8
LAYER_1
 62
   242
 10
19.4671
 20
7.2867
  0
VERTEX
  8
LAYER_1
 62
   242
 10
19.919
 20
7.0367
  0
VERTEX
  8
LAYER_1
 62
   242
 10
20.3642
 20
6.7756
  0
VERTEX
  8
LAYER_1
 62
   242
 10
20.8031
 20
6.5036
  0
VERTEX
  8
LAYER_1
 62
   242
 10
21.236
 20
6.2214
  0
VERTEX
  8
LAYER_1
 62
   242
 10
21.8187
 20
5.8182
  0
VERTEX
  8
LAYER_1
 62
   242
 10
22.3875
 20
5.391
  0
VERTEX
  8
LAYER_1
 62
   242
 10
22.6641
 20
5.1675
  0
VERTEX
  8
LAYER_1
 62
   242
 10
22.9342
 20
4.9371
  0
VERTEX
  8
LAYER_1
 62
   242
 10
23.1967
 20
4.6993
  0
VERTEX
  8
LAYER_1
 62
   242
 10
23.4506
 20
4.454
  0
VERTEX
  8
LAYER_1
 62
   242
 10
23.8259
 20
4.0404
  0
VERTEX
  8
LAYER_1
 62
   242
 10
23.9865
 20
3.87
  0
VERTEX
  8
LAYER_1
 62
   242
 10
24.1713
 20
3.6508
  0
VERTEX
  8
LAYER_1
 62
   242
 10
24.3661
 20
3.3954
  0
VERTEX
  8
LAYER_1
 62
   242
 10
24.5569
 20
3.1167
  0
VERTEX
  8
LAYER_1
 62
   242
 10
24.7297
 20
2.8272
  0
VERTEX
  8
LAYER_1
 62
   242
 10
24.8705
 20
2.5397
  0
VERTEX
  8
LAYER_1
 62
   242
 10
24.9653
 20
2.2669
  0
VERTEX
  8
LAYER_1
 62
   242
 10
25.0
 20
2.0214
  0
VERTEX
  8
LAYER_1
 62
   242
 10
24.6786
 20
2.0652
  0
VERTEX
  8
LAYER_1
 62
   242
 10
24.3448
 20
2.1703
  0
VERTEX
  8
LAYER_1
 62
   242
 10
23.9829
 20
2.2971
  0
VERTEX
  8
LAYER_1
 62
   242
 10
23.5772
 20
2.406
  0
VERTEX
  8
LAYER_1
 62
   242
 10
23.1122
 20
2.4577
  0
VERTEX
  8
LAYER_1
 62
   242
 10
22.572
 20
2.4124
  0
VERTEX
  8
LAYER_1
 62
   242
 10
21.9412
 20
2.2307
  0
VERTEX
  8
LAYER_1
 62
   242
 10
21.2039
 20
1.8731
  0
VERTEX
  8
LAYER_1
 62
   242
 10
19.7183
 20
0.9545
  0
VERTEX
  8
LAYER_1
 62
   242
 10
17.1323
 20
-0.6669
  0
VERTEX
  8
LAYER_1
 62
   242
 10
16.7482
 20
-0.8837
  0
VERTEX
  8
LAYER_1
 62
   242
 10
15.9595
 20
-1.2972
  0
VERTEX
  8
LAYER_1
 62
   242
 10
15.546
 20
-1.4848
  0
VERTEX
  8
LAYER_1
 62
   242
 10
15.126
 20
-1.6659
  0
VERTEX
  8
LAYER_1
 62
   242
 10
14.8064
 20
-1.7909
  0
VERTEX
  8
LAYER_1
 62
   242
 10
14.4643
 20
-1.9142
  0
VERTEX
  8
LAYER_1
 62
   242
 10
14.1157
 20
-2.0266
  0
VERTEX
  8
LAYER_1
 62
   242
 10
13.7762
 20
-2.1192
  0
VERTEX
  8
LAYER_1
 62
   242
 10
13.4634
 20
-2.1863
  0
VERTEX
  8
LAYER_1
 62
   242
 10
13.1247
 20
-2.2425
  0
VERTEX
  8
LAYER_1
 62
   242
 10
12.7686
 20
-2.2855
  0
VERTEX
  8
LAYER_1
 62
   242
 10
12.4036
 20
-2.313
  0
VERTEX
  8
LAYER_1
 62
   242
 10
12.0383
 20
-2.3229
  0
VERTEX
  8
LAYER_1
 62
   242
 10
11.6812
 20
-2.3127
  0
VERTEX
  8
LAYER_1
 62
   242
 10
11.3407
 20
-2.2804
  0
VERTEX
  8
LAYER_1
 62
   242
 10
11.0255
 20
-2.2235
  0
VERTEX
  8
LAYER_1
 62
   242
 10
11.1789
 20
-2.3661
  0
VERTEX
  8
LAYER_1
 62
   242
 10
11.4267
 20
-2.5529
  0
VERTEX
  8
LAYER_1
 62
   242
 10
11.6876
 20
-2.7463
  0
VERTEX
  8
LAYER_1
 62
   242
 10
11.8803
 20
-2.9089
  0
VERTEX
  8
LAYER_1
 62
   242
 10
12.2755
 20
-3.265
  0
VERTEX
  8
LAYER_1
 62
   242
 10
12.6322
 20
-3.6597
  0
VERTEX
  8
LAYER_1
 62
   242
 10
12.9844
 20
-4.0964
  0
VERTEX
  8
LAYER_1
 62
   242
 10
13.428
 20
-4.7513
  0
VERTEX
  8
LAYER_1
 62
   242
 10
13.8215
 20
-5.4552
  0
VERTEX
  8
LAYER_1
 62
   242
 10
14.1667
 20
-6.1983
  0
VERTEX
  8
LAYER_1
 62
   242
 10
14.4653
 20
-6.9706
  0
VERTEX
  8
LAYER_1
 62
   242
 10
14.7189
 20
-7.7625
  0
VERTEX
  8
LAYER_1
 62
   242
 10
14.9291
 20
-8.5639
  0
VERTEX
  8
LAYER_1
 62
   242
 10
15.0977
 20
-9.3652
  0
VERTEX
  8
LAYER_1
 62
   242
 10
15.2264
 20
-10.1564
  0
VERTEX
  8
LAYER_1
 62
   242
 10
15.3939
 20
-11.5291
  0
VERTEX
  8
LAYER_1
 62
   242
 10
15.4585
 20
-12.2158
  0
VERTEX
  8
LAYER_1
 62
   242
 10
15.4571
 20
-12.5929
  0
VERTEX
  8
LAYER_1
 62
   242
 10
15.4961
 20
-12.9296
  0
VERTEX
  8
LAYER_1
 62
   242
 10
15.5026
 20
-13.3012
  0
VERTEX
  8
LAYER_1
 62
   242
 10
15.4912
 20
-13.6899
  0
VERTEX
  8
LAYER_1
 62
   242
 10
15.4724
 20
-14.0739
  0
VERTEX
  8
LAYER_1
 62
   242
 10
15.4571
 20
-14.4312
  0
VERTEX
  8
LAYER_1
 62
   242
 10
15.4337
 20
-14.9392
  0
VERTEX
  8
LAYER_1
 62
   242
 10
15.3937
 20
-15.4444
  0
VERTEX
  8
LAYER_1
 62
   242
 10
15.3374
 20
-15.9455
  0
VERTEX
  8
LAYER_1
 62
   242
 10
15.2648
 20
-16.4408
  0
VERTEX
  8
LAYER_1
 62
   242
 10
15.1762
 20
-16.9289
  0
VERTEX
  8
LAYER_1
 62
   242
 10
15.0717
 20
-17.4084
  0
VERTEX
  8
LAYER_1
 62
   242
 10
14.9515
 20
-17.8776
  0
VERTEX
  8
LAYER_1
 62
   242
 10
14.8157
 20
-18.3352
  0
VERTEX
  8
LAYER_1
 62
   242
 10
14.7215
 20
-18.5994
  0
VERTEX
  8
LAYER_1
 62
   242
 10
14.6084
 20
-18.8681
  0
VERTEX
  8
LAYER_1
 62
   242
 10
14.4842
 20
-19.1313
  0
VERTEX
  8
LAYER_1
 62
   242
 10
14.3566
 20
-19.3788
  0
VERTEX
  8
LAYER_1
 62
   242
 10
14.0633
 20
-19.8368
  0
VERTEX
  8
LAYER_1
 62
   242
 10
13.981
 20
-19.9534
  0
VERTEX
  8
LAYER_1
 62
   242
 10
13.8978
 20
-20.0598
  0
VERTEX
  8
LAYER_1
 62
   242
 10
13.8501
 20
-20.1043
  0
VERTEX
  8
LAYER_1
 62
   242
 10
13.7953
 20
-20.1404
  0
VERTEX
  8
LAYER_1
 62
   242
 10
13.7311
 20
-20.1663
  0
VERTEX
  8
LAYER_1
 62
   242
 10
13.6552
 20
-20.1799
  0
VERTEX
  8
LAYER_1
 62
   242
 10
13.5851
 20
-19.9971
  0
VERTEX
  8
LAYER_1
 62
   242
 10
13.5347
 20
-19.7966
  0
VERTEX
  8
LAYER_1
 62
   242
 10
13.4933
 20
-19.5784
  0
VERTEX
  8
LAYER_1
 62
   242
 10
13.4505
 20
-19.3427
  0
VERTEX
  8
LAYER_1
 62
   242
 10
13.3956
 20
-19.0896
  0
VERTEX
  8
LAYER_1
 62
   242
 10
13.3181
 20
-18.8193
  0
VERTEX
  8
LAYER_1
 62
   242
 10
13.2074
 20
-18.5319
  0
VERTEX
  8
LAYER_1
 62
   242
 10
13.053
 20
-18.2276
  0
VERTEX
  8
LAYER_1
 62
   242
 10
12.8187
 20
-17.9037
  0
VERTEX
  8
LAYER_1
 62
   242
 10
12.5087
 20
-17.5953
  0
VERTEX
  8
LAYER_1
 62
   242
 10
12.1411
 20
-17.3034
  0
VERTEX
  8
LAYER_1
 62
   242
 10
11.7341
 20
-17.0293
  0
VERTEX
  8
LAYER_1
 62
   242
 10
11.3057
 20
-16.7743
  0
VERTEX
  8
LAYER_1
 62
   242
 10
10.8741
 20
-16.5394
  0
VERTEX
  8
LAYER_1
 62
   242
 10
10.4575
 20
-16.326
  0
VERTEX
  8
LAYER_1
 62
   242
 10
10.0739
 20
-16.1353
  0
VERTEX
  8
LAYER_1
 62
   242
 10
9.2224
 20
-15.7096
  0
VERTEX
  8
LAYER_1
 62
   242
 10
7.9953
 20
-15.0584
  0
VERTEX
  8
LAYER_1
 62
   242
 10
7.6852
 20
-14.8957
  0
VERTEX
  8
LAYER_1
 62
   242
 10
7.3815
 20
-14.7195
  0
VERTEX
  8
LAYER_1
 62
   242
 10
7.0829
 20
-14.5357
  0
VERTEX
  8
LAYER_1
 62
   242
 10
6.7879
 20
-14.35
  0
VERTEX
  8
LAYER_1
 62
   242
 10
5.6536
 20
-13.5684
  0
VERTEX
  8
LAYER_1
 62
   242
 10
5.4099
 20
-13.3802
  0
VERTEX
  8
LAYER_1
 62
   242
 10
5.1706
 20
-13.1832
  0
VERTEX
  8
LAYER_1
 62
   242
 10
4.9369
 20
-12.9777
  0
VERTEX
  8
LAYER_1
 62
   242
 10
4.7099
 20
-12.7641
  0
VERTEX
  8
LAYER_1
 62
   242
 10
4.4909
 20
-12.5426
  0
VERTEX
  8
LAYER_1
 62
   242
 10
4.2811
 20
-12.3136
  0
VERTEX
  8
LAYER_1
 62
   242
 10
4.0817
 20
-12.0775
  0
VERTEX
  8
LAYER_1
 62
   242
 10
3.8938
 20
-11.8346
  0
VERTEX
  8
LAYER_1
 62
   242
 10
3.7675
 20
-11.6604
  0
VERTEX
  8
LAYER_1
 62
   242
 10
3.525
 20
-11.2643
  0
VERTEX
  8
LAYER_1
 62
   242
 10
3.0992
 20
-10.4504
  0
VERTEX
  8
LAYER_1
 62
   242
 10
3.0608
 20
-10.801
  0
VERTEX
  8
LAYER_1
 62
   242
 10
3.0064
 20
-11.1493
  0
VERTEX
  8
LAYER_1
 62
   242
 10
2.9398
 20
-11.4933
  0
VERTEX
  8
LAYER_1
 62
   242
 10
2.8646
 20
-11.8312
  0
VERTEX
  8
LAYER_1
 62
   242
 10
2.7477
 20
-12.2679
  0
VERTEX
  8
LAYER_1
 62
   242
 10
2.6032
 20
-12.6998
  0
VERTEX
  8
LAYER_1
 62
   242
 10
2.4329
 20
-13.1246
  0
VERTEX
  8
LAYER_1
 62
   242
 10
2.2383
 20
-13.54
  0
VERTEX
  8
LAYER_1
 62
   242
 10
2.021
 20
-13.9437
  0
VERTEX
  8
LAYER_1
 62
   242
 10
1.7827
 20
-14.3336
  0
VERTEX
  8
LAYER_1
 62
   242
 10
1.5251
 20
-14.7072
  0
VERTEX
  8
LAYER_1
 62
   242
 10
1.2498
 20
-15.0624
  0
VERTEX
  8
LAYER_1
 62
   242
 10
0.8831
 20
-15.5221
  0
VERTEX
  8
LAYER_1
 62
   242
 10
0.3137
 20
-16.1548
  0
VERTEX
  8
LAYER_1
 62
   242
 10
0.076
 20
-16.4221
  0
VERTEX
  8
LAYER_1
 62
   242
 10
-0.1827
 20
-16.6729
  0
VERTEX
  8
LAYER_1
 62
   242
 10
-0.4477
 20
-16.9174
  0
VERTEX
  8
LAYER_1
 62
   242
 10
-0.7042
 20
-17.1655
  0
VERTEX
  8
LAYER_1
 62
   242
 10
-1.0083
 20
-17.4535
  0
VERTEX
  8
LAYER_1
 62
   242
 10
-1.3303
 20
-17.7242
  0
VERTEX
  8
LAYER_1
 62
   242
 10
-1.6616
 20
-17.9849
  0
VERTEX
  8
LAYER_1
 62
   242
 10
-1.9935
 20
-18.2428
  0
VERTEX
  8
LAYER_1
 62
   242
 10
-2.6935
 20
-18.7699
  0
VERTEX
  8
LAYER_1
 62
   242
 10
-3.435
 20
-19.2818
  0
VERTEX
  8
LAYER_1
 62
   242
 10
-4.211
 20
-19.7706
  0
VERTEX
  8
LAYER_1
 62
   242
 10
-5.0139
 20
-20.2278
  0
VERTEX
  8
LAYER_1
 62
   242
 10
-5.8366
 20
-20.6454
  0
VERTEX
  8
LAYER_1
 62
   242
 10
-6.6717
 20
-21.0151
  0
VERTEX
  8
LAYER_1
 62
   242
 10
-7.512
 20
-21.3287
  0
VERTEX
  8
LAYER_1
 62
   242
 10
-8.3502
 20
-21.578
  0
VERTEX
  8
LAYER_1
 62
   242
 10
-8.6186
 20
-21.6413
  0
VERTEX
  8
LAYER_1
 62
   242
 10
-8.9795
 20
-21.7137
  0
VERTEX
  8
LAYER_1
 62
   242
 10
-9.4
 20
-21.782
  0
VERTEX
  8
LAYER_1
 62
   242
 10
-9.8468
 20
-21.8328
  0
VERTEX
  8
LAYER_1
 62
   242
 10
-10.654
 20
-21.8328
  0
VERTEX
  8
LAYER_1
 62
   242
 10
-10.7963
 20
-21.8104
  0
VERTEX
  8
LAYER_1
 62
   242
 10
-10.9258
 20
-21.7784
  0
VERTEX
  8
LAYER_1
 62
   242
 10
-11.0404
 20
-21.7361
  0
VERTEX
  8
LAYER_1
 62
   242
 10
-11.1382
 20
-21.6826
  0
VERTEX
  8
LAYER_1
 62
   242
 10
-11.0558
 20
-21.5559
  0
VERTEX
  8
LAYER_1
 62
   242
 10
-10.9592
 20
-21.4495
  0
VERTEX
  8
LAYER_1
 62
   242
 10
-10.8516
 20
-21.3534
  0
VERTEX
  8
LAYER_1
 62
   242
 10
-10.7367
 20
-21.2577
  0
VERTEX
  8
LAYER_1
 62
   242
 10
-10.5963
 20
-21.1351
  0
VERTEX
  8
LAYER_1
 62
   242
 10
-10.1807
 20
-20.7554
  0
VERTEX
  8
LAYER_1
 62
   242
 10
-9.8714
 20
-20.3561
  0
VERTEX
  8
LAYER_1
 62
   242
 10
-9.6528
 20
-19.9358
  0
VERTEX
  8
LAYER_1
 62
   242
 10
-9.5091
 20
-19.4933
  0
VERTEX
  8
LAYER_1
 62
   242
 10
-9.4248
 20
-19.0271
  0
VERTEX
  8
LAYER_1
 62
   242
 10
-9.3842
 20
-18.5361
  0
VERTEX
  8
LAYER_1
 62
   242
 10
-9.3716
 20
-18.0188
  0
VERTEX
  8
LAYER_1
 62
   242
 10
-9.3714
 20
-17.474
  0
VERTEX
  8
LAYER_1
 62
   242
 10
-9.4117
 20
-16.9884
  0
VERTEX
  8
LAYER_1
 62
   242
 10
-9.4466
 20
-15.9338
  0
VERTEX
  8
LAYER_1
 62
   242
 10
-9.4862
 20
-15.4476
  0
VERTEX
  8
LAYER_1
 62
   242
 10
-9.5012
 20
-14.9366
  0
VERTEX
  8
LAYER_1
 62
   242
 10
-9.5384
 20
-14.4581
  0
VERTEX
  8
LAYER_1
 62
   242
 10
-9.5414
 20
-13.8823
  0
VERTEX
  8
LAYER_1
 62
   242
 10
-9.5299
 20
-13.2942
  0
VERTEX
  8
LAYER_1
 62
   242
 10
-9.5234
 20
-12.779
  0
VERTEX
  8
LAYER_1
 62
   242
 10
-9.5078
 20
-12.2875
  0
VERTEX
  8
LAYER_1
 62
   242
 10
-9.4618
 20
-11.8011
  0
VERTEX
  8
LAYER_1
 62
   242
 10
-9.3956
 20
-11.3194
  0
VERTEX
  8
LAYER_1
 62
   242
 10
-9.3191
 20
-10.8421
  0
VERTEX
  8
LAYER_1
 62
   242
 10
-9.2591
 20
-10.5102
  0
VERTEX
  8
LAYER_1
 62
   242
 10
-9.1896
 20
-10.1899
  0
VERTEX
  8
LAYER_1
 62
   242
 10
-9.1093
 20
-9.8798
  0
VERTEX
  8
LAYER_1
 62
   242
 10
-9.0165
 20
-9.5787
  0
VERTEX
  8
LAYER_1
 62
   242
 10
-8.9099
 20
-9.2853
  0
VERTEX
  8
LAYER_1
 62
   242
 10
-8.788
 20
-8.9982
  0
VERTEX
  8
LAYER_1
 62
   242
 10
-8.6493
 20
-8.7163
  0
VERTEX
  8
LAYER_1
 62
   242
 10
-8.4924
 20
-8.4381
  0
VERTEX
  8
LAYER_1
 62
   242
 10
-8.0954
 20
-7.7832
  0
VERTEX
  8
LAYER_1
 62
   242
 10
-8.6588
 20
-8.0087
  0
VERTEX
  8
LAYER_1
 62
   242
 10
-9.2361
 20
-8.2203
  0
VERTEX
  8
LAYER_1
 62
   242
 10
-10.1899
 20
-8.4582
  0
VERTEX
  8
LAYER_1
 62
   242
 10
-11.1804
 20
-8.5731
  0
VERTEX
  8
LAYER_1
 62
   242
 10
-12.1939
 20
-8.5782
  0
VERTEX
  8
LAYER_1
 62
   242
 10
-13.2167
 20
-8.4869
  0
VERTEX
  8
LAYER_1
 62
   242
 10
-14.2351
 20
-8.3125
  0
VERTEX
  8
LAYER_1
 62
   242
 10
-15.2355
 20
-8.0683
  0
VERTEX
  8
LAYER_1
 62
   242
 10
-16.2042
 20
-7.7676
  0
VERTEX
  8
LAYER_1
 62
   242
 10
-17.1274
 20
-7.4238
  0
VERTEX
  8
LAYER_1
 62
   242
 10
-17.5384
 20
-7.255
  0
VERTEX
  8
LAYER_1
 62
   242
 10
-17.946
 20
-7.0805
  0
VERTEX
  8
LAYER_1
 62
   242
 10
-18.3501
 20
-6.8996
  0
VERTEX
  8
LAYER_1
 62
   242
 10
-18.7505
 20
-6.7116
  0
VERTEX
  8
LAYER_1
 62
   242
 10
-19.1471
 20
-6.5159
  0
VERTEX
  8
LAYER_1
 62
   242
 10
-19.5396
 20
-6.3117
  0
VERTEX
  8
LAYER_1
 62
   242
 10
-19.9279
 20
-6.0982
  0
VERTEX
  8
LAYER_1
 62
   242
 10
-20.3118
 20
-5.8749
  0
VERTEX
  8
LAYER_1
 62
   242
 10
-20.8024
 20
-5.5729
  0
VERTEX
  8
LAYER_1
 62
   242
 10
-21.2761
 20
-5.2641
  0
VERTEX
  8
LAYER_1
 62
   242
 10
-21.7394
 20
-4.9436
  0
VERTEX
  8
LAYER_1
 62
   242
 10
-22.199
 20
-4.6066
  0
VERTEX
  8
LAYER_1
 62
   242
 10
-23.0559
 20
-3.8857
  0
VERTEX
  8
LAYER_1
 62
   242
 10
-23.4695
 20
-3.5105
  0
VERTEX
  8
LAYER_1
 62
   242
 10
-23.6679
 20
-3.3022
  0
VERTEX
  8
LAYER_1
 62
   242
 10
-23.9035
 20
-3.0345
  0
VERTEX
  8
LAYER_1
 62
   242
 10
-24.1567
 20
-2.7238
  0
VERTEX
  8
LAYER_1
 62
   242
 10
-24.408
 20
-2.3864
  0
VERTEX
  8
LAYER_1
 62
   242
 10
-24.6375
 20
-2.0386
  0
VERTEX
  8
LAYER_1
 62
   242
 10
-24.8258
 20
-1.6968
  0
VERTEX
  8
LAYER_1
 62
   242
 10
-24.9532
 20
-1.3774
  0
VERTEX
  8
LAYER_1
 62
   242
 10
-25.0
 20
-1.0966
  0
VERTEX
  8
LAYER_1
 62
   242
 10
-24.9167
 20
-1.0905
  0
VERTEX
  8
LAYER_1
 62
   242
 10
-24.8194
 20
-1.1017
  0
VERTEX
  8
LAYER_1
 62
   242
 10
-24.7111
 20
-1.1268
  0
VERTEX
  8
LAYER_1
 62
   242
 10
-24.5949
 20
-1.1621
  0
VERTEX
  8
LAYER_1
 62
   242
 10
-24.3511
 20
-1.2496
  0
VERTEX
  8
LAYER_1
 62
   242
 10
-24.1127
 20
-1.3361
  0
VERTEX
  8
LAYER_1
 62
   242
 10
-23.8822
 20
-1.4086
  0
VERTEX
  8
LAYER_1
 62
   242
 10
-23.6535
 20
-1.4639
  0
VERTEX
  8
LAYER_1
 62
   242
 10
-23.4067
 20
-1.4987
  0
VERTEX
  8
LAYER_1
 62
   242
 10
-23.122
 20
-1.51
  0
VERTEX
  8
LAYER_1
 62
   242
 10
-22.8048
 20
-1.5039
  0
VERTEX
  8
LAYER_1
 62
   242
 10
-22.5473
 20
-1.4831
  0
VERTEX
  8
LAYER_1
 62
   242
 10
-22.314
 20
-1.4382
  0
VERTEX
  8
LAYER_1
 62
   242
 10
-22.0693
 20
-1.36
  0
VERTEX
  8
LAYER_1
 62
   242
 10
-21.2793
 20
-0.9855
  0
VERTEX
  8
LAYER_1
 62
   242
 10
-20.5224
 20
-0.5404
  0
VERTEX
  8
LAYER_1
 62
   242
 10
-19.8796
 20
-0.1231
  0
VERTEX
  8
LAYER_1
 62
   242
 10
-19.2435
 20
0.2906
  0
VERTEX
  8
LAYER_1
 62
   242
 10
-18.6095
 20
0.6973
  0
VERTEX
  8
LAYER_1
 62
   242
 10
-17.9729
 20
1.0937
  0
VERTEX
  8
LAYER_1
 62
   242
 10
-17.3291
 20
1.4766
  0
VERTEX
  8
LAYER_1
 62
   242
 10
-16.6736
 20
1.8426
  0
VERTEX
  8
LAYER_1
 62
   242
 10
-16.0018
 20
2.1884
  0
VERTEX
  8
LAYER_1
 62
   242
 10
-15.3091
 20
2.5108
  0
VERTEX
  8
LAYER_1
 62
   242
 10
-14.9962
 20
2.6403
  0
VERTEX
  8
LAYER_1
 62
   242
 10
-14.6347
 20
2.7743
  0
VERTEX
  8
LAYER_1
 62
   242
 10
-14.2392
 20
2.9049
  0
VERTEX
  8
LAYER_1
 62
   242
 10
-13.824
 20
3.0243
  0
VERTEX
  8
LAYER_1
 62
   242
 10
-13.4035
 20
3.1248
  0
VERTEX
  8
LAYER_1
 62
   242
 10
-12.9923
 20
3.1984
  0
VERTEX
  8
LAYER_1
 62
   242
 10
-12.6047
 20
3.2374
  0
VERTEX
  8
LAYER_1
 62
   242
 10
-12.2551
 20
3.234
  0
VERTEX
  8
LAYER_1
 62
   242
 10
-11.9652
 20
3.2231
  0
VERTEX
  8
LAYER_1
 62
   242
 10
-11.4012
 20
3.2235
  0
VERTEX
  8
LAYER_1
 62
   242
 10
-11.5563
 20
3.3886
  0
VERTEX
  8
LAYER_1
 62
   242
 10
-11.7808
 20
3.5681
  0
VERTEX
  8
LAYER_1
 62
   242
 10
-12.0198
 20
3.7466
  0
VERTEX
  8
LAYER_1
 62
   242
 10
-12.2187
 20
3.9086
  0
VERTEX
  8
LAYER_1
 62
   242
 10
-12.4368
 20
4.1181
  0
VERTEX
  8
LAYER_1
 62
   242
 10
-12.6461
 20
4.3346
  0
VERTEX
  8
LAYER_1
 62
   242
 10
-12.8469
 20
4.558
  0
VERTEX
  8
LAYER_1
 62
   242
 10
-13.0397
 20
4.788
  0
VERTEX
  8
LAYER_1
 62
   242
 10
-13.4026
 20
5.2671
  0
VERTEX
  8
LAYER_1
 62
   242
 10
-13.7379
 20
5.7703
  0
VERTEX
  8
LAYER_1
 62
   242
 10
-13.8733
 20
6.0106
  0
VERTEX
  8
LAYER_1
 62
   242
 10
-14.0769
 20
6.382
  0
VERTEX
  8
LAYER_1
 62
   242
 10
-14.2551
 20
6.7664
  0
VERTEX
  8
LAYER_1
 62
   242
 10
-14.4186
 20
7.1602
  0
VERTEX
  8
LAYER_1
 62
   242
 10
-14.5782
 20
7.5596
  0
VERTEX
  8
LAYER_1
 62
   242
 10
-14.7675
 20
8.1217
  0
VERTEX
  8
LAYER_1
 62
   242
 10
-14.93
 20
8.6447
  0
VERTEX
  8
LAYER_1
 62
   242
 10
-15.0741
 20
9.1767
  0
VERTEX
  8
LAYER_1
 62
   242
 10
-15.2014
 20
9.7161
  0
VERTEX
  8
LAYER_1
 62
   242
 10
-15.3134
 20
10.2613
  0
VERTEX
  8
LAYER_1
 62
   242
 10
-15.4117
 20
10.811
  0
VERTEX
  8
LAYER_1
 62
   242
 10
-15.4977
 20
11.3636
  0
VERTEX
  8
LAYER_1
 62
   242
 10
-15.5731
 20
11.9176
  0
VERTEX
  8
LAYER_1
 62
   242
 10
-15.6394
 20
12.4715
  0
VERTEX
  8
LAYER_1
 62
   242
 10
-15.6885
 20
13.0042
  0
VERTEX
  8
LAYER_1
 62
   242
 10
-15.7188
 20
13.5484
  0
VERTEX
  8
LAYER_1
 62
   242
 10
-15.7321
 20
14.0991
  0
VERTEX
  8
LAYER_1
 62
   242
 10
-15.7301
 20
14.6515
  0
VERTEX
  8
LAYER_1
 62
   242
 10
-15.7144
 20
15.2005
  0
VERTEX
  8
LAYER_1
 62
   242
 10
-15.6868
 20
15.7414
  0
VERTEX
  8
LAYER_1
 62
   242
 10
-15.649
 20
16.2691
  0
VERTEX
  8
LAYER_1
 62
   242
 10
-15.6027
 20
16.7789
  0
VERTEX
  8
LAYER_1
 62
   242
 10
-15.558
 20
17.1501
  0
VERTEX
  8
LAYER_1
 62
   242
 10
-15.4974
 20
17.5318
  0
VERTEX
  8
LAYER_1
 62
   242
 10
-15.4218
 20
17.9192
  0
VERTEX
  8
LAYER_1
 62
   242
 10
-15.3319
 20
18.3077
  0
VERTEX
  8
LAYER_1
 62
   242
 10
-15.2287
 20
18.6926
  0
VERTEX
  8
LAYER_1
 62
   242
 10
-15.1128
 20
19.0693
  0
VERTEX
  8
LAYER_1
 62
   242
 10
-14.9853
 20
19.4332
  0
VERTEX
  8
LAYER_1
 62
   242
 10
-14.8468
 20
19.7796
  0
VERTEX
  8
LAYER_1
 62
   242
 10
-14.6019
 20
20.2859
  0
VERTEX
  8
LAYER_1
 62
   242
 10
-14.1453
 20
20.9564
  0
VERTEX
  8
LAYER_1
 62
   242
 10
-14.1037
 20
21.015
  0
VERTEX
  8
LAYER_1
 62
   242
 10
-14.0711
 20
21.0537
  0
VERTEX
  8
LAYER_1
 62
   242
 10
-14.0281
 20
21.0809
  0
VERTEX
  8
LAYER_1
 62
   242
 10
-13.9557
 20
21.1048
  0
VERTEX
  8
LAYER_1
 62
   242
 10
-13.8752
 20
21.005
  0
VERTEX
  8
LAYER_1
 62
   242
 10
-13.8156
 20
20.8402
  0
VERTEX
  8
LAYER_1
 62
   242
 10
-13.7661
 20
20.6221
  0
VERTEX
  8
LAYER_1
 62
   242
 10
-13.7157
 20
20.3626
  0
VERTEX
  8
LAYER_1
 62
   242
 10
-13.6536
 20
20.0732
  0
VERTEX
  8
LAYER_1
 62
   242
 10
-13.5687
 20
19.7657
  0
VERTEX
  8
LAYER_1
 62
   242
 10
-13.4503
 20
19.4519
  0
VERTEX
  8
LAYER_1
 62
   242
 10
-13.2873
 20
19.1436
  0
VERTEX
  8
LAYER_1
 62
   242
 10
-13.1179
 20
18.901
  0
VERTEX
  8
LAYER_1
 62
   242
 10
-12.9282
 20
18.6787
  0
VERTEX
  8
LAYER_1
 62
   242
 10
-12.7205
 20
18.4749
  0
VERTEX
  8
LAYER_1
 62
   242
 10
-12.4969
 20
18.288
  0
VERTEX
  8
LAYER_1
 62
   242
 10
-12.2597
 20
18.1161
  0
VERTEX
  8
LAYER_1
 62
   242
 10
-12.0112
 20
17.9577
  0
VERTEX
  8
LAYER_1
 62
   242
 10
-11.7534
 20
17.8109
  0
VERTEX
  8
LAYER_1
 62
   242
 10
-11.4886
 20
17.6741
  0
VERTEX
  8
LAYER_1
 62
   242
 10
-10.2064
 20
17.0029
  0
VERTEX
  8
LAYER_1
 62
   242
 10
-9.3351
 20
16.5594
  0
VERTEX
  8
LAYER_1
 62
   242
 10
-8.6984
 20
16.2293
  0
VERTEX
  8
LAYER_1
 62
   242
 10
-8.0703
 20
15.8827
  0
VERTEX
  8
LAYER_1
 62
   242
 10
-7.4494
 20
15.5231
  0
VERTEX
  8
LAYER_1
 62
   242
 10
-6.834
 20
15.1536
  0
VERTEX
  8
LAYER_1
 62
   242
 10
-6.4355
 20
14.876
  0
VERTEX
  8
LAYER_1
 62
   242
 10
-6.0614
 20
14.6114
  0
VERTEX
  8
LAYER_1
 62
   242
 10
-4.9864
 20
13.733
  0
VERTEX
  8
LAYER_1
 62
   242
 10
-4.667
 20
13.4138
  0
VERTEX
  8
LAYER_1
 62
   242
 10
-4.5093
 20
13.2431
  0
VERTEX
  8
LAYER_1
 62
   242
 10
-4.3605
 20
13.0597
  0
VERTEX
  8
LAYER_1
 62
   242
 10
-4.2186
 20
12.8711
  0
VERTEX
  8
LAYER_1
 62
   242
 10
-4.0816
 20
12.6844
  0
VERTEX
  8
LAYER_1
 62
   242
 10
-3.8126
 20
12.2772
  0
VERTEX
  8
LAYER_1
 62
   242
 10
-3.5872
 20
11.8639
  0
VERTEX
  8
LAYER_1
 62
   242
 10
-3.2332
 20
11.091
  0
VERTEX
  8
LAYER_1
 62
   242
 10
-3.1743
 20
10.9996
  0
VERTEX
  8
LAYER_1
 62
   242
 10
-3.1361
 20
11.7301
  0
VERTEX
  8
LAYER_1
 62
   242
 10
-3.0282
 20
12.4343
  0
VERTEX
  8
LAYER_1
 62
   242
 10
-2.8604
 20
13.1079
  0
VERTEX
  8
LAYER_1
 62
   242
 10
-2.6425
 20
13.7467
  0
VERTEX
  8
LAYER_1
 62
   242
 10
-2.3844
 20
14.3463
  0
VERTEX
  8
LAYER_1
 62
   242
 10
-2.0961
 20
14.9024
  0
VERTEX
  8
LAYER_1
 62
   242
 10
-1.7872
 20
15.4108
  0
VERTEX
  8
LAYER_1
 62
   242
 10
-1.4678
 20
15.8671
  0
VERTEX
  8
LAYER_1
 62
   242
 10
-1.0863
 20
16.3636
  0
VERTEX
  8
LAYER_1
 62
   242
 10
-0.6514
 20
16.8945
  0
VERTEX
  8
LAYER_1
 62
   242
 10
-0.4236
 20
17.1545
  0
VERTEX
  8
LAYER_1
 62
   242
 10
-0.194
 20
17.4013
  0
VERTEX
  8
LAYER_1
 62
   242
 10
0.0335
 20
17.6274
  0
VERTEX
  8
LAYER_1
 62
   242
 10
0.2552
 20
17.8255
  0
VERTEX
  8
LAYER_1
 62
   242
 10
0.6858
 20
18.2214
  0
VERTEX
  8
LAYER_1
 62
   242
 10
1.2973
 20
18.7422
  0
VERTEX
  8
LAYER_1
 62
   242
 10
1.926
 20
19.2428
  0
VERTEX
  8
LAYER_1
 62
   242
 10
2.5718
 20
19.7225
  0
VERTEX
  8
LAYER_1
 62
   242
 10
3.2344
 20
20.1808
  0
VERTEX
  8
LAYER_1
 62
   242
 10
5.0406
 20
21.2671
  0
VERTEX
  8
LAYER_1
 62
   242
 10
5.5166
 20
21.5209
  0
VERTEX
  8
LAYER_1
 62
   242
 10
6.0008
 20
21.7539
  0
VERTEX
  8
LAYER_1
 62
   242
 10
6.4951
 20
21.9669
  0
VERTEX
  8
LAYER_1
 62
   242
 10
7.0016
 20
22.1611
  0
VERTEX
  8
LAYER_1
 62
   242
 10
7.6411
 20
22.3776
  0
VERTEX
  8
LAYER_1
 62
   242
 10
8.2818
 20
22.5621
  0
VERTEX
  8
LAYER_1
 62
   242
 10
8.6059
 20
22.6414
  0
VERTEX
  8
LAYER_1
 62
   242
 10
8.9341
 20
22.7115
  0
VERTEX
  8
LAYER_1
 62
   242
 10
9.2678
 20
22.7721
  0
VERTEX
  8
LAYER_1
 62
   242
 10
9.6082
 20
22.8227
  0
VERTEX
  8
LAYER_1
 62
   242
 10
9.6965
 20
22.8329
  0
SEQEND
  8
LAYER_1
 62
   242
  0
POLYLINE
  8
LAYER_1
 62
   242
 66
     1
 70
     1
  0
VERTEX
  8
LAYER_1
 62
   242
 10
-9.1848
 20
-20.7434
  0
VERTEX
  8
LAYER_1
 62
   242
 10
-9.1848
 20
-20.7434
  0
SEQEND
  8
LAYER_1
 62
   242
  0
ENDSEC
  0
EOF
