  0
SECTION
  2
HEADER
  9
$ACADVER
  1
AC1002
  9
$INSBASE
 10
0.0
 20
0.0
  9
$EXTMIN
 10
-25.0447
 20
-22.3825
  9
$EXTMAX
 10
25.0449
 20
22.3825
  9
$LIMMIN
 10
0.0
 20
0.0
  9
$LIMMAX
 10
12.0
 20
9.0
  9
$ORTHOMODE
 70
     0
  9
$REGENMODE
 70
     1
  9
$FILLMODE
 70
     1
  9
$QTEXTMODE
 70
     0
  9
$DRAGMODE
 70
     2
  9
$LTSCALE
 40
1.0
  9
$OSMODE
 70
    37
  9
$ATTMODE
 70
     1
  9
$TEXTSIZE
 40
0.2
  9
$TRACEWID
 40
0.05
  9
$TEXTSTYLE
  7
STANDARD
  9
$CLAYER
  8
0
  9
$CELTYPE
  6
BYLAYER
  9
$CECOLOR
 62
   256
  9
$DIMSCALE
 40
1.0
  9
$DIMASZ
 40
0.18
  9
$DIMEXO
 40
0.0625
  9
$DIMDLI
 40
0.38
  9
$DIMRND
 40
0.0
  9
$DIMDLE
 40
0.0
  9
$DIMEXE
 40
0.18
  9
$DIMTP
 40
0.0
  9
$DIMTM
 40
0.0
  9
$DIMTXT
 40
0.18
  9
$DIMCEN
 40
0.09
  9
$DIMTSZ
 40
0.0
  9
$DIMTOL
 70
     0
  9
$DIMLIM
 70
     0
  9
$DIMTIH
 70
     1
  9
$DIMTOH
 70
     1
  9
$DIMSE1
 70
     0
  9
$DIMSE2
 70
     0
  9
$DIMTAD
 70
     0
  9
$DIMZIN
 70
     0
  9
$DIMBLK
  1

  9
$LUNITS
 70
     2
  9
$LUPREC
 70
     4
  9
$SKETCHINC
 40
0.1
  9
$FILLETRAD
 40
0.5
  9
$AUNITS
 70
     0
  9
$AUPREC
 70
     0
  9
$MENU
  1
.
  9
$ELEVATION
 40
0.0
  9
$THICKNESS
 40
0.0
  9
$LIMCHECK
 70
     0
  9
$CHAMFERA
 40
0.0
  9
$CHAMFERB
 40
0.0
  9
$SKPOLY
 70
     0
  9
$TDCREATE
 40
2457112.777621412
  9
$TDUPDATE
 40
2457112.777621435
  9
$TDINDWG
 40
0.0000000116
  9
$TDUSRTIMER
 40
0.0000000116
  9
$USRTIMER
 70
     1
  9
$ANGBASE
 50
0.0
  9
$ANGDIR
 70
     0
  9
$PDMODE
 70
     0
  9
$PDSIZE
 40
0.0
  9
$PLINEWID
 40
0.0
  9
$COORDS
 70
     1
  9
$SURFTAB1
 70
     6
  9
$SURFTAB2
 70
     6
  9
$SURFTYPE
 70
     6
  9
$SURFU
 70
     6
  9
$SURFV
 70
     6
  9
$UCSNAME
  2

  9
$UCSORG
 10
0.0
 20
0.0
 30
0.0
  9
$UCSXDIR
 10
1.0
 20
0.0
 30
0.0
  9
$UCSYDIR
 10
0.0
 20
1.0
 30
0.0
  9
$USERI1
 70
     0
  9
$USERI2
 70
     0
  9
$USERI3
 70
     0
  9
$USERI4
 70
     0
  9
$USERI5
 70
     0
  9
$USERR1
 40
0.0
  9
$USERR2
 40
0.0
  9
$USERR3
 40
0.0
  9
$USERR4
 40
0.0
  9
$USERR5
 40
0.0
  0
ENDSEC
  0
SECTION
  2
TABLES
  0
TABLE
  2
LTYPE
 70
     1
  0
LTYPE
  2
CONTINUOUS
 70
     0
  3
Solid line
 72
    65
 73
     0
 40
0.0
  0
ENDTAB
  0
TABLE
  2
LAYER
 70
     2
  0
LAYER
  2
0
 70
     0
 62
     7
  6
CONTINUOUS
  0
LAYER
  2
LAYER_1
 70
     0
 62
     7
  6
CONTINUOUS
  0
ENDTAB
  0
TABLE
  2
STYLE
 70
     1
  0
STYLE
  2
STANDARD
 70
     0
 40
0.0
 41
1.0
 50
0.0
 71
     0
 42
0.2
  3
txt
  4

  0
ENDTAB
  0
TABLE
  2
VIEW
 70
     0
  0
ENDTAB
  0
ENDSEC
  0
SECTION
  2
BLOCKS
  0
ENDSEC
  0
SECTION
  2
ENTITIES
  0
POLYLINE
  8
LAYER_1
 66
     1
 70
     1
  0
VERTEX
  8
LAYER_1
 10
9.8283
 20
22.3375
  0
VERTEX
  8
LAYER_1
 10
10.4967
 20
22.3375
  0
VERTEX
  8
LAYER_1
 10
10.6614
 20
22.317
  0
VERTEX
  8
LAYER_1
 10
10.8118
 20
22.2858
  0
VERTEX
  8
LAYER_1
 10
10.9456
 20
22.2428
  0
VERTEX
  8
LAYER_1
 10
11.0602
 20
22.1872
  0
VERTEX
  8
LAYER_1
 10
10.9343
 20
22.0036
  0
VERTEX
  8
LAYER_1
 10
10.7289
 20
21.8084
  0
VERTEX
  8
LAYER_1
 10
10.4708
 20
21.5859
  0
VERTEX
  8
LAYER_1
 10
10.1871
 20
21.3206
  0
VERTEX
  8
LAYER_1
 10
9.9045
 20
20.9968
  0
VERTEX
  8
LAYER_1
 10
9.6501
 20
20.5988
  0
VERTEX
  8
LAYER_1
 10
9.4507
 20
20.1111
  0
VERTEX
  8
LAYER_1
 10
9.3333
 20
19.518
  0
VERTEX
  8
LAYER_1
 10
9.2964
 20
19.0129
  0
VERTEX
  8
LAYER_1
 10
9.2849
 20
18.4916
  0
VERTEX
  8
LAYER_1
 10
9.2933
 20
17.9594
  0
VERTEX
  8
LAYER_1
 10
9.3163
 20
17.4212
  0
VERTEX
  8
LAYER_1
 10
9.3483
 20
16.8822
  0
VERTEX
  8
LAYER_1
 10
9.3841
 20
16.3476
  0
VERTEX
  8
LAYER_1
 10
9.4181
 20
15.8224
  0
VERTEX
  8
LAYER_1
 10
9.4451
 20
15.3118
  0
VERTEX
  8
LAYER_1
 10
9.4616
 20
14.8002
  0
VERTEX
  8
LAYER_1
 10
9.4671
 20
14.2785
  0
VERTEX
  8
LAYER_1
 10
9.4605
 20
13.7504
  0
VERTEX
  8
LAYER_1
 10
9.441
 20
13.2197
  0
VERTEX
  8
LAYER_1
 10
9.4075
 20
12.6901
  0
VERTEX
  8
LAYER_1
 10
9.3593
 20
12.1653
  0
VERTEX
  8
LAYER_1
 10
9.2952
 20
11.6491
  0
VERTEX
  8
LAYER_1
 10
9.2144
 20
11.1452
  0
VERTEX
  8
LAYER_1
 10
9.1142
 20
10.6642
  0
VERTEX
  8
LAYER_1
 10
8.9986
 20
10.2453
  0
VERTEX
  8
LAYER_1
 10
8.8657
 20
9.8717
  0
VERTEX
  8
LAYER_1
 10
8.7133
 20
9.5267
  0
VERTEX
  8
LAYER_1
 10
8.5393
 20
9.1935
  0
VERTEX
  8
LAYER_1
 10
8.3415
 20
8.8553
  0
VERTEX
  8
LAYER_1
 10
8.1179
 20
8.4954
  0
VERTEX
  8
LAYER_1
 10
7.8664
 20
8.0971
  0
VERTEX
  8
LAYER_1
 10
8.4864
 20
8.332
  0
VERTEX
  8
LAYER_1
 10
9.0301
 20
8.5504
  0
VERTEX
  8
LAYER_1
 10
9.3044
 20
8.6511
  0
VERTEX
  8
LAYER_1
 10
9.5969
 20
8.745
  0
VERTEX
  8
LAYER_1
 10
9.9201
 20
8.8311
  0
VERTEX
  8
LAYER_1
 10
10.2863
 20
8.9086
  0
VERTEX
  8
LAYER_1
 10
11.2593
 20
9.022
  0
VERTEX
  8
LAYER_1
 10
12.2624
 20
9.0184
  0
VERTEX
  8
LAYER_1
 10
13.2816
 20
8.9136
  0
VERTEX
  8
LAYER_1
 10
14.3028
 20
8.7235
  0
VERTEX
  8
LAYER_1
 10
15.3122
 20
8.4639
  0
VERTEX
  8
LAYER_1
 10
16.2957
 20
8.1505
  0
VERTEX
  8
LAYER_1
 10
17.2394
 20
7.7993
  0
VERTEX
  8
LAYER_1
 10
18.1293
 20
7.4261
  0
VERTEX
  8
LAYER_1
 10
18.6314
 20
7.1958
  0
VERTEX
  8
LAYER_1
 10
19.1527
 20
6.9396
  0
VERTEX
  8
LAYER_1
 10
19.6838
 20
6.6612
  0
VERTEX
  8
LAYER_1
 10
20.2153
 20
6.3643
  0
VERTEX
  8
LAYER_1
 10
20.7378
 20
6.0528
  0
VERTEX
  8
LAYER_1
 10
21.242
 20
5.7302
  0
VERTEX
  8
LAYER_1
 10
21.7184
 20
5.4003
  0
VERTEX
  8
LAYER_1
 10
22.1577
 20
5.067
  0
VERTEX
  8
LAYER_1
 10
22.5308
 20
4.7606
  0
VERTEX
  8
LAYER_1
 10
22.966
 20
4.3815
  0
VERTEX
  8
LAYER_1
 10
23.4298
 20
3.9466
  0
VERTEX
  8
LAYER_1
 10
23.8885
 20
3.4726
  0
VERTEX
  8
LAYER_1
 10
24.3084
 20
2.9762
  0
VERTEX
  8
LAYER_1
 10
24.6561
 20
2.4745
  0
VERTEX
  8
LAYER_1
 10
24.8978
 20
1.984
  0
VERTEX
  8
LAYER_1
 10
25.0
 20
1.5217
  0
VERTEX
  8
LAYER_1
 10
24.7254
 20
1.5584
  0
VERTEX
  8
LAYER_1
 10
24.4098
 20
1.6589
  0
VERTEX
  8
LAYER_1
 10
24.0454
 20
1.7837
  0
VERTEX
  8
LAYER_1
 10
23.6248
 20
1.8932
  0
VERTEX
  8
LAYER_1
 10
23.1401
 20
1.948
  0
VERTEX
  8
LAYER_1
 10
22.5838
 20
1.9085
  0
VERTEX
  8
LAYER_1
 10
21.9482
 20
1.7352
  0
VERTEX
  8
LAYER_1
 10
21.2257
 20
1.3884
  0
VERTEX
  8
LAYER_1
 10
20.4775
 20
0.9351
  0
VERTEX
  8
LAYER_1
 10
19.7444
 20
0.466
  0
VERTEX
  8
LAYER_1
 10
19.0147
 20
-0.0071
  0
VERTEX
  8
LAYER_1
 10
18.2768
 20
-0.4721
  0
VERTEX
  8
LAYER_1
 10
17.8857
 20
-0.7108
  0
VERTEX
  8
LAYER_1
 10
17.5037
 20
-0.9404
  0
VERTEX
  8
LAYER_1
 10
17.1263
 20
-1.1614
  0
VERTEX
  8
LAYER_1
 10
16.749
 20
-1.3743
  0
VERTEX
  8
LAYER_1
 10
16.3673
 20
-1.5797
  0
VERTEX
  8
LAYER_1
 10
15.9767
 20
-1.778
  0
VERTEX
  8
LAYER_1
 10
15.5726
 20
-1.9697
  0
VERTEX
  8
LAYER_1
 10
15.1506
 20
-2.1554
  0
VERTEX
  8
LAYER_1
 10
14.6996
 20
-2.3312
  0
VERTEX
  8
LAYER_1
 10
14.2422
 20
-2.4815
  0
VERTEX
  8
LAYER_1
 10
13.778
 20
-2.6088
  0
VERTEX
  8
LAYER_1
 10
13.3063
 20
-2.7157
  0
VERTEX
  8
LAYER_1
 10
12.9318
 20
-2.7666
  0
VERTEX
  8
LAYER_1
 10
12.4608
 20
-2.7973
  0
VERTEX
  8
LAYER_1
 10
11.9829
 20
-2.8078
  0
VERTEX
  8
LAYER_1
 10
11.5879
 20
-2.7976
  0
VERTEX
  8
LAYER_1
 10
11.0422
 20
-2.742
  0
VERTEX
  8
LAYER_1
 10
11.2501
 20
-2.9145
  0
VERTEX
  8
LAYER_1
 10
11.4695
 20
-3.0774
  0
VERTEX
  8
LAYER_1
 10
11.6887
 20
-3.2443
  0
VERTEX
  8
LAYER_1
 10
11.8959
 20
-3.4289
  0
VERTEX
  8
LAYER_1
 10
12.2276
 20
-3.7612
  0
VERTEX
  8
LAYER_1
 10
12.5112
 20
-4.0497
  0
VERTEX
  8
LAYER_1
 10
12.7581
 20
-4.315
  0
VERTEX
  8
LAYER_1
 10
12.9802
 20
-4.5779
  0
VERTEX
  8
LAYER_1
 10
13.1891
 20
-4.8589
  0
VERTEX
  8
LAYER_1
 10
13.3964
 20
-5.1789
  0
VERTEX
  8
LAYER_1
 10
13.6138
 20
-5.5585
  0
VERTEX
  8
LAYER_1
 10
13.8529
 20
-6.0183
  0
VERTEX
  8
LAYER_1
 10
14.3539
 20
-7.1726
  0
VERTEX
  8
LAYER_1
 10
14.7574
 20
-8.4177
  0
VERTEX
  8
LAYER_1
 10
15.0675
 20
-9.7278
  0
VERTEX
  8
LAYER_1
 10
15.2882
 20
-11.0767
  0
VERTEX
  8
LAYER_1
 10
15.4235
 20
-12.4384
  0
VERTEX
  8
LAYER_1
 10
15.4775
 20
-13.7868
  0
VERTEX
  8
LAYER_1
 10
15.4541
 20
-15.0958
  0
VERTEX
  8
LAYER_1
 10
15.3574
 20
-16.3395
  0
VERTEX
  8
LAYER_1
 10
15.2958
 20
-16.7613
  0
VERTEX
  8
LAYER_1
 10
15.1833
 20
-17.3472
  0
VERTEX
  8
LAYER_1
 10
15.0239
 20
-18.0325
  0
VERTEX
  8
LAYER_1
 10
14.8211
 20
-18.7524
  0
VERTEX
  8
LAYER_1
 10
14.5789
 20
-19.4422
  0
VERTEX
  8
LAYER_1
 10
14.3009
 20
-20.0372
  0
VERTEX
  8
LAYER_1
 10
13.9909
 20
-20.4728
  0
VERTEX
  8
LAYER_1
 10
13.6528
 20
-20.6843
  0
VERTEX
  8
LAYER_1
 10
13.5274
 20
-20.2972
  0
VERTEX
  8
LAYER_1
 10
13.4435
 20
-19.9139
  0
VERTEX
  8
LAYER_1
 10
13.3638
 20
-19.5314
  0
VERTEX
  8
LAYER_1
 10
13.2512
 20
-19.1471
  0
VERTEX
  8
LAYER_1
 10
13.0686
 20
-18.7581
  0
VERTEX
  8
LAYER_1
 10
12.7789
 20
-18.3616
  0
VERTEX
  8
LAYER_1
 10
12.3449
 20
-17.9549
  0
VERTEX
  8
LAYER_1
 10
11.7295
 20
-17.5351
  0
VERTEX
  8
LAYER_1
 10
10.7572
 20
-16.9902
  0
VERTEX
  8
LAYER_1
 10
9.7441
 20
-16.4649
  0
VERTEX
  8
LAYER_1
 10
8.7123
 20
-15.9384
  0
VERTEX
  8
LAYER_1
 10
7.684
 20
-15.3897
  0
VERTEX
  8
LAYER_1
 10
6.6811
 20
-14.7979
  0
VERTEX
  8
LAYER_1
 10
5.7259
 20
-14.1423
  0
VERTEX
  8
LAYER_1
 10
4.8403
 20
-13.4019
  0
VERTEX
  8
LAYER_1
 10
4.0465
 20
-12.5558
  0
VERTEX
  8
LAYER_1
 10
3.5329
 20
-11.7918
  0
VERTEX
  8
LAYER_1
 10
3.451
 20
-11.6291
  0
VERTEX
  8
LAYER_1
 10
3.3058
 20
-11.3447
  0
VERTEX
  8
LAYER_1
 10
3.1636
 20
-11.0825
  0
VERTEX
  8
LAYER_1
 10
3.0908
 20
-10.9865
  0
VERTEX
  8
LAYER_1
 10
2.9656
 20
-11.6643
  0
VERTEX
  8
LAYER_1
 10
2.8332
 20
-12.287
  0
VERTEX
  8
LAYER_1
 10
2.6817
 20
-12.8676
  0
VERTEX
  8
LAYER_1
 10
2.4995
 20
-13.4188
  0
VERTEX
  8
LAYER_1
 10
2.2748
 20
-13.9534
  0
VERTEX
  8
LAYER_1
 10
1.9959
 20
-14.4845
  0
VERTEX
  8
LAYER_1
 10
1.6511
 20
-15.0247
  0
VERTEX
  8
LAYER_1
 10
1.2286
 20
-15.587
  0
VERTEX
  8
LAYER_1
 10
0.5081
 20
-16.4244
  0
VERTEX
  8
LAYER_1
 10
-0.2922
 20
-17.2491
  0
VERTEX
  8
LAYER_1
 10
-1.1589
 20
-18.0482
  0
VERTEX
  8
LAYER_1
 10
-2.0789
 20
-18.8093
  0
VERTEX
  8
LAYER_1
 10
-3.0388
 20
-19.5196
  0
VERTEX
  8
LAYER_1
 10
-4.0256
 20
-20.1665
  0
VERTEX
  8
LAYER_1
 10
-5.0259
 20
-20.7374
  0
VERTEX
  8
LAYER_1
 10
-6.0265
 20
-21.2196
  0
VERTEX
  8
LAYER_1
 10
-6.6071
 20
-21.4687
  0
VERTEX
  8
LAYER_1
 10
-7.1883
 20
-21.7027
  0
VERTEX
  8
LAYER_1
 10
-7.7785
 20
-21.9129
  0
VERTEX
  8
LAYER_1
 10
-8.3866
 20
-22.0908
  0
VERTEX
  8
LAYER_1
 10
-8.6484
 20
-22.1491
  0
VERTEX
  8
LAYER_1
 10
-9.0361
 20
-22.2203
  0
VERTEX
  8
LAYER_1
 10
-9.4984
 20
-22.2883
  0
VERTEX
  8
LAYER_1
 10
-9.9838
 20
-22.3375
  0
VERTEX
  8
LAYER_1
 10
-10.6789
 20
-22.3375
  0
VERTEX
  8
LAYER_1
 10
-10.8335
 20
-22.3127
  0
VERTEX
  8
LAYER_1
 10
-10.9612
 20
-22.2742
  0
VERTEX
  8
LAYER_1
 10
-11.0572
 20
-22.2206
  0
VERTEX
  8
LAYER_1
 10
-11.1168
 20
-22.1505
  0
VERTEX
  8
LAYER_1
 10
-11.0229
 20
-21.9945
  0
VERTEX
  8
LAYER_1
 10
-10.8383
 20
-21.8198
  0
VERTEX
  8
LAYER_1
 10
-10.5916
 20
-21.6114
  0
VERTEX
  8
LAYER_1
 10
-10.3111
 20
-21.3549
  0
VERTEX
  8
LAYER_1
 10
-10.0254
 20
-21.0355
  0
VERTEX
  8
LAYER_1
 10
-9.7629
 20
-20.6386
  0
VERTEX
  8
LAYER_1
 10
-9.552
 20
-20.1494
  0
VERTEX
  8
LAYER_1
 10
-9.4212
 20
-19.5533
  0
VERTEX
  8
LAYER_1
 10
-9.3992
 20
-19.2218
  0
VERTEX
  8
LAYER_1
 10
-9.3906
 20
-18.7328
  0
VERTEX
  8
LAYER_1
 10
-9.3934
 20
-18.1384
  0
VERTEX
  8
LAYER_1
 10
-9.4058
 20
-17.4907
  0
VERTEX
  8
LAYER_1
 10
-9.4259
 20
-16.8417
  0
VERTEX
  8
LAYER_1
 10
-9.4518
 20
-16.2435
  0
VERTEX
  8
LAYER_1
 10
-9.4818
 20
-15.7481
  0
VERTEX
  8
LAYER_1
 10
-9.5139
 20
-15.4076
  0
VERTEX
  8
LAYER_1
 10
-9.5612
 20
-14.8337
  0
VERTEX
  8
LAYER_1
 10
-9.5713
 20
-14.1345
  0
VERTEX
  8
LAYER_1
 10
-9.544
 20
-13.3512
  0
VERTEX
  8
LAYER_1
 10
-9.4792
 20
-12.5249
  0
VERTEX
  8
LAYER_1
 10
-9.3766
 20
-11.6968
  0
VERTEX
  8
LAYER_1
 10
-9.2362
 20
-10.908
  0
VERTEX
  8
LAYER_1
 10
-9.0577
 20
-10.1996
  0
VERTEX
  8
LAYER_1
 10
-8.8411
 20
-9.6128
  0
VERTEX
  8
LAYER_1
 10
-8.6482
 20
-9.2404
  0
VERTEX
  8
LAYER_1
 10
-8.4416
 20
-8.8964
  0
VERTEX
  8
LAYER_1
 10
-8.2407
 20
-8.5693
  0
VERTEX
  8
LAYER_1
 10
-8.0648
 20
-8.2474
  0
VERTEX
  8
LAYER_1
 10
-8.2631
 20
-8.3614
  0
VERTEX
  8
LAYER_1
 10
-8.54
 20
-8.4802
  0
VERTEX
  8
LAYER_1
 10
-8.8711
 20
-8.5989
  0
VERTEX
  8
LAYER_1
 10
-9.2321
 20
-8.7124
  0
VERTEX
  8
LAYER_1
 10
-9.9473
 20
-8.9038
  0
VERTEX
  8
LAYER_1
 10
-10.4915
 20
-9.0144
  0
VERTEX
  8
LAYER_1
 10
-11.4627
 20
-9.0963
  0
VERTEX
  8
LAYER_1
 10
-12.4551
 20
-9.0741
  0
VERTEX
  8
LAYER_1
 10
-13.4576
 20
-8.9604
  0
VERTEX
  8
LAYER_1
 10
-14.4596
 20
-8.7675
  0
VERTEX
  8
LAYER_1
 10
-15.4501
 20
-8.5082
  0
VERTEX
  8
LAYER_1
 10
-16.4184
 20
-8.1948
  0
VERTEX
  8
LAYER_1
 10
-17.3535
 20
-7.8398
  0
VERTEX
  8
LAYER_1
 10
-18.2447
 20
-7.4559
  0
VERTEX
  8
LAYER_1
 10
-18.7634
 20
-7.2116
  0
VERTEX
  8
LAYER_1
 10
-19.2811
 20
-6.9513
  0
VERTEX
  8
LAYER_1
 10
-19.7954
 20
-6.6756
  0
VERTEX
  8
LAYER_1
 10
-20.3039
 20
-6.3853
  0
VERTEX
  8
LAYER_1
 10
-20.804
 20
-6.081
  0
VERTEX
  8
LAYER_1
 10
-21.2933
 20
-5.7633
  0
VERTEX
  8
LAYER_1
 10
-21.7693
 20
-5.433
  0
VERTEX
  8
LAYER_1
 10
-22.2295
 20
-5.0907
  0
VERTEX
  8
LAYER_1
 10
-22.6816
 20
-4.7216
  0
VERTEX
  8
LAYER_1
 10
-23.0821
 20
-4.3584
  0
VERTEX
  8
LAYER_1
 10
-23.4675
 20
-3.9834
  0
VERTEX
  8
LAYER_1
 10
-23.8743
 20
-3.5792
  0
VERTEX
  8
LAYER_1
 10
-24.018
 20
-3.421
  0
VERTEX
  8
LAYER_1
 10
-24.2006
 20
-3.193
  0
VERTEX
  8
LAYER_1
 10
-24.4021
 20
-2.9174
  0
VERTEX
  8
LAYER_1
 10
-24.6021
 20
-2.6159
  0
VERTEX
  8
LAYER_1
 10
-24.7805
 20
-2.3106
  0
VERTEX
  8
LAYER_1
 10
-24.9172
 20
-2.0234
  0
VERTEX
  8
LAYER_1
 10
-24.9919
 20
-1.7762
  0
VERTEX
  8
LAYER_1
 10
-24.9845
 20
-1.5909
  0
VERTEX
  8
LAYER_1
 10
-24.8541
 20
-1.6007
  0
VERTEX
  8
LAYER_1
 10
-24.6702
 20
-1.6447
  0
VERTEX
  8
LAYER_1
 10
-24.4444
 20
-1.7119
  0
VERTEX
  8
LAYER_1
 10
-24.1884
 20
-1.7912
  0
VERTEX
  8
LAYER_1
 10
-23.9137
 20
-1.8718
  0
VERTEX
  8
LAYER_1
 10
-23.6322
 20
-1.9425
  0
VERTEX
  8
LAYER_1
 10
-23.3554
 20
-1.9924
  0
VERTEX
  8
LAYER_1
 10
-23.0949
 20
-2.0104
  0
VERTEX
  8
LAYER_1
 10
-22.8168
 20
-2.0013
  0
VERTEX
  8
LAYER_1
 10
-22.5702
 20
-1.9773
  0
VERTEX
  8
LAYER_1
 10
-22.3465
 20
-1.9375
  0
VERTEX
  8
LAYER_1
 10
-22.1368
 20
-1.8812
  0
VERTEX
  8
LAYER_1
 10
-21.9325
 20
-1.8074
  0
VERTEX
  8
LAYER_1
 10
-21.7247
 20
-1.7154
  0
VERTEX
  8
LAYER_1
 10
-21.5048
 20
-1.6043
  0
VERTEX
  8
LAYER_1
 10
-21.264
 20
-1.4733
  0
VERTEX
  8
LAYER_1
 10
-20.2643
 20
-0.8796
  0
VERTEX
  8
LAYER_1
 10
-19.2345
 20
-0.2207
  0
VERTEX
  8
LAYER_1
 10
-18.1749
 20
0.4611
  0
VERTEX
  8
LAYER_1
 10
-17.0856
 20
1.1236
  0
VERTEX
  8
LAYER_1
 10
-15.9669
 20
1.7244
  0
VERTEX
  8
LAYER_1
 10
-14.8191
 20
2.2214
  0
VERTEX
  8
LAYER_1
 10
-13.6423
 20
2.5722
  0
VERTEX
  8
LAYER_1
 10
-12.4368
 20
2.7346
  0
VERTEX
  8
LAYER_1
 10
-11.3542
 20
2.7036
  0
VERTEX
  8
LAYER_1
 10
-11.8336
 20
3.1251
  0
VERTEX
  8
LAYER_1
 10
-12.243
 20
3.4833
  0
VERTEX
  8
LAYER_1
 10
-12.5984
 20
3.808
  0
VERTEX
  8
LAYER_1
 10
-12.9159
 20
4.1293
  0
VERTEX
  8
LAYER_1
 10
-13.2115
 20
4.4771
  0
VERTEX
  8
LAYER_1
 10
-13.5012
 20
4.8816
  0
VERTEX
  8
LAYER_1
 10
-13.8011
 20
5.3726
  0
VERTEX
  8
LAYER_1
 10
-14.1271
 20
5.9801
  0
VERTEX
  8
LAYER_1
 10
-14.3667
 20
6.4927
  0
VERTEX
  8
LAYER_1
 10
-14.5897
 20
7.0512
  0
VERTEX
  8
LAYER_1
 10
-14.7943
 20
7.6427
  0
VERTEX
  8
LAYER_1
 10
-14.979
 20
8.2539
  0
VERTEX
  8
LAYER_1
 10
-15.1419
 20
8.8719
  0
VERTEX
  8
LAYER_1
 10
-15.2814
 20
9.4836
  0
VERTEX
  8
LAYER_1
 10
-15.3958
 20
10.0758
  0
VERTEX
  8
LAYER_1
 10
-15.4833
 20
10.6356
  0
VERTEX
  8
LAYER_1
 10
-15.6122
 20
11.6991
  0
VERTEX
  8
LAYER_1
 10
-15.7001
 20
12.7304
  0
VERTEX
  8
LAYER_1
 10
-15.7416
 20
13.7385
  0
VERTEX
  8
LAYER_1
 10
-15.7313
 20
14.7323
  0
VERTEX
  8
LAYER_1
 10
-15.664
 20
15.7207
  0
VERTEX
  8
LAYER_1
 10
-15.5343
 20
16.7128
  0
VERTEX
  8
LAYER_1
 10
-15.3368
 20
17.7173
  0
VERTEX
  8
LAYER_1
 10
-15.0664
 20
18.7433
  0
VERTEX
  8
LAYER_1
 10
-14.998
 20
18.9441
  0
VERTEX
  8
LAYER_1
 10
-14.8951
 20
19.2014
  0
VERTEX
  8
LAYER_1
 10
-14.7644
 20
19.4916
  0
VERTEX
  8
LAYER_1
 10
-14.6125
 20
19.7911
  0
VERTEX
  8
LAYER_1
 10
-14.4461
 20
20.0762
  0
VERTEX
  8
LAYER_1
 10
-14.2718
 20
20.3233
  0
VERTEX
  8
LAYER_1
 10
-14.0963
 20
20.5088
  0
VERTEX
  8
LAYER_1
 10
-13.9263
 20
20.6091
  0
VERTEX
  8
LAYER_1
 10
-13.8608
 20
20.4747
  0
VERTEX
  8
LAYER_1
 10
-13.8025
 20
20.2785
  0
VERTEX
  8
LAYER_1
 10
-13.7457
 20
20.035
  0
VERTEX
  8
LAYER_1
 10
-13.6844
 20
19.7591
  0
VERTEX
  8
LAYER_1
 10
-13.6131
 20
19.4653
  0
VERTEX
  8
LAYER_1
 10
-13.5259
 20
19.1685
  0
VERTEX
  8
LAYER_1
 10
-13.4171
 20
18.8834
  0
VERTEX
  8
LAYER_1
 10
-13.2808
 20
18.6245
  0
VERTEX
  8
LAYER_1
 10
-13.1413
 20
18.4216
  0
VERTEX
  8
LAYER_1
 10
-12.9935
 20
18.2405
  0
VERTEX
  8
LAYER_1
 10
-12.8368
 20
18.0775
  0
VERTEX
  8
LAYER_1
 10
-12.6709
 20
17.929
  0
VERTEX
  8
LAYER_1
 10
-12.3092
 20
17.6612
  0
VERTEX
  8
LAYER_1
 10
-11.9043
 20
17.4084
  0
VERTEX
  8
LAYER_1
 10
-11.4985
 20
17.1734
  0
VERTEX
  8
LAYER_1
 10
-11.0803
 20
16.943
  0
VERTEX
  8
LAYER_1
 10
-10.6533
 20
16.7166
  0
VERTEX
  8
LAYER_1
 10
-10.2207
 20
16.4937
  0
VERTEX
  8
LAYER_1
 10
-9.786
 20
16.2736
  0
VERTEX
  8
LAYER_1
 10
-9.3525
 20
16.0559
  0
VERTEX
  8
LAYER_1
 10
-8.9235
 20
15.8399
  0
VERTEX
  8
LAYER_1
 10
-8.5025
 20
15.625
  0
VERTEX
  8
LAYER_1
 10
-8.0907
 20
15.406
  0
VERTEX
  8
LAYER_1
 10
-7.6803
 20
15.1741
  0
VERTEX
  8
LAYER_1
 10
-7.2732
 20
14.9299
  0
VERTEX
  8
LAYER_1
 10
-6.8713
 20
14.6742
  0
VERTEX
  8
LAYER_1
 10
-6.4766
 20
14.4077
  0
VERTEX
  8
LAYER_1
 10
-6.091
 20
14.1309
  0
VERTEX
  8
LAYER_1
 10
-5.7165
 20
13.8447
  0
VERTEX
  8
LAYER_1
 10
-5.355
 20
13.5497
  0
VERTEX
  8
LAYER_1
 10
-4.7839
 20
13.0129
  0
VERTEX
  8
LAYER_1
 10
-4.3167
 20
12.4754
  0
VERTEX
  8
LAYER_1
 10
-3.9443
 20
11.96
  0
VERTEX
  8
LAYER_1
 10
-3.6577
 20
11.4901
  0
VERTEX
  8
LAYER_1
 10
-3.4476
 20
11.0887
  0
VERTEX
  8
LAYER_1
 10
-3.305
 20
10.7789
  0
VERTEX
  8
LAYER_1
 10
-3.2208
 20
10.5838
  0
VERTEX
  8
LAYER_1
 10
-3.1858
 20
10.5265
  0
VERTEX
  8
LAYER_1
 10
-3.1476
 20
10.7738
  0
VERTEX
  8
LAYER_1
 10
-3.132
 20
11.2707
  0
VERTEX
  8
LAYER_1
 10
-3.0441
 20
12.0023
  0
VERTEX
  8
LAYER_1
 10
-2.7886
 20
12.9539
  0
VERTEX
  8
LAYER_1
 10
-2.2707
 20
14.1106
  0
VERTEX
  8
LAYER_1
 10
-1.3951
 20
15.4576
  0
VERTEX
  8
LAYER_1
 10
-0.0669
 20
16.9802
  0
VERTEX
  8
LAYER_1
 10
1.809
 20
18.6634
  0
VERTEX
  8
LAYER_1
 10
2.4941
 20
19.1878
  0
VERTEX
  8
LAYER_1
 10
3.238
 20
19.7038
  0
VERTEX
  8
LAYER_1
 10
4.0277
 20
20.2016
  0
VERTEX
  8
LAYER_1
 10
4.8504
 20
20.671
  0
VERTEX
  8
LAYER_1
 10
5.6932
 20
21.1022
  0
VERTEX
  8
LAYER_1
 10
6.5431
 20
21.4852
  0
VERTEX
  8
LAYER_1
 10
7.3873
 20
21.8099
  0
VERTEX
  8
LAYER_1
 10
8.2128
 20
22.0663
  0
VERTEX
  8
LAYER_1
 10
8.5329
 20
22.1441
  0
VERTEX
  8
LAYER_1
 10
8.9291
 20
22.2231
  0
VERTEX
  8
LAYER_1
 10
9.3711
 20
22.2914
  0
VERTEX
  8
LAYER_1
 10
9.8283
 20
22.3375
  0
SEQEND
  8
LAYER_1
  0
ENDSEC
  0
EOF
