  0
SECTION
  2
HEADER
  9
$ACADVER
  1
AC1002
  9
$INSBASE
 10
0.0
 20
0.0
  9
$EXTMIN
 10
-25.0381
 20
-22.4539
  9
$EXTMAX
 10
25.0381
 20
22.2881
  9
$LIMMIN
 10
0.0
 20
0.0
  9
$LIMMAX
 10
12.0
 20
9.0
  9
$ORTHOMODE
 70
     0
  9
$REGENMODE
 70
     1
  9
$FILLMODE
 70
     1
  9
$QTEXTMODE
 70
     0
  9
$DRAGMODE
 70
     2
  9
$LTSCALE
 40
1.0
  9
$OSMODE
 70
    37
  9
$ATTMODE
 70
     1
  9
$TEXTSIZE
 40
0.2
  9
$TRACEWID
 40
0.05
  9
$TEXTSTYLE
  7
STANDARD
  9
$CLAYER
  8
0
  9
$CELTYPE
  6
BYLAYER
  9
$CECOLOR
 62
   256
  9
$DIMSCALE
 40
1.0
  9
$DIMASZ
 40
0.18
  9
$DIMEXO
 40
0.0625
  9
$DIMDLI
 40
0.38
  9
$DIMRND
 40
0.0
  9
$DIMDLE
 40
0.0
  9
$DIMEXE
 40
0.18
  9
$DIMTP
 40
0.0
  9
$DIMTM
 40
0.0
  9
$DIMTXT
 40
0.18
  9
$DIMCEN
 40
0.09
  9
$DIMTSZ
 40
0.0
  9
$DIMTOL
 70
     0
  9
$DIMLIM
 70
     0
  9
$DIMTIH
 70
     1
  9
$DIMTOH
 70
     1
  9
$DIMSE1
 70
     0
  9
$DIMSE2
 70
     0
  9
$DIMTAD
 70
     0
  9
$DIMZIN
 70
     0
  9
$DIMBLK
  1

  9
$LUNITS
 70
     2
  9
$LUPREC
 70
     4
  9
$SKETCHINC
 40
0.1
  9
$FILLETRAD
 40
0.5
  9
$AUNITS
 70
     0
  9
$AUPREC
 70
     0
  9
$MENU
  1
.
  9
$ELEVATION
 40
0.0
  9
$THICKNESS
 40
0.0
  9
$LIMCHECK
 70
     0
  9
$CHAMFERA
 40
0.0
  9
$CHAMFERB
 40
0.0
  9
$SKPOLY
 70
     0
  9
$TDCREATE
 40
2457113.756872986
  9
$TDUPDATE
 40
2457113.756872998
  9
$TDINDWG
 40
0.0000000116
  9
$TDUSRTIMER
 40
0.0000000116
  9
$USRTIMER
 70
     1
  9
$ANGBASE
 50
0.0
  9
$ANGDIR
 70
     0
  9
$PDMODE
 70
     0
  9
$PDSIZE
 40
0.0
  9
$PLINEWID
 40
0.0
  9
$COORDS
 70
     1
  9
$SURFTAB1
 70
     6
  9
$SURFTAB2
 70
     6
  9
$SURFTYPE
 70
     6
  9
$SURFU
 70
     6
  9
$SURFV
 70
     6
  9
$UCSNAME
  2

  9
$UCSORG
 10
0.0
 20
0.0
 30
0.0
  9
$UCSXDIR
 10
1.0
 20
0.0
 30
0.0
  9
$UCSYDIR
 10
0.0
 20
1.0
 30
0.0
  9
$USERI1
 70
     0
  9
$USERI2
 70
     0
  9
$USERI3
 70
     0
  9
$USERI4
 70
     0
  9
$USERI5
 70
     0
  9
$USERR1
 40
0.0
  9
$USERR2
 40
0.0
  9
$USERR3
 40
0.0
  9
$USERR4
 40
0.0
  9
$USERR5
 40
0.0
  0
ENDSEC
  0
SECTION
  2
TABLES
  0
TABLE
  2
LTYPE
 70
     1
  0
LTYPE
  2
CONTINUOUS
 70
     0
  3
Solid line
 72
    65
 73
     0
 40
0.0
  0
ENDTAB
  0
TABLE
  2
LAYER
 70
     2
  0
LAYER
  2
0
 70
     0
 62
     7
  6
CONTINUOUS
  0
LAYER
  2
LAYER_1
 70
     0
 62
     7
  6
CONTINUOUS
  0
ENDTAB
  0
TABLE
  2
STYLE
 70
     1
  0
STYLE
  2
STANDARD
 70
     0
 40
0.0
 41
1.0
 50
0.0
 71
     0
 42
0.2
  3
txt
  4

  0
ENDTAB
  0
TABLE
  2
VIEW
 70
     0
  0
ENDTAB
  0
ENDSEC
  0
SECTION
  2
BLOCKS
  0
ENDSEC
  0
SECTION
  2
ENTITIES
  0
POLYLINE
  8
LAYER_1
 62
   242
 66
     1
 70
     1
  0
VERTEX
  8
LAYER_1
 62
   242
 10
0.8765
 20
-5.422
  0
VERTEX
  8
LAYER_1
 62
   242
 10
0.9266
 20
-5.397
  0
VERTEX
  8
LAYER_1
 62
   242
 10
0.8765
 20
-5.422
  0
SEQEND
  8
LAYER_1
 62
   242
  0
POLYLINE
  8
LAYER_1
 62
   242
 66
     1
 70
     1
  0
VERTEX
  8
LAYER_1
 62
   242
 10
-5.2091
 20
1.6404
  0
VERTEX
  8
LAYER_1
 62
   242
 10
-5.159
 20
1.6654
  0
VERTEX
  8
LAYER_1
 62
   242
 10
-5.2091
 20
1.6404
  0
SEQEND
  8
LAYER_1
 62
   242
  0
POLYLINE
  8
LAYER_1
 62
   242
 66
     1
 70
     1
  0
VERTEX
  8
LAYER_1
 62
   242
 10
5.1277
 20
-1.6717
  0
VERTEX
  8
LAYER_1
 62
   242
 10
5.1277
 20
-1.6717
  0
SEQEND
  8
LAYER_1
 62
   242
  0
POLYLINE
  8
LAYER_1
 62
   242
 66
     1
 70
     1
  0
VERTEX
  8
LAYER_1
 62
   242
 10
13.8678
 20
-18.6056
  0
VERTEX
  8
LAYER_1
 62
   242
 10
13.6935
 20
-20.7827
  0
VERTEX
  8
LAYER_1
 62
   242
 10
13.9142
 20
-20.6731
  0
VERTEX
  8
LAYER_1
 62
   242
 10
14.1351
 20
-20.414
  0
VERTEX
  8
LAYER_1
 62
   242
 10
14.3494
 20
-20.0453
  0
VERTEX
  8
LAYER_1
 62
   242
 10
14.5505
 20
-19.6068
  0
VERTEX
  8
LAYER_1
 62
   242
 10
14.7317
 20
-19.1384
  0
VERTEX
  8
LAYER_1
 62
   242
 10
14.8865
 20
-18.68
  0
VERTEX
  8
LAYER_1
 62
   242
 10
15.008
 20
-18.2714
  0
VERTEX
  8
LAYER_1
 62
   242
 10
15.0897
 20
-17.9525
  0
VERTEX
  8
LAYER_1
 62
   242
 10
15.3594
 20
-16.3755
  0
VERTEX
  8
LAYER_1
 62
   242
 10
15.4817
 20
-14.6562
  0
VERTEX
  8
LAYER_1
 62
   242
 10
15.4551
 20
-12.8549
  0
VERTEX
  8
LAYER_1
 62
   242
 10
15.2781
 20
-11.0325
  0
VERTEX
  8
LAYER_1
 62
   242
 10
14.949
 20
-9.2495
  0
VERTEX
  8
LAYER_1
 62
   242
 10
14.4662
 20
-7.5665
  0
VERTEX
  8
LAYER_1
 62
   242
 10
13.8281
 20
-6.0442
  0
VERTEX
  8
LAYER_1
 62
   242
 10
13.0332
 20
-4.7432
  0
VERTEX
  8
LAYER_1
 62
   242
 10
12.6871
 20
-4.3122
  0
VERTEX
  8
LAYER_1
 62
   242
 10
12.3483
 20
-3.9439
  0
VERTEX
  8
LAYER_1
 62
   242
 10
12.0267
 20
-3.634
  0
VERTEX
  8
LAYER_1
 62
   242
 10
11.7322
 20
-3.3781
  0
VERTEX
  8
LAYER_1
 62
   242
 10
11.2647
 20
-3.0106
  0
VERTEX
  8
LAYER_1
 62
   242
 10
11.0256
 20
-2.8064
  0
VERTEX
  8
LAYER_1
 62
   242
 10
11.5106
 20
-2.8613
  0
VERTEX
  8
LAYER_1
 62
   242
 10
11.7848
 20
-2.8844
  0
VERTEX
  8
LAYER_1
 62
   242
 10
12.055
 20
-2.8873
  0
VERTEX
  8
LAYER_1
 62
   242
 10
12.5282
 20
-2.8816
  0
VERTEX
  8
LAYER_1
 62
   242
 10
13.3345
 20
-2.8047
  0
VERTEX
  8
LAYER_1
 62
   242
 10
14.1831
 20
-2.5947
  0
VERTEX
  8
LAYER_1
 62
   242
 10
15.0486
 20
-2.2824
  0
VERTEX
  8
LAYER_1
 62
   242
 10
15.9056
 20
-1.8987
  0
VERTEX
  8
LAYER_1
 62
   242
 10
16.7288
 20
-1.4744
  0
VERTEX
  8
LAYER_1
 62
   242
 10
17.4927
 20
-1.0405
  0
VERTEX
  8
LAYER_1
 62
   242
 10
18.172
 20
-0.6276
  0
VERTEX
  8
LAYER_1
 62
   242
 10
18.7414
 20
-0.2668
  0
VERTEX
  8
LAYER_1
 62
   242
 10
19.4095
 20
0.1719
  0
VERTEX
  8
LAYER_1
 62
   242
 10
20.0854
 20
0.6189
  0
VERTEX
  8
LAYER_1
 62
   242
 10
20.4269
 20
0.8378
  0
VERTEX
  8
LAYER_1
 62
   242
 10
20.7711
 20
1.0495
  0
VERTEX
  8
LAYER_1
 62
   242
 10
21.1181
 20
1.2509
  0
VERTEX
  8
LAYER_1
 62
   242
 10
21.4683
 20
1.4391
  0
VERTEX
  8
LAYER_1
 62
   242
 10
22.1261
 20
1.7153
  0
VERTEX
  8
LAYER_1
 62
   242
 10
22.7004
 20
1.8449
  0
VERTEX
  8
LAYER_1
 62
   242
 10
23.2019
 20
1.8617
  0
VERTEX
  8
LAYER_1
 62
   242
 10
23.6416
 20
1.7996
  0
VERTEX
  8
LAYER_1
 62
   242
 10
24.0304
 20
1.6924
  0
VERTEX
  8
LAYER_1
 62
   242
 10
24.3791
 20
1.5739
  0
VERTEX
  8
LAYER_1
 62
   242
 10
24.6987
 20
1.478
  0
VERTEX
  8
LAYER_1
 62
   242
 10
25.0
 20
1.4385
  0
VERTEX
  8
LAYER_1
 62
   242
 10
24.9561
 20
1.7773
  0
VERTEX
  8
LAYER_1
 62
   242
 10
24.8308
 20
2.1311
  0
VERTEX
  8
LAYER_1
 62
   242
 10
24.6333
 20
2.4961
  0
VERTEX
  8
LAYER_1
 62
   242
 10
24.373
 20
2.8684
  0
VERTEX
  8
LAYER_1
 62
   242
 10
24.0594
 20
3.2442
  0
VERTEX
  8
LAYER_1
 62
   242
 10
23.7017
 20
3.6199
  0
VERTEX
  8
LAYER_1
 62
   242
 10
23.3093
 20
3.9916
  0
VERTEX
  8
LAYER_1
 62
   242
 10
22.8916
 20
4.3554
  0
VERTEX
  8
LAYER_1
 62
   242
 10
22.458
 20
4.7077
  0
VERTEX
  8
LAYER_1
 62
   242
 10
22.0177
 20
5.0446
  0
VERTEX
  8
LAYER_1
 62
   242
 10
21.5803
 20
5.3623
  0
VERTEX
  8
LAYER_1
 62
   242
 10
21.1549
 20
5.6571
  0
VERTEX
  8
LAYER_1
 62
   242
 10
20.751
 20
5.9251
  0
VERTEX
  8
LAYER_1
 62
   242
 10
20.378
 20
6.1626
  0
VERTEX
  8
LAYER_1
 62
   242
 10
20.0451
 20
6.3658
  0
VERTEX
  8
LAYER_1
 62
   242
 10
19.7619
 20
6.5309
  0
VERTEX
  8
LAYER_1
 62
   242
 10
18.9978
 20
6.9387
  0
VERTEX
  8
LAYER_1
 62
   242
 10
18.1206
 20
7.3556
  0
VERTEX
  8
LAYER_1
 62
   242
 10
17.1525
 20
7.7619
  0
VERTEX
  8
LAYER_1
 62
   242
 10
16.1163
 20
8.1381
  0
VERTEX
  8
LAYER_1
 62
   242
 10
15.0344
 20
8.4648
  0
VERTEX
  8
LAYER_1
 62
   242
 10
13.9292
 20
8.7223
  0
VERTEX
  8
LAYER_1
 62
   242
 10
12.8233
 20
8.8911
  0
VERTEX
  8
LAYER_1
 62
   242
 10
11.7393
 20
8.9517
  0
VERTEX
  8
LAYER_1
 62
   242
 10
11.163
 20
8.9311
  0
VERTEX
  8
LAYER_1
 62
   242
 10
10.6222
 20
8.8736
  0
VERTEX
  8
LAYER_1
 62
   242
 10
10.1081
 20
8.7858
  0
VERTEX
  8
LAYER_1
 62
   242
 10
9.6124
 20
8.6744
  0
VERTEX
  8
LAYER_1
 62
   242
 10
9.3713
 20
8.6046
  0
VERTEX
  8
LAYER_1
 62
   242
 10
9.1308
 20
8.5184
  0
VERTEX
  8
LAYER_1
 62
   242
 10
8.894
 20
8.422
  0
VERTEX
  8
LAYER_1
 62
   242
 10
8.6638
 20
8.322
  0
VERTEX
  8
LAYER_1
 62
   242
 10
8.2354
 20
8.1364
  0
VERTEX
  8
LAYER_1
 62
   242
 10
7.87
 20
8.0125
  0
VERTEX
  8
LAYER_1
 62
   242
 10
8.3453
 20
8.7793
  0
VERTEX
  8
LAYER_1
 62
   242
 10
8.7203
 20
9.5154
  0
VERTEX
  8
LAYER_1
 62
   242
 10
9.0054
 20
10.244
  0
VERTEX
  8
LAYER_1
 62
   242
 10
9.2111
 20
10.9883
  0
VERTEX
  8
LAYER_1
 62
   242
 10
9.3477
 20
11.7715
  0
VERTEX
  8
LAYER_1
 62
   242
 10
9.4258
 20
12.6169
  0
VERTEX
  8
LAYER_1
 62
   242
 10
9.4557
 20
13.5475
  0
VERTEX
  8
LAYER_1
 62
   242
 10
9.4478
 20
14.5866
  0
VERTEX
  8
LAYER_1
 62
   242
 10
9.4314
 20
15.1172
  0
VERTEX
  8
LAYER_1
 62
   242
 10
9.4071
 20
15.653
  0
VERTEX
  8
LAYER_1
 62
   242
 10
9.3784
 20
16.192
  0
VERTEX
  8
LAYER_1
 62
   242
 10
9.349
 20
16.7324
  0
VERTEX
  8
LAYER_1
 62
   242
 10
9.3225
 20
17.2722
  0
VERTEX
  8
LAYER_1
 62
   242
 10
9.3027
 20
17.8096
  0
VERTEX
  8
LAYER_1
 62
   242
 10
9.2932
 20
18.3425
  0
VERTEX
  8
LAYER_1
 62
   242
 10
9.2976
 20
18.8691
  0
VERTEX
  8
LAYER_1
 62
   242
 10
9.3866
 20
19.7102
  0
VERTEX
  8
LAYER_1
 62
   242
 10
9.5843
 20
20.3572
  0
VERTEX
  8
LAYER_1
 62
   242
 10
9.8554
 20
20.8453
  0
VERTEX
  8
LAYER_1
 62
   242
 10
10.1643
 20
21.2098
  0
VERTEX
  8
LAYER_1
 62
   242
 10
10.4756
 20
21.4862
  0
VERTEX
  8
LAYER_1
 62
   242
 10
10.754
 20
21.7096
  0
VERTEX
  8
LAYER_1
 62
   242
 10
10.9639
 20
21.9155
  0
VERTEX
  8
LAYER_1
 62
   242
 10
11.07
 20
22.1392
  0
VERTEX
  8
LAYER_1
 62
   242
 10
10.4728
 20
22.25
  0
VERTEX
  8
LAYER_1
 62
   242
 10
9.9361
 20
22.25
  0
VERTEX
  8
LAYER_1
 62
   242
 10
8.7999
 20
22.1352
  0
VERTEX
  8
LAYER_1
 62
   242
 10
7.6134
 20
21.821
  0
VERTEX
  8
LAYER_1
 62
   242
 10
6.4123
 20
21.3525
  0
VERTEX
  8
LAYER_1
 62
   242
 10
5.2323
 20
20.7748
  0
VERTEX
  8
LAYER_1
 62
   242
 10
4.1091
 20
20.1333
  0
VERTEX
  8
LAYER_1
 62
   242
 10
3.0784
 20
19.4729
  0
VERTEX
  8
LAYER_1
 62
   242
 10
2.1761
 20
18.839
  0
VERTEX
  8
LAYER_1
 62
   242
 10
1.4377
 20
18.2766
  0
VERTEX
  8
LAYER_1
 62
   242
 10
0.6667
 20
17.6286
  0
VERTEX
  8
LAYER_1
 62
   242
 10
-0.1246
 20
16.8756
  0
VERTEX
  8
LAYER_1
 62
   242
 10
-0.8983
 20
16.0222
  0
VERTEX
  8
LAYER_1
 62
   242
 10
-1.6164
 20
15.0732
  0
VERTEX
  8
LAYER_1
 62
   242
 10
-2.2411
 20
14.0334
  0
VERTEX
  8
LAYER_1
 62
   242
 10
-2.7342
 20
12.9076
  0
VERTEX
  8
LAYER_1
 62
   242
 10
-3.058
 20
11.7004
  0
VERTEX
  8
LAYER_1
 62
   242
 10
-3.1743
 20
10.4167
  0
VERTEX
  8
LAYER_1
 62
   242
 10
-3.3179
 20
10.6261
  0
VERTEX
  8
LAYER_1
 62
   242
 10
-3.4424
 20
10.8815
  0
VERTEX
  8
LAYER_1
 62
   242
 10
-3.5751
 20
11.1839
  0
VERTEX
  8
LAYER_1
 62
   242
 10
-3.7438
 20
11.5347
  0
VERTEX
  8
LAYER_1
 62
   242
 10
-3.9759
 20
11.9351
  0
VERTEX
  8
LAYER_1
 62
   242
 10
-4.2992
 20
12.3863
  0
VERTEX
  8
LAYER_1
 62
   242
 10
-4.7411
 20
12.8895
  0
VERTEX
  8
LAYER_1
 62
   242
 10
-5.3292
 20
13.446
  0
VERTEX
  8
LAYER_1
 62
   242
 10
-5.6843
 20
13.7424
  0
VERTEX
  8
LAYER_1
 62
   242
 10
-6.0536
 20
14.0271
  0
VERTEX
  8
LAYER_1
 62
   242
 10
-6.4355
 20
14.3009
  0
VERTEX
  8
LAYER_1
 62
   242
 10
-6.8281
 20
14.5643
  0
VERTEX
  8
LAYER_1
 62
   242
 10
-7.2297
 20
14.8178
  0
VERTEX
  8
LAYER_1
 62
   242
 10
-7.6387
 20
15.0621
  0
VERTEX
  8
LAYER_1
 62
   242
 10
-8.0533
 20
15.2977
  0
VERTEX
  8
LAYER_1
 62
   242
 10
-8.4717
 20
15.5251
  0
VERTEX
  8
LAYER_1
 62
   242
 10
-8.8958
 20
15.7468
  0
VERTEX
  8
LAYER_1
 62
   242
 10
-9.3275
 20
15.9664
  0
VERTEX
  8
LAYER_1
 62
   242
 10
-9.7635
 20
16.1853
  0
VERTEX
  8
LAYER_1
 62
   242
 10
-10.2006
 20
16.4049
  0
VERTEX
  8
LAYER_1
 62
   242
 10
-10.6357
 20
16.6269
  0
VERTEX
  8
LAYER_1
 62
   242
 10
-11.0655
 20
16.8527
  0
VERTEX
  8
LAYER_1
 62
   242
 10
-11.487
 20
17.0837
  0
VERTEX
  8
LAYER_1
 62
   242
 10
-11.8969
 20
17.3215
  0
VERTEX
  8
LAYER_1
 62
   242
 10
-12.3025
 20
17.5766
  0
VERTEX
  8
LAYER_1
 62
   242
 10
-12.6663
 20
17.8471
  0
VERTEX
  8
LAYER_1
 62
   242
 10
-12.8329
 20
17.9963
  0
VERTEX
  8
LAYER_1
 62
   242
 10
-12.9893
 20
18.159
  0
VERTEX
  8
LAYER_1
 62
   242
 10
-13.1358
 20
18.3385
  0
VERTEX
  8
LAYER_1
 62
   242
 10
-13.2725
 20
18.538
  0
VERTEX
  8
LAYER_1
 62
   242
 10
-13.4043
 20
18.7905
  0
VERTEX
  8
LAYER_1
 62
   242
 10
-13.5095
 20
19.0686
  0
VERTEX
  8
LAYER_1
 62
   242
 10
-13.5941
 20
19.359
  0
VERTEX
  8
LAYER_1
 62
   242
 10
-13.6641
 20
19.6482
  0
VERTEX
  8
LAYER_1
 62
   242
 10
-13.7255
 20
19.9225
  0
VERTEX
  8
LAYER_1
 62
   242
 10
-13.7843
 20
20.1686
  0
VERTEX
  8
LAYER_1
 62
   242
 10
-13.8465
 20
20.3729
  0
VERTEX
  8
LAYER_1
 62
   242
 10
-13.9181
 20
20.522
  0
VERTEX
  8
LAYER_1
 62
   242
 10
-14.1147
 20
20.4219
  0
VERTEX
  8
LAYER_1
 62
   242
 10
-14.323
 20
20.1787
  0
VERTEX
  8
LAYER_1
 62
   242
 10
-14.5335
 20
19.8308
  0
VERTEX
  8
LAYER_1
 62
   242
 10
-14.7368
 20
19.4169
  0
VERTEX
  8
LAYER_1
 62
   242
 10
-14.9234
 20
18.9755
  0
VERTEX
  8
LAYER_1
 62
   242
 10
-15.0838
 20
18.5452
  0
VERTEX
  8
LAYER_1
 62
   242
 10
-15.2085
 20
18.1646
  0
VERTEX
  8
LAYER_1
 62
   242
 10
-15.288
 20
17.8723
  0
VERTEX
  8
LAYER_1
 62
   242
 10
-15.4117
 20
17.3015
  0
VERTEX
  8
LAYER_1
 62
   242
 10
-15.5101
 20
16.7769
  0
VERTEX
  8
LAYER_1
 62
   242
 10
-15.5859
 20
16.2809
  0
VERTEX
  8
LAYER_1
 62
   242
 10
-15.6419
 20
15.7958
  0
VERTEX
  8
LAYER_1
 62
   242
 10
-15.6807
 20
15.3038
  0
VERTEX
  8
LAYER_1
 62
   242
 10
-15.7051
 20
14.7873
  0
VERTEX
  8
LAYER_1
 62
   242
 10
-15.7177
 20
14.2285
  0
VERTEX
  8
LAYER_1
 62
   242
 10
-15.7213
 20
13.6099
  0
VERTEX
  8
LAYER_1
 62
   242
 10
-15.6995
 20
12.7438
  0
VERTEX
  8
LAYER_1
 62
   242
 10
-15.6366
 20
11.853
  0
VERTEX
  8
LAYER_1
 62
   242
 10
-15.5362
 20
10.9559
  0
VERTEX
  8
LAYER_1
 62
   242
 10
-15.402
 20
10.0713
  0
VERTEX
  8
LAYER_1
 62
   242
 10
-15.2376
 20
9.2177
  0
VERTEX
  8
LAYER_1
 62
   242
 10
-15.0468
 20
8.4138
  0
VERTEX
  8
LAYER_1
 62
   242
 10
-14.8332
 20
7.6783
  0
VERTEX
  8
LAYER_1
 62
   242
 10
-14.6005
 20
7.0296
  0
VERTEX
  8
LAYER_1
 62
   242
 10
-14.2532
 20
6.2074
  0
VERTEX
  8
LAYER_1
 62
   242
 10
-13.9292
 20
5.5344
  0
VERTEX
  8
LAYER_1
 62
   242
 10
-13.6079
 20
4.9743
  0
VERTEX
  8
LAYER_1
 62
   242
 10
-13.2689
 20
4.4911
  0
VERTEX
  8
LAYER_1
 62
   242
 10
-12.8917
 20
4.0485
  0
VERTEX
  8
LAYER_1
 62
   242
 10
-12.4559
 20
3.6104
  0
VERTEX
  8
LAYER_1
 62
   242
 10
-11.9408
 20
3.1406
  0
VERTEX
  8
LAYER_1
 62
   242
 10
-11.3261
 20
2.603
  0
VERTEX
  8
LAYER_1
 62
   242
 10
-12.8991
 20
2.674
  0
VERTEX
  8
LAYER_1
 62
   242
 10
-14.5275
 20
2.2701
  0
VERTEX
  8
LAYER_1
 62
   242
 10
-16.1627
 20
1.5348
  0
VERTEX
  8
LAYER_1
 62
   242
 10
-17.7564
 20
0.6114
  0
VERTEX
  8
LAYER_1
 62
   242
 10
-19.2601
 20
-0.3564
  0
VERTEX
  8
LAYER_1
 62
   242
 10
-20.6252
 20
-1.2254
  0
VERTEX
  8
LAYER_1
 62
   242
 10
-21.8034
 20
-1.852
  0
VERTEX
  8
LAYER_1
 62
   242
 10
-22.7461
 20
-2.0927
  0
VERTEX
  8
LAYER_1
 62
   242
 10
-23.272
 20
-2.0927
  0
VERTEX
  8
LAYER_1
 62
   242
 10
-23.5029
 20
-2.0723
  0
VERTEX
  8
LAYER_1
 62
   242
 10
-23.7478
 20
-2.0191
  0
VERTEX
  8
LAYER_1
 62
   242
 10
-23.9976
 20
-1.945
  0
VERTEX
  8
LAYER_1
 62
   242
 10
-24.2432
 20
-1.862
  0
VERTEX
  8
LAYER_1
 62
   242
 10
-24.4754
 20
-1.782
  0
VERTEX
  8
LAYER_1
 62
   242
 10
-24.685
 20
-1.717
  0
VERTEX
  8
LAYER_1
 62
   242
 10
-24.863
 20
-1.6788
  0
VERTEX
  8
LAYER_1
 62
   242
 10
-25.0
 20
-1.6795
  0
VERTEX
  8
LAYER_1
 62
   242
 10
-24.8293
 20
-2.3723
  0
VERTEX
  8
LAYER_1
 62
   242
 10
-24.3677
 20
-3.1119
  0
VERTEX
  8
LAYER_1
 62
   242
 10
-23.691
 20
-3.8673
  0
VERTEX
  8
LAYER_1
 62
   242
 10
-22.8753
 20
-4.607
  0
VERTEX
  8
LAYER_1
 62
   242
 10
-21.9962
 20
-5.2999
  0
VERTEX
  8
LAYER_1
 62
   242
 10
-21.1297
 20
-5.9148
  0
VERTEX
  8
LAYER_1
 62
   242
 10
-20.3517
 20
-6.4204
  0
VERTEX
  8
LAYER_1
 62
   242
 10
-19.7379
 20
-6.7855
  0
VERTEX
  8
LAYER_1
 62
   242
 10
-18.9887
 20
-7.1819
  0
VERTEX
  8
LAYER_1
 62
   242
 10
-18.1202
 20
-7.5921
  0
VERTEX
  8
LAYER_1
 62
   242
 10
-17.157
 20
-7.9956
  0
VERTEX
  8
LAYER_1
 62
   242
 10
-16.1235
 20
-8.3717
  0
VERTEX
  8
LAYER_1
 62
   242
 10
-15.0442
 20
-8.7001
  0
VERTEX
  8
LAYER_1
 62
   242
 10
-13.9437
 20
-8.96
  0
VERTEX
  8
LAYER_1
 62
   242
 10
-12.8464
 20
-9.131
  0
VERTEX
  8
LAYER_1
 62
   242
 10
-11.7769
 20
-9.1926
  0
VERTEX
  8
LAYER_1
 62
   242
 10
-11.327
 20
-9.174
  0
VERTEX
  8
LAYER_1
 62
   242
 10
-10.8148
 20
-9.1212
  0
VERTEX
  8
LAYER_1
 62
   242
 10
-10.2701
 20
-9.0386
  0
VERTEX
  8
LAYER_1
 62
   242
 10
-9.7225
 20
-8.9303
  0
VERTEX
  8
LAYER_1
 62
   242
 10
-9.2015
 20
-8.8009
  0
VERTEX
  8
LAYER_1
 62
   242
 10
-8.737
 20
-8.6545
  0
VERTEX
  8
LAYER_1
 62
   242
 10
-8.3584
 20
-8.4957
  0
VERTEX
  8
LAYER_1
 62
   242
 10
-8.0954
 20
-8.3286
  0
VERTEX
  8
LAYER_1
 62
   242
 10
-8.0516
 20
-8.3599
  0
VERTEX
  8
LAYER_1
 62
   242
 10
-8.695
 20
-9.3819
  0
VERTEX
  8
LAYER_1
 62
   242
 10
-9.115
 20
-10.5296
  0
VERTEX
  8
LAYER_1
 62
   242
 10
-9.371
 20
-11.7144
  0
VERTEX
  8
LAYER_1
 62
   242
 10
-9.4972
 20
-12.9275
  0
VERTEX
  8
LAYER_1
 62
   242
 10
-9.5275
 20
-14.1602
  0
VERTEX
  8
LAYER_1
 62
   242
 10
-9.4962
 20
-15.4035
  0
VERTEX
  8
LAYER_1
 62
   242
 10
-9.4372
 20
-16.6488
  0
VERTEX
  8
LAYER_1
 62
   242
 10
-9.3847
 20
-17.8872
  0
VERTEX
  8
LAYER_1
 62
   242
 10
-9.3727
 20
-19.11
  0
VERTEX
  8
LAYER_1
 62
   242
 10
-9.383
 20
-19.4073
  0
VERTEX
  8
LAYER_1
 62
   242
 10
-9.413
 20
-19.6867
  0
VERTEX
  8
LAYER_1
 62
   242
 10
-9.4616
 20
-19.9488
  0
VERTEX
  8
LAYER_1
 62
   242
 10
-9.5273
 20
-20.1944
  0
VERTEX
  8
LAYER_1
 62
   242
 10
-9.6089
 20
-20.4242
  0
VERTEX
  8
LAYER_1
 62
   242
 10
-9.7051
 20
-20.6389
  0
VERTEX
  8
LAYER_1
 62
   242
 10
-9.8147
 20
-20.8392
  0
VERTEX
  8
LAYER_1
 62
   242
 10
-9.9363
 20
-21.0258
  0
VERTEX
  8
LAYER_1
 62
   242
 10
-10.2301
 20
-21.3519
  0
VERTEX
  8
LAYER_1
 62
   242
 10
-10.609
 20
-21.7081
  0
VERTEX
  8
LAYER_1
 62
   242
 10
-10.7903
 20
-21.8824
  0
VERTEX
  8
LAYER_1
 62
   242
 10
-10.9447
 20
-22.046
  0
VERTEX
  8
LAYER_1
 62
   242
 10
-11.0563
 20
-22.1929
  0
VERTEX
  8
LAYER_1
 62
   242
 10
-11.109
 20
-22.317
  0
VERTEX
  8
LAYER_1
 62
   242
 10
-10.535
 20
-22.4158
  0
VERTEX
  8
LAYER_1
 62
   242
 10
-10.0113
 20
-22.4158
  0
VERTEX
  8
LAYER_1
 62
   242
 10
-8.8902
 20
-22.304
  0
VERTEX
  8
LAYER_1
 62
   242
 10
-7.7213
 20
-21.9979
  0
VERTEX
  8
LAYER_1
 62
   242
 10
-6.5391
 20
-21.5414
  0
VERTEX
  8
LAYER_1
 62
   242
 10
-5.3783
 20
-20.9786
  0
VERTEX
  8
LAYER_1
 62
   242
 10
-4.2732
 20
-20.3533
  0
VERTEX
  8
LAYER_1
 62
   242
 10
-3.2585
 20
-19.7095
  0
VERTEX
  8
LAYER_1
 62
   242
 10
-2.3687
 20
-19.0912
  0
VERTEX
  8
LAYER_1
 62
   242
 10
-1.6383
 20
-18.5424
  0
VERTEX
  8
LAYER_1
 62
   242
 10
-0.8517
 20
-17.8935
  0
VERTEX
  8
LAYER_1
 62
   242
 10
-0.0639
 20
-17.1611
  0
VERTEX
  8
LAYER_1
 62
   242
 10
0.6967
 20
-16.3454
  0
VERTEX
  8
LAYER_1
 62
   242
 10
1.4017
 20
-15.447
  0
VERTEX
  8
LAYER_1
 62
   242
 10
2.0228
 20
-14.4661
  0
VERTEX
  8
LAYER_1
 62
   242
 10
2.5317
 20
-13.4033
  0
VERTEX
  8
LAYER_1
 62
   242
 10
2.8999
 20
-12.2589
  0
VERTEX
  8
LAYER_1
 62
   242
 10
3.0992
 20
-11.0333
  0
VERTEX
  8
LAYER_1
 62
   242
 10
3.3296
 20
-11.4116
  0
VERTEX
  8
LAYER_1
 62
   242
 10
3.5346
 20
-11.8042
  0
VERTEX
  8
LAYER_1
 62
   242
 10
3.6406
 20
-12.0044
  0
VERTEX
  8
LAYER_1
 62
   242
 10
3.7558
 20
-12.2066
  0
VERTEX
  8
LAYER_1
 62
   242
 10
3.8855
 20
-12.4102
  0
VERTEX
  8
LAYER_1
 62
   242
 10
4.0348
 20
-12.6146
  0
VERTEX
  8
LAYER_1
 62
   242
 10
4.456
 20
-13.0974
  0
VERTEX
  8
LAYER_1
 62
   242
 10
4.9419
 20
-13.5656
  0
VERTEX
  8
LAYER_1
 62
   242
 10
5.4779
 20
-14.0156
  0
VERTEX
  8
LAYER_1
 62
   242
 10
6.0498
 20
-14.4439
  0
VERTEX
  8
LAYER_1
 62
   242
 10
6.6431
 20
-14.8467
  0
VERTEX
  8
LAYER_1
 62
   242
 10
7.2436
 20
-15.2206
  0
VERTEX
  8
LAYER_1
 62
   242
 10
7.8368
 20
-15.5619
  0
VERTEX
  8
LAYER_1
 62
   242
 10
8.4083
 20
-15.867
  0
VERTEX
  8
LAYER_1
 62
   242
 10
8.952
 20
-16.1376
  0
VERTEX
  8
LAYER_1
 62
   242
 10
9.5861
 20
-16.4469
  0
VERTEX
  8
LAYER_1
 62
   242
 10
10.2706
 20
-16.7894
  0
VERTEX
  8
LAYER_1
 62
   242
 10
10.9656
 20
-17.1598
  0
VERTEX
  8
LAYER_1
 62
   242
 10
11.6311
 20
-17.5527
  0
VERTEX
  8
LAYER_1
 62
   242
 10
12.2273
 20
-17.9625
  0
VERTEX
  8
LAYER_1
 62
   242
 10
12.7143
 20
-18.384
  0
VERTEX
  8
LAYER_1
 62
   242
 10
13.052
 20
-18.8116
  0
VERTEX
  8
LAYER_1
 62
   242
 10
13.1798
 20
-19.081
  0
VERTEX
  8
LAYER_1
 62
   242
 10
13.2705
 20
-19.3444
  0
VERTEX
  8
LAYER_1
 62
   242
 10
13.3343
 20
-19.6014
  0
VERTEX
  8
LAYER_1
 62
   242
 10
13.3812
 20
-19.8513
  0
VERTEX
  8
LAYER_1
 62
   242
 10
13.4212
 20
-20.0938
  0
VERTEX
  8
LAYER_1
 62
   242
 10
13.4646
 20
-20.3283
  0
VERTEX
  8
LAYER_1
 62
   242
 10
13.5213
 20
-20.5542
  0
VERTEX
  8
LAYER_1
 62
   242
 10
13.6015
 20
-20.7712
  0
VERTEX
  8
LAYER_1
 62
   242
 10
13.7753
 20
-18.5424
  0
VERTEX
  8
LAYER_1
 62
   242
 10
13.5952
 20
-18.0397
  0
VERTEX
  8
LAYER_1
 62
   242
 10
13.3223
 20
-17.5966
  0
VERTEX
  8
LAYER_1
 62
   242
 10
12.9742
 20
-17.2064
  0
VERTEX
  8
LAYER_1
 62
   242
 10
12.5681
 20
-16.8622
  0
VERTEX
  8
LAYER_1
 62
   242
 10
12.1215
 20
-16.5572
  0
VERTEX
  8
LAYER_1
 62
   242
 10
11.6518
 20
-16.2845
  0
VERTEX
  8
LAYER_1
 62
   242
 10
11.1764
 20
-16.0374
  0
VERTEX
  8
LAYER_1
 62
   242
 10
10.7126
 20
-15.8089
  0
VERTEX
  8
LAYER_1
 62
   242
 10
10.2025
 20
-15.5544
  0
VERTEX
  8
LAYER_1
 62
   242
 10
9.7118
 20
-15.2985
  0
VERTEX
  8
LAYER_1
 62
   242
 10
9.2381
 20
-15.0378
  0
VERTEX
  8
LAYER_1
 62
   242
 10
8.7791
 20
-14.7689
  0
VERTEX
  8
LAYER_1
 62
   242
 10
8.3324
 20
-14.4884
  0
VERTEX
  8
LAYER_1
 62
   242
 10
7.8958
 20
-14.1928
  0
VERTEX
  8
LAYER_1
 62
   242
 10
7.4668
 20
-13.8788
  0
VERTEX
  8
LAYER_1
 62
   242
 10
7.0432
 20
-13.5429
  0
VERTEX
  8
LAYER_1
 62
   242
 10
6.3705
 20
-12.9421
  0
VERTEX
  8
LAYER_1
 62
   242
 10
5.649
 20
-12.2006
  0
VERTEX
  8
LAYER_1
 62
   242
 10
4.9215
 20
-11.3405
  0
VERTEX
  8
LAYER_1
 62
   242
 10
4.2305
 20
-10.3837
  0
VERTEX
  8
LAYER_1
 62
   242
 10
3.6188
 20
-9.3522
  0
VERTEX
  8
LAYER_1
 62
   242
 10
3.129
 20
-8.268
  0
VERTEX
  8
LAYER_1
 62
   242
 10
2.8039
 20
-7.153
  0
VERTEX
  8
LAYER_1
 62
   242
 10
2.686
 20
-6.0293
  0
VERTEX
  8
LAYER_1
 62
   242
 10
2.6936
 20
-5.6115
  0
VERTEX
  8
LAYER_1
 62
   242
 10
2.7197
 20
-5.2326
  0
VERTEX
  8
LAYER_1
 62
   242
 10
2.769
 20
-4.883
  0
VERTEX
  8
LAYER_1
 62
   242
 10
2.8462
 20
-4.5526
  0
VERTEX
  8
LAYER_1
 62
   242
 10
2.956
 20
-4.2318
  0
VERTEX
  8
LAYER_1
 62
   242
 10
3.1032
 20
-3.9106
  0
VERTEX
  8
LAYER_1
 62
   242
 10
3.2925
 20
-3.5793
  0
VERTEX
  8
LAYER_1
 62
   242
 10
3.5286
 20
-3.2281
  0
VERTEX
  8
LAYER_1
 62
   242
 10
3.7094
 20
-3.0033
  0
VERTEX
  8
LAYER_1
 62
   242
 10
3.9258
 20
-2.7735
  0
VERTEX
  8
LAYER_1
 62
   242
 10
4.1622
 20
-2.5454
  0
VERTEX
  8
LAYER_1
 62
   242
 10
4.4027
 20
-2.326
  0
VERTEX
  8
LAYER_1
 62
   242
 10
4.8329
 20
-1.9405
  0
VERTEX
  8
LAYER_1
 62
   242
 10
5.0902
 20
-1.6717
  0
VERTEX
  8
LAYER_1
 62
   242
 10
4.7803
 20
-1.7721
  0
VERTEX
  8
LAYER_1
 62
   242
 10
4.4345
 20
-1.9304
  0
VERTEX
  8
LAYER_1
 62
   242
 10
4.0688
 20
-2.1323
  0
VERTEX
  8
LAYER_1
 62
   242
 10
3.6994
 20
-2.3636
  0
VERTEX
  8
LAYER_1
 62
   242
 10
3.3425
 20
-2.6098
  0
VERTEX
  8
LAYER_1
 62
   242
 10
3.0141
 20
-2.8569
  0
VERTEX
  8
LAYER_1
 62
   242
 10
2.7303
 20
-3.0905
  0
VERTEX
  8
LAYER_1
 62
   242
 10
2.5074
 20
-3.2963
  0
VERTEX
  8
LAYER_1
 62
   242
 10
2.2428
 20
-3.579
  0
VERTEX
  8
LAYER_1
 62
   242
 10
2.0058
 20
-3.8763
  0
VERTEX
  8
LAYER_1
 62
   242
 10
1.7985
 20
-4.1947
  0
VERTEX
  8
LAYER_1
 62
   242
 10
1.6236
 20
-4.5406
  0
VERTEX
  8
LAYER_1
 62
   242
 10
1.4834
 20
-4.9205
  0
VERTEX
  8
LAYER_1
 62
   242
 10
1.3802
 20
-5.3408
  0
VERTEX
  8
LAYER_1
 62
   242
 10
1.3164
 20
-5.808
  0
VERTEX
  8
LAYER_1
 62
   242
 10
1.2946
 20
-6.3284
  0
VERTEX
  8
LAYER_1
 62
   242
 10
1.2995
 20
-7.415
  0
VERTEX
  8
LAYER_1
 62
   242
 10
1.3049
 20
-8.4828
  0
VERTEX
  8
LAYER_1
 62
   242
 10
1.2957
 20
-9.5235
  0
VERTEX
  8
LAYER_1
 62
   242
 10
1.257
 20
-10.5289
  0
VERTEX
  8
LAYER_1
 62
   242
 10
1.1738
 20
-11.4907
  0
VERTEX
  8
LAYER_1
 62
   242
 10
1.0312
 20
-12.4005
  0
VERTEX
  8
LAYER_1
 62
   242
 10
0.814
 20
-13.25
  0
VERTEX
  8
LAYER_1
 62
   242
 10
0.5074
 20
-14.0311
  0
VERTEX
  8
LAYER_1
 62
   242
 10
-0.0247
 20
-14.9574
  0
VERTEX
  8
LAYER_1
 62
   242
 10
-0.6987
 20
-15.8469
  0
VERTEX
  8
LAYER_1
 62
   242
 10
-1.4861
 20
-16.694
  0
VERTEX
  8
LAYER_1
 62
   242
 10
-2.3581
 20
-17.4931
  0
VERTEX
  8
LAYER_1
 62
   242
 10
-3.2863
 20
-18.2387
  0
VERTEX
  8
LAYER_1
 62
   242
 10
-4.242
 20
-18.9253
  0
VERTEX
  8
LAYER_1
 62
   242
 10
-5.1966
 20
-19.5475
  0
VERTEX
  8
LAYER_1
 62
   242
 10
-6.1215
 20
-20.0995
  0
VERTEX
  8
LAYER_1
 62
   242
 10
-6.4712
 20
-20.2986
  0
VERTEX
  8
LAYER_1
 62
   242
 10
-6.7965
 20
-20.4719
  0
VERTEX
  8
LAYER_1
 62
   242
 10
-7.1403
 20
-20.6289
  0
VERTEX
  8
LAYER_1
 62
   242
 10
-7.5456
 20
-20.7791
  0
VERTEX
  8
LAYER_1
 62
   242
 10
-9.1849
 20
-21.2811
  0
VERTEX
  8
LAYER_1
 62
   242
 10
-9.2287
 20
-21.2497
  0
VERTEX
  8
LAYER_1
 62
   242
 10
-8.5667
 20
-20.0961
  0
VERTEX
  8
LAYER_1
 62
   242
 10
-8.3751
 20
-19.4281
  0
VERTEX
  8
LAYER_1
 62
   242
 10
-8.2923
 20
-18.7214
  0
VERTEX
  8
LAYER_1
 62
   242
 10
-8.2876
 20
-17.9762
  0
VERTEX
  8
LAYER_1
 62
   242
 10
-8.3306
 20
-17.1927
  0
VERTEX
  8
LAYER_1
 62
   242
 10
-8.3907
 20
-16.3714
  0
VERTEX
  8
LAYER_1
 62
   242
 10
-8.4373
 20
-15.5126
  0
VERTEX
  8
LAYER_1
 62
   242
 10
-8.4399
 20
-14.6164
  0
VERTEX
  8
LAYER_1
 62
   242
 10
-8.3679
 20
-13.6833
  0
VERTEX
  8
LAYER_1
 62
   242
 10
-8.2878
 20
-13.1022
  0
VERTEX
  8
LAYER_1
 62
   242
 10
-8.1958
 20
-12.5469
  0
VERTEX
  8
LAYER_1
 62
   242
 10
-8.0904
 20
-12.0145
  0
VERTEX
  8
LAYER_1
 62
   242
 10
-7.97
 20
-11.5023
  0
VERTEX
  8
LAYER_1
 62
   242
 10
-7.833
 20
-11.0073
  0
VERTEX
  8
LAYER_1
 62
   242
 10
-7.6779
 20
-10.5267
  0
VERTEX
  8
LAYER_1
 62
   242
 10
-7.503
 20
-10.0579
  0
VERTEX
  8
LAYER_1
 62
   242
 10
-7.3068
 20
-9.5978
  0
VERTEX
  8
LAYER_1
 62
   242
 10
-6.9144
 20
-8.7932
  0
VERTEX
  8
LAYER_1
 62
   242
 10
-6.4437
 20
-7.9678
  0
VERTEX
  8
LAYER_1
 62
   242
 10
-5.8899
 20
-7.1611
  0
VERTEX
  8
LAYER_1
 62
   242
 10
-5.2483
 20
-6.4126
  0
VERTEX
  8
LAYER_1
 62
   242
 10
-4.5142
 20
-5.7617
  0
VERTEX
  8
LAYER_1
 62
   242
 10
-3.6828
 20
-5.248
  0
VERTEX
  8
LAYER_1
 62
   242
 10
-2.7494
 20
-4.9108
  0
VERTEX
  8
LAYER_1
 62
   242
 10
-1.7093
 20
-4.7896
  0
VERTEX
  8
LAYER_1
 62
   242
 10
-1.2317
 20
-4.8146
  0
VERTEX
  8
LAYER_1
 62
   242
 10
-0.7868
 20
-4.8805
  0
VERTEX
  8
LAYER_1
 62
   242
 10
-0.3802
 20
-4.9741
  0
VERTEX
  8
LAYER_1
 62
   242
 10
-0.0174
 20
-5.0821
  0
VERTEX
  8
LAYER_1
 62
   242
 10
0.554
 20
-5.2878
  0
VERTEX
  8
LAYER_1
 62
   242
 10
0.8828
 20
-5.3907
  0
VERTEX
  8
LAYER_1
 62
   242
 10
0.6576
 20
-5.1689
  0
VERTEX
  8
LAYER_1
 62
   242
 10
0.2995
 20
-4.9178
  0
VERTEX
  8
LAYER_1
 62
   242
 10
-0.1572
 20
-4.6557
  0
VERTEX
  8
LAYER_1
 62
   242
 10
-0.6783
 20
-4.4007
  0
VERTEX
  8
LAYER_1
 62
   242
 10
-1.2297
 20
-4.1707
  0
VERTEX
  8
LAYER_1
 62
   242
 10
-1.7772
 20
-3.9841
  0
VERTEX
  8
LAYER_1
 62
   242
 10
-2.2865
 20
-3.8588
  0
VERTEX
  8
LAYER_1
 62
   242
 10
-2.7235
 20
-3.813
  0
VERTEX
  8
LAYER_1
 62
   242
 10
-3.1743
 20
-3.813
  0
VERTEX
  8
LAYER_1
 62
   242
 10
-4.0644
 20
-3.976
  0
VERTEX
  8
LAYER_1
 62
   242
 10
-5.0561
 20
-4.4058
  0
VERTEX
  8
LAYER_1
 62
   242
 10
-6.1349
 20
-5.0135
  0
VERTEX
  8
LAYER_1
 62
   242
 10
-7.2868
 20
-5.7101
  0
VERTEX
  8
LAYER_1
 62
   242
 10
-8.4975
 20
-6.4066
  0
VERTEX
  8
LAYER_1
 62
   242
 10
-9.7528
 20
-7.0143
  0
VERTEX
  8
LAYER_1
 62
   242
 10
-11.0385
 20
-7.4441
  0
VERTEX
  8
LAYER_1
 62
   242
 10
-12.3404
 20
-7.6071
  0
VERTEX
  8
LAYER_1
 62
   242
 10
-12.9414
 20
-7.6071
  0
VERTEX
  8
LAYER_1
 62
   242
 10
-14.2535
 20
-7.4765
  0
VERTEX
  8
LAYER_1
 62
   242
 10
-15.7281
 20
-7.1163
  0
VERTEX
  8
LAYER_1
 62
   242
 10
-17.2804
 20
-6.5742
  0
VERTEX
  8
LAYER_1
 62
   242
 10
-18.8253
 20
-5.8976
  0
VERTEX
  8
LAYER_1
 62
   242
 10
-20.2781
 20
-5.1342
  0
VERTEX
  8
LAYER_1
 62
   242
 10
-21.5538
 20
-4.3316
  0
VERTEX
  8
LAYER_1
 62
   242
 10
-22.5675
 20
-3.5372
  0
VERTEX
  8
LAYER_1
 62
   242
 10
-23.2344
 20
-2.7987
  0
VERTEX
  8
LAYER_1
 62
   242
 10
-22.6766
 20
-2.8387
  0
VERTEX
  8
LAYER_1
 62
   242
 10
-22.1815
 20
-2.8269
  0
VERTEX
  8
LAYER_1
 62
   242
 10
-21.7341
 20
-2.765
  0
VERTEX
  8
LAYER_1
 62
   242
 10
-21.3194
 20
-2.6546
  0
VERTEX
  8
LAYER_1
 62
   242
 10
-20.9224
 20
-2.4975
  0
VERTEX
  8
LAYER_1
 62
   242
 10
-20.5281
 20
-2.2952
  0
VERTEX
  8
LAYER_1
 62
   242
 10
-20.1217
 20
-2.0495
  0
VERTEX
  8
LAYER_1
 62
   242
 10
-19.6881
 20
-1.762
  0
VERTEX
  8
LAYER_1
 62
   242
 10
-19.0867
 20
-1.3576
  0
VERTEX
  8
LAYER_1
 62
   242
 10
-18.5153
 20
-0.987
  0
VERTEX
  8
LAYER_1
 62
   242
 10
-17.9312
 20
-0.6261
  0
VERTEX
  8
LAYER_1
 62
   242
 10
-17.2922
 20
-0.251
  0
VERTEX
  8
LAYER_1
 62
   242
 10
-16.7186
 20
0.0512
  0
VERTEX
  8
LAYER_1
 62
   242
 10
-16.0547
 20
0.3511
  0
VERTEX
  8
LAYER_1
 62
   242
 10
-15.3185
 20
0.6369
  0
VERTEX
  8
LAYER_1
 62
   242
 10
-14.5276
 20
0.8971
  0
VERTEX
  8
LAYER_1
 62
   242
 10
-13.7001
 20
1.1198
  0
VERTEX
  8
LAYER_1
 62
   242
 10
-12.8537
 20
1.2934
  0
VERTEX
  8
LAYER_1
 62
   242
 10
-12.0063
 20
1.4061
  0
VERTEX
  8
LAYER_1
 62
   242
 10
-11.1758
 20
1.4463
  0
VERTEX
  8
LAYER_1
 62
   242
 10
-10.4304
 20
1.4327
  0
VERTEX
  8
LAYER_1
 62
   242
 10
-9.7215
 20
1.3881
  0
VERTEX
  8
LAYER_1
 62
   242
 10
-9.0475
 20
1.3071
  0
VERTEX
  8
LAYER_1
 62
   242
 10
-8.4071
 20
1.184
  0
VERTEX
  8
LAYER_1
 62
   242
 10
-7.7988
 20
1.0132
  0
VERTEX
  8
LAYER_1
 62
   242
 10
-7.2211
 20
0.7892
  0
VERTEX
  8
LAYER_1
 62
   242
 10
-6.6725
 20
0.5065
  0
VERTEX
  8
LAYER_1
 62
   242
 10
-6.1517
 20
0.1594
  0
VERTEX
  8
LAYER_1
 62
   242
 10
-5.5948
 20
-0.3593
  0
VERTEX
  8
LAYER_1
 62
   242
 10
-5.172
 20
-0.9429
  0
VERTEX
  8
LAYER_1
 62
   242
 10
-4.8621
 20
-1.5545
  0
VERTEX
  8
LAYER_1
 62
   242
 10
-4.6439
 20
-2.1571
  0
VERTEX
  8
LAYER_1
 62
   242
 10
-4.4962
 20
-2.7137
  0
VERTEX
  8
LAYER_1
 62
   242
 10
-4.3977
 20
-3.1873
  0
VERTEX
  8
LAYER_1
 62
   242
 10
-4.3273
 20
-3.541
  0
VERTEX
  8
LAYER_1
 62
   242
 10
-4.2637
 20
-3.7378
  0
VERTEX
  8
LAYER_1
 62
   242
 10
-4.2064
 20
-3.2009
  0
VERTEX
  8
LAYER_1
 62
   242
 10
-4.1836
 20
-2.8881
  0
VERTEX
  8
LAYER_1
 62
   242
 10
-4.1821
 20
-2.5775
  0
VERTEX
  8
LAYER_1
 62
   242
 10
-4.1886
 20
-2.0473
  0
VERTEX
  8
LAYER_1
 62
   242
 10
-4.3574
 20
-0.6799
  0
VERTEX
  8
LAYER_1
 62
   242
 10
-4.8074
 20
0.3862
  0
VERTEX
  8
LAYER_1
 62
   242
 10
-5.494
 20
1.2264
  0
VERTEX
  8
LAYER_1
 62
   242
 10
-6.3728
 20
1.9159
  0
VERTEX
  8
LAYER_1
 62
   242
 10
-7.3991
 20
2.53
  0
VERTEX
  8
LAYER_1
 62
   242
 10
-8.5283
 20
3.1439
  0
VERTEX
  8
LAYER_1
 62
   242
 10
-9.716
 20
3.833
  0
VERTEX
  8
LAYER_1
 62
   242
 10
-10.9174
 20
4.6724
  0
VERTEX
  8
LAYER_1
 62
   242
 10
-11.4118
 20
5.0794
  0
VERTEX
  8
LAYER_1
 62
   242
 10
-11.8536
 20
5.4857
  0
VERTEX
  8
LAYER_1
 62
   242
 10
-12.2483
 20
5.9038
  0
VERTEX
  8
LAYER_1
 62
   242
 10
-12.6014
 20
6.3462
  0
VERTEX
  8
LAYER_1
 62
   242
 10
-12.9183
 20
6.8253
  0
VERTEX
  8
LAYER_1
 62
   242
 10
-13.2046
 20
7.3535
  0
VERTEX
  8
LAYER_1
 62
   242
 10
-13.4656
 20
7.9433
  0
VERTEX
  8
LAYER_1
 62
   242
 10
-13.707
 20
8.6071
  0
VERTEX
  8
LAYER_1
 62
   242
 10
-13.9886
 20
9.5306
  0
VERTEX
  8
LAYER_1
 62
   242
 10
-14.2069
 20
10.4061
  0
VERTEX
  8
LAYER_1
 62
   242
 10
-14.3698
 20
11.254
  0
VERTEX
  8
LAYER_1
 62
   242
 10
-14.4854
 20
12.0948
  0
VERTEX
  8
LAYER_1
 62
   242
 10
-14.5614
 20
12.949
  0
VERTEX
  8
LAYER_1
 62
   242
 10
-14.6058
 20
13.837
  0
VERTEX
  8
LAYER_1
 62
   242
 10
-14.6267
 20
14.7794
  0
VERTEX
  8
LAYER_1
 62
   242
 10
-14.6319
 20
15.7965
  0
VERTEX
  8
LAYER_1
 62
   242
 10
-14.6168
 20
16.15
  0
VERTEX
  8
LAYER_1
 62
   242
 10
-14.5754
 20
16.5047
  0
VERTEX
  8
LAYER_1
 62
   242
 10
-14.5137
 20
16.8579
  0
VERTEX
  8
LAYER_1
 62
   242
 10
-14.4375
 20
17.2066
  0
VERTEX
  8
LAYER_1
 62
   242
 10
-14.2652
 20
17.8797
  0
VERTEX
  8
LAYER_1
 62
   242
 10
-14.106
 20
18.5012
  0
VERTEX
  8
LAYER_1
 62
   242
 10
-13.9465
 20
18.2338
  0
VERTEX
  8
LAYER_1
 62
   242
 10
-13.7354
 20
17.8293
  0
VERTEX
  8
LAYER_1
 62
   242
 10
-13.5847
 20
17.5883
  0
VERTEX
  8
LAYER_1
 62
   242
 10
-13.3904
 20
17.3284
  0
VERTEX
  8
LAYER_1
 62
   242
 10
-13.1422
 20
17.0546
  0
VERTEX
  8
LAYER_1
 62
   242
 10
-12.8298
 20
16.7721
  0
VERTEX
  8
LAYER_1
 62
   242
 10
-12.6143
 20
16.6072
  0
VERTEX
  8
LAYER_1
 62
   242
 10
-12.387
 20
16.4538
  0
VERTEX
  8
LAYER_1
 62
   242
 10
-12.1497
 20
16.3103
  0
VERTEX
  8
LAYER_1
 62
   242
 10
-11.904
 20
16.1752
  0
VERTEX
  8
LAYER_1
 62
   242
 10
-11.3946
 20
15.9235
  0
VERTEX
  8
LAYER_1
 62
   242
 10
-10.8731
 20
15.6859
  0
VERTEX
  8
LAYER_1
 62
   242
 10
-10.3743
 20
15.4502
  0
VERTEX
  8
LAYER_1
 62
   242
 10
-9.8783
 20
15.1931
  0
VERTEX
  8
LAYER_1
 62
   242
 10
-9.3886
 20
14.9174
  0
VERTEX
  8
LAYER_1
 62
   242
 10
-8.9086
 20
14.6259
  0
VERTEX
  8
LAYER_1
 62
   242
 10
-8.4418
 20
14.3211
  0
VERTEX
  8
LAYER_1
 62
   242
 10
-7.9918
 20
14.0059
  0
VERTEX
  8
LAYER_1
 62
   242
 10
-7.562
 20
13.6829
  0
VERTEX
  8
LAYER_1
 62
   242
 10
-7.156
 20
13.3549
  0
VERTEX
  8
LAYER_1
 62
   242
 10
-6.752
 20
13.0041
  0
VERTEX
  8
LAYER_1
 62
   242
 10
-6.3616
 20
12.6396
  0
VERTEX
  8
LAYER_1
 62
   242
 10
-5.9854
 20
12.2605
  0
VERTEX
  8
LAYER_1
 62
   242
 10
-5.6244
 20
11.866
  0
VERTEX
  8
LAYER_1
 62
   242
 10
-5.2791
 20
11.4553
  0
VERTEX
  8
LAYER_1
 62
   242
 10
-4.9504
 20
11.0275
  0
VERTEX
  8
LAYER_1
 62
   242
 10
-4.639
 20
10.5818
  0
VERTEX
  8
LAYER_1
 62
   242
 10
-4.3456
 20
10.1173
  0
VERTEX
  8
LAYER_1
 62
   242
 10
-4.1096
 20
9.6978
  0
VERTEX
  8
LAYER_1
 62
   242
 10
-3.8514
 20
9.1866
  0
VERTEX
  8
LAYER_1
 62
   242
 10
-3.5873
 20
8.6071
  0
VERTEX
  8
LAYER_1
 62
   242
 10
-3.3341
 20
7.9827
  0
VERTEX
  8
LAYER_1
 62
   242
 10
-3.1083
 20
7.3368
  0
VERTEX
  8
LAYER_1
 62
   242
 10
-2.9265
 20
6.6927
  0
VERTEX
  8
LAYER_1
 62
   242
 10
-2.8052
 20
6.0738
  0
VERTEX
  8
LAYER_1
 62
   242
 10
-2.7611
 20
5.5034
  0
VERTEX
  8
LAYER_1
 62
   242
 10
-2.8533
 20
4.7428
  0
VERTEX
  8
LAYER_1
 62
   242
 10
-3.0987
 20
4.0614
  0
VERTEX
  8
LAYER_1
 62
   242
 10
-3.4505
 20
3.4599
  0
VERTEX
  8
LAYER_1
 62
   242
 10
-3.8618
 20
2.939
  0
VERTEX
  8
LAYER_1
 62
   242
 10
-4.2857
 20
2.499
  0
VERTEX
  8
LAYER_1
 62
   242
 10
-4.6755
 20
2.1408
  0
VERTEX
  8
LAYER_1
 62
   242
 10
-4.9843
 20
1.8648
  0
VERTEX
  8
LAYER_1
 62
   242
 10
-5.1653
 20
1.6717
  0
VERTEX
  8
LAYER_1
 62
   242
 10
-4.8487
 20
1.7732
  0
VERTEX
  8
LAYER_1
 62
   242
 10
-4.5009
 20
1.9308
  0
VERTEX
  8
LAYER_1
 62
   242
 10
-4.1366
 20
2.131
  0
VERTEX
  8
LAYER_1
 62
   242
 10
-3.7706
 20
2.3601
  0
VERTEX
  8
LAYER_1
 62
   242
 10
-3.4175
 20
2.6047
  0
VERTEX
  8
LAYER_1
 62
   242
 10
-3.092
 20
2.8513
  0
VERTEX
  8
LAYER_1
 62
   242
 10
-2.8088
 20
3.0864
  0
VERTEX
  8
LAYER_1
 62
   242
 10
-2.5825
 20
3.2963
  0
VERTEX
  8
LAYER_1
 62
   242
 10
-2.3166
 20
3.5796
  0
VERTEX
  8
LAYER_1
 62
   242
 10
-2.0785
 20
3.8761
  0
VERTEX
  8
LAYER_1
 62
   242
 10
-1.8706
 20
4.193
  0
VERTEX
  8
LAYER_1
 62
   242
 10
-1.6954
 20
4.5372
  0
VERTEX
  8
LAYER_1
 62
   242
 10
-1.5553
 20
4.9158
  0
VERTEX
  8
LAYER_1
 62
   242
 10
-1.4527
 20
5.3359
  0
VERTEX
  8
LAYER_1
 62
   242
 10
-1.3901
 20
5.8044
  0
VERTEX
  8
LAYER_1
 62
   242
 10
-1.3699
 20
6.3285
  0
VERTEX
  8
LAYER_1
 62
   242
 10
-1.3779
 20
7.442
  0
VERTEX
  8
LAYER_1
 62
   242
 10
-1.3849
 20
8.5113
  0
VERTEX
  8
LAYER_1
 62
   242
 10
-1.3761
 20
9.5371
  0
VERTEX
  8
LAYER_1
 62
   242
 10
-1.3369
 20
10.5198
  0
VERTEX
  8
LAYER_1
 62
   242
 10
-1.2524
 20
11.4599
  0
VERTEX
  8
LAYER_1
 62
   242
 10
-1.108
 20
12.3578
  0
VERTEX
  8
LAYER_1
 62
   242
 10
-0.8889
 20
13.214
  0
VERTEX
  8
LAYER_1
 62
   242
 10
-0.5805
 20
14.0291
  0
VERTEX
  8
LAYER_1
 62
   242
 10
-0.0728
 20
14.9404
  0
VERTEX
  8
LAYER_1
 62
   242
 10
0.5979
 20
15.8276
  0
VERTEX
  8
LAYER_1
 62
   242
 10
1.3962
 20
16.6813
  0
VERTEX
  8
LAYER_1
 62
   242
 10
2.287
 20
17.4919
  0
VERTEX
  8
LAYER_1
 62
   242
 10
3.235
 20
18.2499
  0
VERTEX
  8
LAYER_1
 62
   242
 10
4.205
 20
18.9457
  0
VERTEX
  8
LAYER_1
 62
   242
 10
5.1618
 20
19.57
  0
VERTEX
  8
LAYER_1
 62
   242
 10
6.0703
 20
20.1131
  0
VERTEX
  8
LAYER_1
 62
   242
 10
6.4118
 20
20.3044
  0
VERTEX
  8
LAYER_1
 62
   242
 10
6.7563
 20
20.4828
  0
VERTEX
  8
LAYER_1
 62
   242
 10
7.1149
 20
20.6452
  0
VERTEX
  8
LAYER_1
 62
   242
 10
7.4987
 20
20.7884
  0
VERTEX
  8
LAYER_1
 62
   242
 10
7.8768
 20
20.8994
  0
VERTEX
  8
LAYER_1
 62
   242
 10
8.3593
 20
21.031
  0
VERTEX
  8
LAYER_1
 62
   242
 10
8.8237
 20
21.1645
  0
VERTEX
  8
LAYER_1
 62
   242
 10
9.1473
 20
21.2811
  0
VERTEX
  8
LAYER_1
 62
   242
 10
8.9736
 20
20.9892
  0
VERTEX
  8
LAYER_1
 62
   242
 10
8.631
 20
20.3719
  0
VERTEX
  8
LAYER_1
 62
   242
 10
8.4565
 20
19.9737
  0
VERTEX
  8
LAYER_1
 62
   242
 10
8.3118
 20
19.533
  0
VERTEX
  8
LAYER_1
 62
   242
 10
8.221
 20
19.0629
  0
VERTEX
  8
LAYER_1
 62
   242
 10
8.2081
 20
18.5763
  0
VERTEX
  8
LAYER_1
 62
   242
 10
8.4205
 20
15.4601
  0
VERTEX
  8
LAYER_1
 62
   242
 10
8.3795
 20
13.9541
  0
VERTEX
  8
LAYER_1
 62
   242
 10
8.0883
 20
12.2467
  0
VERTEX
  8
LAYER_1
 62
   242
 10
7.5588
 20
10.4617
  0
VERTEX
  8
LAYER_1
 62
   242
 10
6.8026
 20
8.7234
  0
VERTEX
  8
LAYER_1
 62
   242
 10
5.8315
 20
7.1554
  0
VERTEX
  8
LAYER_1
 62
   242
 10
4.6573
 20
5.882
  0
VERTEX
  8
LAYER_1
 62
   242
 10
3.2919
 20
5.027
  0
VERTEX
  8
LAYER_1
 62
   242
 10
1.7468
 20
4.7145
  0
VERTEX
  8
LAYER_1
 62
   242
 10
1.2868
 20
4.7335
  0
VERTEX
  8
LAYER_1
 62
   242
 10
0.8931
 20
4.7855
  0
VERTEX
  8
LAYER_1
 62
   242
 10
0.5507
 20
4.8626
  0
VERTEX
  8
LAYER_1
 62
   242
 10
0.2445
 20
4.957
  0
VERTEX
  8
LAYER_1
 62
   242
 10
-0.3198
 20
5.167
  0
VERTEX
  8
LAYER_1
 62
   242
 10
-0.9204
 20
5.3531
  0
VERTEX
  8
LAYER_1
 62
   242
 10
-0.6971
 20
5.1223
  0
VERTEX
  8
LAYER_1
 62
   242
 10
-0.3333
 20
4.8635
  0
VERTEX
  8
LAYER_1
 62
   242
 10
0.1352
 20
4.5949
  0
VERTEX
  8
LAYER_1
 62
   242
 10
0.6728
 20
4.3346
  0
VERTEX
  8
LAYER_1
 62
   242
 10
1.2436
 20
4.1006
  0
VERTEX
  8
LAYER_1
 62
   242
 10
1.812
 20
3.9111
  0
VERTEX
  8
LAYER_1
 62
   242
 10
2.3423
 20
3.7841
  0
VERTEX
  8
LAYER_1
 62
   242
 10
2.7987
 20
3.7378
  0
VERTEX
  8
LAYER_1
 62
   242
 10
3.0992
 20
3.7378
  0
VERTEX
  8
LAYER_1
 62
   242
 10
4.0276
 20
3.9008
  0
VERTEX
  8
LAYER_1
 62
   242
 10
5.043
 20
4.3306
  0
VERTEX
  8
LAYER_1
 62
   242
 10
6.133
 20
4.9383
  0
VERTEX
  8
LAYER_1
 62
   242
 10
7.2851
 20
5.6349
  0
VERTEX
  8
LAYER_1
 62
   242
 10
8.4868
 20
6.3315
  0
VERTEX
  8
LAYER_1
 62
   242
 10
9.7257
 20
6.9392
  0
VERTEX
  8
LAYER_1
 62
   242
 10
10.9893
 20
7.369
  0
VERTEX
  8
LAYER_1
 62
   242
 10
12.2652
 20
7.532
  0
VERTEX
  8
LAYER_1
 62
   242
 10
12.9039
 20
7.532
  0
VERTEX
  8
LAYER_1
 62
   242
 10
13.5418
 20
7.4986
  0
VERTEX
  8
LAYER_1
 62
   242
 10
14.2297
 20
7.4022
  0
VERTEX
  8
LAYER_1
 62
   242
 10
14.9569
 20
7.2488
  0
VERTEX
  8
LAYER_1
 62
   242
 10
15.7131
 20
7.0441
  0
VERTEX
  8
LAYER_1
 62
   242
 10
16.4877
 20
6.7941
  0
VERTEX
  8
LAYER_1
 62
   242
 10
17.2703
 20
6.5045
  0
VERTEX
  8
LAYER_1
 62
   242
 10
18.0505
 20
6.1813
  0
VERTEX
  8
LAYER_1
 62
   242
 10
18.8177
 20
5.8303
  0
VERTEX
  8
LAYER_1
 62
   242
 10
19.5616
 20
5.4574
  0
VERTEX
  8
LAYER_1
 62
   242
 10
20.2716
 20
5.0683
  0
VERTEX
  8
LAYER_1
 62
   242
 10
20.9372
 20
4.669
  0
VERTEX
  8
LAYER_1
 62
   242
 10
21.5481
 20
4.2653
  0
VERTEX
  8
LAYER_1
 62
   242
 10
22.0937
 20
3.863
  0
VERTEX
  8
LAYER_1
 62
   242
 10
22.5636
 20
3.4681
  0
VERTEX
  8
LAYER_1
 62
   242
 10
22.9473
 20
3.0863
  0
VERTEX
  8
LAYER_1
 62
   242
 10
23.2344
 20
2.7235
  0
VERTEX
  8
LAYER_1
 62
   242
 10
22.6895
 20
2.7613
  0
VERTEX
  8
LAYER_1
 62
   242
 10
22.194
 20
2.7477
  0
VERTEX
  8
LAYER_1
 62
   242
 10
21.7372
 20
2.6842
  0
VERTEX
  8
LAYER_1
 62
   242
 10
21.3086
 20
2.5723
  0
VERTEX
  8
LAYER_1
 62
   242
 10
20.8976
 20
2.4137
  0
VERTEX
  8
LAYER_1
 62
   242
 10
20.4936
 20
2.2099
  0
VERTEX
  8
LAYER_1
 62
   242
 10
20.086
 20
1.9625
  0
VERTEX
  8
LAYER_1
 62
   242
 10
19.6643
 20
1.6731
  0
VERTEX
  8
LAYER_1
 62
   242
 10
19.0766
 20
1.266
  0
VERTEX
  8
LAYER_1
 62
   242
 10
18.4972
 20
0.8916
  0
VERTEX
  8
LAYER_1
 62
   242
 10
17.9025
 20
0.5302
  0
VERTEX
  8
LAYER_1
 62
   242
 10
17.2686
 20
0.162
  0
VERTEX
  8
LAYER_1
 62
   242
 10
16.6942
 20
-0.1392
  0
VERTEX
  8
LAYER_1
 62
   242
 10
16.0287
 20
-0.4373
  0
VERTEX
  8
LAYER_1
 62
   242
 10
15.2903
 20
-0.7209
  0
VERTEX
  8
LAYER_1
 62
   242
 10
14.4971
 20
-0.9786
  0
VERTEX
  8
LAYER_1
 62
   242
 10
13.6672
 20
-1.1989
  0
VERTEX
  8
LAYER_1
 62
   242
 10
12.8187
 20
-1.3705
  0
VERTEX
  8
LAYER_1
 62
   242
 10
11.9697
 20
-1.4818
  0
VERTEX
  8
LAYER_1
 62
   242
 10
11.1383
 20
-1.5214
  0
VERTEX
  8
LAYER_1
 62
   242
 10
10.4164
 20
-1.5061
  0
VERTEX
  8
LAYER_1
 62
   242
 10
9.697
 20
-1.4582
  0
VERTEX
  8
LAYER_1
 62
   242
 10
8.9902
 20
-1.3745
  0
VERTEX
  8
LAYER_1
 62
   242
 10
8.3063
 20
-1.2519
  0
VERTEX
  8
LAYER_1
 62
   242
 10
7.6553
 20
-1.0872
  0
VERTEX
  8
LAYER_1
 62
   242
 10
7.0474
 20
-0.8774
  0
VERTEX
  8
LAYER_1
 62
   242
 10
6.4928
 20
-0.6192
  0
VERTEX
  8
LAYER_1
 62
   242
 10
6.0015
 20
-0.3096
  0
VERTEX
  8
LAYER_1
 62
   242
 10
5.7873
 20
-0.1407
  0
VERTEX
  8
LAYER_1
 62
   242
 10
5.5908
 20
0.0368
  0
VERTEX
  8
LAYER_1
 62
   242
 10
5.4101
 20
0.2236
  0
VERTEX
  8
LAYER_1
 62
   242
 10
5.2433
 20
0.4209
  0
VERTEX
  8
LAYER_1
 62
   242
 10
5.0885
 20
0.6295
  0
VERTEX
  8
LAYER_1
 62
   242
 10
4.9437
 20
0.8504
  0
VERTEX
  8
LAYER_1
 62
   242
 10
4.807
 20
1.0846
  0
VERTEX
  8
LAYER_1
 62
   242
 10
4.6764
 20
1.3331
  0
VERTEX
  8
LAYER_1
 62
   242
 10
4.5859
 20
1.5596
  0
VERTEX
  8
LAYER_1
 62
   242
 10
4.4861
 20
1.8796
  0
VERTEX
  8
LAYER_1
 62
   242
 10
4.383
 20
2.2557
  0
VERTEX
  8
LAYER_1
 62
   242
 10
4.2831
 20
2.6502
  0
VERTEX
  8
LAYER_1
 62
   242
 10
4.1173
 20
3.3446
  0
VERTEX
  8
LAYER_1
 62
   242
 10
4.0383
 20
3.6627
  0
VERTEX
  8
LAYER_1
 62
   242
 10
3.9097
 20
2.3116
  0
VERTEX
  8
LAYER_1
 62
   242
 10
3.9111
 20
1.4682
  0
VERTEX
  8
LAYER_1
 62
   242
 10
4.0355
 20
0.7238
  0
VERTEX
  8
LAYER_1
 62
   242
 10
4.2661
 20
0.0692
  0
VERTEX
  8
LAYER_1
 62
   242
 10
4.5863
 20
-0.5046
  0
VERTEX
  8
LAYER_1
 62
   242
 10
4.9792
 20
-1.0068
  0
VERTEX
  8
LAYER_1
 62
   242
 10
5.4283
 20
-1.4465
  0
VERTEX
  8
LAYER_1
 62
   242
 10
5.9166
 20
-1.8329
  0
VERTEX
  8
LAYER_1
 62
   242
 10
6.4276
 20
-2.175
  0
VERTEX
  8
LAYER_1
 62
   242
 10
6.9764
 20
-2.5047
  0
VERTEX
  8
LAYER_1
 62
   242
 10
7.537
 20
-2.8223
  0
VERTEX
  8
LAYER_1
 62
   242
 10
8.1031
 20
-3.1343
  0
VERTEX
  8
LAYER_1
 62
   242
 10
8.6681
 20
-3.4472
  0
VERTEX
  8
LAYER_1
 62
   242
 10
9.2255
 20
-3.7677
  0
VERTEX
  8
LAYER_1
 62
   242
 10
9.7688
 20
-4.1023
  0
VERTEX
  8
LAYER_1
 62
   242
 10
10.2916
 20
-4.4576
  0
VERTEX
  8
LAYER_1
 62
   242
 10
10.7872
 20
-4.8402
  0
VERTEX
  8
LAYER_1
 62
   242
 10
11.3001
 20
-5.284
  0
VERTEX
  8
LAYER_1
 62
   242
 10
11.7515
 20
-5.719
  0
VERTEX
  8
LAYER_1
 62
   242
 10
12.1487
 20
-6.1611
  0
VERTEX
  8
LAYER_1
 62
   242
 10
12.4993
 20
-6.626
  0
VERTEX
  8
LAYER_1
 62
   242
 10
12.8107
 20
-7.1297
  0
VERTEX
  8
LAYER_1
 62
   242
 10
13.0902
 20
-7.6879
  0
VERTEX
  8
LAYER_1
 62
   242
 10
13.3454
 20
-8.3164
  0
VERTEX
  8
LAYER_1
 62
   242
 10
13.5836
 20
-9.031
  0
VERTEX
  8
LAYER_1
 62
   242
 10
13.7961
 20
-9.7892
  0
VERTEX
  8
LAYER_1
 62
   242
 10
13.9725
 20
-10.5486
  0
VERTEX
  8
LAYER_1
 62
   242
 10
14.1151
 20
-11.3172
  0
VERTEX
  8
LAYER_1
 62
   242
 10
14.2264
 20
-12.1027
  0
VERTEX
  8
LAYER_1
 62
   242
 10
14.3088
 20
-12.913
  0
VERTEX
  8
LAYER_1
 62
   242
 10
14.3647
 20
-13.756
  0
VERTEX
  8
LAYER_1
 62
   242
 10
14.3964
 20
-14.6394
  0
VERTEX
  8
LAYER_1
 62
   242
 10
14.4065
 20
-15.5711
  0
VERTEX
  8
LAYER_1
 62
   242
 10
14.3948
 20
-15.8485
  0
VERTEX
  8
LAYER_1
 62
   242
 10
14.3622
 20
-16.2021
  0
VERTEX
  8
LAYER_1
 62
   242
 10
14.3122
 20
-16.6058
  0
VERTEX
  8
LAYER_1
 62
   242
 10
14.2487
 20
-17.0337
  0
VERTEX
  8
LAYER_1
 62
   242
 10
14.1753
 20
-17.4596
  0
VERTEX
  8
LAYER_1
 62
   242
 10
14.0957
 20
-17.8575
  0
VERTEX
  8
LAYER_1
 62
   242
 10
14.0135
 20
-18.2013
  0
VERTEX
  8
LAYER_1
 62
   242
 10
13.9324
 20
-18.465
  0
VERTEX
  8
LAYER_1
 62
   242
 10
13.8678
 20
-18.6056
  0
SEQEND
  8
LAYER_1
 62
   242
  0
ENDSEC
  0
EOF
